%TF.GenerationSoftware,KiCad,Pcbnew,7.0.2*%
%TF.CreationDate,2024-07-09T14:04:18+01:00*%
%TF.ProjectId,dk2_03_top,646b325f-3033-45f7-946f-702e6b696361,rev?*%
%TF.SameCoordinates,Original*%
%TF.FileFunction,Copper,L2,Bot*%
%TF.FilePolarity,Positive*%
%FSLAX46Y46*%
G04 Gerber Fmt 4.6, Leading zero omitted, Abs format (unit mm)*
G04 Created by KiCad (PCBNEW 7.0.2) date 2024-07-09 14:04:18*
%MOMM*%
%LPD*%
G01*
G04 APERTURE LIST*
G04 Aperture macros list*
%AMRoundRect*
0 Rectangle with rounded corners*
0 $1 Rounding radius*
0 $2 $3 $4 $5 $6 $7 $8 $9 X,Y pos of 4 corners*
0 Add a 4 corners polygon primitive as box body*
4,1,4,$2,$3,$4,$5,$6,$7,$8,$9,$2,$3,0*
0 Add four circle primitives for the rounded corners*
1,1,$1+$1,$2,$3*
1,1,$1+$1,$4,$5*
1,1,$1+$1,$6,$7*
1,1,$1+$1,$8,$9*
0 Add four rect primitives between the rounded corners*
20,1,$1+$1,$2,$3,$4,$5,0*
20,1,$1+$1,$4,$5,$6,$7,0*
20,1,$1+$1,$6,$7,$8,$9,0*
20,1,$1+$1,$8,$9,$2,$3,0*%
G04 Aperture macros list end*
%TA.AperFunction,ComponentPad*%
%ADD10C,2.000000*%
%TD*%
%TA.AperFunction,ComponentPad*%
%ADD11O,3.240000X2.720000*%
%TD*%
%TA.AperFunction,ComponentPad*%
%ADD12R,1.800000X1.800000*%
%TD*%
%TA.AperFunction,ComponentPad*%
%ADD13C,1.800000*%
%TD*%
%TA.AperFunction,ComponentPad*%
%ADD14O,3.100000X2.300000*%
%TD*%
%TA.AperFunction,ComponentPad*%
%ADD15RoundRect,0.650000X-0.650000X-0.650000X0.650000X-0.650000X0.650000X0.650000X-0.650000X0.650000X0*%
%TD*%
%TA.AperFunction,ComponentPad*%
%ADD16R,1.500000X1.500000*%
%TD*%
%TA.AperFunction,ComponentPad*%
%ADD17C,1.500000*%
%TD*%
%TA.AperFunction,ComponentPad*%
%ADD18C,1.050000*%
%TD*%
%TA.AperFunction,ComponentPad*%
%ADD19R,1.350000X1.350000*%
%TD*%
%TA.AperFunction,SMDPad,CuDef*%
%ADD20RoundRect,0.200000X0.200000X0.275000X-0.200000X0.275000X-0.200000X-0.275000X0.200000X-0.275000X0*%
%TD*%
%TA.AperFunction,SMDPad,CuDef*%
%ADD21RoundRect,0.200000X-0.275000X0.200000X-0.275000X-0.200000X0.275000X-0.200000X0.275000X0.200000X0*%
%TD*%
%TA.AperFunction,SMDPad,CuDef*%
%ADD22RoundRect,0.200000X0.275000X-0.200000X0.275000X0.200000X-0.275000X0.200000X-0.275000X-0.200000X0*%
%TD*%
%TA.AperFunction,ComponentPad*%
%ADD23R,1.700000X1.700000*%
%TD*%
%TA.AperFunction,ComponentPad*%
%ADD24O,1.700000X1.700000*%
%TD*%
%TA.AperFunction,SMDPad,CuDef*%
%ADD25RoundRect,0.150000X0.825000X0.150000X-0.825000X0.150000X-0.825000X-0.150000X0.825000X-0.150000X0*%
%TD*%
%TA.AperFunction,SMDPad,CuDef*%
%ADD26RoundRect,0.200000X-0.200000X-0.275000X0.200000X-0.275000X0.200000X0.275000X-0.200000X0.275000X0*%
%TD*%
%TA.AperFunction,SMDPad,CuDef*%
%ADD27RoundRect,0.225000X0.225000X0.250000X-0.225000X0.250000X-0.225000X-0.250000X0.225000X-0.250000X0*%
%TD*%
%TA.AperFunction,SMDPad,CuDef*%
%ADD28RoundRect,0.150000X-0.150000X0.825000X-0.150000X-0.825000X0.150000X-0.825000X0.150000X0.825000X0*%
%TD*%
%TA.AperFunction,ViaPad*%
%ADD29C,0.800000*%
%TD*%
%TA.AperFunction,Conductor*%
%ADD30C,0.250000*%
%TD*%
%TA.AperFunction,Conductor*%
%ADD31C,0.500000*%
%TD*%
G04 APERTURE END LIST*
D10*
%TO.P,SW10,1,1*%
%TO.N,+3.3V*%
X127000000Y-93000000D03*
X133500000Y-93000000D03*
%TO.P,SW10,2,2*%
%TO.N,Net-(U5-D1)*%
X127000000Y-97500000D03*
X133500000Y-97500000D03*
%TD*%
%TO.P,SW8,1,1*%
%TO.N,+3.3V*%
X107000000Y-93000000D03*
X113500000Y-93000000D03*
%TO.P,SW8,2,2*%
%TO.N,Net-(U4-D7)*%
X107000000Y-97500000D03*
X113500000Y-97500000D03*
%TD*%
D11*
%TO.P,RV3,*%
%TO.N,*%
X120500000Y-51300000D03*
X120500000Y-41700000D03*
D12*
%TO.P,RV3,1,1*%
%TO.N,+3.3V*%
X128000000Y-49000000D03*
D13*
%TO.P,RV3,2,2*%
%TO.N,Net-(U6-A2)*%
X128000000Y-46500000D03*
%TO.P,RV3,3,3*%
%TO.N,GND*%
X128000000Y-44000000D03*
%TD*%
D14*
%TO.P,J2,S*%
%TO.N,GND*%
X96000000Y-130400000D03*
D15*
%TO.P,J2,T*%
%TO.N,TRIGGER_OUT_1_EURO*%
X96000000Y-119000000D03*
%TO.P,J2,TN*%
%TO.N,unconnected-(J2-PadTN)*%
X96000000Y-127300000D03*
%TD*%
D14*
%TO.P,J13,S*%
%TO.N,GND*%
X132000000Y-130400000D03*
D15*
%TO.P,J13,T*%
%TO.N,Net-(J13-PadT)*%
X132000000Y-119000000D03*
%TO.P,J13,TN*%
%TO.N,GND*%
X132000000Y-127300000D03*
%TD*%
D11*
%TO.P,RV8,*%
%TO.N,*%
X139500000Y-71300000D03*
X139500000Y-61700000D03*
D12*
%TO.P,RV8,1,1*%
%TO.N,+3.3V*%
X147000000Y-69000000D03*
D13*
%TO.P,RV8,2,2*%
%TO.N,Net-(U6-A7)*%
X147000000Y-66500000D03*
%TO.P,RV8,3,3*%
%TO.N,GND*%
X147000000Y-64000000D03*
%TD*%
D14*
%TO.P,J12,S*%
%TO.N,GND*%
X120000000Y-130400000D03*
D15*
%TO.P,J12,T*%
%TO.N,Net-(J12-PadT)*%
X120000000Y-119000000D03*
%TO.P,J12,TN*%
%TO.N,GND*%
X120000000Y-127300000D03*
%TD*%
D10*
%TO.P,SW19,1,1*%
%TO.N,+3.3V*%
X172000000Y-105000000D03*
X178500000Y-105000000D03*
%TO.P,SW19,2,2*%
%TO.N,Net-(U10-D2)*%
X172000000Y-109500000D03*
X178500000Y-109500000D03*
%TD*%
D14*
%TO.P,J11,S*%
%TO.N,GND*%
X144000000Y-146400000D03*
D15*
%TO.P,J11,T*%
%TO.N,EURO_OUT_2*%
X144000000Y-135000000D03*
%TO.P,J11,TN*%
%TO.N,unconnected-(J11-PadTN)*%
X144000000Y-143300000D03*
%TD*%
D11*
%TO.P,RV4,*%
%TO.N,*%
X139500000Y-51300000D03*
X139500000Y-41700000D03*
D12*
%TO.P,RV4,1,1*%
%TO.N,+3.3V*%
X147000000Y-49000000D03*
D13*
%TO.P,RV4,2,2*%
%TO.N,Net-(U6-A3)*%
X147000000Y-46500000D03*
%TO.P,RV4,3,3*%
%TO.N,GND*%
X147000000Y-44000000D03*
%TD*%
D10*
%TO.P,SW3,1,1*%
%TO.N,+3.3V*%
X107000000Y-81000000D03*
X113500000Y-81000000D03*
%TO.P,SW3,2,2*%
%TO.N,Net-(U4-D2)*%
X107000000Y-85500000D03*
X113500000Y-85500000D03*
%TD*%
D11*
%TO.P,RV1,*%
%TO.N,*%
X82500000Y-51300000D03*
X82500000Y-41700000D03*
D12*
%TO.P,RV1,1,1*%
%TO.N,+3.3V*%
X90000000Y-49000000D03*
D13*
%TO.P,RV1,2,2*%
%TO.N,Net-(U6-A0)*%
X90000000Y-46500000D03*
%TO.P,RV1,3,3*%
%TO.N,GND*%
X90000000Y-44000000D03*
%TD*%
D11*
%TO.P,RV10,*%
%TO.N,*%
X177500000Y-51300000D03*
X177500000Y-41700000D03*
D12*
%TO.P,RV10,1,1*%
%TO.N,+3.3V*%
X185000000Y-49000000D03*
D13*
%TO.P,RV10,2,2*%
%TO.N,Net-(U9-A1)*%
X185000000Y-46500000D03*
%TO.P,RV10,3,3*%
%TO.N,GND*%
X185000000Y-44000000D03*
%TD*%
D14*
%TO.P,J4,S*%
%TO.N,GND*%
X84000000Y-130400000D03*
D15*
%TO.P,J4,T*%
%TO.N,SYNC_IN_EURO*%
X84000000Y-119000000D03*
%TO.P,J4,TN*%
%TO.N,unconnected-(J4-PadTN)*%
X84000000Y-127300000D03*
%TD*%
D10*
%TO.P,SW9,1,1*%
%TO.N,+3.3V*%
X117000000Y-93000000D03*
X123500000Y-93000000D03*
%TO.P,SW9,2,2*%
%TO.N,Net-(U5-D0)*%
X117000000Y-97500000D03*
X123500000Y-97500000D03*
%TD*%
D14*
%TO.P,J14,S*%
%TO.N,GND*%
X120000000Y-146400000D03*
D15*
%TO.P,J14,T*%
%TO.N,Net-(J14-PadT)*%
X120000000Y-135000000D03*
%TO.P,J14,TN*%
%TO.N,GND*%
X120000000Y-143300000D03*
%TD*%
D14*
%TO.P,J15,S*%
%TO.N,GND*%
X132000000Y-146400000D03*
D15*
%TO.P,J15,T*%
%TO.N,Net-(J15-PadT)*%
X132000000Y-135000000D03*
%TO.P,J15,TN*%
%TO.N,GND*%
X132000000Y-143300000D03*
%TD*%
D10*
%TO.P,SW6,1,1*%
%TO.N,+3.3V*%
X87000000Y-93000000D03*
X93500000Y-93000000D03*
%TO.P,SW6,2,2*%
%TO.N,Net-(U4-D5)*%
X87000000Y-97500000D03*
X93500000Y-97500000D03*
%TD*%
D11*
%TO.P,RV7,*%
%TO.N,*%
X120500000Y-71300000D03*
X120500000Y-61700000D03*
D12*
%TO.P,RV7,1,1*%
%TO.N,+3.3V*%
X128000000Y-69000000D03*
D13*
%TO.P,RV7,2,2*%
%TO.N,Net-(U6-A6)*%
X128000000Y-66500000D03*
%TO.P,RV7,3,3*%
%TO.N,GND*%
X128000000Y-64000000D03*
%TD*%
D10*
%TO.P,SW17,1,1*%
%TO.N,+3.3V*%
X152000000Y-105000000D03*
X158500000Y-105000000D03*
%TO.P,SW17,2,2*%
%TO.N,Net-(U10-D0)*%
X152000000Y-109500000D03*
X158500000Y-109500000D03*
%TD*%
%TO.P,SW1,1,1*%
%TO.N,+3.3V*%
X87000000Y-81000000D03*
X93500000Y-81000000D03*
%TO.P,SW1,2,2*%
%TO.N,Net-(U4-D0)*%
X87000000Y-85500000D03*
X93500000Y-85500000D03*
%TD*%
D16*
%TO.P,U3,1,e*%
%TO.N,Net-(U3-e)*%
X154000000Y-93000000D03*
D17*
%TO.P,U3,2,d*%
%TO.N,Net-(U3-d)*%
X156540000Y-93000000D03*
%TO.P,U3,3,DPX*%
%TO.N,Net-(U3-DPX)*%
X159080000Y-93000000D03*
%TO.P,U3,4,c*%
%TO.N,Net-(U3-c)*%
X161620000Y-93000000D03*
%TO.P,U3,5,g*%
%TO.N,Net-(U3-g)*%
X164160000Y-93000000D03*
%TO.P,U3,6,CA4*%
%TO.N,Net-(U2-QD)*%
X166700000Y-93000000D03*
%TO.P,U3,7,b*%
%TO.N,Net-(U3-b)*%
X166700000Y-82840000D03*
%TO.P,U3,8,CA3*%
%TO.N,Net-(U2-QC)*%
X164160000Y-82840000D03*
%TO.P,U3,9,CA2*%
%TO.N,Net-(U2-QB)*%
X161620000Y-82840000D03*
%TO.P,U3,10,f*%
%TO.N,Net-(U3-f)*%
X159080000Y-82840000D03*
%TO.P,U3,11,a*%
%TO.N,Net-(U3-a)*%
X156540000Y-82840000D03*
%TO.P,U3,12,CA1*%
%TO.N,Net-(U2-QA)*%
X154000000Y-82840000D03*
%TD*%
D18*
%TO.P,J6,1,DAT2*%
%TO.N,unconnected-(J6-DAT2-Pad1)*%
X180400000Y-91700000D03*
%TO.P,J6,2,DAT3/CD*%
%TO.N,SD_CHIP_SELECT*%
X179300000Y-90600000D03*
%TO.P,J6,3,CMD*%
%TO.N,SD_SERIAL_IN*%
X180400000Y-89500000D03*
%TO.P,J6,4,VDD*%
%TO.N,+3.3V*%
X179300000Y-88400000D03*
%TO.P,J6,5,CLK*%
%TO.N,SD_CLOCK*%
X180400000Y-87300000D03*
%TO.P,J6,6,VSS*%
%TO.N,GND*%
X179300000Y-86200000D03*
%TO.P,J6,7,DAT0*%
%TO.N,SD_SERIAL_OUT*%
X180400000Y-85100000D03*
%TO.P,J6,8,DAT1*%
%TO.N,unconnected-(J6-DAT1-Pad8)*%
X179300000Y-84000000D03*
D19*
%TO.P,J6,9,SHIELD*%
%TO.N,GND*%
X183570000Y-92150000D03*
X183570000Y-83550000D03*
%TD*%
D12*
%TO.P,D3,1,K*%
%TO.N,GND*%
X157000000Y-134100000D03*
D13*
%TO.P,D3,2,A*%
%TO.N,Net-(D3-A)*%
X159540000Y-134100000D03*
%TD*%
D11*
%TO.P,RV11,*%
%TO.N,*%
X158500000Y-71300000D03*
X158500000Y-61700000D03*
D12*
%TO.P,RV11,1,1*%
%TO.N,+3.3V*%
X166000000Y-69000000D03*
D13*
%TO.P,RV11,2,2*%
%TO.N,Net-(U9-A2)*%
X166000000Y-66500000D03*
%TO.P,RV11,3,3*%
%TO.N,GND*%
X166000000Y-64000000D03*
%TD*%
D11*
%TO.P,RV9,*%
%TO.N,*%
X158500000Y-51300000D03*
X158500000Y-41700000D03*
D12*
%TO.P,RV9,1,1*%
%TO.N,+3.3V*%
X166000000Y-49000000D03*
D13*
%TO.P,RV9,2,2*%
%TO.N,Net-(U9-A0)*%
X166000000Y-46500000D03*
%TO.P,RV9,3,3*%
%TO.N,GND*%
X166000000Y-44000000D03*
%TD*%
D14*
%TO.P,J8,S*%
%TO.N,GND*%
X96000000Y-146400000D03*
D15*
%TO.P,J8,T*%
%TO.N,TRIGGER_OUT_3_EURO*%
X96000000Y-135000000D03*
%TO.P,J8,TN*%
%TO.N,unconnected-(J8-PadTN)*%
X96000000Y-143300000D03*
%TD*%
D10*
%TO.P,SW15,1,1*%
%TO.N,+3.3V*%
X127000000Y-105000000D03*
X133500000Y-105000000D03*
%TO.P,SW15,2,2*%
%TO.N,Net-(U5-D6)*%
X127000000Y-109500000D03*
X133500000Y-109500000D03*
%TD*%
%TO.P,SW13,1,1*%
%TO.N,+3.3V*%
X107000000Y-105000000D03*
X113500000Y-105000000D03*
%TO.P,SW13,2,2*%
%TO.N,Net-(U5-D4)*%
X107000000Y-109500000D03*
X113500000Y-109500000D03*
%TD*%
%TO.P,SW18,1,1*%
%TO.N,+3.3V*%
X162000000Y-105000000D03*
X168500000Y-105000000D03*
%TO.P,SW18,2,2*%
%TO.N,Net-(U10-D1)*%
X162000000Y-109500000D03*
X168500000Y-109500000D03*
%TD*%
%TO.P,SW11,1,1*%
%TO.N,+3.3V*%
X87000000Y-105000000D03*
X93500000Y-105000000D03*
%TO.P,SW11,2,2*%
%TO.N,Net-(U5-D2)*%
X87000000Y-109500000D03*
X93500000Y-109500000D03*
%TD*%
%TO.P,SW2,1,1*%
%TO.N,+3.3V*%
X97000000Y-81000000D03*
X103500000Y-81000000D03*
%TO.P,SW2,2,2*%
%TO.N,Net-(U4-D1)*%
X97000000Y-85500000D03*
X103500000Y-85500000D03*
%TD*%
%TO.P,SW7,1,1*%
%TO.N,+3.3V*%
X97000000Y-93000000D03*
X103500000Y-93000000D03*
%TO.P,SW7,2,2*%
%TO.N,Net-(U4-D6)*%
X97000000Y-97500000D03*
X103500000Y-97500000D03*
%TD*%
D12*
%TO.P,D2,1,K*%
%TO.N,GND*%
X157000000Y-128550000D03*
D13*
%TO.P,D2,2,A*%
%TO.N,Net-(D2-A)*%
X159540000Y-128550000D03*
%TD*%
D12*
%TO.P,D1,1,K*%
%TO.N,GND*%
X157000000Y-123000000D03*
D13*
%TO.P,D1,2,A*%
%TO.N,Net-(D1-A)*%
X159540000Y-123000000D03*
%TD*%
D14*
%TO.P,J5,S*%
%TO.N,GND*%
X144000000Y-130400000D03*
D15*
%TO.P,J5,T*%
%TO.N,EURO_OUT_1*%
X144000000Y-119000000D03*
%TO.P,J5,TN*%
%TO.N,unconnected-(J5-PadTN)*%
X144000000Y-127300000D03*
%TD*%
D10*
%TO.P,SW12,1,1*%
%TO.N,+3.3V*%
X97000000Y-105000000D03*
X103500000Y-105000000D03*
%TO.P,SW12,2,2*%
%TO.N,Net-(U5-D3)*%
X97000000Y-109500000D03*
X103500000Y-109500000D03*
%TD*%
D12*
%TO.P,D4,1,K*%
%TO.N,GND*%
X157000000Y-139650000D03*
D13*
%TO.P,D4,2,A*%
%TO.N,Net-(D4-A)*%
X159540000Y-139650000D03*
%TD*%
D10*
%TO.P,SW4,1,1*%
%TO.N,+3.3V*%
X117000000Y-81000000D03*
X123500000Y-81000000D03*
%TO.P,SW4,2,2*%
%TO.N,Net-(U4-D3)*%
X117000000Y-85500000D03*
X123500000Y-85500000D03*
%TD*%
D11*
%TO.P,RV12,*%
%TO.N,*%
X177500000Y-71300000D03*
X177500000Y-61700000D03*
D12*
%TO.P,RV12,1,1*%
%TO.N,+3.3V*%
X185000000Y-69000000D03*
D13*
%TO.P,RV12,2,2*%
%TO.N,Net-(U9-A3)*%
X185000000Y-66500000D03*
%TO.P,RV12,3,3*%
%TO.N,GND*%
X185000000Y-64000000D03*
%TD*%
D14*
%TO.P,J9,S*%
%TO.N,GND*%
X108000000Y-146400000D03*
D15*
%TO.P,J9,T*%
%TO.N,TRIGGER_OUT_4_EURO*%
X108000000Y-135000000D03*
%TO.P,J9,TN*%
%TO.N,unconnected-(J9-PadTN)*%
X108000000Y-143300000D03*
%TD*%
D11*
%TO.P,RV6,*%
%TO.N,*%
X101500000Y-71300000D03*
X101500000Y-61700000D03*
D12*
%TO.P,RV6,1,1*%
%TO.N,+3.3V*%
X109000000Y-69000000D03*
D13*
%TO.P,RV6,2,2*%
%TO.N,Net-(U6-A5)*%
X109000000Y-66500000D03*
%TO.P,RV6,3,3*%
%TO.N,GND*%
X109000000Y-64000000D03*
%TD*%
D14*
%TO.P,J3,S*%
%TO.N,GND*%
X108000000Y-130400000D03*
D15*
%TO.P,J3,T*%
%TO.N,TRIGGER_OUT_2_EURO*%
X108000000Y-119000000D03*
%TO.P,J3,TN*%
%TO.N,unconnected-(J3-PadTN)*%
X108000000Y-127300000D03*
%TD*%
D11*
%TO.P,RV5,*%
%TO.N,*%
X82500000Y-71300000D03*
X82500000Y-61700000D03*
D12*
%TO.P,RV5,1,1*%
%TO.N,+3.3V*%
X90000000Y-69000000D03*
D13*
%TO.P,RV5,2,2*%
%TO.N,Net-(U6-A4)*%
X90000000Y-66500000D03*
%TO.P,RV5,3,3*%
%TO.N,GND*%
X90000000Y-64000000D03*
%TD*%
D10*
%TO.P,SW5,1,1*%
%TO.N,+3.3V*%
X127000000Y-81000000D03*
X133500000Y-81000000D03*
%TO.P,SW5,2,2*%
%TO.N,Net-(U4-D4)*%
X127000000Y-85500000D03*
X133500000Y-85500000D03*
%TD*%
D11*
%TO.P,RV2,*%
%TO.N,*%
X101500000Y-51300000D03*
X101500000Y-41700000D03*
D12*
%TO.P,RV2,1,1*%
%TO.N,+3.3V*%
X109000000Y-49000000D03*
D13*
%TO.P,RV2,2,2*%
%TO.N,Net-(U6-A1)*%
X109000000Y-46500000D03*
%TO.P,RV2,3,3*%
%TO.N,GND*%
X109000000Y-44000000D03*
%TD*%
D10*
%TO.P,SW16,1,1*%
%TO.N,+3.3V*%
X142000000Y-105000000D03*
X148500000Y-105000000D03*
%TO.P,SW16,2,2*%
%TO.N,Net-(U5-D7)*%
X142000000Y-109500000D03*
X148500000Y-109500000D03*
%TD*%
D14*
%TO.P,J10,S*%
%TO.N,GND*%
X84000000Y-146400000D03*
D15*
%TO.P,J10,T*%
%TO.N,SYNC_OUT_EURO*%
X84000000Y-135000000D03*
%TO.P,J10,TN*%
%TO.N,unconnected-(J10-PadTN)*%
X84000000Y-143300000D03*
%TD*%
D10*
%TO.P,SW14,1,1*%
%TO.N,+3.3V*%
X117000000Y-105000000D03*
X123500000Y-105000000D03*
%TO.P,SW14,2,2*%
%TO.N,Net-(U5-D5)*%
X117000000Y-109500000D03*
X123500000Y-109500000D03*
%TD*%
D20*
%TO.P,R23,1*%
%TO.N,Net-(U5-D2)*%
X91000000Y-109000000D03*
%TO.P,R23,2*%
%TO.N,GND*%
X89350000Y-109000000D03*
%TD*%
%TO.P,R27,1*%
%TO.N,Net-(U5-D6)*%
X131000000Y-109000000D03*
%TO.P,R27,2*%
%TO.N,GND*%
X129350000Y-109000000D03*
%TD*%
%TO.P,R29,1*%
%TO.N,-12V*%
X177100000Y-138400000D03*
%TO.P,R29,2*%
%TO.N,Net-(U7A--)*%
X175450000Y-138400000D03*
%TD*%
D21*
%TO.P,R1,1*%
%TO.N,Net-(D1-A)*%
X162000000Y-122175000D03*
%TO.P,R1,2*%
%TO.N,Net-(U2-QE)*%
X162000000Y-123825000D03*
%TD*%
D20*
%TO.P,R22,1*%
%TO.N,Net-(U5-D1)*%
X131000000Y-97000000D03*
%TO.P,R22,2*%
%TO.N,GND*%
X129350000Y-97000000D03*
%TD*%
%TO.P,R17,1*%
%TO.N,Net-(U4-D4)*%
X131000000Y-85000000D03*
%TO.P,R17,2*%
%TO.N,GND*%
X129350000Y-85000000D03*
%TD*%
%TO.P,R18,1*%
%TO.N,Net-(U4-D5)*%
X91000000Y-97000000D03*
%TO.P,R18,2*%
%TO.N,GND*%
X89350000Y-97000000D03*
%TD*%
%TO.P,R41,1*%
%TO.N,Net-(U10-D0)*%
X156000000Y-109000000D03*
%TO.P,R41,2*%
%TO.N,GND*%
X154350000Y-109000000D03*
%TD*%
D21*
%TO.P,R11,1*%
%TO.N,Net-(U3-d)*%
X156210000Y-95250000D03*
%TO.P,R11,2*%
%TO.N,Net-(U1-QD)*%
X156210000Y-96900000D03*
%TD*%
D20*
%TO.P,R35,1*%
%TO.N,-12V*%
X177200000Y-122200000D03*
%TO.P,R35,2*%
%TO.N,Net-(U8A--)*%
X175550000Y-122200000D03*
%TD*%
D22*
%TO.P,R9,1*%
%TO.N,Net-(U3-b)*%
X166370000Y-80010000D03*
%TO.P,R9,2*%
%TO.N,Net-(U1-QB)*%
X166370000Y-78360000D03*
%TD*%
D21*
%TO.P,R5,1*%
%TO.N,Net-(U3-e)*%
X153670000Y-95250000D03*
%TO.P,R5,2*%
%TO.N,Net-(U1-QE)*%
X153670000Y-96900000D03*
%TD*%
D20*
%TO.P,R26,1*%
%TO.N,Net-(U5-D5)*%
X121000000Y-109000000D03*
%TO.P,R26,2*%
%TO.N,GND*%
X119350000Y-109000000D03*
%TD*%
%TO.P,R42,1*%
%TO.N,Net-(U10-D1)*%
X166000000Y-109000000D03*
%TO.P,R42,2*%
%TO.N,GND*%
X164350000Y-109000000D03*
%TD*%
D23*
%TO.P,J7,1,Pin_1*%
%TO.N,unconnected-(J7-Pin_1-Pad1)*%
X186000000Y-73000000D03*
D24*
%TO.P,J7,2,Pin_2*%
%TO.N,unconnected-(J7-Pin_2-Pad2)*%
X186000000Y-75540000D03*
%TO.P,J7,3,Pin_3*%
%TO.N,SD_CLOCK*%
X186000000Y-78080000D03*
%TO.P,J7,4,Pin_4*%
%TO.N,SD_SERIAL_IN*%
X186000000Y-80620000D03*
%TO.P,J7,5,Pin_5*%
%TO.N,SD_SERIAL_OUT*%
X186000000Y-83160000D03*
%TO.P,J7,6,Pin_6*%
%TO.N,SD_CHIP_SELECT*%
X186000000Y-85700000D03*
%TO.P,J7,7,Pin_7*%
%TO.N,595_DATA*%
X186000000Y-88240000D03*
%TO.P,J7,8,Pin_8*%
%TO.N,595_CLOCK*%
X186000000Y-90780000D03*
%TO.P,J7,9,Pin_9*%
%TO.N,595_LATCH*%
X186000000Y-93320000D03*
%TO.P,J7,10,Pin_10*%
%TO.N,EURO_OUT_1*%
X186000000Y-95860000D03*
%TO.P,J7,11,Pin_11*%
%TO.N,EURO_OUT_2*%
X186000000Y-98400000D03*
%TO.P,J7,12,Pin_12*%
%TO.N,+12V*%
X186000000Y-100940000D03*
%TO.P,J7,13,Pin_13*%
%TO.N,unconnected-(J7-Pin_13-Pad13)*%
X186000000Y-103480000D03*
%TO.P,J7,14,Pin_14*%
%TO.N,+3.3V*%
X186000000Y-106020000D03*
%TO.P,J7,15,Pin_15*%
%TO.N,GND*%
X186000000Y-108560000D03*
%TO.P,J7,16,Pin_16*%
%TO.N,-12V*%
X186000000Y-111100000D03*
%TD*%
D25*
%TO.P,U6,1,A4*%
%TO.N,Net-(U6-A4)*%
X153700000Y-52210000D03*
%TO.P,U6,2,A6*%
%TO.N,Net-(U6-A6)*%
X153700000Y-53480000D03*
%TO.P,U6,3,A*%
%TO.N,4051_READING_0*%
X153700000Y-54750000D03*
%TO.P,U6,4,A7*%
%TO.N,Net-(U6-A7)*%
X153700000Y-56020000D03*
%TO.P,U6,5,A5*%
%TO.N,Net-(U6-A5)*%
X153700000Y-57290000D03*
%TO.P,U6,6,~{E}*%
%TO.N,GND*%
X153700000Y-58560000D03*
%TO.P,U6,7,VEE*%
X153700000Y-59830000D03*
%TO.P,U6,8,GND*%
X153700000Y-61100000D03*
%TO.P,U6,9,S2*%
%TO.N,4051_ADDRESS_C*%
X148750000Y-61100000D03*
%TO.P,U6,10,S1*%
%TO.N,4051_ADDRESS_B*%
X148750000Y-59830000D03*
%TO.P,U6,11,S0*%
%TO.N,4051_ADDRESS_A*%
X148750000Y-58560000D03*
%TO.P,U6,12,A3*%
%TO.N,Net-(U6-A3)*%
X148750000Y-57290000D03*
%TO.P,U6,13,A0*%
%TO.N,Net-(U6-A0)*%
X148750000Y-56020000D03*
%TO.P,U6,14,A1*%
%TO.N,Net-(U6-A1)*%
X148750000Y-54750000D03*
%TO.P,U6,15,A2*%
%TO.N,Net-(U6-A2)*%
X148750000Y-53480000D03*
%TO.P,U6,16,VCC*%
%TO.N,+3.3V*%
X148750000Y-52210000D03*
%TD*%
D20*
%TO.P,R14,1*%
%TO.N,Net-(U4-D1)*%
X101000000Y-85000000D03*
%TO.P,R14,2*%
%TO.N,GND*%
X99350000Y-85000000D03*
%TD*%
D22*
%TO.P,R8,1*%
%TO.N,Net-(U3-a)*%
X156210000Y-80010000D03*
%TO.P,R8,2*%
%TO.N,Net-(U1-QA)*%
X156210000Y-78360000D03*
%TD*%
D25*
%TO.P,U1,1,QB*%
%TO.N,Net-(U1-QB)*%
X147950000Y-76650000D03*
%TO.P,U1,2,QC*%
%TO.N,Net-(U1-QC)*%
X147950000Y-77920000D03*
%TO.P,U1,3,QD*%
%TO.N,Net-(U1-QD)*%
X147950000Y-79190000D03*
%TO.P,U1,4,QE*%
%TO.N,Net-(U1-QE)*%
X147950000Y-80460000D03*
%TO.P,U1,5,QF*%
%TO.N,Net-(U1-QF)*%
X147950000Y-81730000D03*
%TO.P,U1,6,QG*%
%TO.N,Net-(U1-QG)*%
X147950000Y-83000000D03*
%TO.P,U1,7,QH*%
%TO.N,Net-(U1-QH)*%
X147950000Y-84270000D03*
%TO.P,U1,8,GND*%
%TO.N,GND*%
X147950000Y-85540000D03*
%TO.P,U1,9,QH'*%
%TO.N,Net-(U1-QH')*%
X143000000Y-85540000D03*
%TO.P,U1,10,~{SRCLR}*%
%TO.N,+3.3V*%
X143000000Y-84270000D03*
%TO.P,U1,11,SRCLK*%
%TO.N,595_CLOCK*%
X143000000Y-83000000D03*
%TO.P,U1,12,RCLK*%
%TO.N,595_LATCH*%
X143000000Y-81730000D03*
%TO.P,U1,13,~{OE}*%
%TO.N,GND*%
X143000000Y-80460000D03*
%TO.P,U1,14,SER*%
%TO.N,595_DATA*%
X143000000Y-79190000D03*
%TO.P,U1,15,QA*%
%TO.N,Net-(U1-QA)*%
X143000000Y-77920000D03*
%TO.P,U1,16,VCC*%
%TO.N,+3.3V*%
X143000000Y-76650000D03*
%TD*%
D26*
%TO.P,R30,1*%
%TO.N,Net-(J12-PadT)*%
X122350000Y-119000000D03*
%TO.P,R30,2*%
%TO.N,Net-(U7A--)*%
X124000000Y-119000000D03*
%TD*%
D20*
%TO.P,R15,1*%
%TO.N,Net-(U4-D2)*%
X111000000Y-85000000D03*
%TO.P,R15,2*%
%TO.N,GND*%
X109350000Y-85000000D03*
%TD*%
D26*
%TO.P,R36,1*%
%TO.N,Net-(J14-PadT)*%
X122350000Y-135000000D03*
%TO.P,R36,2*%
%TO.N,Net-(U8A--)*%
X124000000Y-135000000D03*
%TD*%
D20*
%TO.P,R21,1*%
%TO.N,Net-(U5-D0)*%
X121000000Y-97000000D03*
%TO.P,R21,2*%
%TO.N,GND*%
X119350000Y-97000000D03*
%TD*%
%TO.P,R20,1*%
%TO.N,Net-(U4-D7)*%
X111000000Y-97000000D03*
%TO.P,R20,2*%
%TO.N,GND*%
X109350000Y-97000000D03*
%TD*%
D21*
%TO.P,R10,1*%
%TO.N,Net-(U3-c)*%
X161290000Y-95250000D03*
%TO.P,R10,2*%
%TO.N,Net-(U1-QC)*%
X161290000Y-96900000D03*
%TD*%
D20*
%TO.P,R13,1*%
%TO.N,Net-(U4-D0)*%
X91000000Y-85000000D03*
%TO.P,R13,2*%
%TO.N,GND*%
X89350000Y-85000000D03*
%TD*%
D21*
%TO.P,R4,1*%
%TO.N,Net-(D4-A)*%
X162000000Y-139000000D03*
%TO.P,R4,2*%
%TO.N,Net-(U2-QH)*%
X162000000Y-140650000D03*
%TD*%
D23*
%TO.P,J16,1,Pin_1*%
%TO.N,Net-(J16-Pin_1)*%
X74000000Y-134920000D03*
D24*
%TO.P,J16,2,Pin_2*%
%TO.N,Net-(J16-Pin_2)*%
X74000000Y-137460000D03*
%TO.P,J16,3,Pin_3*%
%TO.N,Net-(J16-Pin_3)*%
X74000000Y-140000000D03*
%TO.P,J16,4,Pin_4*%
%TO.N,Net-(J16-Pin_4)*%
X74000000Y-142540000D03*
%TO.P,J16,5,Pin_5*%
%TO.N,Net-(J16-Pin_5)*%
X74000000Y-145080000D03*
%TD*%
D21*
%TO.P,R7,1*%
%TO.N,Net-(U3-DPX)*%
X158750000Y-95250000D03*
%TO.P,R7,2*%
%TO.N,Net-(U1-QH)*%
X158750000Y-96900000D03*
%TD*%
D27*
%TO.P,C4,1*%
%TO.N,Net-(U8B--)*%
X172700000Y-127800000D03*
%TO.P,C4,2*%
%TO.N,CV_IN_4*%
X171150000Y-127800000D03*
%TD*%
D20*
%TO.P,R16,1*%
%TO.N,Net-(U4-D3)*%
X121000000Y-85000000D03*
%TO.P,R16,2*%
%TO.N,GND*%
X119350000Y-85000000D03*
%TD*%
D21*
%TO.P,R6,1*%
%TO.N,Net-(U3-g)*%
X163830000Y-95250000D03*
%TO.P,R6,2*%
%TO.N,Net-(U1-QG)*%
X163830000Y-96900000D03*
%TD*%
D25*
%TO.P,U2,1,QB*%
%TO.N,Net-(U2-QB)*%
X148000000Y-88460000D03*
%TO.P,U2,2,QC*%
%TO.N,Net-(U2-QC)*%
X148000000Y-89730000D03*
%TO.P,U2,3,QD*%
%TO.N,Net-(U2-QD)*%
X148000000Y-91000000D03*
%TO.P,U2,4,QE*%
%TO.N,Net-(U2-QE)*%
X148000000Y-92270000D03*
%TO.P,U2,5,QF*%
%TO.N,Net-(U2-QF)*%
X148000000Y-93540000D03*
%TO.P,U2,6,QG*%
%TO.N,Net-(U2-QG)*%
X148000000Y-94810000D03*
%TO.P,U2,7,QH*%
%TO.N,Net-(U2-QH)*%
X148000000Y-96080000D03*
%TO.P,U2,8,GND*%
%TO.N,GND*%
X148000000Y-97350000D03*
%TO.P,U2,9,QH'*%
%TO.N,unconnected-(U2-QH'-Pad9)*%
X143050000Y-97350000D03*
%TO.P,U2,10,~{SRCLR}*%
%TO.N,+3.3V*%
X143050000Y-96080000D03*
%TO.P,U2,11,SRCLK*%
%TO.N,595_CLOCK*%
X143050000Y-94810000D03*
%TO.P,U2,12,RCLK*%
%TO.N,595_LATCH*%
X143050000Y-93540000D03*
%TO.P,U2,13,~{OE}*%
%TO.N,GND*%
X143050000Y-92270000D03*
%TO.P,U2,14,SER*%
%TO.N,Net-(U1-QH')*%
X143050000Y-91000000D03*
%TO.P,U2,15,QA*%
%TO.N,Net-(U2-QA)*%
X143050000Y-89730000D03*
%TO.P,U2,16,VCC*%
%TO.N,+3.3V*%
X143050000Y-88460000D03*
%TD*%
%TO.P,U9,1,A4*%
%TO.N,CV_IN_1*%
X172750000Y-52230000D03*
%TO.P,U9,2,A6*%
%TO.N,CV_IN_3*%
X172750000Y-53500000D03*
%TO.P,U9,3,A*%
%TO.N,4051_READING_1*%
X172750000Y-54770000D03*
%TO.P,U9,4,A7*%
%TO.N,CV_IN_4*%
X172750000Y-56040000D03*
%TO.P,U9,5,A5*%
%TO.N,CV_IN_2*%
X172750000Y-57310000D03*
%TO.P,U9,6,~{E}*%
%TO.N,GND*%
X172750000Y-58580000D03*
%TO.P,U9,7,VEE*%
X172750000Y-59850000D03*
%TO.P,U9,8,GND*%
X172750000Y-61120000D03*
%TO.P,U9,9,S2*%
%TO.N,4051_ADDRESS_C*%
X167800000Y-61120000D03*
%TO.P,U9,10,S1*%
%TO.N,4051_ADDRESS_B*%
X167800000Y-59850000D03*
%TO.P,U9,11,S0*%
%TO.N,4051_ADDRESS_A*%
X167800000Y-58580000D03*
%TO.P,U9,12,A3*%
%TO.N,Net-(U9-A3)*%
X167800000Y-57310000D03*
%TO.P,U9,13,A0*%
%TO.N,Net-(U9-A0)*%
X167800000Y-56040000D03*
%TO.P,U9,14,A1*%
%TO.N,Net-(U9-A1)*%
X167800000Y-54770000D03*
%TO.P,U9,15,A2*%
%TO.N,Net-(U9-A2)*%
X167800000Y-53500000D03*
%TO.P,U9,16,VCC*%
%TO.N,+3.3V*%
X167800000Y-52230000D03*
%TD*%
D27*
%TO.P,C2,1*%
%TO.N,Net-(U7B--)*%
X172800000Y-143800000D03*
%TO.P,C2,2*%
%TO.N,CV_IN_2*%
X171250000Y-143800000D03*
%TD*%
D21*
%TO.P,R2,1*%
%TO.N,Net-(D2-A)*%
X162000000Y-128000000D03*
%TO.P,R2,2*%
%TO.N,Net-(U2-QF)*%
X162000000Y-129650000D03*
%TD*%
D22*
%TO.P,R12,1*%
%TO.N,Net-(U3-f)*%
X158750000Y-80010000D03*
%TO.P,R12,2*%
%TO.N,Net-(U1-QF)*%
X158750000Y-78360000D03*
%TD*%
D25*
%TO.P,U5,1,~{PL}*%
%TO.N,165_LOAD*%
X83475000Y-89555000D03*
%TO.P,U5,2,CP*%
%TO.N,165_CLOCK*%
X83475000Y-90825000D03*
%TO.P,U5,3,D4*%
%TO.N,Net-(U5-D4)*%
X83475000Y-92095000D03*
%TO.P,U5,4,D5*%
%TO.N,Net-(U5-D5)*%
X83475000Y-93365000D03*
%TO.P,U5,5,D6*%
%TO.N,Net-(U5-D6)*%
X83475000Y-94635000D03*
%TO.P,U5,6,D7*%
%TO.N,Net-(U5-D7)*%
X83475000Y-95905000D03*
%TO.P,U5,7,~{Q7}*%
%TO.N,unconnected-(U5-~{Q7}-Pad7)*%
X83475000Y-97175000D03*
%TO.P,U5,8,GND*%
%TO.N,GND*%
X83475000Y-98445000D03*
%TO.P,U5,9,Q7*%
%TO.N,/Shift register in 2/DATA_OUT*%
X78525000Y-98445000D03*
%TO.P,U5,10,DS*%
%TO.N,/Shift register in 1/DATA_OUT*%
X78525000Y-97175000D03*
%TO.P,U5,11,D0*%
%TO.N,Net-(U5-D0)*%
X78525000Y-95905000D03*
%TO.P,U5,12,D1*%
%TO.N,Net-(U5-D1)*%
X78525000Y-94635000D03*
%TO.P,U5,13,D2*%
%TO.N,Net-(U5-D2)*%
X78525000Y-93365000D03*
%TO.P,U5,14,D3*%
%TO.N,Net-(U5-D3)*%
X78525000Y-92095000D03*
%TO.P,U5,15,~{CE}*%
%TO.N,GND*%
X78525000Y-90825000D03*
%TO.P,U5,16,VCC*%
%TO.N,+3.3V*%
X78525000Y-89555000D03*
%TD*%
D23*
%TO.P,J1,1,Pin_1*%
%TO.N,unconnected-(J1-Pin_1-Pad1)*%
X74000000Y-67920000D03*
D24*
%TO.P,J1,2,Pin_2*%
%TO.N,4051_ADDRESS_A*%
X74000000Y-70460000D03*
%TO.P,J1,3,Pin_3*%
%TO.N,4051_ADDRESS_B*%
X74000000Y-73000000D03*
%TO.P,J1,4,Pin_4*%
%TO.N,4051_ADDRESS_C*%
X74000000Y-75540000D03*
%TO.P,J1,5,Pin_5*%
%TO.N,4051_READING_1*%
X74000000Y-78080000D03*
%TO.P,J1,6,Pin_6*%
%TO.N,4051_READING_0*%
X74000000Y-80620000D03*
%TO.P,J1,7,Pin_7*%
%TO.N,165_LOAD*%
X74000000Y-83160000D03*
%TO.P,J1,8,Pin_8*%
%TO.N,165_CLOCK*%
X74000000Y-85700000D03*
%TO.P,J1,9,Pin_9*%
%TO.N,165_DATA*%
X74000000Y-88240000D03*
%TO.P,J1,10,Pin_10*%
%TO.N,TRIGGER_OUT_1_EURO*%
X74000000Y-90780000D03*
%TO.P,J1,11,Pin_11*%
%TO.N,TRIGGER_OUT_2_EURO*%
X74000000Y-93320000D03*
%TO.P,J1,12,Pin_12*%
%TO.N,TRIGGER_OUT_3_EURO*%
X74000000Y-95860000D03*
%TO.P,J1,13,Pin_13*%
%TO.N,TRIGGER_OUT_4_EURO*%
X74000000Y-98400000D03*
%TO.P,J1,14,Pin_14*%
%TO.N,SYNC_IN_EURO*%
X74000000Y-100940000D03*
%TO.P,J1,15,Pin_15*%
%TO.N,SYNC_OUT_EURO*%
X74000000Y-103480000D03*
%TO.P,J1,16,Pin_16*%
%TO.N,unconnected-(J1-Pin_16-Pad16)*%
X74000000Y-106020000D03*
%TO.P,J1,17,Pin_17*%
%TO.N,unconnected-(J1-Pin_17-Pad17)*%
X74000000Y-108560000D03*
%TO.P,J1,18,Pin_18*%
%TO.N,+3.3V*%
X74000000Y-111100000D03*
%TO.P,J1,19,Pin_19*%
%TO.N,GND*%
X74000000Y-113640000D03*
%TO.P,J1,20,Pin_20*%
%TO.N,unconnected-(J1-Pin_20-Pad20)*%
X74000000Y-116180000D03*
%TD*%
D27*
%TO.P,C1,1*%
%TO.N,Net-(U7A--)*%
X171500000Y-134500000D03*
%TO.P,C1,2*%
%TO.N,CV_IN_1*%
X169950000Y-134500000D03*
%TD*%
D20*
%TO.P,R28,1*%
%TO.N,Net-(U5-D7)*%
X146000000Y-109000000D03*
%TO.P,R28,2*%
%TO.N,GND*%
X144350000Y-109000000D03*
%TD*%
%TO.P,R34,1*%
%TO.N,Net-(U7B--)*%
X172850000Y-145400000D03*
%TO.P,R34,2*%
%TO.N,CV_IN_2*%
X171200000Y-145400000D03*
%TD*%
%TO.P,R33,1*%
%TO.N,Net-(U7A--)*%
X171550000Y-132900000D03*
%TO.P,R33,2*%
%TO.N,CV_IN_1*%
X169900000Y-132900000D03*
%TD*%
D25*
%TO.P,U10,1,~{PL}*%
%TO.N,165_LOAD*%
X83475000Y-102555000D03*
%TO.P,U10,2,CP*%
%TO.N,165_CLOCK*%
X83475000Y-103825000D03*
%TO.P,U10,3,D4*%
%TO.N,Net-(J16-Pin_2)*%
X83475000Y-105095000D03*
%TO.P,U10,4,D5*%
%TO.N,Net-(J16-Pin_3)*%
X83475000Y-106365000D03*
%TO.P,U10,5,D6*%
%TO.N,Net-(J16-Pin_4)*%
X83475000Y-107635000D03*
%TO.P,U10,6,D7*%
%TO.N,Net-(J16-Pin_5)*%
X83475000Y-108905000D03*
%TO.P,U10,7,~{Q7}*%
%TO.N,unconnected-(U10-~{Q7}-Pad7)*%
X83475000Y-110175000D03*
%TO.P,U10,8,GND*%
%TO.N,GND*%
X83475000Y-111445000D03*
%TO.P,U10,9,Q7*%
%TO.N,165_DATA*%
X78525000Y-111445000D03*
%TO.P,U10,10,DS*%
%TO.N,/Shift register in 2/DATA_OUT*%
X78525000Y-110175000D03*
%TO.P,U10,11,D0*%
%TO.N,Net-(U10-D0)*%
X78525000Y-108905000D03*
%TO.P,U10,12,D1*%
%TO.N,Net-(U10-D1)*%
X78525000Y-107635000D03*
%TO.P,U10,13,D2*%
%TO.N,Net-(U10-D2)*%
X78525000Y-106365000D03*
%TO.P,U10,14,D3*%
%TO.N,Net-(J16-Pin_1)*%
X78525000Y-105095000D03*
%TO.P,U10,15,~{CE}*%
%TO.N,GND*%
X78525000Y-103825000D03*
%TO.P,U10,16,VCC*%
%TO.N,+3.3V*%
X78525000Y-102555000D03*
%TD*%
D28*
%TO.P,U7,1*%
%TO.N,CV_IN_1*%
X170045000Y-136725000D03*
%TO.P,U7,2,-*%
%TO.N,Net-(U7A--)*%
X171315000Y-136725000D03*
%TO.P,U7,3,+*%
%TO.N,GND*%
X172585000Y-136725000D03*
%TO.P,U7,4,V-*%
X173855000Y-136725000D03*
%TO.P,U7,5,+*%
X173855000Y-141675000D03*
%TO.P,U7,6,-*%
%TO.N,Net-(U7B--)*%
X172585000Y-141675000D03*
%TO.P,U7,7*%
%TO.N,CV_IN_2*%
X171315000Y-141675000D03*
%TO.P,U7,8,V+*%
%TO.N,+3.3V*%
X170045000Y-141675000D03*
%TD*%
D27*
%TO.P,C3,1*%
%TO.N,Net-(U8A--)*%
X171600000Y-118600000D03*
%TO.P,C3,2*%
%TO.N,CV_IN_3*%
X170050000Y-118600000D03*
%TD*%
D20*
%TO.P,R25,1*%
%TO.N,Net-(U5-D4)*%
X111000000Y-109000000D03*
%TO.P,R25,2*%
%TO.N,GND*%
X109350000Y-109000000D03*
%TD*%
D28*
%TO.P,U8,1*%
%TO.N,CV_IN_3*%
X170080000Y-120725000D03*
%TO.P,U8,2,-*%
%TO.N,Net-(U8A--)*%
X171350000Y-120725000D03*
%TO.P,U8,3,+*%
%TO.N,GND*%
X172620000Y-120725000D03*
%TO.P,U8,4,V-*%
X173890000Y-120725000D03*
%TO.P,U8,5,+*%
X173890000Y-125675000D03*
%TO.P,U8,6,-*%
%TO.N,Net-(U8B--)*%
X172620000Y-125675000D03*
%TO.P,U8,7*%
%TO.N,CV_IN_4*%
X171350000Y-125675000D03*
%TO.P,U8,8,V+*%
%TO.N,+3.3V*%
X170080000Y-125675000D03*
%TD*%
D20*
%TO.P,R31,1*%
%TO.N,-12V*%
X177100000Y-140000000D03*
%TO.P,R31,2*%
%TO.N,Net-(U7B--)*%
X175450000Y-140000000D03*
%TD*%
%TO.P,R39,1*%
%TO.N,Net-(U8A--)*%
X171650000Y-117000000D03*
%TO.P,R39,2*%
%TO.N,CV_IN_3*%
X170000000Y-117000000D03*
%TD*%
D26*
%TO.P,R32,1*%
%TO.N,Net-(J13-PadT)*%
X134350000Y-119000000D03*
%TO.P,R32,2*%
%TO.N,Net-(U7B--)*%
X136000000Y-119000000D03*
%TD*%
D20*
%TO.P,R43,1*%
%TO.N,Net-(U10-D2)*%
X175825000Y-109000000D03*
%TO.P,R43,2*%
%TO.N,GND*%
X174175000Y-109000000D03*
%TD*%
D21*
%TO.P,R3,1*%
%TO.N,Net-(D3-A)*%
X162000000Y-133000000D03*
%TO.P,R3,2*%
%TO.N,Net-(U2-QG)*%
X162000000Y-134650000D03*
%TD*%
D20*
%TO.P,R37,1*%
%TO.N,-12V*%
X177200000Y-123800000D03*
%TO.P,R37,2*%
%TO.N,Net-(U8B--)*%
X175550000Y-123800000D03*
%TD*%
D26*
%TO.P,R38,1*%
%TO.N,Net-(J15-PadT)*%
X134350000Y-135000000D03*
%TO.P,R38,2*%
%TO.N,Net-(U8B--)*%
X136000000Y-135000000D03*
%TD*%
D20*
%TO.P,R40,1*%
%TO.N,Net-(U8B--)*%
X172750000Y-129400000D03*
%TO.P,R40,2*%
%TO.N,CV_IN_4*%
X171100000Y-129400000D03*
%TD*%
%TO.P,R19,1*%
%TO.N,Net-(U4-D6)*%
X101000000Y-97000000D03*
%TO.P,R19,2*%
%TO.N,GND*%
X99350000Y-97000000D03*
%TD*%
%TO.P,R24,1*%
%TO.N,Net-(U5-D3)*%
X101000000Y-109000000D03*
%TO.P,R24,2*%
%TO.N,GND*%
X99350000Y-109000000D03*
%TD*%
D25*
%TO.P,U4,1,~{PL}*%
%TO.N,165_LOAD*%
X83475000Y-76555000D03*
%TO.P,U4,2,CP*%
%TO.N,165_CLOCK*%
X83475000Y-77825000D03*
%TO.P,U4,3,D4*%
%TO.N,Net-(U4-D4)*%
X83475000Y-79095000D03*
%TO.P,U4,4,D5*%
%TO.N,Net-(U4-D5)*%
X83475000Y-80365000D03*
%TO.P,U4,5,D6*%
%TO.N,Net-(U4-D6)*%
X83475000Y-81635000D03*
%TO.P,U4,6,D7*%
%TO.N,Net-(U4-D7)*%
X83475000Y-82905000D03*
%TO.P,U4,7,~{Q7}*%
%TO.N,unconnected-(U4-~{Q7}-Pad7)*%
X83475000Y-84175000D03*
%TO.P,U4,8,GND*%
%TO.N,GND*%
X83475000Y-85445000D03*
%TO.P,U4,9,Q7*%
%TO.N,/Shift register in 1/DATA_OUT*%
X78525000Y-85445000D03*
%TO.P,U4,10,DS*%
%TO.N,GND*%
X78525000Y-84175000D03*
%TO.P,U4,11,D0*%
%TO.N,Net-(U4-D0)*%
X78525000Y-82905000D03*
%TO.P,U4,12,D1*%
%TO.N,Net-(U4-D1)*%
X78525000Y-81635000D03*
%TO.P,U4,13,D2*%
%TO.N,Net-(U4-D2)*%
X78525000Y-80365000D03*
%TO.P,U4,14,D3*%
%TO.N,Net-(U4-D3)*%
X78525000Y-79095000D03*
%TO.P,U4,15,~{CE}*%
%TO.N,GND*%
X78525000Y-77825000D03*
%TO.P,U4,16,VCC*%
%TO.N,+3.3V*%
X78525000Y-76555000D03*
%TD*%
D29*
%TO.N,GND*%
X125250000Y-87500000D03*
X130500000Y-106500000D03*
X175300000Y-141500000D03*
X140900000Y-81000000D03*
X172000000Y-124000000D03*
X175500000Y-135900000D03*
X175500000Y-107750000D03*
X83500000Y-88500000D03*
X76724325Y-78224325D03*
X118575596Y-97775500D03*
X151300000Y-100600000D03*
X144800000Y-91000000D03*
X76500000Y-82000000D03*
%TO.N,CV_IN_4*%
X172200000Y-130800000D03*
X180100000Y-133600000D03*
%TO.N,SYNC_IN_EURO*%
X86250000Y-123250000D03*
X75000000Y-121250000D03*
%TO.N,595_CLOCK*%
X144700000Y-94800000D03*
X153500000Y-98799500D03*
%TO.N,595_LATCH*%
X154500000Y-99524000D03*
X144700000Y-93600000D03*
%TO.N,165_LOAD*%
X80697020Y-79205153D03*
X82000000Y-81000000D03*
%TO.N,165_DATA*%
X79725500Y-111000000D03*
%TO.N,4051_ADDRESS_A*%
X165750000Y-59000000D03*
X144000000Y-58250000D03*
X89000000Y-58000000D03*
%TO.N,4051_ADDRESS_B*%
X145500000Y-60000000D03*
X165750000Y-60000000D03*
X88987701Y-59012299D03*
%TO.N,4051_ADDRESS_C*%
X88250000Y-59750000D03*
X146750000Y-61000000D03*
X165750000Y-61000000D03*
%TO.N,4051_READING_0*%
X155725500Y-56250000D03*
X88000000Y-61250000D03*
%TO.N,4051_READING_1*%
X174500000Y-54750000D03*
X89750000Y-60624500D03*
%TO.N,Net-(U2-QB)*%
X149700000Y-88500000D03*
%TO.N,Net-(U2-QC)*%
X149725500Y-89700000D03*
%TO.N,Net-(U2-QA)*%
X145700000Y-89800000D03*
%TO.N,-12V*%
X185750000Y-122000000D03*
%TO.N,Net-(U8A--)*%
X178900000Y-129500000D03*
X176300000Y-119900000D03*
%TO.N,CV_IN_1*%
X169900000Y-131600000D03*
X188000000Y-60750000D03*
%TO.N,Net-(U8B--)*%
X178300000Y-130600000D03*
X174100000Y-129400000D03*
%TO.N,CV_IN_2*%
X170200000Y-143300000D03*
X179800000Y-139800000D03*
%TO.N,Net-(U1-QH)*%
X149600000Y-87200000D03*
X155600000Y-91100000D03*
%TO.N,Net-(U4-D0)*%
X80000000Y-83000000D03*
%TO.N,Net-(U4-D1)*%
X80000000Y-82000000D03*
%TO.N,Net-(U4-D2)*%
X80000000Y-81000000D03*
%TO.N,Net-(U4-D3)*%
X80061584Y-79979630D03*
%TO.N,Net-(U4-D5)*%
X95000000Y-88750000D03*
X88750000Y-84000000D03*
X95250000Y-85000000D03*
%TO.N,Net-(U4-D6)*%
X85862868Y-98675500D03*
X85638031Y-91250000D03*
%TO.N,Net-(U4-D7)*%
X84750000Y-88500000D03*
X84913531Y-99025500D03*
%TO.N,+3.3V*%
X80250000Y-103250000D03*
X166700000Y-116500000D03*
X140100000Y-86300000D03*
X142600000Y-87000000D03*
X174250000Y-100750000D03*
X76750000Y-75750000D03*
X78500000Y-88500000D03*
%TO.N,Net-(U5-D0)*%
X110000000Y-99750000D03*
X78500000Y-99750000D03*
%TO.N,Net-(U5-D1)*%
X79000000Y-100750000D03*
X110250000Y-100750000D03*
%TO.N,Net-(U5-D2)*%
X77750000Y-101500000D03*
%TO.N,Net-(U5-D3)*%
X81750000Y-104250000D03*
%TO.N,Net-(U5-D4)*%
X111250000Y-91750000D03*
%TO.N,Net-(U5-D5)*%
X115250000Y-94500000D03*
%TO.N,Net-(U5-D6)*%
X132000000Y-95250000D03*
%TO.N,Net-(U5-D7)*%
X135500000Y-98000000D03*
%TO.N,Net-(U10-D0)*%
X79500000Y-113250000D03*
%TO.N,/Shift register in 1/DATA_OUT*%
X80250000Y-96750000D03*
X80500000Y-92000000D03*
%TO.N,Net-(U10-D1)*%
X79500000Y-114250000D03*
%TO.N,Net-(U10-D2)*%
X79500000Y-115250000D03*
%TD*%
D30*
%TO.N,Net-(U7A--)*%
X129550000Y-124550000D02*
X145513604Y-124550000D01*
X172850000Y-146650000D02*
X176175000Y-143325000D01*
X176175000Y-139125000D02*
X175450000Y-138400000D01*
X171500000Y-134500000D02*
X171500000Y-132950000D01*
X124000000Y-119000000D02*
X129550000Y-124550000D01*
X145513604Y-124550000D02*
X151750000Y-130786396D01*
X176175000Y-143325000D02*
X176175000Y-139125000D01*
X175450000Y-138400000D02*
X172613249Y-138400000D01*
X171315000Y-134685000D02*
X171500000Y-134500000D01*
X151750000Y-130786396D02*
X151750000Y-139395584D01*
X151750000Y-139395584D02*
X159004416Y-146650000D01*
X171500000Y-132950000D02*
X171550000Y-132900000D01*
X159004416Y-146650000D02*
X172850000Y-146650000D01*
X171315000Y-137101751D02*
X171315000Y-136725000D01*
X172613249Y-138400000D02*
X171315000Y-137101751D01*
X171315000Y-136725000D02*
X171315000Y-134685000D01*
%TO.N,CV_IN_3*%
X188600000Y-116900000D02*
X188600000Y-67250000D01*
X170050000Y-118600000D02*
X170050000Y-117050000D01*
X170080000Y-120725000D02*
X170080000Y-118630000D01*
X171000000Y-54873249D02*
X171000000Y-61016751D01*
X176300000Y-121882538D02*
X177482538Y-120700000D01*
X176300000Y-122667462D02*
X176300000Y-121882538D01*
X170080000Y-121416396D02*
X171663604Y-123000000D01*
X170080000Y-118630000D02*
X170050000Y-118600000D01*
X172373249Y-53500000D02*
X171000000Y-54873249D01*
X171663604Y-123000000D02*
X175967462Y-123000000D01*
X187500000Y-120700000D02*
X188200000Y-120000000D01*
X175258249Y-65275000D02*
X186625000Y-65275000D01*
X188200000Y-117300000D02*
X188600000Y-116900000D01*
X172750000Y-53500000D02*
X172373249Y-53500000D01*
X170050000Y-117050000D02*
X170000000Y-117000000D01*
X175967462Y-123000000D02*
X176300000Y-122667462D01*
X186625000Y-65275000D02*
X188600000Y-67250000D01*
X171000000Y-61016751D02*
X175258249Y-65275000D01*
X188200000Y-120000000D02*
X188200000Y-117300000D01*
X170080000Y-120725000D02*
X170080000Y-121416396D01*
X177482538Y-120700000D02*
X187500000Y-120700000D01*
%TO.N,Net-(U7B--)*%
X172585000Y-141298249D02*
X173883249Y-140000000D01*
X145700000Y-124100000D02*
X152200000Y-130600000D01*
X141100000Y-124100000D02*
X145700000Y-124100000D01*
X136000000Y-119000000D02*
X141100000Y-124100000D01*
X172800000Y-143800000D02*
X172800000Y-141890000D01*
X172850000Y-145400000D02*
X172850000Y-143850000D01*
X152200000Y-139209188D02*
X159190812Y-146200000D01*
X152200000Y-130600000D02*
X152200000Y-139209188D01*
X172585000Y-141675000D02*
X172585000Y-141298249D01*
X173883249Y-140000000D02*
X175450000Y-140000000D01*
X172050000Y-146200000D02*
X172850000Y-145400000D01*
X172850000Y-143850000D02*
X172800000Y-143800000D01*
X159190812Y-146200000D02*
X172050000Y-146200000D01*
X172800000Y-141890000D02*
X172585000Y-141675000D01*
%TO.N,GND*%
X118525000Y-84175000D02*
X119350000Y-85000000D01*
X78525000Y-84175000D02*
X77675000Y-84175000D01*
X89350000Y-97000000D02*
X90175000Y-96175000D01*
X119350000Y-97000000D02*
X119350000Y-97001096D01*
X148000000Y-97350000D02*
X148050000Y-97350000D01*
X173855000Y-141675000D02*
X175125000Y-141675000D01*
X120175000Y-84175000D02*
X125750000Y-84175000D01*
X154350000Y-109000000D02*
X153525000Y-108175000D01*
X130175000Y-108175000D02*
X143525000Y-108175000D01*
X186000000Y-108560000D02*
X183500000Y-111060000D01*
X178890000Y-118610000D02*
X176005000Y-118610000D01*
X76500000Y-89176751D02*
X76500000Y-83000000D01*
X109350000Y-109000000D02*
X109350000Y-108567462D01*
X86626167Y-108000000D02*
X88350000Y-108000000D01*
X143640000Y-81100000D02*
X143000000Y-80460000D01*
X172591751Y-124000000D02*
X172000000Y-124000000D01*
X172750000Y-58580000D02*
X172750000Y-61120000D01*
X78525000Y-103825000D02*
X78148249Y-103825000D01*
X85500000Y-109126167D02*
X86626167Y-108000000D01*
X75875000Y-93098249D02*
X75875000Y-102125000D01*
X78525000Y-90825000D02*
X78148249Y-90825000D01*
X147000000Y-64000000D02*
X150800000Y-64000000D01*
X146200000Y-81100000D02*
X143640000Y-81100000D01*
X84181167Y-98445000D02*
X86451167Y-96175000D01*
X143050000Y-92270000D02*
X143530000Y-92270000D01*
X83475000Y-88475000D02*
X83500000Y-88500000D01*
X89350000Y-85000000D02*
X90175000Y-84175000D01*
X128525000Y-96175000D02*
X120175000Y-96175000D01*
X77675000Y-84175000D02*
X76500000Y-83000000D01*
X83475000Y-85445000D02*
X83475000Y-88475000D01*
X86451167Y-96175000D02*
X88525000Y-96175000D01*
X175500000Y-107750000D02*
X175425000Y-107750000D01*
X163525000Y-108175000D02*
X155175000Y-108175000D01*
X118525000Y-108175000D02*
X110175000Y-108175000D01*
X129350000Y-109000000D02*
X130175000Y-108175000D01*
X143000000Y-80460000D02*
X141440000Y-80460000D01*
X118525000Y-96175000D02*
X110175000Y-96175000D01*
X77575000Y-103825000D02*
X78525000Y-103825000D01*
X90175000Y-96175000D02*
X98525000Y-96175000D01*
X99350000Y-97000000D02*
X100175000Y-96175000D01*
X99350000Y-85000000D02*
X100175000Y-84175000D01*
X76724325Y-78224325D02*
X77123650Y-77825000D01*
X83851751Y-111445000D02*
X85500000Y-109796751D01*
X108525000Y-84175000D02*
X109350000Y-85000000D01*
X172585000Y-136725000D02*
X173855000Y-136725000D01*
X143530000Y-92270000D02*
X144800000Y-91000000D01*
X128525000Y-108175000D02*
X120175000Y-108175000D01*
X129350000Y-109000000D02*
X129350000Y-107650000D01*
X173350000Y-108175000D02*
X165175000Y-108175000D01*
X108525000Y-96175000D02*
X109350000Y-97000000D01*
X173890000Y-125675000D02*
X173890000Y-125298249D01*
X78148249Y-90825000D02*
X75875000Y-93098249D01*
X76500000Y-83000000D02*
X76500000Y-82000000D01*
X119350000Y-97000000D02*
X118525000Y-96175000D01*
X173855000Y-136725000D02*
X174675000Y-136725000D01*
X175425000Y-107750000D02*
X174175000Y-109000000D01*
X183500000Y-114000000D02*
X178890000Y-118610000D01*
X148050000Y-97350000D02*
X151300000Y-100600000D01*
X100175000Y-96175000D02*
X108525000Y-96175000D01*
X98525000Y-84175000D02*
X99350000Y-85000000D01*
X99350000Y-109000000D02*
X98525000Y-108175000D01*
X173890000Y-125298249D02*
X172591751Y-124000000D01*
X108957538Y-108175000D02*
X100175000Y-108175000D01*
X164350000Y-109000000D02*
X163525000Y-108175000D01*
X98525000Y-96175000D02*
X99350000Y-97000000D01*
X125750000Y-84175000D02*
X128525000Y-84175000D01*
X109350000Y-108567462D02*
X108957538Y-108175000D01*
X100175000Y-84175000D02*
X108525000Y-84175000D01*
X88525000Y-96175000D02*
X89350000Y-97000000D01*
X143525000Y-108175000D02*
X144350000Y-109000000D01*
X174175000Y-109000000D02*
X173350000Y-108175000D01*
X110175000Y-84175000D02*
X118525000Y-84175000D01*
X83475000Y-111445000D02*
X83851751Y-111445000D01*
X119350000Y-85000000D02*
X120175000Y-84175000D01*
X129350000Y-97000000D02*
X128525000Y-96175000D01*
X175125000Y-141675000D02*
X175300000Y-141500000D01*
X75425000Y-106548249D02*
X75425000Y-112215000D01*
X175630000Y-64000000D02*
X185000000Y-64000000D01*
X120175000Y-96175000D02*
X119350000Y-97000000D01*
X155175000Y-108175000D02*
X154350000Y-109000000D01*
X125750000Y-84175000D02*
X125250000Y-84675000D01*
X85500000Y-109796751D02*
X85500000Y-109126167D01*
X88350000Y-108000000D02*
X89350000Y-109000000D01*
X75425000Y-112215000D02*
X74000000Y-113640000D01*
X125250000Y-84675000D02*
X125250000Y-87500000D01*
X129350000Y-109000000D02*
X128525000Y-108175000D01*
X100175000Y-108175000D02*
X99350000Y-109000000D01*
X110175000Y-96175000D02*
X109350000Y-97000000D01*
X183500000Y-111060000D02*
X183500000Y-114000000D01*
X150800000Y-64000000D02*
X153700000Y-61100000D01*
X129350000Y-107650000D02*
X130500000Y-106500000D01*
X172620000Y-120725000D02*
X173890000Y-120725000D01*
X128525000Y-84175000D02*
X129350000Y-85000000D01*
X109350000Y-85000000D02*
X110175000Y-84175000D01*
X110175000Y-108175000D02*
X109350000Y-109000000D01*
X77123650Y-77825000D02*
X78525000Y-77825000D01*
X146200000Y-84166751D02*
X146200000Y-81100000D01*
X153700000Y-58560000D02*
X153700000Y-61100000D01*
X165175000Y-108175000D02*
X164350000Y-109000000D01*
X176005000Y-118610000D02*
X173890000Y-120725000D01*
X153525000Y-108175000D02*
X145175000Y-108175000D01*
X98525000Y-108175000D02*
X90175000Y-108175000D01*
X145175000Y-108175000D02*
X144350000Y-109000000D01*
X147573249Y-85540000D02*
X146200000Y-84166751D01*
X78148249Y-103825000D02*
X75425000Y-106548249D01*
X120175000Y-108175000D02*
X119350000Y-109000000D01*
X78148249Y-90825000D02*
X76500000Y-89176751D01*
X83475000Y-98445000D02*
X84181167Y-98445000D01*
X147950000Y-85540000D02*
X147573249Y-85540000D01*
X90175000Y-84175000D02*
X98525000Y-84175000D01*
X75875000Y-102125000D02*
X77575000Y-103825000D01*
X172750000Y-61120000D02*
X175630000Y-64000000D01*
X141440000Y-80460000D02*
X140900000Y-81000000D01*
X174675000Y-136725000D02*
X175500000Y-135900000D01*
X119350000Y-109000000D02*
X118525000Y-108175000D01*
X119350000Y-97001096D02*
X118575596Y-97775500D01*
X90175000Y-108175000D02*
X89350000Y-109000000D01*
%TO.N,Net-(D1-A)*%
X159540000Y-123000000D02*
X161175000Y-123000000D01*
X161175000Y-123000000D02*
X162000000Y-122175000D01*
%TO.N,CV_IN_4*%
X171450000Y-57656751D02*
X171728249Y-57935000D01*
X189050000Y-132550000D02*
X188000000Y-133600000D01*
X171150000Y-127800000D02*
X171150000Y-125875000D01*
X172373249Y-56040000D02*
X171450000Y-56963249D01*
X172750000Y-56040000D02*
X172373249Y-56040000D01*
X171100000Y-127850000D02*
X171150000Y-127800000D01*
X171450000Y-56963249D02*
X171450000Y-57656751D01*
X171150000Y-125875000D02*
X171350000Y-125675000D01*
X183398604Y-57935000D02*
X189050000Y-63586396D01*
X171100000Y-129400000D02*
X171100000Y-127850000D01*
X172200000Y-130500000D02*
X171100000Y-129400000D01*
X188000000Y-133600000D02*
X180100000Y-133600000D01*
X171728249Y-57935000D02*
X183398604Y-57935000D01*
X172200000Y-130800000D02*
X172200000Y-130500000D01*
X189050000Y-63586396D02*
X189050000Y-132550000D01*
%TO.N,SYNC_IN_EURO*%
X72300000Y-118550000D02*
X75000000Y-121250000D01*
X86250000Y-121250000D02*
X84000000Y-119000000D01*
X74000000Y-100940000D02*
X72300000Y-102640000D01*
X72300000Y-102640000D02*
X72300000Y-118550000D01*
X86250000Y-123250000D02*
X86250000Y-121250000D01*
%TO.N,SYNC_OUT_EURO*%
X72750000Y-104730000D02*
X74000000Y-103480000D01*
X74486701Y-146255000D02*
X73505000Y-146255000D01*
X73505000Y-146255000D02*
X72825000Y-145575000D01*
X75975000Y-128818072D02*
X75975000Y-120225000D01*
X75975000Y-120225000D02*
X72750000Y-117000000D01*
X72825000Y-145575000D02*
X72825000Y-131968072D01*
X84000000Y-136741701D02*
X74486701Y-146255000D01*
X84000000Y-135000000D02*
X84000000Y-136741701D01*
X72825000Y-131968072D02*
X75975000Y-128818072D01*
X72750000Y-117000000D02*
X72750000Y-104730000D01*
%TO.N,SD_CLOCK*%
X186000000Y-78080000D02*
X181750000Y-82330000D01*
X181750000Y-82330000D02*
X181750000Y-85950000D01*
X181750000Y-85950000D02*
X180400000Y-87300000D01*
%TO.N,SD_SERIAL_IN*%
X186000000Y-80620000D02*
X184630000Y-80620000D01*
X182200000Y-87700000D02*
X180400000Y-89500000D01*
X184630000Y-80620000D02*
X182200000Y-83050000D01*
X182200000Y-83050000D02*
X182200000Y-87700000D01*
%TO.N,SD_CHIP_SELECT*%
X181100000Y-90600000D02*
X186000000Y-85700000D01*
X179300000Y-90600000D02*
X181100000Y-90600000D01*
%TO.N,595_DATA*%
X172513604Y-80877208D02*
X172513604Y-82250000D01*
X144405457Y-77275000D02*
X146580457Y-75100000D01*
X180047918Y-92550000D02*
X172513604Y-85015686D01*
X185062082Y-88240000D02*
X180752082Y-92550000D01*
X141700000Y-78266751D02*
X141700000Y-77573249D01*
X146580457Y-75100000D02*
X166736396Y-75100000D01*
X143000000Y-79190000D02*
X142623249Y-79190000D01*
X142623249Y-79190000D02*
X141700000Y-78266751D01*
X141998249Y-77275000D02*
X144405457Y-77275000D01*
X180752082Y-92550000D02*
X180047918Y-92550000D01*
X172513604Y-85015686D02*
X172513604Y-82250000D01*
X186000000Y-88240000D02*
X185062082Y-88240000D01*
X166736396Y-75100000D02*
X172513604Y-80877208D01*
X141700000Y-77573249D02*
X141998249Y-77275000D01*
%TO.N,595_CLOCK*%
X142410000Y-94810000D02*
X143050000Y-94810000D01*
X144300000Y-83923249D02*
X144300000Y-84700000D01*
X184570000Y-94809000D02*
X184570000Y-92210000D01*
X143000000Y-83000000D02*
X143376751Y-83000000D01*
X144085000Y-84915000D02*
X141978249Y-84915000D01*
X143060000Y-94800000D02*
X143050000Y-94810000D01*
X141300000Y-85593249D02*
X141300000Y-93700000D01*
X141978249Y-84915000D02*
X141300000Y-85593249D01*
X143376751Y-83000000D02*
X144300000Y-83923249D01*
X141300000Y-93700000D02*
X142410000Y-94810000D01*
X144300000Y-84700000D02*
X144085000Y-84915000D01*
X144700000Y-94800000D02*
X143060000Y-94800000D01*
X180579500Y-98799500D02*
X184570000Y-94809000D01*
X184570000Y-92210000D02*
X186000000Y-90780000D01*
X180579500Y-98799500D02*
X153500000Y-98799500D01*
%TO.N,595_LATCH*%
X146425000Y-85411853D02*
X144430000Y-83416853D01*
X146425000Y-90541751D02*
X146425000Y-85411853D01*
X180491396Y-99524000D02*
X154500000Y-99524000D01*
X186000000Y-94015396D02*
X180491396Y-99524000D01*
X186000000Y-93320000D02*
X186000000Y-94015396D01*
X143426751Y-93540000D02*
X146425000Y-90541751D01*
X144700000Y-93600000D02*
X143110000Y-93600000D01*
X144430000Y-81730000D02*
X143000000Y-81730000D01*
X144430000Y-83416853D02*
X144430000Y-81730000D01*
X143110000Y-93600000D02*
X143050000Y-93540000D01*
X143050000Y-93540000D02*
X143426751Y-93540000D01*
%TO.N,165_LOAD*%
X83098249Y-76555000D02*
X83475000Y-76555000D01*
X77225000Y-79935000D02*
X77225000Y-78748249D01*
X77225000Y-78748249D02*
X77503249Y-78470000D01*
X84775000Y-90025000D02*
X84305000Y-89555000D01*
X80697020Y-78956229D02*
X80697020Y-79205153D01*
X83098248Y-76555000D02*
X83475000Y-76555000D01*
X84496751Y-91450000D02*
X84775000Y-91171751D01*
X82000000Y-81000000D02*
X82000000Y-88080000D01*
X82300001Y-91450000D02*
X84496751Y-91450000D01*
X74000000Y-83160000D02*
X77225000Y-79935000D01*
X82175000Y-101255000D02*
X82175000Y-91575001D01*
X82175000Y-91575001D02*
X82300001Y-91450000D01*
X82000000Y-88080000D02*
X83475000Y-89555000D01*
X84775000Y-91171751D02*
X84775000Y-90025000D01*
X81183249Y-78470000D02*
X83098248Y-76555000D01*
X77503249Y-78470000D02*
X81183249Y-78470000D01*
X83475000Y-102555000D02*
X82175000Y-101255000D01*
X83098249Y-76555000D02*
X80697020Y-78956229D01*
%TO.N,165_CLOCK*%
X83475000Y-103825000D02*
X83075000Y-103825000D01*
X81250000Y-89500000D02*
X82575000Y-90825000D01*
X73455000Y-81795000D02*
X72825000Y-82425000D01*
X83098249Y-77825000D02*
X81250000Y-79673249D01*
X84496751Y-75930000D02*
X82453249Y-75930000D01*
X76743345Y-77180000D02*
X75999325Y-77924020D01*
X82200000Y-102901903D02*
X81500000Y-102201903D01*
X81500000Y-91613605D02*
X82288605Y-90825000D01*
X72825000Y-82425000D02*
X72825000Y-84525000D01*
X81250000Y-79673249D02*
X81250000Y-88750000D01*
X75999325Y-80524279D02*
X74728604Y-81795000D01*
X83475000Y-77825000D02*
X83098249Y-77825000D01*
X74728604Y-81795000D02*
X73455000Y-81795000D01*
X83851751Y-77825000D02*
X85000000Y-76676751D01*
X85000000Y-76433249D02*
X84496751Y-75930000D01*
X82288605Y-90825000D02*
X83475000Y-90825000D01*
X82453249Y-75930000D02*
X81203249Y-77180000D01*
X75999325Y-77924020D02*
X75999325Y-80524279D01*
X83075000Y-103825000D02*
X82200000Y-102950000D01*
X81203249Y-77180000D02*
X76743345Y-77180000D01*
X83475000Y-77825000D02*
X83851751Y-77825000D01*
X85000000Y-76676751D02*
X85000000Y-76433249D01*
X72825000Y-84525000D02*
X74000000Y-85700000D01*
X82575000Y-90825000D02*
X83475000Y-90825000D01*
X82200000Y-102950000D02*
X82200000Y-102901903D01*
X81500000Y-102201903D02*
X81500000Y-91613605D01*
X81250000Y-88750000D02*
X81250000Y-89500000D01*
%TO.N,165_DATA*%
X78525000Y-111445000D02*
X79280500Y-111445000D01*
X79280500Y-111445000D02*
X79725500Y-111000000D01*
%TO.N,4051_ADDRESS_A*%
X84500000Y-62500000D02*
X84500000Y-60250000D01*
X78063604Y-68936396D02*
X84500000Y-62500000D01*
X167800000Y-58580000D02*
X166170000Y-58580000D01*
X76906554Y-68936396D02*
X78063604Y-68936396D01*
X166170000Y-58580000D02*
X165750000Y-59000000D01*
X144310000Y-58560000D02*
X144000000Y-58250000D01*
X75382950Y-70460000D02*
X76906554Y-68936396D01*
X86750000Y-58000000D02*
X89000000Y-58000000D01*
X84500000Y-60250000D02*
X86750000Y-58000000D01*
X74000000Y-70460000D02*
X75382950Y-70460000D01*
X148750000Y-58560000D02*
X144310000Y-58560000D01*
%TO.N,4051_ADDRESS_B*%
X165900000Y-59850000D02*
X165750000Y-60000000D01*
X148580000Y-60000000D02*
X145500000Y-60000000D01*
X86374097Y-59012299D02*
X88987701Y-59012299D01*
X84950000Y-60436396D02*
X86374097Y-59012299D01*
X77886396Y-69750000D02*
X84950000Y-62686396D01*
X74000000Y-73000000D02*
X77250000Y-69750000D01*
X148750000Y-59830000D02*
X148580000Y-60000000D01*
X84950000Y-62686396D02*
X84950000Y-60436396D01*
X77250000Y-69750000D02*
X77886396Y-69750000D01*
X167800000Y-59850000D02*
X165900000Y-59850000D01*
%TO.N,4051_ADDRESS_C*%
X77965990Y-70306802D02*
X85500000Y-62772792D01*
X165870000Y-61120000D02*
X165750000Y-61000000D01*
X77693198Y-70306802D02*
X77965990Y-70306802D01*
X85500000Y-62772792D02*
X85500000Y-60522792D01*
X74000000Y-75540000D02*
X75750000Y-73790000D01*
X148750000Y-61100000D02*
X146850000Y-61100000D01*
X146850000Y-61100000D02*
X146750000Y-61000000D01*
X75750000Y-73790000D02*
X75750000Y-72250000D01*
X75750000Y-72250000D02*
X77693198Y-70306802D01*
X167800000Y-61120000D02*
X165870000Y-61120000D01*
X85500000Y-60522792D02*
X86272792Y-59750000D01*
X86272792Y-59750000D02*
X88250000Y-59750000D01*
%TO.N,4051_READING_0*%
X153700000Y-54750000D02*
X154225500Y-54750000D01*
X75781396Y-76105000D02*
X75781396Y-75031396D01*
X75175000Y-79445000D02*
X75175000Y-76711396D01*
X74000000Y-80620000D02*
X75175000Y-79445000D01*
X154225500Y-54750000D02*
X155725500Y-56250000D01*
X86500000Y-64312792D02*
X86500000Y-61909188D01*
X75175000Y-76711396D02*
X75781396Y-76105000D01*
X86500000Y-61909188D02*
X87159188Y-61250000D01*
X87159188Y-61250000D02*
X88000000Y-61250000D01*
X75781396Y-75031396D02*
X86500000Y-64312792D01*
%TO.N,4051_READING_1*%
X76250000Y-73926396D02*
X76250000Y-72659188D01*
X85950000Y-62959188D02*
X85950000Y-61550000D01*
X89625500Y-60500000D02*
X89750000Y-60624500D01*
X75250000Y-74926396D02*
X76250000Y-73926396D01*
X76250000Y-72659188D02*
X85950000Y-62959188D01*
X174500000Y-54750000D02*
X172770000Y-54750000D01*
X75250000Y-76000000D02*
X75250000Y-74926396D01*
X74000000Y-77250000D02*
X75250000Y-76000000D01*
X85950000Y-61550000D02*
X87000000Y-60500000D01*
X172770000Y-54750000D02*
X172750000Y-54770000D01*
X87000000Y-60500000D02*
X89625500Y-60500000D01*
X74000000Y-78080000D02*
X74000000Y-77250000D01*
%TO.N,Net-(J14-PadT)*%
X122350000Y-135000000D02*
X120000000Y-135000000D01*
%TO.N,Net-(J15-PadT)*%
X132000000Y-135000000D02*
X134350000Y-135000000D01*
%TO.N,Net-(U3-a)*%
X156540000Y-80340000D02*
X156540000Y-82840000D01*
X156210000Y-80010000D02*
X156540000Y-80340000D01*
%TO.N,Net-(U1-QA)*%
X159600000Y-78727462D02*
X159600000Y-77992538D01*
X144396853Y-77920000D02*
X143000000Y-77920000D01*
X156210000Y-78360000D02*
X156935000Y-79085000D01*
X159600000Y-77992538D02*
X157157462Y-75550000D01*
X146766853Y-75550000D02*
X144396853Y-77920000D01*
X156935000Y-79085000D02*
X159242462Y-79085000D01*
X159242462Y-79085000D02*
X159600000Y-78727462D01*
X157157462Y-75550000D02*
X146766853Y-75550000D01*
%TO.N,Net-(U2-QB)*%
X149700000Y-88500000D02*
X148040000Y-88500000D01*
X148040000Y-88500000D02*
X148000000Y-88460000D01*
%TO.N,Net-(U2-QC)*%
X148030000Y-89700000D02*
X148000000Y-89730000D01*
X149725500Y-89700000D02*
X148030000Y-89700000D01*
%TO.N,Net-(U2-QD)*%
X152975000Y-98075000D02*
X149750000Y-94850000D01*
X149750000Y-94850000D02*
X149750000Y-92373249D01*
X148376751Y-91000000D02*
X148000000Y-91000000D01*
X166700000Y-93000000D02*
X166700000Y-95247462D01*
X149750000Y-92373249D02*
X148376751Y-91000000D01*
X163872462Y-98075000D02*
X152975000Y-98075000D01*
X166700000Y-95247462D02*
X163872462Y-98075000D01*
%TO.N,Net-(U2-QE)*%
X149300000Y-92800000D02*
X148770000Y-92270000D01*
X165850000Y-115150000D02*
X179086396Y-115150000D01*
X179086396Y-115150000D02*
X182350000Y-111886396D01*
X182350000Y-111886396D02*
X182350000Y-102113604D01*
X163500000Y-117500000D02*
X165850000Y-115150000D01*
X149300000Y-96000000D02*
X149300000Y-92800000D01*
X155100000Y-101800000D02*
X149300000Y-96000000D01*
X182350000Y-102113604D02*
X182036396Y-101800000D01*
X162000000Y-123825000D02*
X163500000Y-122325000D01*
X148770000Y-92270000D02*
X148000000Y-92270000D01*
X182036396Y-101800000D02*
X155100000Y-101800000D01*
X163500000Y-122325000D02*
X163500000Y-117500000D01*
%TO.N,Net-(U2-QF)*%
X180950000Y-103650000D02*
X152016853Y-103650000D01*
X146250000Y-94850000D02*
X147560000Y-93540000D01*
X155477208Y-141850000D02*
X154750000Y-141122792D01*
X146250000Y-97883147D02*
X146250000Y-94850000D01*
X162127208Y-113800000D02*
X178500000Y-113800000D01*
X152016853Y-103650000D02*
X146250000Y-97883147D01*
X162000000Y-129650000D02*
X163250000Y-130900000D01*
X163250000Y-130900000D02*
X163250000Y-141425000D01*
X147560000Y-93540000D02*
X148000000Y-93540000D01*
X154750000Y-121177208D02*
X162127208Y-113800000D01*
X154750000Y-141122792D02*
X154750000Y-121177208D01*
X162825000Y-141850000D02*
X155477208Y-141850000D01*
X180950000Y-111350000D02*
X180950000Y-103650000D01*
X163250000Y-141425000D02*
X162825000Y-141850000D01*
X178500000Y-113800000D02*
X180950000Y-111350000D01*
%TO.N,Net-(U2-QG)*%
X155663604Y-141400000D02*
X155200000Y-140936396D01*
X181250000Y-102750000D02*
X151753249Y-102750000D01*
X151753249Y-102750000D02*
X146700000Y-97696751D01*
X147190000Y-94810000D02*
X148000000Y-94810000D01*
X162800000Y-135450000D02*
X162800000Y-141067462D01*
X162800000Y-141067462D02*
X162467462Y-141400000D01*
X178713604Y-114250000D02*
X181450000Y-111513604D01*
X155200000Y-140936396D02*
X155200000Y-121363604D01*
X162313604Y-114250000D02*
X178713604Y-114250000D01*
X181450000Y-111513604D02*
X181400000Y-111463604D01*
X162000000Y-134650000D02*
X162800000Y-135450000D01*
X146700000Y-95300000D02*
X147190000Y-94810000D01*
X155200000Y-121363604D02*
X162313604Y-114250000D01*
X181400000Y-102900000D02*
X181250000Y-102750000D01*
X162467462Y-141400000D02*
X155663604Y-141400000D01*
X181400000Y-111463604D02*
X181400000Y-102900000D01*
X146700000Y-97696751D02*
X146700000Y-95300000D01*
%TO.N,Net-(U2-QH)*%
X155700000Y-121500000D02*
X162500000Y-114700000D01*
X162000000Y-140650000D02*
X161775000Y-140875000D01*
X181900000Y-111700000D02*
X181900000Y-102300000D01*
X161775000Y-140875000D02*
X155775000Y-140875000D01*
X155775000Y-140875000D02*
X155700000Y-140800000D01*
X154596751Y-102300000D02*
X148376751Y-96080000D01*
X162500000Y-114700000D02*
X178900000Y-114700000D01*
X155700000Y-140800000D02*
X155700000Y-121500000D01*
X148376751Y-96080000D02*
X148000000Y-96080000D01*
X178900000Y-114700000D02*
X181900000Y-111700000D01*
X181900000Y-102300000D02*
X154596751Y-102300000D01*
%TO.N,Net-(U3-b)*%
X166700000Y-80340000D02*
X166700000Y-82840000D01*
X166370000Y-80010000D02*
X166700000Y-80340000D01*
%TO.N,Net-(U2-QA)*%
X143120000Y-89800000D02*
X143050000Y-89730000D01*
X145700000Y-89800000D02*
X143120000Y-89800000D01*
%TO.N,Net-(U1-QB)*%
X169360000Y-78360000D02*
X166370000Y-78360000D01*
X171800000Y-86600000D02*
X171800000Y-80800000D01*
X148326751Y-76650000D02*
X152300000Y-80623249D01*
X152300000Y-80623249D02*
X152300000Y-86200000D01*
X154500000Y-88400000D02*
X170000000Y-88400000D01*
X147950000Y-76650000D02*
X148326751Y-76650000D01*
X170000000Y-88400000D02*
X171800000Y-86600000D01*
X152300000Y-86200000D02*
X154500000Y-88400000D01*
X171800000Y-80800000D02*
X169360000Y-78360000D01*
%TO.N,Net-(U3-c)*%
X161290000Y-95250000D02*
X161290000Y-93330000D01*
X161290000Y-93330000D02*
X161620000Y-93000000D01*
%TO.N,Net-(U1-QC)*%
X160155000Y-95765000D02*
X160155000Y-92554720D01*
X155300000Y-90100000D02*
X151800000Y-86600000D01*
X151800000Y-81393249D02*
X148326751Y-77920000D01*
X151800000Y-86600000D02*
X151800000Y-81393249D01*
X148326751Y-77920000D02*
X147950000Y-77920000D01*
X161290000Y-96900000D02*
X160155000Y-95765000D01*
X157700280Y-90100000D02*
X155300000Y-90100000D01*
X160155000Y-92554720D02*
X157700280Y-90100000D01*
%TO.N,Net-(U3-d)*%
X156210000Y-93330000D02*
X156540000Y-93000000D01*
X156210000Y-95250000D02*
X156210000Y-93330000D01*
%TO.N,Net-(U1-QD)*%
X151350000Y-82213604D02*
X148326396Y-79190000D01*
X151350000Y-88200000D02*
X151350000Y-82213604D01*
X156210000Y-96900000D02*
X155075000Y-95765000D01*
X155075000Y-91925000D02*
X151350000Y-88200000D01*
X148326396Y-79190000D02*
X147950000Y-79190000D01*
X155075000Y-95765000D02*
X155075000Y-91925000D01*
%TO.N,Net-(U3-e)*%
X153670000Y-93330000D02*
X154000000Y-93000000D01*
X153670000Y-95250000D02*
X153670000Y-93330000D01*
D31*
%TO.N,-12V*%
X177200000Y-123800000D02*
X184200000Y-123800000D01*
X177100000Y-140000000D02*
X177100000Y-138400000D01*
X185750000Y-122250000D02*
X185750000Y-122000000D01*
X184200000Y-123800000D02*
X185750000Y-122250000D01*
X177200000Y-123800000D02*
X177200000Y-122200000D01*
X177100000Y-138400000D02*
X177100000Y-123900000D01*
X177100000Y-123900000D02*
X177200000Y-123800000D01*
D30*
%TO.N,Net-(U1-QE)*%
X150900000Y-82400000D02*
X148960000Y-80460000D01*
X148960000Y-80460000D02*
X147950000Y-80460000D01*
X150900000Y-94130000D02*
X150900000Y-82400000D01*
X153670000Y-96900000D02*
X150900000Y-94130000D01*
%TO.N,Net-(U3-f)*%
X159080000Y-80340000D02*
X159080000Y-82840000D01*
X158750000Y-80010000D02*
X159080000Y-80340000D01*
%TO.N,Net-(U1-QF)*%
X158750000Y-78360000D02*
X156390000Y-76000000D01*
X156390000Y-76000000D02*
X146953249Y-76000000D01*
X146600000Y-80756751D02*
X147573249Y-81730000D01*
X147573249Y-81730000D02*
X147950000Y-81730000D01*
X146600000Y-76353249D02*
X146600000Y-80756751D01*
X146953249Y-76000000D02*
X146600000Y-76353249D01*
%TO.N,Net-(U3-g)*%
X163830000Y-93330000D02*
X164160000Y-93000000D01*
X163830000Y-95250000D02*
X163830000Y-93330000D01*
%TO.N,Net-(U1-QG)*%
X150450000Y-94897462D02*
X150450000Y-84100000D01*
X163830000Y-96900000D02*
X163105000Y-97625000D01*
X153177538Y-97625000D02*
X150450000Y-94897462D01*
X150450000Y-84100000D02*
X149350000Y-83000000D01*
X149350000Y-83000000D02*
X147950000Y-83000000D01*
X163105000Y-97625000D02*
X153177538Y-97625000D01*
%TO.N,Net-(U8A--)*%
X175550000Y-120650000D02*
X176300000Y-119900000D01*
X171600000Y-117050000D02*
X171650000Y-117000000D01*
X147838604Y-137075000D02*
X158313604Y-147550000D01*
X175550000Y-122200000D02*
X171500000Y-122200000D01*
X158313604Y-147550000D02*
X173286396Y-147550000D01*
X175550000Y-122200000D02*
X175550000Y-120650000D01*
X179025000Y-129625000D02*
X178900000Y-129500000D01*
X171350000Y-118850000D02*
X171600000Y-118600000D01*
X179025000Y-141811396D02*
X179025000Y-129625000D01*
X173286396Y-147550000D02*
X179025000Y-141811396D01*
X171500000Y-122200000D02*
X171350000Y-122050000D01*
X124000000Y-135000000D02*
X126075000Y-137075000D01*
X171350000Y-120725000D02*
X171350000Y-118850000D01*
X171600000Y-118600000D02*
X171600000Y-117050000D01*
X171350000Y-122050000D02*
X171350000Y-120725000D01*
X126075000Y-137075000D02*
X147838604Y-137075000D01*
%TO.N,CV_IN_1*%
X184066928Y-56860000D02*
X187956928Y-60750000D01*
X169950000Y-134500000D02*
X169950000Y-132950000D01*
X169900000Y-131600000D02*
X169900000Y-132900000D01*
X169950000Y-132950000D02*
X169900000Y-132900000D01*
X187956928Y-60750000D02*
X188000000Y-60750000D01*
X172750000Y-52230000D02*
X175787050Y-52230000D01*
X180417050Y-56860000D02*
X184066928Y-56860000D01*
X175787050Y-52230000D02*
X180417050Y-56860000D01*
X170045000Y-136725000D02*
X170045000Y-134595000D01*
X170045000Y-134595000D02*
X169950000Y-134500000D01*
%TO.N,Net-(U8B--)*%
X136000000Y-135000000D02*
X137625000Y-136625000D01*
X173100000Y-147100000D02*
X178300000Y-141900000D01*
X172750000Y-127850000D02*
X172700000Y-127800000D01*
X158500000Y-147100000D02*
X173100000Y-147100000D01*
X174325000Y-126975000D02*
X175550000Y-125750000D01*
X172700000Y-127800000D02*
X172700000Y-125755000D01*
X172620000Y-126051751D02*
X173543249Y-126975000D01*
X172620000Y-125675000D02*
X172620000Y-126051751D01*
X137625000Y-136625000D02*
X148025000Y-136625000D01*
X174100000Y-129400000D02*
X172750000Y-129400000D01*
X173543249Y-126975000D02*
X174325000Y-126975000D01*
X175550000Y-125750000D02*
X175550000Y-123800000D01*
X172750000Y-129400000D02*
X172750000Y-127850000D01*
X178300000Y-141900000D02*
X178300000Y-130600000D01*
X148025000Y-136625000D02*
X158500000Y-147100000D01*
X172700000Y-125755000D02*
X172620000Y-125675000D01*
%TO.N,CV_IN_2*%
X189500000Y-63400000D02*
X189500000Y-133000000D01*
X183410000Y-57310000D02*
X189500000Y-63400000D01*
X171200000Y-145400000D02*
X171200000Y-143850000D01*
X170750000Y-143300000D02*
X171250000Y-143800000D01*
X189500000Y-133000000D02*
X182700000Y-139800000D01*
X171250000Y-143800000D02*
X171250000Y-141740000D01*
X182700000Y-139800000D02*
X179800000Y-139800000D01*
X171200000Y-143850000D02*
X171250000Y-143800000D01*
X172750000Y-57310000D02*
X183410000Y-57310000D01*
X171250000Y-141740000D02*
X171315000Y-141675000D01*
X170200000Y-143300000D02*
X170750000Y-143300000D01*
%TO.N,Net-(U3-DPX)*%
X158750000Y-95250000D02*
X158750000Y-93330000D01*
X158750000Y-93330000D02*
X159080000Y-93000000D01*
%TO.N,Net-(U1-QH)*%
X156200000Y-91100000D02*
X155600000Y-91100000D01*
X157615000Y-92515000D02*
X156200000Y-91100000D01*
X158750000Y-96900000D02*
X157615000Y-95765000D01*
X149600000Y-85543249D02*
X148326751Y-84270000D01*
X157615000Y-95765000D02*
X157615000Y-92515000D01*
X149600000Y-87200000D02*
X149600000Y-85543249D01*
X148326751Y-84270000D02*
X147950000Y-84270000D01*
%TO.N,Net-(U4-D0)*%
X88000000Y-86500000D02*
X87000000Y-85500000D01*
X78620000Y-83000000D02*
X78525000Y-82905000D01*
X92500000Y-86500000D02*
X88000000Y-86500000D01*
X91500000Y-85500000D02*
X93500000Y-85500000D01*
X91000000Y-85000000D02*
X91500000Y-85500000D01*
X80000000Y-83000000D02*
X78620000Y-83000000D01*
X93500000Y-85500000D02*
X92500000Y-86500000D01*
%TO.N,Net-(U4-D1)*%
X102500000Y-86500000D02*
X98000000Y-86500000D01*
X80000000Y-82000000D02*
X78890000Y-82000000D01*
X101000000Y-85000000D02*
X101500000Y-85500000D01*
X103500000Y-85500000D02*
X102500000Y-86500000D01*
X98000000Y-86500000D02*
X97000000Y-85500000D01*
X101500000Y-85500000D02*
X103500000Y-85500000D01*
X78890000Y-82000000D02*
X78525000Y-81635000D01*
%TO.N,Net-(U4-D2)*%
X80000000Y-81000000D02*
X79160000Y-81000000D01*
X112500000Y-86500000D02*
X108000000Y-86500000D01*
X113500000Y-85500000D02*
X112500000Y-86500000D01*
X111000000Y-85000000D02*
X111500000Y-85500000D01*
X108000000Y-86500000D02*
X107000000Y-85500000D01*
X111500000Y-85500000D02*
X113500000Y-85500000D01*
X79160000Y-81000000D02*
X78525000Y-80365000D01*
%TO.N,Net-(U4-D3)*%
X121500000Y-85500000D02*
X123500000Y-85500000D01*
X121000000Y-85000000D02*
X121500000Y-85500000D01*
X122500000Y-86500000D02*
X118000000Y-86500000D01*
X80061584Y-79979630D02*
X79176954Y-79095000D01*
X123500000Y-85500000D02*
X122500000Y-86500000D01*
X79176954Y-79095000D02*
X78525000Y-79095000D01*
X118000000Y-86500000D02*
X117000000Y-85500000D01*
%TO.N,Net-(U4-D4)*%
X131000000Y-85000000D02*
X131500000Y-85500000D01*
X85500000Y-82000000D02*
X85500000Y-80743249D01*
X87151624Y-83651624D02*
X85500000Y-82000000D01*
X87151624Y-83651624D02*
X87528248Y-83275000D01*
X133500000Y-85500000D02*
X132500000Y-86500000D01*
X130075000Y-85675000D02*
X129250000Y-86500000D01*
X129250000Y-86500000D02*
X128000000Y-86500000D01*
X132500000Y-86500000D02*
X128000000Y-86500000D01*
X130075000Y-84075000D02*
X130075000Y-85675000D01*
X85500000Y-80743249D02*
X83851751Y-79095000D01*
X83851751Y-79095000D02*
X83475000Y-79095000D01*
X128000000Y-86500000D02*
X127000000Y-85500000D01*
X87528248Y-83275000D02*
X129275000Y-83275000D01*
X129275000Y-83275000D02*
X130075000Y-84075000D01*
X131500000Y-85500000D02*
X133500000Y-85500000D01*
%TO.N,Net-(U4-D5)*%
X95000000Y-88750000D02*
X95000000Y-85126167D01*
X88575000Y-84175000D02*
X87038604Y-84175000D01*
X88000000Y-98500000D02*
X92500000Y-98500000D01*
X88750000Y-84000000D02*
X88575000Y-84175000D01*
X95123833Y-85126167D02*
X95250000Y-85000000D01*
X87038604Y-84175000D02*
X85050000Y-82186396D01*
X87000000Y-97500000D02*
X88000000Y-98500000D01*
X85050000Y-82186396D02*
X85050000Y-80929645D01*
X85050000Y-80929645D02*
X84485355Y-80365000D01*
X91000000Y-97000000D02*
X91500000Y-97500000D01*
X84485355Y-80365000D02*
X83475000Y-80365000D01*
X91500000Y-97500000D02*
X93500000Y-97500000D01*
X95000000Y-85126167D02*
X95123833Y-85126167D01*
X92500000Y-98500000D02*
X93500000Y-97500000D01*
%TO.N,Net-(U4-D6)*%
X98000000Y-98500000D02*
X102500000Y-98500000D01*
X101500000Y-97500000D02*
X103500000Y-97500000D01*
X102500000Y-98500000D02*
X103500000Y-97500000D01*
X86175500Y-98675500D02*
X86450000Y-98950000D01*
X97000000Y-97500000D02*
X98000000Y-98500000D01*
X85225000Y-83008249D02*
X83851751Y-81635000D01*
X85475000Y-83258249D02*
X85475000Y-91086969D01*
X101000000Y-97000000D02*
X101500000Y-97500000D01*
X83851751Y-81635000D02*
X83475000Y-81635000D01*
X85862868Y-98675500D02*
X86175500Y-98675500D01*
X95550000Y-98950000D02*
X86450000Y-98950000D01*
X85225000Y-83008249D02*
X85475000Y-83258249D01*
X85475000Y-91086969D02*
X85638031Y-91250000D01*
X97000000Y-97500000D02*
X95550000Y-98950000D01*
%TO.N,Net-(U4-D7)*%
X111500000Y-97500000D02*
X113500000Y-97500000D01*
X84775000Y-88475000D02*
X84775000Y-83828249D01*
X85288031Y-99400000D02*
X84913531Y-99025500D01*
X108000000Y-98500000D02*
X112500000Y-98500000D01*
X107000000Y-97500000D02*
X108000000Y-98500000D01*
X84750000Y-88500000D02*
X84775000Y-88475000D01*
X84775000Y-83828249D02*
X83851751Y-82905000D01*
X83851751Y-82905000D02*
X83475000Y-82905000D01*
X111000000Y-97000000D02*
X111500000Y-97500000D01*
X105100000Y-99400000D02*
X86263604Y-99400000D01*
X86263604Y-99400000D02*
X85288031Y-99400000D01*
X112500000Y-98500000D02*
X113500000Y-97500000D01*
X107000000Y-97500000D02*
X105100000Y-99400000D01*
%TO.N,Net-(U6-A0)*%
X121457950Y-43385000D02*
X110135000Y-43385000D01*
X109525000Y-42775000D02*
X103225000Y-42775000D01*
X141171475Y-42671475D02*
X140457950Y-43385000D01*
X151000000Y-46267588D02*
X147403887Y-42671475D01*
X140457950Y-43385000D02*
X129117412Y-43385000D01*
X148750000Y-56020000D02*
X149730000Y-56020000D01*
X151000000Y-54750000D02*
X151000000Y-46267588D01*
X129117412Y-43385000D02*
X128507412Y-42775000D01*
X147403887Y-42671475D02*
X141171475Y-42671475D01*
X128507412Y-42775000D02*
X122067950Y-42775000D01*
X103225000Y-42775000D02*
X102615000Y-43385000D01*
X122067950Y-42775000D02*
X121457950Y-43385000D01*
X93115000Y-43385000D02*
X90000000Y-46500000D01*
X149730000Y-56020000D02*
X151000000Y-54750000D01*
X110135000Y-43385000D02*
X109525000Y-42775000D01*
X102615000Y-43385000D02*
X93115000Y-43385000D01*
%TO.N,Net-(U6-A1)*%
X145685000Y-57935000D02*
X141750000Y-54000000D01*
X150050000Y-56943249D02*
X150050000Y-57636751D01*
X150050000Y-57636751D02*
X149751751Y-57935000D01*
X147728249Y-56665000D02*
X149771751Y-56665000D01*
X146225000Y-54750000D02*
X146225000Y-55161751D01*
X116500000Y-54000000D02*
X109000000Y-46500000D01*
X141750000Y-54000000D02*
X116500000Y-54000000D01*
X149771751Y-56665000D02*
X150050000Y-56943249D01*
X148750000Y-54750000D02*
X146225000Y-54750000D01*
X146225000Y-55161751D02*
X147728249Y-56665000D01*
X149751751Y-57935000D02*
X145685000Y-57935000D01*
%TO.N,Net-(D2-A)*%
X159540000Y-128550000D02*
X161450000Y-128550000D01*
X161450000Y-128550000D02*
X162000000Y-128000000D01*
%TO.N,Net-(D3-A)*%
X160900000Y-134100000D02*
X162000000Y-133000000D01*
X159540000Y-134100000D02*
X160900000Y-134100000D01*
%TO.N,Net-(D4-A)*%
X161350000Y-139650000D02*
X162000000Y-139000000D01*
X159540000Y-139650000D02*
X161350000Y-139650000D01*
%TO.N,Net-(U6-A2)*%
X150050000Y-47800000D02*
X150050000Y-53200000D01*
X147525000Y-45275000D02*
X150050000Y-47800000D01*
X128000000Y-46500000D02*
X129225000Y-45275000D01*
X150050000Y-53200000D02*
X149770000Y-53480000D01*
X129225000Y-45275000D02*
X147525000Y-45275000D01*
X149770000Y-53480000D02*
X148750000Y-53480000D01*
%TO.N,Net-(U6-A3)*%
X145775000Y-55525000D02*
X147540000Y-57290000D01*
X147000000Y-46500000D02*
X145775000Y-47725000D01*
X147540000Y-57290000D02*
X148750000Y-57290000D01*
X145775000Y-47725000D02*
X145775000Y-55525000D01*
%TO.N,Net-(U6-A4)*%
X149815000Y-59185000D02*
X151500000Y-57500000D01*
X90000000Y-66500000D02*
X97315000Y-59185000D01*
X151500000Y-54033249D02*
X153323249Y-52210000D01*
X153323249Y-52210000D02*
X153700000Y-52210000D01*
X97315000Y-59185000D02*
X149815000Y-59185000D01*
X151500000Y-57500000D02*
X151500000Y-54033249D01*
%TO.N,Net-(U6-A5)*%
X109000000Y-66500000D02*
X110225000Y-65275000D01*
X155550000Y-58250000D02*
X154590000Y-57290000D01*
X110225000Y-65275000D02*
X153475000Y-65275000D01*
X154590000Y-57290000D02*
X153700000Y-57290000D01*
X153475000Y-65275000D02*
X155550000Y-63200000D01*
X155550000Y-63200000D02*
X155550000Y-58250000D01*
%TO.N,Net-(U6-A6)*%
X156450000Y-54950000D02*
X154980000Y-53480000D01*
X128000000Y-66500000D02*
X129275000Y-67775000D01*
X153611396Y-67775000D02*
X156450000Y-64936396D01*
X129275000Y-67775000D02*
X153611396Y-67775000D01*
X154980000Y-53480000D02*
X153700000Y-53480000D01*
X156450000Y-64936396D02*
X156450000Y-54950000D01*
%TO.N,Net-(U6-A7)*%
X156000000Y-64750000D02*
X156000000Y-57943249D01*
X154076751Y-56020000D02*
X153700000Y-56020000D01*
X156000000Y-57943249D02*
X154076751Y-56020000D01*
X147000000Y-66500000D02*
X154250000Y-66500000D01*
X154250000Y-66500000D02*
X156000000Y-64750000D01*
D31*
%TO.N,+3.3V*%
X166700000Y-116900000D02*
X167700000Y-117900000D01*
X169530000Y-116070000D02*
X167700000Y-117900000D01*
X84459923Y-75080000D02*
X87000000Y-77620077D01*
X133500000Y-81000000D02*
X134950000Y-82450000D01*
X158500000Y-105000000D02*
X162000000Y-105000000D01*
X182925000Y-109095000D02*
X182925000Y-113645000D01*
X147000000Y-72650000D02*
X147000000Y-69000000D01*
X152000000Y-105000000D02*
X158500000Y-105000000D01*
X166700000Y-116500000D02*
X166700000Y-116900000D01*
X134950000Y-91550000D02*
X133500000Y-93000000D01*
X142000000Y-105000000D02*
X148500000Y-105000000D01*
X170075000Y-125675000D02*
X167700000Y-123300000D01*
X78500000Y-89530000D02*
X78525000Y-89555000D01*
X167700000Y-117900000D02*
X167700000Y-123300000D01*
X147000000Y-50460000D02*
X148750000Y-52210000D01*
X167700000Y-123300000D02*
X167700000Y-139330000D01*
X133500000Y-105000000D02*
X142000000Y-105000000D01*
X77555000Y-76555000D02*
X76750000Y-75750000D01*
X143000000Y-84270000D02*
X138800000Y-84270000D01*
X182925000Y-113645000D02*
X180500000Y-116070000D01*
X167700000Y-139330000D02*
X170045000Y-141675000D01*
X172000000Y-105000000D02*
X178500000Y-105000000D01*
X79555000Y-102555000D02*
X80250000Y-103250000D01*
X80000000Y-75080000D02*
X84459923Y-75080000D01*
X143000000Y-76650000D02*
X147000000Y-72650000D01*
X182000000Y-100750000D02*
X184700000Y-103450000D01*
X136350000Y-102150000D02*
X133500000Y-105000000D01*
X80000000Y-75080000D02*
X78525000Y-76555000D01*
X143050000Y-96080000D02*
X136580000Y-96080000D01*
X170080000Y-125675000D02*
X170075000Y-125675000D01*
X136350000Y-95850000D02*
X136350000Y-102150000D01*
X140100000Y-86300000D02*
X140100000Y-85570000D01*
X184700000Y-103450000D02*
X184700000Y-104720000D01*
X140100000Y-85570000D02*
X138800000Y-84270000D01*
X162000000Y-105000000D02*
X168500000Y-105000000D01*
X136770000Y-84270000D02*
X143000000Y-84270000D01*
X87000000Y-93000000D02*
X133500000Y-93000000D01*
X143050000Y-87450000D02*
X142600000Y-87000000D01*
X134950000Y-82450000D02*
X134950000Y-91550000D01*
X167800000Y-52230000D02*
X167800000Y-50800000D01*
X168500000Y-105000000D02*
X172000000Y-105000000D01*
X137850000Y-76650000D02*
X143000000Y-76650000D01*
X87000000Y-105000000D02*
X133500000Y-105000000D01*
X87000000Y-81000000D02*
X133500000Y-81000000D01*
X78525000Y-102555000D02*
X79555000Y-102555000D01*
X143050000Y-88460000D02*
X143050000Y-87450000D01*
X133500000Y-93000000D02*
X136580000Y-96080000D01*
X180500000Y-116070000D02*
X169530000Y-116070000D01*
X78500000Y-88500000D02*
X78500000Y-89530000D01*
X147000000Y-49000000D02*
X147000000Y-50460000D01*
X133500000Y-81000000D02*
X137850000Y-76650000D01*
X133500000Y-93000000D02*
X136350000Y-95850000D01*
X148500000Y-105000000D02*
X152000000Y-105000000D01*
X184700000Y-104720000D02*
X186000000Y-106020000D01*
X133500000Y-81000000D02*
X136770000Y-84270000D01*
X87000000Y-77620077D02*
X87000000Y-81000000D01*
X78525000Y-76555000D02*
X77555000Y-76555000D01*
X182000000Y-100750000D02*
X174250000Y-100750000D01*
X186000000Y-106020000D02*
X182925000Y-109095000D01*
X167800000Y-50800000D02*
X166000000Y-49000000D01*
D30*
%TO.N,Net-(U9-A0)*%
X166653603Y-56040000D02*
X164775000Y-54161397D01*
X164775000Y-47725000D02*
X166000000Y-46500000D01*
X167800000Y-56040000D02*
X166653603Y-56040000D01*
X164775000Y-54161397D02*
X164775000Y-47725000D01*
%TO.N,Net-(U9-A1)*%
X168563249Y-54770000D02*
X167800000Y-54770000D01*
X176833249Y-46500000D02*
X168563249Y-54770000D01*
X185000000Y-46500000D02*
X176833249Y-46500000D01*
%TO.N,Net-(U9-A2)*%
X167423249Y-53500000D02*
X166500000Y-54423249D01*
X166500000Y-54423249D02*
X166500000Y-55250001D01*
X169100000Y-56650000D02*
X169065000Y-56685000D01*
X169065000Y-56685000D02*
X166778249Y-56685000D01*
X169100000Y-55600000D02*
X169100000Y-56650000D01*
X166500000Y-55250001D02*
X166664999Y-55415000D01*
X164750000Y-58713249D02*
X164750000Y-65250000D01*
X168915000Y-55415000D02*
X169100000Y-55600000D01*
X164750000Y-65250000D02*
X166000000Y-66500000D01*
X167800000Y-53500000D02*
X167423249Y-53500000D01*
X166664999Y-55415000D02*
X168915000Y-55415000D01*
X166778249Y-56685000D02*
X164750000Y-58713249D01*
%TO.N,Net-(U9-A3)*%
X185000000Y-66500000D02*
X173000000Y-66500000D01*
X168176751Y-57310000D02*
X167800000Y-57310000D01*
X170000000Y-63500000D02*
X170000000Y-59133249D01*
X170000000Y-59133249D02*
X168176751Y-57310000D01*
X173000000Y-66500000D02*
X170000000Y-63500000D01*
%TO.N,Net-(U5-D0)*%
X77225000Y-96828249D02*
X77225000Y-98975000D01*
X121000000Y-97000000D02*
X121500000Y-97500000D01*
X78148249Y-95905000D02*
X77225000Y-96828249D01*
X78000000Y-99750000D02*
X78500000Y-99750000D01*
X77225000Y-98975000D02*
X78000000Y-99750000D01*
X121500000Y-97500000D02*
X123500000Y-97500000D01*
X118000000Y-98500000D02*
X122500000Y-98500000D01*
X117000000Y-97500000D02*
X118000000Y-98500000D01*
X110000000Y-99750000D02*
X114750000Y-99750000D01*
X122500000Y-98500000D02*
X123500000Y-97500000D01*
X78525000Y-95905000D02*
X78148249Y-95905000D01*
X114750000Y-99750000D02*
X117000000Y-97500000D01*
%TO.N,Net-(U1-QH')*%
X141750000Y-89383249D02*
X142048249Y-89085000D01*
X142000000Y-91000000D02*
X143050000Y-91000000D01*
X144350000Y-86890000D02*
X143000000Y-85540000D01*
X144071751Y-89085000D02*
X144350000Y-88806751D01*
X142048249Y-89085000D02*
X144071751Y-89085000D01*
X141750000Y-90750000D02*
X142000000Y-91000000D01*
X141750000Y-90750000D02*
X141750000Y-89383249D01*
X144350000Y-88806751D02*
X144350000Y-86890000D01*
%TO.N,Net-(J12-PadT)*%
X120000000Y-119000000D02*
X122350000Y-119000000D01*
%TO.N,Net-(J13-PadT)*%
X132000000Y-119000000D02*
X134350000Y-119000000D01*
%TO.N,Net-(U5-D1)*%
X78525000Y-94635000D02*
X78148249Y-94635000D01*
X78148249Y-94635000D02*
X76775000Y-96008249D01*
X110250000Y-100750000D02*
X123750000Y-100750000D01*
X131000000Y-97000000D02*
X131500000Y-97500000D01*
X76775000Y-99275000D02*
X78250000Y-100750000D01*
X131500000Y-97500000D02*
X133500000Y-97500000D01*
X76775000Y-96008249D02*
X76775000Y-99275000D01*
X132500000Y-98500000D02*
X133500000Y-97500000D01*
X128000000Y-98500000D02*
X132500000Y-98500000D01*
X127000000Y-97500000D02*
X128000000Y-98500000D01*
X78250000Y-100750000D02*
X79000000Y-100750000D01*
X123750000Y-100750000D02*
X127000000Y-97500000D01*
%TO.N,Net-(U5-D2)*%
X88000000Y-110500000D02*
X87000000Y-109500000D01*
X91000000Y-109000000D02*
X91500000Y-109500000D01*
X78525000Y-93365000D02*
X78148249Y-93365000D01*
X91500000Y-109500000D02*
X93500000Y-109500000D01*
X92500000Y-110500000D02*
X88000000Y-110500000D01*
X76325000Y-95188249D02*
X76325000Y-100075000D01*
X93500000Y-109500000D02*
X92500000Y-110500000D01*
X76325000Y-100075000D02*
X77750000Y-101500000D01*
X78148249Y-93365000D02*
X76325000Y-95188249D01*
%TO.N,Net-(U5-D3)*%
X81750000Y-104250000D02*
X81750000Y-103088299D01*
X101000000Y-109000000D02*
X101500000Y-109500000D01*
X78901751Y-92095000D02*
X78525000Y-92095000D01*
X102500000Y-110500000D02*
X98000000Y-110500000D01*
X101500000Y-109500000D02*
X103500000Y-109500000D01*
X80450000Y-101788299D02*
X80450000Y-100300000D01*
X81000000Y-94193249D02*
X78901751Y-92095000D01*
X81750000Y-103088299D02*
X80450000Y-101788299D01*
X80450000Y-100300000D02*
X81000000Y-99750000D01*
X98000000Y-110500000D02*
X97000000Y-109500000D01*
X81000000Y-99750000D02*
X81000000Y-94193249D01*
X103500000Y-109500000D02*
X102500000Y-110500000D01*
%TO.N,Net-(U5-D4)*%
X111000000Y-91500000D02*
X111250000Y-91750000D01*
X83475000Y-92095000D02*
X86031167Y-92095000D01*
X112500000Y-110500000D02*
X108000000Y-110500000D01*
X113500000Y-109500000D02*
X112500000Y-110500000D01*
X86031167Y-92095000D02*
X86626167Y-91500000D01*
X111000000Y-109000000D02*
X111500000Y-109500000D01*
X108000000Y-110500000D02*
X107000000Y-109500000D01*
X111500000Y-109500000D02*
X113500000Y-109500000D01*
X86626167Y-91500000D02*
X111000000Y-91500000D01*
%TO.N,Net-(U5-D5)*%
X123500000Y-109500000D02*
X122500000Y-110500000D01*
X121500000Y-109500000D02*
X123500000Y-109500000D01*
X121000000Y-109000000D02*
X121500000Y-109500000D01*
X83475000Y-93365000D02*
X85491167Y-93365000D01*
X86626167Y-94500000D02*
X115250000Y-94500000D01*
X118000000Y-110500000D02*
X117000000Y-109500000D01*
X85491167Y-93365000D02*
X86626167Y-94500000D01*
X122500000Y-110500000D02*
X118000000Y-110500000D01*
%TO.N,Net-(U5-D6)*%
X131975000Y-95225000D02*
X132000000Y-95250000D01*
X133500000Y-109500000D02*
X132500000Y-110500000D01*
X131500000Y-109500000D02*
X133500000Y-109500000D01*
X128000000Y-110500000D02*
X127000000Y-109500000D01*
X131000000Y-109000000D02*
X131500000Y-109500000D01*
X84065000Y-95225000D02*
X131975000Y-95225000D01*
X132500000Y-110500000D02*
X128000000Y-110500000D01*
X83475000Y-94635000D02*
X84065000Y-95225000D01*
%TO.N,Net-(U5-D7)*%
X146500000Y-109500000D02*
X148500000Y-109500000D01*
X147500000Y-110500000D02*
X143000000Y-110500000D01*
X83655000Y-95725000D02*
X131449695Y-95725000D01*
X146000000Y-109000000D02*
X146500000Y-109500000D01*
X83475000Y-95905000D02*
X83655000Y-95725000D01*
X131724695Y-96000000D02*
X133873833Y-96000000D01*
X131449695Y-95725000D02*
X131724695Y-96000000D01*
X148500000Y-109500000D02*
X147500000Y-110500000D01*
X133873833Y-96000000D02*
X135500000Y-97626167D01*
X135500000Y-97626167D02*
X135500000Y-98000000D01*
X143000000Y-110500000D02*
X142000000Y-109500000D01*
%TO.N,Net-(U10-D0)*%
X158500000Y-109500000D02*
X157500000Y-110500000D01*
X153000000Y-110500000D02*
X152000000Y-109500000D01*
X78683249Y-113250000D02*
X79500000Y-113250000D01*
X77225000Y-111791751D02*
X78683249Y-113250000D01*
X156000000Y-109000000D02*
X156500000Y-109500000D01*
X77225000Y-109828249D02*
X77225000Y-111791751D01*
X157500000Y-110500000D02*
X153000000Y-110500000D01*
X78525000Y-108905000D02*
X78148249Y-108905000D01*
X78148249Y-108905000D02*
X77225000Y-109828249D01*
X156500000Y-109500000D02*
X158500000Y-109500000D01*
%TO.N,/Shift register in 1/DATA_OUT*%
X80000000Y-86920000D02*
X78525000Y-85445000D01*
X80500000Y-87420000D02*
X80500000Y-92000000D01*
X80250000Y-96750000D02*
X78950000Y-96750000D01*
X78950000Y-96750000D02*
X78525000Y-97175000D01*
X80000000Y-86920000D02*
X80500000Y-87420000D01*
%TO.N,Net-(U10-D1)*%
X166000000Y-109000000D02*
X166500000Y-109500000D01*
X79000000Y-114250000D02*
X79500000Y-114250000D01*
X163000000Y-110500000D02*
X162000000Y-109500000D01*
X167500000Y-110500000D02*
X163000000Y-110500000D01*
X78148249Y-107635000D02*
X76775000Y-109008249D01*
X166500000Y-109500000D02*
X168500000Y-109500000D01*
X76775000Y-109008249D02*
X76775000Y-112025000D01*
X168500000Y-109500000D02*
X167500000Y-110500000D01*
X76775000Y-112025000D02*
X79000000Y-114250000D01*
X78525000Y-107635000D02*
X78148249Y-107635000D01*
%TO.N,Net-(U10-D2)*%
X177500000Y-110500000D02*
X173000000Y-110500000D01*
X79250000Y-115250000D02*
X79500000Y-115250000D01*
X175825000Y-109000000D02*
X176325000Y-109500000D01*
X178500000Y-109500000D02*
X177500000Y-110500000D01*
X78148249Y-106365000D02*
X76325000Y-108188249D01*
X173000000Y-110500000D02*
X172000000Y-109500000D01*
X176325000Y-109500000D02*
X178500000Y-109500000D01*
X76325000Y-108188249D02*
X76325000Y-112325000D01*
X76325000Y-112325000D02*
X79250000Y-115250000D01*
X78525000Y-106365000D02*
X78148249Y-106365000D01*
%TO.N,/Shift register in 2/DATA_OUT*%
X80975000Y-106581852D02*
X80000000Y-107556852D01*
X80975000Y-102949695D02*
X80975000Y-106581852D01*
X80000000Y-107556852D02*
X80000000Y-109076751D01*
X78901751Y-110175000D02*
X80000000Y-109076751D01*
X80000000Y-99920000D02*
X78525000Y-98445000D01*
X80000000Y-99920000D02*
X80000000Y-101974695D01*
X80000000Y-101974695D02*
X80975000Y-102949695D01*
X78525000Y-110175000D02*
X78901751Y-110175000D01*
%TO.N,Net-(J16-Pin_1)*%
X75875000Y-112511396D02*
X77500000Y-114136396D01*
X75875000Y-107368249D02*
X75875000Y-112511396D01*
X77500000Y-131420000D02*
X74000000Y-134920000D01*
X78148249Y-105095000D02*
X75875000Y-107368249D01*
X78525000Y-105095000D02*
X78148249Y-105095000D01*
X77500000Y-114136396D02*
X77500000Y-131420000D01*
%TO.N,Net-(J16-Pin_2)*%
X81471624Y-106721624D02*
X83098249Y-105095000D01*
X80450000Y-131010000D02*
X80450000Y-107743249D01*
X83098249Y-105095000D02*
X83475000Y-105095000D01*
X80450000Y-107743248D02*
X81471624Y-106721624D01*
X80450000Y-107743249D02*
X81471624Y-106721624D01*
X74000000Y-137460000D02*
X80450000Y-131010000D01*
%TO.N,Net-(J16-Pin_3)*%
X81000000Y-108463249D02*
X81000000Y-133000000D01*
X83098249Y-106365000D02*
X81000000Y-108463249D01*
X83475000Y-106365000D02*
X83098249Y-106365000D01*
X81000000Y-133000000D02*
X74000000Y-140000000D01*
%TO.N,Net-(J16-Pin_4)*%
X81675000Y-109058249D02*
X83098249Y-107635000D01*
X81675000Y-134865000D02*
X81675000Y-109058249D01*
X74000000Y-142540000D02*
X81675000Y-134865000D01*
X83098249Y-107635000D02*
X83475000Y-107635000D01*
%TO.N,Net-(J16-Pin_5)*%
X83098249Y-108905000D02*
X82125000Y-109878249D01*
X83475000Y-108905000D02*
X83098249Y-108905000D01*
X82125000Y-136955000D02*
X74000000Y-145080000D01*
X82125000Y-109878249D02*
X82125000Y-136955000D01*
X83475000Y-108905000D02*
X82845000Y-108905000D01*
%TD*%
M02*
