M48
; DRILL file {KiCad 7.0.2} date Wed Feb 19 16:25:23 2025
; FORMAT={-:-/ absolute / inch / decimal}
; #@! TF.CreationDate,2025-02-19T16:25:23+00:00
; #@! TF.GenerationSoftware,Kicad,Pcbnew,7.0.2
; #@! TF.FileFunction,Plated,1,2,PTH
FMAT,2
INCH
; #@! TA.AperFunction,Plated,PTH,ViaDrill
T1C0.0157
; #@! TA.AperFunction,Plated,PTH,ComponentDrill
T2C0.0236
; #@! TA.AperFunction,Plated,PTH,ComponentDrill
T3C0.0276
; #@! TA.AperFunction,Plated,PTH,ComponentDrill
T4C0.0354
; #@! TA.AperFunction,Plated,PTH,ComponentDrill
T5C0.0394
; #@! TA.AperFunction,Plated,PTH,ComponentDrill
T6C0.0433
; #@! TA.AperFunction,Plated,PTH,ComponentDrill
T7C0.0591
%
G90
G05
T1
X2.9528Y-4.7736
X3.0118Y-3.2283
X3.0206Y-3.0797
X3.0217Y-2.9823
X3.061Y-3.9961
X3.0906Y-3.4843
X3.0906Y-3.9272
X3.1102Y-3.9665
X3.1299Y-4.4587
X3.1299Y-4.498
X3.1299Y-4.5374
X3.1388Y-4.3701
X3.1496Y-3.189
X3.1496Y-3.2283
X3.1496Y-3.2677
X3.152Y-3.1488
X3.152Y-4.1724
X3.1594Y-3.8091
X3.1594Y-4.065
X3.1693Y-3.622
X3.177Y-3.1183
X3.2185Y-4.1043
X3.2283Y-3.189
X3.2874Y-3.4843
X3.2874Y-4.4685
X3.3366Y-3.4843
X3.3431Y-3.8986
X3.3716Y-3.5925
X3.3804Y-3.8849
X3.3957Y-4.8524
X3.4744Y-2.3524
X3.4941Y-3.3071
X3.5035Y-2.3233
X3.5039Y-2.2835
X3.5335Y-2.3868
X3.7402Y-3.4941
X3.75Y-3.3465
X4.3307Y-3.9272
X4.3406Y-3.9665
X4.3799Y-3.6122
X4.4291Y-2.4213
X4.5374Y-3.7205
X4.6683Y-3.8494
X4.9311Y-3.4449
X5.1378Y-4.1929
X5.1969Y-3.75
X5.3346Y-3.8583
X5.5157Y-3.3976
X5.5472Y-3.189
X5.6142Y-3.4252
X5.689Y-2.2047
X5.6969Y-3.685
X5.6969Y-3.7323
X5.7008Y-3.5827
X5.7283Y-2.0728
X5.7362Y-3.5354
X5.8268Y-4.6654
X5.8465Y-2.3622
X5.8465Y-2.4213
X5.8465Y-2.4606
X5.8898Y-3.4331
X5.8937Y-3.4843
X5.8947Y-3.5315
X5.9055Y-2.4016
X5.9567Y-3.9606
X6.0433Y-2.1063
X6.0433Y-2.1654
X6.0433Y-2.3819
X6.0433Y-3.8897
X6.0827Y-3.9183
X6.126Y-3.5866
X6.1422Y-2.2239
X6.1614Y-2.5591
X6.2205Y-2.5591
X6.3189Y-2.5591
X6.437Y-2.1654
X6.563Y-4.5866
X6.689Y-5.1811
X6.7008Y-5.6417
X6.7717Y-2.2047
X6.7717Y-4.8819
X6.7795Y-5.1496
X6.7913Y-2.3819
X6.7961Y-4.6505
X6.8307Y-4.685
X6.8543Y-5.0945
X6.8602Y-3.9665
X6.9016Y-5.5709
X6.9094Y-4.2421
X6.9094Y-4.6063
X6.9094Y-5.3504
X6.9409Y-4.7205
X7.0197Y-5.1417
X7.0433Y-5.0984
X7.0787Y-5.5039
X7.0906Y-5.2598
X7.313Y-4.813
X7.3622Y-4.5866
X7.4016Y-2.3917
T3
X7.0591Y-3.3071
X7.0591Y-3.3937
X7.0591Y-3.4803
X7.0591Y-3.5669
X7.1024Y-3.3504
X7.1024Y-3.437
X7.1024Y-3.5236
X7.1024Y-3.6102
T4
X6.1811Y-4.8425
X6.1811Y-5.061
X6.1811Y-5.2795
X6.1811Y-5.498
X6.2811Y-4.8425
X6.2811Y-5.061
X6.2811Y-5.2795
X6.2811Y-5.498
X7.2272Y-3.2894
X7.2272Y-3.628
T5
X2.9134Y-2.7756
X2.9134Y-2.8756
X2.9134Y-2.9756
X2.9134Y-3.0756
X2.9134Y-3.1756
X2.9134Y-3.2756
X2.9134Y-3.3756
X2.9134Y-3.4756
X2.9134Y-3.5756
X2.9134Y-3.6756
X2.9134Y-3.7756
X2.9134Y-3.8756
X2.9134Y-3.9756
X2.9134Y-4.0756
X2.9134Y-4.1756
X2.9134Y-4.2756
X2.9134Y-5.4134
X2.9134Y-5.5134
X2.9134Y-5.6134
X2.9134Y-5.7134
X3.1496Y-2.126
X3.1496Y-2.9134
X3.248Y-2.126
X3.248Y-2.9134
X3.3465Y-2.126
X3.3465Y-2.9134
X3.8976Y-2.126
X3.8976Y-2.9134
X3.9961Y-2.126
X3.9961Y-2.9134
X4.0945Y-2.126
X4.0945Y-2.9134
X4.6457Y-2.126
X4.6457Y-2.9134
X4.7441Y-2.126
X4.7441Y-2.9134
X4.8425Y-2.126
X4.8425Y-2.9134
X5.3937Y-2.126
X5.3937Y-2.9134
X5.4921Y-2.126
X5.4921Y-2.9134
X5.5906Y-2.126
X5.5906Y-2.9134
X6.063Y-3.2614
X6.063Y-3.6614
X6.1417Y-2.126
X6.1417Y-2.9134
X6.163Y-3.2614
X6.163Y-3.6614
X6.2402Y-2.126
X6.2402Y-2.9134
X6.263Y-3.2614
X6.263Y-3.6614
X6.3386Y-2.126
X6.3386Y-2.9134
X6.363Y-3.2614
X6.363Y-3.6614
X6.463Y-3.2614
X6.463Y-3.6614
X6.563Y-3.2614
X6.563Y-3.6614
X6.8898Y-2.126
X6.8898Y-2.9134
X6.9882Y-2.126
X6.9882Y-2.9134
X7.0866Y-2.126
X7.0866Y-2.9134
X7.3228Y-3.0709
X7.3228Y-3.1709
X7.3228Y-3.2709
X7.3228Y-3.3709
X7.3228Y-3.4709
X7.3228Y-3.5709
X7.3228Y-3.6709
X7.3228Y-3.7709
X7.3228Y-3.8709
X7.3228Y-3.9709
X7.3228Y-4.0709
X7.3228Y-4.1709
T6
X3.4252Y-3.189
X3.4252Y-3.3661
X3.4252Y-3.6614
X3.4252Y-3.8386
X3.4252Y-4.1339
X3.4252Y-4.311
X3.6811Y-3.189
X3.6811Y-3.3661
X3.6811Y-3.6614
X3.6811Y-3.8386
X3.6811Y-4.1339
X3.6811Y-4.311
X3.8189Y-3.189
X3.8189Y-3.3661
X3.8189Y-3.6614
X3.8189Y-3.8386
X3.8189Y-4.1339
X3.8189Y-4.311
X4.0748Y-3.189
X4.0748Y-3.3661
X4.0748Y-3.6614
X4.0748Y-3.8386
X4.0748Y-4.1339
X4.0748Y-4.311
X4.2126Y-3.189
X4.2126Y-3.3661
X4.2126Y-3.6614
X4.2126Y-3.8386
X4.2126Y-4.1339
X4.2126Y-4.311
X4.4685Y-3.189
X4.4685Y-3.3661
X4.4685Y-3.6614
X4.4685Y-3.8386
X4.4685Y-4.1339
X4.4685Y-4.311
X4.6063Y-3.189
X4.6063Y-3.3661
X4.6063Y-3.6614
X4.6063Y-3.8386
X4.6063Y-4.1339
X4.6063Y-4.311
X4.8622Y-3.189
X4.8622Y-3.3661
X4.8622Y-3.6614
X4.8622Y-3.8386
X4.8622Y-4.1339
X4.8622Y-4.311
X5.0Y-3.189
X5.0Y-3.3661
X5.0Y-3.6614
X5.0Y-3.8386
X5.0Y-4.1339
X5.0Y-4.311
X5.2559Y-3.189
X5.2559Y-3.3661
X5.2559Y-3.6614
X5.2559Y-3.8386
X5.2559Y-4.1339
X5.2559Y-4.311
X5.5906Y-4.1339
X5.5906Y-4.311
X5.8465Y-4.1339
X5.8465Y-4.311
X5.9843Y-4.1339
X5.9843Y-4.311
X6.2402Y-4.1339
X6.2402Y-4.311
X6.378Y-4.1339
X6.378Y-4.311
X6.6339Y-4.1339
X6.6339Y-4.311
X6.7717Y-4.1339
X6.7717Y-4.311
X7.0276Y-4.1339
X7.0276Y-4.311
T2
G00X3.2874Y-4.685
M15
G01X3.3268Y-4.685
M16
G05
G00X3.2874Y-5.0118
M15
G01X3.3268Y-5.0118
M16
G05
G00X3.2874Y-5.1339
M15
G01X3.3268Y-5.1339
M16
G05
G00X3.2874Y-5.315
M15
G01X3.3268Y-5.315
M16
G05
G00X3.2874Y-5.6417
M15
G01X3.3268Y-5.6417
M16
G05
G00X3.2874Y-5.7638
M15
G01X3.3268Y-5.7638
M16
G05
G00X3.7598Y-4.685
M15
G01X3.7992Y-4.685
M16
G05
G00X3.7598Y-5.0118
M15
G01X3.7992Y-5.0118
M16
G05
G00X3.7598Y-5.1339
M15
G01X3.7992Y-5.1339
M16
G05
G00X3.7598Y-5.315
M15
G01X3.7992Y-5.315
M16
G05
G00X3.7598Y-5.6417
M15
G01X3.7992Y-5.6417
M16
G05
G00X3.7598Y-5.7638
M15
G01X3.7992Y-5.7638
M16
G05
G00X4.2323Y-4.685
M15
G01X4.2717Y-4.685
M16
G05
G00X4.2323Y-5.0118
M15
G01X4.2717Y-5.0118
M16
G05
G00X4.2323Y-5.1339
M15
G01X4.2717Y-5.1339
M16
G05
G00X4.2323Y-5.315
M15
G01X4.2717Y-5.315
M16
G05
G00X4.2323Y-5.6417
M15
G01X4.2717Y-5.6417
M16
G05
G00X4.2323Y-5.7638
M15
G01X4.2717Y-5.7638
M16
G05
G00X4.7047Y-4.685
M15
G01X4.7441Y-4.685
M16
G05
G00X4.7047Y-5.0118
M15
G01X4.7441Y-5.0118
M16
G05
G00X4.7047Y-5.1339
M15
G01X4.7441Y-5.1339
M16
G05
G00X4.7047Y-5.315
M15
G01X4.7441Y-5.315
M16
G05
G00X4.7047Y-5.6417
M15
G01X4.7441Y-5.6417
M16
G05
G00X4.7047Y-5.7638
M15
G01X4.7441Y-5.7638
M16
G05
G00X5.1772Y-4.685
M15
G01X5.2165Y-4.685
M16
G05
G00X5.1772Y-5.0118
M15
G01X5.2165Y-5.0118
M16
G05
G00X5.1772Y-5.1339
M15
G01X5.2165Y-5.1339
M16
G05
G00X5.1772Y-5.315
M15
G01X5.2165Y-5.315
M16
G05
G00X5.1772Y-5.6417
M15
G01X5.2165Y-5.6417
M16
G05
G00X5.1772Y-5.7638
M15
G01X5.2165Y-5.7638
M16
G05
G00X5.6496Y-4.685
M15
G01X5.689Y-4.685
M16
G05
G00X5.6496Y-5.0118
M15
G01X5.689Y-5.0118
M16
G05
G00X5.6496Y-5.1339
M15
G01X5.689Y-5.1339
M16
G05
G00X5.6496Y-5.315
M15
G01X5.689Y-5.315
M16
G05
G00X5.6496Y-5.6417
M15
G01X5.689Y-5.6417
M16
G05
G00X5.6496Y-5.7638
M15
G01X5.689Y-5.7638
M16
G05
T7
G00X3.0591Y-1.8504
M15
G01X3.0591Y-1.811
M16
G05
G00X3.0591Y-2.6378
M15
G01X3.0591Y-2.5984
M16
G05
G00X3.437Y-1.8504
M15
G01X3.437Y-1.811
M16
G05
G00X3.437Y-2.6378
M15
G01X3.437Y-2.5984
M16
G05
G00X3.8071Y-1.8504
M15
G01X3.8071Y-1.811
M16
G05
G00X3.8071Y-2.6378
M15
G01X3.8071Y-2.5984
M16
G05
G00X4.185Y-1.8504
M15
G01X4.185Y-1.811
M16
G05
G00X4.185Y-2.6378
M15
G01X4.185Y-2.5984
M16
G05
G00X4.5551Y-1.8504
M15
G01X4.5551Y-1.811
M16
G05
G00X4.5551Y-2.6378
M15
G01X4.5551Y-2.5984
M16
G05
G00X4.9331Y-1.8504
M15
G01X4.9331Y-1.811
M16
G05
G00X4.9331Y-2.6378
M15
G01X4.9331Y-2.5984
M16
G05
G00X5.3031Y-1.8504
M15
G01X5.3031Y-1.811
M16
G05
G00X5.3031Y-2.6378
M15
G01X5.3031Y-2.5984
M16
G05
G00X5.6811Y-1.8504
M15
G01X5.6811Y-1.811
M16
G05
G00X5.6811Y-2.6378
M15
G01X5.6811Y-2.5984
M16
G05
G00X6.0512Y-1.8504
M15
G01X6.0512Y-1.811
M16
G05
G00X6.0512Y-2.6378
M15
G01X6.0512Y-2.5984
M16
G05
G00X6.4291Y-1.8504
M15
G01X6.4291Y-1.811
M16
G05
G00X6.4291Y-2.6378
M15
G01X6.4291Y-2.5984
M16
G05
G00X6.7992Y-1.8504
M15
G01X6.7992Y-1.811
M16
G05
G00X6.7992Y-2.6378
M15
G01X6.7992Y-2.5984
M16
G05
G00X7.1772Y-1.8504
M15
G01X7.1772Y-1.811
M16
G05
G00X7.1772Y-2.6378
M15
G01X7.1772Y-2.5984
M16
G05
T0
M30
