%TF.GenerationSoftware,KiCad,Pcbnew,7.0.2*%
%TF.CreationDate,2023-08-30T17:10:08+01:00*%
%TF.ProjectId,dk2_02_top,646b325f-3032-45f7-946f-702e6b696361,rev?*%
%TF.SameCoordinates,Original*%
%TF.FileFunction,Legend,Bot*%
%TF.FilePolarity,Positive*%
%FSLAX46Y46*%
G04 Gerber Fmt 4.6, Leading zero omitted, Abs format (unit mm)*
G04 Created by KiCad (PCBNEW 7.0.2) date 2023-08-30 17:10:08*
%MOMM*%
%LPD*%
G01*
G04 APERTURE LIST*
G04 Aperture macros list*
%AMRoundRect*
0 Rectangle with rounded corners*
0 $1 Rounding radius*
0 $2 $3 $4 $5 $6 $7 $8 $9 X,Y pos of 4 corners*
0 Add a 4 corners polygon primitive as box body*
4,1,4,$2,$3,$4,$5,$6,$7,$8,$9,$2,$3,0*
0 Add four circle primitives for the rounded corners*
1,1,$1+$1,$2,$3*
1,1,$1+$1,$4,$5*
1,1,$1+$1,$6,$7*
1,1,$1+$1,$8,$9*
0 Add four rect primitives between the rounded corners*
20,1,$1+$1,$2,$3,$4,$5,0*
20,1,$1+$1,$4,$5,$6,$7,0*
20,1,$1+$1,$6,$7,$8,$9,0*
20,1,$1+$1,$8,$9,$2,$3,0*%
G04 Aperture macros list end*
%ADD10C,0.150000*%
%ADD11C,0.120000*%
%ADD12C,2.000000*%
%ADD13O,2.720000X3.240000*%
%ADD14R,1.800000X1.800000*%
%ADD15C,1.800000*%
%ADD16O,3.100000X2.300000*%
%ADD17RoundRect,0.650000X-0.650000X-0.650000X0.650000X-0.650000X0.650000X0.650000X-0.650000X0.650000X0*%
%ADD18C,3.200000*%
%ADD19R,1.500000X1.500000*%
%ADD20C,1.500000*%
%ADD21C,1.050000*%
%ADD22R,1.350000X1.350000*%
%ADD23O,3.048000X1.850000*%
%ADD24RoundRect,0.200000X0.200000X0.275000X-0.200000X0.275000X-0.200000X-0.275000X0.200000X-0.275000X0*%
%ADD25RoundRect,0.200000X-0.275000X0.200000X-0.275000X-0.200000X0.275000X-0.200000X0.275000X0.200000X0*%
%ADD26R,1.700000X1.700000*%
%ADD27O,1.700000X1.700000*%
%ADD28RoundRect,0.200000X0.275000X-0.200000X0.275000X0.200000X-0.275000X0.200000X-0.275000X-0.200000X0*%
%ADD29RoundRect,0.150000X0.825000X0.150000X-0.825000X0.150000X-0.825000X-0.150000X0.825000X-0.150000X0*%
%ADD30RoundRect,0.200000X-0.200000X-0.275000X0.200000X-0.275000X0.200000X0.275000X-0.200000X0.275000X0*%
%ADD31RoundRect,0.225000X0.225000X0.250000X-0.225000X0.250000X-0.225000X-0.250000X0.225000X-0.250000X0*%
%ADD32RoundRect,0.150000X-0.150000X0.825000X-0.150000X-0.825000X0.150000X-0.825000X0.150000X0.825000X0*%
G04 APERTURE END LIST*
D10*
%TO.C,R27*%
X163167857Y-106532619D02*
X163501190Y-106056428D01*
X163739285Y-106532619D02*
X163739285Y-105532619D01*
X163739285Y-105532619D02*
X163358333Y-105532619D01*
X163358333Y-105532619D02*
X163263095Y-105580238D01*
X163263095Y-105580238D02*
X163215476Y-105627857D01*
X163215476Y-105627857D02*
X163167857Y-105723095D01*
X163167857Y-105723095D02*
X163167857Y-105865952D01*
X163167857Y-105865952D02*
X163215476Y-105961190D01*
X163215476Y-105961190D02*
X163263095Y-106008809D01*
X163263095Y-106008809D02*
X163358333Y-106056428D01*
X163358333Y-106056428D02*
X163739285Y-106056428D01*
X162786904Y-105627857D02*
X162739285Y-105580238D01*
X162739285Y-105580238D02*
X162644047Y-105532619D01*
X162644047Y-105532619D02*
X162405952Y-105532619D01*
X162405952Y-105532619D02*
X162310714Y-105580238D01*
X162310714Y-105580238D02*
X162263095Y-105627857D01*
X162263095Y-105627857D02*
X162215476Y-105723095D01*
X162215476Y-105723095D02*
X162215476Y-105818333D01*
X162215476Y-105818333D02*
X162263095Y-105961190D01*
X162263095Y-105961190D02*
X162834523Y-106532619D01*
X162834523Y-106532619D02*
X162215476Y-106532619D01*
X161882142Y-105532619D02*
X161215476Y-105532619D01*
X161215476Y-105532619D02*
X161644047Y-106532619D01*
%TO.C,R29*%
X176917857Y-137432619D02*
X177251190Y-136956428D01*
X177489285Y-137432619D02*
X177489285Y-136432619D01*
X177489285Y-136432619D02*
X177108333Y-136432619D01*
X177108333Y-136432619D02*
X177013095Y-136480238D01*
X177013095Y-136480238D02*
X176965476Y-136527857D01*
X176965476Y-136527857D02*
X176917857Y-136623095D01*
X176917857Y-136623095D02*
X176917857Y-136765952D01*
X176917857Y-136765952D02*
X176965476Y-136861190D01*
X176965476Y-136861190D02*
X177013095Y-136908809D01*
X177013095Y-136908809D02*
X177108333Y-136956428D01*
X177108333Y-136956428D02*
X177489285Y-136956428D01*
X176536904Y-136527857D02*
X176489285Y-136480238D01*
X176489285Y-136480238D02*
X176394047Y-136432619D01*
X176394047Y-136432619D02*
X176155952Y-136432619D01*
X176155952Y-136432619D02*
X176060714Y-136480238D01*
X176060714Y-136480238D02*
X176013095Y-136527857D01*
X176013095Y-136527857D02*
X175965476Y-136623095D01*
X175965476Y-136623095D02*
X175965476Y-136718333D01*
X175965476Y-136718333D02*
X176013095Y-136861190D01*
X176013095Y-136861190D02*
X176584523Y-137432619D01*
X176584523Y-137432619D02*
X175965476Y-137432619D01*
X175489285Y-137432619D02*
X175298809Y-137432619D01*
X175298809Y-137432619D02*
X175203571Y-137385000D01*
X175203571Y-137385000D02*
X175155952Y-137337380D01*
X175155952Y-137337380D02*
X175060714Y-137194523D01*
X175060714Y-137194523D02*
X175013095Y-137004047D01*
X175013095Y-137004047D02*
X175013095Y-136623095D01*
X175013095Y-136623095D02*
X175060714Y-136527857D01*
X175060714Y-136527857D02*
X175108333Y-136480238D01*
X175108333Y-136480238D02*
X175203571Y-136432619D01*
X175203571Y-136432619D02*
X175394047Y-136432619D01*
X175394047Y-136432619D02*
X175489285Y-136480238D01*
X175489285Y-136480238D02*
X175536904Y-136527857D01*
X175536904Y-136527857D02*
X175584523Y-136623095D01*
X175584523Y-136623095D02*
X175584523Y-136861190D01*
X175584523Y-136861190D02*
X175536904Y-136956428D01*
X175536904Y-136956428D02*
X175489285Y-137004047D01*
X175489285Y-137004047D02*
X175394047Y-137051666D01*
X175394047Y-137051666D02*
X175203571Y-137051666D01*
X175203571Y-137051666D02*
X175108333Y-137004047D01*
X175108333Y-137004047D02*
X175060714Y-136956428D01*
X175060714Y-136956428D02*
X175013095Y-136861190D01*
%TO.C,R1*%
X161032619Y-122833333D02*
X160556428Y-122500000D01*
X161032619Y-122261905D02*
X160032619Y-122261905D01*
X160032619Y-122261905D02*
X160032619Y-122642857D01*
X160032619Y-122642857D02*
X160080238Y-122738095D01*
X160080238Y-122738095D02*
X160127857Y-122785714D01*
X160127857Y-122785714D02*
X160223095Y-122833333D01*
X160223095Y-122833333D02*
X160365952Y-122833333D01*
X160365952Y-122833333D02*
X160461190Y-122785714D01*
X160461190Y-122785714D02*
X160508809Y-122738095D01*
X160508809Y-122738095D02*
X160556428Y-122642857D01*
X160556428Y-122642857D02*
X160556428Y-122261905D01*
X161032619Y-123785714D02*
X161032619Y-123214286D01*
X161032619Y-123500000D02*
X160032619Y-123500000D01*
X160032619Y-123500000D02*
X160175476Y-123404762D01*
X160175476Y-123404762D02*
X160270714Y-123309524D01*
X160270714Y-123309524D02*
X160318333Y-123214286D01*
%TO.C,R17*%
X100817857Y-96032619D02*
X101151190Y-95556428D01*
X101389285Y-96032619D02*
X101389285Y-95032619D01*
X101389285Y-95032619D02*
X101008333Y-95032619D01*
X101008333Y-95032619D02*
X100913095Y-95080238D01*
X100913095Y-95080238D02*
X100865476Y-95127857D01*
X100865476Y-95127857D02*
X100817857Y-95223095D01*
X100817857Y-95223095D02*
X100817857Y-95365952D01*
X100817857Y-95365952D02*
X100865476Y-95461190D01*
X100865476Y-95461190D02*
X100913095Y-95508809D01*
X100913095Y-95508809D02*
X101008333Y-95556428D01*
X101008333Y-95556428D02*
X101389285Y-95556428D01*
X99865476Y-96032619D02*
X100436904Y-96032619D01*
X100151190Y-96032619D02*
X100151190Y-95032619D01*
X100151190Y-95032619D02*
X100246428Y-95175476D01*
X100246428Y-95175476D02*
X100341666Y-95270714D01*
X100341666Y-95270714D02*
X100436904Y-95318333D01*
X99532142Y-95032619D02*
X98865476Y-95032619D01*
X98865476Y-95032619D02*
X99294047Y-96032619D01*
%TO.C,R18*%
X110817857Y-96032619D02*
X111151190Y-95556428D01*
X111389285Y-96032619D02*
X111389285Y-95032619D01*
X111389285Y-95032619D02*
X111008333Y-95032619D01*
X111008333Y-95032619D02*
X110913095Y-95080238D01*
X110913095Y-95080238D02*
X110865476Y-95127857D01*
X110865476Y-95127857D02*
X110817857Y-95223095D01*
X110817857Y-95223095D02*
X110817857Y-95365952D01*
X110817857Y-95365952D02*
X110865476Y-95461190D01*
X110865476Y-95461190D02*
X110913095Y-95508809D01*
X110913095Y-95508809D02*
X111008333Y-95556428D01*
X111008333Y-95556428D02*
X111389285Y-95556428D01*
X109865476Y-96032619D02*
X110436904Y-96032619D01*
X110151190Y-96032619D02*
X110151190Y-95032619D01*
X110151190Y-95032619D02*
X110246428Y-95175476D01*
X110246428Y-95175476D02*
X110341666Y-95270714D01*
X110341666Y-95270714D02*
X110436904Y-95318333D01*
X109294047Y-95461190D02*
X109389285Y-95413571D01*
X109389285Y-95413571D02*
X109436904Y-95365952D01*
X109436904Y-95365952D02*
X109484523Y-95270714D01*
X109484523Y-95270714D02*
X109484523Y-95223095D01*
X109484523Y-95223095D02*
X109436904Y-95127857D01*
X109436904Y-95127857D02*
X109389285Y-95080238D01*
X109389285Y-95080238D02*
X109294047Y-95032619D01*
X109294047Y-95032619D02*
X109103571Y-95032619D01*
X109103571Y-95032619D02*
X109008333Y-95080238D01*
X109008333Y-95080238D02*
X108960714Y-95127857D01*
X108960714Y-95127857D02*
X108913095Y-95223095D01*
X108913095Y-95223095D02*
X108913095Y-95270714D01*
X108913095Y-95270714D02*
X108960714Y-95365952D01*
X108960714Y-95365952D02*
X109008333Y-95413571D01*
X109008333Y-95413571D02*
X109103571Y-95461190D01*
X109103571Y-95461190D02*
X109294047Y-95461190D01*
X109294047Y-95461190D02*
X109389285Y-95508809D01*
X109389285Y-95508809D02*
X109436904Y-95556428D01*
X109436904Y-95556428D02*
X109484523Y-95651666D01*
X109484523Y-95651666D02*
X109484523Y-95842142D01*
X109484523Y-95842142D02*
X109436904Y-95937380D01*
X109436904Y-95937380D02*
X109389285Y-95985000D01*
X109389285Y-95985000D02*
X109294047Y-96032619D01*
X109294047Y-96032619D02*
X109103571Y-96032619D01*
X109103571Y-96032619D02*
X109008333Y-95985000D01*
X109008333Y-95985000D02*
X108960714Y-95937380D01*
X108960714Y-95937380D02*
X108913095Y-95842142D01*
X108913095Y-95842142D02*
X108913095Y-95651666D01*
X108913095Y-95651666D02*
X108960714Y-95556428D01*
X108960714Y-95556428D02*
X109008333Y-95508809D01*
X109008333Y-95508809D02*
X109103571Y-95461190D01*
%TO.C,J1*%
X74333333Y-74952619D02*
X74333333Y-75666904D01*
X74333333Y-75666904D02*
X74380952Y-75809761D01*
X74380952Y-75809761D02*
X74476190Y-75905000D01*
X74476190Y-75905000D02*
X74619047Y-75952619D01*
X74619047Y-75952619D02*
X74714285Y-75952619D01*
X73333333Y-75952619D02*
X73904761Y-75952619D01*
X73619047Y-75952619D02*
X73619047Y-74952619D01*
X73619047Y-74952619D02*
X73714285Y-75095476D01*
X73714285Y-75095476D02*
X73809523Y-75190714D01*
X73809523Y-75190714D02*
X73904761Y-75238333D01*
%TO.C,R8*%
X155242619Y-95908333D02*
X154766428Y-95575000D01*
X155242619Y-95336905D02*
X154242619Y-95336905D01*
X154242619Y-95336905D02*
X154242619Y-95717857D01*
X154242619Y-95717857D02*
X154290238Y-95813095D01*
X154290238Y-95813095D02*
X154337857Y-95860714D01*
X154337857Y-95860714D02*
X154433095Y-95908333D01*
X154433095Y-95908333D02*
X154575952Y-95908333D01*
X154575952Y-95908333D02*
X154671190Y-95860714D01*
X154671190Y-95860714D02*
X154718809Y-95813095D01*
X154718809Y-95813095D02*
X154766428Y-95717857D01*
X154766428Y-95717857D02*
X154766428Y-95336905D01*
X154671190Y-96479762D02*
X154623571Y-96384524D01*
X154623571Y-96384524D02*
X154575952Y-96336905D01*
X154575952Y-96336905D02*
X154480714Y-96289286D01*
X154480714Y-96289286D02*
X154433095Y-96289286D01*
X154433095Y-96289286D02*
X154337857Y-96336905D01*
X154337857Y-96336905D02*
X154290238Y-96384524D01*
X154290238Y-96384524D02*
X154242619Y-96479762D01*
X154242619Y-96479762D02*
X154242619Y-96670238D01*
X154242619Y-96670238D02*
X154290238Y-96765476D01*
X154290238Y-96765476D02*
X154337857Y-96813095D01*
X154337857Y-96813095D02*
X154433095Y-96860714D01*
X154433095Y-96860714D02*
X154480714Y-96860714D01*
X154480714Y-96860714D02*
X154575952Y-96813095D01*
X154575952Y-96813095D02*
X154623571Y-96765476D01*
X154623571Y-96765476D02*
X154671190Y-96670238D01*
X154671190Y-96670238D02*
X154671190Y-96479762D01*
X154671190Y-96479762D02*
X154718809Y-96384524D01*
X154718809Y-96384524D02*
X154766428Y-96336905D01*
X154766428Y-96336905D02*
X154861666Y-96289286D01*
X154861666Y-96289286D02*
X155052142Y-96289286D01*
X155052142Y-96289286D02*
X155147380Y-96336905D01*
X155147380Y-96336905D02*
X155195000Y-96384524D01*
X155195000Y-96384524D02*
X155242619Y-96479762D01*
X155242619Y-96479762D02*
X155242619Y-96670238D01*
X155242619Y-96670238D02*
X155195000Y-96765476D01*
X155195000Y-96765476D02*
X155147380Y-96813095D01*
X155147380Y-96813095D02*
X155052142Y-96860714D01*
X155052142Y-96860714D02*
X154861666Y-96860714D01*
X154861666Y-96860714D02*
X154766428Y-96813095D01*
X154766428Y-96813095D02*
X154718809Y-96765476D01*
X154718809Y-96765476D02*
X154671190Y-96670238D01*
%TO.C,R13*%
X100817857Y-84032619D02*
X101151190Y-83556428D01*
X101389285Y-84032619D02*
X101389285Y-83032619D01*
X101389285Y-83032619D02*
X101008333Y-83032619D01*
X101008333Y-83032619D02*
X100913095Y-83080238D01*
X100913095Y-83080238D02*
X100865476Y-83127857D01*
X100865476Y-83127857D02*
X100817857Y-83223095D01*
X100817857Y-83223095D02*
X100817857Y-83365952D01*
X100817857Y-83365952D02*
X100865476Y-83461190D01*
X100865476Y-83461190D02*
X100913095Y-83508809D01*
X100913095Y-83508809D02*
X101008333Y-83556428D01*
X101008333Y-83556428D02*
X101389285Y-83556428D01*
X99865476Y-84032619D02*
X100436904Y-84032619D01*
X100151190Y-84032619D02*
X100151190Y-83032619D01*
X100151190Y-83032619D02*
X100246428Y-83175476D01*
X100246428Y-83175476D02*
X100341666Y-83270714D01*
X100341666Y-83270714D02*
X100436904Y-83318333D01*
X99532142Y-83032619D02*
X98913095Y-83032619D01*
X98913095Y-83032619D02*
X99246428Y-83413571D01*
X99246428Y-83413571D02*
X99103571Y-83413571D01*
X99103571Y-83413571D02*
X99008333Y-83461190D01*
X99008333Y-83461190D02*
X98960714Y-83508809D01*
X98960714Y-83508809D02*
X98913095Y-83604047D01*
X98913095Y-83604047D02*
X98913095Y-83842142D01*
X98913095Y-83842142D02*
X98960714Y-83937380D01*
X98960714Y-83937380D02*
X99008333Y-83985000D01*
X99008333Y-83985000D02*
X99103571Y-84032619D01*
X99103571Y-84032619D02*
X99389285Y-84032619D01*
X99389285Y-84032619D02*
X99484523Y-83985000D01*
X99484523Y-83985000D02*
X99532142Y-83937380D01*
%TO.C,R35*%
X177017857Y-121232619D02*
X177351190Y-120756428D01*
X177589285Y-121232619D02*
X177589285Y-120232619D01*
X177589285Y-120232619D02*
X177208333Y-120232619D01*
X177208333Y-120232619D02*
X177113095Y-120280238D01*
X177113095Y-120280238D02*
X177065476Y-120327857D01*
X177065476Y-120327857D02*
X177017857Y-120423095D01*
X177017857Y-120423095D02*
X177017857Y-120565952D01*
X177017857Y-120565952D02*
X177065476Y-120661190D01*
X177065476Y-120661190D02*
X177113095Y-120708809D01*
X177113095Y-120708809D02*
X177208333Y-120756428D01*
X177208333Y-120756428D02*
X177589285Y-120756428D01*
X176684523Y-120232619D02*
X176065476Y-120232619D01*
X176065476Y-120232619D02*
X176398809Y-120613571D01*
X176398809Y-120613571D02*
X176255952Y-120613571D01*
X176255952Y-120613571D02*
X176160714Y-120661190D01*
X176160714Y-120661190D02*
X176113095Y-120708809D01*
X176113095Y-120708809D02*
X176065476Y-120804047D01*
X176065476Y-120804047D02*
X176065476Y-121042142D01*
X176065476Y-121042142D02*
X176113095Y-121137380D01*
X176113095Y-121137380D02*
X176160714Y-121185000D01*
X176160714Y-121185000D02*
X176255952Y-121232619D01*
X176255952Y-121232619D02*
X176541666Y-121232619D01*
X176541666Y-121232619D02*
X176636904Y-121185000D01*
X176636904Y-121185000D02*
X176684523Y-121137380D01*
X175160714Y-120232619D02*
X175636904Y-120232619D01*
X175636904Y-120232619D02*
X175684523Y-120708809D01*
X175684523Y-120708809D02*
X175636904Y-120661190D01*
X175636904Y-120661190D02*
X175541666Y-120613571D01*
X175541666Y-120613571D02*
X175303571Y-120613571D01*
X175303571Y-120613571D02*
X175208333Y-120661190D01*
X175208333Y-120661190D02*
X175160714Y-120708809D01*
X175160714Y-120708809D02*
X175113095Y-120804047D01*
X175113095Y-120804047D02*
X175113095Y-121042142D01*
X175113095Y-121042142D02*
X175160714Y-121137380D01*
X175160714Y-121137380D02*
X175208333Y-121185000D01*
X175208333Y-121185000D02*
X175303571Y-121232619D01*
X175303571Y-121232619D02*
X175541666Y-121232619D01*
X175541666Y-121232619D02*
X175636904Y-121185000D01*
X175636904Y-121185000D02*
X175684523Y-121137380D01*
%TO.C,R6*%
X168262619Y-79018333D02*
X167786428Y-78685000D01*
X168262619Y-78446905D02*
X167262619Y-78446905D01*
X167262619Y-78446905D02*
X167262619Y-78827857D01*
X167262619Y-78827857D02*
X167310238Y-78923095D01*
X167310238Y-78923095D02*
X167357857Y-78970714D01*
X167357857Y-78970714D02*
X167453095Y-79018333D01*
X167453095Y-79018333D02*
X167595952Y-79018333D01*
X167595952Y-79018333D02*
X167691190Y-78970714D01*
X167691190Y-78970714D02*
X167738809Y-78923095D01*
X167738809Y-78923095D02*
X167786428Y-78827857D01*
X167786428Y-78827857D02*
X167786428Y-78446905D01*
X167262619Y-79875476D02*
X167262619Y-79685000D01*
X167262619Y-79685000D02*
X167310238Y-79589762D01*
X167310238Y-79589762D02*
X167357857Y-79542143D01*
X167357857Y-79542143D02*
X167500714Y-79446905D01*
X167500714Y-79446905D02*
X167691190Y-79399286D01*
X167691190Y-79399286D02*
X168072142Y-79399286D01*
X168072142Y-79399286D02*
X168167380Y-79446905D01*
X168167380Y-79446905D02*
X168215000Y-79494524D01*
X168215000Y-79494524D02*
X168262619Y-79589762D01*
X168262619Y-79589762D02*
X168262619Y-79780238D01*
X168262619Y-79780238D02*
X168215000Y-79875476D01*
X168215000Y-79875476D02*
X168167380Y-79923095D01*
X168167380Y-79923095D02*
X168072142Y-79970714D01*
X168072142Y-79970714D02*
X167834047Y-79970714D01*
X167834047Y-79970714D02*
X167738809Y-79923095D01*
X167738809Y-79923095D02*
X167691190Y-79875476D01*
X167691190Y-79875476D02*
X167643571Y-79780238D01*
X167643571Y-79780238D02*
X167643571Y-79589762D01*
X167643571Y-79589762D02*
X167691190Y-79494524D01*
X167691190Y-79494524D02*
X167738809Y-79446905D01*
X167738809Y-79446905D02*
X167834047Y-79399286D01*
%TO.C,J7*%
X186333333Y-75952619D02*
X186333333Y-76666904D01*
X186333333Y-76666904D02*
X186380952Y-76809761D01*
X186380952Y-76809761D02*
X186476190Y-76905000D01*
X186476190Y-76905000D02*
X186619047Y-76952619D01*
X186619047Y-76952619D02*
X186714285Y-76952619D01*
X185952380Y-75952619D02*
X185285714Y-75952619D01*
X185285714Y-75952619D02*
X185714285Y-76952619D01*
%TO.C,R9*%
X152702619Y-95908333D02*
X152226428Y-95575000D01*
X152702619Y-95336905D02*
X151702619Y-95336905D01*
X151702619Y-95336905D02*
X151702619Y-95717857D01*
X151702619Y-95717857D02*
X151750238Y-95813095D01*
X151750238Y-95813095D02*
X151797857Y-95860714D01*
X151797857Y-95860714D02*
X151893095Y-95908333D01*
X151893095Y-95908333D02*
X152035952Y-95908333D01*
X152035952Y-95908333D02*
X152131190Y-95860714D01*
X152131190Y-95860714D02*
X152178809Y-95813095D01*
X152178809Y-95813095D02*
X152226428Y-95717857D01*
X152226428Y-95717857D02*
X152226428Y-95336905D01*
X152702619Y-96384524D02*
X152702619Y-96575000D01*
X152702619Y-96575000D02*
X152655000Y-96670238D01*
X152655000Y-96670238D02*
X152607380Y-96717857D01*
X152607380Y-96717857D02*
X152464523Y-96813095D01*
X152464523Y-96813095D02*
X152274047Y-96860714D01*
X152274047Y-96860714D02*
X151893095Y-96860714D01*
X151893095Y-96860714D02*
X151797857Y-96813095D01*
X151797857Y-96813095D02*
X151750238Y-96765476D01*
X151750238Y-96765476D02*
X151702619Y-96670238D01*
X151702619Y-96670238D02*
X151702619Y-96479762D01*
X151702619Y-96479762D02*
X151750238Y-96384524D01*
X151750238Y-96384524D02*
X151797857Y-96336905D01*
X151797857Y-96336905D02*
X151893095Y-96289286D01*
X151893095Y-96289286D02*
X152131190Y-96289286D01*
X152131190Y-96289286D02*
X152226428Y-96336905D01*
X152226428Y-96336905D02*
X152274047Y-96384524D01*
X152274047Y-96384524D02*
X152321666Y-96479762D01*
X152321666Y-96479762D02*
X152321666Y-96670238D01*
X152321666Y-96670238D02*
X152274047Y-96765476D01*
X152274047Y-96765476D02*
X152226428Y-96813095D01*
X152226428Y-96813095D02*
X152131190Y-96860714D01*
%TO.C,R26*%
X153167857Y-106532619D02*
X153501190Y-106056428D01*
X153739285Y-106532619D02*
X153739285Y-105532619D01*
X153739285Y-105532619D02*
X153358333Y-105532619D01*
X153358333Y-105532619D02*
X153263095Y-105580238D01*
X153263095Y-105580238D02*
X153215476Y-105627857D01*
X153215476Y-105627857D02*
X153167857Y-105723095D01*
X153167857Y-105723095D02*
X153167857Y-105865952D01*
X153167857Y-105865952D02*
X153215476Y-105961190D01*
X153215476Y-105961190D02*
X153263095Y-106008809D01*
X153263095Y-106008809D02*
X153358333Y-106056428D01*
X153358333Y-106056428D02*
X153739285Y-106056428D01*
X152786904Y-105627857D02*
X152739285Y-105580238D01*
X152739285Y-105580238D02*
X152644047Y-105532619D01*
X152644047Y-105532619D02*
X152405952Y-105532619D01*
X152405952Y-105532619D02*
X152310714Y-105580238D01*
X152310714Y-105580238D02*
X152263095Y-105627857D01*
X152263095Y-105627857D02*
X152215476Y-105723095D01*
X152215476Y-105723095D02*
X152215476Y-105818333D01*
X152215476Y-105818333D02*
X152263095Y-105961190D01*
X152263095Y-105961190D02*
X152834523Y-106532619D01*
X152834523Y-106532619D02*
X152215476Y-106532619D01*
X151358333Y-105532619D02*
X151548809Y-105532619D01*
X151548809Y-105532619D02*
X151644047Y-105580238D01*
X151644047Y-105580238D02*
X151691666Y-105627857D01*
X151691666Y-105627857D02*
X151786904Y-105770714D01*
X151786904Y-105770714D02*
X151834523Y-105961190D01*
X151834523Y-105961190D02*
X151834523Y-106342142D01*
X151834523Y-106342142D02*
X151786904Y-106437380D01*
X151786904Y-106437380D02*
X151739285Y-106485000D01*
X151739285Y-106485000D02*
X151644047Y-106532619D01*
X151644047Y-106532619D02*
X151453571Y-106532619D01*
X151453571Y-106532619D02*
X151358333Y-106485000D01*
X151358333Y-106485000D02*
X151310714Y-106437380D01*
X151310714Y-106437380D02*
X151263095Y-106342142D01*
X151263095Y-106342142D02*
X151263095Y-106104047D01*
X151263095Y-106104047D02*
X151310714Y-106008809D01*
X151310714Y-106008809D02*
X151358333Y-105961190D01*
X151358333Y-105961190D02*
X151453571Y-105913571D01*
X151453571Y-105913571D02*
X151644047Y-105913571D01*
X151644047Y-105913571D02*
X151739285Y-105961190D01*
X151739285Y-105961190D02*
X151786904Y-106008809D01*
X151786904Y-106008809D02*
X151834523Y-106104047D01*
%TO.C,U6*%
X150236904Y-51117619D02*
X150236904Y-51927142D01*
X150236904Y-51927142D02*
X150189285Y-52022380D01*
X150189285Y-52022380D02*
X150141666Y-52070000D01*
X150141666Y-52070000D02*
X150046428Y-52117619D01*
X150046428Y-52117619D02*
X149855952Y-52117619D01*
X149855952Y-52117619D02*
X149760714Y-52070000D01*
X149760714Y-52070000D02*
X149713095Y-52022380D01*
X149713095Y-52022380D02*
X149665476Y-51927142D01*
X149665476Y-51927142D02*
X149665476Y-51117619D01*
X148760714Y-51117619D02*
X148951190Y-51117619D01*
X148951190Y-51117619D02*
X149046428Y-51165238D01*
X149046428Y-51165238D02*
X149094047Y-51212857D01*
X149094047Y-51212857D02*
X149189285Y-51355714D01*
X149189285Y-51355714D02*
X149236904Y-51546190D01*
X149236904Y-51546190D02*
X149236904Y-51927142D01*
X149236904Y-51927142D02*
X149189285Y-52022380D01*
X149189285Y-52022380D02*
X149141666Y-52070000D01*
X149141666Y-52070000D02*
X149046428Y-52117619D01*
X149046428Y-52117619D02*
X148855952Y-52117619D01*
X148855952Y-52117619D02*
X148760714Y-52070000D01*
X148760714Y-52070000D02*
X148713095Y-52022380D01*
X148713095Y-52022380D02*
X148665476Y-51927142D01*
X148665476Y-51927142D02*
X148665476Y-51689047D01*
X148665476Y-51689047D02*
X148713095Y-51593809D01*
X148713095Y-51593809D02*
X148760714Y-51546190D01*
X148760714Y-51546190D02*
X148855952Y-51498571D01*
X148855952Y-51498571D02*
X149046428Y-51498571D01*
X149046428Y-51498571D02*
X149141666Y-51546190D01*
X149141666Y-51546190D02*
X149189285Y-51593809D01*
X149189285Y-51593809D02*
X149236904Y-51689047D01*
%TO.C,R5*%
X158102619Y-79018333D02*
X157626428Y-78685000D01*
X158102619Y-78446905D02*
X157102619Y-78446905D01*
X157102619Y-78446905D02*
X157102619Y-78827857D01*
X157102619Y-78827857D02*
X157150238Y-78923095D01*
X157150238Y-78923095D02*
X157197857Y-78970714D01*
X157197857Y-78970714D02*
X157293095Y-79018333D01*
X157293095Y-79018333D02*
X157435952Y-79018333D01*
X157435952Y-79018333D02*
X157531190Y-78970714D01*
X157531190Y-78970714D02*
X157578809Y-78923095D01*
X157578809Y-78923095D02*
X157626428Y-78827857D01*
X157626428Y-78827857D02*
X157626428Y-78446905D01*
X157102619Y-79923095D02*
X157102619Y-79446905D01*
X157102619Y-79446905D02*
X157578809Y-79399286D01*
X157578809Y-79399286D02*
X157531190Y-79446905D01*
X157531190Y-79446905D02*
X157483571Y-79542143D01*
X157483571Y-79542143D02*
X157483571Y-79780238D01*
X157483571Y-79780238D02*
X157531190Y-79875476D01*
X157531190Y-79875476D02*
X157578809Y-79923095D01*
X157578809Y-79923095D02*
X157674047Y-79970714D01*
X157674047Y-79970714D02*
X157912142Y-79970714D01*
X157912142Y-79970714D02*
X158007380Y-79923095D01*
X158007380Y-79923095D02*
X158055000Y-79875476D01*
X158055000Y-79875476D02*
X158102619Y-79780238D01*
X158102619Y-79780238D02*
X158102619Y-79542143D01*
X158102619Y-79542143D02*
X158055000Y-79446905D01*
X158055000Y-79446905D02*
X158007380Y-79399286D01*
%TO.C,U1*%
X146236904Y-74657619D02*
X146236904Y-75467142D01*
X146236904Y-75467142D02*
X146189285Y-75562380D01*
X146189285Y-75562380D02*
X146141666Y-75610000D01*
X146141666Y-75610000D02*
X146046428Y-75657619D01*
X146046428Y-75657619D02*
X145855952Y-75657619D01*
X145855952Y-75657619D02*
X145760714Y-75610000D01*
X145760714Y-75610000D02*
X145713095Y-75562380D01*
X145713095Y-75562380D02*
X145665476Y-75467142D01*
X145665476Y-75467142D02*
X145665476Y-74657619D01*
X144665476Y-75657619D02*
X145236904Y-75657619D01*
X144951190Y-75657619D02*
X144951190Y-74657619D01*
X144951190Y-74657619D02*
X145046428Y-74800476D01*
X145046428Y-74800476D02*
X145141666Y-74895714D01*
X145141666Y-74895714D02*
X145236904Y-74943333D01*
%TO.C,R30*%
X123817857Y-120892619D02*
X124151190Y-120416428D01*
X124389285Y-120892619D02*
X124389285Y-119892619D01*
X124389285Y-119892619D02*
X124008333Y-119892619D01*
X124008333Y-119892619D02*
X123913095Y-119940238D01*
X123913095Y-119940238D02*
X123865476Y-119987857D01*
X123865476Y-119987857D02*
X123817857Y-120083095D01*
X123817857Y-120083095D02*
X123817857Y-120225952D01*
X123817857Y-120225952D02*
X123865476Y-120321190D01*
X123865476Y-120321190D02*
X123913095Y-120368809D01*
X123913095Y-120368809D02*
X124008333Y-120416428D01*
X124008333Y-120416428D02*
X124389285Y-120416428D01*
X123484523Y-119892619D02*
X122865476Y-119892619D01*
X122865476Y-119892619D02*
X123198809Y-120273571D01*
X123198809Y-120273571D02*
X123055952Y-120273571D01*
X123055952Y-120273571D02*
X122960714Y-120321190D01*
X122960714Y-120321190D02*
X122913095Y-120368809D01*
X122913095Y-120368809D02*
X122865476Y-120464047D01*
X122865476Y-120464047D02*
X122865476Y-120702142D01*
X122865476Y-120702142D02*
X122913095Y-120797380D01*
X122913095Y-120797380D02*
X122960714Y-120845000D01*
X122960714Y-120845000D02*
X123055952Y-120892619D01*
X123055952Y-120892619D02*
X123341666Y-120892619D01*
X123341666Y-120892619D02*
X123436904Y-120845000D01*
X123436904Y-120845000D02*
X123484523Y-120797380D01*
X122246428Y-119892619D02*
X122151190Y-119892619D01*
X122151190Y-119892619D02*
X122055952Y-119940238D01*
X122055952Y-119940238D02*
X122008333Y-119987857D01*
X122008333Y-119987857D02*
X121960714Y-120083095D01*
X121960714Y-120083095D02*
X121913095Y-120273571D01*
X121913095Y-120273571D02*
X121913095Y-120511666D01*
X121913095Y-120511666D02*
X121960714Y-120702142D01*
X121960714Y-120702142D02*
X122008333Y-120797380D01*
X122008333Y-120797380D02*
X122055952Y-120845000D01*
X122055952Y-120845000D02*
X122151190Y-120892619D01*
X122151190Y-120892619D02*
X122246428Y-120892619D01*
X122246428Y-120892619D02*
X122341666Y-120845000D01*
X122341666Y-120845000D02*
X122389285Y-120797380D01*
X122389285Y-120797380D02*
X122436904Y-120702142D01*
X122436904Y-120702142D02*
X122484523Y-120511666D01*
X122484523Y-120511666D02*
X122484523Y-120273571D01*
X122484523Y-120273571D02*
X122436904Y-120083095D01*
X122436904Y-120083095D02*
X122389285Y-119987857D01*
X122389285Y-119987857D02*
X122341666Y-119940238D01*
X122341666Y-119940238D02*
X122246428Y-119892619D01*
%TO.C,R36*%
X123817857Y-136892619D02*
X124151190Y-136416428D01*
X124389285Y-136892619D02*
X124389285Y-135892619D01*
X124389285Y-135892619D02*
X124008333Y-135892619D01*
X124008333Y-135892619D02*
X123913095Y-135940238D01*
X123913095Y-135940238D02*
X123865476Y-135987857D01*
X123865476Y-135987857D02*
X123817857Y-136083095D01*
X123817857Y-136083095D02*
X123817857Y-136225952D01*
X123817857Y-136225952D02*
X123865476Y-136321190D01*
X123865476Y-136321190D02*
X123913095Y-136368809D01*
X123913095Y-136368809D02*
X124008333Y-136416428D01*
X124008333Y-136416428D02*
X124389285Y-136416428D01*
X123484523Y-135892619D02*
X122865476Y-135892619D01*
X122865476Y-135892619D02*
X123198809Y-136273571D01*
X123198809Y-136273571D02*
X123055952Y-136273571D01*
X123055952Y-136273571D02*
X122960714Y-136321190D01*
X122960714Y-136321190D02*
X122913095Y-136368809D01*
X122913095Y-136368809D02*
X122865476Y-136464047D01*
X122865476Y-136464047D02*
X122865476Y-136702142D01*
X122865476Y-136702142D02*
X122913095Y-136797380D01*
X122913095Y-136797380D02*
X122960714Y-136845000D01*
X122960714Y-136845000D02*
X123055952Y-136892619D01*
X123055952Y-136892619D02*
X123341666Y-136892619D01*
X123341666Y-136892619D02*
X123436904Y-136845000D01*
X123436904Y-136845000D02*
X123484523Y-136797380D01*
X122008333Y-135892619D02*
X122198809Y-135892619D01*
X122198809Y-135892619D02*
X122294047Y-135940238D01*
X122294047Y-135940238D02*
X122341666Y-135987857D01*
X122341666Y-135987857D02*
X122436904Y-136130714D01*
X122436904Y-136130714D02*
X122484523Y-136321190D01*
X122484523Y-136321190D02*
X122484523Y-136702142D01*
X122484523Y-136702142D02*
X122436904Y-136797380D01*
X122436904Y-136797380D02*
X122389285Y-136845000D01*
X122389285Y-136845000D02*
X122294047Y-136892619D01*
X122294047Y-136892619D02*
X122103571Y-136892619D01*
X122103571Y-136892619D02*
X122008333Y-136845000D01*
X122008333Y-136845000D02*
X121960714Y-136797380D01*
X121960714Y-136797380D02*
X121913095Y-136702142D01*
X121913095Y-136702142D02*
X121913095Y-136464047D01*
X121913095Y-136464047D02*
X121960714Y-136368809D01*
X121960714Y-136368809D02*
X122008333Y-136321190D01*
X122008333Y-136321190D02*
X122103571Y-136273571D01*
X122103571Y-136273571D02*
X122294047Y-136273571D01*
X122294047Y-136273571D02*
X122389285Y-136321190D01*
X122389285Y-136321190D02*
X122436904Y-136368809D01*
X122436904Y-136368809D02*
X122484523Y-136464047D01*
%TO.C,R20*%
X130817857Y-96032619D02*
X131151190Y-95556428D01*
X131389285Y-96032619D02*
X131389285Y-95032619D01*
X131389285Y-95032619D02*
X131008333Y-95032619D01*
X131008333Y-95032619D02*
X130913095Y-95080238D01*
X130913095Y-95080238D02*
X130865476Y-95127857D01*
X130865476Y-95127857D02*
X130817857Y-95223095D01*
X130817857Y-95223095D02*
X130817857Y-95365952D01*
X130817857Y-95365952D02*
X130865476Y-95461190D01*
X130865476Y-95461190D02*
X130913095Y-95508809D01*
X130913095Y-95508809D02*
X131008333Y-95556428D01*
X131008333Y-95556428D02*
X131389285Y-95556428D01*
X130436904Y-95127857D02*
X130389285Y-95080238D01*
X130389285Y-95080238D02*
X130294047Y-95032619D01*
X130294047Y-95032619D02*
X130055952Y-95032619D01*
X130055952Y-95032619D02*
X129960714Y-95080238D01*
X129960714Y-95080238D02*
X129913095Y-95127857D01*
X129913095Y-95127857D02*
X129865476Y-95223095D01*
X129865476Y-95223095D02*
X129865476Y-95318333D01*
X129865476Y-95318333D02*
X129913095Y-95461190D01*
X129913095Y-95461190D02*
X130484523Y-96032619D01*
X130484523Y-96032619D02*
X129865476Y-96032619D01*
X129246428Y-95032619D02*
X129151190Y-95032619D01*
X129151190Y-95032619D02*
X129055952Y-95080238D01*
X129055952Y-95080238D02*
X129008333Y-95127857D01*
X129008333Y-95127857D02*
X128960714Y-95223095D01*
X128960714Y-95223095D02*
X128913095Y-95413571D01*
X128913095Y-95413571D02*
X128913095Y-95651666D01*
X128913095Y-95651666D02*
X128960714Y-95842142D01*
X128960714Y-95842142D02*
X129008333Y-95937380D01*
X129008333Y-95937380D02*
X129055952Y-95985000D01*
X129055952Y-95985000D02*
X129151190Y-96032619D01*
X129151190Y-96032619D02*
X129246428Y-96032619D01*
X129246428Y-96032619D02*
X129341666Y-95985000D01*
X129341666Y-95985000D02*
X129389285Y-95937380D01*
X129389285Y-95937380D02*
X129436904Y-95842142D01*
X129436904Y-95842142D02*
X129484523Y-95651666D01*
X129484523Y-95651666D02*
X129484523Y-95413571D01*
X129484523Y-95413571D02*
X129436904Y-95223095D01*
X129436904Y-95223095D02*
X129389285Y-95127857D01*
X129389285Y-95127857D02*
X129341666Y-95080238D01*
X129341666Y-95080238D02*
X129246428Y-95032619D01*
%TO.C,R7*%
X160322619Y-95908333D02*
X159846428Y-95575000D01*
X160322619Y-95336905D02*
X159322619Y-95336905D01*
X159322619Y-95336905D02*
X159322619Y-95717857D01*
X159322619Y-95717857D02*
X159370238Y-95813095D01*
X159370238Y-95813095D02*
X159417857Y-95860714D01*
X159417857Y-95860714D02*
X159513095Y-95908333D01*
X159513095Y-95908333D02*
X159655952Y-95908333D01*
X159655952Y-95908333D02*
X159751190Y-95860714D01*
X159751190Y-95860714D02*
X159798809Y-95813095D01*
X159798809Y-95813095D02*
X159846428Y-95717857D01*
X159846428Y-95717857D02*
X159846428Y-95336905D01*
X159322619Y-96241667D02*
X159322619Y-96908333D01*
X159322619Y-96908333D02*
X160322619Y-96479762D01*
%TO.C,R4*%
X161032619Y-139658333D02*
X160556428Y-139325000D01*
X161032619Y-139086905D02*
X160032619Y-139086905D01*
X160032619Y-139086905D02*
X160032619Y-139467857D01*
X160032619Y-139467857D02*
X160080238Y-139563095D01*
X160080238Y-139563095D02*
X160127857Y-139610714D01*
X160127857Y-139610714D02*
X160223095Y-139658333D01*
X160223095Y-139658333D02*
X160365952Y-139658333D01*
X160365952Y-139658333D02*
X160461190Y-139610714D01*
X160461190Y-139610714D02*
X160508809Y-139563095D01*
X160508809Y-139563095D02*
X160556428Y-139467857D01*
X160556428Y-139467857D02*
X160556428Y-139086905D01*
X160365952Y-140515476D02*
X161032619Y-140515476D01*
X159985000Y-140277381D02*
X160699285Y-140039286D01*
X160699285Y-140039286D02*
X160699285Y-140658333D01*
%TO.C,R12*%
X157782619Y-95432142D02*
X157306428Y-95098809D01*
X157782619Y-94860714D02*
X156782619Y-94860714D01*
X156782619Y-94860714D02*
X156782619Y-95241666D01*
X156782619Y-95241666D02*
X156830238Y-95336904D01*
X156830238Y-95336904D02*
X156877857Y-95384523D01*
X156877857Y-95384523D02*
X156973095Y-95432142D01*
X156973095Y-95432142D02*
X157115952Y-95432142D01*
X157115952Y-95432142D02*
X157211190Y-95384523D01*
X157211190Y-95384523D02*
X157258809Y-95336904D01*
X157258809Y-95336904D02*
X157306428Y-95241666D01*
X157306428Y-95241666D02*
X157306428Y-94860714D01*
X157782619Y-96384523D02*
X157782619Y-95813095D01*
X157782619Y-96098809D02*
X156782619Y-96098809D01*
X156782619Y-96098809D02*
X156925476Y-96003571D01*
X156925476Y-96003571D02*
X157020714Y-95908333D01*
X157020714Y-95908333D02*
X157068333Y-95813095D01*
X156877857Y-96765476D02*
X156830238Y-96813095D01*
X156830238Y-96813095D02*
X156782619Y-96908333D01*
X156782619Y-96908333D02*
X156782619Y-97146428D01*
X156782619Y-97146428D02*
X156830238Y-97241666D01*
X156830238Y-97241666D02*
X156877857Y-97289285D01*
X156877857Y-97289285D02*
X156973095Y-97336904D01*
X156973095Y-97336904D02*
X157068333Y-97336904D01*
X157068333Y-97336904D02*
X157211190Y-97289285D01*
X157211190Y-97289285D02*
X157782619Y-96717857D01*
X157782619Y-96717857D02*
X157782619Y-97336904D01*
%TO.C,C4*%
X172091666Y-126737380D02*
X172139285Y-126785000D01*
X172139285Y-126785000D02*
X172282142Y-126832619D01*
X172282142Y-126832619D02*
X172377380Y-126832619D01*
X172377380Y-126832619D02*
X172520237Y-126785000D01*
X172520237Y-126785000D02*
X172615475Y-126689761D01*
X172615475Y-126689761D02*
X172663094Y-126594523D01*
X172663094Y-126594523D02*
X172710713Y-126404047D01*
X172710713Y-126404047D02*
X172710713Y-126261190D01*
X172710713Y-126261190D02*
X172663094Y-126070714D01*
X172663094Y-126070714D02*
X172615475Y-125975476D01*
X172615475Y-125975476D02*
X172520237Y-125880238D01*
X172520237Y-125880238D02*
X172377380Y-125832619D01*
X172377380Y-125832619D02*
X172282142Y-125832619D01*
X172282142Y-125832619D02*
X172139285Y-125880238D01*
X172139285Y-125880238D02*
X172091666Y-125927857D01*
X171234523Y-126165952D02*
X171234523Y-126832619D01*
X171472618Y-125785000D02*
X171710713Y-126499285D01*
X171710713Y-126499285D02*
X171091666Y-126499285D01*
%TO.C,R16*%
X130817857Y-84032619D02*
X131151190Y-83556428D01*
X131389285Y-84032619D02*
X131389285Y-83032619D01*
X131389285Y-83032619D02*
X131008333Y-83032619D01*
X131008333Y-83032619D02*
X130913095Y-83080238D01*
X130913095Y-83080238D02*
X130865476Y-83127857D01*
X130865476Y-83127857D02*
X130817857Y-83223095D01*
X130817857Y-83223095D02*
X130817857Y-83365952D01*
X130817857Y-83365952D02*
X130865476Y-83461190D01*
X130865476Y-83461190D02*
X130913095Y-83508809D01*
X130913095Y-83508809D02*
X131008333Y-83556428D01*
X131008333Y-83556428D02*
X131389285Y-83556428D01*
X129865476Y-84032619D02*
X130436904Y-84032619D01*
X130151190Y-84032619D02*
X130151190Y-83032619D01*
X130151190Y-83032619D02*
X130246428Y-83175476D01*
X130246428Y-83175476D02*
X130341666Y-83270714D01*
X130341666Y-83270714D02*
X130436904Y-83318333D01*
X129008333Y-83032619D02*
X129198809Y-83032619D01*
X129198809Y-83032619D02*
X129294047Y-83080238D01*
X129294047Y-83080238D02*
X129341666Y-83127857D01*
X129341666Y-83127857D02*
X129436904Y-83270714D01*
X129436904Y-83270714D02*
X129484523Y-83461190D01*
X129484523Y-83461190D02*
X129484523Y-83842142D01*
X129484523Y-83842142D02*
X129436904Y-83937380D01*
X129436904Y-83937380D02*
X129389285Y-83985000D01*
X129389285Y-83985000D02*
X129294047Y-84032619D01*
X129294047Y-84032619D02*
X129103571Y-84032619D01*
X129103571Y-84032619D02*
X129008333Y-83985000D01*
X129008333Y-83985000D02*
X128960714Y-83937380D01*
X128960714Y-83937380D02*
X128913095Y-83842142D01*
X128913095Y-83842142D02*
X128913095Y-83604047D01*
X128913095Y-83604047D02*
X128960714Y-83508809D01*
X128960714Y-83508809D02*
X129008333Y-83461190D01*
X129008333Y-83461190D02*
X129103571Y-83413571D01*
X129103571Y-83413571D02*
X129294047Y-83413571D01*
X129294047Y-83413571D02*
X129389285Y-83461190D01*
X129389285Y-83461190D02*
X129436904Y-83508809D01*
X129436904Y-83508809D02*
X129484523Y-83604047D01*
%TO.C,U4*%
X87236904Y-80737619D02*
X87236904Y-81547142D01*
X87236904Y-81547142D02*
X87189285Y-81642380D01*
X87189285Y-81642380D02*
X87141666Y-81690000D01*
X87141666Y-81690000D02*
X87046428Y-81737619D01*
X87046428Y-81737619D02*
X86855952Y-81737619D01*
X86855952Y-81737619D02*
X86760714Y-81690000D01*
X86760714Y-81690000D02*
X86713095Y-81642380D01*
X86713095Y-81642380D02*
X86665476Y-81547142D01*
X86665476Y-81547142D02*
X86665476Y-80737619D01*
X85760714Y-81070952D02*
X85760714Y-81737619D01*
X85998809Y-80690000D02*
X86236904Y-81404285D01*
X86236904Y-81404285D02*
X85617857Y-81404285D01*
%TO.C,R11*%
X162862619Y-95432142D02*
X162386428Y-95098809D01*
X162862619Y-94860714D02*
X161862619Y-94860714D01*
X161862619Y-94860714D02*
X161862619Y-95241666D01*
X161862619Y-95241666D02*
X161910238Y-95336904D01*
X161910238Y-95336904D02*
X161957857Y-95384523D01*
X161957857Y-95384523D02*
X162053095Y-95432142D01*
X162053095Y-95432142D02*
X162195952Y-95432142D01*
X162195952Y-95432142D02*
X162291190Y-95384523D01*
X162291190Y-95384523D02*
X162338809Y-95336904D01*
X162338809Y-95336904D02*
X162386428Y-95241666D01*
X162386428Y-95241666D02*
X162386428Y-94860714D01*
X162862619Y-96384523D02*
X162862619Y-95813095D01*
X162862619Y-96098809D02*
X161862619Y-96098809D01*
X161862619Y-96098809D02*
X162005476Y-96003571D01*
X162005476Y-96003571D02*
X162100714Y-95908333D01*
X162100714Y-95908333D02*
X162148333Y-95813095D01*
X162862619Y-97336904D02*
X162862619Y-96765476D01*
X162862619Y-97051190D02*
X161862619Y-97051190D01*
X161862619Y-97051190D02*
X162005476Y-96955952D01*
X162005476Y-96955952D02*
X162100714Y-96860714D01*
X162100714Y-96860714D02*
X162148333Y-96765476D01*
%TO.C,R22*%
X110817857Y-108032619D02*
X111151190Y-107556428D01*
X111389285Y-108032619D02*
X111389285Y-107032619D01*
X111389285Y-107032619D02*
X111008333Y-107032619D01*
X111008333Y-107032619D02*
X110913095Y-107080238D01*
X110913095Y-107080238D02*
X110865476Y-107127857D01*
X110865476Y-107127857D02*
X110817857Y-107223095D01*
X110817857Y-107223095D02*
X110817857Y-107365952D01*
X110817857Y-107365952D02*
X110865476Y-107461190D01*
X110865476Y-107461190D02*
X110913095Y-107508809D01*
X110913095Y-107508809D02*
X111008333Y-107556428D01*
X111008333Y-107556428D02*
X111389285Y-107556428D01*
X110436904Y-107127857D02*
X110389285Y-107080238D01*
X110389285Y-107080238D02*
X110294047Y-107032619D01*
X110294047Y-107032619D02*
X110055952Y-107032619D01*
X110055952Y-107032619D02*
X109960714Y-107080238D01*
X109960714Y-107080238D02*
X109913095Y-107127857D01*
X109913095Y-107127857D02*
X109865476Y-107223095D01*
X109865476Y-107223095D02*
X109865476Y-107318333D01*
X109865476Y-107318333D02*
X109913095Y-107461190D01*
X109913095Y-107461190D02*
X110484523Y-108032619D01*
X110484523Y-108032619D02*
X109865476Y-108032619D01*
X109484523Y-107127857D02*
X109436904Y-107080238D01*
X109436904Y-107080238D02*
X109341666Y-107032619D01*
X109341666Y-107032619D02*
X109103571Y-107032619D01*
X109103571Y-107032619D02*
X109008333Y-107080238D01*
X109008333Y-107080238D02*
X108960714Y-107127857D01*
X108960714Y-107127857D02*
X108913095Y-107223095D01*
X108913095Y-107223095D02*
X108913095Y-107318333D01*
X108913095Y-107318333D02*
X108960714Y-107461190D01*
X108960714Y-107461190D02*
X109532142Y-108032619D01*
X109532142Y-108032619D02*
X108913095Y-108032619D01*
%TO.C,U2*%
X146286904Y-86467619D02*
X146286904Y-87277142D01*
X146286904Y-87277142D02*
X146239285Y-87372380D01*
X146239285Y-87372380D02*
X146191666Y-87420000D01*
X146191666Y-87420000D02*
X146096428Y-87467619D01*
X146096428Y-87467619D02*
X145905952Y-87467619D01*
X145905952Y-87467619D02*
X145810714Y-87420000D01*
X145810714Y-87420000D02*
X145763095Y-87372380D01*
X145763095Y-87372380D02*
X145715476Y-87277142D01*
X145715476Y-87277142D02*
X145715476Y-86467619D01*
X145286904Y-86562857D02*
X145239285Y-86515238D01*
X145239285Y-86515238D02*
X145144047Y-86467619D01*
X145144047Y-86467619D02*
X144905952Y-86467619D01*
X144905952Y-86467619D02*
X144810714Y-86515238D01*
X144810714Y-86515238D02*
X144763095Y-86562857D01*
X144763095Y-86562857D02*
X144715476Y-86658095D01*
X144715476Y-86658095D02*
X144715476Y-86753333D01*
X144715476Y-86753333D02*
X144763095Y-86896190D01*
X144763095Y-86896190D02*
X145334523Y-87467619D01*
X145334523Y-87467619D02*
X144715476Y-87467619D01*
%TO.C,U9*%
X169236904Y-51007619D02*
X169236904Y-51817142D01*
X169236904Y-51817142D02*
X169189285Y-51912380D01*
X169189285Y-51912380D02*
X169141666Y-51960000D01*
X169141666Y-51960000D02*
X169046428Y-52007619D01*
X169046428Y-52007619D02*
X168855952Y-52007619D01*
X168855952Y-52007619D02*
X168760714Y-51960000D01*
X168760714Y-51960000D02*
X168713095Y-51912380D01*
X168713095Y-51912380D02*
X168665476Y-51817142D01*
X168665476Y-51817142D02*
X168665476Y-51007619D01*
X168141666Y-52007619D02*
X167951190Y-52007619D01*
X167951190Y-52007619D02*
X167855952Y-51960000D01*
X167855952Y-51960000D02*
X167808333Y-51912380D01*
X167808333Y-51912380D02*
X167713095Y-51769523D01*
X167713095Y-51769523D02*
X167665476Y-51579047D01*
X167665476Y-51579047D02*
X167665476Y-51198095D01*
X167665476Y-51198095D02*
X167713095Y-51102857D01*
X167713095Y-51102857D02*
X167760714Y-51055238D01*
X167760714Y-51055238D02*
X167855952Y-51007619D01*
X167855952Y-51007619D02*
X168046428Y-51007619D01*
X168046428Y-51007619D02*
X168141666Y-51055238D01*
X168141666Y-51055238D02*
X168189285Y-51102857D01*
X168189285Y-51102857D02*
X168236904Y-51198095D01*
X168236904Y-51198095D02*
X168236904Y-51436190D01*
X168236904Y-51436190D02*
X168189285Y-51531428D01*
X168189285Y-51531428D02*
X168141666Y-51579047D01*
X168141666Y-51579047D02*
X168046428Y-51626666D01*
X168046428Y-51626666D02*
X167855952Y-51626666D01*
X167855952Y-51626666D02*
X167760714Y-51579047D01*
X167760714Y-51579047D02*
X167713095Y-51531428D01*
X167713095Y-51531428D02*
X167665476Y-51436190D01*
%TO.C,R15*%
X120817857Y-84032619D02*
X121151190Y-83556428D01*
X121389285Y-84032619D02*
X121389285Y-83032619D01*
X121389285Y-83032619D02*
X121008333Y-83032619D01*
X121008333Y-83032619D02*
X120913095Y-83080238D01*
X120913095Y-83080238D02*
X120865476Y-83127857D01*
X120865476Y-83127857D02*
X120817857Y-83223095D01*
X120817857Y-83223095D02*
X120817857Y-83365952D01*
X120817857Y-83365952D02*
X120865476Y-83461190D01*
X120865476Y-83461190D02*
X120913095Y-83508809D01*
X120913095Y-83508809D02*
X121008333Y-83556428D01*
X121008333Y-83556428D02*
X121389285Y-83556428D01*
X119865476Y-84032619D02*
X120436904Y-84032619D01*
X120151190Y-84032619D02*
X120151190Y-83032619D01*
X120151190Y-83032619D02*
X120246428Y-83175476D01*
X120246428Y-83175476D02*
X120341666Y-83270714D01*
X120341666Y-83270714D02*
X120436904Y-83318333D01*
X118960714Y-83032619D02*
X119436904Y-83032619D01*
X119436904Y-83032619D02*
X119484523Y-83508809D01*
X119484523Y-83508809D02*
X119436904Y-83461190D01*
X119436904Y-83461190D02*
X119341666Y-83413571D01*
X119341666Y-83413571D02*
X119103571Y-83413571D01*
X119103571Y-83413571D02*
X119008333Y-83461190D01*
X119008333Y-83461190D02*
X118960714Y-83508809D01*
X118960714Y-83508809D02*
X118913095Y-83604047D01*
X118913095Y-83604047D02*
X118913095Y-83842142D01*
X118913095Y-83842142D02*
X118960714Y-83937380D01*
X118960714Y-83937380D02*
X119008333Y-83985000D01*
X119008333Y-83985000D02*
X119103571Y-84032619D01*
X119103571Y-84032619D02*
X119341666Y-84032619D01*
X119341666Y-84032619D02*
X119436904Y-83985000D01*
X119436904Y-83985000D02*
X119484523Y-83937380D01*
%TO.C,C2*%
X172191666Y-142737380D02*
X172239285Y-142785000D01*
X172239285Y-142785000D02*
X172382142Y-142832619D01*
X172382142Y-142832619D02*
X172477380Y-142832619D01*
X172477380Y-142832619D02*
X172620237Y-142785000D01*
X172620237Y-142785000D02*
X172715475Y-142689761D01*
X172715475Y-142689761D02*
X172763094Y-142594523D01*
X172763094Y-142594523D02*
X172810713Y-142404047D01*
X172810713Y-142404047D02*
X172810713Y-142261190D01*
X172810713Y-142261190D02*
X172763094Y-142070714D01*
X172763094Y-142070714D02*
X172715475Y-141975476D01*
X172715475Y-141975476D02*
X172620237Y-141880238D01*
X172620237Y-141880238D02*
X172477380Y-141832619D01*
X172477380Y-141832619D02*
X172382142Y-141832619D01*
X172382142Y-141832619D02*
X172239285Y-141880238D01*
X172239285Y-141880238D02*
X172191666Y-141927857D01*
X171810713Y-141927857D02*
X171763094Y-141880238D01*
X171763094Y-141880238D02*
X171667856Y-141832619D01*
X171667856Y-141832619D02*
X171429761Y-141832619D01*
X171429761Y-141832619D02*
X171334523Y-141880238D01*
X171334523Y-141880238D02*
X171286904Y-141927857D01*
X171286904Y-141927857D02*
X171239285Y-142023095D01*
X171239285Y-142023095D02*
X171239285Y-142118333D01*
X171239285Y-142118333D02*
X171286904Y-142261190D01*
X171286904Y-142261190D02*
X171858332Y-142832619D01*
X171858332Y-142832619D02*
X171239285Y-142832619D01*
%TO.C,R2*%
X161032619Y-128658333D02*
X160556428Y-128325000D01*
X161032619Y-128086905D02*
X160032619Y-128086905D01*
X160032619Y-128086905D02*
X160032619Y-128467857D01*
X160032619Y-128467857D02*
X160080238Y-128563095D01*
X160080238Y-128563095D02*
X160127857Y-128610714D01*
X160127857Y-128610714D02*
X160223095Y-128658333D01*
X160223095Y-128658333D02*
X160365952Y-128658333D01*
X160365952Y-128658333D02*
X160461190Y-128610714D01*
X160461190Y-128610714D02*
X160508809Y-128563095D01*
X160508809Y-128563095D02*
X160556428Y-128467857D01*
X160556428Y-128467857D02*
X160556428Y-128086905D01*
X160127857Y-129039286D02*
X160080238Y-129086905D01*
X160080238Y-129086905D02*
X160032619Y-129182143D01*
X160032619Y-129182143D02*
X160032619Y-129420238D01*
X160032619Y-129420238D02*
X160080238Y-129515476D01*
X160080238Y-129515476D02*
X160127857Y-129563095D01*
X160127857Y-129563095D02*
X160223095Y-129610714D01*
X160223095Y-129610714D02*
X160318333Y-129610714D01*
X160318333Y-129610714D02*
X160461190Y-129563095D01*
X160461190Y-129563095D02*
X161032619Y-128991667D01*
X161032619Y-128991667D02*
X161032619Y-129610714D01*
%TO.C,R10*%
X160642619Y-78542142D02*
X160166428Y-78208809D01*
X160642619Y-77970714D02*
X159642619Y-77970714D01*
X159642619Y-77970714D02*
X159642619Y-78351666D01*
X159642619Y-78351666D02*
X159690238Y-78446904D01*
X159690238Y-78446904D02*
X159737857Y-78494523D01*
X159737857Y-78494523D02*
X159833095Y-78542142D01*
X159833095Y-78542142D02*
X159975952Y-78542142D01*
X159975952Y-78542142D02*
X160071190Y-78494523D01*
X160071190Y-78494523D02*
X160118809Y-78446904D01*
X160118809Y-78446904D02*
X160166428Y-78351666D01*
X160166428Y-78351666D02*
X160166428Y-77970714D01*
X160642619Y-79494523D02*
X160642619Y-78923095D01*
X160642619Y-79208809D02*
X159642619Y-79208809D01*
X159642619Y-79208809D02*
X159785476Y-79113571D01*
X159785476Y-79113571D02*
X159880714Y-79018333D01*
X159880714Y-79018333D02*
X159928333Y-78923095D01*
X159642619Y-80113571D02*
X159642619Y-80208809D01*
X159642619Y-80208809D02*
X159690238Y-80304047D01*
X159690238Y-80304047D02*
X159737857Y-80351666D01*
X159737857Y-80351666D02*
X159833095Y-80399285D01*
X159833095Y-80399285D02*
X160023571Y-80446904D01*
X160023571Y-80446904D02*
X160261666Y-80446904D01*
X160261666Y-80446904D02*
X160452142Y-80399285D01*
X160452142Y-80399285D02*
X160547380Y-80351666D01*
X160547380Y-80351666D02*
X160595000Y-80304047D01*
X160595000Y-80304047D02*
X160642619Y-80208809D01*
X160642619Y-80208809D02*
X160642619Y-80113571D01*
X160642619Y-80113571D02*
X160595000Y-80018333D01*
X160595000Y-80018333D02*
X160547380Y-79970714D01*
X160547380Y-79970714D02*
X160452142Y-79923095D01*
X160452142Y-79923095D02*
X160261666Y-79875476D01*
X160261666Y-79875476D02*
X160023571Y-79875476D01*
X160023571Y-79875476D02*
X159833095Y-79923095D01*
X159833095Y-79923095D02*
X159737857Y-79970714D01*
X159737857Y-79970714D02*
X159690238Y-80018333D01*
X159690238Y-80018333D02*
X159642619Y-80113571D01*
%TO.C,C1*%
X170891666Y-133437380D02*
X170939285Y-133485000D01*
X170939285Y-133485000D02*
X171082142Y-133532619D01*
X171082142Y-133532619D02*
X171177380Y-133532619D01*
X171177380Y-133532619D02*
X171320237Y-133485000D01*
X171320237Y-133485000D02*
X171415475Y-133389761D01*
X171415475Y-133389761D02*
X171463094Y-133294523D01*
X171463094Y-133294523D02*
X171510713Y-133104047D01*
X171510713Y-133104047D02*
X171510713Y-132961190D01*
X171510713Y-132961190D02*
X171463094Y-132770714D01*
X171463094Y-132770714D02*
X171415475Y-132675476D01*
X171415475Y-132675476D02*
X171320237Y-132580238D01*
X171320237Y-132580238D02*
X171177380Y-132532619D01*
X171177380Y-132532619D02*
X171082142Y-132532619D01*
X171082142Y-132532619D02*
X170939285Y-132580238D01*
X170939285Y-132580238D02*
X170891666Y-132627857D01*
X169939285Y-133532619D02*
X170510713Y-133532619D01*
X170224999Y-133532619D02*
X170224999Y-132532619D01*
X170224999Y-132532619D02*
X170320237Y-132675476D01*
X170320237Y-132675476D02*
X170415475Y-132770714D01*
X170415475Y-132770714D02*
X170510713Y-132818333D01*
%TO.C,R28*%
X173167857Y-106532619D02*
X173501190Y-106056428D01*
X173739285Y-106532619D02*
X173739285Y-105532619D01*
X173739285Y-105532619D02*
X173358333Y-105532619D01*
X173358333Y-105532619D02*
X173263095Y-105580238D01*
X173263095Y-105580238D02*
X173215476Y-105627857D01*
X173215476Y-105627857D02*
X173167857Y-105723095D01*
X173167857Y-105723095D02*
X173167857Y-105865952D01*
X173167857Y-105865952D02*
X173215476Y-105961190D01*
X173215476Y-105961190D02*
X173263095Y-106008809D01*
X173263095Y-106008809D02*
X173358333Y-106056428D01*
X173358333Y-106056428D02*
X173739285Y-106056428D01*
X172786904Y-105627857D02*
X172739285Y-105580238D01*
X172739285Y-105580238D02*
X172644047Y-105532619D01*
X172644047Y-105532619D02*
X172405952Y-105532619D01*
X172405952Y-105532619D02*
X172310714Y-105580238D01*
X172310714Y-105580238D02*
X172263095Y-105627857D01*
X172263095Y-105627857D02*
X172215476Y-105723095D01*
X172215476Y-105723095D02*
X172215476Y-105818333D01*
X172215476Y-105818333D02*
X172263095Y-105961190D01*
X172263095Y-105961190D02*
X172834523Y-106532619D01*
X172834523Y-106532619D02*
X172215476Y-106532619D01*
X171644047Y-105961190D02*
X171739285Y-105913571D01*
X171739285Y-105913571D02*
X171786904Y-105865952D01*
X171786904Y-105865952D02*
X171834523Y-105770714D01*
X171834523Y-105770714D02*
X171834523Y-105723095D01*
X171834523Y-105723095D02*
X171786904Y-105627857D01*
X171786904Y-105627857D02*
X171739285Y-105580238D01*
X171739285Y-105580238D02*
X171644047Y-105532619D01*
X171644047Y-105532619D02*
X171453571Y-105532619D01*
X171453571Y-105532619D02*
X171358333Y-105580238D01*
X171358333Y-105580238D02*
X171310714Y-105627857D01*
X171310714Y-105627857D02*
X171263095Y-105723095D01*
X171263095Y-105723095D02*
X171263095Y-105770714D01*
X171263095Y-105770714D02*
X171310714Y-105865952D01*
X171310714Y-105865952D02*
X171358333Y-105913571D01*
X171358333Y-105913571D02*
X171453571Y-105961190D01*
X171453571Y-105961190D02*
X171644047Y-105961190D01*
X171644047Y-105961190D02*
X171739285Y-106008809D01*
X171739285Y-106008809D02*
X171786904Y-106056428D01*
X171786904Y-106056428D02*
X171834523Y-106151666D01*
X171834523Y-106151666D02*
X171834523Y-106342142D01*
X171834523Y-106342142D02*
X171786904Y-106437380D01*
X171786904Y-106437380D02*
X171739285Y-106485000D01*
X171739285Y-106485000D02*
X171644047Y-106532619D01*
X171644047Y-106532619D02*
X171453571Y-106532619D01*
X171453571Y-106532619D02*
X171358333Y-106485000D01*
X171358333Y-106485000D02*
X171310714Y-106437380D01*
X171310714Y-106437380D02*
X171263095Y-106342142D01*
X171263095Y-106342142D02*
X171263095Y-106151666D01*
X171263095Y-106151666D02*
X171310714Y-106056428D01*
X171310714Y-106056428D02*
X171358333Y-106008809D01*
X171358333Y-106008809D02*
X171453571Y-105961190D01*
%TO.C,R34*%
X172667857Y-144432619D02*
X173001190Y-143956428D01*
X173239285Y-144432619D02*
X173239285Y-143432619D01*
X173239285Y-143432619D02*
X172858333Y-143432619D01*
X172858333Y-143432619D02*
X172763095Y-143480238D01*
X172763095Y-143480238D02*
X172715476Y-143527857D01*
X172715476Y-143527857D02*
X172667857Y-143623095D01*
X172667857Y-143623095D02*
X172667857Y-143765952D01*
X172667857Y-143765952D02*
X172715476Y-143861190D01*
X172715476Y-143861190D02*
X172763095Y-143908809D01*
X172763095Y-143908809D02*
X172858333Y-143956428D01*
X172858333Y-143956428D02*
X173239285Y-143956428D01*
X172334523Y-143432619D02*
X171715476Y-143432619D01*
X171715476Y-143432619D02*
X172048809Y-143813571D01*
X172048809Y-143813571D02*
X171905952Y-143813571D01*
X171905952Y-143813571D02*
X171810714Y-143861190D01*
X171810714Y-143861190D02*
X171763095Y-143908809D01*
X171763095Y-143908809D02*
X171715476Y-144004047D01*
X171715476Y-144004047D02*
X171715476Y-144242142D01*
X171715476Y-144242142D02*
X171763095Y-144337380D01*
X171763095Y-144337380D02*
X171810714Y-144385000D01*
X171810714Y-144385000D02*
X171905952Y-144432619D01*
X171905952Y-144432619D02*
X172191666Y-144432619D01*
X172191666Y-144432619D02*
X172286904Y-144385000D01*
X172286904Y-144385000D02*
X172334523Y-144337380D01*
X170858333Y-143765952D02*
X170858333Y-144432619D01*
X171096428Y-143385000D02*
X171334523Y-144099285D01*
X171334523Y-144099285D02*
X170715476Y-144099285D01*
%TO.C,R33*%
X171367857Y-131932619D02*
X171701190Y-131456428D01*
X171939285Y-131932619D02*
X171939285Y-130932619D01*
X171939285Y-130932619D02*
X171558333Y-130932619D01*
X171558333Y-130932619D02*
X171463095Y-130980238D01*
X171463095Y-130980238D02*
X171415476Y-131027857D01*
X171415476Y-131027857D02*
X171367857Y-131123095D01*
X171367857Y-131123095D02*
X171367857Y-131265952D01*
X171367857Y-131265952D02*
X171415476Y-131361190D01*
X171415476Y-131361190D02*
X171463095Y-131408809D01*
X171463095Y-131408809D02*
X171558333Y-131456428D01*
X171558333Y-131456428D02*
X171939285Y-131456428D01*
X171034523Y-130932619D02*
X170415476Y-130932619D01*
X170415476Y-130932619D02*
X170748809Y-131313571D01*
X170748809Y-131313571D02*
X170605952Y-131313571D01*
X170605952Y-131313571D02*
X170510714Y-131361190D01*
X170510714Y-131361190D02*
X170463095Y-131408809D01*
X170463095Y-131408809D02*
X170415476Y-131504047D01*
X170415476Y-131504047D02*
X170415476Y-131742142D01*
X170415476Y-131742142D02*
X170463095Y-131837380D01*
X170463095Y-131837380D02*
X170510714Y-131885000D01*
X170510714Y-131885000D02*
X170605952Y-131932619D01*
X170605952Y-131932619D02*
X170891666Y-131932619D01*
X170891666Y-131932619D02*
X170986904Y-131885000D01*
X170986904Y-131885000D02*
X171034523Y-131837380D01*
X170082142Y-130932619D02*
X169463095Y-130932619D01*
X169463095Y-130932619D02*
X169796428Y-131313571D01*
X169796428Y-131313571D02*
X169653571Y-131313571D01*
X169653571Y-131313571D02*
X169558333Y-131361190D01*
X169558333Y-131361190D02*
X169510714Y-131408809D01*
X169510714Y-131408809D02*
X169463095Y-131504047D01*
X169463095Y-131504047D02*
X169463095Y-131742142D01*
X169463095Y-131742142D02*
X169510714Y-131837380D01*
X169510714Y-131837380D02*
X169558333Y-131885000D01*
X169558333Y-131885000D02*
X169653571Y-131932619D01*
X169653571Y-131932619D02*
X169939285Y-131932619D01*
X169939285Y-131932619D02*
X170034523Y-131885000D01*
X170034523Y-131885000D02*
X170082142Y-131837380D01*
%TO.C,R21*%
X100817857Y-108032619D02*
X101151190Y-107556428D01*
X101389285Y-108032619D02*
X101389285Y-107032619D01*
X101389285Y-107032619D02*
X101008333Y-107032619D01*
X101008333Y-107032619D02*
X100913095Y-107080238D01*
X100913095Y-107080238D02*
X100865476Y-107127857D01*
X100865476Y-107127857D02*
X100817857Y-107223095D01*
X100817857Y-107223095D02*
X100817857Y-107365952D01*
X100817857Y-107365952D02*
X100865476Y-107461190D01*
X100865476Y-107461190D02*
X100913095Y-107508809D01*
X100913095Y-107508809D02*
X101008333Y-107556428D01*
X101008333Y-107556428D02*
X101389285Y-107556428D01*
X100436904Y-107127857D02*
X100389285Y-107080238D01*
X100389285Y-107080238D02*
X100294047Y-107032619D01*
X100294047Y-107032619D02*
X100055952Y-107032619D01*
X100055952Y-107032619D02*
X99960714Y-107080238D01*
X99960714Y-107080238D02*
X99913095Y-107127857D01*
X99913095Y-107127857D02*
X99865476Y-107223095D01*
X99865476Y-107223095D02*
X99865476Y-107318333D01*
X99865476Y-107318333D02*
X99913095Y-107461190D01*
X99913095Y-107461190D02*
X100484523Y-108032619D01*
X100484523Y-108032619D02*
X99865476Y-108032619D01*
X98913095Y-108032619D02*
X99484523Y-108032619D01*
X99198809Y-108032619D02*
X99198809Y-107032619D01*
X99198809Y-107032619D02*
X99294047Y-107175476D01*
X99294047Y-107175476D02*
X99389285Y-107270714D01*
X99389285Y-107270714D02*
X99484523Y-107318333D01*
%TO.C,U7*%
X168012619Y-138438095D02*
X168822142Y-138438095D01*
X168822142Y-138438095D02*
X168917380Y-138485714D01*
X168917380Y-138485714D02*
X168965000Y-138533333D01*
X168965000Y-138533333D02*
X169012619Y-138628571D01*
X169012619Y-138628571D02*
X169012619Y-138819047D01*
X169012619Y-138819047D02*
X168965000Y-138914285D01*
X168965000Y-138914285D02*
X168917380Y-138961904D01*
X168917380Y-138961904D02*
X168822142Y-139009523D01*
X168822142Y-139009523D02*
X168012619Y-139009523D01*
X168012619Y-139390476D02*
X168012619Y-140057142D01*
X168012619Y-140057142D02*
X169012619Y-139628571D01*
%TO.C,C3*%
X170991666Y-117537380D02*
X171039285Y-117585000D01*
X171039285Y-117585000D02*
X171182142Y-117632619D01*
X171182142Y-117632619D02*
X171277380Y-117632619D01*
X171277380Y-117632619D02*
X171420237Y-117585000D01*
X171420237Y-117585000D02*
X171515475Y-117489761D01*
X171515475Y-117489761D02*
X171563094Y-117394523D01*
X171563094Y-117394523D02*
X171610713Y-117204047D01*
X171610713Y-117204047D02*
X171610713Y-117061190D01*
X171610713Y-117061190D02*
X171563094Y-116870714D01*
X171563094Y-116870714D02*
X171515475Y-116775476D01*
X171515475Y-116775476D02*
X171420237Y-116680238D01*
X171420237Y-116680238D02*
X171277380Y-116632619D01*
X171277380Y-116632619D02*
X171182142Y-116632619D01*
X171182142Y-116632619D02*
X171039285Y-116680238D01*
X171039285Y-116680238D02*
X170991666Y-116727857D01*
X170658332Y-116632619D02*
X170039285Y-116632619D01*
X170039285Y-116632619D02*
X170372618Y-117013571D01*
X170372618Y-117013571D02*
X170229761Y-117013571D01*
X170229761Y-117013571D02*
X170134523Y-117061190D01*
X170134523Y-117061190D02*
X170086904Y-117108809D01*
X170086904Y-117108809D02*
X170039285Y-117204047D01*
X170039285Y-117204047D02*
X170039285Y-117442142D01*
X170039285Y-117442142D02*
X170086904Y-117537380D01*
X170086904Y-117537380D02*
X170134523Y-117585000D01*
X170134523Y-117585000D02*
X170229761Y-117632619D01*
X170229761Y-117632619D02*
X170515475Y-117632619D01*
X170515475Y-117632619D02*
X170610713Y-117585000D01*
X170610713Y-117585000D02*
X170658332Y-117537380D01*
%TO.C,R25*%
X143167857Y-106532619D02*
X143501190Y-106056428D01*
X143739285Y-106532619D02*
X143739285Y-105532619D01*
X143739285Y-105532619D02*
X143358333Y-105532619D01*
X143358333Y-105532619D02*
X143263095Y-105580238D01*
X143263095Y-105580238D02*
X143215476Y-105627857D01*
X143215476Y-105627857D02*
X143167857Y-105723095D01*
X143167857Y-105723095D02*
X143167857Y-105865952D01*
X143167857Y-105865952D02*
X143215476Y-105961190D01*
X143215476Y-105961190D02*
X143263095Y-106008809D01*
X143263095Y-106008809D02*
X143358333Y-106056428D01*
X143358333Y-106056428D02*
X143739285Y-106056428D01*
X142786904Y-105627857D02*
X142739285Y-105580238D01*
X142739285Y-105580238D02*
X142644047Y-105532619D01*
X142644047Y-105532619D02*
X142405952Y-105532619D01*
X142405952Y-105532619D02*
X142310714Y-105580238D01*
X142310714Y-105580238D02*
X142263095Y-105627857D01*
X142263095Y-105627857D02*
X142215476Y-105723095D01*
X142215476Y-105723095D02*
X142215476Y-105818333D01*
X142215476Y-105818333D02*
X142263095Y-105961190D01*
X142263095Y-105961190D02*
X142834523Y-106532619D01*
X142834523Y-106532619D02*
X142215476Y-106532619D01*
X141310714Y-105532619D02*
X141786904Y-105532619D01*
X141786904Y-105532619D02*
X141834523Y-106008809D01*
X141834523Y-106008809D02*
X141786904Y-105961190D01*
X141786904Y-105961190D02*
X141691666Y-105913571D01*
X141691666Y-105913571D02*
X141453571Y-105913571D01*
X141453571Y-105913571D02*
X141358333Y-105961190D01*
X141358333Y-105961190D02*
X141310714Y-106008809D01*
X141310714Y-106008809D02*
X141263095Y-106104047D01*
X141263095Y-106104047D02*
X141263095Y-106342142D01*
X141263095Y-106342142D02*
X141310714Y-106437380D01*
X141310714Y-106437380D02*
X141358333Y-106485000D01*
X141358333Y-106485000D02*
X141453571Y-106532619D01*
X141453571Y-106532619D02*
X141691666Y-106532619D01*
X141691666Y-106532619D02*
X141786904Y-106485000D01*
X141786904Y-106485000D02*
X141834523Y-106437380D01*
%TO.C,R14*%
X110817857Y-84032619D02*
X111151190Y-83556428D01*
X111389285Y-84032619D02*
X111389285Y-83032619D01*
X111389285Y-83032619D02*
X111008333Y-83032619D01*
X111008333Y-83032619D02*
X110913095Y-83080238D01*
X110913095Y-83080238D02*
X110865476Y-83127857D01*
X110865476Y-83127857D02*
X110817857Y-83223095D01*
X110817857Y-83223095D02*
X110817857Y-83365952D01*
X110817857Y-83365952D02*
X110865476Y-83461190D01*
X110865476Y-83461190D02*
X110913095Y-83508809D01*
X110913095Y-83508809D02*
X111008333Y-83556428D01*
X111008333Y-83556428D02*
X111389285Y-83556428D01*
X109865476Y-84032619D02*
X110436904Y-84032619D01*
X110151190Y-84032619D02*
X110151190Y-83032619D01*
X110151190Y-83032619D02*
X110246428Y-83175476D01*
X110246428Y-83175476D02*
X110341666Y-83270714D01*
X110341666Y-83270714D02*
X110436904Y-83318333D01*
X109008333Y-83365952D02*
X109008333Y-84032619D01*
X109246428Y-82985000D02*
X109484523Y-83699285D01*
X109484523Y-83699285D02*
X108865476Y-83699285D01*
%TO.C,R23*%
X120817857Y-108032619D02*
X121151190Y-107556428D01*
X121389285Y-108032619D02*
X121389285Y-107032619D01*
X121389285Y-107032619D02*
X121008333Y-107032619D01*
X121008333Y-107032619D02*
X120913095Y-107080238D01*
X120913095Y-107080238D02*
X120865476Y-107127857D01*
X120865476Y-107127857D02*
X120817857Y-107223095D01*
X120817857Y-107223095D02*
X120817857Y-107365952D01*
X120817857Y-107365952D02*
X120865476Y-107461190D01*
X120865476Y-107461190D02*
X120913095Y-107508809D01*
X120913095Y-107508809D02*
X121008333Y-107556428D01*
X121008333Y-107556428D02*
X121389285Y-107556428D01*
X120436904Y-107127857D02*
X120389285Y-107080238D01*
X120389285Y-107080238D02*
X120294047Y-107032619D01*
X120294047Y-107032619D02*
X120055952Y-107032619D01*
X120055952Y-107032619D02*
X119960714Y-107080238D01*
X119960714Y-107080238D02*
X119913095Y-107127857D01*
X119913095Y-107127857D02*
X119865476Y-107223095D01*
X119865476Y-107223095D02*
X119865476Y-107318333D01*
X119865476Y-107318333D02*
X119913095Y-107461190D01*
X119913095Y-107461190D02*
X120484523Y-108032619D01*
X120484523Y-108032619D02*
X119865476Y-108032619D01*
X119532142Y-107032619D02*
X118913095Y-107032619D01*
X118913095Y-107032619D02*
X119246428Y-107413571D01*
X119246428Y-107413571D02*
X119103571Y-107413571D01*
X119103571Y-107413571D02*
X119008333Y-107461190D01*
X119008333Y-107461190D02*
X118960714Y-107508809D01*
X118960714Y-107508809D02*
X118913095Y-107604047D01*
X118913095Y-107604047D02*
X118913095Y-107842142D01*
X118913095Y-107842142D02*
X118960714Y-107937380D01*
X118960714Y-107937380D02*
X119008333Y-107985000D01*
X119008333Y-107985000D02*
X119103571Y-108032619D01*
X119103571Y-108032619D02*
X119389285Y-108032619D01*
X119389285Y-108032619D02*
X119484523Y-107985000D01*
X119484523Y-107985000D02*
X119532142Y-107937380D01*
%TO.C,U8*%
X168047619Y-122438095D02*
X168857142Y-122438095D01*
X168857142Y-122438095D02*
X168952380Y-122485714D01*
X168952380Y-122485714D02*
X169000000Y-122533333D01*
X169000000Y-122533333D02*
X169047619Y-122628571D01*
X169047619Y-122628571D02*
X169047619Y-122819047D01*
X169047619Y-122819047D02*
X169000000Y-122914285D01*
X169000000Y-122914285D02*
X168952380Y-122961904D01*
X168952380Y-122961904D02*
X168857142Y-123009523D01*
X168857142Y-123009523D02*
X168047619Y-123009523D01*
X168476190Y-123628571D02*
X168428571Y-123533333D01*
X168428571Y-123533333D02*
X168380952Y-123485714D01*
X168380952Y-123485714D02*
X168285714Y-123438095D01*
X168285714Y-123438095D02*
X168238095Y-123438095D01*
X168238095Y-123438095D02*
X168142857Y-123485714D01*
X168142857Y-123485714D02*
X168095238Y-123533333D01*
X168095238Y-123533333D02*
X168047619Y-123628571D01*
X168047619Y-123628571D02*
X168047619Y-123819047D01*
X168047619Y-123819047D02*
X168095238Y-123914285D01*
X168095238Y-123914285D02*
X168142857Y-123961904D01*
X168142857Y-123961904D02*
X168238095Y-124009523D01*
X168238095Y-124009523D02*
X168285714Y-124009523D01*
X168285714Y-124009523D02*
X168380952Y-123961904D01*
X168380952Y-123961904D02*
X168428571Y-123914285D01*
X168428571Y-123914285D02*
X168476190Y-123819047D01*
X168476190Y-123819047D02*
X168476190Y-123628571D01*
X168476190Y-123628571D02*
X168523809Y-123533333D01*
X168523809Y-123533333D02*
X168571428Y-123485714D01*
X168571428Y-123485714D02*
X168666666Y-123438095D01*
X168666666Y-123438095D02*
X168857142Y-123438095D01*
X168857142Y-123438095D02*
X168952380Y-123485714D01*
X168952380Y-123485714D02*
X169000000Y-123533333D01*
X169000000Y-123533333D02*
X169047619Y-123628571D01*
X169047619Y-123628571D02*
X169047619Y-123819047D01*
X169047619Y-123819047D02*
X169000000Y-123914285D01*
X169000000Y-123914285D02*
X168952380Y-123961904D01*
X168952380Y-123961904D02*
X168857142Y-124009523D01*
X168857142Y-124009523D02*
X168666666Y-124009523D01*
X168666666Y-124009523D02*
X168571428Y-123961904D01*
X168571428Y-123961904D02*
X168523809Y-123914285D01*
X168523809Y-123914285D02*
X168476190Y-123819047D01*
%TO.C,U5*%
X87236904Y-97007619D02*
X87236904Y-97817142D01*
X87236904Y-97817142D02*
X87189285Y-97912380D01*
X87189285Y-97912380D02*
X87141666Y-97960000D01*
X87141666Y-97960000D02*
X87046428Y-98007619D01*
X87046428Y-98007619D02*
X86855952Y-98007619D01*
X86855952Y-98007619D02*
X86760714Y-97960000D01*
X86760714Y-97960000D02*
X86713095Y-97912380D01*
X86713095Y-97912380D02*
X86665476Y-97817142D01*
X86665476Y-97817142D02*
X86665476Y-97007619D01*
X85713095Y-97007619D02*
X86189285Y-97007619D01*
X86189285Y-97007619D02*
X86236904Y-97483809D01*
X86236904Y-97483809D02*
X86189285Y-97436190D01*
X86189285Y-97436190D02*
X86094047Y-97388571D01*
X86094047Y-97388571D02*
X85855952Y-97388571D01*
X85855952Y-97388571D02*
X85760714Y-97436190D01*
X85760714Y-97436190D02*
X85713095Y-97483809D01*
X85713095Y-97483809D02*
X85665476Y-97579047D01*
X85665476Y-97579047D02*
X85665476Y-97817142D01*
X85665476Y-97817142D02*
X85713095Y-97912380D01*
X85713095Y-97912380D02*
X85760714Y-97960000D01*
X85760714Y-97960000D02*
X85855952Y-98007619D01*
X85855952Y-98007619D02*
X86094047Y-98007619D01*
X86094047Y-98007619D02*
X86189285Y-97960000D01*
X86189285Y-97960000D02*
X86236904Y-97912380D01*
%TO.C,R31*%
X176917857Y-139032619D02*
X177251190Y-138556428D01*
X177489285Y-139032619D02*
X177489285Y-138032619D01*
X177489285Y-138032619D02*
X177108333Y-138032619D01*
X177108333Y-138032619D02*
X177013095Y-138080238D01*
X177013095Y-138080238D02*
X176965476Y-138127857D01*
X176965476Y-138127857D02*
X176917857Y-138223095D01*
X176917857Y-138223095D02*
X176917857Y-138365952D01*
X176917857Y-138365952D02*
X176965476Y-138461190D01*
X176965476Y-138461190D02*
X177013095Y-138508809D01*
X177013095Y-138508809D02*
X177108333Y-138556428D01*
X177108333Y-138556428D02*
X177489285Y-138556428D01*
X176584523Y-138032619D02*
X175965476Y-138032619D01*
X175965476Y-138032619D02*
X176298809Y-138413571D01*
X176298809Y-138413571D02*
X176155952Y-138413571D01*
X176155952Y-138413571D02*
X176060714Y-138461190D01*
X176060714Y-138461190D02*
X176013095Y-138508809D01*
X176013095Y-138508809D02*
X175965476Y-138604047D01*
X175965476Y-138604047D02*
X175965476Y-138842142D01*
X175965476Y-138842142D02*
X176013095Y-138937380D01*
X176013095Y-138937380D02*
X176060714Y-138985000D01*
X176060714Y-138985000D02*
X176155952Y-139032619D01*
X176155952Y-139032619D02*
X176441666Y-139032619D01*
X176441666Y-139032619D02*
X176536904Y-138985000D01*
X176536904Y-138985000D02*
X176584523Y-138937380D01*
X175013095Y-139032619D02*
X175584523Y-139032619D01*
X175298809Y-139032619D02*
X175298809Y-138032619D01*
X175298809Y-138032619D02*
X175394047Y-138175476D01*
X175394047Y-138175476D02*
X175489285Y-138270714D01*
X175489285Y-138270714D02*
X175584523Y-138318333D01*
%TO.C,R39*%
X171467857Y-116032619D02*
X171801190Y-115556428D01*
X172039285Y-116032619D02*
X172039285Y-115032619D01*
X172039285Y-115032619D02*
X171658333Y-115032619D01*
X171658333Y-115032619D02*
X171563095Y-115080238D01*
X171563095Y-115080238D02*
X171515476Y-115127857D01*
X171515476Y-115127857D02*
X171467857Y-115223095D01*
X171467857Y-115223095D02*
X171467857Y-115365952D01*
X171467857Y-115365952D02*
X171515476Y-115461190D01*
X171515476Y-115461190D02*
X171563095Y-115508809D01*
X171563095Y-115508809D02*
X171658333Y-115556428D01*
X171658333Y-115556428D02*
X172039285Y-115556428D01*
X171134523Y-115032619D02*
X170515476Y-115032619D01*
X170515476Y-115032619D02*
X170848809Y-115413571D01*
X170848809Y-115413571D02*
X170705952Y-115413571D01*
X170705952Y-115413571D02*
X170610714Y-115461190D01*
X170610714Y-115461190D02*
X170563095Y-115508809D01*
X170563095Y-115508809D02*
X170515476Y-115604047D01*
X170515476Y-115604047D02*
X170515476Y-115842142D01*
X170515476Y-115842142D02*
X170563095Y-115937380D01*
X170563095Y-115937380D02*
X170610714Y-115985000D01*
X170610714Y-115985000D02*
X170705952Y-116032619D01*
X170705952Y-116032619D02*
X170991666Y-116032619D01*
X170991666Y-116032619D02*
X171086904Y-115985000D01*
X171086904Y-115985000D02*
X171134523Y-115937380D01*
X170039285Y-116032619D02*
X169848809Y-116032619D01*
X169848809Y-116032619D02*
X169753571Y-115985000D01*
X169753571Y-115985000D02*
X169705952Y-115937380D01*
X169705952Y-115937380D02*
X169610714Y-115794523D01*
X169610714Y-115794523D02*
X169563095Y-115604047D01*
X169563095Y-115604047D02*
X169563095Y-115223095D01*
X169563095Y-115223095D02*
X169610714Y-115127857D01*
X169610714Y-115127857D02*
X169658333Y-115080238D01*
X169658333Y-115080238D02*
X169753571Y-115032619D01*
X169753571Y-115032619D02*
X169944047Y-115032619D01*
X169944047Y-115032619D02*
X170039285Y-115080238D01*
X170039285Y-115080238D02*
X170086904Y-115127857D01*
X170086904Y-115127857D02*
X170134523Y-115223095D01*
X170134523Y-115223095D02*
X170134523Y-115461190D01*
X170134523Y-115461190D02*
X170086904Y-115556428D01*
X170086904Y-115556428D02*
X170039285Y-115604047D01*
X170039285Y-115604047D02*
X169944047Y-115651666D01*
X169944047Y-115651666D02*
X169753571Y-115651666D01*
X169753571Y-115651666D02*
X169658333Y-115604047D01*
X169658333Y-115604047D02*
X169610714Y-115556428D01*
X169610714Y-115556428D02*
X169563095Y-115461190D01*
%TO.C,R32*%
X135817857Y-120892619D02*
X136151190Y-120416428D01*
X136389285Y-120892619D02*
X136389285Y-119892619D01*
X136389285Y-119892619D02*
X136008333Y-119892619D01*
X136008333Y-119892619D02*
X135913095Y-119940238D01*
X135913095Y-119940238D02*
X135865476Y-119987857D01*
X135865476Y-119987857D02*
X135817857Y-120083095D01*
X135817857Y-120083095D02*
X135817857Y-120225952D01*
X135817857Y-120225952D02*
X135865476Y-120321190D01*
X135865476Y-120321190D02*
X135913095Y-120368809D01*
X135913095Y-120368809D02*
X136008333Y-120416428D01*
X136008333Y-120416428D02*
X136389285Y-120416428D01*
X135484523Y-119892619D02*
X134865476Y-119892619D01*
X134865476Y-119892619D02*
X135198809Y-120273571D01*
X135198809Y-120273571D02*
X135055952Y-120273571D01*
X135055952Y-120273571D02*
X134960714Y-120321190D01*
X134960714Y-120321190D02*
X134913095Y-120368809D01*
X134913095Y-120368809D02*
X134865476Y-120464047D01*
X134865476Y-120464047D02*
X134865476Y-120702142D01*
X134865476Y-120702142D02*
X134913095Y-120797380D01*
X134913095Y-120797380D02*
X134960714Y-120845000D01*
X134960714Y-120845000D02*
X135055952Y-120892619D01*
X135055952Y-120892619D02*
X135341666Y-120892619D01*
X135341666Y-120892619D02*
X135436904Y-120845000D01*
X135436904Y-120845000D02*
X135484523Y-120797380D01*
X134484523Y-119987857D02*
X134436904Y-119940238D01*
X134436904Y-119940238D02*
X134341666Y-119892619D01*
X134341666Y-119892619D02*
X134103571Y-119892619D01*
X134103571Y-119892619D02*
X134008333Y-119940238D01*
X134008333Y-119940238D02*
X133960714Y-119987857D01*
X133960714Y-119987857D02*
X133913095Y-120083095D01*
X133913095Y-120083095D02*
X133913095Y-120178333D01*
X133913095Y-120178333D02*
X133960714Y-120321190D01*
X133960714Y-120321190D02*
X134532142Y-120892619D01*
X134532142Y-120892619D02*
X133913095Y-120892619D01*
%TO.C,R3*%
X161032619Y-133658333D02*
X160556428Y-133325000D01*
X161032619Y-133086905D02*
X160032619Y-133086905D01*
X160032619Y-133086905D02*
X160032619Y-133467857D01*
X160032619Y-133467857D02*
X160080238Y-133563095D01*
X160080238Y-133563095D02*
X160127857Y-133610714D01*
X160127857Y-133610714D02*
X160223095Y-133658333D01*
X160223095Y-133658333D02*
X160365952Y-133658333D01*
X160365952Y-133658333D02*
X160461190Y-133610714D01*
X160461190Y-133610714D02*
X160508809Y-133563095D01*
X160508809Y-133563095D02*
X160556428Y-133467857D01*
X160556428Y-133467857D02*
X160556428Y-133086905D01*
X160032619Y-133991667D02*
X160032619Y-134610714D01*
X160032619Y-134610714D02*
X160413571Y-134277381D01*
X160413571Y-134277381D02*
X160413571Y-134420238D01*
X160413571Y-134420238D02*
X160461190Y-134515476D01*
X160461190Y-134515476D02*
X160508809Y-134563095D01*
X160508809Y-134563095D02*
X160604047Y-134610714D01*
X160604047Y-134610714D02*
X160842142Y-134610714D01*
X160842142Y-134610714D02*
X160937380Y-134563095D01*
X160937380Y-134563095D02*
X160985000Y-134515476D01*
X160985000Y-134515476D02*
X161032619Y-134420238D01*
X161032619Y-134420238D02*
X161032619Y-134134524D01*
X161032619Y-134134524D02*
X160985000Y-134039286D01*
X160985000Y-134039286D02*
X160937380Y-133991667D01*
%TO.C,R37*%
X177017857Y-122832619D02*
X177351190Y-122356428D01*
X177589285Y-122832619D02*
X177589285Y-121832619D01*
X177589285Y-121832619D02*
X177208333Y-121832619D01*
X177208333Y-121832619D02*
X177113095Y-121880238D01*
X177113095Y-121880238D02*
X177065476Y-121927857D01*
X177065476Y-121927857D02*
X177017857Y-122023095D01*
X177017857Y-122023095D02*
X177017857Y-122165952D01*
X177017857Y-122165952D02*
X177065476Y-122261190D01*
X177065476Y-122261190D02*
X177113095Y-122308809D01*
X177113095Y-122308809D02*
X177208333Y-122356428D01*
X177208333Y-122356428D02*
X177589285Y-122356428D01*
X176684523Y-121832619D02*
X176065476Y-121832619D01*
X176065476Y-121832619D02*
X176398809Y-122213571D01*
X176398809Y-122213571D02*
X176255952Y-122213571D01*
X176255952Y-122213571D02*
X176160714Y-122261190D01*
X176160714Y-122261190D02*
X176113095Y-122308809D01*
X176113095Y-122308809D02*
X176065476Y-122404047D01*
X176065476Y-122404047D02*
X176065476Y-122642142D01*
X176065476Y-122642142D02*
X176113095Y-122737380D01*
X176113095Y-122737380D02*
X176160714Y-122785000D01*
X176160714Y-122785000D02*
X176255952Y-122832619D01*
X176255952Y-122832619D02*
X176541666Y-122832619D01*
X176541666Y-122832619D02*
X176636904Y-122785000D01*
X176636904Y-122785000D02*
X176684523Y-122737380D01*
X175732142Y-121832619D02*
X175065476Y-121832619D01*
X175065476Y-121832619D02*
X175494047Y-122832619D01*
%TO.C,R38*%
X135817857Y-136892619D02*
X136151190Y-136416428D01*
X136389285Y-136892619D02*
X136389285Y-135892619D01*
X136389285Y-135892619D02*
X136008333Y-135892619D01*
X136008333Y-135892619D02*
X135913095Y-135940238D01*
X135913095Y-135940238D02*
X135865476Y-135987857D01*
X135865476Y-135987857D02*
X135817857Y-136083095D01*
X135817857Y-136083095D02*
X135817857Y-136225952D01*
X135817857Y-136225952D02*
X135865476Y-136321190D01*
X135865476Y-136321190D02*
X135913095Y-136368809D01*
X135913095Y-136368809D02*
X136008333Y-136416428D01*
X136008333Y-136416428D02*
X136389285Y-136416428D01*
X135484523Y-135892619D02*
X134865476Y-135892619D01*
X134865476Y-135892619D02*
X135198809Y-136273571D01*
X135198809Y-136273571D02*
X135055952Y-136273571D01*
X135055952Y-136273571D02*
X134960714Y-136321190D01*
X134960714Y-136321190D02*
X134913095Y-136368809D01*
X134913095Y-136368809D02*
X134865476Y-136464047D01*
X134865476Y-136464047D02*
X134865476Y-136702142D01*
X134865476Y-136702142D02*
X134913095Y-136797380D01*
X134913095Y-136797380D02*
X134960714Y-136845000D01*
X134960714Y-136845000D02*
X135055952Y-136892619D01*
X135055952Y-136892619D02*
X135341666Y-136892619D01*
X135341666Y-136892619D02*
X135436904Y-136845000D01*
X135436904Y-136845000D02*
X135484523Y-136797380D01*
X134294047Y-136321190D02*
X134389285Y-136273571D01*
X134389285Y-136273571D02*
X134436904Y-136225952D01*
X134436904Y-136225952D02*
X134484523Y-136130714D01*
X134484523Y-136130714D02*
X134484523Y-136083095D01*
X134484523Y-136083095D02*
X134436904Y-135987857D01*
X134436904Y-135987857D02*
X134389285Y-135940238D01*
X134389285Y-135940238D02*
X134294047Y-135892619D01*
X134294047Y-135892619D02*
X134103571Y-135892619D01*
X134103571Y-135892619D02*
X134008333Y-135940238D01*
X134008333Y-135940238D02*
X133960714Y-135987857D01*
X133960714Y-135987857D02*
X133913095Y-136083095D01*
X133913095Y-136083095D02*
X133913095Y-136130714D01*
X133913095Y-136130714D02*
X133960714Y-136225952D01*
X133960714Y-136225952D02*
X134008333Y-136273571D01*
X134008333Y-136273571D02*
X134103571Y-136321190D01*
X134103571Y-136321190D02*
X134294047Y-136321190D01*
X134294047Y-136321190D02*
X134389285Y-136368809D01*
X134389285Y-136368809D02*
X134436904Y-136416428D01*
X134436904Y-136416428D02*
X134484523Y-136511666D01*
X134484523Y-136511666D02*
X134484523Y-136702142D01*
X134484523Y-136702142D02*
X134436904Y-136797380D01*
X134436904Y-136797380D02*
X134389285Y-136845000D01*
X134389285Y-136845000D02*
X134294047Y-136892619D01*
X134294047Y-136892619D02*
X134103571Y-136892619D01*
X134103571Y-136892619D02*
X134008333Y-136845000D01*
X134008333Y-136845000D02*
X133960714Y-136797380D01*
X133960714Y-136797380D02*
X133913095Y-136702142D01*
X133913095Y-136702142D02*
X133913095Y-136511666D01*
X133913095Y-136511666D02*
X133960714Y-136416428D01*
X133960714Y-136416428D02*
X134008333Y-136368809D01*
X134008333Y-136368809D02*
X134103571Y-136321190D01*
%TO.C,R40*%
X172567857Y-128432619D02*
X172901190Y-127956428D01*
X173139285Y-128432619D02*
X173139285Y-127432619D01*
X173139285Y-127432619D02*
X172758333Y-127432619D01*
X172758333Y-127432619D02*
X172663095Y-127480238D01*
X172663095Y-127480238D02*
X172615476Y-127527857D01*
X172615476Y-127527857D02*
X172567857Y-127623095D01*
X172567857Y-127623095D02*
X172567857Y-127765952D01*
X172567857Y-127765952D02*
X172615476Y-127861190D01*
X172615476Y-127861190D02*
X172663095Y-127908809D01*
X172663095Y-127908809D02*
X172758333Y-127956428D01*
X172758333Y-127956428D02*
X173139285Y-127956428D01*
X171710714Y-127765952D02*
X171710714Y-128432619D01*
X171948809Y-127385000D02*
X172186904Y-128099285D01*
X172186904Y-128099285D02*
X171567857Y-128099285D01*
X170996428Y-127432619D02*
X170901190Y-127432619D01*
X170901190Y-127432619D02*
X170805952Y-127480238D01*
X170805952Y-127480238D02*
X170758333Y-127527857D01*
X170758333Y-127527857D02*
X170710714Y-127623095D01*
X170710714Y-127623095D02*
X170663095Y-127813571D01*
X170663095Y-127813571D02*
X170663095Y-128051666D01*
X170663095Y-128051666D02*
X170710714Y-128242142D01*
X170710714Y-128242142D02*
X170758333Y-128337380D01*
X170758333Y-128337380D02*
X170805952Y-128385000D01*
X170805952Y-128385000D02*
X170901190Y-128432619D01*
X170901190Y-128432619D02*
X170996428Y-128432619D01*
X170996428Y-128432619D02*
X171091666Y-128385000D01*
X171091666Y-128385000D02*
X171139285Y-128337380D01*
X171139285Y-128337380D02*
X171186904Y-128242142D01*
X171186904Y-128242142D02*
X171234523Y-128051666D01*
X171234523Y-128051666D02*
X171234523Y-127813571D01*
X171234523Y-127813571D02*
X171186904Y-127623095D01*
X171186904Y-127623095D02*
X171139285Y-127527857D01*
X171139285Y-127527857D02*
X171091666Y-127480238D01*
X171091666Y-127480238D02*
X170996428Y-127432619D01*
%TO.C,R19*%
X120817857Y-96032619D02*
X121151190Y-95556428D01*
X121389285Y-96032619D02*
X121389285Y-95032619D01*
X121389285Y-95032619D02*
X121008333Y-95032619D01*
X121008333Y-95032619D02*
X120913095Y-95080238D01*
X120913095Y-95080238D02*
X120865476Y-95127857D01*
X120865476Y-95127857D02*
X120817857Y-95223095D01*
X120817857Y-95223095D02*
X120817857Y-95365952D01*
X120817857Y-95365952D02*
X120865476Y-95461190D01*
X120865476Y-95461190D02*
X120913095Y-95508809D01*
X120913095Y-95508809D02*
X121008333Y-95556428D01*
X121008333Y-95556428D02*
X121389285Y-95556428D01*
X119865476Y-96032619D02*
X120436904Y-96032619D01*
X120151190Y-96032619D02*
X120151190Y-95032619D01*
X120151190Y-95032619D02*
X120246428Y-95175476D01*
X120246428Y-95175476D02*
X120341666Y-95270714D01*
X120341666Y-95270714D02*
X120436904Y-95318333D01*
X119389285Y-96032619D02*
X119198809Y-96032619D01*
X119198809Y-96032619D02*
X119103571Y-95985000D01*
X119103571Y-95985000D02*
X119055952Y-95937380D01*
X119055952Y-95937380D02*
X118960714Y-95794523D01*
X118960714Y-95794523D02*
X118913095Y-95604047D01*
X118913095Y-95604047D02*
X118913095Y-95223095D01*
X118913095Y-95223095D02*
X118960714Y-95127857D01*
X118960714Y-95127857D02*
X119008333Y-95080238D01*
X119008333Y-95080238D02*
X119103571Y-95032619D01*
X119103571Y-95032619D02*
X119294047Y-95032619D01*
X119294047Y-95032619D02*
X119389285Y-95080238D01*
X119389285Y-95080238D02*
X119436904Y-95127857D01*
X119436904Y-95127857D02*
X119484523Y-95223095D01*
X119484523Y-95223095D02*
X119484523Y-95461190D01*
X119484523Y-95461190D02*
X119436904Y-95556428D01*
X119436904Y-95556428D02*
X119389285Y-95604047D01*
X119389285Y-95604047D02*
X119294047Y-95651666D01*
X119294047Y-95651666D02*
X119103571Y-95651666D01*
X119103571Y-95651666D02*
X119008333Y-95604047D01*
X119008333Y-95604047D02*
X118960714Y-95556428D01*
X118960714Y-95556428D02*
X118913095Y-95461190D01*
%TO.C,R24*%
X130817857Y-108032619D02*
X131151190Y-107556428D01*
X131389285Y-108032619D02*
X131389285Y-107032619D01*
X131389285Y-107032619D02*
X131008333Y-107032619D01*
X131008333Y-107032619D02*
X130913095Y-107080238D01*
X130913095Y-107080238D02*
X130865476Y-107127857D01*
X130865476Y-107127857D02*
X130817857Y-107223095D01*
X130817857Y-107223095D02*
X130817857Y-107365952D01*
X130817857Y-107365952D02*
X130865476Y-107461190D01*
X130865476Y-107461190D02*
X130913095Y-107508809D01*
X130913095Y-107508809D02*
X131008333Y-107556428D01*
X131008333Y-107556428D02*
X131389285Y-107556428D01*
X130436904Y-107127857D02*
X130389285Y-107080238D01*
X130389285Y-107080238D02*
X130294047Y-107032619D01*
X130294047Y-107032619D02*
X130055952Y-107032619D01*
X130055952Y-107032619D02*
X129960714Y-107080238D01*
X129960714Y-107080238D02*
X129913095Y-107127857D01*
X129913095Y-107127857D02*
X129865476Y-107223095D01*
X129865476Y-107223095D02*
X129865476Y-107318333D01*
X129865476Y-107318333D02*
X129913095Y-107461190D01*
X129913095Y-107461190D02*
X130484523Y-108032619D01*
X130484523Y-108032619D02*
X129865476Y-108032619D01*
X129008333Y-107365952D02*
X129008333Y-108032619D01*
X129246428Y-106985000D02*
X129484523Y-107699285D01*
X129484523Y-107699285D02*
X128865476Y-107699285D01*
D11*
%TO.C,R27*%
X162762258Y-108022500D02*
X162287742Y-108022500D01*
X162762258Y-106977500D02*
X162287742Y-106977500D01*
%TO.C,R29*%
X176512258Y-138922500D02*
X176037742Y-138922500D01*
X176512258Y-137877500D02*
X176037742Y-137877500D01*
%TO.C,R1*%
X162522500Y-122762742D02*
X162522500Y-123237258D01*
X161477500Y-122762742D02*
X161477500Y-123237258D01*
%TO.C,R17*%
X100412258Y-97522500D02*
X99937742Y-97522500D01*
X100412258Y-96477500D02*
X99937742Y-96477500D01*
%TO.C,R18*%
X110412258Y-97522500D02*
X109937742Y-97522500D01*
X110412258Y-96477500D02*
X109937742Y-96477500D01*
%TO.C,J1*%
X75330000Y-122330000D02*
X72670000Y-122330000D01*
X75330000Y-79090000D02*
X75330000Y-122330000D01*
X75330000Y-79090000D02*
X72670000Y-79090000D01*
X75330000Y-77820000D02*
X75330000Y-76490000D01*
X75330000Y-76490000D02*
X74000000Y-76490000D01*
X72670000Y-79090000D02*
X72670000Y-122330000D01*
%TO.C,R8*%
X156732500Y-95837742D02*
X156732500Y-96312258D01*
X155687500Y-95837742D02*
X155687500Y-96312258D01*
%TO.C,R13*%
X100412258Y-85522500D02*
X99937742Y-85522500D01*
X100412258Y-84477500D02*
X99937742Y-84477500D01*
%TO.C,R35*%
X176612258Y-122722500D02*
X176137742Y-122722500D01*
X176612258Y-121677500D02*
X176137742Y-121677500D01*
%TO.C,R6*%
X165847500Y-79422258D02*
X165847500Y-78947742D01*
X166892500Y-79422258D02*
X166892500Y-78947742D01*
%TO.C,J7*%
X187330000Y-123330000D02*
X184670000Y-123330000D01*
X187330000Y-80090000D02*
X187330000Y-123330000D01*
X187330000Y-80090000D02*
X184670000Y-80090000D01*
X187330000Y-78820000D02*
X187330000Y-77490000D01*
X187330000Y-77490000D02*
X186000000Y-77490000D01*
X184670000Y-80090000D02*
X184670000Y-123330000D01*
%TO.C,R9*%
X154192500Y-95837742D02*
X154192500Y-96312258D01*
X153147500Y-95837742D02*
X153147500Y-96312258D01*
%TO.C,R26*%
X152762258Y-108022500D02*
X152287742Y-108022500D01*
X152762258Y-106977500D02*
X152287742Y-106977500D01*
%TO.C,U6*%
X149475000Y-62615000D02*
X151425000Y-62615000D01*
X149475000Y-62615000D02*
X147525000Y-62615000D01*
X149475000Y-52495000D02*
X152925000Y-52495000D01*
X149475000Y-52495000D02*
X147525000Y-52495000D01*
%TO.C,R5*%
X155687500Y-79422258D02*
X155687500Y-78947742D01*
X156732500Y-79422258D02*
X156732500Y-78947742D01*
%TO.C,U1*%
X145475000Y-86155000D02*
X147425000Y-86155000D01*
X145475000Y-86155000D02*
X143525000Y-86155000D01*
X145475000Y-76035000D02*
X148925000Y-76035000D01*
X145475000Y-76035000D02*
X143525000Y-76035000D01*
%TO.C,R30*%
X122937742Y-118477500D02*
X123412258Y-118477500D01*
X122937742Y-119522500D02*
X123412258Y-119522500D01*
%TO.C,R36*%
X122937742Y-134477500D02*
X123412258Y-134477500D01*
X122937742Y-135522500D02*
X123412258Y-135522500D01*
%TO.C,R20*%
X130412258Y-97522500D02*
X129937742Y-97522500D01*
X130412258Y-96477500D02*
X129937742Y-96477500D01*
%TO.C,R7*%
X161812500Y-95837742D02*
X161812500Y-96312258D01*
X160767500Y-95837742D02*
X160767500Y-96312258D01*
%TO.C,R4*%
X162522500Y-139587742D02*
X162522500Y-140062258D01*
X161477500Y-139587742D02*
X161477500Y-140062258D01*
%TO.C,R12*%
X159272500Y-95837742D02*
X159272500Y-96312258D01*
X158227500Y-95837742D02*
X158227500Y-96312258D01*
%TO.C,C4*%
X172065580Y-128310000D02*
X171784420Y-128310000D01*
X172065580Y-127290000D02*
X171784420Y-127290000D01*
%TO.C,R16*%
X130412258Y-85522500D02*
X129937742Y-85522500D01*
X130412258Y-84477500D02*
X129937742Y-84477500D01*
%TO.C,U4*%
X86475000Y-92235000D02*
X88425000Y-92235000D01*
X86475000Y-92235000D02*
X84525000Y-92235000D01*
X86475000Y-82115000D02*
X89925000Y-82115000D01*
X86475000Y-82115000D02*
X84525000Y-82115000D01*
%TO.C,R11*%
X164352500Y-95837742D02*
X164352500Y-96312258D01*
X163307500Y-95837742D02*
X163307500Y-96312258D01*
%TO.C,R22*%
X110412258Y-109522500D02*
X109937742Y-109522500D01*
X110412258Y-108477500D02*
X109937742Y-108477500D01*
%TO.C,U2*%
X145525000Y-97965000D02*
X147475000Y-97965000D01*
X145525000Y-97965000D02*
X143575000Y-97965000D01*
X145525000Y-87845000D02*
X148975000Y-87845000D01*
X145525000Y-87845000D02*
X143575000Y-87845000D01*
%TO.C,U9*%
X168475000Y-62505000D02*
X170425000Y-62505000D01*
X168475000Y-62505000D02*
X166525000Y-62505000D01*
X168475000Y-52385000D02*
X171925000Y-52385000D01*
X168475000Y-52385000D02*
X166525000Y-52385000D01*
%TO.C,R15*%
X120412258Y-85522500D02*
X119937742Y-85522500D01*
X120412258Y-84477500D02*
X119937742Y-84477500D01*
%TO.C,C2*%
X172165580Y-144310000D02*
X171884420Y-144310000D01*
X172165580Y-143290000D02*
X171884420Y-143290000D01*
%TO.C,R2*%
X162522500Y-128587742D02*
X162522500Y-129062258D01*
X161477500Y-128587742D02*
X161477500Y-129062258D01*
%TO.C,R10*%
X158227500Y-79422258D02*
X158227500Y-78947742D01*
X159272500Y-79422258D02*
X159272500Y-78947742D01*
%TO.C,C1*%
X170865580Y-135010000D02*
X170584420Y-135010000D01*
X170865580Y-133990000D02*
X170584420Y-133990000D01*
%TO.C,R28*%
X172762258Y-108022500D02*
X172287742Y-108022500D01*
X172762258Y-106977500D02*
X172287742Y-106977500D01*
%TO.C,R34*%
X172262258Y-145922500D02*
X171787742Y-145922500D01*
X172262258Y-144877500D02*
X171787742Y-144877500D01*
%TO.C,R33*%
X170962258Y-133422500D02*
X170487742Y-133422500D01*
X170962258Y-132377500D02*
X170487742Y-132377500D01*
%TO.C,R21*%
X100412258Y-109522500D02*
X99937742Y-109522500D01*
X100412258Y-108477500D02*
X99937742Y-108477500D01*
%TO.C,U7*%
X174510000Y-139200000D02*
X174510000Y-137250000D01*
X174510000Y-139200000D02*
X174510000Y-141150000D01*
X169390000Y-139200000D02*
X169390000Y-135750000D01*
X169390000Y-139200000D02*
X169390000Y-141150000D01*
%TO.C,C3*%
X170965580Y-119110000D02*
X170684420Y-119110000D01*
X170965580Y-118090000D02*
X170684420Y-118090000D01*
%TO.C,R25*%
X142762258Y-108022500D02*
X142287742Y-108022500D01*
X142762258Y-106977500D02*
X142287742Y-106977500D01*
%TO.C,R14*%
X110412258Y-85522500D02*
X109937742Y-85522500D01*
X110412258Y-84477500D02*
X109937742Y-84477500D01*
%TO.C,R23*%
X120412258Y-109522500D02*
X119937742Y-109522500D01*
X120412258Y-108477500D02*
X119937742Y-108477500D01*
%TO.C,U8*%
X174545000Y-123200000D02*
X174545000Y-121250000D01*
X174545000Y-123200000D02*
X174545000Y-125150000D01*
X169425000Y-123200000D02*
X169425000Y-119750000D01*
X169425000Y-123200000D02*
X169425000Y-125150000D01*
%TO.C,U5*%
X86475000Y-108505000D02*
X88425000Y-108505000D01*
X86475000Y-108505000D02*
X84525000Y-108505000D01*
X86475000Y-98385000D02*
X89925000Y-98385000D01*
X86475000Y-98385000D02*
X84525000Y-98385000D01*
%TO.C,R31*%
X176512258Y-140522500D02*
X176037742Y-140522500D01*
X176512258Y-139477500D02*
X176037742Y-139477500D01*
%TO.C,R39*%
X171062258Y-117522500D02*
X170587742Y-117522500D01*
X171062258Y-116477500D02*
X170587742Y-116477500D01*
%TO.C,R32*%
X134937742Y-118477500D02*
X135412258Y-118477500D01*
X134937742Y-119522500D02*
X135412258Y-119522500D01*
%TO.C,R3*%
X162522500Y-133587742D02*
X162522500Y-134062258D01*
X161477500Y-133587742D02*
X161477500Y-134062258D01*
%TO.C,R37*%
X176612258Y-124322500D02*
X176137742Y-124322500D01*
X176612258Y-123277500D02*
X176137742Y-123277500D01*
%TO.C,R38*%
X134937742Y-134477500D02*
X135412258Y-134477500D01*
X134937742Y-135522500D02*
X135412258Y-135522500D01*
%TO.C,R40*%
X172162258Y-129922500D02*
X171687742Y-129922500D01*
X172162258Y-128877500D02*
X171687742Y-128877500D01*
%TO.C,R19*%
X120412258Y-97522500D02*
X119937742Y-97522500D01*
X120412258Y-96477500D02*
X119937742Y-96477500D01*
%TO.C,R24*%
X130412258Y-109522500D02*
X129937742Y-109522500D01*
X130412258Y-108477500D02*
X129937742Y-108477500D01*
%TD*%
%LPC*%
D12*
%TO.C,SW4*%
X107000000Y-81000000D03*
X113500000Y-81000000D03*
X107000000Y-85500000D03*
X113500000Y-85500000D03*
%TD*%
%TO.C,SW10*%
X127000000Y-93000000D03*
X133500000Y-93000000D03*
X127000000Y-97500000D03*
X133500000Y-97500000D03*
%TD*%
D13*
%TO.C,RV3*%
X115700000Y-45500000D03*
X125300000Y-45500000D03*
D14*
X118000000Y-53000000D03*
D15*
X120500000Y-53000000D03*
X123000000Y-53000000D03*
%TD*%
D16*
%TO.C,J2*%
X96000000Y-130400000D03*
D17*
X96000000Y-119000000D03*
X96000000Y-127300000D03*
%TD*%
D16*
%TO.C,J13*%
X132000000Y-130400000D03*
D17*
X132000000Y-119000000D03*
X132000000Y-127300000D03*
%TD*%
D13*
%TO.C,RV8*%
X134700000Y-65500000D03*
X144300000Y-65500000D03*
D14*
X137000000Y-73000000D03*
D15*
X139500000Y-73000000D03*
X142000000Y-73000000D03*
%TD*%
D16*
%TO.C,J12*%
X120000000Y-130400000D03*
D17*
X120000000Y-119000000D03*
X120000000Y-127300000D03*
%TD*%
D12*
%TO.C,SW3*%
X97000000Y-81000000D03*
X103500000Y-81000000D03*
X97000000Y-85500000D03*
X103500000Y-85500000D03*
%TD*%
D18*
%TO.C,H1*%
X74000000Y-56000000D03*
%TD*%
D16*
%TO.C,J11*%
X144000000Y-146400000D03*
D17*
X144000000Y-135000000D03*
X144000000Y-143300000D03*
%TD*%
D13*
%TO.C,RV4*%
X134700000Y-45500000D03*
X144300000Y-45500000D03*
D14*
X137000000Y-53000000D03*
D15*
X139500000Y-53000000D03*
X142000000Y-53000000D03*
%TD*%
D13*
%TO.C,RV1*%
X77700000Y-45500000D03*
X87300000Y-45500000D03*
D14*
X80000000Y-53000000D03*
D15*
X82500000Y-53000000D03*
X85000000Y-53000000D03*
%TD*%
D13*
%TO.C,RV10*%
X172700000Y-45500000D03*
X182300000Y-45500000D03*
D14*
X175000000Y-53000000D03*
D15*
X177500000Y-53000000D03*
X180000000Y-53000000D03*
%TD*%
D16*
%TO.C,J4*%
X84000000Y-130400000D03*
D17*
X84000000Y-119000000D03*
X84000000Y-127300000D03*
%TD*%
D16*
%TO.C,J14*%
X120000000Y-146400000D03*
D17*
X120000000Y-135000000D03*
X120000000Y-143300000D03*
%TD*%
D16*
%TO.C,J15*%
X132000000Y-146400000D03*
D17*
X132000000Y-135000000D03*
X132000000Y-143300000D03*
%TD*%
D12*
%TO.C,SW5*%
X117000000Y-81000000D03*
X123500000Y-81000000D03*
X117000000Y-85500000D03*
X123500000Y-85500000D03*
%TD*%
%TO.C,SW8*%
X107000000Y-93000000D03*
X113500000Y-93000000D03*
X107000000Y-97500000D03*
X113500000Y-97500000D03*
%TD*%
D13*
%TO.C,RV7*%
X115700000Y-65500000D03*
X125300000Y-65500000D03*
D14*
X118000000Y-73000000D03*
D15*
X120500000Y-73000000D03*
X123000000Y-73000000D03*
%TD*%
D19*
%TO.C,U3*%
X154000000Y-93000000D03*
D20*
X156540000Y-93000000D03*
X159080000Y-93000000D03*
X161620000Y-93000000D03*
X164160000Y-93000000D03*
X166700000Y-93000000D03*
X166700000Y-82840000D03*
X164160000Y-82840000D03*
X161620000Y-82840000D03*
X159080000Y-82840000D03*
X156540000Y-82840000D03*
X154000000Y-82840000D03*
%TD*%
D21*
%TO.C,J6*%
X180400000Y-91700000D03*
X179300000Y-90600000D03*
X180400000Y-89500000D03*
X179300000Y-88400000D03*
X180400000Y-87300000D03*
X179300000Y-86200000D03*
X180400000Y-85100000D03*
X179300000Y-84000000D03*
D22*
X183570000Y-92150000D03*
X183570000Y-83550000D03*
%TD*%
D14*
%TO.C,D3*%
X157000000Y-134100000D03*
D15*
X159540000Y-134100000D03*
%TD*%
D13*
%TO.C,RV11*%
X153700000Y-65500000D03*
X163300000Y-65500000D03*
D14*
X156000000Y-73000000D03*
D15*
X158500000Y-73000000D03*
X161000000Y-73000000D03*
%TD*%
D13*
%TO.C,RV9*%
X153700000Y-45500000D03*
X163300000Y-45500000D03*
D14*
X156000000Y-53000000D03*
D15*
X158500000Y-53000000D03*
X161000000Y-53000000D03*
%TD*%
D16*
%TO.C,J8*%
X96000000Y-146400000D03*
D17*
X96000000Y-135000000D03*
X96000000Y-143300000D03*
%TD*%
D12*
%TO.C,SW17*%
X162000000Y-105000000D03*
X168500000Y-105000000D03*
X162000000Y-109500000D03*
X168500000Y-109500000D03*
%TD*%
%TO.C,SW15*%
X142000000Y-105000000D03*
X148500000Y-105000000D03*
X142000000Y-109500000D03*
X148500000Y-109500000D03*
%TD*%
D18*
%TO.C,H2*%
X186000000Y-56000000D03*
%TD*%
D12*
%TO.C,SW9*%
X117000000Y-93000000D03*
X123500000Y-93000000D03*
X117000000Y-97500000D03*
X123500000Y-97500000D03*
%TD*%
D14*
%TO.C,D2*%
X157000000Y-128550000D03*
D15*
X159540000Y-128550000D03*
%TD*%
D14*
%TO.C,D1*%
X157000000Y-123000000D03*
D15*
X159540000Y-123000000D03*
%TD*%
D12*
%TO.C,SW12*%
X107000000Y-105000000D03*
X113500000Y-105000000D03*
X107000000Y-109500000D03*
X113500000Y-109500000D03*
%TD*%
D16*
%TO.C,J5*%
X144000000Y-130400000D03*
D17*
X144000000Y-119000000D03*
X144000000Y-127300000D03*
%TD*%
D12*
%TO.C,SW14*%
X127000000Y-105000000D03*
X133500000Y-105000000D03*
X127000000Y-109500000D03*
X133500000Y-109500000D03*
%TD*%
D18*
%TO.C,H3*%
X74000000Y-128000000D03*
%TD*%
D14*
%TO.C,D4*%
X157000000Y-139650000D03*
D15*
X159540000Y-139650000D03*
%TD*%
D12*
%TO.C,SW6*%
X127000000Y-81000000D03*
X133500000Y-81000000D03*
X127000000Y-85500000D03*
X133500000Y-85500000D03*
%TD*%
D13*
%TO.C,RV12*%
X172700000Y-65500000D03*
X182300000Y-65500000D03*
D14*
X175000000Y-73000000D03*
D15*
X177500000Y-73000000D03*
X180000000Y-73000000D03*
%TD*%
D18*
%TO.C,H4*%
X186000000Y-128000000D03*
%TD*%
D16*
%TO.C,J9*%
X108000000Y-146400000D03*
D17*
X108000000Y-135000000D03*
X108000000Y-143300000D03*
%TD*%
D13*
%TO.C,RV6*%
X96700000Y-65500000D03*
X106300000Y-65500000D03*
D14*
X99000000Y-73000000D03*
D15*
X101500000Y-73000000D03*
X104000000Y-73000000D03*
%TD*%
D23*
%TO.C,SW1*%
X80000000Y-85000000D03*
X92500000Y-85000000D03*
X80000000Y-90000000D03*
X92500000Y-90000000D03*
%TD*%
D12*
%TO.C,SW11*%
X97000000Y-105000000D03*
X103500000Y-105000000D03*
X97000000Y-109500000D03*
X103500000Y-109500000D03*
%TD*%
D16*
%TO.C,J3*%
X108000000Y-130400000D03*
D17*
X108000000Y-119000000D03*
X108000000Y-127300000D03*
%TD*%
D13*
%TO.C,RV5*%
X77700000Y-65500000D03*
X87300000Y-65500000D03*
D14*
X80000000Y-73000000D03*
D15*
X82500000Y-73000000D03*
X85000000Y-73000000D03*
%TD*%
D12*
%TO.C,SW7*%
X97000000Y-93000000D03*
X103500000Y-93000000D03*
X97000000Y-97500000D03*
X103500000Y-97500000D03*
%TD*%
D13*
%TO.C,RV2*%
X96700000Y-45500000D03*
X106300000Y-45500000D03*
D14*
X99000000Y-53000000D03*
D15*
X101500000Y-53000000D03*
X104000000Y-53000000D03*
%TD*%
D12*
%TO.C,SW13*%
X117000000Y-105000000D03*
X123500000Y-105000000D03*
X117000000Y-109500000D03*
X123500000Y-109500000D03*
%TD*%
%TO.C,SW18*%
X172000000Y-105000000D03*
X178500000Y-105000000D03*
X172000000Y-109500000D03*
X178500000Y-109500000D03*
%TD*%
D16*
%TO.C,J10*%
X84000000Y-146400000D03*
D17*
X84000000Y-135000000D03*
X84000000Y-143300000D03*
%TD*%
D23*
%TO.C,SW2*%
X80000000Y-101000000D03*
X92500000Y-101000000D03*
X80000000Y-106000000D03*
X92500000Y-106000000D03*
%TD*%
D12*
%TO.C,SW16*%
X152000000Y-105000000D03*
X158500000Y-105000000D03*
X152000000Y-109500000D03*
X158500000Y-109500000D03*
%TD*%
D24*
%TO.C,R27*%
X163350000Y-107500000D03*
X161700000Y-107500000D03*
%TD*%
%TO.C,R29*%
X177100000Y-138400000D03*
X175450000Y-138400000D03*
%TD*%
D25*
%TO.C,R1*%
X162000000Y-122175000D03*
X162000000Y-123825000D03*
%TD*%
D24*
%TO.C,R17*%
X101000000Y-97000000D03*
X99350000Y-97000000D03*
%TD*%
%TO.C,R18*%
X111000000Y-97000000D03*
X109350000Y-97000000D03*
%TD*%
D26*
%TO.C,J1*%
X74000000Y-77820000D03*
D27*
X74000000Y-80360000D03*
X74000000Y-82900000D03*
X74000000Y-85440000D03*
X74000000Y-87980000D03*
X74000000Y-90520000D03*
X74000000Y-93060000D03*
X74000000Y-95600000D03*
X74000000Y-98140000D03*
X74000000Y-100680000D03*
X74000000Y-103220000D03*
X74000000Y-105760000D03*
X74000000Y-108300000D03*
X74000000Y-110840000D03*
X74000000Y-113380000D03*
X74000000Y-115920000D03*
X74000000Y-118460000D03*
X74000000Y-121000000D03*
%TD*%
D25*
%TO.C,R8*%
X156210000Y-95250000D03*
X156210000Y-96900000D03*
%TD*%
D24*
%TO.C,R13*%
X101000000Y-85000000D03*
X99350000Y-85000000D03*
%TD*%
%TO.C,R35*%
X177200000Y-122200000D03*
X175550000Y-122200000D03*
%TD*%
D28*
%TO.C,R6*%
X166370000Y-80010000D03*
X166370000Y-78360000D03*
%TD*%
D26*
%TO.C,J7*%
X186000000Y-78820000D03*
D27*
X186000000Y-81360000D03*
X186000000Y-83900000D03*
X186000000Y-86440000D03*
X186000000Y-88980000D03*
X186000000Y-91520000D03*
X186000000Y-94060000D03*
X186000000Y-96600000D03*
X186000000Y-99140000D03*
X186000000Y-101680000D03*
X186000000Y-104220000D03*
X186000000Y-106760000D03*
X186000000Y-109300000D03*
X186000000Y-111840000D03*
X186000000Y-114380000D03*
X186000000Y-116920000D03*
X186000000Y-119460000D03*
X186000000Y-122000000D03*
%TD*%
D25*
%TO.C,R9*%
X153670000Y-95250000D03*
X153670000Y-96900000D03*
%TD*%
D24*
%TO.C,R26*%
X153350000Y-107500000D03*
X151700000Y-107500000D03*
%TD*%
D29*
%TO.C,U6*%
X151950000Y-53110000D03*
X151950000Y-54380000D03*
X151950000Y-55650000D03*
X151950000Y-56920000D03*
X151950000Y-58190000D03*
X151950000Y-59460000D03*
X151950000Y-60730000D03*
X151950000Y-62000000D03*
X147000000Y-62000000D03*
X147000000Y-60730000D03*
X147000000Y-59460000D03*
X147000000Y-58190000D03*
X147000000Y-56920000D03*
X147000000Y-55650000D03*
X147000000Y-54380000D03*
X147000000Y-53110000D03*
%TD*%
D28*
%TO.C,R5*%
X156210000Y-80010000D03*
X156210000Y-78360000D03*
%TD*%
D29*
%TO.C,U1*%
X147950000Y-76650000D03*
X147950000Y-77920000D03*
X147950000Y-79190000D03*
X147950000Y-80460000D03*
X147950000Y-81730000D03*
X147950000Y-83000000D03*
X147950000Y-84270000D03*
X147950000Y-85540000D03*
X143000000Y-85540000D03*
X143000000Y-84270000D03*
X143000000Y-83000000D03*
X143000000Y-81730000D03*
X143000000Y-80460000D03*
X143000000Y-79190000D03*
X143000000Y-77920000D03*
X143000000Y-76650000D03*
%TD*%
D30*
%TO.C,R30*%
X122350000Y-119000000D03*
X124000000Y-119000000D03*
%TD*%
%TO.C,R36*%
X122350000Y-135000000D03*
X124000000Y-135000000D03*
%TD*%
D24*
%TO.C,R20*%
X131000000Y-97000000D03*
X129350000Y-97000000D03*
%TD*%
D25*
%TO.C,R7*%
X161290000Y-95250000D03*
X161290000Y-96900000D03*
%TD*%
%TO.C,R4*%
X162000000Y-139000000D03*
X162000000Y-140650000D03*
%TD*%
%TO.C,R12*%
X158750000Y-95250000D03*
X158750000Y-96900000D03*
%TD*%
D31*
%TO.C,C4*%
X172700000Y-127800000D03*
X171150000Y-127800000D03*
%TD*%
D24*
%TO.C,R16*%
X131000000Y-85000000D03*
X129350000Y-85000000D03*
%TD*%
D29*
%TO.C,U4*%
X88950000Y-82730000D03*
X88950000Y-84000000D03*
X88950000Y-85270000D03*
X88950000Y-86540000D03*
X88950000Y-87810000D03*
X88950000Y-89080000D03*
X88950000Y-90350000D03*
X88950000Y-91620000D03*
X84000000Y-91620000D03*
X84000000Y-90350000D03*
X84000000Y-89080000D03*
X84000000Y-87810000D03*
X84000000Y-86540000D03*
X84000000Y-85270000D03*
X84000000Y-84000000D03*
X84000000Y-82730000D03*
%TD*%
D25*
%TO.C,R11*%
X163830000Y-95250000D03*
X163830000Y-96900000D03*
%TD*%
D24*
%TO.C,R22*%
X111000000Y-109000000D03*
X109350000Y-109000000D03*
%TD*%
D29*
%TO.C,U2*%
X148000000Y-88460000D03*
X148000000Y-89730000D03*
X148000000Y-91000000D03*
X148000000Y-92270000D03*
X148000000Y-93540000D03*
X148000000Y-94810000D03*
X148000000Y-96080000D03*
X148000000Y-97350000D03*
X143050000Y-97350000D03*
X143050000Y-96080000D03*
X143050000Y-94810000D03*
X143050000Y-93540000D03*
X143050000Y-92270000D03*
X143050000Y-91000000D03*
X143050000Y-89730000D03*
X143050000Y-88460000D03*
%TD*%
%TO.C,U9*%
X170950000Y-53000000D03*
X170950000Y-54270000D03*
X170950000Y-55540000D03*
X170950000Y-56810000D03*
X170950000Y-58080000D03*
X170950000Y-59350000D03*
X170950000Y-60620000D03*
X170950000Y-61890000D03*
X166000000Y-61890000D03*
X166000000Y-60620000D03*
X166000000Y-59350000D03*
X166000000Y-58080000D03*
X166000000Y-56810000D03*
X166000000Y-55540000D03*
X166000000Y-54270000D03*
X166000000Y-53000000D03*
%TD*%
D24*
%TO.C,R15*%
X121000000Y-85000000D03*
X119350000Y-85000000D03*
%TD*%
D31*
%TO.C,C2*%
X172800000Y-143800000D03*
X171250000Y-143800000D03*
%TD*%
D25*
%TO.C,R2*%
X162000000Y-128000000D03*
X162000000Y-129650000D03*
%TD*%
D28*
%TO.C,R10*%
X158750000Y-80010000D03*
X158750000Y-78360000D03*
%TD*%
D31*
%TO.C,C1*%
X171500000Y-134500000D03*
X169950000Y-134500000D03*
%TD*%
D24*
%TO.C,R28*%
X173350000Y-107500000D03*
X171700000Y-107500000D03*
%TD*%
%TO.C,R34*%
X172850000Y-145400000D03*
X171200000Y-145400000D03*
%TD*%
%TO.C,R33*%
X171550000Y-132900000D03*
X169900000Y-132900000D03*
%TD*%
%TO.C,R21*%
X101000000Y-109000000D03*
X99350000Y-109000000D03*
%TD*%
D32*
%TO.C,U7*%
X170045000Y-136725000D03*
X171315000Y-136725000D03*
X172585000Y-136725000D03*
X173855000Y-136725000D03*
X173855000Y-141675000D03*
X172585000Y-141675000D03*
X171315000Y-141675000D03*
X170045000Y-141675000D03*
%TD*%
D31*
%TO.C,C3*%
X171600000Y-118600000D03*
X170050000Y-118600000D03*
%TD*%
D24*
%TO.C,R25*%
X143350000Y-107500000D03*
X141700000Y-107500000D03*
%TD*%
%TO.C,R14*%
X111000000Y-85000000D03*
X109350000Y-85000000D03*
%TD*%
%TO.C,R23*%
X121000000Y-109000000D03*
X119350000Y-109000000D03*
%TD*%
D32*
%TO.C,U8*%
X170080000Y-120725000D03*
X171350000Y-120725000D03*
X172620000Y-120725000D03*
X173890000Y-120725000D03*
X173890000Y-125675000D03*
X172620000Y-125675000D03*
X171350000Y-125675000D03*
X170080000Y-125675000D03*
%TD*%
D29*
%TO.C,U5*%
X88950000Y-99000000D03*
X88950000Y-100270000D03*
X88950000Y-101540000D03*
X88950000Y-102810000D03*
X88950000Y-104080000D03*
X88950000Y-105350000D03*
X88950000Y-106620000D03*
X88950000Y-107890000D03*
X84000000Y-107890000D03*
X84000000Y-106620000D03*
X84000000Y-105350000D03*
X84000000Y-104080000D03*
X84000000Y-102810000D03*
X84000000Y-101540000D03*
X84000000Y-100270000D03*
X84000000Y-99000000D03*
%TD*%
D24*
%TO.C,R31*%
X177100000Y-140000000D03*
X175450000Y-140000000D03*
%TD*%
%TO.C,R39*%
X171650000Y-117000000D03*
X170000000Y-117000000D03*
%TD*%
D30*
%TO.C,R32*%
X134350000Y-119000000D03*
X136000000Y-119000000D03*
%TD*%
D25*
%TO.C,R3*%
X162000000Y-133000000D03*
X162000000Y-134650000D03*
%TD*%
D24*
%TO.C,R37*%
X177200000Y-123800000D03*
X175550000Y-123800000D03*
%TD*%
D30*
%TO.C,R38*%
X134350000Y-135000000D03*
X136000000Y-135000000D03*
%TD*%
D24*
%TO.C,R40*%
X172750000Y-129400000D03*
X171100000Y-129400000D03*
%TD*%
%TO.C,R19*%
X121000000Y-97000000D03*
X119350000Y-97000000D03*
%TD*%
%TO.C,R24*%
X131000000Y-109000000D03*
X129350000Y-109000000D03*
%TD*%
%LPD*%
M02*
