%TF.GenerationSoftware,KiCad,Pcbnew,7.0.2*%
%TF.CreationDate,2025-02-19T16:37:45+00:00*%
%TF.ProjectId,dk2_04_bottom,646b325f-3034-45f6-926f-74746f6d2e6b,rev?*%
%TF.SameCoordinates,Original*%
%TF.FileFunction,Legend,Top*%
%TF.FilePolarity,Positive*%
%FSLAX46Y46*%
G04 Gerber Fmt 4.6, Leading zero omitted, Abs format (unit mm)*
G04 Created by KiCad (PCBNEW 7.0.2) date 2025-02-19 16:37:45*
%MOMM*%
%LPD*%
G01*
G04 APERTURE LIST*
G04 Aperture macros list*
%AMRoundRect*
0 Rectangle with rounded corners*
0 $1 Rounding radius*
0 $2 $3 $4 $5 $6 $7 $8 $9 X,Y pos of 4 corners*
0 Add a 4 corners polygon primitive as box body*
4,1,4,$2,$3,$4,$5,$6,$7,$8,$9,$2,$3,0*
0 Add four circle primitives for the rounded corners*
1,1,$1+$1,$2,$3*
1,1,$1+$1,$4,$5*
1,1,$1+$1,$6,$7*
1,1,$1+$1,$8,$9*
0 Add four rect primitives between the rounded corners*
20,1,$1+$1,$2,$3,$4,$5,0*
20,1,$1+$1,$4,$5,$6,$7,0*
20,1,$1+$1,$6,$7,$8,$9,0*
20,1,$1+$1,$8,$9,$2,$3,0*%
G04 Aperture macros list end*
%ADD10C,0.150000*%
%ADD11C,0.120000*%
%ADD12RoundRect,0.200000X0.275000X-0.200000X0.275000X0.200000X-0.275000X0.200000X-0.275000X-0.200000X0*%
%ADD13RoundRect,0.200000X-0.200000X-0.275000X0.200000X-0.275000X0.200000X0.275000X-0.200000X0.275000X0*%
%ADD14RoundRect,0.200000X0.200000X0.275000X-0.200000X0.275000X-0.200000X-0.275000X0.200000X-0.275000X0*%
%ADD15RoundRect,0.100000X-0.637500X-0.100000X0.637500X-0.100000X0.637500X0.100000X-0.637500X0.100000X0*%
%ADD16RoundRect,0.150000X0.150000X-0.825000X0.150000X0.825000X-0.150000X0.825000X-0.150000X-0.825000X0*%
%ADD17RoundRect,0.200000X-0.275000X0.200000X-0.275000X-0.200000X0.275000X-0.200000X0.275000X0.200000X0*%
%ADD18RoundRect,0.225000X0.225000X0.250000X-0.225000X0.250000X-0.225000X-0.250000X0.225000X-0.250000X0*%
%ADD19R,1.700000X1.700000*%
%ADD20O,1.700000X1.700000*%
%ADD21RoundRect,0.225000X-0.250000X0.225000X-0.250000X-0.225000X0.250000X-0.225000X0.250000X0.225000X0*%
%ADD22RoundRect,0.112500X-0.112500X0.187500X-0.112500X-0.187500X0.112500X-0.187500X0.112500X0.187500X0*%
%ADD23RoundRect,0.150000X-0.825000X-0.150000X0.825000X-0.150000X0.825000X0.150000X-0.825000X0.150000X0*%
%ADD24RoundRect,0.225000X-0.225000X-0.250000X0.225000X-0.250000X0.225000X0.250000X-0.225000X0.250000X0*%
%ADD25RoundRect,0.150000X-0.587500X-0.150000X0.587500X-0.150000X0.587500X0.150000X-0.587500X0.150000X0*%
%ADD26R,1.500000X1.000000*%
%ADD27RoundRect,0.112500X0.187500X0.112500X-0.187500X0.112500X-0.187500X-0.112500X0.187500X-0.112500X0*%
%ADD28RoundRect,0.225000X0.250000X-0.225000X0.250000X0.225000X-0.250000X0.225000X-0.250000X-0.225000X0*%
%ADD29R,2.400000X2.400000*%
%ADD30C,2.400000*%
%ADD31RoundRect,0.250000X-0.600000X-0.600000X0.600000X-0.600000X0.600000X0.600000X-0.600000X0.600000X0*%
%ADD32C,1.700000*%
%ADD33C,2.600000*%
%ADD34R,1.600000X1.600000*%
%ADD35C,1.600000*%
%ADD36R,2.000000X2.000000*%
%ADD37C,2.000000*%
%ADD38O,1.800000X1.800000*%
%ADD39O,1.500000X1.500000*%
G04 APERTURE END LIST*
D10*
%TO.C,R11*%
X183465119Y-80587857D02*
X182988928Y-80921190D01*
X183465119Y-81159285D02*
X182465119Y-81159285D01*
X182465119Y-81159285D02*
X182465119Y-80778333D01*
X182465119Y-80778333D02*
X182512738Y-80683095D01*
X182512738Y-80683095D02*
X182560357Y-80635476D01*
X182560357Y-80635476D02*
X182655595Y-80587857D01*
X182655595Y-80587857D02*
X182798452Y-80587857D01*
X182798452Y-80587857D02*
X182893690Y-80635476D01*
X182893690Y-80635476D02*
X182941309Y-80683095D01*
X182941309Y-80683095D02*
X182988928Y-80778333D01*
X182988928Y-80778333D02*
X182988928Y-81159285D01*
X183465119Y-79635476D02*
X183465119Y-80206904D01*
X183465119Y-79921190D02*
X182465119Y-79921190D01*
X182465119Y-79921190D02*
X182607976Y-80016428D01*
X182607976Y-80016428D02*
X182703214Y-80111666D01*
X182703214Y-80111666D02*
X182750833Y-80206904D01*
X183465119Y-78683095D02*
X183465119Y-79254523D01*
X183465119Y-78968809D02*
X182465119Y-78968809D01*
X182465119Y-78968809D02*
X182607976Y-79064047D01*
X182607976Y-79064047D02*
X182703214Y-79159285D01*
X182703214Y-79159285D02*
X182750833Y-79254523D01*
%TO.C,R8*%
X186318333Y-89467619D02*
X185985000Y-88991428D01*
X185746905Y-89467619D02*
X185746905Y-88467619D01*
X185746905Y-88467619D02*
X186127857Y-88467619D01*
X186127857Y-88467619D02*
X186223095Y-88515238D01*
X186223095Y-88515238D02*
X186270714Y-88562857D01*
X186270714Y-88562857D02*
X186318333Y-88658095D01*
X186318333Y-88658095D02*
X186318333Y-88800952D01*
X186318333Y-88800952D02*
X186270714Y-88896190D01*
X186270714Y-88896190D02*
X186223095Y-88943809D01*
X186223095Y-88943809D02*
X186127857Y-88991428D01*
X186127857Y-88991428D02*
X185746905Y-88991428D01*
X186889762Y-88896190D02*
X186794524Y-88848571D01*
X186794524Y-88848571D02*
X186746905Y-88800952D01*
X186746905Y-88800952D02*
X186699286Y-88705714D01*
X186699286Y-88705714D02*
X186699286Y-88658095D01*
X186699286Y-88658095D02*
X186746905Y-88562857D01*
X186746905Y-88562857D02*
X186794524Y-88515238D01*
X186794524Y-88515238D02*
X186889762Y-88467619D01*
X186889762Y-88467619D02*
X187080238Y-88467619D01*
X187080238Y-88467619D02*
X187175476Y-88515238D01*
X187175476Y-88515238D02*
X187223095Y-88562857D01*
X187223095Y-88562857D02*
X187270714Y-88658095D01*
X187270714Y-88658095D02*
X187270714Y-88705714D01*
X187270714Y-88705714D02*
X187223095Y-88800952D01*
X187223095Y-88800952D02*
X187175476Y-88848571D01*
X187175476Y-88848571D02*
X187080238Y-88896190D01*
X187080238Y-88896190D02*
X186889762Y-88896190D01*
X186889762Y-88896190D02*
X186794524Y-88943809D01*
X186794524Y-88943809D02*
X186746905Y-88991428D01*
X186746905Y-88991428D02*
X186699286Y-89086666D01*
X186699286Y-89086666D02*
X186699286Y-89277142D01*
X186699286Y-89277142D02*
X186746905Y-89372380D01*
X186746905Y-89372380D02*
X186794524Y-89420000D01*
X186794524Y-89420000D02*
X186889762Y-89467619D01*
X186889762Y-89467619D02*
X187080238Y-89467619D01*
X187080238Y-89467619D02*
X187175476Y-89420000D01*
X187175476Y-89420000D02*
X187223095Y-89372380D01*
X187223095Y-89372380D02*
X187270714Y-89277142D01*
X187270714Y-89277142D02*
X187270714Y-89086666D01*
X187270714Y-89086666D02*
X187223095Y-88991428D01*
X187223095Y-88991428D02*
X187175476Y-88943809D01*
X187175476Y-88943809D02*
X187080238Y-88896190D01*
%TO.C,R2*%
X186318333Y-99127619D02*
X185985000Y-98651428D01*
X185746905Y-99127619D02*
X185746905Y-98127619D01*
X185746905Y-98127619D02*
X186127857Y-98127619D01*
X186127857Y-98127619D02*
X186223095Y-98175238D01*
X186223095Y-98175238D02*
X186270714Y-98222857D01*
X186270714Y-98222857D02*
X186318333Y-98318095D01*
X186318333Y-98318095D02*
X186318333Y-98460952D01*
X186318333Y-98460952D02*
X186270714Y-98556190D01*
X186270714Y-98556190D02*
X186223095Y-98603809D01*
X186223095Y-98603809D02*
X186127857Y-98651428D01*
X186127857Y-98651428D02*
X185746905Y-98651428D01*
X186699286Y-98222857D02*
X186746905Y-98175238D01*
X186746905Y-98175238D02*
X186842143Y-98127619D01*
X186842143Y-98127619D02*
X187080238Y-98127619D01*
X187080238Y-98127619D02*
X187175476Y-98175238D01*
X187175476Y-98175238D02*
X187223095Y-98222857D01*
X187223095Y-98222857D02*
X187270714Y-98318095D01*
X187270714Y-98318095D02*
X187270714Y-98413333D01*
X187270714Y-98413333D02*
X187223095Y-98556190D01*
X187223095Y-98556190D02*
X186651667Y-99127619D01*
X186651667Y-99127619D02*
X187270714Y-99127619D01*
%TO.C,U4*%
X182958095Y-69082619D02*
X182958095Y-69892142D01*
X182958095Y-69892142D02*
X183005714Y-69987380D01*
X183005714Y-69987380D02*
X183053333Y-70035000D01*
X183053333Y-70035000D02*
X183148571Y-70082619D01*
X183148571Y-70082619D02*
X183339047Y-70082619D01*
X183339047Y-70082619D02*
X183434285Y-70035000D01*
X183434285Y-70035000D02*
X183481904Y-69987380D01*
X183481904Y-69987380D02*
X183529523Y-69892142D01*
X183529523Y-69892142D02*
X183529523Y-69082619D01*
X184434285Y-69415952D02*
X184434285Y-70082619D01*
X184196190Y-69035000D02*
X183958095Y-69749285D01*
X183958095Y-69749285D02*
X184577142Y-69749285D01*
%TO.C,U8*%
X116594942Y-56761904D02*
X117404465Y-56761904D01*
X117404465Y-56761904D02*
X117499703Y-56714285D01*
X117499703Y-56714285D02*
X117547323Y-56666666D01*
X117547323Y-56666666D02*
X117594942Y-56571428D01*
X117594942Y-56571428D02*
X117594942Y-56380952D01*
X117594942Y-56380952D02*
X117547323Y-56285714D01*
X117547323Y-56285714D02*
X117499703Y-56238095D01*
X117499703Y-56238095D02*
X117404465Y-56190476D01*
X117404465Y-56190476D02*
X116594942Y-56190476D01*
X117023513Y-55571428D02*
X116975894Y-55666666D01*
X116975894Y-55666666D02*
X116928275Y-55714285D01*
X116928275Y-55714285D02*
X116833037Y-55761904D01*
X116833037Y-55761904D02*
X116785418Y-55761904D01*
X116785418Y-55761904D02*
X116690180Y-55714285D01*
X116690180Y-55714285D02*
X116642561Y-55666666D01*
X116642561Y-55666666D02*
X116594942Y-55571428D01*
X116594942Y-55571428D02*
X116594942Y-55380952D01*
X116594942Y-55380952D02*
X116642561Y-55285714D01*
X116642561Y-55285714D02*
X116690180Y-55238095D01*
X116690180Y-55238095D02*
X116785418Y-55190476D01*
X116785418Y-55190476D02*
X116833037Y-55190476D01*
X116833037Y-55190476D02*
X116928275Y-55238095D01*
X116928275Y-55238095D02*
X116975894Y-55285714D01*
X116975894Y-55285714D02*
X117023513Y-55380952D01*
X117023513Y-55380952D02*
X117023513Y-55571428D01*
X117023513Y-55571428D02*
X117071132Y-55666666D01*
X117071132Y-55666666D02*
X117118751Y-55714285D01*
X117118751Y-55714285D02*
X117213989Y-55761904D01*
X117213989Y-55761904D02*
X117404465Y-55761904D01*
X117404465Y-55761904D02*
X117499703Y-55714285D01*
X117499703Y-55714285D02*
X117547323Y-55666666D01*
X117547323Y-55666666D02*
X117594942Y-55571428D01*
X117594942Y-55571428D02*
X117594942Y-55380952D01*
X117594942Y-55380952D02*
X117547323Y-55285714D01*
X117547323Y-55285714D02*
X117499703Y-55238095D01*
X117499703Y-55238095D02*
X117404465Y-55190476D01*
X117404465Y-55190476D02*
X117213989Y-55190476D01*
X117213989Y-55190476D02*
X117118751Y-55238095D01*
X117118751Y-55238095D02*
X117071132Y-55285714D01*
X117071132Y-55285714D02*
X117023513Y-55380952D01*
%TO.C,R14*%
X117432142Y-96142619D02*
X117098809Y-95666428D01*
X116860714Y-96142619D02*
X116860714Y-95142619D01*
X116860714Y-95142619D02*
X117241666Y-95142619D01*
X117241666Y-95142619D02*
X117336904Y-95190238D01*
X117336904Y-95190238D02*
X117384523Y-95237857D01*
X117384523Y-95237857D02*
X117432142Y-95333095D01*
X117432142Y-95333095D02*
X117432142Y-95475952D01*
X117432142Y-95475952D02*
X117384523Y-95571190D01*
X117384523Y-95571190D02*
X117336904Y-95618809D01*
X117336904Y-95618809D02*
X117241666Y-95666428D01*
X117241666Y-95666428D02*
X116860714Y-95666428D01*
X118384523Y-96142619D02*
X117813095Y-96142619D01*
X118098809Y-96142619D02*
X118098809Y-95142619D01*
X118098809Y-95142619D02*
X118003571Y-95285476D01*
X118003571Y-95285476D02*
X117908333Y-95380714D01*
X117908333Y-95380714D02*
X117813095Y-95428333D01*
X119241666Y-95475952D02*
X119241666Y-96142619D01*
X119003571Y-95095000D02*
X118765476Y-95809285D01*
X118765476Y-95809285D02*
X119384523Y-95809285D01*
%TO.C,R10*%
X185115119Y-80587857D02*
X184638928Y-80921190D01*
X185115119Y-81159285D02*
X184115119Y-81159285D01*
X184115119Y-81159285D02*
X184115119Y-80778333D01*
X184115119Y-80778333D02*
X184162738Y-80683095D01*
X184162738Y-80683095D02*
X184210357Y-80635476D01*
X184210357Y-80635476D02*
X184305595Y-80587857D01*
X184305595Y-80587857D02*
X184448452Y-80587857D01*
X184448452Y-80587857D02*
X184543690Y-80635476D01*
X184543690Y-80635476D02*
X184591309Y-80683095D01*
X184591309Y-80683095D02*
X184638928Y-80778333D01*
X184638928Y-80778333D02*
X184638928Y-81159285D01*
X185115119Y-79635476D02*
X185115119Y-80206904D01*
X185115119Y-79921190D02*
X184115119Y-79921190D01*
X184115119Y-79921190D02*
X184257976Y-80016428D01*
X184257976Y-80016428D02*
X184353214Y-80111666D01*
X184353214Y-80111666D02*
X184400833Y-80206904D01*
X184115119Y-79016428D02*
X184115119Y-78921190D01*
X184115119Y-78921190D02*
X184162738Y-78825952D01*
X184162738Y-78825952D02*
X184210357Y-78778333D01*
X184210357Y-78778333D02*
X184305595Y-78730714D01*
X184305595Y-78730714D02*
X184496071Y-78683095D01*
X184496071Y-78683095D02*
X184734166Y-78683095D01*
X184734166Y-78683095D02*
X184924642Y-78730714D01*
X184924642Y-78730714D02*
X185019880Y-78778333D01*
X185019880Y-78778333D02*
X185067500Y-78825952D01*
X185067500Y-78825952D02*
X185115119Y-78921190D01*
X185115119Y-78921190D02*
X185115119Y-79016428D01*
X185115119Y-79016428D02*
X185067500Y-79111666D01*
X185067500Y-79111666D02*
X185019880Y-79159285D01*
X185019880Y-79159285D02*
X184924642Y-79206904D01*
X184924642Y-79206904D02*
X184734166Y-79254523D01*
X184734166Y-79254523D02*
X184496071Y-79254523D01*
X184496071Y-79254523D02*
X184305595Y-79206904D01*
X184305595Y-79206904D02*
X184210357Y-79159285D01*
X184210357Y-79159285D02*
X184162738Y-79111666D01*
X184162738Y-79111666D02*
X184115119Y-79016428D01*
%TO.C,R19*%
X97407619Y-77762857D02*
X96931428Y-78096190D01*
X97407619Y-78334285D02*
X96407619Y-78334285D01*
X96407619Y-78334285D02*
X96407619Y-77953333D01*
X96407619Y-77953333D02*
X96455238Y-77858095D01*
X96455238Y-77858095D02*
X96502857Y-77810476D01*
X96502857Y-77810476D02*
X96598095Y-77762857D01*
X96598095Y-77762857D02*
X96740952Y-77762857D01*
X96740952Y-77762857D02*
X96836190Y-77810476D01*
X96836190Y-77810476D02*
X96883809Y-77858095D01*
X96883809Y-77858095D02*
X96931428Y-77953333D01*
X96931428Y-77953333D02*
X96931428Y-78334285D01*
X97407619Y-76810476D02*
X97407619Y-77381904D01*
X97407619Y-77096190D02*
X96407619Y-77096190D01*
X96407619Y-77096190D02*
X96550476Y-77191428D01*
X96550476Y-77191428D02*
X96645714Y-77286666D01*
X96645714Y-77286666D02*
X96693333Y-77381904D01*
X97407619Y-76334285D02*
X97407619Y-76143809D01*
X97407619Y-76143809D02*
X97360000Y-76048571D01*
X97360000Y-76048571D02*
X97312380Y-76000952D01*
X97312380Y-76000952D02*
X97169523Y-75905714D01*
X97169523Y-75905714D02*
X96979047Y-75858095D01*
X96979047Y-75858095D02*
X96598095Y-75858095D01*
X96598095Y-75858095D02*
X96502857Y-75905714D01*
X96502857Y-75905714D02*
X96455238Y-75953333D01*
X96455238Y-75953333D02*
X96407619Y-76048571D01*
X96407619Y-76048571D02*
X96407619Y-76239047D01*
X96407619Y-76239047D02*
X96455238Y-76334285D01*
X96455238Y-76334285D02*
X96502857Y-76381904D01*
X96502857Y-76381904D02*
X96598095Y-76429523D01*
X96598095Y-76429523D02*
X96836190Y-76429523D01*
X96836190Y-76429523D02*
X96931428Y-76381904D01*
X96931428Y-76381904D02*
X96979047Y-76334285D01*
X96979047Y-76334285D02*
X97026666Y-76239047D01*
X97026666Y-76239047D02*
X97026666Y-76048571D01*
X97026666Y-76048571D02*
X96979047Y-75953333D01*
X96979047Y-75953333D02*
X96931428Y-75905714D01*
X96931428Y-75905714D02*
X96836190Y-75858095D01*
%TO.C,C3*%
X189568333Y-97332380D02*
X189520714Y-97380000D01*
X189520714Y-97380000D02*
X189377857Y-97427619D01*
X189377857Y-97427619D02*
X189282619Y-97427619D01*
X189282619Y-97427619D02*
X189139762Y-97380000D01*
X189139762Y-97380000D02*
X189044524Y-97284761D01*
X189044524Y-97284761D02*
X188996905Y-97189523D01*
X188996905Y-97189523D02*
X188949286Y-96999047D01*
X188949286Y-96999047D02*
X188949286Y-96856190D01*
X188949286Y-96856190D02*
X188996905Y-96665714D01*
X188996905Y-96665714D02*
X189044524Y-96570476D01*
X189044524Y-96570476D02*
X189139762Y-96475238D01*
X189139762Y-96475238D02*
X189282619Y-96427619D01*
X189282619Y-96427619D02*
X189377857Y-96427619D01*
X189377857Y-96427619D02*
X189520714Y-96475238D01*
X189520714Y-96475238D02*
X189568333Y-96522857D01*
X189901667Y-96427619D02*
X190520714Y-96427619D01*
X190520714Y-96427619D02*
X190187381Y-96808571D01*
X190187381Y-96808571D02*
X190330238Y-96808571D01*
X190330238Y-96808571D02*
X190425476Y-96856190D01*
X190425476Y-96856190D02*
X190473095Y-96903809D01*
X190473095Y-96903809D02*
X190520714Y-96999047D01*
X190520714Y-96999047D02*
X190520714Y-97237142D01*
X190520714Y-97237142D02*
X190473095Y-97332380D01*
X190473095Y-97332380D02*
X190425476Y-97380000D01*
X190425476Y-97380000D02*
X190330238Y-97427619D01*
X190330238Y-97427619D02*
X190044524Y-97427619D01*
X190044524Y-97427619D02*
X189949286Y-97380000D01*
X189949286Y-97380000D02*
X189901667Y-97332380D01*
%TO.C,J1*%
X83666666Y-55632619D02*
X83666666Y-56346904D01*
X83666666Y-56346904D02*
X83619047Y-56489761D01*
X83619047Y-56489761D02*
X83523809Y-56585000D01*
X83523809Y-56585000D02*
X83380952Y-56632619D01*
X83380952Y-56632619D02*
X83285714Y-56632619D01*
X84666666Y-56632619D02*
X84095238Y-56632619D01*
X84380952Y-56632619D02*
X84380952Y-55632619D01*
X84380952Y-55632619D02*
X84285714Y-55775476D01*
X84285714Y-55775476D02*
X84190476Y-55870714D01*
X84190476Y-55870714D02*
X84095238Y-55918333D01*
%TO.C,C20*%
X179179880Y-72262857D02*
X179227500Y-72310476D01*
X179227500Y-72310476D02*
X179275119Y-72453333D01*
X179275119Y-72453333D02*
X179275119Y-72548571D01*
X179275119Y-72548571D02*
X179227500Y-72691428D01*
X179227500Y-72691428D02*
X179132261Y-72786666D01*
X179132261Y-72786666D02*
X179037023Y-72834285D01*
X179037023Y-72834285D02*
X178846547Y-72881904D01*
X178846547Y-72881904D02*
X178703690Y-72881904D01*
X178703690Y-72881904D02*
X178513214Y-72834285D01*
X178513214Y-72834285D02*
X178417976Y-72786666D01*
X178417976Y-72786666D02*
X178322738Y-72691428D01*
X178322738Y-72691428D02*
X178275119Y-72548571D01*
X178275119Y-72548571D02*
X178275119Y-72453333D01*
X178275119Y-72453333D02*
X178322738Y-72310476D01*
X178322738Y-72310476D02*
X178370357Y-72262857D01*
X178370357Y-71881904D02*
X178322738Y-71834285D01*
X178322738Y-71834285D02*
X178275119Y-71739047D01*
X178275119Y-71739047D02*
X178275119Y-71500952D01*
X178275119Y-71500952D02*
X178322738Y-71405714D01*
X178322738Y-71405714D02*
X178370357Y-71358095D01*
X178370357Y-71358095D02*
X178465595Y-71310476D01*
X178465595Y-71310476D02*
X178560833Y-71310476D01*
X178560833Y-71310476D02*
X178703690Y-71358095D01*
X178703690Y-71358095D02*
X179275119Y-71929523D01*
X179275119Y-71929523D02*
X179275119Y-71310476D01*
X178275119Y-70691428D02*
X178275119Y-70596190D01*
X178275119Y-70596190D02*
X178322738Y-70500952D01*
X178322738Y-70500952D02*
X178370357Y-70453333D01*
X178370357Y-70453333D02*
X178465595Y-70405714D01*
X178465595Y-70405714D02*
X178656071Y-70358095D01*
X178656071Y-70358095D02*
X178894166Y-70358095D01*
X178894166Y-70358095D02*
X179084642Y-70405714D01*
X179084642Y-70405714D02*
X179179880Y-70453333D01*
X179179880Y-70453333D02*
X179227500Y-70500952D01*
X179227500Y-70500952D02*
X179275119Y-70596190D01*
X179275119Y-70596190D02*
X179275119Y-70691428D01*
X179275119Y-70691428D02*
X179227500Y-70786666D01*
X179227500Y-70786666D02*
X179179880Y-70834285D01*
X179179880Y-70834285D02*
X179084642Y-70881904D01*
X179084642Y-70881904D02*
X178894166Y-70929523D01*
X178894166Y-70929523D02*
X178656071Y-70929523D01*
X178656071Y-70929523D02*
X178465595Y-70881904D01*
X178465595Y-70881904D02*
X178370357Y-70834285D01*
X178370357Y-70834285D02*
X178322738Y-70786666D01*
X178322738Y-70786666D02*
X178275119Y-70691428D01*
%TO.C,C16*%
X191879880Y-71662857D02*
X191927500Y-71710476D01*
X191927500Y-71710476D02*
X191975119Y-71853333D01*
X191975119Y-71853333D02*
X191975119Y-71948571D01*
X191975119Y-71948571D02*
X191927500Y-72091428D01*
X191927500Y-72091428D02*
X191832261Y-72186666D01*
X191832261Y-72186666D02*
X191737023Y-72234285D01*
X191737023Y-72234285D02*
X191546547Y-72281904D01*
X191546547Y-72281904D02*
X191403690Y-72281904D01*
X191403690Y-72281904D02*
X191213214Y-72234285D01*
X191213214Y-72234285D02*
X191117976Y-72186666D01*
X191117976Y-72186666D02*
X191022738Y-72091428D01*
X191022738Y-72091428D02*
X190975119Y-71948571D01*
X190975119Y-71948571D02*
X190975119Y-71853333D01*
X190975119Y-71853333D02*
X191022738Y-71710476D01*
X191022738Y-71710476D02*
X191070357Y-71662857D01*
X191975119Y-70710476D02*
X191975119Y-71281904D01*
X191975119Y-70996190D02*
X190975119Y-70996190D01*
X190975119Y-70996190D02*
X191117976Y-71091428D01*
X191117976Y-71091428D02*
X191213214Y-71186666D01*
X191213214Y-71186666D02*
X191260833Y-71281904D01*
X190975119Y-69853333D02*
X190975119Y-70043809D01*
X190975119Y-70043809D02*
X191022738Y-70139047D01*
X191022738Y-70139047D02*
X191070357Y-70186666D01*
X191070357Y-70186666D02*
X191213214Y-70281904D01*
X191213214Y-70281904D02*
X191403690Y-70329523D01*
X191403690Y-70329523D02*
X191784642Y-70329523D01*
X191784642Y-70329523D02*
X191879880Y-70281904D01*
X191879880Y-70281904D02*
X191927500Y-70234285D01*
X191927500Y-70234285D02*
X191975119Y-70139047D01*
X191975119Y-70139047D02*
X191975119Y-69948571D01*
X191975119Y-69948571D02*
X191927500Y-69853333D01*
X191927500Y-69853333D02*
X191879880Y-69805714D01*
X191879880Y-69805714D02*
X191784642Y-69758095D01*
X191784642Y-69758095D02*
X191546547Y-69758095D01*
X191546547Y-69758095D02*
X191451309Y-69805714D01*
X191451309Y-69805714D02*
X191403690Y-69853333D01*
X191403690Y-69853333D02*
X191356071Y-69948571D01*
X191356071Y-69948571D02*
X191356071Y-70139047D01*
X191356071Y-70139047D02*
X191403690Y-70234285D01*
X191403690Y-70234285D02*
X191451309Y-70281904D01*
X191451309Y-70281904D02*
X191546547Y-70329523D01*
%TO.C,D3*%
X134012619Y-72988094D02*
X133012619Y-72988094D01*
X133012619Y-72988094D02*
X133012619Y-72749999D01*
X133012619Y-72749999D02*
X133060238Y-72607142D01*
X133060238Y-72607142D02*
X133155476Y-72511904D01*
X133155476Y-72511904D02*
X133250714Y-72464285D01*
X133250714Y-72464285D02*
X133441190Y-72416666D01*
X133441190Y-72416666D02*
X133584047Y-72416666D01*
X133584047Y-72416666D02*
X133774523Y-72464285D01*
X133774523Y-72464285D02*
X133869761Y-72511904D01*
X133869761Y-72511904D02*
X133965000Y-72607142D01*
X133965000Y-72607142D02*
X134012619Y-72749999D01*
X134012619Y-72749999D02*
X134012619Y-72988094D01*
X133012619Y-72083332D02*
X133012619Y-71464285D01*
X133012619Y-71464285D02*
X133393571Y-71797618D01*
X133393571Y-71797618D02*
X133393571Y-71654761D01*
X133393571Y-71654761D02*
X133441190Y-71559523D01*
X133441190Y-71559523D02*
X133488809Y-71511904D01*
X133488809Y-71511904D02*
X133584047Y-71464285D01*
X133584047Y-71464285D02*
X133822142Y-71464285D01*
X133822142Y-71464285D02*
X133917380Y-71511904D01*
X133917380Y-71511904D02*
X133965000Y-71559523D01*
X133965000Y-71559523D02*
X134012619Y-71654761D01*
X134012619Y-71654761D02*
X134012619Y-71940475D01*
X134012619Y-71940475D02*
X133965000Y-72035713D01*
X133965000Y-72035713D02*
X133917380Y-72083332D01*
%TO.C,U3*%
X180348095Y-90832619D02*
X180348095Y-91642142D01*
X180348095Y-91642142D02*
X180395714Y-91737380D01*
X180395714Y-91737380D02*
X180443333Y-91785000D01*
X180443333Y-91785000D02*
X180538571Y-91832619D01*
X180538571Y-91832619D02*
X180729047Y-91832619D01*
X180729047Y-91832619D02*
X180824285Y-91785000D01*
X180824285Y-91785000D02*
X180871904Y-91737380D01*
X180871904Y-91737380D02*
X180919523Y-91642142D01*
X180919523Y-91642142D02*
X180919523Y-90832619D01*
X181300476Y-90832619D02*
X181919523Y-90832619D01*
X181919523Y-90832619D02*
X181586190Y-91213571D01*
X181586190Y-91213571D02*
X181729047Y-91213571D01*
X181729047Y-91213571D02*
X181824285Y-91261190D01*
X181824285Y-91261190D02*
X181871904Y-91308809D01*
X181871904Y-91308809D02*
X181919523Y-91404047D01*
X181919523Y-91404047D02*
X181919523Y-91642142D01*
X181919523Y-91642142D02*
X181871904Y-91737380D01*
X181871904Y-91737380D02*
X181824285Y-91785000D01*
X181824285Y-91785000D02*
X181729047Y-91832619D01*
X181729047Y-91832619D02*
X181443333Y-91832619D01*
X181443333Y-91832619D02*
X181348095Y-91785000D01*
X181348095Y-91785000D02*
X181300476Y-91737380D01*
%TO.C,C2*%
X172318333Y-93172380D02*
X172270714Y-93220000D01*
X172270714Y-93220000D02*
X172127857Y-93267619D01*
X172127857Y-93267619D02*
X172032619Y-93267619D01*
X172032619Y-93267619D02*
X171889762Y-93220000D01*
X171889762Y-93220000D02*
X171794524Y-93124761D01*
X171794524Y-93124761D02*
X171746905Y-93029523D01*
X171746905Y-93029523D02*
X171699286Y-92839047D01*
X171699286Y-92839047D02*
X171699286Y-92696190D01*
X171699286Y-92696190D02*
X171746905Y-92505714D01*
X171746905Y-92505714D02*
X171794524Y-92410476D01*
X171794524Y-92410476D02*
X171889762Y-92315238D01*
X171889762Y-92315238D02*
X172032619Y-92267619D01*
X172032619Y-92267619D02*
X172127857Y-92267619D01*
X172127857Y-92267619D02*
X172270714Y-92315238D01*
X172270714Y-92315238D02*
X172318333Y-92362857D01*
X172699286Y-92362857D02*
X172746905Y-92315238D01*
X172746905Y-92315238D02*
X172842143Y-92267619D01*
X172842143Y-92267619D02*
X173080238Y-92267619D01*
X173080238Y-92267619D02*
X173175476Y-92315238D01*
X173175476Y-92315238D02*
X173223095Y-92362857D01*
X173223095Y-92362857D02*
X173270714Y-92458095D01*
X173270714Y-92458095D02*
X173270714Y-92553333D01*
X173270714Y-92553333D02*
X173223095Y-92696190D01*
X173223095Y-92696190D02*
X172651667Y-93267619D01*
X172651667Y-93267619D02*
X173270714Y-93267619D01*
%TO.C,C11*%
X177479880Y-76462857D02*
X177527500Y-76510476D01*
X177527500Y-76510476D02*
X177575119Y-76653333D01*
X177575119Y-76653333D02*
X177575119Y-76748571D01*
X177575119Y-76748571D02*
X177527500Y-76891428D01*
X177527500Y-76891428D02*
X177432261Y-76986666D01*
X177432261Y-76986666D02*
X177337023Y-77034285D01*
X177337023Y-77034285D02*
X177146547Y-77081904D01*
X177146547Y-77081904D02*
X177003690Y-77081904D01*
X177003690Y-77081904D02*
X176813214Y-77034285D01*
X176813214Y-77034285D02*
X176717976Y-76986666D01*
X176717976Y-76986666D02*
X176622738Y-76891428D01*
X176622738Y-76891428D02*
X176575119Y-76748571D01*
X176575119Y-76748571D02*
X176575119Y-76653333D01*
X176575119Y-76653333D02*
X176622738Y-76510476D01*
X176622738Y-76510476D02*
X176670357Y-76462857D01*
X177575119Y-75510476D02*
X177575119Y-76081904D01*
X177575119Y-75796190D02*
X176575119Y-75796190D01*
X176575119Y-75796190D02*
X176717976Y-75891428D01*
X176717976Y-75891428D02*
X176813214Y-75986666D01*
X176813214Y-75986666D02*
X176860833Y-76081904D01*
X177575119Y-74558095D02*
X177575119Y-75129523D01*
X177575119Y-74843809D02*
X176575119Y-74843809D01*
X176575119Y-74843809D02*
X176717976Y-74939047D01*
X176717976Y-74939047D02*
X176813214Y-75034285D01*
X176813214Y-75034285D02*
X176860833Y-75129523D01*
%TO.C,R3*%
X175568333Y-93267619D02*
X175235000Y-92791428D01*
X174996905Y-93267619D02*
X174996905Y-92267619D01*
X174996905Y-92267619D02*
X175377857Y-92267619D01*
X175377857Y-92267619D02*
X175473095Y-92315238D01*
X175473095Y-92315238D02*
X175520714Y-92362857D01*
X175520714Y-92362857D02*
X175568333Y-92458095D01*
X175568333Y-92458095D02*
X175568333Y-92600952D01*
X175568333Y-92600952D02*
X175520714Y-92696190D01*
X175520714Y-92696190D02*
X175473095Y-92743809D01*
X175473095Y-92743809D02*
X175377857Y-92791428D01*
X175377857Y-92791428D02*
X174996905Y-92791428D01*
X175901667Y-92267619D02*
X176520714Y-92267619D01*
X176520714Y-92267619D02*
X176187381Y-92648571D01*
X176187381Y-92648571D02*
X176330238Y-92648571D01*
X176330238Y-92648571D02*
X176425476Y-92696190D01*
X176425476Y-92696190D02*
X176473095Y-92743809D01*
X176473095Y-92743809D02*
X176520714Y-92839047D01*
X176520714Y-92839047D02*
X176520714Y-93077142D01*
X176520714Y-93077142D02*
X176473095Y-93172380D01*
X176473095Y-93172380D02*
X176425476Y-93220000D01*
X176425476Y-93220000D02*
X176330238Y-93267619D01*
X176330238Y-93267619D02*
X176044524Y-93267619D01*
X176044524Y-93267619D02*
X175949286Y-93220000D01*
X175949286Y-93220000D02*
X175901667Y-93172380D01*
%TO.C,R20*%
X106947619Y-75712857D02*
X106471428Y-76046190D01*
X106947619Y-76284285D02*
X105947619Y-76284285D01*
X105947619Y-76284285D02*
X105947619Y-75903333D01*
X105947619Y-75903333D02*
X105995238Y-75808095D01*
X105995238Y-75808095D02*
X106042857Y-75760476D01*
X106042857Y-75760476D02*
X106138095Y-75712857D01*
X106138095Y-75712857D02*
X106280952Y-75712857D01*
X106280952Y-75712857D02*
X106376190Y-75760476D01*
X106376190Y-75760476D02*
X106423809Y-75808095D01*
X106423809Y-75808095D02*
X106471428Y-75903333D01*
X106471428Y-75903333D02*
X106471428Y-76284285D01*
X106042857Y-75331904D02*
X105995238Y-75284285D01*
X105995238Y-75284285D02*
X105947619Y-75189047D01*
X105947619Y-75189047D02*
X105947619Y-74950952D01*
X105947619Y-74950952D02*
X105995238Y-74855714D01*
X105995238Y-74855714D02*
X106042857Y-74808095D01*
X106042857Y-74808095D02*
X106138095Y-74760476D01*
X106138095Y-74760476D02*
X106233333Y-74760476D01*
X106233333Y-74760476D02*
X106376190Y-74808095D01*
X106376190Y-74808095D02*
X106947619Y-75379523D01*
X106947619Y-75379523D02*
X106947619Y-74760476D01*
X105947619Y-74141428D02*
X105947619Y-74046190D01*
X105947619Y-74046190D02*
X105995238Y-73950952D01*
X105995238Y-73950952D02*
X106042857Y-73903333D01*
X106042857Y-73903333D02*
X106138095Y-73855714D01*
X106138095Y-73855714D02*
X106328571Y-73808095D01*
X106328571Y-73808095D02*
X106566666Y-73808095D01*
X106566666Y-73808095D02*
X106757142Y-73855714D01*
X106757142Y-73855714D02*
X106852380Y-73903333D01*
X106852380Y-73903333D02*
X106900000Y-73950952D01*
X106900000Y-73950952D02*
X106947619Y-74046190D01*
X106947619Y-74046190D02*
X106947619Y-74141428D01*
X106947619Y-74141428D02*
X106900000Y-74236666D01*
X106900000Y-74236666D02*
X106852380Y-74284285D01*
X106852380Y-74284285D02*
X106757142Y-74331904D01*
X106757142Y-74331904D02*
X106566666Y-74379523D01*
X106566666Y-74379523D02*
X106328571Y-74379523D01*
X106328571Y-74379523D02*
X106138095Y-74331904D01*
X106138095Y-74331904D02*
X106042857Y-74284285D01*
X106042857Y-74284285D02*
X105995238Y-74236666D01*
X105995238Y-74236666D02*
X105947619Y-74141428D01*
%TO.C,C14*%
X190279880Y-71662857D02*
X190327500Y-71710476D01*
X190327500Y-71710476D02*
X190375119Y-71853333D01*
X190375119Y-71853333D02*
X190375119Y-71948571D01*
X190375119Y-71948571D02*
X190327500Y-72091428D01*
X190327500Y-72091428D02*
X190232261Y-72186666D01*
X190232261Y-72186666D02*
X190137023Y-72234285D01*
X190137023Y-72234285D02*
X189946547Y-72281904D01*
X189946547Y-72281904D02*
X189803690Y-72281904D01*
X189803690Y-72281904D02*
X189613214Y-72234285D01*
X189613214Y-72234285D02*
X189517976Y-72186666D01*
X189517976Y-72186666D02*
X189422738Y-72091428D01*
X189422738Y-72091428D02*
X189375119Y-71948571D01*
X189375119Y-71948571D02*
X189375119Y-71853333D01*
X189375119Y-71853333D02*
X189422738Y-71710476D01*
X189422738Y-71710476D02*
X189470357Y-71662857D01*
X190375119Y-70710476D02*
X190375119Y-71281904D01*
X190375119Y-70996190D02*
X189375119Y-70996190D01*
X189375119Y-70996190D02*
X189517976Y-71091428D01*
X189517976Y-71091428D02*
X189613214Y-71186666D01*
X189613214Y-71186666D02*
X189660833Y-71281904D01*
X189708452Y-69853333D02*
X190375119Y-69853333D01*
X189327500Y-70091428D02*
X190041785Y-70329523D01*
X190041785Y-70329523D02*
X190041785Y-69710476D01*
%TO.C,U2*%
X185908095Y-55812619D02*
X185908095Y-56622142D01*
X185908095Y-56622142D02*
X185955714Y-56717380D01*
X185955714Y-56717380D02*
X186003333Y-56765000D01*
X186003333Y-56765000D02*
X186098571Y-56812619D01*
X186098571Y-56812619D02*
X186289047Y-56812619D01*
X186289047Y-56812619D02*
X186384285Y-56765000D01*
X186384285Y-56765000D02*
X186431904Y-56717380D01*
X186431904Y-56717380D02*
X186479523Y-56622142D01*
X186479523Y-56622142D02*
X186479523Y-55812619D01*
X186908095Y-55907857D02*
X186955714Y-55860238D01*
X186955714Y-55860238D02*
X187050952Y-55812619D01*
X187050952Y-55812619D02*
X187289047Y-55812619D01*
X187289047Y-55812619D02*
X187384285Y-55860238D01*
X187384285Y-55860238D02*
X187431904Y-55907857D01*
X187431904Y-55907857D02*
X187479523Y-56003095D01*
X187479523Y-56003095D02*
X187479523Y-56098333D01*
X187479523Y-56098333D02*
X187431904Y-56241190D01*
X187431904Y-56241190D02*
X186860476Y-56812619D01*
X186860476Y-56812619D02*
X187479523Y-56812619D01*
%TO.C,C1*%
X186063333Y-51697380D02*
X186015714Y-51745000D01*
X186015714Y-51745000D02*
X185872857Y-51792619D01*
X185872857Y-51792619D02*
X185777619Y-51792619D01*
X185777619Y-51792619D02*
X185634762Y-51745000D01*
X185634762Y-51745000D02*
X185539524Y-51649761D01*
X185539524Y-51649761D02*
X185491905Y-51554523D01*
X185491905Y-51554523D02*
X185444286Y-51364047D01*
X185444286Y-51364047D02*
X185444286Y-51221190D01*
X185444286Y-51221190D02*
X185491905Y-51030714D01*
X185491905Y-51030714D02*
X185539524Y-50935476D01*
X185539524Y-50935476D02*
X185634762Y-50840238D01*
X185634762Y-50840238D02*
X185777619Y-50792619D01*
X185777619Y-50792619D02*
X185872857Y-50792619D01*
X185872857Y-50792619D02*
X186015714Y-50840238D01*
X186015714Y-50840238D02*
X186063333Y-50887857D01*
X187015714Y-51792619D02*
X186444286Y-51792619D01*
X186730000Y-51792619D02*
X186730000Y-50792619D01*
X186730000Y-50792619D02*
X186634762Y-50935476D01*
X186634762Y-50935476D02*
X186539524Y-51030714D01*
X186539524Y-51030714D02*
X186444286Y-51078333D01*
%TO.C,R13*%
X174264642Y-75137619D02*
X173931309Y-74661428D01*
X173693214Y-75137619D02*
X173693214Y-74137619D01*
X173693214Y-74137619D02*
X174074166Y-74137619D01*
X174074166Y-74137619D02*
X174169404Y-74185238D01*
X174169404Y-74185238D02*
X174217023Y-74232857D01*
X174217023Y-74232857D02*
X174264642Y-74328095D01*
X174264642Y-74328095D02*
X174264642Y-74470952D01*
X174264642Y-74470952D02*
X174217023Y-74566190D01*
X174217023Y-74566190D02*
X174169404Y-74613809D01*
X174169404Y-74613809D02*
X174074166Y-74661428D01*
X174074166Y-74661428D02*
X173693214Y-74661428D01*
X175217023Y-75137619D02*
X174645595Y-75137619D01*
X174931309Y-75137619D02*
X174931309Y-74137619D01*
X174931309Y-74137619D02*
X174836071Y-74280476D01*
X174836071Y-74280476D02*
X174740833Y-74375714D01*
X174740833Y-74375714D02*
X174645595Y-74423333D01*
X175550357Y-74137619D02*
X176169404Y-74137619D01*
X176169404Y-74137619D02*
X175836071Y-74518571D01*
X175836071Y-74518571D02*
X175978928Y-74518571D01*
X175978928Y-74518571D02*
X176074166Y-74566190D01*
X176074166Y-74566190D02*
X176121785Y-74613809D01*
X176121785Y-74613809D02*
X176169404Y-74709047D01*
X176169404Y-74709047D02*
X176169404Y-74947142D01*
X176169404Y-74947142D02*
X176121785Y-75042380D01*
X176121785Y-75042380D02*
X176074166Y-75090000D01*
X176074166Y-75090000D02*
X175978928Y-75137619D01*
X175978928Y-75137619D02*
X175693214Y-75137619D01*
X175693214Y-75137619D02*
X175597976Y-75090000D01*
X175597976Y-75090000D02*
X175550357Y-75042380D01*
%TO.C,U5*%
X102528095Y-74462619D02*
X102528095Y-75272142D01*
X102528095Y-75272142D02*
X102575714Y-75367380D01*
X102575714Y-75367380D02*
X102623333Y-75415000D01*
X102623333Y-75415000D02*
X102718571Y-75462619D01*
X102718571Y-75462619D02*
X102909047Y-75462619D01*
X102909047Y-75462619D02*
X103004285Y-75415000D01*
X103004285Y-75415000D02*
X103051904Y-75367380D01*
X103051904Y-75367380D02*
X103099523Y-75272142D01*
X103099523Y-75272142D02*
X103099523Y-74462619D01*
X104051904Y-74462619D02*
X103575714Y-74462619D01*
X103575714Y-74462619D02*
X103528095Y-74938809D01*
X103528095Y-74938809D02*
X103575714Y-74891190D01*
X103575714Y-74891190D02*
X103670952Y-74843571D01*
X103670952Y-74843571D02*
X103909047Y-74843571D01*
X103909047Y-74843571D02*
X104004285Y-74891190D01*
X104004285Y-74891190D02*
X104051904Y-74938809D01*
X104051904Y-74938809D02*
X104099523Y-75034047D01*
X104099523Y-75034047D02*
X104099523Y-75272142D01*
X104099523Y-75272142D02*
X104051904Y-75367380D01*
X104051904Y-75367380D02*
X104004285Y-75415000D01*
X104004285Y-75415000D02*
X103909047Y-75462619D01*
X103909047Y-75462619D02*
X103670952Y-75462619D01*
X103670952Y-75462619D02*
X103575714Y-75415000D01*
X103575714Y-75415000D02*
X103528095Y-75367380D01*
%TO.C,C17*%
X190279880Y-74862857D02*
X190327500Y-74910476D01*
X190327500Y-74910476D02*
X190375119Y-75053333D01*
X190375119Y-75053333D02*
X190375119Y-75148571D01*
X190375119Y-75148571D02*
X190327500Y-75291428D01*
X190327500Y-75291428D02*
X190232261Y-75386666D01*
X190232261Y-75386666D02*
X190137023Y-75434285D01*
X190137023Y-75434285D02*
X189946547Y-75481904D01*
X189946547Y-75481904D02*
X189803690Y-75481904D01*
X189803690Y-75481904D02*
X189613214Y-75434285D01*
X189613214Y-75434285D02*
X189517976Y-75386666D01*
X189517976Y-75386666D02*
X189422738Y-75291428D01*
X189422738Y-75291428D02*
X189375119Y-75148571D01*
X189375119Y-75148571D02*
X189375119Y-75053333D01*
X189375119Y-75053333D02*
X189422738Y-74910476D01*
X189422738Y-74910476D02*
X189470357Y-74862857D01*
X190375119Y-73910476D02*
X190375119Y-74481904D01*
X190375119Y-74196190D02*
X189375119Y-74196190D01*
X189375119Y-74196190D02*
X189517976Y-74291428D01*
X189517976Y-74291428D02*
X189613214Y-74386666D01*
X189613214Y-74386666D02*
X189660833Y-74481904D01*
X189375119Y-73577142D02*
X189375119Y-72910476D01*
X189375119Y-72910476D02*
X190375119Y-73339047D01*
%TO.C,R17*%
X97347142Y-79787619D02*
X97013809Y-79311428D01*
X96775714Y-79787619D02*
X96775714Y-78787619D01*
X96775714Y-78787619D02*
X97156666Y-78787619D01*
X97156666Y-78787619D02*
X97251904Y-78835238D01*
X97251904Y-78835238D02*
X97299523Y-78882857D01*
X97299523Y-78882857D02*
X97347142Y-78978095D01*
X97347142Y-78978095D02*
X97347142Y-79120952D01*
X97347142Y-79120952D02*
X97299523Y-79216190D01*
X97299523Y-79216190D02*
X97251904Y-79263809D01*
X97251904Y-79263809D02*
X97156666Y-79311428D01*
X97156666Y-79311428D02*
X96775714Y-79311428D01*
X98299523Y-79787619D02*
X97728095Y-79787619D01*
X98013809Y-79787619D02*
X98013809Y-78787619D01*
X98013809Y-78787619D02*
X97918571Y-78930476D01*
X97918571Y-78930476D02*
X97823333Y-79025714D01*
X97823333Y-79025714D02*
X97728095Y-79073333D01*
X98632857Y-78787619D02*
X99299523Y-78787619D01*
X99299523Y-78787619D02*
X98870952Y-79787619D01*
%TO.C,R1*%
X174658333Y-95532619D02*
X174325000Y-95056428D01*
X174086905Y-95532619D02*
X174086905Y-94532619D01*
X174086905Y-94532619D02*
X174467857Y-94532619D01*
X174467857Y-94532619D02*
X174563095Y-94580238D01*
X174563095Y-94580238D02*
X174610714Y-94627857D01*
X174610714Y-94627857D02*
X174658333Y-94723095D01*
X174658333Y-94723095D02*
X174658333Y-94865952D01*
X174658333Y-94865952D02*
X174610714Y-94961190D01*
X174610714Y-94961190D02*
X174563095Y-95008809D01*
X174563095Y-95008809D02*
X174467857Y-95056428D01*
X174467857Y-95056428D02*
X174086905Y-95056428D01*
X175610714Y-95532619D02*
X175039286Y-95532619D01*
X175325000Y-95532619D02*
X175325000Y-94532619D01*
X175325000Y-94532619D02*
X175229762Y-94675476D01*
X175229762Y-94675476D02*
X175134524Y-94770714D01*
X175134524Y-94770714D02*
X175039286Y-94818333D01*
%TO.C,R15*%
X123682619Y-98627857D02*
X123206428Y-98961190D01*
X123682619Y-99199285D02*
X122682619Y-99199285D01*
X122682619Y-99199285D02*
X122682619Y-98818333D01*
X122682619Y-98818333D02*
X122730238Y-98723095D01*
X122730238Y-98723095D02*
X122777857Y-98675476D01*
X122777857Y-98675476D02*
X122873095Y-98627857D01*
X122873095Y-98627857D02*
X123015952Y-98627857D01*
X123015952Y-98627857D02*
X123111190Y-98675476D01*
X123111190Y-98675476D02*
X123158809Y-98723095D01*
X123158809Y-98723095D02*
X123206428Y-98818333D01*
X123206428Y-98818333D02*
X123206428Y-99199285D01*
X123682619Y-97675476D02*
X123682619Y-98246904D01*
X123682619Y-97961190D02*
X122682619Y-97961190D01*
X122682619Y-97961190D02*
X122825476Y-98056428D01*
X122825476Y-98056428D02*
X122920714Y-98151666D01*
X122920714Y-98151666D02*
X122968333Y-98246904D01*
X122682619Y-96770714D02*
X122682619Y-97246904D01*
X122682619Y-97246904D02*
X123158809Y-97294523D01*
X123158809Y-97294523D02*
X123111190Y-97246904D01*
X123111190Y-97246904D02*
X123063571Y-97151666D01*
X123063571Y-97151666D02*
X123063571Y-96913571D01*
X123063571Y-96913571D02*
X123111190Y-96818333D01*
X123111190Y-96818333D02*
X123158809Y-96770714D01*
X123158809Y-96770714D02*
X123254047Y-96723095D01*
X123254047Y-96723095D02*
X123492142Y-96723095D01*
X123492142Y-96723095D02*
X123587380Y-96770714D01*
X123587380Y-96770714D02*
X123635000Y-96818333D01*
X123635000Y-96818333D02*
X123682619Y-96913571D01*
X123682619Y-96913571D02*
X123682619Y-97151666D01*
X123682619Y-97151666D02*
X123635000Y-97246904D01*
X123635000Y-97246904D02*
X123587380Y-97294523D01*
%TO.C,J2*%
X195666666Y-63132619D02*
X195666666Y-63846904D01*
X195666666Y-63846904D02*
X195619047Y-63989761D01*
X195619047Y-63989761D02*
X195523809Y-64085000D01*
X195523809Y-64085000D02*
X195380952Y-64132619D01*
X195380952Y-64132619D02*
X195285714Y-64132619D01*
X196095238Y-63227857D02*
X196142857Y-63180238D01*
X196142857Y-63180238D02*
X196238095Y-63132619D01*
X196238095Y-63132619D02*
X196476190Y-63132619D01*
X196476190Y-63132619D02*
X196571428Y-63180238D01*
X196571428Y-63180238D02*
X196619047Y-63227857D01*
X196619047Y-63227857D02*
X196666666Y-63323095D01*
X196666666Y-63323095D02*
X196666666Y-63418333D01*
X196666666Y-63418333D02*
X196619047Y-63561190D01*
X196619047Y-63561190D02*
X196047619Y-64132619D01*
X196047619Y-64132619D02*
X196666666Y-64132619D01*
%TO.C,R21*%
X97347142Y-78187619D02*
X97013809Y-77711428D01*
X96775714Y-78187619D02*
X96775714Y-77187619D01*
X96775714Y-77187619D02*
X97156666Y-77187619D01*
X97156666Y-77187619D02*
X97251904Y-77235238D01*
X97251904Y-77235238D02*
X97299523Y-77282857D01*
X97299523Y-77282857D02*
X97347142Y-77378095D01*
X97347142Y-77378095D02*
X97347142Y-77520952D01*
X97347142Y-77520952D02*
X97299523Y-77616190D01*
X97299523Y-77616190D02*
X97251904Y-77663809D01*
X97251904Y-77663809D02*
X97156666Y-77711428D01*
X97156666Y-77711428D02*
X96775714Y-77711428D01*
X97728095Y-77282857D02*
X97775714Y-77235238D01*
X97775714Y-77235238D02*
X97870952Y-77187619D01*
X97870952Y-77187619D02*
X98109047Y-77187619D01*
X98109047Y-77187619D02*
X98204285Y-77235238D01*
X98204285Y-77235238D02*
X98251904Y-77282857D01*
X98251904Y-77282857D02*
X98299523Y-77378095D01*
X98299523Y-77378095D02*
X98299523Y-77473333D01*
X98299523Y-77473333D02*
X98251904Y-77616190D01*
X98251904Y-77616190D02*
X97680476Y-78187619D01*
X97680476Y-78187619D02*
X98299523Y-78187619D01*
X99251904Y-78187619D02*
X98680476Y-78187619D01*
X98966190Y-78187619D02*
X98966190Y-77187619D01*
X98966190Y-77187619D02*
X98870952Y-77330476D01*
X98870952Y-77330476D02*
X98775714Y-77425714D01*
X98775714Y-77425714D02*
X98680476Y-77473333D01*
%TO.C,C23*%
X102597142Y-94292380D02*
X102549523Y-94340000D01*
X102549523Y-94340000D02*
X102406666Y-94387619D01*
X102406666Y-94387619D02*
X102311428Y-94387619D01*
X102311428Y-94387619D02*
X102168571Y-94340000D01*
X102168571Y-94340000D02*
X102073333Y-94244761D01*
X102073333Y-94244761D02*
X102025714Y-94149523D01*
X102025714Y-94149523D02*
X101978095Y-93959047D01*
X101978095Y-93959047D02*
X101978095Y-93816190D01*
X101978095Y-93816190D02*
X102025714Y-93625714D01*
X102025714Y-93625714D02*
X102073333Y-93530476D01*
X102073333Y-93530476D02*
X102168571Y-93435238D01*
X102168571Y-93435238D02*
X102311428Y-93387619D01*
X102311428Y-93387619D02*
X102406666Y-93387619D01*
X102406666Y-93387619D02*
X102549523Y-93435238D01*
X102549523Y-93435238D02*
X102597142Y-93482857D01*
X102978095Y-93482857D02*
X103025714Y-93435238D01*
X103025714Y-93435238D02*
X103120952Y-93387619D01*
X103120952Y-93387619D02*
X103359047Y-93387619D01*
X103359047Y-93387619D02*
X103454285Y-93435238D01*
X103454285Y-93435238D02*
X103501904Y-93482857D01*
X103501904Y-93482857D02*
X103549523Y-93578095D01*
X103549523Y-93578095D02*
X103549523Y-93673333D01*
X103549523Y-93673333D02*
X103501904Y-93816190D01*
X103501904Y-93816190D02*
X102930476Y-94387619D01*
X102930476Y-94387619D02*
X103549523Y-94387619D01*
X103882857Y-93387619D02*
X104501904Y-93387619D01*
X104501904Y-93387619D02*
X104168571Y-93768571D01*
X104168571Y-93768571D02*
X104311428Y-93768571D01*
X104311428Y-93768571D02*
X104406666Y-93816190D01*
X104406666Y-93816190D02*
X104454285Y-93863809D01*
X104454285Y-93863809D02*
X104501904Y-93959047D01*
X104501904Y-93959047D02*
X104501904Y-94197142D01*
X104501904Y-94197142D02*
X104454285Y-94292380D01*
X104454285Y-94292380D02*
X104406666Y-94340000D01*
X104406666Y-94340000D02*
X104311428Y-94387619D01*
X104311428Y-94387619D02*
X104025714Y-94387619D01*
X104025714Y-94387619D02*
X103930476Y-94340000D01*
X103930476Y-94340000D02*
X103882857Y-94292380D01*
%TO.C,R22*%
X107897142Y-88727619D02*
X107563809Y-88251428D01*
X107325714Y-88727619D02*
X107325714Y-87727619D01*
X107325714Y-87727619D02*
X107706666Y-87727619D01*
X107706666Y-87727619D02*
X107801904Y-87775238D01*
X107801904Y-87775238D02*
X107849523Y-87822857D01*
X107849523Y-87822857D02*
X107897142Y-87918095D01*
X107897142Y-87918095D02*
X107897142Y-88060952D01*
X107897142Y-88060952D02*
X107849523Y-88156190D01*
X107849523Y-88156190D02*
X107801904Y-88203809D01*
X107801904Y-88203809D02*
X107706666Y-88251428D01*
X107706666Y-88251428D02*
X107325714Y-88251428D01*
X108278095Y-87822857D02*
X108325714Y-87775238D01*
X108325714Y-87775238D02*
X108420952Y-87727619D01*
X108420952Y-87727619D02*
X108659047Y-87727619D01*
X108659047Y-87727619D02*
X108754285Y-87775238D01*
X108754285Y-87775238D02*
X108801904Y-87822857D01*
X108801904Y-87822857D02*
X108849523Y-87918095D01*
X108849523Y-87918095D02*
X108849523Y-88013333D01*
X108849523Y-88013333D02*
X108801904Y-88156190D01*
X108801904Y-88156190D02*
X108230476Y-88727619D01*
X108230476Y-88727619D02*
X108849523Y-88727619D01*
X109230476Y-87822857D02*
X109278095Y-87775238D01*
X109278095Y-87775238D02*
X109373333Y-87727619D01*
X109373333Y-87727619D02*
X109611428Y-87727619D01*
X109611428Y-87727619D02*
X109706666Y-87775238D01*
X109706666Y-87775238D02*
X109754285Y-87822857D01*
X109754285Y-87822857D02*
X109801904Y-87918095D01*
X109801904Y-87918095D02*
X109801904Y-88013333D01*
X109801904Y-88013333D02*
X109754285Y-88156190D01*
X109754285Y-88156190D02*
X109182857Y-88727619D01*
X109182857Y-88727619D02*
X109801904Y-88727619D01*
%TO.C,R6*%
X186318333Y-95727619D02*
X185985000Y-95251428D01*
X185746905Y-95727619D02*
X185746905Y-94727619D01*
X185746905Y-94727619D02*
X186127857Y-94727619D01*
X186127857Y-94727619D02*
X186223095Y-94775238D01*
X186223095Y-94775238D02*
X186270714Y-94822857D01*
X186270714Y-94822857D02*
X186318333Y-94918095D01*
X186318333Y-94918095D02*
X186318333Y-95060952D01*
X186318333Y-95060952D02*
X186270714Y-95156190D01*
X186270714Y-95156190D02*
X186223095Y-95203809D01*
X186223095Y-95203809D02*
X186127857Y-95251428D01*
X186127857Y-95251428D02*
X185746905Y-95251428D01*
X187175476Y-94727619D02*
X186985000Y-94727619D01*
X186985000Y-94727619D02*
X186889762Y-94775238D01*
X186889762Y-94775238D02*
X186842143Y-94822857D01*
X186842143Y-94822857D02*
X186746905Y-94965714D01*
X186746905Y-94965714D02*
X186699286Y-95156190D01*
X186699286Y-95156190D02*
X186699286Y-95537142D01*
X186699286Y-95537142D02*
X186746905Y-95632380D01*
X186746905Y-95632380D02*
X186794524Y-95680000D01*
X186794524Y-95680000D02*
X186889762Y-95727619D01*
X186889762Y-95727619D02*
X187080238Y-95727619D01*
X187080238Y-95727619D02*
X187175476Y-95680000D01*
X187175476Y-95680000D02*
X187223095Y-95632380D01*
X187223095Y-95632380D02*
X187270714Y-95537142D01*
X187270714Y-95537142D02*
X187270714Y-95299047D01*
X187270714Y-95299047D02*
X187223095Y-95203809D01*
X187223095Y-95203809D02*
X187175476Y-95156190D01*
X187175476Y-95156190D02*
X187080238Y-95108571D01*
X187080238Y-95108571D02*
X186889762Y-95108571D01*
X186889762Y-95108571D02*
X186794524Y-95156190D01*
X186794524Y-95156190D02*
X186746905Y-95203809D01*
X186746905Y-95203809D02*
X186699286Y-95299047D01*
%TO.C,R16*%
X107997142Y-78127619D02*
X107663809Y-77651428D01*
X107425714Y-78127619D02*
X107425714Y-77127619D01*
X107425714Y-77127619D02*
X107806666Y-77127619D01*
X107806666Y-77127619D02*
X107901904Y-77175238D01*
X107901904Y-77175238D02*
X107949523Y-77222857D01*
X107949523Y-77222857D02*
X107997142Y-77318095D01*
X107997142Y-77318095D02*
X107997142Y-77460952D01*
X107997142Y-77460952D02*
X107949523Y-77556190D01*
X107949523Y-77556190D02*
X107901904Y-77603809D01*
X107901904Y-77603809D02*
X107806666Y-77651428D01*
X107806666Y-77651428D02*
X107425714Y-77651428D01*
X108949523Y-78127619D02*
X108378095Y-78127619D01*
X108663809Y-78127619D02*
X108663809Y-77127619D01*
X108663809Y-77127619D02*
X108568571Y-77270476D01*
X108568571Y-77270476D02*
X108473333Y-77365714D01*
X108473333Y-77365714D02*
X108378095Y-77413333D01*
X109806666Y-77127619D02*
X109616190Y-77127619D01*
X109616190Y-77127619D02*
X109520952Y-77175238D01*
X109520952Y-77175238D02*
X109473333Y-77222857D01*
X109473333Y-77222857D02*
X109378095Y-77365714D01*
X109378095Y-77365714D02*
X109330476Y-77556190D01*
X109330476Y-77556190D02*
X109330476Y-77937142D01*
X109330476Y-77937142D02*
X109378095Y-78032380D01*
X109378095Y-78032380D02*
X109425714Y-78080000D01*
X109425714Y-78080000D02*
X109520952Y-78127619D01*
X109520952Y-78127619D02*
X109711428Y-78127619D01*
X109711428Y-78127619D02*
X109806666Y-78080000D01*
X109806666Y-78080000D02*
X109854285Y-78032380D01*
X109854285Y-78032380D02*
X109901904Y-77937142D01*
X109901904Y-77937142D02*
X109901904Y-77699047D01*
X109901904Y-77699047D02*
X109854285Y-77603809D01*
X109854285Y-77603809D02*
X109806666Y-77556190D01*
X109806666Y-77556190D02*
X109711428Y-77508571D01*
X109711428Y-77508571D02*
X109520952Y-77508571D01*
X109520952Y-77508571D02*
X109425714Y-77556190D01*
X109425714Y-77556190D02*
X109378095Y-77603809D01*
X109378095Y-77603809D02*
X109330476Y-77699047D01*
%TO.C,R23*%
X97247142Y-90287619D02*
X96913809Y-89811428D01*
X96675714Y-90287619D02*
X96675714Y-89287619D01*
X96675714Y-89287619D02*
X97056666Y-89287619D01*
X97056666Y-89287619D02*
X97151904Y-89335238D01*
X97151904Y-89335238D02*
X97199523Y-89382857D01*
X97199523Y-89382857D02*
X97247142Y-89478095D01*
X97247142Y-89478095D02*
X97247142Y-89620952D01*
X97247142Y-89620952D02*
X97199523Y-89716190D01*
X97199523Y-89716190D02*
X97151904Y-89763809D01*
X97151904Y-89763809D02*
X97056666Y-89811428D01*
X97056666Y-89811428D02*
X96675714Y-89811428D01*
X97628095Y-89382857D02*
X97675714Y-89335238D01*
X97675714Y-89335238D02*
X97770952Y-89287619D01*
X97770952Y-89287619D02*
X98009047Y-89287619D01*
X98009047Y-89287619D02*
X98104285Y-89335238D01*
X98104285Y-89335238D02*
X98151904Y-89382857D01*
X98151904Y-89382857D02*
X98199523Y-89478095D01*
X98199523Y-89478095D02*
X98199523Y-89573333D01*
X98199523Y-89573333D02*
X98151904Y-89716190D01*
X98151904Y-89716190D02*
X97580476Y-90287619D01*
X97580476Y-90287619D02*
X98199523Y-90287619D01*
X98532857Y-89287619D02*
X99151904Y-89287619D01*
X99151904Y-89287619D02*
X98818571Y-89668571D01*
X98818571Y-89668571D02*
X98961428Y-89668571D01*
X98961428Y-89668571D02*
X99056666Y-89716190D01*
X99056666Y-89716190D02*
X99104285Y-89763809D01*
X99104285Y-89763809D02*
X99151904Y-89859047D01*
X99151904Y-89859047D02*
X99151904Y-90097142D01*
X99151904Y-90097142D02*
X99104285Y-90192380D01*
X99104285Y-90192380D02*
X99056666Y-90240000D01*
X99056666Y-90240000D02*
X98961428Y-90287619D01*
X98961428Y-90287619D02*
X98675714Y-90287619D01*
X98675714Y-90287619D02*
X98580476Y-90240000D01*
X98580476Y-90240000D02*
X98532857Y-90192380D01*
%TO.C,U7*%
X102453095Y-95857619D02*
X102453095Y-96667142D01*
X102453095Y-96667142D02*
X102500714Y-96762380D01*
X102500714Y-96762380D02*
X102548333Y-96810000D01*
X102548333Y-96810000D02*
X102643571Y-96857619D01*
X102643571Y-96857619D02*
X102834047Y-96857619D01*
X102834047Y-96857619D02*
X102929285Y-96810000D01*
X102929285Y-96810000D02*
X102976904Y-96762380D01*
X102976904Y-96762380D02*
X103024523Y-96667142D01*
X103024523Y-96667142D02*
X103024523Y-95857619D01*
X103405476Y-95857619D02*
X104072142Y-95857619D01*
X104072142Y-95857619D02*
X103643571Y-96857619D01*
%TO.C,R28*%
X97247142Y-101087619D02*
X96913809Y-100611428D01*
X96675714Y-101087619D02*
X96675714Y-100087619D01*
X96675714Y-100087619D02*
X97056666Y-100087619D01*
X97056666Y-100087619D02*
X97151904Y-100135238D01*
X97151904Y-100135238D02*
X97199523Y-100182857D01*
X97199523Y-100182857D02*
X97247142Y-100278095D01*
X97247142Y-100278095D02*
X97247142Y-100420952D01*
X97247142Y-100420952D02*
X97199523Y-100516190D01*
X97199523Y-100516190D02*
X97151904Y-100563809D01*
X97151904Y-100563809D02*
X97056666Y-100611428D01*
X97056666Y-100611428D02*
X96675714Y-100611428D01*
X97628095Y-100182857D02*
X97675714Y-100135238D01*
X97675714Y-100135238D02*
X97770952Y-100087619D01*
X97770952Y-100087619D02*
X98009047Y-100087619D01*
X98009047Y-100087619D02*
X98104285Y-100135238D01*
X98104285Y-100135238D02*
X98151904Y-100182857D01*
X98151904Y-100182857D02*
X98199523Y-100278095D01*
X98199523Y-100278095D02*
X98199523Y-100373333D01*
X98199523Y-100373333D02*
X98151904Y-100516190D01*
X98151904Y-100516190D02*
X97580476Y-101087619D01*
X97580476Y-101087619D02*
X98199523Y-101087619D01*
X98770952Y-100516190D02*
X98675714Y-100468571D01*
X98675714Y-100468571D02*
X98628095Y-100420952D01*
X98628095Y-100420952D02*
X98580476Y-100325714D01*
X98580476Y-100325714D02*
X98580476Y-100278095D01*
X98580476Y-100278095D02*
X98628095Y-100182857D01*
X98628095Y-100182857D02*
X98675714Y-100135238D01*
X98675714Y-100135238D02*
X98770952Y-100087619D01*
X98770952Y-100087619D02*
X98961428Y-100087619D01*
X98961428Y-100087619D02*
X99056666Y-100135238D01*
X99056666Y-100135238D02*
X99104285Y-100182857D01*
X99104285Y-100182857D02*
X99151904Y-100278095D01*
X99151904Y-100278095D02*
X99151904Y-100325714D01*
X99151904Y-100325714D02*
X99104285Y-100420952D01*
X99104285Y-100420952D02*
X99056666Y-100468571D01*
X99056666Y-100468571D02*
X98961428Y-100516190D01*
X98961428Y-100516190D02*
X98770952Y-100516190D01*
X98770952Y-100516190D02*
X98675714Y-100563809D01*
X98675714Y-100563809D02*
X98628095Y-100611428D01*
X98628095Y-100611428D02*
X98580476Y-100706666D01*
X98580476Y-100706666D02*
X98580476Y-100897142D01*
X98580476Y-100897142D02*
X98628095Y-100992380D01*
X98628095Y-100992380D02*
X98675714Y-101040000D01*
X98675714Y-101040000D02*
X98770952Y-101087619D01*
X98770952Y-101087619D02*
X98961428Y-101087619D01*
X98961428Y-101087619D02*
X99056666Y-101040000D01*
X99056666Y-101040000D02*
X99104285Y-100992380D01*
X99104285Y-100992380D02*
X99151904Y-100897142D01*
X99151904Y-100897142D02*
X99151904Y-100706666D01*
X99151904Y-100706666D02*
X99104285Y-100611428D01*
X99104285Y-100611428D02*
X99056666Y-100563809D01*
X99056666Y-100563809D02*
X98961428Y-100516190D01*
%TO.C,R7*%
X186318333Y-87767619D02*
X185985000Y-87291428D01*
X185746905Y-87767619D02*
X185746905Y-86767619D01*
X185746905Y-86767619D02*
X186127857Y-86767619D01*
X186127857Y-86767619D02*
X186223095Y-86815238D01*
X186223095Y-86815238D02*
X186270714Y-86862857D01*
X186270714Y-86862857D02*
X186318333Y-86958095D01*
X186318333Y-86958095D02*
X186318333Y-87100952D01*
X186318333Y-87100952D02*
X186270714Y-87196190D01*
X186270714Y-87196190D02*
X186223095Y-87243809D01*
X186223095Y-87243809D02*
X186127857Y-87291428D01*
X186127857Y-87291428D02*
X185746905Y-87291428D01*
X186651667Y-86767619D02*
X187318333Y-86767619D01*
X187318333Y-86767619D02*
X186889762Y-87767619D01*
%TO.C,C15*%
X191879880Y-74862857D02*
X191927500Y-74910476D01*
X191927500Y-74910476D02*
X191975119Y-75053333D01*
X191975119Y-75053333D02*
X191975119Y-75148571D01*
X191975119Y-75148571D02*
X191927500Y-75291428D01*
X191927500Y-75291428D02*
X191832261Y-75386666D01*
X191832261Y-75386666D02*
X191737023Y-75434285D01*
X191737023Y-75434285D02*
X191546547Y-75481904D01*
X191546547Y-75481904D02*
X191403690Y-75481904D01*
X191403690Y-75481904D02*
X191213214Y-75434285D01*
X191213214Y-75434285D02*
X191117976Y-75386666D01*
X191117976Y-75386666D02*
X191022738Y-75291428D01*
X191022738Y-75291428D02*
X190975119Y-75148571D01*
X190975119Y-75148571D02*
X190975119Y-75053333D01*
X190975119Y-75053333D02*
X191022738Y-74910476D01*
X191022738Y-74910476D02*
X191070357Y-74862857D01*
X191975119Y-73910476D02*
X191975119Y-74481904D01*
X191975119Y-74196190D02*
X190975119Y-74196190D01*
X190975119Y-74196190D02*
X191117976Y-74291428D01*
X191117976Y-74291428D02*
X191213214Y-74386666D01*
X191213214Y-74386666D02*
X191260833Y-74481904D01*
X190975119Y-73005714D02*
X190975119Y-73481904D01*
X190975119Y-73481904D02*
X191451309Y-73529523D01*
X191451309Y-73529523D02*
X191403690Y-73481904D01*
X191403690Y-73481904D02*
X191356071Y-73386666D01*
X191356071Y-73386666D02*
X191356071Y-73148571D01*
X191356071Y-73148571D02*
X191403690Y-73053333D01*
X191403690Y-73053333D02*
X191451309Y-73005714D01*
X191451309Y-73005714D02*
X191546547Y-72958095D01*
X191546547Y-72958095D02*
X191784642Y-72958095D01*
X191784642Y-72958095D02*
X191879880Y-73005714D01*
X191879880Y-73005714D02*
X191927500Y-73053333D01*
X191927500Y-73053333D02*
X191975119Y-73148571D01*
X191975119Y-73148571D02*
X191975119Y-73386666D01*
X191975119Y-73386666D02*
X191927500Y-73481904D01*
X191927500Y-73481904D02*
X191879880Y-73529523D01*
%TO.C,C24*%
X102597142Y-105192380D02*
X102549523Y-105240000D01*
X102549523Y-105240000D02*
X102406666Y-105287619D01*
X102406666Y-105287619D02*
X102311428Y-105287619D01*
X102311428Y-105287619D02*
X102168571Y-105240000D01*
X102168571Y-105240000D02*
X102073333Y-105144761D01*
X102073333Y-105144761D02*
X102025714Y-105049523D01*
X102025714Y-105049523D02*
X101978095Y-104859047D01*
X101978095Y-104859047D02*
X101978095Y-104716190D01*
X101978095Y-104716190D02*
X102025714Y-104525714D01*
X102025714Y-104525714D02*
X102073333Y-104430476D01*
X102073333Y-104430476D02*
X102168571Y-104335238D01*
X102168571Y-104335238D02*
X102311428Y-104287619D01*
X102311428Y-104287619D02*
X102406666Y-104287619D01*
X102406666Y-104287619D02*
X102549523Y-104335238D01*
X102549523Y-104335238D02*
X102597142Y-104382857D01*
X102978095Y-104382857D02*
X103025714Y-104335238D01*
X103025714Y-104335238D02*
X103120952Y-104287619D01*
X103120952Y-104287619D02*
X103359047Y-104287619D01*
X103359047Y-104287619D02*
X103454285Y-104335238D01*
X103454285Y-104335238D02*
X103501904Y-104382857D01*
X103501904Y-104382857D02*
X103549523Y-104478095D01*
X103549523Y-104478095D02*
X103549523Y-104573333D01*
X103549523Y-104573333D02*
X103501904Y-104716190D01*
X103501904Y-104716190D02*
X102930476Y-105287619D01*
X102930476Y-105287619D02*
X103549523Y-105287619D01*
X104406666Y-104620952D02*
X104406666Y-105287619D01*
X104168571Y-104240000D02*
X103930476Y-104954285D01*
X103930476Y-104954285D02*
X104549523Y-104954285D01*
%TO.C,R5*%
X175568333Y-91567619D02*
X175235000Y-91091428D01*
X174996905Y-91567619D02*
X174996905Y-90567619D01*
X174996905Y-90567619D02*
X175377857Y-90567619D01*
X175377857Y-90567619D02*
X175473095Y-90615238D01*
X175473095Y-90615238D02*
X175520714Y-90662857D01*
X175520714Y-90662857D02*
X175568333Y-90758095D01*
X175568333Y-90758095D02*
X175568333Y-90900952D01*
X175568333Y-90900952D02*
X175520714Y-90996190D01*
X175520714Y-90996190D02*
X175473095Y-91043809D01*
X175473095Y-91043809D02*
X175377857Y-91091428D01*
X175377857Y-91091428D02*
X174996905Y-91091428D01*
X176473095Y-90567619D02*
X175996905Y-90567619D01*
X175996905Y-90567619D02*
X175949286Y-91043809D01*
X175949286Y-91043809D02*
X175996905Y-90996190D01*
X175996905Y-90996190D02*
X176092143Y-90948571D01*
X176092143Y-90948571D02*
X176330238Y-90948571D01*
X176330238Y-90948571D02*
X176425476Y-90996190D01*
X176425476Y-90996190D02*
X176473095Y-91043809D01*
X176473095Y-91043809D02*
X176520714Y-91139047D01*
X176520714Y-91139047D02*
X176520714Y-91377142D01*
X176520714Y-91377142D02*
X176473095Y-91472380D01*
X176473095Y-91472380D02*
X176425476Y-91520000D01*
X176425476Y-91520000D02*
X176330238Y-91567619D01*
X176330238Y-91567619D02*
X176092143Y-91567619D01*
X176092143Y-91567619D02*
X175996905Y-91520000D01*
X175996905Y-91520000D02*
X175949286Y-91472380D01*
%TO.C,JP2*%
X126462619Y-73083334D02*
X127176904Y-73083334D01*
X127176904Y-73083334D02*
X127319761Y-73130953D01*
X127319761Y-73130953D02*
X127415000Y-73226191D01*
X127415000Y-73226191D02*
X127462619Y-73369048D01*
X127462619Y-73369048D02*
X127462619Y-73464286D01*
X127462619Y-72607143D02*
X126462619Y-72607143D01*
X126462619Y-72607143D02*
X126462619Y-72226191D01*
X126462619Y-72226191D02*
X126510238Y-72130953D01*
X126510238Y-72130953D02*
X126557857Y-72083334D01*
X126557857Y-72083334D02*
X126653095Y-72035715D01*
X126653095Y-72035715D02*
X126795952Y-72035715D01*
X126795952Y-72035715D02*
X126891190Y-72083334D01*
X126891190Y-72083334D02*
X126938809Y-72130953D01*
X126938809Y-72130953D02*
X126986428Y-72226191D01*
X126986428Y-72226191D02*
X126986428Y-72607143D01*
X126557857Y-71654762D02*
X126510238Y-71607143D01*
X126510238Y-71607143D02*
X126462619Y-71511905D01*
X126462619Y-71511905D02*
X126462619Y-71273810D01*
X126462619Y-71273810D02*
X126510238Y-71178572D01*
X126510238Y-71178572D02*
X126557857Y-71130953D01*
X126557857Y-71130953D02*
X126653095Y-71083334D01*
X126653095Y-71083334D02*
X126748333Y-71083334D01*
X126748333Y-71083334D02*
X126891190Y-71130953D01*
X126891190Y-71130953D02*
X127462619Y-71702381D01*
X127462619Y-71702381D02*
X127462619Y-71083334D01*
%TO.C,C6*%
X180868333Y-100132380D02*
X180820714Y-100180000D01*
X180820714Y-100180000D02*
X180677857Y-100227619D01*
X180677857Y-100227619D02*
X180582619Y-100227619D01*
X180582619Y-100227619D02*
X180439762Y-100180000D01*
X180439762Y-100180000D02*
X180344524Y-100084761D01*
X180344524Y-100084761D02*
X180296905Y-99989523D01*
X180296905Y-99989523D02*
X180249286Y-99799047D01*
X180249286Y-99799047D02*
X180249286Y-99656190D01*
X180249286Y-99656190D02*
X180296905Y-99465714D01*
X180296905Y-99465714D02*
X180344524Y-99370476D01*
X180344524Y-99370476D02*
X180439762Y-99275238D01*
X180439762Y-99275238D02*
X180582619Y-99227619D01*
X180582619Y-99227619D02*
X180677857Y-99227619D01*
X180677857Y-99227619D02*
X180820714Y-99275238D01*
X180820714Y-99275238D02*
X180868333Y-99322857D01*
X181725476Y-99227619D02*
X181535000Y-99227619D01*
X181535000Y-99227619D02*
X181439762Y-99275238D01*
X181439762Y-99275238D02*
X181392143Y-99322857D01*
X181392143Y-99322857D02*
X181296905Y-99465714D01*
X181296905Y-99465714D02*
X181249286Y-99656190D01*
X181249286Y-99656190D02*
X181249286Y-100037142D01*
X181249286Y-100037142D02*
X181296905Y-100132380D01*
X181296905Y-100132380D02*
X181344524Y-100180000D01*
X181344524Y-100180000D02*
X181439762Y-100227619D01*
X181439762Y-100227619D02*
X181630238Y-100227619D01*
X181630238Y-100227619D02*
X181725476Y-100180000D01*
X181725476Y-100180000D02*
X181773095Y-100132380D01*
X181773095Y-100132380D02*
X181820714Y-100037142D01*
X181820714Y-100037142D02*
X181820714Y-99799047D01*
X181820714Y-99799047D02*
X181773095Y-99703809D01*
X181773095Y-99703809D02*
X181725476Y-99656190D01*
X181725476Y-99656190D02*
X181630238Y-99608571D01*
X181630238Y-99608571D02*
X181439762Y-99608571D01*
X181439762Y-99608571D02*
X181344524Y-99656190D01*
X181344524Y-99656190D02*
X181296905Y-99703809D01*
X181296905Y-99703809D02*
X181249286Y-99799047D01*
%TO.C,R26*%
X106847619Y-86362857D02*
X106371428Y-86696190D01*
X106847619Y-86934285D02*
X105847619Y-86934285D01*
X105847619Y-86934285D02*
X105847619Y-86553333D01*
X105847619Y-86553333D02*
X105895238Y-86458095D01*
X105895238Y-86458095D02*
X105942857Y-86410476D01*
X105942857Y-86410476D02*
X106038095Y-86362857D01*
X106038095Y-86362857D02*
X106180952Y-86362857D01*
X106180952Y-86362857D02*
X106276190Y-86410476D01*
X106276190Y-86410476D02*
X106323809Y-86458095D01*
X106323809Y-86458095D02*
X106371428Y-86553333D01*
X106371428Y-86553333D02*
X106371428Y-86934285D01*
X105942857Y-85981904D02*
X105895238Y-85934285D01*
X105895238Y-85934285D02*
X105847619Y-85839047D01*
X105847619Y-85839047D02*
X105847619Y-85600952D01*
X105847619Y-85600952D02*
X105895238Y-85505714D01*
X105895238Y-85505714D02*
X105942857Y-85458095D01*
X105942857Y-85458095D02*
X106038095Y-85410476D01*
X106038095Y-85410476D02*
X106133333Y-85410476D01*
X106133333Y-85410476D02*
X106276190Y-85458095D01*
X106276190Y-85458095D02*
X106847619Y-86029523D01*
X106847619Y-86029523D02*
X106847619Y-85410476D01*
X105847619Y-84553333D02*
X105847619Y-84743809D01*
X105847619Y-84743809D02*
X105895238Y-84839047D01*
X105895238Y-84839047D02*
X105942857Y-84886666D01*
X105942857Y-84886666D02*
X106085714Y-84981904D01*
X106085714Y-84981904D02*
X106276190Y-85029523D01*
X106276190Y-85029523D02*
X106657142Y-85029523D01*
X106657142Y-85029523D02*
X106752380Y-84981904D01*
X106752380Y-84981904D02*
X106800000Y-84934285D01*
X106800000Y-84934285D02*
X106847619Y-84839047D01*
X106847619Y-84839047D02*
X106847619Y-84648571D01*
X106847619Y-84648571D02*
X106800000Y-84553333D01*
X106800000Y-84553333D02*
X106752380Y-84505714D01*
X106752380Y-84505714D02*
X106657142Y-84458095D01*
X106657142Y-84458095D02*
X106419047Y-84458095D01*
X106419047Y-84458095D02*
X106323809Y-84505714D01*
X106323809Y-84505714D02*
X106276190Y-84553333D01*
X106276190Y-84553333D02*
X106228571Y-84648571D01*
X106228571Y-84648571D02*
X106228571Y-84839047D01*
X106228571Y-84839047D02*
X106276190Y-84934285D01*
X106276190Y-84934285D02*
X106323809Y-84981904D01*
X106323809Y-84981904D02*
X106419047Y-85029523D01*
%TO.C,C9*%
X180679880Y-75986666D02*
X180727500Y-76034285D01*
X180727500Y-76034285D02*
X180775119Y-76177142D01*
X180775119Y-76177142D02*
X180775119Y-76272380D01*
X180775119Y-76272380D02*
X180727500Y-76415237D01*
X180727500Y-76415237D02*
X180632261Y-76510475D01*
X180632261Y-76510475D02*
X180537023Y-76558094D01*
X180537023Y-76558094D02*
X180346547Y-76605713D01*
X180346547Y-76605713D02*
X180203690Y-76605713D01*
X180203690Y-76605713D02*
X180013214Y-76558094D01*
X180013214Y-76558094D02*
X179917976Y-76510475D01*
X179917976Y-76510475D02*
X179822738Y-76415237D01*
X179822738Y-76415237D02*
X179775119Y-76272380D01*
X179775119Y-76272380D02*
X179775119Y-76177142D01*
X179775119Y-76177142D02*
X179822738Y-76034285D01*
X179822738Y-76034285D02*
X179870357Y-75986666D01*
X180775119Y-75510475D02*
X180775119Y-75319999D01*
X180775119Y-75319999D02*
X180727500Y-75224761D01*
X180727500Y-75224761D02*
X180679880Y-75177142D01*
X180679880Y-75177142D02*
X180537023Y-75081904D01*
X180537023Y-75081904D02*
X180346547Y-75034285D01*
X180346547Y-75034285D02*
X179965595Y-75034285D01*
X179965595Y-75034285D02*
X179870357Y-75081904D01*
X179870357Y-75081904D02*
X179822738Y-75129523D01*
X179822738Y-75129523D02*
X179775119Y-75224761D01*
X179775119Y-75224761D02*
X179775119Y-75415237D01*
X179775119Y-75415237D02*
X179822738Y-75510475D01*
X179822738Y-75510475D02*
X179870357Y-75558094D01*
X179870357Y-75558094D02*
X179965595Y-75605713D01*
X179965595Y-75605713D02*
X180203690Y-75605713D01*
X180203690Y-75605713D02*
X180298928Y-75558094D01*
X180298928Y-75558094D02*
X180346547Y-75510475D01*
X180346547Y-75510475D02*
X180394166Y-75415237D01*
X180394166Y-75415237D02*
X180394166Y-75224761D01*
X180394166Y-75224761D02*
X180346547Y-75129523D01*
X180346547Y-75129523D02*
X180298928Y-75081904D01*
X180298928Y-75081904D02*
X180203690Y-75034285D01*
%TO.C,C8*%
X186318333Y-93932380D02*
X186270714Y-93980000D01*
X186270714Y-93980000D02*
X186127857Y-94027619D01*
X186127857Y-94027619D02*
X186032619Y-94027619D01*
X186032619Y-94027619D02*
X185889762Y-93980000D01*
X185889762Y-93980000D02*
X185794524Y-93884761D01*
X185794524Y-93884761D02*
X185746905Y-93789523D01*
X185746905Y-93789523D02*
X185699286Y-93599047D01*
X185699286Y-93599047D02*
X185699286Y-93456190D01*
X185699286Y-93456190D02*
X185746905Y-93265714D01*
X185746905Y-93265714D02*
X185794524Y-93170476D01*
X185794524Y-93170476D02*
X185889762Y-93075238D01*
X185889762Y-93075238D02*
X186032619Y-93027619D01*
X186032619Y-93027619D02*
X186127857Y-93027619D01*
X186127857Y-93027619D02*
X186270714Y-93075238D01*
X186270714Y-93075238D02*
X186318333Y-93122857D01*
X186889762Y-93456190D02*
X186794524Y-93408571D01*
X186794524Y-93408571D02*
X186746905Y-93360952D01*
X186746905Y-93360952D02*
X186699286Y-93265714D01*
X186699286Y-93265714D02*
X186699286Y-93218095D01*
X186699286Y-93218095D02*
X186746905Y-93122857D01*
X186746905Y-93122857D02*
X186794524Y-93075238D01*
X186794524Y-93075238D02*
X186889762Y-93027619D01*
X186889762Y-93027619D02*
X187080238Y-93027619D01*
X187080238Y-93027619D02*
X187175476Y-93075238D01*
X187175476Y-93075238D02*
X187223095Y-93122857D01*
X187223095Y-93122857D02*
X187270714Y-93218095D01*
X187270714Y-93218095D02*
X187270714Y-93265714D01*
X187270714Y-93265714D02*
X187223095Y-93360952D01*
X187223095Y-93360952D02*
X187175476Y-93408571D01*
X187175476Y-93408571D02*
X187080238Y-93456190D01*
X187080238Y-93456190D02*
X186889762Y-93456190D01*
X186889762Y-93456190D02*
X186794524Y-93503809D01*
X186794524Y-93503809D02*
X186746905Y-93551428D01*
X186746905Y-93551428D02*
X186699286Y-93646666D01*
X186699286Y-93646666D02*
X186699286Y-93837142D01*
X186699286Y-93837142D02*
X186746905Y-93932380D01*
X186746905Y-93932380D02*
X186794524Y-93980000D01*
X186794524Y-93980000D02*
X186889762Y-94027619D01*
X186889762Y-94027619D02*
X187080238Y-94027619D01*
X187080238Y-94027619D02*
X187175476Y-93980000D01*
X187175476Y-93980000D02*
X187223095Y-93932380D01*
X187223095Y-93932380D02*
X187270714Y-93837142D01*
X187270714Y-93837142D02*
X187270714Y-93646666D01*
X187270714Y-93646666D02*
X187223095Y-93551428D01*
X187223095Y-93551428D02*
X187175476Y-93503809D01*
X187175476Y-93503809D02*
X187080238Y-93456190D01*
%TO.C,R27*%
X97247142Y-88687619D02*
X96913809Y-88211428D01*
X96675714Y-88687619D02*
X96675714Y-87687619D01*
X96675714Y-87687619D02*
X97056666Y-87687619D01*
X97056666Y-87687619D02*
X97151904Y-87735238D01*
X97151904Y-87735238D02*
X97199523Y-87782857D01*
X97199523Y-87782857D02*
X97247142Y-87878095D01*
X97247142Y-87878095D02*
X97247142Y-88020952D01*
X97247142Y-88020952D02*
X97199523Y-88116190D01*
X97199523Y-88116190D02*
X97151904Y-88163809D01*
X97151904Y-88163809D02*
X97056666Y-88211428D01*
X97056666Y-88211428D02*
X96675714Y-88211428D01*
X97628095Y-87782857D02*
X97675714Y-87735238D01*
X97675714Y-87735238D02*
X97770952Y-87687619D01*
X97770952Y-87687619D02*
X98009047Y-87687619D01*
X98009047Y-87687619D02*
X98104285Y-87735238D01*
X98104285Y-87735238D02*
X98151904Y-87782857D01*
X98151904Y-87782857D02*
X98199523Y-87878095D01*
X98199523Y-87878095D02*
X98199523Y-87973333D01*
X98199523Y-87973333D02*
X98151904Y-88116190D01*
X98151904Y-88116190D02*
X97580476Y-88687619D01*
X97580476Y-88687619D02*
X98199523Y-88687619D01*
X98532857Y-87687619D02*
X99199523Y-87687619D01*
X99199523Y-87687619D02*
X98770952Y-88687619D01*
%TO.C,R12*%
X174264642Y-73537619D02*
X173931309Y-73061428D01*
X173693214Y-73537619D02*
X173693214Y-72537619D01*
X173693214Y-72537619D02*
X174074166Y-72537619D01*
X174074166Y-72537619D02*
X174169404Y-72585238D01*
X174169404Y-72585238D02*
X174217023Y-72632857D01*
X174217023Y-72632857D02*
X174264642Y-72728095D01*
X174264642Y-72728095D02*
X174264642Y-72870952D01*
X174264642Y-72870952D02*
X174217023Y-72966190D01*
X174217023Y-72966190D02*
X174169404Y-73013809D01*
X174169404Y-73013809D02*
X174074166Y-73061428D01*
X174074166Y-73061428D02*
X173693214Y-73061428D01*
X175217023Y-73537619D02*
X174645595Y-73537619D01*
X174931309Y-73537619D02*
X174931309Y-72537619D01*
X174931309Y-72537619D02*
X174836071Y-72680476D01*
X174836071Y-72680476D02*
X174740833Y-72775714D01*
X174740833Y-72775714D02*
X174645595Y-72823333D01*
X175597976Y-72632857D02*
X175645595Y-72585238D01*
X175645595Y-72585238D02*
X175740833Y-72537619D01*
X175740833Y-72537619D02*
X175978928Y-72537619D01*
X175978928Y-72537619D02*
X176074166Y-72585238D01*
X176074166Y-72585238D02*
X176121785Y-72632857D01*
X176121785Y-72632857D02*
X176169404Y-72728095D01*
X176169404Y-72728095D02*
X176169404Y-72823333D01*
X176169404Y-72823333D02*
X176121785Y-72966190D01*
X176121785Y-72966190D02*
X175550357Y-73537619D01*
X175550357Y-73537619D02*
X176169404Y-73537619D01*
%TO.C,C22*%
X102647142Y-83792380D02*
X102599523Y-83840000D01*
X102599523Y-83840000D02*
X102456666Y-83887619D01*
X102456666Y-83887619D02*
X102361428Y-83887619D01*
X102361428Y-83887619D02*
X102218571Y-83840000D01*
X102218571Y-83840000D02*
X102123333Y-83744761D01*
X102123333Y-83744761D02*
X102075714Y-83649523D01*
X102075714Y-83649523D02*
X102028095Y-83459047D01*
X102028095Y-83459047D02*
X102028095Y-83316190D01*
X102028095Y-83316190D02*
X102075714Y-83125714D01*
X102075714Y-83125714D02*
X102123333Y-83030476D01*
X102123333Y-83030476D02*
X102218571Y-82935238D01*
X102218571Y-82935238D02*
X102361428Y-82887619D01*
X102361428Y-82887619D02*
X102456666Y-82887619D01*
X102456666Y-82887619D02*
X102599523Y-82935238D01*
X102599523Y-82935238D02*
X102647142Y-82982857D01*
X103028095Y-82982857D02*
X103075714Y-82935238D01*
X103075714Y-82935238D02*
X103170952Y-82887619D01*
X103170952Y-82887619D02*
X103409047Y-82887619D01*
X103409047Y-82887619D02*
X103504285Y-82935238D01*
X103504285Y-82935238D02*
X103551904Y-82982857D01*
X103551904Y-82982857D02*
X103599523Y-83078095D01*
X103599523Y-83078095D02*
X103599523Y-83173333D01*
X103599523Y-83173333D02*
X103551904Y-83316190D01*
X103551904Y-83316190D02*
X102980476Y-83887619D01*
X102980476Y-83887619D02*
X103599523Y-83887619D01*
X103980476Y-82982857D02*
X104028095Y-82935238D01*
X104028095Y-82935238D02*
X104123333Y-82887619D01*
X104123333Y-82887619D02*
X104361428Y-82887619D01*
X104361428Y-82887619D02*
X104456666Y-82935238D01*
X104456666Y-82935238D02*
X104504285Y-82982857D01*
X104504285Y-82982857D02*
X104551904Y-83078095D01*
X104551904Y-83078095D02*
X104551904Y-83173333D01*
X104551904Y-83173333D02*
X104504285Y-83316190D01*
X104504285Y-83316190D02*
X103932857Y-83887619D01*
X103932857Y-83887619D02*
X104551904Y-83887619D01*
%TO.C,C5*%
X180768333Y-92932380D02*
X180720714Y-92980000D01*
X180720714Y-92980000D02*
X180577857Y-93027619D01*
X180577857Y-93027619D02*
X180482619Y-93027619D01*
X180482619Y-93027619D02*
X180339762Y-92980000D01*
X180339762Y-92980000D02*
X180244524Y-92884761D01*
X180244524Y-92884761D02*
X180196905Y-92789523D01*
X180196905Y-92789523D02*
X180149286Y-92599047D01*
X180149286Y-92599047D02*
X180149286Y-92456190D01*
X180149286Y-92456190D02*
X180196905Y-92265714D01*
X180196905Y-92265714D02*
X180244524Y-92170476D01*
X180244524Y-92170476D02*
X180339762Y-92075238D01*
X180339762Y-92075238D02*
X180482619Y-92027619D01*
X180482619Y-92027619D02*
X180577857Y-92027619D01*
X180577857Y-92027619D02*
X180720714Y-92075238D01*
X180720714Y-92075238D02*
X180768333Y-92122857D01*
X181673095Y-92027619D02*
X181196905Y-92027619D01*
X181196905Y-92027619D02*
X181149286Y-92503809D01*
X181149286Y-92503809D02*
X181196905Y-92456190D01*
X181196905Y-92456190D02*
X181292143Y-92408571D01*
X181292143Y-92408571D02*
X181530238Y-92408571D01*
X181530238Y-92408571D02*
X181625476Y-92456190D01*
X181625476Y-92456190D02*
X181673095Y-92503809D01*
X181673095Y-92503809D02*
X181720714Y-92599047D01*
X181720714Y-92599047D02*
X181720714Y-92837142D01*
X181720714Y-92837142D02*
X181673095Y-92932380D01*
X181673095Y-92932380D02*
X181625476Y-92980000D01*
X181625476Y-92980000D02*
X181530238Y-93027619D01*
X181530238Y-93027619D02*
X181292143Y-93027619D01*
X181292143Y-93027619D02*
X181196905Y-92980000D01*
X181196905Y-92980000D02*
X181149286Y-92932380D01*
%TO.C,R4*%
X186318333Y-97427619D02*
X185985000Y-96951428D01*
X185746905Y-97427619D02*
X185746905Y-96427619D01*
X185746905Y-96427619D02*
X186127857Y-96427619D01*
X186127857Y-96427619D02*
X186223095Y-96475238D01*
X186223095Y-96475238D02*
X186270714Y-96522857D01*
X186270714Y-96522857D02*
X186318333Y-96618095D01*
X186318333Y-96618095D02*
X186318333Y-96760952D01*
X186318333Y-96760952D02*
X186270714Y-96856190D01*
X186270714Y-96856190D02*
X186223095Y-96903809D01*
X186223095Y-96903809D02*
X186127857Y-96951428D01*
X186127857Y-96951428D02*
X185746905Y-96951428D01*
X187175476Y-96760952D02*
X187175476Y-97427619D01*
X186937381Y-96380000D02*
X186699286Y-97094285D01*
X186699286Y-97094285D02*
X187318333Y-97094285D01*
%TO.C,R18*%
X107997142Y-76527619D02*
X107663809Y-76051428D01*
X107425714Y-76527619D02*
X107425714Y-75527619D01*
X107425714Y-75527619D02*
X107806666Y-75527619D01*
X107806666Y-75527619D02*
X107901904Y-75575238D01*
X107901904Y-75575238D02*
X107949523Y-75622857D01*
X107949523Y-75622857D02*
X107997142Y-75718095D01*
X107997142Y-75718095D02*
X107997142Y-75860952D01*
X107997142Y-75860952D02*
X107949523Y-75956190D01*
X107949523Y-75956190D02*
X107901904Y-76003809D01*
X107901904Y-76003809D02*
X107806666Y-76051428D01*
X107806666Y-76051428D02*
X107425714Y-76051428D01*
X108949523Y-76527619D02*
X108378095Y-76527619D01*
X108663809Y-76527619D02*
X108663809Y-75527619D01*
X108663809Y-75527619D02*
X108568571Y-75670476D01*
X108568571Y-75670476D02*
X108473333Y-75765714D01*
X108473333Y-75765714D02*
X108378095Y-75813333D01*
X109520952Y-75956190D02*
X109425714Y-75908571D01*
X109425714Y-75908571D02*
X109378095Y-75860952D01*
X109378095Y-75860952D02*
X109330476Y-75765714D01*
X109330476Y-75765714D02*
X109330476Y-75718095D01*
X109330476Y-75718095D02*
X109378095Y-75622857D01*
X109378095Y-75622857D02*
X109425714Y-75575238D01*
X109425714Y-75575238D02*
X109520952Y-75527619D01*
X109520952Y-75527619D02*
X109711428Y-75527619D01*
X109711428Y-75527619D02*
X109806666Y-75575238D01*
X109806666Y-75575238D02*
X109854285Y-75622857D01*
X109854285Y-75622857D02*
X109901904Y-75718095D01*
X109901904Y-75718095D02*
X109901904Y-75765714D01*
X109901904Y-75765714D02*
X109854285Y-75860952D01*
X109854285Y-75860952D02*
X109806666Y-75908571D01*
X109806666Y-75908571D02*
X109711428Y-75956190D01*
X109711428Y-75956190D02*
X109520952Y-75956190D01*
X109520952Y-75956190D02*
X109425714Y-76003809D01*
X109425714Y-76003809D02*
X109378095Y-76051428D01*
X109378095Y-76051428D02*
X109330476Y-76146666D01*
X109330476Y-76146666D02*
X109330476Y-76337142D01*
X109330476Y-76337142D02*
X109378095Y-76432380D01*
X109378095Y-76432380D02*
X109425714Y-76480000D01*
X109425714Y-76480000D02*
X109520952Y-76527619D01*
X109520952Y-76527619D02*
X109711428Y-76527619D01*
X109711428Y-76527619D02*
X109806666Y-76480000D01*
X109806666Y-76480000D02*
X109854285Y-76432380D01*
X109854285Y-76432380D02*
X109901904Y-76337142D01*
X109901904Y-76337142D02*
X109901904Y-76146666D01*
X109901904Y-76146666D02*
X109854285Y-76051428D01*
X109854285Y-76051428D02*
X109806666Y-76003809D01*
X109806666Y-76003809D02*
X109711428Y-75956190D01*
%TO.C,C10*%
X179079880Y-76462857D02*
X179127500Y-76510476D01*
X179127500Y-76510476D02*
X179175119Y-76653333D01*
X179175119Y-76653333D02*
X179175119Y-76748571D01*
X179175119Y-76748571D02*
X179127500Y-76891428D01*
X179127500Y-76891428D02*
X179032261Y-76986666D01*
X179032261Y-76986666D02*
X178937023Y-77034285D01*
X178937023Y-77034285D02*
X178746547Y-77081904D01*
X178746547Y-77081904D02*
X178603690Y-77081904D01*
X178603690Y-77081904D02*
X178413214Y-77034285D01*
X178413214Y-77034285D02*
X178317976Y-76986666D01*
X178317976Y-76986666D02*
X178222738Y-76891428D01*
X178222738Y-76891428D02*
X178175119Y-76748571D01*
X178175119Y-76748571D02*
X178175119Y-76653333D01*
X178175119Y-76653333D02*
X178222738Y-76510476D01*
X178222738Y-76510476D02*
X178270357Y-76462857D01*
X179175119Y-75510476D02*
X179175119Y-76081904D01*
X179175119Y-75796190D02*
X178175119Y-75796190D01*
X178175119Y-75796190D02*
X178317976Y-75891428D01*
X178317976Y-75891428D02*
X178413214Y-75986666D01*
X178413214Y-75986666D02*
X178460833Y-76081904D01*
X178175119Y-74891428D02*
X178175119Y-74796190D01*
X178175119Y-74796190D02*
X178222738Y-74700952D01*
X178222738Y-74700952D02*
X178270357Y-74653333D01*
X178270357Y-74653333D02*
X178365595Y-74605714D01*
X178365595Y-74605714D02*
X178556071Y-74558095D01*
X178556071Y-74558095D02*
X178794166Y-74558095D01*
X178794166Y-74558095D02*
X178984642Y-74605714D01*
X178984642Y-74605714D02*
X179079880Y-74653333D01*
X179079880Y-74653333D02*
X179127500Y-74700952D01*
X179127500Y-74700952D02*
X179175119Y-74796190D01*
X179175119Y-74796190D02*
X179175119Y-74891428D01*
X179175119Y-74891428D02*
X179127500Y-74986666D01*
X179127500Y-74986666D02*
X179079880Y-75034285D01*
X179079880Y-75034285D02*
X178984642Y-75081904D01*
X178984642Y-75081904D02*
X178794166Y-75129523D01*
X178794166Y-75129523D02*
X178556071Y-75129523D01*
X178556071Y-75129523D02*
X178365595Y-75081904D01*
X178365595Y-75081904D02*
X178270357Y-75034285D01*
X178270357Y-75034285D02*
X178222738Y-74986666D01*
X178222738Y-74986666D02*
X178175119Y-74891428D01*
%TO.C,C18*%
X180779880Y-72262857D02*
X180827500Y-72310476D01*
X180827500Y-72310476D02*
X180875119Y-72453333D01*
X180875119Y-72453333D02*
X180875119Y-72548571D01*
X180875119Y-72548571D02*
X180827500Y-72691428D01*
X180827500Y-72691428D02*
X180732261Y-72786666D01*
X180732261Y-72786666D02*
X180637023Y-72834285D01*
X180637023Y-72834285D02*
X180446547Y-72881904D01*
X180446547Y-72881904D02*
X180303690Y-72881904D01*
X180303690Y-72881904D02*
X180113214Y-72834285D01*
X180113214Y-72834285D02*
X180017976Y-72786666D01*
X180017976Y-72786666D02*
X179922738Y-72691428D01*
X179922738Y-72691428D02*
X179875119Y-72548571D01*
X179875119Y-72548571D02*
X179875119Y-72453333D01*
X179875119Y-72453333D02*
X179922738Y-72310476D01*
X179922738Y-72310476D02*
X179970357Y-72262857D01*
X180875119Y-71310476D02*
X180875119Y-71881904D01*
X180875119Y-71596190D02*
X179875119Y-71596190D01*
X179875119Y-71596190D02*
X180017976Y-71691428D01*
X180017976Y-71691428D02*
X180113214Y-71786666D01*
X180113214Y-71786666D02*
X180160833Y-71881904D01*
X180303690Y-70739047D02*
X180256071Y-70834285D01*
X180256071Y-70834285D02*
X180208452Y-70881904D01*
X180208452Y-70881904D02*
X180113214Y-70929523D01*
X180113214Y-70929523D02*
X180065595Y-70929523D01*
X180065595Y-70929523D02*
X179970357Y-70881904D01*
X179970357Y-70881904D02*
X179922738Y-70834285D01*
X179922738Y-70834285D02*
X179875119Y-70739047D01*
X179875119Y-70739047D02*
X179875119Y-70548571D01*
X179875119Y-70548571D02*
X179922738Y-70453333D01*
X179922738Y-70453333D02*
X179970357Y-70405714D01*
X179970357Y-70405714D02*
X180065595Y-70358095D01*
X180065595Y-70358095D02*
X180113214Y-70358095D01*
X180113214Y-70358095D02*
X180208452Y-70405714D01*
X180208452Y-70405714D02*
X180256071Y-70453333D01*
X180256071Y-70453333D02*
X180303690Y-70548571D01*
X180303690Y-70548571D02*
X180303690Y-70739047D01*
X180303690Y-70739047D02*
X180351309Y-70834285D01*
X180351309Y-70834285D02*
X180398928Y-70881904D01*
X180398928Y-70881904D02*
X180494166Y-70929523D01*
X180494166Y-70929523D02*
X180684642Y-70929523D01*
X180684642Y-70929523D02*
X180779880Y-70881904D01*
X180779880Y-70881904D02*
X180827500Y-70834285D01*
X180827500Y-70834285D02*
X180875119Y-70739047D01*
X180875119Y-70739047D02*
X180875119Y-70548571D01*
X180875119Y-70548571D02*
X180827500Y-70453333D01*
X180827500Y-70453333D02*
X180779880Y-70405714D01*
X180779880Y-70405714D02*
X180684642Y-70358095D01*
X180684642Y-70358095D02*
X180494166Y-70358095D01*
X180494166Y-70358095D02*
X180398928Y-70405714D01*
X180398928Y-70405714D02*
X180351309Y-70453333D01*
X180351309Y-70453333D02*
X180303690Y-70548571D01*
%TO.C,C21*%
X171114642Y-75042380D02*
X171067023Y-75090000D01*
X171067023Y-75090000D02*
X170924166Y-75137619D01*
X170924166Y-75137619D02*
X170828928Y-75137619D01*
X170828928Y-75137619D02*
X170686071Y-75090000D01*
X170686071Y-75090000D02*
X170590833Y-74994761D01*
X170590833Y-74994761D02*
X170543214Y-74899523D01*
X170543214Y-74899523D02*
X170495595Y-74709047D01*
X170495595Y-74709047D02*
X170495595Y-74566190D01*
X170495595Y-74566190D02*
X170543214Y-74375714D01*
X170543214Y-74375714D02*
X170590833Y-74280476D01*
X170590833Y-74280476D02*
X170686071Y-74185238D01*
X170686071Y-74185238D02*
X170828928Y-74137619D01*
X170828928Y-74137619D02*
X170924166Y-74137619D01*
X170924166Y-74137619D02*
X171067023Y-74185238D01*
X171067023Y-74185238D02*
X171114642Y-74232857D01*
X171495595Y-74232857D02*
X171543214Y-74185238D01*
X171543214Y-74185238D02*
X171638452Y-74137619D01*
X171638452Y-74137619D02*
X171876547Y-74137619D01*
X171876547Y-74137619D02*
X171971785Y-74185238D01*
X171971785Y-74185238D02*
X172019404Y-74232857D01*
X172019404Y-74232857D02*
X172067023Y-74328095D01*
X172067023Y-74328095D02*
X172067023Y-74423333D01*
X172067023Y-74423333D02*
X172019404Y-74566190D01*
X172019404Y-74566190D02*
X171447976Y-75137619D01*
X171447976Y-75137619D02*
X172067023Y-75137619D01*
X173019404Y-75137619D02*
X172447976Y-75137619D01*
X172733690Y-75137619D02*
X172733690Y-74137619D01*
X172733690Y-74137619D02*
X172638452Y-74280476D01*
X172638452Y-74280476D02*
X172543214Y-74375714D01*
X172543214Y-74375714D02*
X172447976Y-74423333D01*
%TO.C,C7*%
X175568333Y-89772380D02*
X175520714Y-89820000D01*
X175520714Y-89820000D02*
X175377857Y-89867619D01*
X175377857Y-89867619D02*
X175282619Y-89867619D01*
X175282619Y-89867619D02*
X175139762Y-89820000D01*
X175139762Y-89820000D02*
X175044524Y-89724761D01*
X175044524Y-89724761D02*
X174996905Y-89629523D01*
X174996905Y-89629523D02*
X174949286Y-89439047D01*
X174949286Y-89439047D02*
X174949286Y-89296190D01*
X174949286Y-89296190D02*
X174996905Y-89105714D01*
X174996905Y-89105714D02*
X175044524Y-89010476D01*
X175044524Y-89010476D02*
X175139762Y-88915238D01*
X175139762Y-88915238D02*
X175282619Y-88867619D01*
X175282619Y-88867619D02*
X175377857Y-88867619D01*
X175377857Y-88867619D02*
X175520714Y-88915238D01*
X175520714Y-88915238D02*
X175568333Y-88962857D01*
X175901667Y-88867619D02*
X176568333Y-88867619D01*
X176568333Y-88867619D02*
X176139762Y-89867619D01*
%TO.C,U6*%
X102453095Y-84957619D02*
X102453095Y-85767142D01*
X102453095Y-85767142D02*
X102500714Y-85862380D01*
X102500714Y-85862380D02*
X102548333Y-85910000D01*
X102548333Y-85910000D02*
X102643571Y-85957619D01*
X102643571Y-85957619D02*
X102834047Y-85957619D01*
X102834047Y-85957619D02*
X102929285Y-85910000D01*
X102929285Y-85910000D02*
X102976904Y-85862380D01*
X102976904Y-85862380D02*
X103024523Y-85767142D01*
X103024523Y-85767142D02*
X103024523Y-84957619D01*
X103929285Y-84957619D02*
X103738809Y-84957619D01*
X103738809Y-84957619D02*
X103643571Y-85005238D01*
X103643571Y-85005238D02*
X103595952Y-85052857D01*
X103595952Y-85052857D02*
X103500714Y-85195714D01*
X103500714Y-85195714D02*
X103453095Y-85386190D01*
X103453095Y-85386190D02*
X103453095Y-85767142D01*
X103453095Y-85767142D02*
X103500714Y-85862380D01*
X103500714Y-85862380D02*
X103548333Y-85910000D01*
X103548333Y-85910000D02*
X103643571Y-85957619D01*
X103643571Y-85957619D02*
X103834047Y-85957619D01*
X103834047Y-85957619D02*
X103929285Y-85910000D01*
X103929285Y-85910000D02*
X103976904Y-85862380D01*
X103976904Y-85862380D02*
X104024523Y-85767142D01*
X104024523Y-85767142D02*
X104024523Y-85529047D01*
X104024523Y-85529047D02*
X103976904Y-85433809D01*
X103976904Y-85433809D02*
X103929285Y-85386190D01*
X103929285Y-85386190D02*
X103834047Y-85338571D01*
X103834047Y-85338571D02*
X103643571Y-85338571D01*
X103643571Y-85338571D02*
X103548333Y-85386190D01*
X103548333Y-85386190D02*
X103500714Y-85433809D01*
X103500714Y-85433809D02*
X103453095Y-85529047D01*
%TO.C,D2*%
X114961905Y-75212619D02*
X114961905Y-74212619D01*
X114961905Y-74212619D02*
X115200000Y-74212619D01*
X115200000Y-74212619D02*
X115342857Y-74260238D01*
X115342857Y-74260238D02*
X115438095Y-74355476D01*
X115438095Y-74355476D02*
X115485714Y-74450714D01*
X115485714Y-74450714D02*
X115533333Y-74641190D01*
X115533333Y-74641190D02*
X115533333Y-74784047D01*
X115533333Y-74784047D02*
X115485714Y-74974523D01*
X115485714Y-74974523D02*
X115438095Y-75069761D01*
X115438095Y-75069761D02*
X115342857Y-75165000D01*
X115342857Y-75165000D02*
X115200000Y-75212619D01*
X115200000Y-75212619D02*
X114961905Y-75212619D01*
X115914286Y-74307857D02*
X115961905Y-74260238D01*
X115961905Y-74260238D02*
X116057143Y-74212619D01*
X116057143Y-74212619D02*
X116295238Y-74212619D01*
X116295238Y-74212619D02*
X116390476Y-74260238D01*
X116390476Y-74260238D02*
X116438095Y-74307857D01*
X116438095Y-74307857D02*
X116485714Y-74403095D01*
X116485714Y-74403095D02*
X116485714Y-74498333D01*
X116485714Y-74498333D02*
X116438095Y-74641190D01*
X116438095Y-74641190D02*
X115866667Y-75212619D01*
X115866667Y-75212619D02*
X116485714Y-75212619D01*
%TO.C,C12*%
X181914642Y-68382380D02*
X181867023Y-68430000D01*
X181867023Y-68430000D02*
X181724166Y-68477619D01*
X181724166Y-68477619D02*
X181628928Y-68477619D01*
X181628928Y-68477619D02*
X181486071Y-68430000D01*
X181486071Y-68430000D02*
X181390833Y-68334761D01*
X181390833Y-68334761D02*
X181343214Y-68239523D01*
X181343214Y-68239523D02*
X181295595Y-68049047D01*
X181295595Y-68049047D02*
X181295595Y-67906190D01*
X181295595Y-67906190D02*
X181343214Y-67715714D01*
X181343214Y-67715714D02*
X181390833Y-67620476D01*
X181390833Y-67620476D02*
X181486071Y-67525238D01*
X181486071Y-67525238D02*
X181628928Y-67477619D01*
X181628928Y-67477619D02*
X181724166Y-67477619D01*
X181724166Y-67477619D02*
X181867023Y-67525238D01*
X181867023Y-67525238D02*
X181914642Y-67572857D01*
X182867023Y-68477619D02*
X182295595Y-68477619D01*
X182581309Y-68477619D02*
X182581309Y-67477619D01*
X182581309Y-67477619D02*
X182486071Y-67620476D01*
X182486071Y-67620476D02*
X182390833Y-67715714D01*
X182390833Y-67715714D02*
X182295595Y-67763333D01*
X183247976Y-67572857D02*
X183295595Y-67525238D01*
X183295595Y-67525238D02*
X183390833Y-67477619D01*
X183390833Y-67477619D02*
X183628928Y-67477619D01*
X183628928Y-67477619D02*
X183724166Y-67525238D01*
X183724166Y-67525238D02*
X183771785Y-67572857D01*
X183771785Y-67572857D02*
X183819404Y-67668095D01*
X183819404Y-67668095D02*
X183819404Y-67763333D01*
X183819404Y-67763333D02*
X183771785Y-67906190D01*
X183771785Y-67906190D02*
X183200357Y-68477619D01*
X183200357Y-68477619D02*
X183819404Y-68477619D01*
%TO.C,C19*%
X171114642Y-73442380D02*
X171067023Y-73490000D01*
X171067023Y-73490000D02*
X170924166Y-73537619D01*
X170924166Y-73537619D02*
X170828928Y-73537619D01*
X170828928Y-73537619D02*
X170686071Y-73490000D01*
X170686071Y-73490000D02*
X170590833Y-73394761D01*
X170590833Y-73394761D02*
X170543214Y-73299523D01*
X170543214Y-73299523D02*
X170495595Y-73109047D01*
X170495595Y-73109047D02*
X170495595Y-72966190D01*
X170495595Y-72966190D02*
X170543214Y-72775714D01*
X170543214Y-72775714D02*
X170590833Y-72680476D01*
X170590833Y-72680476D02*
X170686071Y-72585238D01*
X170686071Y-72585238D02*
X170828928Y-72537619D01*
X170828928Y-72537619D02*
X170924166Y-72537619D01*
X170924166Y-72537619D02*
X171067023Y-72585238D01*
X171067023Y-72585238D02*
X171114642Y-72632857D01*
X172067023Y-73537619D02*
X171495595Y-73537619D01*
X171781309Y-73537619D02*
X171781309Y-72537619D01*
X171781309Y-72537619D02*
X171686071Y-72680476D01*
X171686071Y-72680476D02*
X171590833Y-72775714D01*
X171590833Y-72775714D02*
X171495595Y-72823333D01*
X172543214Y-73537619D02*
X172733690Y-73537619D01*
X172733690Y-73537619D02*
X172828928Y-73490000D01*
X172828928Y-73490000D02*
X172876547Y-73442380D01*
X172876547Y-73442380D02*
X172971785Y-73299523D01*
X172971785Y-73299523D02*
X173019404Y-73109047D01*
X173019404Y-73109047D02*
X173019404Y-72728095D01*
X173019404Y-72728095D02*
X172971785Y-72632857D01*
X172971785Y-72632857D02*
X172924166Y-72585238D01*
X172924166Y-72585238D02*
X172828928Y-72537619D01*
X172828928Y-72537619D02*
X172638452Y-72537619D01*
X172638452Y-72537619D02*
X172543214Y-72585238D01*
X172543214Y-72585238D02*
X172495595Y-72632857D01*
X172495595Y-72632857D02*
X172447976Y-72728095D01*
X172447976Y-72728095D02*
X172447976Y-72966190D01*
X172447976Y-72966190D02*
X172495595Y-73061428D01*
X172495595Y-73061428D02*
X172543214Y-73109047D01*
X172543214Y-73109047D02*
X172638452Y-73156666D01*
X172638452Y-73156666D02*
X172828928Y-73156666D01*
X172828928Y-73156666D02*
X172924166Y-73109047D01*
X172924166Y-73109047D02*
X172971785Y-73061428D01*
X172971785Y-73061428D02*
X173019404Y-72966190D01*
%TO.C,R30*%
X97247142Y-99387619D02*
X96913809Y-98911428D01*
X96675714Y-99387619D02*
X96675714Y-98387619D01*
X96675714Y-98387619D02*
X97056666Y-98387619D01*
X97056666Y-98387619D02*
X97151904Y-98435238D01*
X97151904Y-98435238D02*
X97199523Y-98482857D01*
X97199523Y-98482857D02*
X97247142Y-98578095D01*
X97247142Y-98578095D02*
X97247142Y-98720952D01*
X97247142Y-98720952D02*
X97199523Y-98816190D01*
X97199523Y-98816190D02*
X97151904Y-98863809D01*
X97151904Y-98863809D02*
X97056666Y-98911428D01*
X97056666Y-98911428D02*
X96675714Y-98911428D01*
X97580476Y-98387619D02*
X98199523Y-98387619D01*
X98199523Y-98387619D02*
X97866190Y-98768571D01*
X97866190Y-98768571D02*
X98009047Y-98768571D01*
X98009047Y-98768571D02*
X98104285Y-98816190D01*
X98104285Y-98816190D02*
X98151904Y-98863809D01*
X98151904Y-98863809D02*
X98199523Y-98959047D01*
X98199523Y-98959047D02*
X98199523Y-99197142D01*
X98199523Y-99197142D02*
X98151904Y-99292380D01*
X98151904Y-99292380D02*
X98104285Y-99340000D01*
X98104285Y-99340000D02*
X98009047Y-99387619D01*
X98009047Y-99387619D02*
X97723333Y-99387619D01*
X97723333Y-99387619D02*
X97628095Y-99340000D01*
X97628095Y-99340000D02*
X97580476Y-99292380D01*
X98818571Y-98387619D02*
X98913809Y-98387619D01*
X98913809Y-98387619D02*
X99009047Y-98435238D01*
X99009047Y-98435238D02*
X99056666Y-98482857D01*
X99056666Y-98482857D02*
X99104285Y-98578095D01*
X99104285Y-98578095D02*
X99151904Y-98768571D01*
X99151904Y-98768571D02*
X99151904Y-99006666D01*
X99151904Y-99006666D02*
X99104285Y-99197142D01*
X99104285Y-99197142D02*
X99056666Y-99292380D01*
X99056666Y-99292380D02*
X99009047Y-99340000D01*
X99009047Y-99340000D02*
X98913809Y-99387619D01*
X98913809Y-99387619D02*
X98818571Y-99387619D01*
X98818571Y-99387619D02*
X98723333Y-99340000D01*
X98723333Y-99340000D02*
X98675714Y-99292380D01*
X98675714Y-99292380D02*
X98628095Y-99197142D01*
X98628095Y-99197142D02*
X98580476Y-99006666D01*
X98580476Y-99006666D02*
X98580476Y-98768571D01*
X98580476Y-98768571D02*
X98628095Y-98578095D01*
X98628095Y-98578095D02*
X98675714Y-98482857D01*
X98675714Y-98482857D02*
X98723333Y-98435238D01*
X98723333Y-98435238D02*
X98818571Y-98387619D01*
%TO.C,C26*%
X115769703Y-56567857D02*
X115817323Y-56615476D01*
X115817323Y-56615476D02*
X115864942Y-56758333D01*
X115864942Y-56758333D02*
X115864942Y-56853571D01*
X115864942Y-56853571D02*
X115817323Y-56996428D01*
X115817323Y-56996428D02*
X115722084Y-57091666D01*
X115722084Y-57091666D02*
X115626846Y-57139285D01*
X115626846Y-57139285D02*
X115436370Y-57186904D01*
X115436370Y-57186904D02*
X115293513Y-57186904D01*
X115293513Y-57186904D02*
X115103037Y-57139285D01*
X115103037Y-57139285D02*
X115007799Y-57091666D01*
X115007799Y-57091666D02*
X114912561Y-56996428D01*
X114912561Y-56996428D02*
X114864942Y-56853571D01*
X114864942Y-56853571D02*
X114864942Y-56758333D01*
X114864942Y-56758333D02*
X114912561Y-56615476D01*
X114912561Y-56615476D02*
X114960180Y-56567857D01*
X114960180Y-56186904D02*
X114912561Y-56139285D01*
X114912561Y-56139285D02*
X114864942Y-56044047D01*
X114864942Y-56044047D02*
X114864942Y-55805952D01*
X114864942Y-55805952D02*
X114912561Y-55710714D01*
X114912561Y-55710714D02*
X114960180Y-55663095D01*
X114960180Y-55663095D02*
X115055418Y-55615476D01*
X115055418Y-55615476D02*
X115150656Y-55615476D01*
X115150656Y-55615476D02*
X115293513Y-55663095D01*
X115293513Y-55663095D02*
X115864942Y-56234523D01*
X115864942Y-56234523D02*
X115864942Y-55615476D01*
X114864942Y-54758333D02*
X114864942Y-54948809D01*
X114864942Y-54948809D02*
X114912561Y-55044047D01*
X114912561Y-55044047D02*
X114960180Y-55091666D01*
X114960180Y-55091666D02*
X115103037Y-55186904D01*
X115103037Y-55186904D02*
X115293513Y-55234523D01*
X115293513Y-55234523D02*
X115674465Y-55234523D01*
X115674465Y-55234523D02*
X115769703Y-55186904D01*
X115769703Y-55186904D02*
X115817323Y-55139285D01*
X115817323Y-55139285D02*
X115864942Y-55044047D01*
X115864942Y-55044047D02*
X115864942Y-54853571D01*
X115864942Y-54853571D02*
X115817323Y-54758333D01*
X115817323Y-54758333D02*
X115769703Y-54710714D01*
X115769703Y-54710714D02*
X115674465Y-54663095D01*
X115674465Y-54663095D02*
X115436370Y-54663095D01*
X115436370Y-54663095D02*
X115341132Y-54710714D01*
X115341132Y-54710714D02*
X115293513Y-54758333D01*
X115293513Y-54758333D02*
X115245894Y-54853571D01*
X115245894Y-54853571D02*
X115245894Y-55044047D01*
X115245894Y-55044047D02*
X115293513Y-55139285D01*
X115293513Y-55139285D02*
X115341132Y-55186904D01*
X115341132Y-55186904D02*
X115436370Y-55234523D01*
%TO.C,C4*%
X186063333Y-54207380D02*
X186015714Y-54255000D01*
X186015714Y-54255000D02*
X185872857Y-54302619D01*
X185872857Y-54302619D02*
X185777619Y-54302619D01*
X185777619Y-54302619D02*
X185634762Y-54255000D01*
X185634762Y-54255000D02*
X185539524Y-54159761D01*
X185539524Y-54159761D02*
X185491905Y-54064523D01*
X185491905Y-54064523D02*
X185444286Y-53874047D01*
X185444286Y-53874047D02*
X185444286Y-53731190D01*
X185444286Y-53731190D02*
X185491905Y-53540714D01*
X185491905Y-53540714D02*
X185539524Y-53445476D01*
X185539524Y-53445476D02*
X185634762Y-53350238D01*
X185634762Y-53350238D02*
X185777619Y-53302619D01*
X185777619Y-53302619D02*
X185872857Y-53302619D01*
X185872857Y-53302619D02*
X186015714Y-53350238D01*
X186015714Y-53350238D02*
X186063333Y-53397857D01*
X186920476Y-53635952D02*
X186920476Y-54302619D01*
X186682381Y-53255000D02*
X186444286Y-53969285D01*
X186444286Y-53969285D02*
X187063333Y-53969285D01*
%TO.C,C13*%
X180664642Y-80042380D02*
X180617023Y-80090000D01*
X180617023Y-80090000D02*
X180474166Y-80137619D01*
X180474166Y-80137619D02*
X180378928Y-80137619D01*
X180378928Y-80137619D02*
X180236071Y-80090000D01*
X180236071Y-80090000D02*
X180140833Y-79994761D01*
X180140833Y-79994761D02*
X180093214Y-79899523D01*
X180093214Y-79899523D02*
X180045595Y-79709047D01*
X180045595Y-79709047D02*
X180045595Y-79566190D01*
X180045595Y-79566190D02*
X180093214Y-79375714D01*
X180093214Y-79375714D02*
X180140833Y-79280476D01*
X180140833Y-79280476D02*
X180236071Y-79185238D01*
X180236071Y-79185238D02*
X180378928Y-79137619D01*
X180378928Y-79137619D02*
X180474166Y-79137619D01*
X180474166Y-79137619D02*
X180617023Y-79185238D01*
X180617023Y-79185238D02*
X180664642Y-79232857D01*
X181617023Y-80137619D02*
X181045595Y-80137619D01*
X181331309Y-80137619D02*
X181331309Y-79137619D01*
X181331309Y-79137619D02*
X181236071Y-79280476D01*
X181236071Y-79280476D02*
X181140833Y-79375714D01*
X181140833Y-79375714D02*
X181045595Y-79423333D01*
X181950357Y-79137619D02*
X182569404Y-79137619D01*
X182569404Y-79137619D02*
X182236071Y-79518571D01*
X182236071Y-79518571D02*
X182378928Y-79518571D01*
X182378928Y-79518571D02*
X182474166Y-79566190D01*
X182474166Y-79566190D02*
X182521785Y-79613809D01*
X182521785Y-79613809D02*
X182569404Y-79709047D01*
X182569404Y-79709047D02*
X182569404Y-79947142D01*
X182569404Y-79947142D02*
X182521785Y-80042380D01*
X182521785Y-80042380D02*
X182474166Y-80090000D01*
X182474166Y-80090000D02*
X182378928Y-80137619D01*
X182378928Y-80137619D02*
X182093214Y-80137619D01*
X182093214Y-80137619D02*
X181997976Y-80090000D01*
X181997976Y-80090000D02*
X181950357Y-80042380D01*
%TO.C,R24*%
X107897142Y-87127619D02*
X107563809Y-86651428D01*
X107325714Y-87127619D02*
X107325714Y-86127619D01*
X107325714Y-86127619D02*
X107706666Y-86127619D01*
X107706666Y-86127619D02*
X107801904Y-86175238D01*
X107801904Y-86175238D02*
X107849523Y-86222857D01*
X107849523Y-86222857D02*
X107897142Y-86318095D01*
X107897142Y-86318095D02*
X107897142Y-86460952D01*
X107897142Y-86460952D02*
X107849523Y-86556190D01*
X107849523Y-86556190D02*
X107801904Y-86603809D01*
X107801904Y-86603809D02*
X107706666Y-86651428D01*
X107706666Y-86651428D02*
X107325714Y-86651428D01*
X108278095Y-86222857D02*
X108325714Y-86175238D01*
X108325714Y-86175238D02*
X108420952Y-86127619D01*
X108420952Y-86127619D02*
X108659047Y-86127619D01*
X108659047Y-86127619D02*
X108754285Y-86175238D01*
X108754285Y-86175238D02*
X108801904Y-86222857D01*
X108801904Y-86222857D02*
X108849523Y-86318095D01*
X108849523Y-86318095D02*
X108849523Y-86413333D01*
X108849523Y-86413333D02*
X108801904Y-86556190D01*
X108801904Y-86556190D02*
X108230476Y-87127619D01*
X108230476Y-87127619D02*
X108849523Y-87127619D01*
X109706666Y-86460952D02*
X109706666Y-87127619D01*
X109468571Y-86080000D02*
X109230476Y-86794285D01*
X109230476Y-86794285D02*
X109849523Y-86794285D01*
%TO.C,R9*%
X186815119Y-80111666D02*
X186338928Y-80444999D01*
X186815119Y-80683094D02*
X185815119Y-80683094D01*
X185815119Y-80683094D02*
X185815119Y-80302142D01*
X185815119Y-80302142D02*
X185862738Y-80206904D01*
X185862738Y-80206904D02*
X185910357Y-80159285D01*
X185910357Y-80159285D02*
X186005595Y-80111666D01*
X186005595Y-80111666D02*
X186148452Y-80111666D01*
X186148452Y-80111666D02*
X186243690Y-80159285D01*
X186243690Y-80159285D02*
X186291309Y-80206904D01*
X186291309Y-80206904D02*
X186338928Y-80302142D01*
X186338928Y-80302142D02*
X186338928Y-80683094D01*
X186815119Y-79635475D02*
X186815119Y-79444999D01*
X186815119Y-79444999D02*
X186767500Y-79349761D01*
X186767500Y-79349761D02*
X186719880Y-79302142D01*
X186719880Y-79302142D02*
X186577023Y-79206904D01*
X186577023Y-79206904D02*
X186386547Y-79159285D01*
X186386547Y-79159285D02*
X186005595Y-79159285D01*
X186005595Y-79159285D02*
X185910357Y-79206904D01*
X185910357Y-79206904D02*
X185862738Y-79254523D01*
X185862738Y-79254523D02*
X185815119Y-79349761D01*
X185815119Y-79349761D02*
X185815119Y-79540237D01*
X185815119Y-79540237D02*
X185862738Y-79635475D01*
X185862738Y-79635475D02*
X185910357Y-79683094D01*
X185910357Y-79683094D02*
X186005595Y-79730713D01*
X186005595Y-79730713D02*
X186243690Y-79730713D01*
X186243690Y-79730713D02*
X186338928Y-79683094D01*
X186338928Y-79683094D02*
X186386547Y-79635475D01*
X186386547Y-79635475D02*
X186434166Y-79540237D01*
X186434166Y-79540237D02*
X186434166Y-79349761D01*
X186434166Y-79349761D02*
X186386547Y-79254523D01*
X186386547Y-79254523D02*
X186338928Y-79206904D01*
X186338928Y-79206904D02*
X186243690Y-79159285D01*
%TO.C,Q1*%
X121617261Y-96267857D02*
X121522023Y-96220238D01*
X121522023Y-96220238D02*
X121426785Y-96125000D01*
X121426785Y-96125000D02*
X121283928Y-95982142D01*
X121283928Y-95982142D02*
X121188690Y-95934523D01*
X121188690Y-95934523D02*
X121093452Y-95934523D01*
X121141071Y-96172619D02*
X121045833Y-96125000D01*
X121045833Y-96125000D02*
X120950595Y-96029761D01*
X120950595Y-96029761D02*
X120902976Y-95839285D01*
X120902976Y-95839285D02*
X120902976Y-95505952D01*
X120902976Y-95505952D02*
X120950595Y-95315476D01*
X120950595Y-95315476D02*
X121045833Y-95220238D01*
X121045833Y-95220238D02*
X121141071Y-95172619D01*
X121141071Y-95172619D02*
X121331547Y-95172619D01*
X121331547Y-95172619D02*
X121426785Y-95220238D01*
X121426785Y-95220238D02*
X121522023Y-95315476D01*
X121522023Y-95315476D02*
X121569642Y-95505952D01*
X121569642Y-95505952D02*
X121569642Y-95839285D01*
X121569642Y-95839285D02*
X121522023Y-96029761D01*
X121522023Y-96029761D02*
X121426785Y-96125000D01*
X121426785Y-96125000D02*
X121331547Y-96172619D01*
X121331547Y-96172619D02*
X121141071Y-96172619D01*
X122522023Y-96172619D02*
X121950595Y-96172619D01*
X122236309Y-96172619D02*
X122236309Y-95172619D01*
X122236309Y-95172619D02*
X122141071Y-95315476D01*
X122141071Y-95315476D02*
X122045833Y-95410714D01*
X122045833Y-95410714D02*
X121950595Y-95458333D01*
%TO.C,R25*%
X97407619Y-88162857D02*
X96931428Y-88496190D01*
X97407619Y-88734285D02*
X96407619Y-88734285D01*
X96407619Y-88734285D02*
X96407619Y-88353333D01*
X96407619Y-88353333D02*
X96455238Y-88258095D01*
X96455238Y-88258095D02*
X96502857Y-88210476D01*
X96502857Y-88210476D02*
X96598095Y-88162857D01*
X96598095Y-88162857D02*
X96740952Y-88162857D01*
X96740952Y-88162857D02*
X96836190Y-88210476D01*
X96836190Y-88210476D02*
X96883809Y-88258095D01*
X96883809Y-88258095D02*
X96931428Y-88353333D01*
X96931428Y-88353333D02*
X96931428Y-88734285D01*
X96502857Y-87781904D02*
X96455238Y-87734285D01*
X96455238Y-87734285D02*
X96407619Y-87639047D01*
X96407619Y-87639047D02*
X96407619Y-87400952D01*
X96407619Y-87400952D02*
X96455238Y-87305714D01*
X96455238Y-87305714D02*
X96502857Y-87258095D01*
X96502857Y-87258095D02*
X96598095Y-87210476D01*
X96598095Y-87210476D02*
X96693333Y-87210476D01*
X96693333Y-87210476D02*
X96836190Y-87258095D01*
X96836190Y-87258095D02*
X97407619Y-87829523D01*
X97407619Y-87829523D02*
X97407619Y-87210476D01*
X96407619Y-86305714D02*
X96407619Y-86781904D01*
X96407619Y-86781904D02*
X96883809Y-86829523D01*
X96883809Y-86829523D02*
X96836190Y-86781904D01*
X96836190Y-86781904D02*
X96788571Y-86686666D01*
X96788571Y-86686666D02*
X96788571Y-86448571D01*
X96788571Y-86448571D02*
X96836190Y-86353333D01*
X96836190Y-86353333D02*
X96883809Y-86305714D01*
X96883809Y-86305714D02*
X96979047Y-86258095D01*
X96979047Y-86258095D02*
X97217142Y-86258095D01*
X97217142Y-86258095D02*
X97312380Y-86305714D01*
X97312380Y-86305714D02*
X97360000Y-86353333D01*
X97360000Y-86353333D02*
X97407619Y-86448571D01*
X97407619Y-86448571D02*
X97407619Y-86686666D01*
X97407619Y-86686666D02*
X97360000Y-86781904D01*
X97360000Y-86781904D02*
X97312380Y-86829523D01*
%TO.C,R29*%
X97407619Y-98962857D02*
X96931428Y-99296190D01*
X97407619Y-99534285D02*
X96407619Y-99534285D01*
X96407619Y-99534285D02*
X96407619Y-99153333D01*
X96407619Y-99153333D02*
X96455238Y-99058095D01*
X96455238Y-99058095D02*
X96502857Y-99010476D01*
X96502857Y-99010476D02*
X96598095Y-98962857D01*
X96598095Y-98962857D02*
X96740952Y-98962857D01*
X96740952Y-98962857D02*
X96836190Y-99010476D01*
X96836190Y-99010476D02*
X96883809Y-99058095D01*
X96883809Y-99058095D02*
X96931428Y-99153333D01*
X96931428Y-99153333D02*
X96931428Y-99534285D01*
X96502857Y-98581904D02*
X96455238Y-98534285D01*
X96455238Y-98534285D02*
X96407619Y-98439047D01*
X96407619Y-98439047D02*
X96407619Y-98200952D01*
X96407619Y-98200952D02*
X96455238Y-98105714D01*
X96455238Y-98105714D02*
X96502857Y-98058095D01*
X96502857Y-98058095D02*
X96598095Y-98010476D01*
X96598095Y-98010476D02*
X96693333Y-98010476D01*
X96693333Y-98010476D02*
X96836190Y-98058095D01*
X96836190Y-98058095D02*
X97407619Y-98629523D01*
X97407619Y-98629523D02*
X97407619Y-98010476D01*
X97407619Y-97534285D02*
X97407619Y-97343809D01*
X97407619Y-97343809D02*
X97360000Y-97248571D01*
X97360000Y-97248571D02*
X97312380Y-97200952D01*
X97312380Y-97200952D02*
X97169523Y-97105714D01*
X97169523Y-97105714D02*
X96979047Y-97058095D01*
X96979047Y-97058095D02*
X96598095Y-97058095D01*
X96598095Y-97058095D02*
X96502857Y-97105714D01*
X96502857Y-97105714D02*
X96455238Y-97153333D01*
X96455238Y-97153333D02*
X96407619Y-97248571D01*
X96407619Y-97248571D02*
X96407619Y-97439047D01*
X96407619Y-97439047D02*
X96455238Y-97534285D01*
X96455238Y-97534285D02*
X96502857Y-97581904D01*
X96502857Y-97581904D02*
X96598095Y-97629523D01*
X96598095Y-97629523D02*
X96836190Y-97629523D01*
X96836190Y-97629523D02*
X96931428Y-97581904D01*
X96931428Y-97581904D02*
X96979047Y-97534285D01*
X96979047Y-97534285D02*
X97026666Y-97439047D01*
X97026666Y-97439047D02*
X97026666Y-97248571D01*
X97026666Y-97248571D02*
X96979047Y-97153333D01*
X96979047Y-97153333D02*
X96931428Y-97105714D01*
X96931428Y-97105714D02*
X96836190Y-97058095D01*
D11*
%TO.C,R11*%
X183910000Y-80182258D02*
X183910000Y-79707742D01*
X184955000Y-80182258D02*
X184955000Y-79707742D01*
%TO.C,R8*%
X186247742Y-89912500D02*
X186722258Y-89912500D01*
X186247742Y-90957500D02*
X186722258Y-90957500D01*
%TO.C,R2*%
X186722258Y-97757500D02*
X186247742Y-97757500D01*
X186722258Y-96712500D02*
X186247742Y-96712500D01*
%TO.C,U4*%
X183720000Y-70435000D02*
X180120000Y-70435000D01*
X183720000Y-70435000D02*
X185920000Y-70435000D01*
X183720000Y-77205000D02*
X181520000Y-77205000D01*
X183720000Y-77205000D02*
X185920000Y-77205000D01*
%TO.C,U8*%
X117972323Y-56000000D02*
X117972323Y-59450000D01*
X117972323Y-56000000D02*
X117972323Y-54050000D01*
X123092323Y-56000000D02*
X123092323Y-57950000D01*
X123092323Y-56000000D02*
X123092323Y-54050000D01*
%TO.C,R14*%
X117837742Y-96587500D02*
X118312258Y-96587500D01*
X117837742Y-97632500D02*
X118312258Y-97632500D01*
%TO.C,R10*%
X185560000Y-80182258D02*
X185560000Y-79707742D01*
X186605000Y-80182258D02*
X186605000Y-79707742D01*
%TO.C,R19*%
X96037500Y-76882742D02*
X96037500Y-77357258D01*
X94992500Y-76882742D02*
X94992500Y-77357258D01*
%TO.C,C3*%
X189875580Y-96045000D02*
X189594420Y-96045000D01*
X189875580Y-95025000D02*
X189594420Y-95025000D01*
%TO.C,J1*%
X82670000Y-57170000D02*
X84000000Y-57170000D01*
X82670000Y-58500000D02*
X82670000Y-57170000D01*
X82670000Y-59770000D02*
X82670000Y-97930000D01*
X82670000Y-59770000D02*
X85330000Y-59770000D01*
X82670000Y-97930000D02*
X85330000Y-97930000D01*
X85330000Y-59770000D02*
X85330000Y-97930000D01*
%TO.C,C20*%
X177892500Y-71479420D02*
X177892500Y-71760580D01*
X176872500Y-71479420D02*
X176872500Y-71760580D01*
%TO.C,C16*%
X190592500Y-70879420D02*
X190592500Y-71160580D01*
X189572500Y-70879420D02*
X189572500Y-71160580D01*
%TO.C,D3*%
X132550000Y-70640000D02*
X130850000Y-70640000D01*
X132550000Y-70640000D02*
X132550000Y-73300000D01*
X130850000Y-70640000D02*
X130850000Y-73300000D01*
%TO.C,U3*%
X181110000Y-92210000D02*
X177660000Y-92210000D01*
X181110000Y-92210000D02*
X183060000Y-92210000D01*
X181110000Y-97330000D02*
X179160000Y-97330000D01*
X181110000Y-97330000D02*
X183060000Y-97330000D01*
%TO.C,C2*%
X172344420Y-93725000D02*
X172625580Y-93725000D01*
X172344420Y-94745000D02*
X172625580Y-94745000D01*
%TO.C,C11*%
X176192500Y-75679420D02*
X176192500Y-75960580D01*
X175172500Y-75679420D02*
X175172500Y-75960580D01*
%TO.C,R3*%
X175497742Y-93712500D02*
X175972258Y-93712500D01*
X175497742Y-94757500D02*
X175972258Y-94757500D01*
%TO.C,R20*%
X107392500Y-75307258D02*
X107392500Y-74832742D01*
X108437500Y-75307258D02*
X108437500Y-74832742D01*
%TO.C,C14*%
X188992500Y-70879420D02*
X188992500Y-71160580D01*
X187972500Y-70879420D02*
X187972500Y-71160580D01*
%TO.C,U2*%
X186670000Y-57190000D02*
X184995000Y-57190000D01*
X186670000Y-57190000D02*
X187320000Y-57190000D01*
X186670000Y-60310000D02*
X186020000Y-60310000D01*
X186670000Y-60310000D02*
X187320000Y-60310000D01*
%TO.C,C1*%
X186089420Y-52250000D02*
X186370580Y-52250000D01*
X186089420Y-53270000D02*
X186370580Y-53270000D01*
%TO.C,R13*%
X175144758Y-73767500D02*
X174670242Y-73767500D01*
X175144758Y-72722500D02*
X174670242Y-72722500D01*
%TO.C,U5*%
X103290000Y-75840000D02*
X99840000Y-75840000D01*
X103290000Y-75840000D02*
X105240000Y-75840000D01*
X103290000Y-80960000D02*
X101340000Y-80960000D01*
X103290000Y-80960000D02*
X105240000Y-80960000D01*
%TO.C,C17*%
X188992500Y-74079420D02*
X188992500Y-74360580D01*
X187972500Y-74079420D02*
X187972500Y-74360580D01*
%TO.C,R17*%
X98227258Y-78417500D02*
X97752742Y-78417500D01*
X98227258Y-77372500D02*
X97752742Y-77372500D01*
%TO.C,R1*%
X174587742Y-95977500D02*
X175062258Y-95977500D01*
X174587742Y-97022500D02*
X175062258Y-97022500D01*
%TO.C,R15*%
X124127500Y-98222258D02*
X124127500Y-97747742D01*
X125172500Y-98222258D02*
X125172500Y-97747742D01*
%TO.C,J2*%
X194670000Y-64670000D02*
X196000000Y-64670000D01*
X194670000Y-66000000D02*
X194670000Y-64670000D01*
X194670000Y-67270000D02*
X194670000Y-95270000D01*
X194670000Y-67270000D02*
X197330000Y-67270000D01*
X194670000Y-95270000D02*
X197330000Y-95270000D01*
X197330000Y-67270000D02*
X197330000Y-95270000D01*
%TO.C,R21*%
X98227258Y-76817500D02*
X97752742Y-76817500D01*
X98227258Y-75772500D02*
X97752742Y-75772500D01*
%TO.C,C23*%
X103380580Y-93005000D02*
X103099420Y-93005000D01*
X103380580Y-91985000D02*
X103099420Y-91985000D01*
%TO.C,R22*%
X108302742Y-89172500D02*
X108777258Y-89172500D01*
X108302742Y-90217500D02*
X108777258Y-90217500D01*
%TO.C,R6*%
X186722258Y-94357500D02*
X186247742Y-94357500D01*
X186722258Y-93312500D02*
X186247742Y-93312500D01*
%TO.C,R16*%
X108402742Y-78572500D02*
X108877258Y-78572500D01*
X108402742Y-79617500D02*
X108877258Y-79617500D01*
%TO.C,R23*%
X98127258Y-88917500D02*
X97652742Y-88917500D01*
X98127258Y-87872500D02*
X97652742Y-87872500D01*
%TO.C,U7*%
X103215000Y-97235000D02*
X99765000Y-97235000D01*
X103215000Y-97235000D02*
X105165000Y-97235000D01*
X103215000Y-102355000D02*
X101265000Y-102355000D01*
X103215000Y-102355000D02*
X105165000Y-102355000D01*
%TO.C,R28*%
X98127258Y-99717500D02*
X97652742Y-99717500D01*
X98127258Y-98672500D02*
X97652742Y-98672500D01*
%TO.C,R7*%
X186247742Y-88212500D02*
X186722258Y-88212500D01*
X186247742Y-89257500D02*
X186722258Y-89257500D01*
%TO.C,C15*%
X190592500Y-74079420D02*
X190592500Y-74360580D01*
X189572500Y-74079420D02*
X189572500Y-74360580D01*
%TO.C,C24*%
X103380580Y-103905000D02*
X103099420Y-103905000D01*
X103380580Y-102885000D02*
X103099420Y-102885000D01*
%TO.C,R5*%
X175497742Y-92012500D02*
X175972258Y-92012500D01*
X175497742Y-93057500D02*
X175972258Y-93057500D01*
%TO.C,JP2*%
X127800000Y-73650001D02*
X127800000Y-70850001D01*
X129800000Y-73650001D02*
X127800000Y-73650001D01*
X127800000Y-70850001D02*
X129800000Y-70850001D01*
X129800000Y-70850001D02*
X129800000Y-73650001D01*
%TO.C,C6*%
X181175580Y-98845000D02*
X180894420Y-98845000D01*
X181175580Y-97825000D02*
X180894420Y-97825000D01*
%TO.C,R26*%
X107292500Y-85957258D02*
X107292500Y-85482742D01*
X108337500Y-85957258D02*
X108337500Y-85482742D01*
%TO.C,C9*%
X179392500Y-75679420D02*
X179392500Y-75960580D01*
X178372500Y-75679420D02*
X178372500Y-75960580D01*
%TO.C,C8*%
X186625580Y-92645000D02*
X186344420Y-92645000D01*
X186625580Y-91625000D02*
X186344420Y-91625000D01*
%TO.C,R27*%
X98127258Y-87317500D02*
X97652742Y-87317500D01*
X98127258Y-86272500D02*
X97652742Y-86272500D01*
%TO.C,R12*%
X175144758Y-72167500D02*
X174670242Y-72167500D01*
X175144758Y-71122500D02*
X174670242Y-71122500D01*
%TO.C,C22*%
X103430580Y-82505000D02*
X103149420Y-82505000D01*
X103430580Y-81485000D02*
X103149420Y-81485000D01*
%TO.C,C5*%
X181075580Y-91645000D02*
X180794420Y-91645000D01*
X181075580Y-90625000D02*
X180794420Y-90625000D01*
%TO.C,R4*%
X186722258Y-96057500D02*
X186247742Y-96057500D01*
X186722258Y-95012500D02*
X186247742Y-95012500D01*
%TO.C,R18*%
X108402742Y-76972500D02*
X108877258Y-76972500D01*
X108402742Y-78017500D02*
X108877258Y-78017500D01*
%TO.C,C10*%
X177792500Y-75679420D02*
X177792500Y-75960580D01*
X176772500Y-75679420D02*
X176772500Y-75960580D01*
%TO.C,C18*%
X179492500Y-71479420D02*
X179492500Y-71760580D01*
X178472500Y-71479420D02*
X178472500Y-71760580D01*
%TO.C,C21*%
X171898080Y-73755000D02*
X171616920Y-73755000D01*
X171898080Y-72735000D02*
X171616920Y-72735000D01*
%TO.C,C7*%
X175594420Y-90325000D02*
X175875580Y-90325000D01*
X175594420Y-91345000D02*
X175875580Y-91345000D01*
%TO.C,U6*%
X103215000Y-86335000D02*
X99765000Y-86335000D01*
X103215000Y-86335000D02*
X105165000Y-86335000D01*
X103215000Y-91455000D02*
X101265000Y-91455000D01*
X103215000Y-91455000D02*
X105165000Y-91455000D01*
%TO.C,D2*%
X117310000Y-73750000D02*
X117310000Y-72050000D01*
X117310000Y-73750000D02*
X114650000Y-73750000D01*
X117310000Y-72050000D02*
X114650000Y-72050000D01*
%TO.C,C12*%
X182416920Y-68935000D02*
X182698080Y-68935000D01*
X182416920Y-69955000D02*
X182698080Y-69955000D01*
%TO.C,C19*%
X171898080Y-72155000D02*
X171616920Y-72155000D01*
X171898080Y-71135000D02*
X171616920Y-71135000D01*
%TO.C,R30*%
X98127258Y-98017500D02*
X97652742Y-98017500D01*
X98127258Y-96972500D02*
X97652742Y-96972500D01*
%TO.C,C26*%
X116322323Y-56065580D02*
X116322323Y-55784420D01*
X117342323Y-56065580D02*
X117342323Y-55784420D01*
%TO.C,C4*%
X186089420Y-54760000D02*
X186370580Y-54760000D01*
X186089420Y-55780000D02*
X186370580Y-55780000D01*
%TO.C,C13*%
X181448080Y-78755000D02*
X181166920Y-78755000D01*
X181448080Y-77735000D02*
X181166920Y-77735000D01*
%TO.C,R24*%
X108302742Y-87572500D02*
X108777258Y-87572500D01*
X108302742Y-88617500D02*
X108777258Y-88617500D01*
%TO.C,R9*%
X187260000Y-80182258D02*
X187260000Y-79707742D01*
X188305000Y-80182258D02*
X188305000Y-79707742D01*
%TO.C,Q1*%
X121712500Y-96550000D02*
X120037500Y-96550000D01*
X121712500Y-96550000D02*
X122362500Y-96550000D01*
X121712500Y-99670000D02*
X121062500Y-99670000D01*
X121712500Y-99670000D02*
X122362500Y-99670000D01*
%TO.C,R25*%
X96037500Y-87282742D02*
X96037500Y-87757258D01*
X94992500Y-87282742D02*
X94992500Y-87757258D01*
%TO.C,R29*%
X96037500Y-98082742D02*
X96037500Y-98557258D01*
X94992500Y-98082742D02*
X94992500Y-98557258D01*
%TD*%
%LPC*%
D12*
%TO.C,R11*%
X184432500Y-80770000D03*
X184432500Y-79120000D03*
%TD*%
D13*
%TO.C,R8*%
X185660000Y-90435000D03*
X187310000Y-90435000D03*
%TD*%
D14*
%TO.C,R2*%
X187310000Y-97235000D03*
X185660000Y-97235000D03*
%TD*%
D15*
%TO.C,U4*%
X180857500Y-70895000D03*
X180857500Y-71545000D03*
X180857500Y-72195000D03*
X180857500Y-72845000D03*
X180857500Y-73495000D03*
X180857500Y-74145000D03*
X180857500Y-74795000D03*
X180857500Y-75445000D03*
X180857500Y-76095000D03*
X180857500Y-76745000D03*
X186582500Y-76745000D03*
X186582500Y-76095000D03*
X186582500Y-75445000D03*
X186582500Y-74795000D03*
X186582500Y-74145000D03*
X186582500Y-73495000D03*
X186582500Y-72845000D03*
X186582500Y-72195000D03*
X186582500Y-71545000D03*
X186582500Y-70895000D03*
%TD*%
D16*
%TO.C,U8*%
X118627323Y-58475000D03*
X119897323Y-58475000D03*
X121167323Y-58475000D03*
X122437323Y-58475000D03*
X122437323Y-53525000D03*
X121167323Y-53525000D03*
X119897323Y-53525000D03*
X118627323Y-53525000D03*
%TD*%
D13*
%TO.C,R14*%
X117250000Y-97110000D03*
X118900000Y-97110000D03*
%TD*%
D12*
%TO.C,R10*%
X186082500Y-80770000D03*
X186082500Y-79120000D03*
%TD*%
D17*
%TO.C,R19*%
X95515000Y-76295000D03*
X95515000Y-77945000D03*
%TD*%
D18*
%TO.C,C3*%
X190510000Y-95535000D03*
X188960000Y-95535000D03*
%TD*%
D19*
%TO.C,J1*%
X84000000Y-58500000D03*
D20*
X84000000Y-61040000D03*
X84000000Y-63580000D03*
X84000000Y-66120000D03*
X84000000Y-68660000D03*
X84000000Y-71200000D03*
X84000000Y-73740000D03*
X84000000Y-76280000D03*
X84000000Y-78820000D03*
X84000000Y-81360000D03*
X84000000Y-83900000D03*
X84000000Y-86440000D03*
X84000000Y-88980000D03*
X84000000Y-91520000D03*
X84000000Y-94060000D03*
X84000000Y-96600000D03*
%TD*%
D21*
%TO.C,C20*%
X177382500Y-70845000D03*
X177382500Y-72395000D03*
%TD*%
%TO.C,C16*%
X190082500Y-70245000D03*
X190082500Y-71795000D03*
%TD*%
D22*
%TO.C,D3*%
X131700000Y-71200000D03*
X131700000Y-73300000D03*
%TD*%
D23*
%TO.C,U3*%
X178635000Y-92865000D03*
X178635000Y-94135000D03*
X178635000Y-95405000D03*
X178635000Y-96675000D03*
X183585000Y-96675000D03*
X183585000Y-95405000D03*
X183585000Y-94135000D03*
X183585000Y-92865000D03*
%TD*%
D24*
%TO.C,C2*%
X171710000Y-94235000D03*
X173260000Y-94235000D03*
%TD*%
D21*
%TO.C,C11*%
X175682500Y-75045000D03*
X175682500Y-76595000D03*
%TD*%
D13*
%TO.C,R3*%
X174910000Y-94235000D03*
X176560000Y-94235000D03*
%TD*%
D12*
%TO.C,R20*%
X107915000Y-75895000D03*
X107915000Y-74245000D03*
%TD*%
D21*
%TO.C,C14*%
X188482500Y-70245000D03*
X188482500Y-71795000D03*
%TD*%
D25*
%TO.C,U2*%
X185732500Y-57800000D03*
X185732500Y-59700000D03*
X187607500Y-58750000D03*
%TD*%
D24*
%TO.C,C1*%
X185455000Y-52760000D03*
X187005000Y-52760000D03*
%TD*%
D14*
%TO.C,R13*%
X175732500Y-73245000D03*
X174082500Y-73245000D03*
%TD*%
D23*
%TO.C,U5*%
X100815000Y-76495000D03*
X100815000Y-77765000D03*
X100815000Y-79035000D03*
X100815000Y-80305000D03*
X105765000Y-80305000D03*
X105765000Y-79035000D03*
X105765000Y-77765000D03*
X105765000Y-76495000D03*
%TD*%
D21*
%TO.C,C17*%
X188482500Y-73445000D03*
X188482500Y-74995000D03*
%TD*%
D14*
%TO.C,R17*%
X98815000Y-77895000D03*
X97165000Y-77895000D03*
%TD*%
D13*
%TO.C,R1*%
X174000000Y-96500000D03*
X175650000Y-96500000D03*
%TD*%
D12*
%TO.C,R15*%
X124650000Y-98810000D03*
X124650000Y-97160000D03*
%TD*%
D19*
%TO.C,J2*%
X196000000Y-66000000D03*
D20*
X196000000Y-68540000D03*
X196000000Y-71080000D03*
X196000000Y-73620000D03*
X196000000Y-76160000D03*
X196000000Y-78700000D03*
X196000000Y-81240000D03*
X196000000Y-83780000D03*
X196000000Y-86320000D03*
X196000000Y-88860000D03*
X196000000Y-91400000D03*
X196000000Y-93940000D03*
%TD*%
D14*
%TO.C,R21*%
X98815000Y-76295000D03*
X97165000Y-76295000D03*
%TD*%
D18*
%TO.C,C23*%
X104015000Y-92495000D03*
X102465000Y-92495000D03*
%TD*%
D13*
%TO.C,R22*%
X107715000Y-89695000D03*
X109365000Y-89695000D03*
%TD*%
D14*
%TO.C,R6*%
X187310000Y-93835000D03*
X185660000Y-93835000D03*
%TD*%
D13*
%TO.C,R16*%
X107815000Y-79095000D03*
X109465000Y-79095000D03*
%TD*%
D14*
%TO.C,R23*%
X98715000Y-88395000D03*
X97065000Y-88395000D03*
%TD*%
D23*
%TO.C,U7*%
X100740000Y-97890000D03*
X100740000Y-99160000D03*
X100740000Y-100430000D03*
X100740000Y-101700000D03*
X105690000Y-101700000D03*
X105690000Y-100430000D03*
X105690000Y-99160000D03*
X105690000Y-97890000D03*
%TD*%
D14*
%TO.C,R28*%
X98715000Y-99195000D03*
X97065000Y-99195000D03*
%TD*%
D13*
%TO.C,R7*%
X185660000Y-88735000D03*
X187310000Y-88735000D03*
%TD*%
D21*
%TO.C,C15*%
X190082500Y-73445000D03*
X190082500Y-74995000D03*
%TD*%
D18*
%TO.C,C24*%
X104015000Y-103395000D03*
X102465000Y-103395000D03*
%TD*%
D13*
%TO.C,R5*%
X174910000Y-92535000D03*
X176560000Y-92535000D03*
%TD*%
D26*
%TO.C,JP2*%
X128800000Y-72900001D03*
X128800000Y-71600001D03*
%TD*%
D18*
%TO.C,C6*%
X181810000Y-98335000D03*
X180260000Y-98335000D03*
%TD*%
D12*
%TO.C,R26*%
X107815000Y-86545000D03*
X107815000Y-84895000D03*
%TD*%
D21*
%TO.C,C9*%
X178882500Y-75045000D03*
X178882500Y-76595000D03*
%TD*%
D18*
%TO.C,C8*%
X187260000Y-92135000D03*
X185710000Y-92135000D03*
%TD*%
D14*
%TO.C,R27*%
X98715000Y-86795000D03*
X97065000Y-86795000D03*
%TD*%
%TO.C,R12*%
X175732500Y-71645000D03*
X174082500Y-71645000D03*
%TD*%
D18*
%TO.C,C22*%
X104065000Y-81995000D03*
X102515000Y-81995000D03*
%TD*%
%TO.C,C5*%
X181710000Y-91135000D03*
X180160000Y-91135000D03*
%TD*%
D14*
%TO.C,R4*%
X187310000Y-95535000D03*
X185660000Y-95535000D03*
%TD*%
D13*
%TO.C,R18*%
X107815000Y-77495000D03*
X109465000Y-77495000D03*
%TD*%
D21*
%TO.C,C10*%
X177282500Y-75045000D03*
X177282500Y-76595000D03*
%TD*%
%TO.C,C18*%
X178982500Y-70845000D03*
X178982500Y-72395000D03*
%TD*%
D18*
%TO.C,C21*%
X172532500Y-73245000D03*
X170982500Y-73245000D03*
%TD*%
D24*
%TO.C,C7*%
X174960000Y-90835000D03*
X176510000Y-90835000D03*
%TD*%
D23*
%TO.C,U6*%
X100740000Y-86990000D03*
X100740000Y-88260000D03*
X100740000Y-89530000D03*
X100740000Y-90800000D03*
X105690000Y-90800000D03*
X105690000Y-89530000D03*
X105690000Y-88260000D03*
X105690000Y-86990000D03*
%TD*%
D27*
%TO.C,D2*%
X116750000Y-72900000D03*
X114650000Y-72900000D03*
%TD*%
D24*
%TO.C,C12*%
X181782500Y-69445000D03*
X183332500Y-69445000D03*
%TD*%
D18*
%TO.C,C19*%
X172532500Y-71645000D03*
X170982500Y-71645000D03*
%TD*%
D14*
%TO.C,R30*%
X98715000Y-97495000D03*
X97065000Y-97495000D03*
%TD*%
D28*
%TO.C,C26*%
X116832323Y-56700000D03*
X116832323Y-55150000D03*
%TD*%
D24*
%TO.C,C4*%
X185455000Y-55270000D03*
X187005000Y-55270000D03*
%TD*%
D18*
%TO.C,C13*%
X182082500Y-78245000D03*
X180532500Y-78245000D03*
%TD*%
D13*
%TO.C,R24*%
X107715000Y-88095000D03*
X109365000Y-88095000D03*
%TD*%
D12*
%TO.C,R9*%
X187782500Y-80770000D03*
X187782500Y-79120000D03*
%TD*%
D25*
%TO.C,Q1*%
X120775000Y-97160000D03*
X120775000Y-99060000D03*
X122650000Y-98110000D03*
%TD*%
D17*
%TO.C,R25*%
X95515000Y-86695000D03*
X95515000Y-88345000D03*
%TD*%
%TO.C,R29*%
X95515000Y-97495000D03*
X95515000Y-99145000D03*
%TD*%
D29*
%TO.C,C28*%
X130100000Y-83100000D03*
D30*
X125100000Y-83100000D03*
%TD*%
D31*
%TO.C,J3*%
X95000000Y-67080000D03*
D32*
X97540000Y-67080000D03*
X95000000Y-64540000D03*
X97540000Y-64540000D03*
X95000000Y-62000000D03*
X97540000Y-62000000D03*
X95000000Y-59460000D03*
X97540000Y-59460000D03*
X95000000Y-56920000D03*
X97540000Y-56920000D03*
%TD*%
D33*
%TO.C,L1*%
X120532323Y-72700000D03*
X123532323Y-72700000D03*
%TD*%
D19*
%TO.C,J4*%
X165000000Y-55880000D03*
D20*
X165000000Y-58420000D03*
X165000000Y-60960000D03*
X165000000Y-63500000D03*
X165000000Y-66040000D03*
X165000000Y-68580000D03*
X165000000Y-71120000D03*
X165000000Y-73660000D03*
X165000000Y-76200000D03*
X165000000Y-78740000D03*
X165000000Y-81280000D03*
X165000000Y-83820000D03*
X165000000Y-86360000D03*
X165000000Y-88900000D03*
X165000000Y-91440000D03*
X165000000Y-93980000D03*
X165000000Y-96520000D03*
X165000000Y-99060000D03*
X165000000Y-101600000D03*
X165000000Y-104140000D03*
%TD*%
D34*
%TO.C,C27*%
X123879672Y-64600000D03*
D35*
X127379672Y-64600000D03*
%TD*%
D36*
%TO.C,C25*%
X118100000Y-65200000D03*
D37*
X113100000Y-65200000D03*
%TD*%
D19*
%TO.C,J6*%
X175260000Y-53340000D03*
D20*
X175260000Y-55880000D03*
X175260000Y-58420000D03*
%TD*%
D19*
%TO.C,J5*%
X137160000Y-55880000D03*
D20*
X137160000Y-58420000D03*
X137160000Y-60960000D03*
X137160000Y-63500000D03*
X137160000Y-66040000D03*
X137160000Y-68580000D03*
X137160000Y-71120000D03*
X137160000Y-73660000D03*
X137160000Y-76200000D03*
X137160000Y-78740000D03*
X137160000Y-81280000D03*
X137160000Y-83820000D03*
X137160000Y-86360000D03*
X137160000Y-88900000D03*
X137160000Y-91440000D03*
X137160000Y-93980000D03*
X137160000Y-96520000D03*
X137160000Y-99060000D03*
X137160000Y-101600000D03*
X137160000Y-104140000D03*
%TD*%
D38*
%TO.C,U1*%
X153855000Y-56010000D03*
D39*
X153555000Y-59040000D03*
X148705000Y-59040000D03*
D38*
X148405000Y-56010000D03*
D20*
X160020000Y-55880000D03*
X160020000Y-58420000D03*
D19*
X160020000Y-60960000D03*
D20*
X160020000Y-63500000D03*
X160020000Y-66040000D03*
X160020000Y-68580000D03*
X160020000Y-71120000D03*
D19*
X160020000Y-73660000D03*
D20*
X160020000Y-76200000D03*
X160020000Y-78740000D03*
X160020000Y-81280000D03*
X160020000Y-83820000D03*
D19*
X160020000Y-86360000D03*
D20*
X160020000Y-88900000D03*
X160020000Y-91440000D03*
X160020000Y-93980000D03*
X160020000Y-96520000D03*
D19*
X160020000Y-99060000D03*
D20*
X160020000Y-101600000D03*
X160020000Y-104140000D03*
X142240000Y-104140000D03*
X142240000Y-101600000D03*
D19*
X142240000Y-99060000D03*
D20*
X142240000Y-96520000D03*
X142240000Y-93980000D03*
X142240000Y-91440000D03*
X142240000Y-88900000D03*
D19*
X142240000Y-86360000D03*
D20*
X142240000Y-83820000D03*
X142240000Y-81280000D03*
X142240000Y-78740000D03*
X142240000Y-76200000D03*
D19*
X142240000Y-73660000D03*
D20*
X142240000Y-71120000D03*
X142240000Y-68580000D03*
X142240000Y-66040000D03*
X142240000Y-63500000D03*
D19*
X142240000Y-60960000D03*
D20*
X142240000Y-58420000D03*
X142240000Y-55880000D03*
X153670000Y-103910000D03*
D19*
X151130000Y-103910000D03*
D20*
X148590000Y-103910000D03*
%TD*%
%LPD*%
M02*
