%TF.GenerationSoftware,KiCad,Pcbnew,7.0.2*%
%TF.CreationDate,2024-07-09T13:38:02+01:00*%
%TF.ProjectId,dk2_03_bottom,646b325f-3033-45f6-926f-74746f6d2e6b,rev?*%
%TF.SameCoordinates,Original*%
%TF.FileFunction,Soldermask,Bot*%
%TF.FilePolarity,Negative*%
%FSLAX46Y46*%
G04 Gerber Fmt 4.6, Leading zero omitted, Abs format (unit mm)*
G04 Created by KiCad (PCBNEW 7.0.2) date 2024-07-09 13:38:02*
%MOMM*%
%LPD*%
G01*
G04 APERTURE LIST*
G04 Aperture macros list*
%AMRoundRect*
0 Rectangle with rounded corners*
0 $1 Rounding radius*
0 $2 $3 $4 $5 $6 $7 $8 $9 X,Y pos of 4 corners*
0 Add a 4 corners polygon primitive as box body*
4,1,4,$2,$3,$4,$5,$6,$7,$8,$9,$2,$3,0*
0 Add four circle primitives for the rounded corners*
1,1,$1+$1,$2,$3*
1,1,$1+$1,$4,$5*
1,1,$1+$1,$6,$7*
1,1,$1+$1,$8,$9*
0 Add four rect primitives between the rounded corners*
20,1,$1+$1,$2,$3,$4,$5,0*
20,1,$1+$1,$4,$5,$6,$7,0*
20,1,$1+$1,$6,$7,$8,$9,0*
20,1,$1+$1,$8,$9,$2,$3,0*%
G04 Aperture macros list end*
%ADD10R,1.700000X1.700000*%
%ADD11O,1.700000X1.700000*%
%ADD12RoundRect,0.250000X-0.600000X-0.600000X0.600000X-0.600000X0.600000X0.600000X-0.600000X0.600000X0*%
%ADD13C,1.700000*%
%ADD14C,2.600000*%
%ADD15R,1.600000X1.600000*%
%ADD16C,1.600000*%
%ADD17R,2.000000X2.000000*%
%ADD18C,2.000000*%
%ADD19R,3.200000X3.200000*%
%ADD20O,3.200000X3.200000*%
%ADD21O,1.800000X1.800000*%
%ADD22O,1.500000X1.500000*%
%ADD23R,3.500000X1.700000*%
%ADD24R,1.700000X3.500000*%
G04 APERTURE END LIST*
D10*
%TO.C,J1*%
X84000000Y-55920000D03*
D11*
X84000000Y-58460000D03*
X84000000Y-61000000D03*
X84000000Y-63540000D03*
X84000000Y-66080000D03*
X84000000Y-68620000D03*
X84000000Y-71160000D03*
X84000000Y-73700000D03*
X84000000Y-76240000D03*
X84000000Y-78780000D03*
X84000000Y-81320000D03*
X84000000Y-83860000D03*
X84000000Y-86400000D03*
X84000000Y-88940000D03*
X84000000Y-91480000D03*
X84000000Y-94020000D03*
X84000000Y-96560000D03*
X84000000Y-99100000D03*
X84000000Y-101640000D03*
X84000000Y-104180000D03*
%TD*%
D10*
%TO.C,J2*%
X196000000Y-61000000D03*
D11*
X196000000Y-63540000D03*
X196000000Y-66080000D03*
X196000000Y-68620000D03*
X196000000Y-71160000D03*
X196000000Y-73700000D03*
X196000000Y-76240000D03*
X196000000Y-78780000D03*
X196000000Y-81320000D03*
X196000000Y-83860000D03*
X196000000Y-86400000D03*
X196000000Y-88940000D03*
X196000000Y-91480000D03*
X196000000Y-94020000D03*
X196000000Y-96560000D03*
X196000000Y-99100000D03*
%TD*%
D12*
%TO.C,J3*%
X95000000Y-67080000D03*
D13*
X97540000Y-67080000D03*
X95000000Y-64540000D03*
X97540000Y-64540000D03*
X95000000Y-62000000D03*
X97540000Y-62000000D03*
X95000000Y-59460000D03*
X97540000Y-59460000D03*
X95000000Y-56920000D03*
X97540000Y-56920000D03*
%TD*%
D10*
%TO.C,JP1*%
X190500000Y-53340000D03*
D11*
X190500000Y-55880000D03*
X190500000Y-58420000D03*
%TD*%
D14*
%TO.C,L1*%
X120532323Y-72700000D03*
X123532323Y-72700000D03*
%TD*%
D10*
%TO.C,J4*%
X165000000Y-55880000D03*
D11*
X165000000Y-58420000D03*
X165000000Y-60960000D03*
X165000000Y-63500000D03*
X165000000Y-66040000D03*
X165000000Y-68580000D03*
X165000000Y-71120000D03*
X165000000Y-73660000D03*
X165000000Y-76200000D03*
X165000000Y-78740000D03*
X165000000Y-81280000D03*
X165000000Y-83820000D03*
X165000000Y-86360000D03*
X165000000Y-88900000D03*
X165000000Y-91440000D03*
X165000000Y-93980000D03*
X165000000Y-96520000D03*
X165000000Y-99060000D03*
X165000000Y-101600000D03*
X165000000Y-104140000D03*
%TD*%
D15*
%TO.C,C27*%
X123879672Y-64600000D03*
D16*
X127379672Y-64600000D03*
%TD*%
D17*
%TO.C,C25*%
X118100000Y-65200000D03*
D18*
X113100000Y-65200000D03*
%TD*%
D19*
%TO.C,D2*%
X106490000Y-68880000D03*
D20*
X106490000Y-53640000D03*
%TD*%
D10*
%TO.C,J6*%
X175260000Y-53340000D03*
D11*
X175260000Y-55880000D03*
X175260000Y-58420000D03*
%TD*%
D10*
%TO.C,J5*%
X137160000Y-55880000D03*
D11*
X137160000Y-58420000D03*
X137160000Y-60960000D03*
X137160000Y-63500000D03*
X137160000Y-66040000D03*
X137160000Y-68580000D03*
X137160000Y-71120000D03*
X137160000Y-73660000D03*
X137160000Y-76200000D03*
X137160000Y-78740000D03*
X137160000Y-81280000D03*
X137160000Y-83820000D03*
X137160000Y-86360000D03*
X137160000Y-88900000D03*
X137160000Y-91440000D03*
X137160000Y-93980000D03*
X137160000Y-96520000D03*
X137160000Y-99060000D03*
X137160000Y-101600000D03*
X137160000Y-104140000D03*
%TD*%
D21*
%TO.C,U1*%
X153855000Y-56010000D03*
D22*
X153555000Y-59040000D03*
X148705000Y-59040000D03*
D21*
X148405000Y-56010000D03*
D11*
X160020000Y-55880000D03*
D23*
X160920000Y-55880000D03*
D11*
X160020000Y-58420000D03*
D23*
X160920000Y-58420000D03*
D10*
X160020000Y-60960000D03*
D23*
X160920000Y-60960000D03*
D11*
X160020000Y-63500000D03*
D23*
X160920000Y-63500000D03*
D11*
X160020000Y-66040000D03*
D23*
X160920000Y-66040000D03*
D11*
X160020000Y-68580000D03*
D23*
X160920000Y-68580000D03*
D11*
X160020000Y-71120000D03*
D23*
X160920000Y-71120000D03*
D10*
X160020000Y-73660000D03*
D23*
X160920000Y-73660000D03*
D11*
X160020000Y-76200000D03*
D23*
X160920000Y-76200000D03*
D11*
X160020000Y-78740000D03*
D23*
X160920000Y-78740000D03*
D11*
X160020000Y-81280000D03*
D23*
X160920000Y-81280000D03*
D11*
X160020000Y-83820000D03*
D23*
X160920000Y-83820000D03*
D10*
X160020000Y-86360000D03*
D23*
X160920000Y-86360000D03*
D11*
X160020000Y-88900000D03*
D23*
X160920000Y-88900000D03*
D11*
X160020000Y-91440000D03*
D23*
X160920000Y-91440000D03*
D11*
X160020000Y-93980000D03*
D23*
X160920000Y-93980000D03*
D11*
X160020000Y-96520000D03*
D23*
X160920000Y-96520000D03*
D10*
X160020000Y-99060000D03*
D23*
X160920000Y-99060000D03*
D11*
X160020000Y-101600000D03*
D23*
X160920000Y-101600000D03*
D11*
X160020000Y-104140000D03*
D23*
X160920000Y-104140000D03*
D11*
X142240000Y-104140000D03*
D23*
X141340000Y-104140000D03*
D11*
X142240000Y-101600000D03*
D23*
X141340000Y-101600000D03*
D10*
X142240000Y-99060000D03*
D23*
X141340000Y-99060000D03*
D11*
X142240000Y-96520000D03*
D23*
X141340000Y-96520000D03*
D11*
X142240000Y-93980000D03*
D23*
X141340000Y-93980000D03*
D11*
X142240000Y-91440000D03*
D23*
X141340000Y-91440000D03*
D11*
X142240000Y-88900000D03*
D23*
X141340000Y-88900000D03*
D10*
X142240000Y-86360000D03*
D23*
X141340000Y-86360000D03*
D11*
X142240000Y-83820000D03*
D23*
X141340000Y-83820000D03*
D11*
X142240000Y-81280000D03*
D23*
X141340000Y-81280000D03*
D11*
X142240000Y-78740000D03*
D23*
X141340000Y-78740000D03*
D11*
X142240000Y-76200000D03*
D23*
X141340000Y-76200000D03*
D10*
X142240000Y-73660000D03*
D23*
X141340000Y-73660000D03*
D11*
X142240000Y-71120000D03*
D23*
X141340000Y-71120000D03*
D11*
X142240000Y-68580000D03*
D23*
X141340000Y-68580000D03*
D11*
X142240000Y-66040000D03*
D23*
X141340000Y-66040000D03*
D11*
X142240000Y-63500000D03*
D23*
X141340000Y-63500000D03*
D10*
X142240000Y-60960000D03*
D23*
X141340000Y-60960000D03*
D11*
X142240000Y-58420000D03*
D23*
X141340000Y-58420000D03*
D11*
X142240000Y-55880000D03*
D23*
X141340000Y-55880000D03*
D11*
X153670000Y-103910000D03*
D24*
X153670000Y-104810000D03*
D10*
X151130000Y-103910000D03*
D24*
X151130000Y-104810000D03*
D11*
X148590000Y-103910000D03*
D24*
X148590000Y-104810000D03*
%TD*%
M02*
