%TF.GenerationSoftware,KiCad,Pcbnew,9.0.4*%
%TF.CreationDate,2025-09-08T11:39:44+01:00*%
%TF.ProjectId,dk2_06_panel,646b325f-3036-45f7-9061-6e656c2e6b69,rev?*%
%TF.SameCoordinates,Original*%
%TF.FileFunction,Soldermask,Bot*%
%TF.FilePolarity,Negative*%
%FSLAX46Y46*%
G04 Gerber Fmt 4.6, Leading zero omitted, Abs format (unit mm)*
G04 Created by KiCad (PCBNEW 9.0.4) date 2025-09-08 11:39:44*
%MOMM*%
%LPD*%
G01*
G04 APERTURE LIST*
%ADD10C,3.200000*%
%ADD11C,6.400000*%
%ADD12C,7.200000*%
G04 APERTURE END LIST*
D10*
%TO.C,H37*%
X157500000Y-109500000D03*
%TD*%
%TO.C,H4*%
X183450000Y-155250000D03*
%TD*%
D11*
%TO.C,H14*%
X144000000Y-124000000D03*
%TD*%
D10*
%TO.C,H35*%
X122500000Y-109500000D03*
%TD*%
D12*
%TO.C,H45*%
X180000000Y-45500000D03*
%TD*%
%TO.C,H41*%
X100000000Y-45500000D03*
%TD*%
D11*
%TO.C,H12*%
X120000000Y-124000000D03*
%TD*%
%TO.C,H20*%
X144000000Y-140000000D03*
%TD*%
%TO.C,H16*%
X96000000Y-140000000D03*
%TD*%
D10*
%TO.C,H23*%
X102500000Y-85500000D03*
%TD*%
D11*
%TO.C,H18*%
X120000000Y-140000000D03*
%TD*%
D12*
%TO.C,H42*%
X120000000Y-45500000D03*
%TD*%
D10*
%TO.C,H54*%
X157000000Y-134600000D03*
%TD*%
%TO.C,H52*%
X157000000Y-123500000D03*
%TD*%
D11*
%TO.C,H9*%
X84000000Y-124000000D03*
%TD*%
D10*
%TO.C,H39*%
X177500000Y-109500000D03*
%TD*%
D11*
%TO.C,H17*%
X108000000Y-140000000D03*
%TD*%
D12*
%TO.C,H46*%
X80000000Y-67500000D03*
%TD*%
%TO.C,H47*%
X100000000Y-67500000D03*
%TD*%
D10*
%TO.C,H3*%
X76550000Y-155250000D03*
%TD*%
D11*
%TO.C,H11*%
X108000000Y-124000000D03*
%TD*%
D10*
%TO.C,H38*%
X167500000Y-109500000D03*
%TD*%
%TO.C,H33*%
X102500000Y-109500000D03*
%TD*%
D11*
%TO.C,H19*%
X132000000Y-140000000D03*
%TD*%
D10*
%TO.C,H31*%
X82500000Y-109500000D03*
%TD*%
D11*
%TO.C,H15*%
X84000000Y-140000000D03*
%TD*%
D10*
%TO.C,H24*%
X112500000Y-85500000D03*
%TD*%
D12*
%TO.C,H48*%
X120000000Y-67500000D03*
%TD*%
%TO.C,H40*%
X80000000Y-45500000D03*
%TD*%
D10*
%TO.C,H34*%
X112500000Y-109500000D03*
%TD*%
%TO.C,H28*%
X102500000Y-97500000D03*
%TD*%
%TO.C,H2*%
X183450000Y-32750000D03*
%TD*%
D12*
%TO.C,H51*%
X180000000Y-67500000D03*
%TD*%
D10*
%TO.C,H27*%
X92500000Y-97500000D03*
%TD*%
D12*
%TO.C,H43*%
X140000000Y-45500000D03*
%TD*%
%TO.C,H50*%
X160000000Y-67500000D03*
%TD*%
D10*
%TO.C,H25*%
X122500000Y-85500000D03*
%TD*%
%TO.C,H53*%
X157000000Y-129050000D03*
%TD*%
D11*
%TO.C,H10*%
X96000000Y-124000000D03*
%TD*%
D10*
%TO.C,H32*%
X92500000Y-109500000D03*
%TD*%
%TO.C,H26*%
X82500000Y-97500000D03*
%TD*%
D11*
%TO.C,H13*%
X132000000Y-124000000D03*
%TD*%
D10*
%TO.C,H21*%
X82500000Y-85500000D03*
%TD*%
%TO.C,H30*%
X122500000Y-97500000D03*
%TD*%
%TO.C,H1*%
X76550000Y-32750000D03*
%TD*%
%TO.C,H22*%
X92500000Y-85500000D03*
%TD*%
%TO.C,H55*%
X157000000Y-140150000D03*
%TD*%
%TO.C,H36*%
X147500000Y-109500000D03*
%TD*%
D12*
%TO.C,H49*%
X140000000Y-67500000D03*
%TD*%
%TO.C,H44*%
X160000000Y-45500000D03*
%TD*%
D10*
%TO.C,H29*%
X112500000Y-97500000D03*
%TD*%
M02*
