%TF.GenerationSoftware,KiCad,Pcbnew,7.0.2*%
%TF.CreationDate,2023-08-30T16:48:59+01:00*%
%TF.ProjectId,dk2_02_bottom,646b325f-3032-45f6-926f-74746f6d2e6b,rev?*%
%TF.SameCoordinates,Original*%
%TF.FileFunction,Copper,L2,Bot*%
%TF.FilePolarity,Positive*%
%FSLAX46Y46*%
G04 Gerber Fmt 4.6, Leading zero omitted, Abs format (unit mm)*
G04 Created by KiCad (PCBNEW 7.0.2) date 2023-08-30 16:48:59*
%MOMM*%
%LPD*%
G01*
G04 APERTURE LIST*
G04 Aperture macros list*
%AMRoundRect*
0 Rectangle with rounded corners*
0 $1 Rounding radius*
0 $2 $3 $4 $5 $6 $7 $8 $9 X,Y pos of 4 corners*
0 Add a 4 corners polygon primitive as box body*
4,1,4,$2,$3,$4,$5,$6,$7,$8,$9,$2,$3,0*
0 Add four circle primitives for the rounded corners*
1,1,$1+$1,$2,$3*
1,1,$1+$1,$4,$5*
1,1,$1+$1,$6,$7*
1,1,$1+$1,$8,$9*
0 Add four rect primitives between the rounded corners*
20,1,$1+$1,$2,$3,$4,$5,0*
20,1,$1+$1,$4,$5,$6,$7,0*
20,1,$1+$1,$6,$7,$8,$9,0*
20,1,$1+$1,$8,$9,$2,$3,0*%
G04 Aperture macros list end*
%TA.AperFunction,ComponentPad*%
%ADD10R,1.700000X1.700000*%
%TD*%
%TA.AperFunction,ComponentPad*%
%ADD11O,1.700000X1.700000*%
%TD*%
%TA.AperFunction,ComponentPad*%
%ADD12RoundRect,0.250000X-0.600000X-0.600000X0.600000X-0.600000X0.600000X0.600000X-0.600000X0.600000X0*%
%TD*%
%TA.AperFunction,ComponentPad*%
%ADD13C,1.700000*%
%TD*%
%TA.AperFunction,ComponentPad*%
%ADD14C,2.600000*%
%TD*%
%TA.AperFunction,ComponentPad*%
%ADD15R,1.600000X1.600000*%
%TD*%
%TA.AperFunction,ComponentPad*%
%ADD16C,1.600000*%
%TD*%
%TA.AperFunction,ComponentPad*%
%ADD17R,2.000000X2.000000*%
%TD*%
%TA.AperFunction,ComponentPad*%
%ADD18C,2.000000*%
%TD*%
%TA.AperFunction,ComponentPad*%
%ADD19R,3.200000X3.200000*%
%TD*%
%TA.AperFunction,ComponentPad*%
%ADD20O,3.200000X3.200000*%
%TD*%
%TA.AperFunction,SMDPad,CuDef*%
%ADD21R,3.500000X1.700000*%
%TD*%
%TA.AperFunction,SMDPad,CuDef*%
%ADD22R,1.700000X3.500000*%
%TD*%
%TA.AperFunction,ViaPad*%
%ADD23C,0.800000*%
%TD*%
%TA.AperFunction,Conductor*%
%ADD24C,0.250000*%
%TD*%
%TA.AperFunction,Conductor*%
%ADD25C,0.500000*%
%TD*%
G04 APERTURE END LIST*
D10*
%TO.P,J1,1,Pin_1*%
%TO.N,unconnected-(J1-Pin_1-Pad1)*%
X84000000Y-75820000D03*
D11*
%TO.P,J1,2,Pin_2*%
%TO.N,unconnected-(J1-Pin_2-Pad2)*%
X84000000Y-78360000D03*
%TO.P,J1,3,Pin_3*%
%TO.N,unconnected-(J1-Pin_3-Pad3)*%
X84000000Y-80900000D03*
%TO.P,J1,4,Pin_4*%
%TO.N,START_STOP_BUTTON*%
X84000000Y-83440000D03*
%TO.P,J1,5,Pin_5*%
%TO.N,TAP_TEMPO_BUTTON*%
X84000000Y-85980000D03*
%TO.P,J1,6,Pin_6*%
%TO.N,165_LOAD*%
X84000000Y-88520000D03*
%TO.P,J1,7,Pin_7*%
%TO.N,165_CLOCK*%
X84000000Y-91060000D03*
%TO.P,J1,8,Pin_8*%
%TO.N,165_DATA*%
X84000000Y-93600000D03*
%TO.P,J1,9,Pin_9*%
%TO.N,TRIGGER_OUT_1_EURO*%
X84000000Y-96140000D03*
%TO.P,J1,10,Pin_10*%
%TO.N,TRIGGER_OUT_2_EURO*%
X84000000Y-98680000D03*
%TO.P,J1,11,Pin_11*%
%TO.N,TRIGGER_OUT_3_EURO*%
X84000000Y-101220000D03*
%TO.P,J1,12,Pin_12*%
%TO.N,TRIGGER_OUT_4_EURO*%
X84000000Y-103760000D03*
%TO.P,J1,13,Pin_13*%
%TO.N,SYNC_IN_EURO*%
X84000000Y-106300000D03*
%TO.P,J1,14,Pin_14*%
%TO.N,SYNC_OUT_EURO*%
X84000000Y-108840000D03*
%TO.P,J1,15,Pin_15*%
%TO.N,+12V*%
X84000000Y-111380000D03*
%TO.P,J1,16,Pin_16*%
%TO.N,+3.3V*%
X84000000Y-113920000D03*
%TO.P,J1,17,Pin_17*%
%TO.N,GND*%
X84000000Y-116460000D03*
%TO.P,J1,18,Pin_18*%
%TO.N,-12V*%
X84000000Y-119000000D03*
%TD*%
D10*
%TO.P,J2,1,Pin_1*%
%TO.N,4051_ADDRESS_A*%
X196000000Y-76820000D03*
D11*
%TO.P,J2,2,Pin_2*%
%TO.N,4051_ADDRESS_B*%
X196000000Y-79360000D03*
%TO.P,J2,3,Pin_3*%
%TO.N,4051_ADDRESS_C*%
X196000000Y-81900000D03*
%TO.P,J2,4,Pin_4*%
%TO.N,4051_READING_1*%
X196000000Y-84440000D03*
%TO.P,J2,5,Pin_5*%
%TO.N,4051_READING_0*%
X196000000Y-86980000D03*
%TO.P,J2,6,Pin_6*%
%TO.N,SD_CLOCK*%
X196000000Y-89520000D03*
%TO.P,J2,7,Pin_7*%
%TO.N,SD_SERIAL_IN*%
X196000000Y-92060000D03*
%TO.P,J2,8,Pin_8*%
%TO.N,SD_SERIAL_OUT*%
X196000000Y-94600000D03*
%TO.P,J2,9,Pin_9*%
%TO.N,SD_CHIP_SELECT*%
X196000000Y-97140000D03*
%TO.P,J2,10,Pin_10*%
%TO.N,595_DATA*%
X196000000Y-99680000D03*
%TO.P,J2,11,Pin_11*%
%TO.N,595_CLOCK*%
X196000000Y-102220000D03*
%TO.P,J2,12,Pin_12*%
%TO.N,595_LATCH*%
X196000000Y-104760000D03*
%TO.P,J2,13,Pin_13*%
%TO.N,EURO_OUT_1*%
X196000000Y-107300000D03*
%TO.P,J2,14,Pin_14*%
%TO.N,EURO_OUT_2*%
X196000000Y-109840000D03*
%TO.P,J2,15,Pin_15*%
%TO.N,+12V*%
X196000000Y-112380000D03*
%TO.P,J2,16,Pin_16*%
%TO.N,+3.3V*%
X196000000Y-114920000D03*
%TO.P,J2,17,Pin_17*%
%TO.N,GND*%
X196000000Y-117460000D03*
%TO.P,J2,18,Pin_18*%
%TO.N,-12V*%
X196000000Y-120000000D03*
%TD*%
D12*
%TO.P,J3,1,Pin_1*%
%TO.N,-12V*%
X95000000Y-67080000D03*
D13*
%TO.P,J3,2,Pin_2*%
X97540000Y-67080000D03*
%TO.P,J3,3,Pin_3*%
%TO.N,GND*%
X95000000Y-64540000D03*
%TO.P,J3,4,Pin_4*%
X97540000Y-64540000D03*
%TO.P,J3,5,Pin_5*%
X95000000Y-62000000D03*
%TO.P,J3,6,Pin_6*%
X97540000Y-62000000D03*
%TO.P,J3,7,Pin_7*%
X95000000Y-59460000D03*
%TO.P,J3,8,Pin_8*%
X97540000Y-59460000D03*
%TO.P,J3,9,Pin_9*%
%TO.N,+12V*%
X95000000Y-56920000D03*
%TO.P,J3,10,Pin_10*%
X97540000Y-56920000D03*
%TD*%
D14*
%TO.P,L1,1,1*%
%TO.N,Net-(D2-K)*%
X120532323Y-72700000D03*
%TO.P,L1,2,2*%
%TO.N,+5V*%
X123532323Y-72700000D03*
%TD*%
D15*
%TO.P,C27,1*%
%TO.N,+5V*%
X123879672Y-64600000D03*
D16*
%TO.P,C27,2*%
%TO.N,GND*%
X127379672Y-64600000D03*
%TD*%
D17*
%TO.P,C25,1*%
%TO.N,+12V*%
X118100000Y-65200000D03*
D18*
%TO.P,C25,2*%
%TO.N,GND*%
X113100000Y-65200000D03*
%TD*%
D19*
%TO.P,D2,1,K*%
%TO.N,Net-(D2-K)*%
X106500000Y-72000000D03*
D20*
%TO.P,D2,2,A*%
%TO.N,GND*%
X106500000Y-56760000D03*
%TD*%
D11*
%TO.P,U1,1,GPIO0*%
%TO.N,START_STOP_BUTTON*%
X151680000Y-75220000D03*
D21*
X152580000Y-75220000D03*
D11*
%TO.P,U1,2,GPIO1*%
%TO.N,TAP_TEMPO_BUTTON*%
X151680000Y-77760000D03*
D21*
X152580000Y-77760000D03*
D10*
%TO.P,U1,3,GND*%
%TO.N,GND*%
X151680000Y-80300000D03*
D21*
X152580000Y-80300000D03*
D11*
%TO.P,U1,4,GPIO2*%
%TO.N,SD_CLOCK*%
X151680000Y-82840000D03*
D21*
X152580000Y-82840000D03*
D11*
%TO.P,U1,5,GPIO3*%
%TO.N,SD_SERIAL_IN*%
X151680000Y-85380000D03*
D21*
X152580000Y-85380000D03*
D11*
%TO.P,U1,6,GPIO4*%
%TO.N,SD_SERIAL_OUT*%
X151680000Y-87920000D03*
D21*
X152580000Y-87920000D03*
D11*
%TO.P,U1,7,GPIO5*%
%TO.N,SD_CHIP_SELECT*%
X151680000Y-90460000D03*
D21*
X152580000Y-90460000D03*
D10*
%TO.P,U1,8,GND*%
%TO.N,GND*%
X151680000Y-93000000D03*
D21*
X152580000Y-93000000D03*
D11*
%TO.P,U1,9,GPIO6*%
%TO.N,595_DATA*%
X151680000Y-95540000D03*
D21*
X152580000Y-95540000D03*
D11*
%TO.P,U1,10,GPIO7*%
%TO.N,595_CLOCK*%
X151680000Y-98080000D03*
D21*
X152580000Y-98080000D03*
D11*
%TO.P,U1,11,GPIO8*%
%TO.N,595_LATCH*%
X151680000Y-100620000D03*
D21*
X152580000Y-100620000D03*
D11*
%TO.P,U1,12,GPIO9*%
%TO.N,DAC_DOUT*%
X151680000Y-103160000D03*
D21*
X152580000Y-103160000D03*
D10*
%TO.P,U1,13,GND*%
%TO.N,GND*%
X151680000Y-105700000D03*
D21*
X152580000Y-105700000D03*
D11*
%TO.P,U1,14,GPIO10*%
%TO.N,DAC_BCLK*%
X151680000Y-108240000D03*
D21*
X152580000Y-108240000D03*
D11*
%TO.P,U1,15,GPIO11*%
%TO.N,DAC_LRC*%
X151680000Y-110780000D03*
D21*
X152580000Y-110780000D03*
D11*
%TO.P,U1,16,GPIO12*%
%TO.N,165_LOAD*%
X151680000Y-113320000D03*
D21*
X152580000Y-113320000D03*
D11*
%TO.P,U1,17,GPIO13*%
%TO.N,165_CLOCK*%
X151680000Y-115860000D03*
D21*
X152580000Y-115860000D03*
D10*
%TO.P,U1,18,GND*%
%TO.N,GND*%
X151680000Y-118400000D03*
D21*
X152580000Y-118400000D03*
D11*
%TO.P,U1,19,GPIO14*%
%TO.N,165_DATA*%
X151680000Y-120940000D03*
D21*
X152580000Y-120940000D03*
D11*
%TO.P,U1,20,GPIO15*%
%TO.N,TRIGGER_OUT_1*%
X151680000Y-123480000D03*
D21*
X152580000Y-123480000D03*
D11*
%TO.P,U1,21,GPIO16*%
%TO.N,SYNC_IN*%
X133900000Y-123480000D03*
D21*
X133000000Y-123480000D03*
D11*
%TO.P,U1,22,GPIO17*%
%TO.N,SYNC_OUT*%
X133900000Y-120940000D03*
D21*
X133000000Y-120940000D03*
D10*
%TO.P,U1,23,GND*%
%TO.N,GND*%
X133900000Y-118400000D03*
D21*
X133000000Y-118400000D03*
D11*
%TO.P,U1,24,GPIO18*%
%TO.N,TRIGGER_OUT_4*%
X133900000Y-115860000D03*
D21*
X133000000Y-115860000D03*
D11*
%TO.P,U1,25,GPIO19*%
%TO.N,4051_ADDRESS_A*%
X133900000Y-113320000D03*
D21*
X133000000Y-113320000D03*
D11*
%TO.P,U1,26,GPIO20*%
%TO.N,4051_ADDRESS_B*%
X133900000Y-110780000D03*
D21*
X133000000Y-110780000D03*
D11*
%TO.P,U1,27,GPIO21*%
%TO.N,4051_ADDRESS_C*%
X133900000Y-108240000D03*
D21*
X133000000Y-108240000D03*
D10*
%TO.P,U1,28,GND*%
%TO.N,GND*%
X133900000Y-105700000D03*
D21*
X133000000Y-105700000D03*
D11*
%TO.P,U1,29,GPIO22*%
%TO.N,TRIGGER_OUT_3*%
X133900000Y-103160000D03*
D21*
X133000000Y-103160000D03*
D11*
%TO.P,U1,30,RUN*%
%TO.N,unconnected-(U1-RUN-Pad30)*%
X133900000Y-100620000D03*
D21*
X133000000Y-100620000D03*
D11*
%TO.P,U1,31,GPIO26_ADC0*%
%TO.N,4051_READING_0*%
X133900000Y-98080000D03*
D21*
X133000000Y-98080000D03*
D11*
%TO.P,U1,32,GPIO27_ADC1*%
%TO.N,4051_READING_1*%
X133900000Y-95540000D03*
D21*
X133000000Y-95540000D03*
D10*
%TO.P,U1,33,AGND*%
%TO.N,GND*%
X133900000Y-93000000D03*
D21*
X133000000Y-93000000D03*
D11*
%TO.P,U1,34,GPIO28_ADC2*%
%TO.N,TRIGGER_OUT_2*%
X133900000Y-90460000D03*
D21*
X133000000Y-90460000D03*
D11*
%TO.P,U1,35,ADC_VREF*%
%TO.N,unconnected-(U1-ADC_VREF-Pad35)*%
X133900000Y-87920000D03*
D21*
X133000000Y-87920000D03*
D11*
%TO.P,U1,36,3V3*%
%TO.N,+3.3V*%
X133900000Y-85380000D03*
D21*
X133000000Y-85380000D03*
D11*
%TO.P,U1,37,3V3_EN*%
%TO.N,unconnected-(U1-3V3_EN-Pad37)*%
X133900000Y-82840000D03*
D21*
X133000000Y-82840000D03*
D10*
%TO.P,U1,38,GND*%
%TO.N,GND*%
X133900000Y-80300000D03*
D21*
X133000000Y-80300000D03*
D11*
%TO.P,U1,39,VSYS*%
%TO.N,Net-(#FLG02-pwr)*%
X133900000Y-77760000D03*
D21*
X133000000Y-77760000D03*
D11*
%TO.P,U1,40,VBUS*%
%TO.N,unconnected-(U1-VBUS-Pad40)*%
X133900000Y-75220000D03*
D21*
X133000000Y-75220000D03*
D11*
%TO.P,U1,41,SWCLK*%
%TO.N,unconnected-(U1-SWCLK-Pad41)*%
X145330000Y-123250000D03*
D22*
X145330000Y-124150000D03*
D10*
%TO.P,U1,42,GND*%
%TO.N,GND*%
X142790000Y-123250000D03*
D22*
X142790000Y-124150000D03*
D11*
%TO.P,U1,43,SWDIO*%
%TO.N,unconnected-(U1-SWDIO-Pad43)*%
X140250000Y-123250000D03*
D22*
X140250000Y-124150000D03*
%TD*%
D23*
%TO.N,GND*%
X101500000Y-98800000D03*
X171800000Y-85850500D03*
X184900000Y-84000000D03*
X101500000Y-109500000D03*
X124000000Y-59000000D03*
X115800000Y-89200000D03*
X184100000Y-89100000D03*
X165600000Y-82800000D03*
X105800000Y-122000000D03*
X115700000Y-99700000D03*
X112800000Y-111400000D03*
X124000000Y-53000000D03*
X172300000Y-90800000D03*
X177300000Y-115000000D03*
X176900000Y-67200000D03*
X172600000Y-106900000D03*
X102700000Y-88475500D03*
%TO.N,SYNC_IN*%
X112600000Y-120100000D03*
X114800000Y-120100000D03*
%TO.N,595_DATA*%
X164300000Y-91700000D03*
X171200000Y-94974500D03*
%TO.N,595_CLOCK*%
X170200000Y-95200000D03*
X163900000Y-93500000D03*
%TO.N,595_LATCH*%
X169500000Y-96000000D03*
X164000000Y-94500000D03*
%TO.N,165_CLOCK*%
X110600000Y-103500000D03*
X97100000Y-101800000D03*
X94150500Y-99400000D03*
X147100000Y-116100000D03*
%TO.N,165_DATA*%
X109300000Y-103400000D03*
X94150500Y-100400000D03*
X96000000Y-102100000D03*
%TO.N,SYNC_OUT*%
X117500000Y-112700000D03*
X108025500Y-111700000D03*
%TO.N,4051_ADDRESS_A*%
X140900000Y-89200000D03*
%TO.N,4051_ADDRESS_B*%
X155600000Y-81900000D03*
%TO.N,4051_ADDRESS_C*%
X139200000Y-109200000D03*
X156662299Y-81862299D03*
%TO.N,4051_READING_0*%
X159100000Y-81900000D03*
X142200000Y-97700000D03*
%TO.N,4051_READING_1*%
X142400000Y-95800000D03*
X157900000Y-81900000D03*
%TO.N,LINE_OUT_L*%
X166623150Y-98523150D03*
X165300000Y-95400000D03*
%TO.N,TRIGGER_OUT_3_EURO*%
X99400000Y-94100000D03*
X96699312Y-94099312D03*
%TO.N,TRIGGER_OUT_4_EURO*%
X97400000Y-93200000D03*
X111700000Y-93200000D03*
%TO.N,SYNC_IN_EURO*%
X89600000Y-115449500D03*
%TO.N,SYNC_OUT_EURO*%
X88400000Y-112500000D03*
%TO.N,+3.3VDAC*%
X168400000Y-87400000D03*
X172800000Y-71200000D03*
X172900000Y-80900000D03*
%TO.N,LINE_OUT_R*%
X184400000Y-104175500D03*
X184400000Y-107324500D03*
X166399503Y-94399503D03*
X168023150Y-97123150D03*
%TO.N,+12V*%
X162200000Y-127100000D03*
X172100000Y-114800000D03*
X174500000Y-113000000D03*
%TO.N,-12V*%
X92100000Y-128200000D03*
X96300000Y-99200000D03*
X96000000Y-89700000D03*
X96100000Y-108900000D03*
%TO.N,+3.3V*%
X137200000Y-77600000D03*
X93200000Y-118500000D03*
X95200000Y-129200000D03*
X95100000Y-125300000D03*
%TO.N,TRIGGER_OUT_1*%
X108075500Y-90300000D03*
X110200000Y-91200000D03*
%TO.N,TRIGGER_OUT_4*%
X115200000Y-105200000D03*
X117400000Y-105200000D03*
%TO.N,TRIGGER_OUT_3*%
X112100000Y-100900000D03*
X107100000Y-99100000D03*
%TO.N,TRIGGER_OUT_2*%
X127100000Y-90500000D03*
%TD*%
D24*
%TO.N,SYNC_IN*%
X114800000Y-120100000D02*
X112600000Y-120100000D01*
%TO.N,595_DATA*%
X171200000Y-93000000D02*
X169900000Y-91700000D01*
X169900000Y-91700000D02*
X164300000Y-91700000D01*
X171200000Y-94974500D02*
X171200000Y-93000000D01*
%TO.N,595_CLOCK*%
X170200000Y-95200000D02*
X170200000Y-92636396D01*
X164975000Y-92425000D02*
X163900000Y-93500000D01*
X170200000Y-92636396D02*
X169713604Y-92150000D01*
X169438604Y-92425000D02*
X164975000Y-92425000D01*
X169713604Y-92150000D02*
X169438604Y-92425000D01*
%TO.N,595_LATCH*%
X164825497Y-93674503D02*
X164000000Y-94500000D01*
X167174503Y-93674503D02*
X164825497Y-93674503D01*
X169500000Y-96000000D02*
X167174503Y-93674503D01*
%TO.N,165_CLOCK*%
X84000000Y-91060000D02*
X85810500Y-91060000D01*
X85810500Y-91060000D02*
X94150500Y-99400000D01*
X97100000Y-101800000D02*
X108900000Y-101800000D01*
X147340000Y-115860000D02*
X151680000Y-115860000D01*
X147100000Y-116100000D02*
X147340000Y-115860000D01*
X108900000Y-101800000D02*
X110600000Y-103500000D01*
%TO.N,165_DATA*%
X90800000Y-100400000D02*
X84000000Y-93600000D01*
X94150500Y-100400000D02*
X90800000Y-100400000D01*
X96500000Y-102600000D02*
X96000000Y-102100000D01*
X108600000Y-102700000D02*
X108500000Y-102600000D01*
X109300000Y-103400000D02*
X108600000Y-102700000D01*
X108500000Y-102600000D02*
X96500000Y-102600000D01*
%TO.N,SYNC_OUT*%
X117400000Y-112600000D02*
X117500000Y-112700000D01*
X108025500Y-111700000D02*
X108925500Y-112600000D01*
X108925500Y-112600000D02*
X117400000Y-112600000D01*
%TO.N,4051_ADDRESS_A*%
X140900000Y-106320000D02*
X133900000Y-113320000D01*
X140900000Y-89200000D02*
X140900000Y-106320000D01*
%TO.N,4051_ADDRESS_B*%
X140100000Y-88974695D02*
X140100000Y-106483604D01*
X155600000Y-81900000D02*
X155600000Y-83070000D01*
X140100000Y-106483604D02*
X135803604Y-110780000D01*
X135803604Y-110780000D02*
X133900000Y-110780000D01*
X155600000Y-83070000D02*
X154465000Y-84205000D01*
X154465000Y-84205000D02*
X144869695Y-84205000D01*
X144869695Y-84205000D02*
X140100000Y-88974695D01*
%TO.N,4051_ADDRESS_C*%
X141350000Y-107050000D02*
X139200000Y-109200000D01*
X141350000Y-95550000D02*
X141350000Y-107050000D01*
X154655000Y-86745000D02*
X150155000Y-86745000D01*
X156662299Y-84737701D02*
X154655000Y-86745000D01*
X156662299Y-81862299D02*
X156662299Y-84737701D01*
X150155000Y-86745000D02*
X141350000Y-95550000D01*
%TO.N,4051_READING_0*%
X148100000Y-91800000D02*
X142200000Y-97700000D01*
X159100000Y-81900000D02*
X159100000Y-87190000D01*
X159100000Y-87190000D02*
X154490000Y-91800000D01*
X154490000Y-91800000D02*
X148100000Y-91800000D01*
%TO.N,4051_READING_1*%
X157900000Y-85850000D02*
X154550000Y-89200000D01*
X157900000Y-81900000D02*
X157900000Y-85850000D01*
X154550000Y-89200000D02*
X149000000Y-89200000D01*
X149000000Y-89200000D02*
X142400000Y-95800000D01*
%TO.N,LINE_OUT_L*%
X165300000Y-95400000D02*
X165300000Y-97200000D01*
X165300000Y-97200000D02*
X166623150Y-98523150D01*
%TO.N,TRIGGER_OUT_3_EURO*%
X96699312Y-94099312D02*
X99399312Y-94099312D01*
X99399312Y-94099312D02*
X99400000Y-94100000D01*
%TO.N,TRIGGER_OUT_4_EURO*%
X97400000Y-93200000D02*
X111700000Y-93200000D01*
%TO.N,SYNC_IN_EURO*%
X84000000Y-106300000D02*
X89600000Y-111900000D01*
X89600000Y-111900000D02*
X89600000Y-115449500D01*
%TO.N,SYNC_OUT_EURO*%
X84000000Y-108840000D02*
X87660000Y-112500000D01*
X87660000Y-112500000D02*
X88400000Y-112500000D01*
D25*
%TO.N,+3.3VDAC*%
X172900000Y-77600000D02*
X172900000Y-71300000D01*
X172900000Y-80900000D02*
X168400000Y-85400000D01*
X172900000Y-80900000D02*
X172900000Y-77600000D01*
X172900000Y-71300000D02*
X172800000Y-71200000D01*
X168400000Y-85400000D02*
X168400000Y-87400000D01*
D24*
%TO.N,LINE_OUT_R*%
X166399503Y-94399503D02*
X166399503Y-95499503D01*
X184400000Y-104175500D02*
X184400000Y-107324500D01*
X166399503Y-95499503D02*
X168023150Y-97123150D01*
D25*
%TO.N,+12V*%
X174500000Y-113000000D02*
X173900000Y-113000000D01*
X173900000Y-113000000D02*
X172100000Y-114800000D01*
X181280000Y-127100000D02*
X162200000Y-127100000D01*
X196000000Y-112380000D02*
X181280000Y-127100000D01*
%TO.N,-12V*%
X96100000Y-113000000D02*
X96100000Y-108900000D01*
X84000000Y-119000000D02*
X90100000Y-119000000D01*
X96100000Y-108900000D02*
X96100000Y-108100000D01*
X95000000Y-88700000D02*
X95000000Y-88600000D01*
X95000000Y-97900000D02*
X95000000Y-107000000D01*
X90100000Y-119000000D02*
X96100000Y-113000000D01*
X95000000Y-88600000D02*
X95000000Y-97900000D01*
X96300000Y-99200000D02*
X95000000Y-97900000D01*
X95000000Y-67080000D02*
X95000000Y-88600000D01*
X92100000Y-128200000D02*
X92100000Y-127100000D01*
X96000000Y-89700000D02*
X95000000Y-88700000D01*
X96100000Y-108100000D02*
X95000000Y-107000000D01*
X92100000Y-127100000D02*
X84000000Y-119000000D01*
%TO.N,+3.3V*%
X94100000Y-125300000D02*
X93200000Y-124400000D01*
X93200000Y-124400000D02*
X93200000Y-118500000D01*
X95200000Y-129200000D02*
X93200000Y-127200000D01*
X133900000Y-85380000D02*
X137200000Y-82080000D01*
X137200000Y-82080000D02*
X137200000Y-77600000D01*
X93200000Y-127200000D02*
X93200000Y-124400000D01*
X95100000Y-125300000D02*
X94100000Y-125300000D01*
D24*
%TO.N,TRIGGER_OUT_1*%
X109300000Y-90300000D02*
X110200000Y-91200000D01*
X108075500Y-90300000D02*
X109300000Y-90300000D01*
%TO.N,TRIGGER_OUT_4*%
X115200000Y-105200000D02*
X117400000Y-105200000D01*
%TO.N,TRIGGER_OUT_3*%
X108900000Y-100900000D02*
X107100000Y-99100000D01*
X112100000Y-100900000D02*
X108900000Y-100900000D01*
%TO.N,TRIGGER_OUT_2*%
X127100000Y-90500000D02*
X127140000Y-90460000D01*
X127140000Y-90460000D02*
X133900000Y-90460000D01*
%TD*%
%TA.AperFunction,Conductor*%
%TO.N,GND*%
G36*
X199942539Y-50020185D02*
G01*
X199988294Y-50072989D01*
X199999500Y-50124500D01*
X199999500Y-129875500D01*
X199979815Y-129942539D01*
X199927011Y-129988294D01*
X199875500Y-129999500D01*
X95970378Y-129999500D01*
X95903339Y-129979815D01*
X95857584Y-129927011D01*
X95847640Y-129857853D01*
X95876665Y-129794297D01*
X95878228Y-129792528D01*
X95892599Y-129776566D01*
X95932533Y-129732216D01*
X96027179Y-129568284D01*
X96085674Y-129388256D01*
X96105460Y-129200000D01*
X96085674Y-129011744D01*
X96027179Y-128831716D01*
X96027179Y-128831715D01*
X95932533Y-128667783D01*
X95805870Y-128527110D01*
X95652730Y-128415848D01*
X95479802Y-128338855D01*
X95414670Y-128325011D01*
X95353188Y-128291819D01*
X95352770Y-128291402D01*
X94161368Y-127099999D01*
X161294540Y-127099999D01*
X161314326Y-127288257D01*
X161372820Y-127468284D01*
X161467466Y-127632216D01*
X161594129Y-127772889D01*
X161747269Y-127884151D01*
X161920197Y-127961144D01*
X162105352Y-128000500D01*
X162105354Y-128000500D01*
X162294648Y-128000500D01*
X162418084Y-127974262D01*
X162479803Y-127961144D01*
X162652730Y-127884151D01*
X162666449Y-127874183D01*
X162732256Y-127850702D01*
X162739337Y-127850500D01*
X181216294Y-127850500D01*
X181234264Y-127851809D01*
X181238320Y-127852402D01*
X181258023Y-127855289D01*
X181307368Y-127850972D01*
X181318176Y-127850500D01*
X181320100Y-127850500D01*
X181323709Y-127850500D01*
X181354550Y-127846894D01*
X181358031Y-127846539D01*
X181432797Y-127839999D01*
X181432797Y-127839998D01*
X181434052Y-127839889D01*
X181453062Y-127835674D01*
X181454250Y-127835241D01*
X181454255Y-127835241D01*
X181524820Y-127809557D01*
X181528095Y-127808419D01*
X181599334Y-127784814D01*
X181599336Y-127784812D01*
X181600536Y-127784415D01*
X181618063Y-127775929D01*
X181619112Y-127775238D01*
X181619117Y-127775237D01*
X181681806Y-127734005D01*
X181684798Y-127732099D01*
X181748656Y-127692712D01*
X181748656Y-127692711D01*
X181749729Y-127692050D01*
X181764824Y-127679753D01*
X181765692Y-127678832D01*
X181765696Y-127678830D01*
X181817185Y-127624253D01*
X181819631Y-127621735D01*
X183373602Y-126067764D01*
X194145787Y-126067764D01*
X194175413Y-126337016D01*
X194209998Y-126469304D01*
X194243928Y-126599088D01*
X194300289Y-126731716D01*
X194349871Y-126848392D01*
X194490982Y-127079611D01*
X194580253Y-127186881D01*
X194664255Y-127287820D01*
X194865998Y-127468582D01*
X195091910Y-127618044D01*
X195122142Y-127632216D01*
X195337177Y-127733021D01*
X195589635Y-127808974D01*
X195596569Y-127811060D01*
X195864561Y-127850500D01*
X195864564Y-127850500D01*
X196065369Y-127850500D01*
X196067631Y-127850500D01*
X196270156Y-127835677D01*
X196534553Y-127776780D01*
X196787558Y-127680014D01*
X197023777Y-127547441D01*
X197238177Y-127381888D01*
X197426186Y-127186881D01*
X197583799Y-126966579D01*
X197707656Y-126725675D01*
X197795118Y-126469305D01*
X197844319Y-126202933D01*
X197854212Y-125932235D01*
X197824586Y-125662982D01*
X197756072Y-125400912D01*
X197650130Y-125151610D01*
X197509018Y-124920390D01*
X197509017Y-124920388D01*
X197335746Y-124712181D01*
X197230759Y-124618112D01*
X197134002Y-124531418D01*
X196908090Y-124381956D01*
X196899700Y-124378023D01*
X196662822Y-124266978D01*
X196403437Y-124188941D01*
X196403431Y-124188940D01*
X196135439Y-124149500D01*
X195932369Y-124149500D01*
X195930120Y-124149664D01*
X195930109Y-124149665D01*
X195729843Y-124164322D01*
X195465449Y-124223219D01*
X195212441Y-124319986D01*
X194976223Y-124452559D01*
X194761825Y-124618109D01*
X194573813Y-124813120D01*
X194416201Y-125033420D01*
X194292342Y-125274329D01*
X194204881Y-125530695D01*
X194155680Y-125797066D01*
X194145787Y-126067764D01*
X183373602Y-126067764D01*
X194446416Y-114994949D01*
X194507737Y-114961466D01*
X194577429Y-114966450D01*
X194633362Y-115008322D01*
X194657623Y-115071824D01*
X194664936Y-115155407D01*
X194709709Y-115322502D01*
X194726097Y-115383663D01*
X194825965Y-115597830D01*
X194961505Y-115791401D01*
X195128599Y-115958495D01*
X195314596Y-116088732D01*
X195358219Y-116143307D01*
X195365412Y-116212806D01*
X195333890Y-116275160D01*
X195314595Y-116291880D01*
X195128919Y-116421892D01*
X194961890Y-116588921D01*
X194826400Y-116782421D01*
X194726569Y-116996507D01*
X194669364Y-117209999D01*
X194669364Y-117210000D01*
X195566314Y-117210000D01*
X195540507Y-117250156D01*
X195500000Y-117388111D01*
X195500000Y-117531889D01*
X195540507Y-117669844D01*
X195566314Y-117710000D01*
X194669364Y-117710000D01*
X194726569Y-117923492D01*
X194826399Y-118137576D01*
X194961893Y-118331081D01*
X195128918Y-118498106D01*
X195314595Y-118628119D01*
X195358219Y-118682696D01*
X195365412Y-118752195D01*
X195333890Y-118814549D01*
X195314595Y-118831269D01*
X195128595Y-118961508D01*
X194961505Y-119128598D01*
X194825965Y-119322170D01*
X194726097Y-119536336D01*
X194664936Y-119764592D01*
X194644340Y-120000000D01*
X194664936Y-120235407D01*
X194697158Y-120355659D01*
X194726097Y-120463663D01*
X194825965Y-120677830D01*
X194961505Y-120871401D01*
X195128599Y-121038495D01*
X195322170Y-121174035D01*
X195536337Y-121273903D01*
X195764592Y-121335063D01*
X196000000Y-121355659D01*
X196235408Y-121335063D01*
X196463663Y-121273903D01*
X196677830Y-121174035D01*
X196871401Y-121038495D01*
X197038495Y-120871401D01*
X197174035Y-120677830D01*
X197273903Y-120463663D01*
X197335063Y-120235408D01*
X197355659Y-120000000D01*
X197335063Y-119764592D01*
X197273903Y-119536337D01*
X197174035Y-119322171D01*
X197038495Y-119128599D01*
X196871401Y-118961505D01*
X196685402Y-118831267D01*
X196641780Y-118776692D01*
X196634587Y-118707193D01*
X196666109Y-118644839D01*
X196685405Y-118628119D01*
X196871078Y-118498109D01*
X197038106Y-118331081D01*
X197173600Y-118137576D01*
X197273430Y-117923492D01*
X197330636Y-117710000D01*
X196433686Y-117710000D01*
X196459493Y-117669844D01*
X196500000Y-117531889D01*
X196500000Y-117388111D01*
X196459493Y-117250156D01*
X196433686Y-117210000D01*
X197330636Y-117210000D01*
X197330635Y-117209999D01*
X197273430Y-116996507D01*
X197173599Y-116782421D01*
X197038109Y-116588921D01*
X196871081Y-116421893D01*
X196685404Y-116291880D01*
X196641780Y-116237303D01*
X196634587Y-116167804D01*
X196666109Y-116105450D01*
X196685399Y-116088734D01*
X196871401Y-115958495D01*
X197038495Y-115791401D01*
X197174035Y-115597830D01*
X197273903Y-115383663D01*
X197335063Y-115155408D01*
X197355659Y-114920000D01*
X197335063Y-114684592D01*
X197273903Y-114456337D01*
X197174035Y-114242171D01*
X197038495Y-114048599D01*
X196871401Y-113881505D01*
X196685839Y-113751573D01*
X196642215Y-113696997D01*
X196635023Y-113627498D01*
X196666545Y-113565144D01*
X196685831Y-113548432D01*
X196871401Y-113418495D01*
X197038495Y-113251401D01*
X197174035Y-113057830D01*
X197273903Y-112843663D01*
X197335063Y-112615408D01*
X197355659Y-112380000D01*
X197335063Y-112144592D01*
X197273903Y-111916337D01*
X197174035Y-111702171D01*
X197038495Y-111508599D01*
X196871401Y-111341505D01*
X196685839Y-111211573D01*
X196642215Y-111156997D01*
X196635023Y-111087498D01*
X196666545Y-111025144D01*
X196685831Y-111008432D01*
X196871401Y-110878495D01*
X197038495Y-110711401D01*
X197174035Y-110517830D01*
X197273903Y-110303663D01*
X197335063Y-110075408D01*
X197355659Y-109840000D01*
X197335063Y-109604592D01*
X197273903Y-109376337D01*
X197174035Y-109162171D01*
X197038495Y-108968599D01*
X196871401Y-108801505D01*
X196685839Y-108671573D01*
X196642215Y-108616997D01*
X196635023Y-108547498D01*
X196666545Y-108485144D01*
X196685831Y-108468432D01*
X196871401Y-108338495D01*
X197038495Y-108171401D01*
X197174035Y-107977830D01*
X197273903Y-107763663D01*
X197335063Y-107535408D01*
X197355659Y-107300000D01*
X197335063Y-107064592D01*
X197273903Y-106836337D01*
X197174035Y-106622171D01*
X197038495Y-106428599D01*
X196871401Y-106261505D01*
X196685839Y-106131573D01*
X196642215Y-106076997D01*
X196635023Y-106007498D01*
X196666545Y-105945144D01*
X196685831Y-105928432D01*
X196871401Y-105798495D01*
X197038495Y-105631401D01*
X197174035Y-105437830D01*
X197273903Y-105223663D01*
X197335063Y-104995408D01*
X197355659Y-104760000D01*
X197339429Y-104574500D01*
X197335063Y-104524592D01*
X197311815Y-104437830D01*
X197273903Y-104296337D01*
X197174035Y-104082171D01*
X197038495Y-103888599D01*
X196871401Y-103721505D01*
X196685839Y-103591573D01*
X196642215Y-103536997D01*
X196635023Y-103467498D01*
X196666545Y-103405144D01*
X196685831Y-103388432D01*
X196871401Y-103258495D01*
X197038495Y-103091401D01*
X197174035Y-102897830D01*
X197273903Y-102683663D01*
X197335063Y-102455408D01*
X197355659Y-102220000D01*
X197335063Y-101984592D01*
X197273903Y-101756337D01*
X197174035Y-101542171D01*
X197038495Y-101348599D01*
X196871401Y-101181505D01*
X196685839Y-101051573D01*
X196642215Y-100996997D01*
X196635023Y-100927498D01*
X196666545Y-100865144D01*
X196685831Y-100848432D01*
X196871401Y-100718495D01*
X197038495Y-100551401D01*
X197174035Y-100357830D01*
X197273903Y-100143663D01*
X197335063Y-99915408D01*
X197355659Y-99680000D01*
X197335063Y-99444592D01*
X197273903Y-99216337D01*
X197174035Y-99002171D01*
X197038495Y-98808599D01*
X196871401Y-98641505D01*
X196685839Y-98511573D01*
X196642215Y-98456997D01*
X196635023Y-98387498D01*
X196666545Y-98325144D01*
X196685831Y-98308432D01*
X196871401Y-98178495D01*
X197038495Y-98011401D01*
X197174035Y-97817830D01*
X197273903Y-97603663D01*
X197335063Y-97375408D01*
X197355659Y-97140000D01*
X197352532Y-97104264D01*
X197335063Y-96904592D01*
X197329629Y-96884311D01*
X197273903Y-96676337D01*
X197174035Y-96462171D01*
X197038495Y-96268599D01*
X196871401Y-96101505D01*
X196685839Y-95971573D01*
X196642215Y-95916997D01*
X196635023Y-95847498D01*
X196666545Y-95785144D01*
X196685831Y-95768432D01*
X196871401Y-95638495D01*
X197038495Y-95471401D01*
X197174035Y-95277830D01*
X197273903Y-95063663D01*
X197335063Y-94835408D01*
X197355659Y-94600000D01*
X197350309Y-94538856D01*
X197335063Y-94364592D01*
X197324029Y-94323412D01*
X197273903Y-94136337D01*
X197174035Y-93922171D01*
X197038495Y-93728599D01*
X196871401Y-93561505D01*
X196685839Y-93431573D01*
X196642215Y-93376997D01*
X196635023Y-93307498D01*
X196666545Y-93245144D01*
X196685831Y-93228432D01*
X196871401Y-93098495D01*
X197038495Y-92931401D01*
X197174035Y-92737830D01*
X197273903Y-92523663D01*
X197335063Y-92295408D01*
X197355659Y-92060000D01*
X197335063Y-91824592D01*
X197273903Y-91596337D01*
X197174035Y-91382171D01*
X197038495Y-91188599D01*
X196871401Y-91021505D01*
X196685839Y-90891573D01*
X196642215Y-90836997D01*
X196635023Y-90767498D01*
X196666545Y-90705144D01*
X196685831Y-90688432D01*
X196871401Y-90558495D01*
X197038495Y-90391401D01*
X197174035Y-90197830D01*
X197273903Y-89983663D01*
X197335063Y-89755408D01*
X197355659Y-89520000D01*
X197335063Y-89284592D01*
X197273903Y-89056337D01*
X197174035Y-88842171D01*
X197038495Y-88648599D01*
X196871401Y-88481505D01*
X196685839Y-88351573D01*
X196642215Y-88296997D01*
X196635023Y-88227498D01*
X196666545Y-88165144D01*
X196685831Y-88148432D01*
X196871401Y-88018495D01*
X197038495Y-87851401D01*
X197174035Y-87657830D01*
X197273903Y-87443663D01*
X197335063Y-87215408D01*
X197355659Y-86980000D01*
X197335063Y-86744592D01*
X197273903Y-86516337D01*
X197174035Y-86302171D01*
X197038495Y-86108599D01*
X196871401Y-85941505D01*
X196685839Y-85811573D01*
X196642215Y-85756997D01*
X196635023Y-85687498D01*
X196666545Y-85625144D01*
X196685831Y-85608432D01*
X196871401Y-85478495D01*
X197038495Y-85311401D01*
X197174035Y-85117830D01*
X197273903Y-84903663D01*
X197335063Y-84675408D01*
X197355659Y-84440000D01*
X197335063Y-84204592D01*
X197273903Y-83976337D01*
X197174035Y-83762171D01*
X197038495Y-83568599D01*
X196871401Y-83401505D01*
X196685839Y-83271573D01*
X196642215Y-83216997D01*
X196635023Y-83147498D01*
X196666545Y-83085144D01*
X196685831Y-83068432D01*
X196871401Y-82938495D01*
X197038495Y-82771401D01*
X197174035Y-82577830D01*
X197273903Y-82363663D01*
X197335063Y-82135408D01*
X197355659Y-81900000D01*
X197344732Y-81775112D01*
X197335063Y-81664592D01*
X197325529Y-81629010D01*
X197273903Y-81436337D01*
X197174035Y-81222171D01*
X197038495Y-81028599D01*
X196871401Y-80861505D01*
X196685839Y-80731573D01*
X196642215Y-80676997D01*
X196635023Y-80607498D01*
X196666545Y-80545144D01*
X196685831Y-80528432D01*
X196871401Y-80398495D01*
X197038495Y-80231401D01*
X197174035Y-80037830D01*
X197273903Y-79823663D01*
X197335063Y-79595408D01*
X197355659Y-79360000D01*
X197335063Y-79124592D01*
X197273903Y-78896337D01*
X197174035Y-78682171D01*
X197038495Y-78488599D01*
X196916569Y-78366672D01*
X196883084Y-78305350D01*
X196888068Y-78235658D01*
X196929940Y-78179725D01*
X196960915Y-78162810D01*
X197092331Y-78113796D01*
X197207546Y-78027546D01*
X197293796Y-77912331D01*
X197344091Y-77777483D01*
X197350500Y-77717873D01*
X197350499Y-75922128D01*
X197344091Y-75862517D01*
X197293796Y-75727669D01*
X197207546Y-75612454D01*
X197092331Y-75526204D01*
X196957483Y-75475909D01*
X196897873Y-75469500D01*
X196894550Y-75469500D01*
X195105439Y-75469500D01*
X195105420Y-75469500D01*
X195102128Y-75469501D01*
X195098848Y-75469853D01*
X195098840Y-75469854D01*
X195042515Y-75475909D01*
X194907669Y-75526204D01*
X194792454Y-75612454D01*
X194706204Y-75727668D01*
X194655910Y-75862515D01*
X194655909Y-75862517D01*
X194649500Y-75922127D01*
X194649500Y-75925448D01*
X194649500Y-75925449D01*
X194649500Y-77714560D01*
X194649500Y-77714578D01*
X194649501Y-77717872D01*
X194649853Y-77721152D01*
X194649854Y-77721159D01*
X194655909Y-77777484D01*
X194659927Y-77788256D01*
X194706204Y-77912331D01*
X194792454Y-78027546D01*
X194907669Y-78113796D01*
X195019907Y-78155658D01*
X195039082Y-78162810D01*
X195095016Y-78204681D01*
X195119433Y-78270146D01*
X195104581Y-78338419D01*
X195083431Y-78366673D01*
X194961503Y-78488601D01*
X194825965Y-78682170D01*
X194726097Y-78896336D01*
X194664936Y-79124592D01*
X194644340Y-79360000D01*
X194664936Y-79595407D01*
X194696942Y-79714855D01*
X194726097Y-79823663D01*
X194825965Y-80037830D01*
X194961505Y-80231401D01*
X195128599Y-80398495D01*
X195314160Y-80528426D01*
X195357783Y-80583002D01*
X195364976Y-80652501D01*
X195333454Y-80714855D01*
X195314159Y-80731575D01*
X195128595Y-80861508D01*
X194961505Y-81028598D01*
X194825965Y-81222170D01*
X194726097Y-81436336D01*
X194664936Y-81664592D01*
X194644340Y-81900000D01*
X194664936Y-82135407D01*
X194701422Y-82271574D01*
X194726097Y-82363663D01*
X194825965Y-82577830D01*
X194961505Y-82771401D01*
X195128599Y-82938495D01*
X195314160Y-83068426D01*
X195357783Y-83123002D01*
X195364976Y-83192501D01*
X195333454Y-83254855D01*
X195314159Y-83271575D01*
X195128595Y-83401508D01*
X194961505Y-83568598D01*
X194825965Y-83762170D01*
X194726097Y-83976336D01*
X194664936Y-84204592D01*
X194644340Y-84439999D01*
X194664936Y-84675407D01*
X194706493Y-84830500D01*
X194726097Y-84903663D01*
X194825965Y-85117830D01*
X194961505Y-85311401D01*
X195128599Y-85478495D01*
X195314160Y-85608426D01*
X195357783Y-85663002D01*
X195364976Y-85732501D01*
X195333454Y-85794855D01*
X195314159Y-85811575D01*
X195128595Y-85941508D01*
X194961505Y-86108598D01*
X194825965Y-86302170D01*
X194726097Y-86516336D01*
X194664936Y-86744592D01*
X194644340Y-86980000D01*
X194664936Y-87215407D01*
X194696942Y-87334855D01*
X194726097Y-87443663D01*
X194825965Y-87657830D01*
X194961505Y-87851401D01*
X195128599Y-88018495D01*
X195314160Y-88148426D01*
X195357783Y-88203002D01*
X195364976Y-88272501D01*
X195333454Y-88334855D01*
X195314160Y-88351574D01*
X195182948Y-88443450D01*
X195128595Y-88481508D01*
X194961505Y-88648598D01*
X194825965Y-88842170D01*
X194726097Y-89056336D01*
X194664936Y-89284592D01*
X194644340Y-89520000D01*
X194664936Y-89755407D01*
X194709709Y-89922502D01*
X194726097Y-89983663D01*
X194825965Y-90197830D01*
X194961505Y-90391401D01*
X195128599Y-90558495D01*
X195314160Y-90688426D01*
X195357783Y-90743002D01*
X195364976Y-90812501D01*
X195333454Y-90874855D01*
X195314160Y-90891574D01*
X195198035Y-90972886D01*
X195128595Y-91021508D01*
X194961505Y-91188598D01*
X194825965Y-91382170D01*
X194726097Y-91596336D01*
X194664936Y-91824592D01*
X194644340Y-92059999D01*
X194664936Y-92295407D01*
X194699919Y-92425965D01*
X194726097Y-92523663D01*
X194825965Y-92737830D01*
X194961505Y-92931401D01*
X195128599Y-93098495D01*
X195314160Y-93228426D01*
X195357783Y-93283002D01*
X195364976Y-93352501D01*
X195333454Y-93414855D01*
X195314159Y-93431575D01*
X195128595Y-93561508D01*
X194961505Y-93728598D01*
X194825965Y-93922170D01*
X194726097Y-94136336D01*
X194664936Y-94364592D01*
X194644340Y-94600000D01*
X194664936Y-94835407D01*
X194690742Y-94931716D01*
X194726097Y-95063663D01*
X194825965Y-95277830D01*
X194961505Y-95471401D01*
X195128599Y-95638495D01*
X195314160Y-95768426D01*
X195357783Y-95823002D01*
X195364976Y-95892501D01*
X195333454Y-95954855D01*
X195314160Y-95971574D01*
X195135522Y-96096658D01*
X195128595Y-96101508D01*
X194961505Y-96268598D01*
X194825965Y-96462170D01*
X194726097Y-96676336D01*
X194664936Y-96904592D01*
X194644340Y-97139999D01*
X194664936Y-97375407D01*
X194696942Y-97494855D01*
X194726097Y-97603663D01*
X194825965Y-97817830D01*
X194961505Y-98011401D01*
X195128599Y-98178495D01*
X195314160Y-98308426D01*
X195357783Y-98363002D01*
X195364976Y-98432501D01*
X195333454Y-98494855D01*
X195314160Y-98511574D01*
X195187161Y-98600500D01*
X195128595Y-98641508D01*
X194961505Y-98808598D01*
X194825965Y-99002170D01*
X194726097Y-99216336D01*
X194664936Y-99444592D01*
X194644340Y-99680000D01*
X194664936Y-99915407D01*
X194709709Y-100082502D01*
X194726097Y-100143663D01*
X194825965Y-100357830D01*
X194961505Y-100551401D01*
X195128599Y-100718495D01*
X195314160Y-100848426D01*
X195357783Y-100903002D01*
X195364976Y-100972501D01*
X195333454Y-101034855D01*
X195314160Y-101051574D01*
X195166717Y-101154815D01*
X195128595Y-101181508D01*
X194961505Y-101348598D01*
X194825965Y-101542170D01*
X194726097Y-101756336D01*
X194664936Y-101984592D01*
X194644340Y-102220000D01*
X194664936Y-102455407D01*
X194686798Y-102536997D01*
X194726097Y-102683663D01*
X194825965Y-102897830D01*
X194961505Y-103091401D01*
X195128599Y-103258495D01*
X195314160Y-103388426D01*
X195357783Y-103443002D01*
X195364976Y-103512501D01*
X195333454Y-103574855D01*
X195314159Y-103591575D01*
X195128595Y-103721508D01*
X194961505Y-103888598D01*
X194825965Y-104082170D01*
X194726097Y-104296336D01*
X194664936Y-104524592D01*
X194644340Y-104759999D01*
X194664936Y-104995407D01*
X194686798Y-105076997D01*
X194726097Y-105223663D01*
X194825965Y-105437830D01*
X194961505Y-105631401D01*
X195128599Y-105798495D01*
X195314160Y-105928426D01*
X195357783Y-105983002D01*
X195364976Y-106052501D01*
X195333454Y-106114855D01*
X195314159Y-106131575D01*
X195128595Y-106261508D01*
X194961505Y-106428598D01*
X194825965Y-106622170D01*
X194726097Y-106836336D01*
X194664936Y-107064592D01*
X194644340Y-107300000D01*
X194664936Y-107535407D01*
X194708157Y-107696708D01*
X194726097Y-107763663D01*
X194825965Y-107977830D01*
X194961505Y-108171401D01*
X195128599Y-108338495D01*
X195314160Y-108468426D01*
X195357783Y-108523002D01*
X195364976Y-108592501D01*
X195333454Y-108654855D01*
X195314160Y-108671574D01*
X195198732Y-108752398D01*
X195128595Y-108801508D01*
X194961505Y-108968598D01*
X194825965Y-109162170D01*
X194726097Y-109376336D01*
X194664936Y-109604592D01*
X194644340Y-109839999D01*
X194664936Y-110075407D01*
X194685370Y-110151666D01*
X194726097Y-110303663D01*
X194825965Y-110517830D01*
X194961505Y-110711401D01*
X195128599Y-110878495D01*
X195314160Y-111008426D01*
X195357783Y-111063002D01*
X195364976Y-111132501D01*
X195333454Y-111194855D01*
X195314160Y-111211574D01*
X195181874Y-111304202D01*
X195128595Y-111341508D01*
X194961505Y-111508598D01*
X194825965Y-111702170D01*
X194726097Y-111916336D01*
X194664936Y-112144592D01*
X194644340Y-112380000D01*
X194662977Y-112593013D01*
X194649210Y-112661513D01*
X194627130Y-112691501D01*
X181005451Y-126313181D01*
X180944128Y-126346666D01*
X180917770Y-126349500D01*
X162739337Y-126349500D01*
X162672298Y-126329815D01*
X162666450Y-126325817D01*
X162652728Y-126315847D01*
X162479802Y-126238855D01*
X162294648Y-126199500D01*
X162294646Y-126199500D01*
X162105354Y-126199500D01*
X162105352Y-126199500D01*
X161920197Y-126238855D01*
X161747269Y-126315848D01*
X161594129Y-126427110D01*
X161467466Y-126567783D01*
X161372820Y-126731715D01*
X161314326Y-126911742D01*
X161294540Y-127099999D01*
X94161368Y-127099999D01*
X93986819Y-126925450D01*
X93953334Y-126864127D01*
X93950500Y-126837769D01*
X93950500Y-126175611D01*
X93970185Y-126108572D01*
X94022989Y-126062817D01*
X94070893Y-126051663D01*
X94105877Y-126050646D01*
X94109113Y-126050552D01*
X94112716Y-126050500D01*
X94560663Y-126050500D01*
X94627702Y-126070185D01*
X94633550Y-126074183D01*
X94647271Y-126084152D01*
X94820197Y-126161144D01*
X95005352Y-126200500D01*
X95005354Y-126200500D01*
X95194648Y-126200500D01*
X95318084Y-126174262D01*
X95379803Y-126161144D01*
X95552730Y-126084151D01*
X95571953Y-126070185D01*
X95705870Y-125972889D01*
X95728396Y-125947872D01*
X95832533Y-125832216D01*
X95927179Y-125668284D01*
X95985674Y-125488256D01*
X96005460Y-125300000D01*
X95985674Y-125111744D01*
X95927179Y-124931716D01*
X95927179Y-124931715D01*
X95832533Y-124767783D01*
X95705870Y-124627110D01*
X95552730Y-124515848D01*
X95379802Y-124438855D01*
X95194648Y-124399500D01*
X95194646Y-124399500D01*
X95005354Y-124399500D01*
X95005352Y-124399500D01*
X94820197Y-124438855D01*
X94647271Y-124515847D01*
X94633550Y-124525817D01*
X94567744Y-124549298D01*
X94560663Y-124549500D01*
X94462230Y-124549500D01*
X94395191Y-124529815D01*
X94374549Y-124513181D01*
X93986819Y-124125451D01*
X93953334Y-124064128D01*
X93950500Y-124037770D01*
X93950500Y-120100000D01*
X111694540Y-120100000D01*
X111714326Y-120288257D01*
X111772820Y-120468284D01*
X111867466Y-120632216D01*
X111994129Y-120772889D01*
X112147269Y-120884151D01*
X112320197Y-120961144D01*
X112505352Y-121000500D01*
X112505354Y-121000500D01*
X112694648Y-121000500D01*
X112818083Y-120974262D01*
X112879803Y-120961144D01*
X113052730Y-120884151D01*
X113205871Y-120772888D01*
X113211598Y-120766527D01*
X113271084Y-120729879D01*
X113303747Y-120725500D01*
X114096253Y-120725500D01*
X114163292Y-120745185D01*
X114188400Y-120766526D01*
X114194129Y-120772888D01*
X114347270Y-120884151D01*
X114347271Y-120884151D01*
X114347272Y-120884152D01*
X114520197Y-120961144D01*
X114705352Y-121000500D01*
X114705354Y-121000500D01*
X114894648Y-121000500D01*
X115018083Y-120974262D01*
X115079803Y-120961144D01*
X115252730Y-120884151D01*
X115405871Y-120772888D01*
X115532533Y-120632216D01*
X115627179Y-120468284D01*
X115685674Y-120288256D01*
X115705460Y-120100000D01*
X115685674Y-119911744D01*
X115637861Y-119764592D01*
X115627179Y-119731715D01*
X115532533Y-119567783D01*
X115405870Y-119427110D01*
X115252730Y-119315848D01*
X115079802Y-119238855D01*
X114894648Y-119199500D01*
X114894646Y-119199500D01*
X114705354Y-119199500D01*
X114705352Y-119199500D01*
X114520197Y-119238855D01*
X114347272Y-119315847D01*
X114245175Y-119390024D01*
X114194129Y-119427112D01*
X114188401Y-119433472D01*
X114128916Y-119470121D01*
X114096253Y-119474500D01*
X113303747Y-119474500D01*
X113236708Y-119454815D01*
X113211599Y-119433473D01*
X113205871Y-119427112D01*
X113052730Y-119315849D01*
X113052729Y-119315848D01*
X113052727Y-119315847D01*
X112879802Y-119238855D01*
X112694648Y-119199500D01*
X112694646Y-119199500D01*
X112505354Y-119199500D01*
X112505352Y-119199500D01*
X112320197Y-119238855D01*
X112147269Y-119315848D01*
X111994129Y-119427110D01*
X111867466Y-119567783D01*
X111772820Y-119731715D01*
X111714326Y-119911742D01*
X111694540Y-120100000D01*
X93950500Y-120100000D01*
X93950500Y-119034321D01*
X93967113Y-118972321D01*
X94012117Y-118894373D01*
X94027179Y-118868284D01*
X94085674Y-118688256D01*
X94105460Y-118500000D01*
X94085674Y-118311744D01*
X94027179Y-118131716D01*
X94027179Y-118131715D01*
X93932533Y-117967783D01*
X93805870Y-117827110D01*
X93652730Y-117715848D01*
X93479802Y-117638855D01*
X93294648Y-117599500D01*
X93294646Y-117599500D01*
X93105354Y-117599500D01*
X93105352Y-117599500D01*
X92920199Y-117638854D01*
X92814550Y-117685893D01*
X92745300Y-117695177D01*
X92682024Y-117665549D01*
X92644811Y-117606414D01*
X92645476Y-117536547D01*
X92676433Y-117484933D01*
X96585638Y-113575727D01*
X96599256Y-113563957D01*
X96618530Y-113549610D01*
X96650372Y-113511661D01*
X96657686Y-113503681D01*
X96658267Y-113503099D01*
X96661590Y-113499777D01*
X96680837Y-113475433D01*
X96683031Y-113472738D01*
X96731302Y-113415214D01*
X96731303Y-113415210D01*
X96732119Y-113414239D01*
X96742575Y-113397825D01*
X96743109Y-113396679D01*
X96743111Y-113396677D01*
X96774816Y-113328682D01*
X96776369Y-113325475D01*
X96810040Y-113258433D01*
X96810040Y-113258429D01*
X96810610Y-113257296D01*
X96816999Y-113238917D01*
X96817256Y-113237673D01*
X96832431Y-113164171D01*
X96833186Y-113160767D01*
X96850500Y-113087721D01*
X96850500Y-113087717D01*
X96850790Y-113086494D01*
X96852769Y-113067123D01*
X96852732Y-113065859D01*
X96852733Y-113065856D01*
X96850552Y-112990888D01*
X96850500Y-112987283D01*
X96850500Y-111700000D01*
X107120040Y-111700000D01*
X107139826Y-111888257D01*
X107198320Y-112068284D01*
X107292966Y-112232216D01*
X107419629Y-112372889D01*
X107572769Y-112484151D01*
X107745697Y-112561144D01*
X107930852Y-112600500D01*
X107930854Y-112600500D01*
X107990047Y-112600500D01*
X108057086Y-112620185D01*
X108077728Y-112636819D01*
X108424696Y-112983787D01*
X108437596Y-112999888D01*
X108488723Y-113047900D01*
X108491520Y-113050611D01*
X108511029Y-113070120D01*
X108514209Y-113072587D01*
X108523071Y-113080155D01*
X108549993Y-113105437D01*
X108554918Y-113110062D01*
X108572470Y-113119711D01*
X108588738Y-113130397D01*
X108604564Y-113142673D01*
X108644646Y-113160017D01*
X108655133Y-113165155D01*
X108693407Y-113186197D01*
X108701427Y-113188256D01*
X108712808Y-113191178D01*
X108731213Y-113197478D01*
X108749604Y-113205437D01*
X108792750Y-113212270D01*
X108804168Y-113214635D01*
X108846481Y-113225500D01*
X108866516Y-113225500D01*
X108885915Y-113227027D01*
X108905696Y-113230160D01*
X108949174Y-113226050D01*
X108960844Y-113225500D01*
X116706212Y-113225500D01*
X116773251Y-113245185D01*
X116798362Y-113266528D01*
X116894129Y-113372889D01*
X117047269Y-113484151D01*
X117220197Y-113561144D01*
X117405352Y-113600500D01*
X117405354Y-113600500D01*
X117594648Y-113600500D01*
X117766606Y-113563949D01*
X117779803Y-113561144D01*
X117952730Y-113484151D01*
X118097497Y-113378972D01*
X118105870Y-113372889D01*
X118218606Y-113247684D01*
X118232533Y-113232216D01*
X118327179Y-113068284D01*
X118385674Y-112888256D01*
X118405460Y-112700000D01*
X118385674Y-112511744D01*
X118327179Y-112331716D01*
X118327179Y-112331715D01*
X118232533Y-112167783D01*
X118105870Y-112027110D01*
X117952730Y-111915848D01*
X117779802Y-111838855D01*
X117594648Y-111799500D01*
X117594646Y-111799500D01*
X117405354Y-111799500D01*
X117405352Y-111799500D01*
X117220197Y-111838855D01*
X117047273Y-111915847D01*
X117047270Y-111915848D01*
X117047270Y-111915849D01*
X116999137Y-111950818D01*
X116933333Y-111974298D01*
X116926254Y-111974500D01*
X109235953Y-111974500D01*
X109168914Y-111954815D01*
X109148272Y-111938181D01*
X108964460Y-111754369D01*
X108930975Y-111693046D01*
X108928823Y-111679668D01*
X108911174Y-111511744D01*
X108868368Y-111380000D01*
X108852679Y-111331715D01*
X108758033Y-111167783D01*
X108631370Y-111027110D01*
X108478230Y-110915848D01*
X108305302Y-110838855D01*
X108120148Y-110799500D01*
X108120146Y-110799500D01*
X107930854Y-110799500D01*
X107930852Y-110799500D01*
X107745697Y-110838855D01*
X107572769Y-110915848D01*
X107419629Y-111027110D01*
X107292966Y-111167783D01*
X107198320Y-111331715D01*
X107139826Y-111511742D01*
X107120040Y-111700000D01*
X96850500Y-111700000D01*
X96850500Y-109434321D01*
X96867113Y-109372321D01*
X96906754Y-109303662D01*
X96927179Y-109268284D01*
X96985674Y-109088256D01*
X97005460Y-108900000D01*
X96985674Y-108711744D01*
X96927179Y-108531716D01*
X96927179Y-108531715D01*
X96867113Y-108427677D01*
X96850500Y-108365677D01*
X96850500Y-108163705D01*
X96851809Y-108145735D01*
X96852004Y-108144402D01*
X96855289Y-108121977D01*
X96850970Y-108072623D01*
X96850499Y-108061804D01*
X96850500Y-108056291D01*
X96846903Y-108025520D01*
X96846536Y-108021929D01*
X96841871Y-107968599D01*
X96839999Y-107947203D01*
X96839998Y-107947201D01*
X96839889Y-107945949D01*
X96835672Y-107926930D01*
X96809592Y-107855274D01*
X96808408Y-107851868D01*
X96791719Y-107801505D01*
X96784814Y-107780666D01*
X96784812Y-107780663D01*
X96784415Y-107779464D01*
X96775929Y-107761936D01*
X96775237Y-107760884D01*
X96775237Y-107760883D01*
X96734001Y-107698188D01*
X96732086Y-107695181D01*
X96717526Y-107671575D01*
X96692712Y-107631345D01*
X96692711Y-107631344D01*
X96692048Y-107630269D01*
X96679748Y-107615170D01*
X96624273Y-107562832D01*
X96621686Y-107560319D01*
X95786819Y-106725451D01*
X95753334Y-106664128D01*
X95750500Y-106637770D01*
X95750500Y-105200000D01*
X114294540Y-105200000D01*
X114314326Y-105388257D01*
X114372820Y-105568284D01*
X114467466Y-105732216D01*
X114594129Y-105872889D01*
X114747269Y-105984151D01*
X114920197Y-106061144D01*
X115105352Y-106100500D01*
X115105354Y-106100500D01*
X115294648Y-106100500D01*
X115463581Y-106064592D01*
X115479803Y-106061144D01*
X115652730Y-105984151D01*
X115805871Y-105872888D01*
X115811598Y-105866527D01*
X115871084Y-105829879D01*
X115903747Y-105825500D01*
X116696253Y-105825500D01*
X116763292Y-105845185D01*
X116788400Y-105866526D01*
X116794129Y-105872888D01*
X116947270Y-105984151D01*
X116947271Y-105984151D01*
X116947272Y-105984152D01*
X117120197Y-106061144D01*
X117305352Y-106100500D01*
X117305354Y-106100500D01*
X117494648Y-106100500D01*
X117663581Y-106064592D01*
X117679803Y-106061144D01*
X117852730Y-105984151D01*
X118005871Y-105872888D01*
X118132533Y-105732216D01*
X118227179Y-105568284D01*
X118285674Y-105388256D01*
X118305460Y-105200000D01*
X118285674Y-105011744D01*
X118240979Y-104874187D01*
X118227179Y-104831715D01*
X118132533Y-104667783D01*
X118005870Y-104527110D01*
X117852730Y-104415848D01*
X117679802Y-104338855D01*
X117494648Y-104299500D01*
X117494646Y-104299500D01*
X117305354Y-104299500D01*
X117305352Y-104299500D01*
X117120197Y-104338855D01*
X116947272Y-104415847D01*
X116915043Y-104439263D01*
X116794129Y-104527112D01*
X116788401Y-104533472D01*
X116728916Y-104570121D01*
X116696253Y-104574500D01*
X115903747Y-104574500D01*
X115836708Y-104554815D01*
X115811599Y-104533473D01*
X115805871Y-104527112D01*
X115652730Y-104415849D01*
X115652729Y-104415848D01*
X115652727Y-104415847D01*
X115479802Y-104338855D01*
X115294648Y-104299500D01*
X115294646Y-104299500D01*
X115105354Y-104299500D01*
X115105352Y-104299500D01*
X114920197Y-104338855D01*
X114747269Y-104415848D01*
X114594129Y-104527110D01*
X114467466Y-104667783D01*
X114372820Y-104831715D01*
X114314326Y-105011742D01*
X114294540Y-105200000D01*
X95750500Y-105200000D01*
X95750500Y-103120712D01*
X95770185Y-103053673D01*
X95822989Y-103007918D01*
X95892147Y-102997974D01*
X95900281Y-102999422D01*
X95905353Y-103000500D01*
X95905354Y-103000500D01*
X95963652Y-103000500D01*
X96030691Y-103020185D01*
X96048536Y-103034108D01*
X96063239Y-103047915D01*
X96066036Y-103050626D01*
X96085530Y-103070120D01*
X96088615Y-103072513D01*
X96088701Y-103072580D01*
X96097573Y-103080158D01*
X96129418Y-103110062D01*
X96146970Y-103119711D01*
X96163238Y-103130397D01*
X96179064Y-103142673D01*
X96219148Y-103160018D01*
X96229628Y-103165152D01*
X96267908Y-103186197D01*
X96272754Y-103187441D01*
X96287313Y-103191180D01*
X96305716Y-103197480D01*
X96324105Y-103205438D01*
X96367254Y-103212271D01*
X96378680Y-103214638D01*
X96394222Y-103218629D01*
X96420980Y-103225500D01*
X96420981Y-103225500D01*
X96441016Y-103225500D01*
X96460413Y-103227026D01*
X96480196Y-103230160D01*
X96523674Y-103226050D01*
X96535344Y-103225500D01*
X108189547Y-103225500D01*
X108256586Y-103245185D01*
X108277229Y-103261819D01*
X108361039Y-103345630D01*
X108394523Y-103406954D01*
X108396678Y-103420349D01*
X108414326Y-103588257D01*
X108472820Y-103768284D01*
X108567466Y-103932216D01*
X108694129Y-104072889D01*
X108847269Y-104184151D01*
X109020197Y-104261144D01*
X109205352Y-104300500D01*
X109205354Y-104300500D01*
X109394648Y-104300500D01*
X109518083Y-104274262D01*
X109579803Y-104261144D01*
X109752730Y-104184151D01*
X109814466Y-104139296D01*
X109880271Y-104115816D01*
X109948325Y-104131641D01*
X109979501Y-104156642D01*
X109994130Y-104172889D01*
X110147269Y-104284151D01*
X110320197Y-104361144D01*
X110505352Y-104400500D01*
X110505354Y-104400500D01*
X110694648Y-104400500D01*
X110833481Y-104370990D01*
X110879803Y-104361144D01*
X111052730Y-104284151D01*
X111096527Y-104252331D01*
X111205870Y-104172889D01*
X111236117Y-104139297D01*
X111332533Y-104032216D01*
X111427179Y-103868284D01*
X111485674Y-103688256D01*
X111505460Y-103500000D01*
X111485674Y-103311744D01*
X111444881Y-103186197D01*
X111427179Y-103131715D01*
X111332533Y-102967783D01*
X111205870Y-102827110D01*
X111052730Y-102715848D01*
X110879802Y-102638855D01*
X110694648Y-102599500D01*
X110694646Y-102599500D01*
X110635452Y-102599500D01*
X110568413Y-102579815D01*
X110547771Y-102563181D01*
X109721772Y-101737181D01*
X109688287Y-101675858D01*
X109693271Y-101606166D01*
X109735143Y-101550233D01*
X109800607Y-101525816D01*
X109809453Y-101525500D01*
X111396253Y-101525500D01*
X111463292Y-101545185D01*
X111488400Y-101566526D01*
X111494129Y-101572888D01*
X111647270Y-101684151D01*
X111647271Y-101684151D01*
X111647272Y-101684152D01*
X111820197Y-101761144D01*
X112005352Y-101800500D01*
X112005354Y-101800500D01*
X112194648Y-101800500D01*
X112318083Y-101774262D01*
X112379803Y-101761144D01*
X112552730Y-101684151D01*
X112699545Y-101577484D01*
X112705870Y-101572889D01*
X112711598Y-101566528D01*
X112832533Y-101432216D01*
X112927179Y-101268284D01*
X112985674Y-101088256D01*
X113005460Y-100900000D01*
X112985674Y-100711744D01*
X112936703Y-100561027D01*
X112927179Y-100531715D01*
X112832533Y-100367783D01*
X112705870Y-100227110D01*
X112552730Y-100115848D01*
X112379802Y-100038855D01*
X112194648Y-99999500D01*
X112194646Y-99999500D01*
X112005354Y-99999500D01*
X112005352Y-99999500D01*
X111820197Y-100038855D01*
X111647272Y-100115847D01*
X111608987Y-100143663D01*
X111494129Y-100227112D01*
X111488401Y-100233472D01*
X111428916Y-100270121D01*
X111396253Y-100274500D01*
X109210453Y-100274500D01*
X109143414Y-100254815D01*
X109122772Y-100238181D01*
X108038960Y-99154369D01*
X108005475Y-99093046D01*
X108003323Y-99079668D01*
X107985674Y-98911744D01*
X107927179Y-98731716D01*
X107927179Y-98731715D01*
X107832533Y-98567783D01*
X107705870Y-98427110D01*
X107552730Y-98315848D01*
X107379802Y-98238855D01*
X107194648Y-98199500D01*
X107194646Y-98199500D01*
X107005354Y-98199500D01*
X107005352Y-98199500D01*
X106820197Y-98238855D01*
X106647269Y-98315848D01*
X106494129Y-98427110D01*
X106367466Y-98567783D01*
X106272820Y-98731715D01*
X106214326Y-98911742D01*
X106194540Y-99100000D01*
X106214326Y-99288257D01*
X106272820Y-99468284D01*
X106367466Y-99632216D01*
X106494129Y-99772889D01*
X106647269Y-99884151D01*
X106820197Y-99961144D01*
X107005352Y-100000500D01*
X107005354Y-100000500D01*
X107064548Y-100000500D01*
X107131587Y-100020185D01*
X107152229Y-100036819D01*
X108078228Y-100962819D01*
X108111713Y-101024142D01*
X108106729Y-101093834D01*
X108064857Y-101149767D01*
X107999393Y-101174184D01*
X107990547Y-101174500D01*
X97803747Y-101174500D01*
X97736708Y-101154815D01*
X97711599Y-101133473D01*
X97705871Y-101127112D01*
X97552730Y-101015849D01*
X97552729Y-101015848D01*
X97552727Y-101015847D01*
X97379802Y-100938855D01*
X97194648Y-100899500D01*
X97194646Y-100899500D01*
X97005354Y-100899500D01*
X97005352Y-100899500D01*
X96820197Y-100938855D01*
X96647269Y-101015848D01*
X96494129Y-101127111D01*
X96421255Y-101208045D01*
X96361768Y-101244693D01*
X96291911Y-101243362D01*
X96280260Y-101238952D01*
X96094648Y-101199500D01*
X96094646Y-101199500D01*
X95905354Y-101199500D01*
X95900278Y-101200578D01*
X95830613Y-101195262D01*
X95774880Y-101153124D01*
X95750775Y-101087544D01*
X95750500Y-101079288D01*
X95750500Y-100132009D01*
X95770185Y-100064970D01*
X95822989Y-100019215D01*
X95892147Y-100009271D01*
X95924930Y-100018728D01*
X95986105Y-100045965D01*
X96020199Y-100061145D01*
X96205352Y-100100500D01*
X96205354Y-100100500D01*
X96394648Y-100100500D01*
X96518083Y-100074262D01*
X96579803Y-100061144D01*
X96752730Y-99984151D01*
X96799735Y-99950000D01*
X96905870Y-99872889D01*
X96927899Y-99848424D01*
X97032533Y-99732216D01*
X97127179Y-99568284D01*
X97185674Y-99388256D01*
X97205460Y-99200000D01*
X97185674Y-99011744D01*
X97127179Y-98831716D01*
X97127179Y-98831715D01*
X97032533Y-98667783D01*
X96905870Y-98527110D01*
X96752730Y-98415848D01*
X96579803Y-98338855D01*
X96514669Y-98325011D01*
X96453187Y-98291819D01*
X96452769Y-98291402D01*
X95786819Y-97625451D01*
X95753334Y-97564128D01*
X95750500Y-97537770D01*
X95750500Y-96129272D01*
X95750500Y-94714353D01*
X95770184Y-94647318D01*
X95822987Y-94601563D01*
X95892146Y-94591619D01*
X95955702Y-94620644D01*
X95966649Y-94631384D01*
X95980996Y-94647318D01*
X96093441Y-94772200D01*
X96094596Y-94773039D01*
X96246581Y-94883463D01*
X96419509Y-94960456D01*
X96604664Y-94999812D01*
X96604666Y-94999812D01*
X96793960Y-94999812D01*
X96926804Y-94971575D01*
X96979115Y-94960456D01*
X97152042Y-94883463D01*
X97305183Y-94772200D01*
X97310910Y-94765839D01*
X97370396Y-94729191D01*
X97403059Y-94724812D01*
X98695633Y-94724812D01*
X98762672Y-94744497D01*
X98787783Y-94765840D01*
X98793508Y-94772198D01*
X98794130Y-94772889D01*
X98947269Y-94884151D01*
X99120197Y-94961144D01*
X99305352Y-95000500D01*
X99305354Y-95000500D01*
X99494648Y-95000500D01*
X99618083Y-94974262D01*
X99679803Y-94961144D01*
X99852730Y-94884151D01*
X99924901Y-94831716D01*
X100005870Y-94772889D01*
X100009890Y-94768425D01*
X100132533Y-94632216D01*
X100227179Y-94468284D01*
X100285674Y-94288256D01*
X100305460Y-94100000D01*
X100291004Y-93962459D01*
X100303574Y-93893732D01*
X100351306Y-93842708D01*
X100414325Y-93825500D01*
X110996253Y-93825500D01*
X111063292Y-93845185D01*
X111088400Y-93866526D01*
X111094129Y-93872888D01*
X111247270Y-93984151D01*
X111247271Y-93984151D01*
X111247272Y-93984152D01*
X111420197Y-94061144D01*
X111605352Y-94100500D01*
X111605354Y-94100500D01*
X111794648Y-94100500D01*
X111918083Y-94074262D01*
X111979803Y-94061144D01*
X112152730Y-93984151D01*
X112189590Y-93957371D01*
X112305870Y-93872889D01*
X112311598Y-93866528D01*
X112432533Y-93732216D01*
X112527179Y-93568284D01*
X112585674Y-93388256D01*
X112605460Y-93200000D01*
X112585674Y-93011744D01*
X112543560Y-92882131D01*
X112527179Y-92831715D01*
X112432533Y-92667783D01*
X112305870Y-92527110D01*
X112152730Y-92415848D01*
X111979802Y-92338855D01*
X111794648Y-92299500D01*
X111794646Y-92299500D01*
X111605354Y-92299500D01*
X111605352Y-92299500D01*
X111420197Y-92338855D01*
X111247272Y-92415847D01*
X111206892Y-92445185D01*
X111094129Y-92527112D01*
X111088401Y-92533472D01*
X111028916Y-92570121D01*
X110996253Y-92574500D01*
X98103747Y-92574500D01*
X98036708Y-92554815D01*
X98011599Y-92533473D01*
X98005871Y-92527112D01*
X97852730Y-92415849D01*
X97852729Y-92415848D01*
X97852727Y-92415847D01*
X97679802Y-92338855D01*
X97494648Y-92299500D01*
X97494646Y-92299500D01*
X97305354Y-92299500D01*
X97305352Y-92299500D01*
X97120197Y-92338855D01*
X96947269Y-92415848D01*
X96794129Y-92527110D01*
X96667466Y-92667783D01*
X96572820Y-92831715D01*
X96514326Y-93011742D01*
X96501498Y-93133797D01*
X96474913Y-93198411D01*
X96428613Y-93234114D01*
X96246581Y-93315160D01*
X96093441Y-93426423D01*
X95966648Y-93567239D01*
X95907161Y-93603887D01*
X95837304Y-93602556D01*
X95779256Y-93563669D01*
X95751447Y-93499572D01*
X95750500Y-93484282D01*
X95750500Y-90720712D01*
X95770185Y-90653673D01*
X95822989Y-90607918D01*
X95892147Y-90597974D01*
X95900281Y-90599422D01*
X95905353Y-90600500D01*
X95905354Y-90600500D01*
X96094648Y-90600500D01*
X96249500Y-90567585D01*
X96279803Y-90561144D01*
X96452730Y-90484151D01*
X96546740Y-90415849D01*
X96605870Y-90372889D01*
X96636515Y-90338855D01*
X96671501Y-90299999D01*
X107170040Y-90299999D01*
X107189826Y-90488257D01*
X107248320Y-90668284D01*
X107342966Y-90832216D01*
X107469629Y-90972889D01*
X107622769Y-91084151D01*
X107795697Y-91161144D01*
X107980852Y-91200500D01*
X107980854Y-91200500D01*
X108170148Y-91200500D01*
X108315501Y-91169604D01*
X108355303Y-91161144D01*
X108528230Y-91084151D01*
X108681371Y-90972888D01*
X108687098Y-90966527D01*
X108746584Y-90929879D01*
X108779247Y-90925500D01*
X108989548Y-90925500D01*
X109056587Y-90945185D01*
X109077229Y-90961819D01*
X109261038Y-91145629D01*
X109294523Y-91206952D01*
X109296678Y-91220348D01*
X109314326Y-91388257D01*
X109372820Y-91568284D01*
X109467466Y-91732216D01*
X109594129Y-91872889D01*
X109747269Y-91984151D01*
X109920197Y-92061144D01*
X110105352Y-92100500D01*
X110105354Y-92100500D01*
X110294648Y-92100500D01*
X110418084Y-92074262D01*
X110479803Y-92061144D01*
X110652730Y-91984151D01*
X110725330Y-91931404D01*
X110805870Y-91872889D01*
X110867245Y-91804726D01*
X110932533Y-91732216D01*
X111027179Y-91568284D01*
X111085674Y-91388256D01*
X111105460Y-91200000D01*
X111085674Y-91011744D01*
X111054515Y-90915847D01*
X111027179Y-90831715D01*
X110932533Y-90667783D01*
X110805870Y-90527110D01*
X110768556Y-90500000D01*
X126194540Y-90500000D01*
X126214326Y-90688257D01*
X126272820Y-90868284D01*
X126367466Y-91032216D01*
X126494129Y-91172889D01*
X126647269Y-91284151D01*
X126820197Y-91361144D01*
X127005352Y-91400500D01*
X127005354Y-91400500D01*
X127194648Y-91400500D01*
X127318084Y-91374262D01*
X127379803Y-91361144D01*
X127552730Y-91284151D01*
X127627428Y-91229880D01*
X127705870Y-91172889D01*
X127714510Y-91163294D01*
X127747613Y-91126528D01*
X127807101Y-91089879D01*
X127839764Y-91085500D01*
X130625501Y-91085500D01*
X130692540Y-91105185D01*
X130738295Y-91157989D01*
X130749500Y-91209499D01*
X130749501Y-91357872D01*
X130749853Y-91361144D01*
X130749854Y-91361159D01*
X130755909Y-91417484D01*
X130806203Y-91552329D01*
X130806204Y-91552331D01*
X130883890Y-91656106D01*
X130908307Y-91721569D01*
X130893456Y-91789842D01*
X130883890Y-91804726D01*
X130806648Y-91907908D01*
X130756400Y-92042628D01*
X130750354Y-92098867D01*
X130750000Y-92105481D01*
X130750000Y-92750000D01*
X133454428Y-92750000D01*
X133431318Y-92785960D01*
X133390000Y-92926673D01*
X133390000Y-93073327D01*
X133431318Y-93214040D01*
X133454428Y-93250000D01*
X130750000Y-93250000D01*
X130750000Y-93894518D01*
X130750354Y-93901132D01*
X130756400Y-93957371D01*
X130806647Y-94092089D01*
X130883890Y-94195272D01*
X130908307Y-94260737D01*
X130893455Y-94329010D01*
X130883890Y-94343894D01*
X130806204Y-94447668D01*
X130755909Y-94582516D01*
X130750566Y-94632216D01*
X130749500Y-94642127D01*
X130749500Y-94645448D01*
X130749500Y-94645449D01*
X130749500Y-96434560D01*
X130749500Y-96434578D01*
X130749501Y-96437872D01*
X130749853Y-96441152D01*
X130749854Y-96441159D01*
X130755909Y-96497484D01*
X130806204Y-96632332D01*
X130883577Y-96735690D01*
X130907994Y-96801154D01*
X130893142Y-96869427D01*
X130883577Y-96884310D01*
X130806205Y-96987666D01*
X130755909Y-97122516D01*
X130753958Y-97140667D01*
X130749500Y-97182127D01*
X130749500Y-97185448D01*
X130749500Y-97185449D01*
X130749500Y-98974560D01*
X130749500Y-98974578D01*
X130749501Y-98977872D01*
X130749853Y-98981152D01*
X130749854Y-98981159D01*
X130755909Y-99037484D01*
X130806204Y-99172332D01*
X130883577Y-99275690D01*
X130907994Y-99341154D01*
X130893142Y-99409427D01*
X130883577Y-99424310D01*
X130806205Y-99527666D01*
X130755910Y-99662515D01*
X130755909Y-99662517D01*
X130749500Y-99722127D01*
X130749500Y-99725448D01*
X130749500Y-99725449D01*
X130749500Y-101514560D01*
X130749500Y-101514578D01*
X130749501Y-101517872D01*
X130749853Y-101521152D01*
X130749854Y-101521159D01*
X130755909Y-101577484D01*
X130806204Y-101712332D01*
X130883577Y-101815690D01*
X130907994Y-101881154D01*
X130893142Y-101949427D01*
X130883577Y-101964310D01*
X130806205Y-102067666D01*
X130755910Y-102202515D01*
X130755909Y-102202517D01*
X130749500Y-102262127D01*
X130749500Y-102265448D01*
X130749500Y-102265449D01*
X130749500Y-104054560D01*
X130749500Y-104054578D01*
X130749501Y-104057872D01*
X130749853Y-104061152D01*
X130749854Y-104061159D01*
X130755909Y-104117484D01*
X130806203Y-104252329D01*
X130806204Y-104252331D01*
X130883890Y-104356106D01*
X130908307Y-104421569D01*
X130893456Y-104489842D01*
X130883890Y-104504726D01*
X130806648Y-104607908D01*
X130756400Y-104742628D01*
X130750354Y-104798867D01*
X130750000Y-104805481D01*
X130750000Y-105450000D01*
X133454428Y-105450000D01*
X133431318Y-105485960D01*
X133390000Y-105626673D01*
X133390000Y-105773327D01*
X133431318Y-105914040D01*
X133454428Y-105950000D01*
X130750000Y-105950000D01*
X130750000Y-106594518D01*
X130750354Y-106601132D01*
X130756400Y-106657371D01*
X130806647Y-106792089D01*
X130883890Y-106895272D01*
X130908307Y-106960737D01*
X130893455Y-107029010D01*
X130883890Y-107043894D01*
X130806204Y-107147668D01*
X130755909Y-107282516D01*
X130751951Y-107319334D01*
X130749500Y-107342127D01*
X130749500Y-107345448D01*
X130749500Y-107345449D01*
X130749500Y-109134560D01*
X130749500Y-109134578D01*
X130749501Y-109137872D01*
X130749853Y-109141152D01*
X130749854Y-109141159D01*
X130755909Y-109197484D01*
X130806204Y-109332332D01*
X130883577Y-109435690D01*
X130907994Y-109501154D01*
X130893142Y-109569427D01*
X130883577Y-109584310D01*
X130806205Y-109687666D01*
X130755910Y-109822515D01*
X130755909Y-109822517D01*
X130749500Y-109882127D01*
X130749500Y-109885448D01*
X130749500Y-109885449D01*
X130749500Y-111674560D01*
X130749500Y-111674578D01*
X130749501Y-111677872D01*
X130749853Y-111681152D01*
X130749854Y-111681159D01*
X130755909Y-111737484D01*
X130806204Y-111872332D01*
X130883577Y-111975690D01*
X130907994Y-112041154D01*
X130893142Y-112109427D01*
X130883577Y-112124310D01*
X130806205Y-112227666D01*
X130755909Y-112362516D01*
X130750256Y-112415099D01*
X130749500Y-112422127D01*
X130749500Y-112425448D01*
X130749500Y-112425449D01*
X130749500Y-114214560D01*
X130749500Y-114214578D01*
X130749501Y-114217872D01*
X130749853Y-114221152D01*
X130749854Y-114221159D01*
X130755909Y-114277484D01*
X130806204Y-114412332D01*
X130883577Y-114515690D01*
X130907994Y-114581154D01*
X130893142Y-114649427D01*
X130883577Y-114664310D01*
X130806205Y-114767666D01*
X130755909Y-114902516D01*
X130749891Y-114958494D01*
X130749500Y-114962127D01*
X130749500Y-114965448D01*
X130749500Y-114965449D01*
X130749500Y-116754560D01*
X130749500Y-116754578D01*
X130749501Y-116757872D01*
X130749853Y-116761152D01*
X130749854Y-116761159D01*
X130755909Y-116817484D01*
X130803350Y-116944680D01*
X130806204Y-116952331D01*
X130883890Y-117056106D01*
X130908307Y-117121569D01*
X130893456Y-117189842D01*
X130883890Y-117204726D01*
X130806648Y-117307908D01*
X130756400Y-117442628D01*
X130750354Y-117498867D01*
X130750000Y-117505481D01*
X130750000Y-118150000D01*
X133454428Y-118150000D01*
X133431318Y-118185960D01*
X133390000Y-118326673D01*
X133390000Y-118473327D01*
X133431318Y-118614040D01*
X133454428Y-118650000D01*
X130750000Y-118650000D01*
X130750000Y-119294518D01*
X130750354Y-119301132D01*
X130756400Y-119357371D01*
X130806647Y-119492089D01*
X130883890Y-119595272D01*
X130908307Y-119660737D01*
X130893455Y-119729010D01*
X130883890Y-119743894D01*
X130806204Y-119847668D01*
X130755910Y-119982515D01*
X130755909Y-119982517D01*
X130749500Y-120042127D01*
X130749500Y-120045448D01*
X130749500Y-120045449D01*
X130749500Y-121834560D01*
X130749500Y-121834578D01*
X130749501Y-121837872D01*
X130749853Y-121841152D01*
X130749854Y-121841159D01*
X130755909Y-121897484D01*
X130806204Y-122032332D01*
X130883577Y-122135690D01*
X130907994Y-122201154D01*
X130893142Y-122269427D01*
X130883577Y-122284310D01*
X130806205Y-122387666D01*
X130755910Y-122522515D01*
X130755909Y-122522517D01*
X130749500Y-122582127D01*
X130749500Y-122585448D01*
X130749500Y-122585449D01*
X130749500Y-124374560D01*
X130749500Y-124374578D01*
X130749501Y-124377872D01*
X130749853Y-124381152D01*
X130749854Y-124381159D01*
X130755909Y-124437484D01*
X130756421Y-124438856D01*
X130806204Y-124572331D01*
X130892454Y-124687546D01*
X131007669Y-124773796D01*
X131142517Y-124824091D01*
X131202127Y-124830500D01*
X133835611Y-124830499D01*
X133846419Y-124830970D01*
X133900000Y-124835659D01*
X133953580Y-124830970D01*
X133964389Y-124830499D01*
X134794561Y-124830499D01*
X134797872Y-124830499D01*
X134857483Y-124824091D01*
X134992331Y-124773796D01*
X135107546Y-124687546D01*
X135193796Y-124572331D01*
X135244091Y-124437483D01*
X135250500Y-124377873D01*
X135250499Y-123544384D01*
X135250971Y-123533576D01*
X135255659Y-123479999D01*
X135250971Y-123426422D01*
X135250499Y-123415613D01*
X135250499Y-123249999D01*
X138894340Y-123249999D01*
X138899028Y-123303573D01*
X138899500Y-123314381D01*
X138899500Y-125944560D01*
X138899500Y-125944578D01*
X138899501Y-125947872D01*
X138905909Y-126007483D01*
X138956204Y-126142331D01*
X139042454Y-126257546D01*
X139157669Y-126343796D01*
X139292517Y-126394091D01*
X139352127Y-126400500D01*
X141147872Y-126400499D01*
X141207483Y-126394091D01*
X141342331Y-126343796D01*
X141446107Y-126266108D01*
X141511569Y-126241692D01*
X141579842Y-126256543D01*
X141594727Y-126266109D01*
X141697911Y-126343352D01*
X141832628Y-126393599D01*
X141888867Y-126399645D01*
X141895482Y-126400000D01*
X142540000Y-126400000D01*
X142540000Y-123696494D01*
X142644839Y-123744373D01*
X142753527Y-123760000D01*
X142826473Y-123760000D01*
X142935161Y-123744373D01*
X143040000Y-123696494D01*
X143040000Y-126400000D01*
X143684518Y-126400000D01*
X143691132Y-126399645D01*
X143747371Y-126393599D01*
X143882089Y-126343352D01*
X143985270Y-126266110D01*
X144050734Y-126241692D01*
X144119008Y-126256543D01*
X144133890Y-126266107D01*
X144237669Y-126343796D01*
X144372517Y-126394091D01*
X144432127Y-126400500D01*
X146227872Y-126400499D01*
X146287483Y-126394091D01*
X146422331Y-126343796D01*
X146537546Y-126257546D01*
X146623796Y-126142331D01*
X146674091Y-126007483D01*
X146680500Y-125947873D01*
X146680499Y-123314381D01*
X146680971Y-123303578D01*
X146680972Y-123303573D01*
X146685659Y-123250000D01*
X146680971Y-123196418D01*
X146680499Y-123185610D01*
X146680499Y-122355439D01*
X146680499Y-122355438D01*
X146680499Y-122352128D01*
X146674091Y-122292517D01*
X146623796Y-122157669D01*
X146537546Y-122042454D01*
X146422331Y-121956204D01*
X146287483Y-121905909D01*
X146235816Y-121900354D01*
X146231166Y-121899854D01*
X146231165Y-121899853D01*
X146227873Y-121899500D01*
X146224551Y-121899500D01*
X145394383Y-121899500D01*
X145383576Y-121899028D01*
X145380170Y-121898730D01*
X145329999Y-121894340D01*
X145276422Y-121899028D01*
X145265615Y-121899500D01*
X144435439Y-121899500D01*
X144435420Y-121899500D01*
X144432128Y-121899501D01*
X144428848Y-121899853D01*
X144428840Y-121899854D01*
X144372515Y-121905909D01*
X144237669Y-121956204D01*
X144133894Y-122033890D01*
X144068429Y-122058307D01*
X144000156Y-122043455D01*
X143985272Y-122033890D01*
X143882089Y-121956647D01*
X143747371Y-121906400D01*
X143691132Y-121900354D01*
X143684518Y-121900000D01*
X143040000Y-121900000D01*
X143040000Y-122803505D01*
X142935161Y-122755627D01*
X142826473Y-122740000D01*
X142753527Y-122740000D01*
X142644839Y-122755627D01*
X142540000Y-122803505D01*
X142540000Y-121900000D01*
X141895482Y-121900000D01*
X141888867Y-121900354D01*
X141832628Y-121906400D01*
X141697908Y-121956648D01*
X141594726Y-122033890D01*
X141529262Y-122058307D01*
X141460989Y-122043455D01*
X141446111Y-122033894D01*
X141342331Y-121956204D01*
X141207483Y-121905909D01*
X141155816Y-121900354D01*
X141151166Y-121899854D01*
X141151165Y-121899853D01*
X141147873Y-121899500D01*
X141144551Y-121899500D01*
X140314383Y-121899500D01*
X140303576Y-121899028D01*
X140300170Y-121898730D01*
X140249999Y-121894340D01*
X140196422Y-121899028D01*
X140185615Y-121899500D01*
X139355439Y-121899500D01*
X139355420Y-121899500D01*
X139352128Y-121899501D01*
X139348848Y-121899853D01*
X139348840Y-121899854D01*
X139292515Y-121905909D01*
X139157669Y-121956204D01*
X139042454Y-122042454D01*
X138956204Y-122157668D01*
X138905910Y-122292515D01*
X138905909Y-122292517D01*
X138899500Y-122352127D01*
X138899500Y-122355449D01*
X138899500Y-123185618D01*
X138899028Y-123196426D01*
X138894340Y-123249999D01*
X135250499Y-123249999D01*
X135250499Y-122585439D01*
X135250499Y-122582128D01*
X135244091Y-122522517D01*
X135193796Y-122387669D01*
X135116421Y-122284310D01*
X135092005Y-122218846D01*
X135106857Y-122150573D01*
X135116422Y-122135689D01*
X135174350Y-122058307D01*
X135193796Y-122032331D01*
X135244091Y-121897483D01*
X135250500Y-121837873D01*
X135250499Y-121004384D01*
X135250971Y-120993576D01*
X135255659Y-120939999D01*
X135250971Y-120886422D01*
X135250499Y-120875613D01*
X135250499Y-120045439D01*
X135250499Y-120042128D01*
X135244091Y-119982517D01*
X135193796Y-119847669D01*
X135116108Y-119743892D01*
X135091692Y-119678428D01*
X135106544Y-119610155D01*
X135116110Y-119595270D01*
X135193352Y-119492089D01*
X135243599Y-119357371D01*
X135249645Y-119301132D01*
X135250000Y-119294518D01*
X135250000Y-118650000D01*
X134345572Y-118650000D01*
X134368682Y-118614040D01*
X134410000Y-118473327D01*
X134410000Y-118326673D01*
X134368682Y-118185960D01*
X134345572Y-118150000D01*
X135250000Y-118150000D01*
X135250000Y-117505481D01*
X135249645Y-117498867D01*
X135243599Y-117442628D01*
X135193352Y-117307911D01*
X135116109Y-117204727D01*
X135091692Y-117139263D01*
X135106544Y-117070990D01*
X135116100Y-117056118D01*
X135193796Y-116952331D01*
X135244091Y-116817483D01*
X135250500Y-116757873D01*
X135250499Y-115924384D01*
X135250971Y-115913576D01*
X135251131Y-115911744D01*
X135255659Y-115860000D01*
X135250970Y-115806420D01*
X135250499Y-115795613D01*
X135250499Y-114965439D01*
X135250499Y-114962128D01*
X135244091Y-114902517D01*
X135193796Y-114767669D01*
X135116421Y-114664310D01*
X135092005Y-114598846D01*
X135106857Y-114530573D01*
X135116422Y-114515689D01*
X135116423Y-114515688D01*
X135193796Y-114412331D01*
X135244091Y-114277483D01*
X135250500Y-114217873D01*
X135250499Y-113384384D01*
X135250971Y-113373576D01*
X135255659Y-113319999D01*
X135250971Y-113266422D01*
X135250499Y-113255613D01*
X135250499Y-112905452D01*
X135270184Y-112838413D01*
X135286818Y-112817771D01*
X136800387Y-111304202D01*
X138330017Y-109774571D01*
X138391338Y-109741088D01*
X138461030Y-109746072D01*
X138509846Y-109779282D01*
X138594129Y-109872889D01*
X138747269Y-109984151D01*
X138920197Y-110061144D01*
X139105352Y-110100500D01*
X139105354Y-110100500D01*
X139294648Y-110100500D01*
X139418084Y-110074262D01*
X139479803Y-110061144D01*
X139652730Y-109984151D01*
X139652729Y-109984151D01*
X139805870Y-109872889D01*
X139835484Y-109840000D01*
X139932533Y-109732216D01*
X140027179Y-109568284D01*
X140085674Y-109388256D01*
X140103321Y-109220344D01*
X140129904Y-109155734D01*
X140138951Y-109145638D01*
X141733789Y-107550800D01*
X141749885Y-107537906D01*
X141751873Y-107535787D01*
X141751877Y-107535786D01*
X141797949Y-107486723D01*
X141800534Y-107484055D01*
X141820120Y-107464471D01*
X141822585Y-107461292D01*
X141830167Y-107452416D01*
X141860062Y-107420582D01*
X141869717Y-107403018D01*
X141880394Y-107386764D01*
X141892673Y-107370936D01*
X141910018Y-107330852D01*
X141915160Y-107320356D01*
X141915722Y-107319334D01*
X141936197Y-107282092D01*
X141941179Y-107262684D01*
X141947481Y-107244280D01*
X141955437Y-107225896D01*
X141962269Y-107182752D01*
X141964633Y-107171338D01*
X141975500Y-107129019D01*
X141975500Y-107108983D01*
X141977027Y-107089584D01*
X141980160Y-107069804D01*
X141976050Y-107026324D01*
X141975500Y-107014655D01*
X141975500Y-98724500D01*
X141995185Y-98657461D01*
X142047989Y-98611706D01*
X142099500Y-98600500D01*
X142294648Y-98600500D01*
X142424504Y-98572898D01*
X142479803Y-98561144D01*
X142652730Y-98484151D01*
X142673889Y-98468778D01*
X142805870Y-98372889D01*
X142836515Y-98338855D01*
X142932533Y-98232216D01*
X143027179Y-98068284D01*
X143085674Y-97888256D01*
X143103321Y-97720345D01*
X143129905Y-97655732D01*
X143138952Y-97645636D01*
X148322771Y-92461819D01*
X148384095Y-92428334D01*
X148410453Y-92425500D01*
X150206000Y-92425500D01*
X150273039Y-92445185D01*
X150318794Y-92497989D01*
X150330000Y-92549500D01*
X150330000Y-92750000D01*
X151234428Y-92750000D01*
X151211318Y-92785960D01*
X151170000Y-92926673D01*
X151170000Y-93073327D01*
X151211318Y-93214040D01*
X151234428Y-93250000D01*
X150330000Y-93250000D01*
X150330000Y-93894518D01*
X150330354Y-93901132D01*
X150336400Y-93957371D01*
X150386647Y-94092089D01*
X150463890Y-94195272D01*
X150488307Y-94260737D01*
X150473455Y-94329010D01*
X150463890Y-94343894D01*
X150386204Y-94447668D01*
X150335909Y-94582516D01*
X150330566Y-94632216D01*
X150329500Y-94642127D01*
X150329500Y-94645448D01*
X150329500Y-94645449D01*
X150329500Y-95475615D01*
X150329028Y-95486422D01*
X150324340Y-95539999D01*
X150329028Y-95593576D01*
X150329500Y-95604384D01*
X150329500Y-96434560D01*
X150329500Y-96434578D01*
X150329501Y-96437872D01*
X150329853Y-96441152D01*
X150329854Y-96441159D01*
X150335909Y-96497484D01*
X150386204Y-96632332D01*
X150463577Y-96735690D01*
X150487994Y-96801154D01*
X150473142Y-96869427D01*
X150463577Y-96884310D01*
X150386205Y-96987666D01*
X150335909Y-97122516D01*
X150333958Y-97140667D01*
X150329500Y-97182127D01*
X150329500Y-97185449D01*
X150329500Y-98015615D01*
X150329028Y-98026422D01*
X150324340Y-98079999D01*
X150329028Y-98133576D01*
X150329500Y-98144384D01*
X150329500Y-98974560D01*
X150329500Y-98974578D01*
X150329501Y-98977872D01*
X150335909Y-99037483D01*
X150386204Y-99172331D01*
X150419147Y-99216337D01*
X150463577Y-99275688D01*
X150487994Y-99341153D01*
X150473142Y-99409426D01*
X150463578Y-99424309D01*
X150386204Y-99527669D01*
X150335910Y-99662515D01*
X150335909Y-99662517D01*
X150329500Y-99722127D01*
X150329500Y-99725448D01*
X150329500Y-99725449D01*
X150329500Y-100555615D01*
X150329028Y-100566422D01*
X150324340Y-100619999D01*
X150329028Y-100673576D01*
X150329500Y-100684384D01*
X150329500Y-101514560D01*
X150329500Y-101514578D01*
X150329501Y-101517872D01*
X150329853Y-101521152D01*
X150329854Y-101521159D01*
X150334731Y-101566528D01*
X150335909Y-101577483D01*
X150386204Y-101712331D01*
X150452207Y-101800500D01*
X150463577Y-101815688D01*
X150487994Y-101881153D01*
X150473142Y-101949426D01*
X150463578Y-101964309D01*
X150386204Y-102067669D01*
X150335910Y-102202515D01*
X150335909Y-102202517D01*
X150329500Y-102262127D01*
X150329500Y-102265449D01*
X150329500Y-103095615D01*
X150329028Y-103106422D01*
X150324340Y-103159999D01*
X150329028Y-103213576D01*
X150329500Y-103224384D01*
X150329500Y-104054560D01*
X150329500Y-104054578D01*
X150329501Y-104057872D01*
X150329853Y-104061152D01*
X150329854Y-104061159D01*
X150335909Y-104117484D01*
X150386203Y-104252329D01*
X150386204Y-104252331D01*
X150463890Y-104356106D01*
X150488307Y-104421569D01*
X150473456Y-104489842D01*
X150463890Y-104504726D01*
X150386648Y-104607908D01*
X150336400Y-104742628D01*
X150330354Y-104798867D01*
X150330000Y-104805481D01*
X150330000Y-105450000D01*
X151234428Y-105450000D01*
X151211318Y-105485960D01*
X151170000Y-105626673D01*
X151170000Y-105773327D01*
X151211318Y-105914040D01*
X151234428Y-105950000D01*
X150330000Y-105950000D01*
X150330000Y-106594518D01*
X150330354Y-106601132D01*
X150336400Y-106657371D01*
X150386647Y-106792089D01*
X150463890Y-106895272D01*
X150488307Y-106960737D01*
X150473455Y-107029010D01*
X150463890Y-107043894D01*
X150386204Y-107147668D01*
X150335909Y-107282516D01*
X150331951Y-107319334D01*
X150329500Y-107342127D01*
X150329500Y-107345449D01*
X150329500Y-108175615D01*
X150329028Y-108186422D01*
X150324340Y-108239999D01*
X150329028Y-108293576D01*
X150329500Y-108304384D01*
X150329500Y-109134560D01*
X150329500Y-109134578D01*
X150329501Y-109137872D01*
X150329853Y-109141152D01*
X150329854Y-109141159D01*
X150335909Y-109197484D01*
X150344437Y-109220349D01*
X150386204Y-109332331D01*
X150437682Y-109401096D01*
X150463577Y-109435688D01*
X150487994Y-109501153D01*
X150473142Y-109569426D01*
X150463578Y-109584309D01*
X150386204Y-109687669D01*
X150335910Y-109822515D01*
X150335909Y-109822517D01*
X150329500Y-109882127D01*
X150329500Y-109885448D01*
X150329500Y-109885449D01*
X150329500Y-110715615D01*
X150329028Y-110726422D01*
X150324340Y-110779999D01*
X150329028Y-110833576D01*
X150329500Y-110844384D01*
X150329500Y-111674560D01*
X150329500Y-111674578D01*
X150329501Y-111677872D01*
X150329853Y-111681152D01*
X150329854Y-111681159D01*
X150335909Y-111737484D01*
X150345457Y-111763082D01*
X150386204Y-111872331D01*
X150447952Y-111954815D01*
X150463577Y-111975688D01*
X150487994Y-112041153D01*
X150473142Y-112109426D01*
X150463578Y-112124309D01*
X150386204Y-112227669D01*
X150335909Y-112362516D01*
X150330256Y-112415099D01*
X150329500Y-112422127D01*
X150329500Y-112425449D01*
X150329500Y-113255615D01*
X150329028Y-113266422D01*
X150324340Y-113319999D01*
X150329028Y-113373576D01*
X150329500Y-113384384D01*
X150329500Y-114214560D01*
X150329500Y-114214578D01*
X150329501Y-114217872D01*
X150335909Y-114277483D01*
X150386204Y-114412331D01*
X150419147Y-114456337D01*
X150463577Y-114515688D01*
X150487994Y-114581153D01*
X150473142Y-114649426D01*
X150463578Y-114664309D01*
X150386204Y-114767669D01*
X150335909Y-114902516D01*
X150329891Y-114958494D01*
X150329500Y-114962127D01*
X150329500Y-114965449D01*
X150329500Y-115110500D01*
X150309815Y-115177539D01*
X150257011Y-115223294D01*
X150205500Y-115234500D01*
X147422740Y-115234500D01*
X147402233Y-115232236D01*
X147370554Y-115233231D01*
X147340883Y-115230582D01*
X147194649Y-115199500D01*
X147194646Y-115199500D01*
X147005354Y-115199500D01*
X147005352Y-115199500D01*
X146820197Y-115238855D01*
X146647269Y-115315848D01*
X146494129Y-115427110D01*
X146367466Y-115567783D01*
X146272820Y-115731715D01*
X146214326Y-115911742D01*
X146194540Y-116100000D01*
X146214326Y-116288257D01*
X146272820Y-116468284D01*
X146367466Y-116632216D01*
X146494129Y-116772889D01*
X146647269Y-116884151D01*
X146820197Y-116961144D01*
X147005352Y-117000500D01*
X147005354Y-117000500D01*
X147194648Y-117000500D01*
X147318084Y-116974262D01*
X147379803Y-116961144D01*
X147552730Y-116884151D01*
X147705871Y-116772888D01*
X147832533Y-116632216D01*
X147881444Y-116547500D01*
X147932011Y-116499285D01*
X147988831Y-116485500D01*
X150205501Y-116485500D01*
X150272540Y-116505185D01*
X150318295Y-116557989D01*
X150329501Y-116609499D01*
X150329501Y-116757872D01*
X150329853Y-116761152D01*
X150329854Y-116761159D01*
X150335909Y-116817484D01*
X150383350Y-116944680D01*
X150386204Y-116952331D01*
X150463890Y-117056106D01*
X150488307Y-117121569D01*
X150473456Y-117189842D01*
X150463890Y-117204726D01*
X150386648Y-117307908D01*
X150336400Y-117442628D01*
X150330354Y-117498867D01*
X150330000Y-117505481D01*
X150330000Y-118150000D01*
X151234428Y-118150000D01*
X151211318Y-118185960D01*
X151170000Y-118326673D01*
X151170000Y-118473327D01*
X151211318Y-118614040D01*
X151234428Y-118650000D01*
X150330000Y-118650000D01*
X150330000Y-119294518D01*
X150330354Y-119301132D01*
X150336400Y-119357371D01*
X150386647Y-119492089D01*
X150463890Y-119595272D01*
X150488307Y-119660737D01*
X150473455Y-119729010D01*
X150463890Y-119743894D01*
X150386204Y-119847668D01*
X150335910Y-119982515D01*
X150335909Y-119982517D01*
X150329500Y-120042127D01*
X150329500Y-120045448D01*
X150329500Y-120045449D01*
X150329500Y-120875615D01*
X150329028Y-120886422D01*
X150324340Y-120939999D01*
X150329028Y-120993576D01*
X150329500Y-121004384D01*
X150329500Y-121834560D01*
X150329500Y-121834578D01*
X150329501Y-121837872D01*
X150329853Y-121841152D01*
X150329854Y-121841159D01*
X150335909Y-121897484D01*
X150357810Y-121956204D01*
X150386204Y-122032331D01*
X150405650Y-122058307D01*
X150463577Y-122135688D01*
X150487994Y-122201153D01*
X150473142Y-122269426D01*
X150463578Y-122284309D01*
X150386204Y-122387669D01*
X150335910Y-122522515D01*
X150335909Y-122522517D01*
X150329500Y-122582127D01*
X150329500Y-122585449D01*
X150329500Y-123415615D01*
X150329028Y-123426422D01*
X150324340Y-123479999D01*
X150329028Y-123533576D01*
X150329500Y-123544384D01*
X150329500Y-124374560D01*
X150329500Y-124374578D01*
X150329501Y-124377872D01*
X150329853Y-124381152D01*
X150329854Y-124381159D01*
X150335909Y-124437484D01*
X150336421Y-124438856D01*
X150386204Y-124572331D01*
X150472454Y-124687546D01*
X150587669Y-124773796D01*
X150722517Y-124824091D01*
X150782127Y-124830500D01*
X151615615Y-124830499D01*
X151626424Y-124830971D01*
X151679999Y-124835659D01*
X151679999Y-124835658D01*
X151680000Y-124835659D01*
X151733574Y-124830971D01*
X151744384Y-124830499D01*
X154374561Y-124830499D01*
X154377872Y-124830499D01*
X154437483Y-124824091D01*
X154572331Y-124773796D01*
X154687546Y-124687546D01*
X154773796Y-124572331D01*
X154824091Y-124437483D01*
X154830500Y-124377873D01*
X154830499Y-122582128D01*
X154824091Y-122522517D01*
X154773796Y-122387669D01*
X154696421Y-122284310D01*
X154672005Y-122218846D01*
X154686857Y-122150573D01*
X154696422Y-122135689D01*
X154754350Y-122058307D01*
X154773796Y-122032331D01*
X154824091Y-121897483D01*
X154830500Y-121837873D01*
X154830499Y-120042128D01*
X154824091Y-119982517D01*
X154773796Y-119847669D01*
X154696108Y-119743892D01*
X154671692Y-119678428D01*
X154686544Y-119610155D01*
X154696110Y-119595270D01*
X154773352Y-119492089D01*
X154823599Y-119357371D01*
X154829645Y-119301132D01*
X154830000Y-119294518D01*
X154830000Y-118650000D01*
X152125572Y-118650000D01*
X152148682Y-118614040D01*
X152190000Y-118473327D01*
X152190000Y-118326673D01*
X152148682Y-118185960D01*
X152125572Y-118150000D01*
X154830000Y-118150000D01*
X154830000Y-117505481D01*
X154829645Y-117498867D01*
X154823599Y-117442628D01*
X154773352Y-117307911D01*
X154696109Y-117204727D01*
X154671692Y-117139263D01*
X154686544Y-117070990D01*
X154696100Y-117056118D01*
X154773796Y-116952331D01*
X154824091Y-116817483D01*
X154830500Y-116757873D01*
X154830499Y-114962128D01*
X154824091Y-114902517D01*
X154785855Y-114800000D01*
X171194540Y-114800000D01*
X171214326Y-114988257D01*
X171272820Y-115168284D01*
X171367466Y-115332216D01*
X171494129Y-115472889D01*
X171647269Y-115584151D01*
X171820197Y-115661144D01*
X172005352Y-115700500D01*
X172005354Y-115700500D01*
X172194648Y-115700500D01*
X172318083Y-115674262D01*
X172379803Y-115661144D01*
X172552730Y-115584151D01*
X172705871Y-115472888D01*
X172832533Y-115332216D01*
X172927179Y-115168284D01*
X172982522Y-114997955D01*
X173012769Y-114948597D01*
X174076922Y-113884443D01*
X174138243Y-113850960D01*
X174207935Y-113855944D01*
X174215040Y-113858848D01*
X174220199Y-113861145D01*
X174405352Y-113900500D01*
X174405354Y-113900500D01*
X174594648Y-113900500D01*
X174718084Y-113874262D01*
X174779803Y-113861144D01*
X174952730Y-113784151D01*
X175105871Y-113672888D01*
X175232533Y-113532216D01*
X175327179Y-113368284D01*
X175385674Y-113188256D01*
X175405460Y-113000000D01*
X175385674Y-112811744D01*
X175348390Y-112696997D01*
X175327179Y-112631715D01*
X175232533Y-112467783D01*
X175105870Y-112327110D01*
X174952730Y-112215848D01*
X174779802Y-112138855D01*
X174594648Y-112099500D01*
X174594646Y-112099500D01*
X174405354Y-112099500D01*
X174405352Y-112099500D01*
X174220197Y-112138855D01*
X174047269Y-112215848D01*
X174034058Y-112225447D01*
X173968252Y-112248927D01*
X173943203Y-112247820D01*
X173931697Y-112246134D01*
X173921977Y-112244711D01*
X173921976Y-112244711D01*
X173872634Y-112249028D01*
X173861827Y-112249500D01*
X173856291Y-112249500D01*
X173852730Y-112249916D01*
X173852715Y-112249917D01*
X173825484Y-112253100D01*
X173821900Y-112253466D01*
X173745950Y-112260111D01*
X173726922Y-112264329D01*
X173655270Y-112290407D01*
X173651869Y-112291589D01*
X173579480Y-112315578D01*
X173561927Y-112324076D01*
X173498236Y-112365965D01*
X173495198Y-112367901D01*
X173430278Y-112407946D01*
X173415162Y-112420259D01*
X173362814Y-112475742D01*
X173360304Y-112478326D01*
X171947228Y-113891402D01*
X171885905Y-113924887D01*
X171885330Y-113925011D01*
X171820197Y-113938856D01*
X171647267Y-114015849D01*
X171494129Y-114127110D01*
X171367466Y-114267783D01*
X171272820Y-114431715D01*
X171214326Y-114611742D01*
X171194540Y-114800000D01*
X154785855Y-114800000D01*
X154773796Y-114767669D01*
X154696421Y-114664310D01*
X154672005Y-114598846D01*
X154686857Y-114530573D01*
X154696422Y-114515689D01*
X154696423Y-114515688D01*
X154773796Y-114412331D01*
X154824091Y-114277483D01*
X154830500Y-114217873D01*
X154830499Y-112422128D01*
X154824091Y-112362517D01*
X154773796Y-112227669D01*
X154696421Y-112124310D01*
X154672005Y-112058846D01*
X154686857Y-111990573D01*
X154696422Y-111975689D01*
X154712048Y-111954815D01*
X154773796Y-111872331D01*
X154824091Y-111737483D01*
X154830500Y-111677873D01*
X154830499Y-109882128D01*
X154824091Y-109822517D01*
X154773796Y-109687669D01*
X154696421Y-109584310D01*
X154672005Y-109518846D01*
X154686857Y-109450573D01*
X154696422Y-109435689D01*
X154722318Y-109401096D01*
X154773796Y-109332331D01*
X154824091Y-109197483D01*
X154830500Y-109137873D01*
X154830499Y-107342128D01*
X154828604Y-107324500D01*
X183494540Y-107324500D01*
X183501083Y-107386756D01*
X183514326Y-107512757D01*
X183572820Y-107692784D01*
X183667466Y-107856716D01*
X183794129Y-107997389D01*
X183947269Y-108108651D01*
X184120197Y-108185644D01*
X184305352Y-108225000D01*
X184305354Y-108225000D01*
X184494648Y-108225000D01*
X184618083Y-108198762D01*
X184679803Y-108185644D01*
X184852730Y-108108651D01*
X184902302Y-108072635D01*
X185005870Y-107997389D01*
X185132533Y-107856716D01*
X185227179Y-107692784D01*
X185269804Y-107561598D01*
X185285674Y-107512756D01*
X185305460Y-107324500D01*
X185285674Y-107136244D01*
X185227179Y-106956216D01*
X185227179Y-106956215D01*
X185132533Y-106792283D01*
X185057350Y-106708784D01*
X185027120Y-106645793D01*
X185025500Y-106625812D01*
X185025500Y-104874187D01*
X185045185Y-104807148D01*
X185057350Y-104791214D01*
X185132533Y-104707716D01*
X185176594Y-104631401D01*
X185227179Y-104543784D01*
X185261140Y-104439263D01*
X185285674Y-104363756D01*
X185305460Y-104175500D01*
X185285674Y-103987244D01*
X185227179Y-103807216D01*
X185227179Y-103807215D01*
X185132533Y-103643283D01*
X185005870Y-103502610D01*
X184852730Y-103391348D01*
X184679802Y-103314355D01*
X184494648Y-103275000D01*
X184494646Y-103275000D01*
X184305354Y-103275000D01*
X184305352Y-103275000D01*
X184120197Y-103314355D01*
X183947269Y-103391348D01*
X183794129Y-103502610D01*
X183667466Y-103643283D01*
X183572820Y-103807215D01*
X183514326Y-103987242D01*
X183494540Y-104175500D01*
X183514326Y-104363757D01*
X183572820Y-104543784D01*
X183667464Y-104707713D01*
X183742650Y-104791214D01*
X183772880Y-104854206D01*
X183774500Y-104874187D01*
X183774500Y-106625812D01*
X183754815Y-106692851D01*
X183742650Y-106708784D01*
X183667466Y-106792283D01*
X183572820Y-106956215D01*
X183514326Y-107136242D01*
X183494958Y-107320524D01*
X183494540Y-107324500D01*
X154828604Y-107324500D01*
X154824091Y-107282517D01*
X154773796Y-107147669D01*
X154696108Y-107043892D01*
X154671692Y-106978428D01*
X154686544Y-106910155D01*
X154696110Y-106895270D01*
X154773352Y-106792089D01*
X154823599Y-106657371D01*
X154829645Y-106601132D01*
X154830000Y-106594518D01*
X154830000Y-105950000D01*
X152125572Y-105950000D01*
X152148682Y-105914040D01*
X152190000Y-105773327D01*
X152190000Y-105626673D01*
X152148682Y-105485960D01*
X152125572Y-105450000D01*
X154830000Y-105450000D01*
X154830000Y-104805481D01*
X154829645Y-104798867D01*
X154823599Y-104742628D01*
X154773352Y-104607911D01*
X154696109Y-104504727D01*
X154671692Y-104439263D01*
X154686544Y-104370990D01*
X154696100Y-104356118D01*
X154773796Y-104252331D01*
X154824091Y-104117483D01*
X154830500Y-104057873D01*
X154830499Y-102262128D01*
X154824091Y-102202517D01*
X154773796Y-102067669D01*
X154696421Y-101964310D01*
X154672005Y-101898846D01*
X154686857Y-101830573D01*
X154696422Y-101815689D01*
X154696423Y-101815688D01*
X154773796Y-101712331D01*
X154824091Y-101577483D01*
X154830500Y-101517873D01*
X154830499Y-99722128D01*
X154824091Y-99662517D01*
X154773796Y-99527669D01*
X154696421Y-99424310D01*
X154672005Y-99358846D01*
X154686857Y-99290573D01*
X154696422Y-99275689D01*
X154696423Y-99275688D01*
X154773796Y-99172331D01*
X154824091Y-99037483D01*
X154830500Y-98977873D01*
X154830499Y-97182128D01*
X154824091Y-97122517D01*
X154773796Y-96987669D01*
X154696421Y-96884310D01*
X154672005Y-96818846D01*
X154686857Y-96750573D01*
X154696422Y-96735689D01*
X154773796Y-96632331D01*
X154824091Y-96497483D01*
X154830500Y-96437873D01*
X154830499Y-94642128D01*
X154824091Y-94582517D01*
X154773796Y-94447669D01*
X154696108Y-94343892D01*
X154671692Y-94278428D01*
X154686544Y-94210155D01*
X154696110Y-94195270D01*
X154773352Y-94092089D01*
X154823599Y-93957371D01*
X154829645Y-93901132D01*
X154830000Y-93894518D01*
X154830000Y-93499999D01*
X162994540Y-93499999D01*
X163014326Y-93688257D01*
X163072820Y-93868284D01*
X163163975Y-94026168D01*
X163180448Y-94094068D01*
X163174519Y-94126485D01*
X163114326Y-94311740D01*
X163094540Y-94500000D01*
X163114326Y-94688257D01*
X163172820Y-94868284D01*
X163267466Y-95032216D01*
X163394129Y-95172889D01*
X163547269Y-95284151D01*
X163720197Y-95361144D01*
X163905352Y-95400500D01*
X163905354Y-95400500D01*
X164094646Y-95400500D01*
X164253333Y-95366770D01*
X164322998Y-95372086D01*
X164378731Y-95414222D01*
X164402433Y-95475098D01*
X164414326Y-95588257D01*
X164472820Y-95768284D01*
X164567464Y-95932213D01*
X164567467Y-95932216D01*
X164634760Y-96006952D01*
X164642650Y-96015714D01*
X164672880Y-96078706D01*
X164674500Y-96098687D01*
X164674500Y-97117256D01*
X164672235Y-97137766D01*
X164674439Y-97207872D01*
X164674500Y-97211767D01*
X164674500Y-97239350D01*
X164674988Y-97243219D01*
X164674989Y-97243225D01*
X164675004Y-97243343D01*
X164675918Y-97254967D01*
X164677290Y-97298626D01*
X164682879Y-97317860D01*
X164686825Y-97336916D01*
X164689335Y-97356792D01*
X164705414Y-97397404D01*
X164709197Y-97408451D01*
X164721382Y-97450391D01*
X164731580Y-97467635D01*
X164740136Y-97485100D01*
X164747514Y-97503732D01*
X164753212Y-97511574D01*
X164773180Y-97539059D01*
X164779593Y-97548822D01*
X164801826Y-97586416D01*
X164801829Y-97586419D01*
X164801830Y-97586420D01*
X164815995Y-97600585D01*
X164828627Y-97615375D01*
X164840406Y-97631587D01*
X164874058Y-97659426D01*
X164882699Y-97667289D01*
X165684188Y-98468778D01*
X165717673Y-98530101D01*
X165719828Y-98543497D01*
X165737476Y-98711407D01*
X165795970Y-98891434D01*
X165890616Y-99055366D01*
X166017279Y-99196039D01*
X166170419Y-99307301D01*
X166343347Y-99384294D01*
X166528502Y-99423650D01*
X166528504Y-99423650D01*
X166717798Y-99423650D01*
X166884308Y-99388257D01*
X166902953Y-99384294D01*
X167075880Y-99307301D01*
X167229021Y-99196038D01*
X167355683Y-99055366D01*
X167450329Y-98891434D01*
X167508824Y-98711406D01*
X167528610Y-98523150D01*
X167508824Y-98334894D01*
X167458006Y-98178493D01*
X167450329Y-98154865D01*
X167407211Y-98080183D01*
X167390738Y-98012283D01*
X167413590Y-97946256D01*
X167468512Y-97903065D01*
X167538065Y-97896424D01*
X167565034Y-97904903D01*
X167570420Y-97907301D01*
X167743347Y-97984294D01*
X167743350Y-97984294D01*
X167743351Y-97984295D01*
X167928502Y-98023650D01*
X167928504Y-98023650D01*
X168117798Y-98023650D01*
X168241233Y-97997412D01*
X168302953Y-97984294D01*
X168475880Y-97907301D01*
X168516181Y-97878021D01*
X168629020Y-97796039D01*
X168755683Y-97655366D01*
X168850329Y-97491434D01*
X168863665Y-97450390D01*
X168908824Y-97311406D01*
X168928610Y-97123150D01*
X168908824Y-96934894D01*
X168908822Y-96934889D01*
X168907855Y-96925683D01*
X168920424Y-96856953D01*
X168968156Y-96805929D01*
X169035897Y-96788811D01*
X169081612Y-96799442D01*
X169220197Y-96861144D01*
X169405352Y-96900500D01*
X169405354Y-96900500D01*
X169594648Y-96900500D01*
X169740834Y-96869427D01*
X169779803Y-96861144D01*
X169952730Y-96784151D01*
X170019431Y-96735690D01*
X170105870Y-96672889D01*
X170168203Y-96603662D01*
X170232533Y-96532216D01*
X170327179Y-96368284D01*
X170385674Y-96188256D01*
X170387771Y-96168300D01*
X170414353Y-96103689D01*
X170471650Y-96063703D01*
X170477871Y-96062004D01*
X170499447Y-96052398D01*
X170652730Y-95984151D01*
X170662718Y-95976894D01*
X170816416Y-95865227D01*
X170817346Y-95866507D01*
X170863955Y-95837787D01*
X170922410Y-95836115D01*
X171105352Y-95875000D01*
X171105354Y-95875000D01*
X171294648Y-95875000D01*
X171424034Y-95847498D01*
X171479803Y-95835644D01*
X171652730Y-95758651D01*
X171766026Y-95676337D01*
X171805870Y-95647389D01*
X171932533Y-95506716D01*
X172027179Y-95342784D01*
X172051283Y-95268599D01*
X172085674Y-95162756D01*
X172105460Y-94974500D01*
X172085674Y-94786244D01*
X172047184Y-94667784D01*
X172027179Y-94606215D01*
X171932533Y-94442283D01*
X171857350Y-94358784D01*
X171827120Y-94295793D01*
X171825500Y-94275812D01*
X171825500Y-93082743D01*
X171827764Y-93062239D01*
X171827466Y-93052764D01*
X171825561Y-92992112D01*
X171825500Y-92988218D01*
X171825500Y-92964541D01*
X171825500Y-92960650D01*
X171824998Y-92956683D01*
X171824081Y-92945027D01*
X171823653Y-92931401D01*
X171822710Y-92901373D01*
X171817118Y-92882126D01*
X171813174Y-92863085D01*
X171810664Y-92843208D01*
X171794579Y-92802583D01*
X171790808Y-92791568D01*
X171778618Y-92749610D01*
X171768414Y-92732355D01*
X171759861Y-92714895D01*
X171752486Y-92696269D01*
X171752486Y-92696268D01*
X171726808Y-92660925D01*
X171720401Y-92651171D01*
X171713117Y-92638855D01*
X171698170Y-92613580D01*
X171684006Y-92599416D01*
X171671367Y-92584617D01*
X171659595Y-92568413D01*
X171625941Y-92540573D01*
X171617299Y-92532709D01*
X170400802Y-91316211D01*
X170387906Y-91300113D01*
X170336775Y-91252098D01*
X170333978Y-91249387D01*
X170317227Y-91232636D01*
X170314471Y-91229880D01*
X170311290Y-91227412D01*
X170302422Y-91219837D01*
X170270582Y-91189938D01*
X170253024Y-91180285D01*
X170236764Y-91169604D01*
X170220936Y-91157327D01*
X170180851Y-91139980D01*
X170170361Y-91134841D01*
X170132091Y-91113802D01*
X170112691Y-91108821D01*
X170094284Y-91102519D01*
X170075897Y-91094562D01*
X170032758Y-91087729D01*
X170021324Y-91085361D01*
X169979019Y-91074500D01*
X169958984Y-91074500D01*
X169939586Y-91072973D01*
X169932162Y-91071797D01*
X169919805Y-91069840D01*
X169919804Y-91069840D01*
X169886751Y-91072964D01*
X169876325Y-91073950D01*
X169864656Y-91074500D01*
X165003747Y-91074500D01*
X164936708Y-91054815D01*
X164911599Y-91033473D01*
X164905871Y-91027112D01*
X164752730Y-90915849D01*
X164752729Y-90915848D01*
X164752727Y-90915847D01*
X164579802Y-90838855D01*
X164394648Y-90799500D01*
X164394646Y-90799500D01*
X164205354Y-90799500D01*
X164205352Y-90799500D01*
X164020197Y-90838855D01*
X163847269Y-90915848D01*
X163694129Y-91027110D01*
X163567466Y-91167783D01*
X163472820Y-91331715D01*
X163414326Y-91511742D01*
X163394540Y-91699999D01*
X163414326Y-91888257D01*
X163472820Y-92068284D01*
X163567466Y-92232216D01*
X163694129Y-92372888D01*
X163735292Y-92402795D01*
X163777958Y-92458124D01*
X163783937Y-92527738D01*
X163751332Y-92589533D01*
X163690493Y-92623890D01*
X163688189Y-92624403D01*
X163620196Y-92638855D01*
X163447269Y-92715848D01*
X163294129Y-92827110D01*
X163167466Y-92967783D01*
X163072820Y-93131715D01*
X163014326Y-93311742D01*
X162994540Y-93499999D01*
X154830000Y-93499999D01*
X154830000Y-93250000D01*
X152125572Y-93250000D01*
X152148682Y-93214040D01*
X152190000Y-93073327D01*
X152190000Y-92926673D01*
X152148682Y-92785960D01*
X152125572Y-92750000D01*
X154830000Y-92750000D01*
X154830000Y-92395952D01*
X154849685Y-92328913D01*
X154866315Y-92308274D01*
X154876415Y-92298172D01*
X154876420Y-92298170D01*
X154890592Y-92283996D01*
X154905373Y-92271373D01*
X154921587Y-92259594D01*
X154949438Y-92225926D01*
X154957279Y-92217309D01*
X159483786Y-87690802D01*
X159499886Y-87677905D01*
X159501874Y-87675787D01*
X159501877Y-87675786D01*
X159547964Y-87626707D01*
X159550549Y-87624039D01*
X159570120Y-87604470D01*
X159572565Y-87601316D01*
X159580154Y-87592429D01*
X159610062Y-87560582D01*
X159619713Y-87543026D01*
X159630393Y-87526767D01*
X159642674Y-87510936D01*
X159660018Y-87470851D01*
X159665160Y-87460356D01*
X159668055Y-87455090D01*
X159686197Y-87422092D01*
X159691178Y-87402688D01*
X159692098Y-87400000D01*
X167494540Y-87400000D01*
X167514326Y-87588257D01*
X167572820Y-87768284D01*
X167667466Y-87932216D01*
X167794129Y-88072889D01*
X167947269Y-88184151D01*
X168120197Y-88261144D01*
X168305352Y-88300500D01*
X168305354Y-88300500D01*
X168494648Y-88300500D01*
X168626372Y-88272501D01*
X168679803Y-88261144D01*
X168852730Y-88184151D01*
X169005871Y-88072888D01*
X169132533Y-87932216D01*
X169227179Y-87768284D01*
X169285674Y-87588256D01*
X169305460Y-87400000D01*
X169285674Y-87211744D01*
X169227179Y-87031716D01*
X169227179Y-87031715D01*
X169167113Y-86927677D01*
X169150500Y-86865677D01*
X169150500Y-85762229D01*
X169170185Y-85695190D01*
X169186814Y-85674553D01*
X173052771Y-81808595D01*
X173114092Y-81775112D01*
X173114488Y-81775026D01*
X173179803Y-81761144D01*
X173179804Y-81761143D01*
X173179806Y-81761143D01*
X173352730Y-81684151D01*
X173505870Y-81572889D01*
X173542943Y-81531716D01*
X173632533Y-81432216D01*
X173727179Y-81268284D01*
X173785674Y-81088256D01*
X173805460Y-80900000D01*
X173785674Y-80711744D01*
X173731542Y-80545144D01*
X173727179Y-80531715D01*
X173672112Y-80436337D01*
X173667111Y-80427675D01*
X173650500Y-80365680D01*
X173650500Y-77556291D01*
X173650500Y-77556290D01*
X173650500Y-71516148D01*
X173656569Y-71477831D01*
X173659272Y-71469508D01*
X173685674Y-71388256D01*
X173705460Y-71200000D01*
X173685674Y-71011744D01*
X173655332Y-70918363D01*
X173627179Y-70831715D01*
X173532533Y-70667783D01*
X173405870Y-70527110D01*
X173252730Y-70415848D01*
X173079802Y-70338855D01*
X172894648Y-70299500D01*
X172894646Y-70299500D01*
X172705354Y-70299500D01*
X172705352Y-70299500D01*
X172520197Y-70338855D01*
X172347269Y-70415848D01*
X172194129Y-70527110D01*
X172067466Y-70667783D01*
X171972820Y-70831715D01*
X171914326Y-71011742D01*
X171894540Y-71199999D01*
X171914326Y-71388257D01*
X171972820Y-71568284D01*
X172067464Y-71732213D01*
X172117650Y-71787949D01*
X172147880Y-71850941D01*
X172149500Y-71870922D01*
X172149500Y-77512279D01*
X172149499Y-80365677D01*
X172132887Y-80427676D01*
X172072820Y-80531715D01*
X172017478Y-80702040D01*
X171987228Y-80751402D01*
X167914358Y-84824272D01*
X167900727Y-84836053D01*
X167881468Y-84850391D01*
X167849635Y-84888328D01*
X167842338Y-84896292D01*
X167840972Y-84897657D01*
X167840950Y-84897681D01*
X167838409Y-84900223D01*
X167836173Y-84903050D01*
X167836171Y-84903053D01*
X167819176Y-84924546D01*
X167816902Y-84927337D01*
X167767894Y-84985744D01*
X167757418Y-85002187D01*
X167725192Y-85071294D01*
X167723622Y-85074536D01*
X167689393Y-85142692D01*
X167682996Y-85161098D01*
X167667573Y-85235788D01*
X167666793Y-85239305D01*
X167649208Y-85313506D01*
X167647229Y-85332879D01*
X167649448Y-85409129D01*
X167649500Y-85412735D01*
X167649500Y-86865677D01*
X167632887Y-86927677D01*
X167572820Y-87031715D01*
X167514326Y-87211742D01*
X167494540Y-87400000D01*
X159692098Y-87400000D01*
X159697480Y-87384283D01*
X159705438Y-87365895D01*
X159712270Y-87322748D01*
X159714639Y-87311316D01*
X159725500Y-87269020D01*
X159725500Y-87248983D01*
X159727027Y-87229584D01*
X159727118Y-87229012D01*
X159730160Y-87209804D01*
X159726050Y-87166324D01*
X159725500Y-87154655D01*
X159725500Y-82598687D01*
X159745185Y-82531648D01*
X159757350Y-82515714D01*
X159832533Y-82432216D01*
X159846107Y-82408706D01*
X159927179Y-82268284D01*
X159943843Y-82216997D01*
X159985674Y-82088256D01*
X160005460Y-81900000D01*
X159985674Y-81711744D01*
X159942357Y-81578428D01*
X159927179Y-81531715D01*
X159832533Y-81367783D01*
X159705870Y-81227110D01*
X159552730Y-81115848D01*
X159379802Y-81038855D01*
X159194648Y-80999500D01*
X159194646Y-80999500D01*
X159005354Y-80999500D01*
X159005352Y-80999500D01*
X158820197Y-81038855D01*
X158647272Y-81115846D01*
X158572885Y-81169892D01*
X158507078Y-81193371D01*
X158439024Y-81177545D01*
X158427115Y-81169892D01*
X158352727Y-81115846D01*
X158179802Y-81038855D01*
X157994648Y-80999500D01*
X157994646Y-80999500D01*
X157805354Y-80999500D01*
X157805352Y-80999500D01*
X157620197Y-81038855D01*
X157447271Y-81115847D01*
X157379977Y-81164738D01*
X157314170Y-81188216D01*
X157246117Y-81172389D01*
X157234209Y-81164736D01*
X157115029Y-81078147D01*
X156942101Y-81001154D01*
X156756947Y-80961799D01*
X156756945Y-80961799D01*
X156567653Y-80961799D01*
X156567651Y-80961799D01*
X156382496Y-81001154D01*
X156209569Y-81078147D01*
X156175718Y-81102741D01*
X156109911Y-81126220D01*
X156052398Y-81115701D01*
X155879802Y-81038855D01*
X155694648Y-80999500D01*
X155694646Y-80999500D01*
X155505354Y-80999500D01*
X155505352Y-80999500D01*
X155320197Y-81038855D01*
X155147269Y-81115848D01*
X155026885Y-81203312D01*
X154961079Y-81226792D01*
X154893025Y-81210966D01*
X154844330Y-81160860D01*
X154830000Y-81102994D01*
X154830000Y-80550000D01*
X152125572Y-80550000D01*
X152148682Y-80514040D01*
X152190000Y-80373327D01*
X152190000Y-80226673D01*
X152148682Y-80085960D01*
X152125572Y-80050000D01*
X154830000Y-80050000D01*
X154830000Y-79405481D01*
X154829645Y-79398867D01*
X154823599Y-79342628D01*
X154773352Y-79207911D01*
X154696109Y-79104727D01*
X154671692Y-79039263D01*
X154686544Y-78970990D01*
X154696100Y-78956118D01*
X154773796Y-78852331D01*
X154824091Y-78717483D01*
X154830500Y-78657873D01*
X154830499Y-76862128D01*
X154824091Y-76802517D01*
X154773796Y-76667669D01*
X154696420Y-76564308D01*
X154672004Y-76498846D01*
X154686856Y-76430573D01*
X154696411Y-76415702D01*
X154773796Y-76312331D01*
X154824091Y-76177483D01*
X154830500Y-76117873D01*
X154830499Y-74322128D01*
X154824091Y-74262517D01*
X154773796Y-74127669D01*
X154687546Y-74012454D01*
X154572331Y-73926204D01*
X154437483Y-73875909D01*
X154377873Y-73869500D01*
X154374551Y-73869500D01*
X151744385Y-73869500D01*
X151733578Y-73869028D01*
X151679999Y-73864340D01*
X151626420Y-73869028D01*
X151615613Y-73869500D01*
X150785439Y-73869500D01*
X150785420Y-73869500D01*
X150782128Y-73869501D01*
X150778848Y-73869853D01*
X150778840Y-73869854D01*
X150722515Y-73875909D01*
X150587669Y-73926204D01*
X150472454Y-74012454D01*
X150386204Y-74127668D01*
X150335910Y-74262515D01*
X150335909Y-74262517D01*
X150329500Y-74322127D01*
X150329500Y-74325448D01*
X150329500Y-74325449D01*
X150329500Y-75155615D01*
X150329028Y-75166422D01*
X150324340Y-75219999D01*
X150329028Y-75273576D01*
X150329500Y-75284384D01*
X150329500Y-76114560D01*
X150329500Y-76114578D01*
X150329501Y-76117872D01*
X150329853Y-76121152D01*
X150329854Y-76121159D01*
X150335909Y-76177484D01*
X150386204Y-76312332D01*
X150463577Y-76415690D01*
X150487994Y-76481154D01*
X150473142Y-76549427D01*
X150463577Y-76564310D01*
X150386205Y-76667666D01*
X150335909Y-76802516D01*
X150334476Y-76815849D01*
X150329500Y-76862127D01*
X150329500Y-76865449D01*
X150329500Y-77695615D01*
X150329028Y-77706422D01*
X150324340Y-77759999D01*
X150329028Y-77813576D01*
X150329500Y-77824384D01*
X150329500Y-78654560D01*
X150329500Y-78654578D01*
X150329501Y-78657872D01*
X150329853Y-78661152D01*
X150329854Y-78661159D01*
X150335909Y-78717484D01*
X150386203Y-78852329D01*
X150386204Y-78852331D01*
X150463890Y-78956106D01*
X150488307Y-79021569D01*
X150473456Y-79089842D01*
X150463890Y-79104726D01*
X150386648Y-79207908D01*
X150336400Y-79342628D01*
X150330354Y-79398867D01*
X150330000Y-79405481D01*
X150330000Y-80050000D01*
X151234428Y-80050000D01*
X151211318Y-80085960D01*
X151170000Y-80226673D01*
X151170000Y-80373327D01*
X151211318Y-80514040D01*
X151234428Y-80550000D01*
X150330000Y-80550000D01*
X150330000Y-81194518D01*
X150330354Y-81201132D01*
X150336400Y-81257371D01*
X150386647Y-81392089D01*
X150463890Y-81495272D01*
X150488307Y-81560737D01*
X150473455Y-81629010D01*
X150463890Y-81643894D01*
X150386204Y-81747668D01*
X150335910Y-81882515D01*
X150335909Y-81882517D01*
X150329500Y-81942127D01*
X150329500Y-81945449D01*
X150329500Y-82775615D01*
X150329028Y-82786422D01*
X150324340Y-82839999D01*
X150329028Y-82893576D01*
X150329500Y-82904384D01*
X150329500Y-83216997D01*
X150329501Y-83455500D01*
X150309817Y-83522539D01*
X150257013Y-83568294D01*
X150205501Y-83579500D01*
X144952435Y-83579500D01*
X144931931Y-83577236D01*
X144861839Y-83579439D01*
X144857945Y-83579500D01*
X144830345Y-83579500D01*
X144826484Y-83579987D01*
X144826473Y-83579988D01*
X144826340Y-83580005D01*
X144814724Y-83580918D01*
X144771063Y-83582290D01*
X144751824Y-83587880D01*
X144732775Y-83591825D01*
X144712903Y-83594335D01*
X144672288Y-83610415D01*
X144661244Y-83614196D01*
X144619306Y-83626382D01*
X144602059Y-83636581D01*
X144584595Y-83645136D01*
X144565962Y-83652514D01*
X144530621Y-83678189D01*
X144520863Y-83684599D01*
X144483274Y-83706829D01*
X144469105Y-83720998D01*
X144454317Y-83733628D01*
X144438108Y-83745405D01*
X144410267Y-83779058D01*
X144402406Y-83787696D01*
X139716208Y-88473894D01*
X139700110Y-88486791D01*
X139652096Y-88537920D01*
X139649392Y-88540711D01*
X139632628Y-88557475D01*
X139632621Y-88557482D01*
X139629880Y-88560224D01*
X139627499Y-88563292D01*
X139627490Y-88563303D01*
X139627411Y-88563406D01*
X139619842Y-88572267D01*
X139589935Y-88604115D01*
X139580285Y-88621669D01*
X139569609Y-88637923D01*
X139557326Y-88653758D01*
X139539975Y-88693853D01*
X139534838Y-88704339D01*
X139513802Y-88742602D01*
X139508821Y-88762004D01*
X139502520Y-88780406D01*
X139494561Y-88798797D01*
X139487728Y-88841937D01*
X139485360Y-88853369D01*
X139474500Y-88895672D01*
X139474500Y-88915711D01*
X139472973Y-88935109D01*
X139469840Y-88954889D01*
X139473950Y-88998368D01*
X139474500Y-89010038D01*
X139474500Y-106173150D01*
X139454815Y-106240189D01*
X139438181Y-106260831D01*
X135580832Y-110118181D01*
X135519509Y-110151666D01*
X135493151Y-110154500D01*
X135374499Y-110154500D01*
X135307460Y-110134815D01*
X135261705Y-110082011D01*
X135250499Y-110030500D01*
X135250499Y-109885439D01*
X135250499Y-109882128D01*
X135244091Y-109822517D01*
X135193796Y-109687669D01*
X135116421Y-109584310D01*
X135092005Y-109518846D01*
X135106857Y-109450573D01*
X135116422Y-109435689D01*
X135142318Y-109401096D01*
X135193796Y-109332331D01*
X135244091Y-109197483D01*
X135250500Y-109137873D01*
X135250499Y-108304384D01*
X135250971Y-108293576D01*
X135255659Y-108239999D01*
X135250971Y-108186422D01*
X135250499Y-108175613D01*
X135250499Y-107345439D01*
X135250499Y-107342128D01*
X135244091Y-107282517D01*
X135193796Y-107147669D01*
X135116108Y-107043892D01*
X135091692Y-106978428D01*
X135106544Y-106910155D01*
X135116110Y-106895270D01*
X135193352Y-106792089D01*
X135243599Y-106657371D01*
X135249645Y-106601132D01*
X135250000Y-106594518D01*
X135250000Y-105950000D01*
X134345572Y-105950000D01*
X134368682Y-105914040D01*
X134410000Y-105773327D01*
X134410000Y-105626673D01*
X134368682Y-105485960D01*
X134345572Y-105450000D01*
X135250000Y-105450000D01*
X135250000Y-104805481D01*
X135249645Y-104798867D01*
X135243599Y-104742628D01*
X135193352Y-104607911D01*
X135116109Y-104504727D01*
X135091692Y-104439263D01*
X135106544Y-104370990D01*
X135116100Y-104356118D01*
X135193796Y-104252331D01*
X135244091Y-104117483D01*
X135250500Y-104057873D01*
X135250499Y-103224384D01*
X135250971Y-103213576D01*
X135251005Y-103213184D01*
X135255659Y-103160000D01*
X135250970Y-103106420D01*
X135250499Y-103095613D01*
X135250499Y-102265439D01*
X135250499Y-102262128D01*
X135244091Y-102202517D01*
X135193796Y-102067669D01*
X135116421Y-101964310D01*
X135092005Y-101898846D01*
X135106857Y-101830573D01*
X135116422Y-101815689D01*
X135116423Y-101815688D01*
X135193796Y-101712331D01*
X135244091Y-101577483D01*
X135250500Y-101517873D01*
X135250499Y-100684384D01*
X135250971Y-100673576D01*
X135255659Y-100619999D01*
X135250971Y-100566422D01*
X135250499Y-100555613D01*
X135250499Y-99725439D01*
X135250499Y-99722128D01*
X135244091Y-99662517D01*
X135193796Y-99527669D01*
X135116421Y-99424310D01*
X135092005Y-99358846D01*
X135106857Y-99290573D01*
X135116422Y-99275689D01*
X135116423Y-99275688D01*
X135193796Y-99172331D01*
X135244091Y-99037483D01*
X135250500Y-98977873D01*
X135250499Y-98144384D01*
X135250971Y-98133576D01*
X135255659Y-98079999D01*
X135250971Y-98026422D01*
X135250499Y-98015613D01*
X135250499Y-97185439D01*
X135250499Y-97182128D01*
X135244091Y-97122517D01*
X135193796Y-96987669D01*
X135116421Y-96884310D01*
X135092005Y-96818846D01*
X135106857Y-96750573D01*
X135116422Y-96735689D01*
X135193796Y-96632331D01*
X135244091Y-96497483D01*
X135250500Y-96437873D01*
X135250499Y-95604384D01*
X135250971Y-95593576D01*
X135255659Y-95539999D01*
X135250971Y-95486422D01*
X135250499Y-95475613D01*
X135250499Y-94645439D01*
X135250499Y-94642128D01*
X135244091Y-94582517D01*
X135193796Y-94447669D01*
X135116108Y-94343892D01*
X135091692Y-94278428D01*
X135106544Y-94210155D01*
X135116110Y-94195270D01*
X135193352Y-94092089D01*
X135243599Y-93957371D01*
X135249645Y-93901132D01*
X135250000Y-93894518D01*
X135250000Y-93250000D01*
X134345572Y-93250000D01*
X134368682Y-93214040D01*
X134410000Y-93073327D01*
X134410000Y-92926673D01*
X134368682Y-92785960D01*
X134345572Y-92750000D01*
X135250000Y-92750000D01*
X135250000Y-92105481D01*
X135249645Y-92098867D01*
X135243599Y-92042628D01*
X135193352Y-91907911D01*
X135116109Y-91804727D01*
X135091692Y-91739263D01*
X135106544Y-91670990D01*
X135116100Y-91656118D01*
X135193796Y-91552331D01*
X135244091Y-91417483D01*
X135250500Y-91357873D01*
X135250499Y-90524384D01*
X135250971Y-90513576D01*
X135255099Y-90466395D01*
X135255659Y-90460000D01*
X135250970Y-90406420D01*
X135250499Y-90395613D01*
X135250499Y-89565439D01*
X135250499Y-89562128D01*
X135244091Y-89502517D01*
X135193796Y-89367669D01*
X135116421Y-89264310D01*
X135092005Y-89198846D01*
X135106857Y-89130573D01*
X135116422Y-89115689D01*
X135193796Y-89012331D01*
X135244091Y-88877483D01*
X135250500Y-88817873D01*
X135250499Y-87984384D01*
X135250971Y-87973576D01*
X135255659Y-87919999D01*
X135250971Y-87866422D01*
X135250499Y-87855613D01*
X135250499Y-87025439D01*
X135250499Y-87022128D01*
X135244091Y-86962517D01*
X135193796Y-86827669D01*
X135116421Y-86724310D01*
X135092005Y-86658846D01*
X135106857Y-86590573D01*
X135116422Y-86575689D01*
X135193796Y-86472331D01*
X135244091Y-86337483D01*
X135250500Y-86277873D01*
X135250499Y-85444384D01*
X135250971Y-85433576D01*
X135255659Y-85379999D01*
X135250971Y-85326422D01*
X135250499Y-85315613D01*
X135250499Y-85142230D01*
X135270184Y-85075191D01*
X135286818Y-85054549D01*
X136437705Y-83903662D01*
X137685642Y-82655724D01*
X137699260Y-82643954D01*
X137718530Y-82629610D01*
X137750366Y-82591667D01*
X137757680Y-82583688D01*
X137758264Y-82583103D01*
X137761591Y-82579777D01*
X137780833Y-82555439D01*
X137783090Y-82552670D01*
X137797853Y-82535075D01*
X137831302Y-82495214D01*
X137831303Y-82495211D01*
X137832115Y-82494244D01*
X137842573Y-82477827D01*
X137843106Y-82476682D01*
X137843111Y-82476677D01*
X137874833Y-82408646D01*
X137876362Y-82405488D01*
X137910040Y-82338433D01*
X137910040Y-82338432D01*
X137910612Y-82337294D01*
X137917000Y-82318914D01*
X137917255Y-82317675D01*
X137917257Y-82317673D01*
X137932447Y-82244103D01*
X137933186Y-82240770D01*
X137950500Y-82167721D01*
X137950500Y-82167716D01*
X137950791Y-82166489D01*
X137952770Y-82147121D01*
X137952733Y-82145859D01*
X137952734Y-82145856D01*
X137950552Y-82070868D01*
X137950500Y-82067262D01*
X137950500Y-78380000D01*
X139109723Y-78380000D01*
X139111332Y-78398400D01*
X139111678Y-78414753D01*
X139110709Y-78436328D01*
X139121444Y-78515576D01*
X139122094Y-78521413D01*
X139128792Y-78597976D01*
X139134461Y-78619132D01*
X139137564Y-78634578D01*
X139140925Y-78659390D01*
X139164573Y-78732170D01*
X139166416Y-78738393D01*
X139185423Y-78809327D01*
X139196135Y-78832298D01*
X139201683Y-78846383D01*
X139210481Y-78873460D01*
X139245128Y-78937847D01*
X139248314Y-78944199D01*
X139277896Y-79007637D01*
X139294406Y-79031215D01*
X139302023Y-79043575D01*
X139317148Y-79071681D01*
X139348105Y-79110500D01*
X139360588Y-79126153D01*
X139365214Y-79132340D01*
X139403403Y-79186878D01*
X139426186Y-79209661D01*
X139435452Y-79220029D01*
X139457493Y-79247667D01*
X139507387Y-79291259D01*
X139513484Y-79296959D01*
X139558123Y-79341598D01*
X139587330Y-79362049D01*
X139597793Y-79370244D01*
X139617585Y-79387535D01*
X139627004Y-79395765D01*
X139680940Y-79427990D01*
X139688435Y-79432843D01*
X139737361Y-79467102D01*
X139747490Y-79471825D01*
X139772799Y-79483628D01*
X139783991Y-79489560D01*
X139820236Y-79511215D01*
X139820239Y-79511216D01*
X139875839Y-79532083D01*
X139884669Y-79535792D01*
X139928999Y-79556464D01*
X139935670Y-79559575D01*
X139976757Y-79570584D01*
X139988235Y-79574266D01*
X139999903Y-79578645D01*
X140030976Y-79590307D01*
X140086024Y-79600296D01*
X140095970Y-79602527D01*
X140147023Y-79616207D01*
X140191133Y-79620065D01*
X140192814Y-79620213D01*
X140204148Y-79621733D01*
X140252453Y-79630500D01*
X140304985Y-79630500D01*
X140315791Y-79630971D01*
X140338447Y-79632954D01*
X140364999Y-79635277D01*
X140364999Y-79635276D01*
X140365000Y-79635277D01*
X140418286Y-79630615D01*
X140420025Y-79630500D01*
X140421155Y-79630500D01*
X140475172Y-79625638D01*
X140475172Y-79625637D01*
X140587665Y-79615797D01*
X140589186Y-79615377D01*
X140589188Y-79615377D01*
X140692997Y-79586726D01*
X140794330Y-79559575D01*
X140794330Y-79559574D01*
X140799379Y-79558222D01*
X140804153Y-79556464D01*
X140806168Y-79555493D01*
X140806170Y-79555493D01*
X140900454Y-79510088D01*
X140992639Y-79467102D01*
X140992647Y-79467095D01*
X140994393Y-79466282D01*
X141008155Y-79458222D01*
X141008973Y-79457829D01*
X141091156Y-79398118D01*
X141171877Y-79341598D01*
X141172748Y-79340726D01*
X141187543Y-79328089D01*
X141191078Y-79325522D01*
X141258237Y-79255277D01*
X141260097Y-79253377D01*
X141326593Y-79186882D01*
X141326593Y-79186881D01*
X141326598Y-79186877D01*
X141329285Y-79183039D01*
X141341232Y-79168471D01*
X141346632Y-79162825D01*
X141398288Y-79084566D01*
X141400082Y-79081929D01*
X141452102Y-79007639D01*
X141455539Y-79000267D01*
X141464434Y-78984362D01*
X141464585Y-78984132D01*
X141470635Y-78974968D01*
X141506114Y-78891958D01*
X141507713Y-78888377D01*
X141544575Y-78809330D01*
X141547572Y-78798143D01*
X141553324Y-78781508D01*
X141559102Y-78767990D01*
X141559101Y-78767990D01*
X141559103Y-78767988D01*
X141578434Y-78683291D01*
X141579533Y-78678863D01*
X141584752Y-78659387D01*
X141601207Y-78597977D01*
X141602516Y-78583005D01*
X141605153Y-78566227D01*
X141609191Y-78548537D01*
X141612934Y-78465183D01*
X141613274Y-78460039D01*
X141620277Y-78380000D01*
X143959723Y-78380000D01*
X143961332Y-78398400D01*
X143961678Y-78414753D01*
X143960709Y-78436328D01*
X143971444Y-78515576D01*
X143972094Y-78521413D01*
X143978792Y-78597976D01*
X143984461Y-78619132D01*
X143987564Y-78634578D01*
X143990925Y-78659390D01*
X144014573Y-78732170D01*
X144016416Y-78738393D01*
X144035423Y-78809327D01*
X144046135Y-78832298D01*
X144051683Y-78846383D01*
X144060481Y-78873460D01*
X144095128Y-78937847D01*
X144098314Y-78944199D01*
X144127896Y-79007637D01*
X144144406Y-79031215D01*
X144152023Y-79043575D01*
X144167148Y-79071681D01*
X144198105Y-79110500D01*
X144210588Y-79126153D01*
X144215214Y-79132340D01*
X144253403Y-79186878D01*
X144276186Y-79209661D01*
X144285452Y-79220029D01*
X144307493Y-79247667D01*
X144357387Y-79291259D01*
X144363484Y-79296959D01*
X144408123Y-79341598D01*
X144437330Y-79362049D01*
X144447793Y-79370244D01*
X144467585Y-79387535D01*
X144477004Y-79395765D01*
X144530940Y-79427990D01*
X144538435Y-79432843D01*
X144587361Y-79467102D01*
X144597490Y-79471825D01*
X144622799Y-79483628D01*
X144633991Y-79489560D01*
X144670236Y-79511215D01*
X144670239Y-79511216D01*
X144725839Y-79532083D01*
X144734669Y-79535792D01*
X144778999Y-79556464D01*
X144785670Y-79559575D01*
X144826757Y-79570584D01*
X144838235Y-79574266D01*
X144849903Y-79578645D01*
X144880976Y-79590307D01*
X144936024Y-79600296D01*
X144945970Y-79602527D01*
X144997023Y-79616207D01*
X145041133Y-79620065D01*
X145042814Y-79620213D01*
X145054148Y-79621733D01*
X145102453Y-79630500D01*
X145154985Y-79630500D01*
X145165791Y-79630971D01*
X145188447Y-79632954D01*
X145214999Y-79635277D01*
X145214999Y-79635276D01*
X145215000Y-79635277D01*
X145268286Y-79630615D01*
X145270025Y-79630500D01*
X145271155Y-79630500D01*
X145325172Y-79625638D01*
X145325171Y-79625637D01*
X145437665Y-79615797D01*
X145439186Y-79615377D01*
X145439188Y-79615377D01*
X145542997Y-79586726D01*
X145644330Y-79559575D01*
X145644330Y-79559574D01*
X145649379Y-79558222D01*
X145654153Y-79556464D01*
X145656168Y-79555493D01*
X145656170Y-79555493D01*
X145750454Y-79510088D01*
X145842639Y-79467102D01*
X145842647Y-79467095D01*
X145844393Y-79466282D01*
X145858155Y-79458222D01*
X145858973Y-79457829D01*
X145941156Y-79398118D01*
X146021877Y-79341598D01*
X146022748Y-79340726D01*
X146037543Y-79328089D01*
X146041078Y-79325522D01*
X146108237Y-79255277D01*
X146110097Y-79253377D01*
X146176593Y-79186882D01*
X146176593Y-79186881D01*
X146176598Y-79186877D01*
X146179285Y-79183039D01*
X146191232Y-79168471D01*
X146196632Y-79162825D01*
X146248288Y-79084566D01*
X146250082Y-79081929D01*
X146302102Y-79007639D01*
X146305539Y-79000267D01*
X146314434Y-78984362D01*
X146314585Y-78984132D01*
X146320635Y-78974968D01*
X146356114Y-78891958D01*
X146357713Y-78888377D01*
X146394575Y-78809330D01*
X146397572Y-78798143D01*
X146403324Y-78781508D01*
X146409102Y-78767990D01*
X146409101Y-78767990D01*
X146409103Y-78767988D01*
X146428434Y-78683291D01*
X146429533Y-78678863D01*
X146434752Y-78659387D01*
X146451207Y-78597977D01*
X146452516Y-78583005D01*
X146455153Y-78566227D01*
X146459191Y-78548537D01*
X146462934Y-78465183D01*
X146463274Y-78460039D01*
X146470277Y-78380000D01*
X146468667Y-78361608D01*
X146468321Y-78345238D01*
X146469290Y-78323670D01*
X146458549Y-78244385D01*
X146457905Y-78238596D01*
X146453984Y-78193767D01*
X146451208Y-78162027D01*
X146451206Y-78162020D01*
X146445536Y-78140860D01*
X146442434Y-78125414D01*
X146442323Y-78124592D01*
X146439075Y-78100613D01*
X146415421Y-78027816D01*
X146413578Y-78021592D01*
X146399855Y-77970375D01*
X146394575Y-77950670D01*
X146383865Y-77927704D01*
X146378317Y-77913619D01*
X146369517Y-77886535D01*
X146334869Y-77822148D01*
X146331681Y-77815794D01*
X146302102Y-77752362D01*
X146302102Y-77752361D01*
X146285591Y-77728782D01*
X146277975Y-77716423D01*
X146262852Y-77688319D01*
X146219404Y-77633837D01*
X146214785Y-77627661D01*
X146176598Y-77573123D01*
X146153804Y-77550329D01*
X146144546Y-77539969D01*
X146122506Y-77512332D01*
X146072611Y-77468739D01*
X146066514Y-77463039D01*
X146021878Y-77418402D01*
X145992664Y-77397947D01*
X145982210Y-77389759D01*
X145952996Y-77364235D01*
X145952991Y-77364232D01*
X145899073Y-77332017D01*
X145891550Y-77327145D01*
X145842640Y-77292898D01*
X145821043Y-77282827D01*
X145807201Y-77276372D01*
X145796014Y-77270442D01*
X145759764Y-77248784D01*
X145704171Y-77227921D01*
X145695349Y-77224216D01*
X145644330Y-77200425D01*
X145644328Y-77200424D01*
X145616575Y-77192987D01*
X145603228Y-77189411D01*
X145591762Y-77185732D01*
X145549024Y-77169693D01*
X145505636Y-77161818D01*
X145493964Y-77159700D01*
X145484018Y-77157468D01*
X145432980Y-77143793D01*
X145387175Y-77139785D01*
X145375846Y-77138264D01*
X145327550Y-77129500D01*
X145327547Y-77129500D01*
X145275015Y-77129500D01*
X145264208Y-77129028D01*
X145260485Y-77128702D01*
X145214999Y-77124722D01*
X145161723Y-77129384D01*
X145159970Y-77129500D01*
X145158845Y-77129500D01*
X145156099Y-77129747D01*
X145156078Y-77129748D01*
X145104827Y-77134361D01*
X144992333Y-77144202D01*
X144887002Y-77173273D01*
X144780661Y-77201767D01*
X144775813Y-77203551D01*
X144717330Y-77231715D01*
X144679528Y-77249919D01*
X144645055Y-77265994D01*
X144585634Y-77293703D01*
X144571875Y-77301762D01*
X144571029Y-77302169D01*
X144488830Y-77361889D01*
X144408120Y-77418403D01*
X144407235Y-77419289D01*
X144392467Y-77431901D01*
X144388923Y-77434476D01*
X144321846Y-77504632D01*
X144319903Y-77506619D01*
X144253401Y-77573122D01*
X144250708Y-77576968D01*
X144238776Y-77591517D01*
X144233370Y-77597172D01*
X144181775Y-77675333D01*
X144179866Y-77678141D01*
X144127897Y-77752363D01*
X144124460Y-77759734D01*
X144115571Y-77775629D01*
X144109364Y-77785032D01*
X144073893Y-77868021D01*
X144072260Y-77871676D01*
X144065331Y-77886536D01*
X144035423Y-77950673D01*
X144032426Y-77961856D01*
X144026680Y-77978478D01*
X144020897Y-77992009D01*
X144001576Y-78076659D01*
X144000460Y-78081157D01*
X143978793Y-78162020D01*
X143977483Y-78176993D01*
X143974847Y-78193767D01*
X143970809Y-78211460D01*
X143967066Y-78294777D01*
X143966719Y-78300016D01*
X143959723Y-78379995D01*
X143959723Y-78380000D01*
X141620277Y-78380000D01*
X141618667Y-78361608D01*
X141618321Y-78345238D01*
X141619290Y-78323670D01*
X141608549Y-78244385D01*
X141607905Y-78238596D01*
X141603984Y-78193767D01*
X141601208Y-78162027D01*
X141601206Y-78162020D01*
X141595536Y-78140860D01*
X141592434Y-78125414D01*
X141592323Y-78124592D01*
X141589075Y-78100613D01*
X141565421Y-78027816D01*
X141563578Y-78021592D01*
X141549855Y-77970375D01*
X141544575Y-77950670D01*
X141533865Y-77927704D01*
X141528317Y-77913619D01*
X141519517Y-77886535D01*
X141484869Y-77822148D01*
X141481681Y-77815794D01*
X141452102Y-77752362D01*
X141452102Y-77752361D01*
X141435591Y-77728782D01*
X141427975Y-77716423D01*
X141412852Y-77688319D01*
X141369404Y-77633837D01*
X141364785Y-77627661D01*
X141326598Y-77573123D01*
X141303804Y-77550329D01*
X141294546Y-77539969D01*
X141272506Y-77512332D01*
X141222611Y-77468739D01*
X141216514Y-77463039D01*
X141171878Y-77418402D01*
X141142664Y-77397947D01*
X141132210Y-77389759D01*
X141102996Y-77364235D01*
X141102991Y-77364232D01*
X141049073Y-77332017D01*
X141041550Y-77327145D01*
X140992640Y-77292898D01*
X140971043Y-77282827D01*
X140957201Y-77276372D01*
X140946014Y-77270442D01*
X140909764Y-77248784D01*
X140854171Y-77227921D01*
X140845349Y-77224216D01*
X140794330Y-77200425D01*
X140794328Y-77200424D01*
X140766575Y-77192987D01*
X140753228Y-77189411D01*
X140741762Y-77185732D01*
X140699024Y-77169693D01*
X140655636Y-77161818D01*
X140643964Y-77159700D01*
X140634018Y-77157468D01*
X140582980Y-77143793D01*
X140537175Y-77139785D01*
X140525846Y-77138264D01*
X140477550Y-77129500D01*
X140477547Y-77129500D01*
X140425015Y-77129500D01*
X140414208Y-77129028D01*
X140410485Y-77128702D01*
X140364999Y-77124722D01*
X140311723Y-77129384D01*
X140309970Y-77129500D01*
X140308845Y-77129500D01*
X140306099Y-77129747D01*
X140306078Y-77129748D01*
X140254827Y-77134361D01*
X140142333Y-77144202D01*
X140037002Y-77173273D01*
X139930661Y-77201767D01*
X139925813Y-77203551D01*
X139867330Y-77231715D01*
X139829528Y-77249919D01*
X139795055Y-77265994D01*
X139735634Y-77293703D01*
X139721875Y-77301762D01*
X139721029Y-77302169D01*
X139638830Y-77361889D01*
X139558120Y-77418403D01*
X139557235Y-77419289D01*
X139542467Y-77431901D01*
X139538923Y-77434476D01*
X139471846Y-77504632D01*
X139469903Y-77506619D01*
X139403401Y-77573122D01*
X139400708Y-77576968D01*
X139388776Y-77591517D01*
X139383370Y-77597172D01*
X139331775Y-77675333D01*
X139329866Y-77678141D01*
X139277897Y-77752363D01*
X139274460Y-77759734D01*
X139265571Y-77775629D01*
X139259364Y-77785032D01*
X139223893Y-77868021D01*
X139222260Y-77871676D01*
X139215331Y-77886536D01*
X139185423Y-77950673D01*
X139182426Y-77961856D01*
X139176680Y-77978478D01*
X139170897Y-77992009D01*
X139151576Y-78076659D01*
X139150460Y-78081157D01*
X139128793Y-78162020D01*
X139127483Y-78176993D01*
X139124847Y-78193767D01*
X139120809Y-78211460D01*
X139117066Y-78294777D01*
X139116719Y-78300016D01*
X139109723Y-78379995D01*
X139109723Y-78380000D01*
X137950500Y-78380000D01*
X137950500Y-78134321D01*
X137967113Y-78072321D01*
X138027179Y-77968284D01*
X138045359Y-77912331D01*
X138085674Y-77788256D01*
X138105460Y-77600000D01*
X138085674Y-77411744D01*
X138050071Y-77302169D01*
X138027179Y-77231715D01*
X137932533Y-77067783D01*
X137805870Y-76927110D01*
X137652730Y-76815848D01*
X137479802Y-76738855D01*
X137294648Y-76699500D01*
X137294646Y-76699500D01*
X137105354Y-76699500D01*
X137105352Y-76699500D01*
X136920197Y-76738855D01*
X136747269Y-76815848D01*
X136594129Y-76927110D01*
X136467466Y-77067783D01*
X136372820Y-77231715D01*
X136314326Y-77411742D01*
X136294540Y-77600000D01*
X136314326Y-77788257D01*
X136372820Y-77968284D01*
X136432887Y-78072321D01*
X136449500Y-78134321D01*
X136449500Y-81717769D01*
X136429815Y-81784808D01*
X136413181Y-81805450D01*
X135462180Y-82756451D01*
X135400857Y-82789936D01*
X135331165Y-82784952D01*
X135275232Y-82743080D01*
X135250815Y-82677616D01*
X135250499Y-82668770D01*
X135250499Y-81945439D01*
X135250499Y-81942128D01*
X135244091Y-81882517D01*
X135193796Y-81747669D01*
X135116108Y-81643892D01*
X135091692Y-81578428D01*
X135106544Y-81510155D01*
X135116110Y-81495270D01*
X135193352Y-81392089D01*
X135243599Y-81257371D01*
X135249645Y-81201132D01*
X135250000Y-81194518D01*
X135250000Y-80550000D01*
X134345572Y-80550000D01*
X134368682Y-80514040D01*
X134410000Y-80373327D01*
X134410000Y-80226673D01*
X134368682Y-80085960D01*
X134345572Y-80050000D01*
X135250000Y-80050000D01*
X135250000Y-79405481D01*
X135249645Y-79398867D01*
X135243599Y-79342628D01*
X135193352Y-79207911D01*
X135116109Y-79104727D01*
X135091692Y-79039263D01*
X135106544Y-78970990D01*
X135116100Y-78956118D01*
X135193796Y-78852331D01*
X135244091Y-78717483D01*
X135250500Y-78657873D01*
X135250499Y-77824384D01*
X135250971Y-77813576D01*
X135255659Y-77759999D01*
X135252261Y-77721166D01*
X135250970Y-77706420D01*
X135250499Y-77695613D01*
X135250499Y-76865439D01*
X135250499Y-76862128D01*
X135244091Y-76802517D01*
X135193796Y-76667669D01*
X135116421Y-76564310D01*
X135092005Y-76498846D01*
X135106857Y-76430573D01*
X135116422Y-76415689D01*
X135193796Y-76312331D01*
X135244091Y-76177483D01*
X135250500Y-76117873D01*
X135250499Y-75349998D01*
X138659699Y-75349998D01*
X138666750Y-75435097D01*
X138667061Y-75440071D01*
X138670820Y-75528532D01*
X138675092Y-75548356D01*
X138677451Y-75564237D01*
X138678865Y-75581301D01*
X138700661Y-75667371D01*
X138701669Y-75671676D01*
X138713630Y-75727171D01*
X138721046Y-75761581D01*
X138727333Y-75777226D01*
X138732479Y-75793017D01*
X138735843Y-75806301D01*
X138772875Y-75890727D01*
X138774377Y-75894301D01*
X138809936Y-75982790D01*
X138816979Y-75994229D01*
X138824945Y-76009431D01*
X138829076Y-76018849D01*
X138881366Y-76098886D01*
X138883147Y-76101693D01*
X138934931Y-76185796D01*
X138941539Y-76193303D01*
X138952268Y-76207409D01*
X138956021Y-76213153D01*
X139023117Y-76286040D01*
X139024930Y-76288054D01*
X139092437Y-76364756D01*
X139097561Y-76368894D01*
X139110886Y-76381382D01*
X139113216Y-76383913D01*
X139194933Y-76447515D01*
X139277920Y-76514523D01*
X139280685Y-76516067D01*
X139296359Y-76526458D01*
X139296374Y-76526470D01*
X139390162Y-76577225D01*
X139486046Y-76630790D01*
X139486051Y-76630791D01*
X139486252Y-76630904D01*
X139497584Y-76635935D01*
X139500492Y-76636933D01*
X139500497Y-76636936D01*
X139604276Y-76672563D01*
X139710829Y-76710211D01*
X139710836Y-76710212D01*
X139713802Y-76711260D01*
X139720015Y-76712296D01*
X139720019Y-76712298D01*
X139831324Y-76730871D01*
X139945799Y-76750500D01*
X139945800Y-76750500D01*
X140181047Y-76750500D01*
X140181049Y-76750500D01*
X140235010Y-76741494D01*
X140244905Y-76740251D01*
X140302541Y-76735346D01*
X140351941Y-76722482D01*
X140362760Y-76720177D01*
X140396485Y-76714550D01*
X140409982Y-76712298D01*
X140464946Y-76693428D01*
X140473949Y-76690714D01*
X140533249Y-76675275D01*
X140576642Y-76655659D01*
X140587443Y-76651374D01*
X140629503Y-76636936D01*
X140683622Y-76607647D01*
X140691530Y-76603726D01*
X140750486Y-76577077D01*
X140787108Y-76552324D01*
X140797515Y-76546011D01*
X140833626Y-76526470D01*
X140884877Y-76486578D01*
X140891589Y-76481706D01*
X140932716Y-76453910D01*
X140948002Y-76443580D01*
X140948776Y-76442837D01*
X140977460Y-76415345D01*
X140987064Y-76407044D01*
X141016784Y-76383913D01*
X141063081Y-76333619D01*
X141068490Y-76328100D01*
X141120118Y-76278621D01*
X141142350Y-76248559D01*
X141150797Y-76238333D01*
X141173979Y-76213153D01*
X141213238Y-76153060D01*
X141217312Y-76147203D01*
X141261879Y-76086947D01*
X141277163Y-76056630D01*
X141284079Y-76044632D01*
X141287704Y-76039082D01*
X141300924Y-76018849D01*
X141331123Y-75950000D01*
X141333927Y-75944045D01*
X141369207Y-75874074D01*
X141378150Y-75844868D01*
X141383158Y-75831374D01*
X141394157Y-75806300D01*
X141413453Y-75730099D01*
X141415088Y-75724255D01*
X141439015Y-75646126D01*
X141439014Y-75646126D01*
X141439016Y-75646123D01*
X141442461Y-75619215D01*
X141445247Y-75604548D01*
X141451134Y-75581305D01*
X141457903Y-75499600D01*
X141458484Y-75494095D01*
X141460813Y-75475909D01*
X141469298Y-75409654D01*
X141468291Y-75385960D01*
X141468602Y-75370481D01*
X141470300Y-75350000D01*
X141470300Y-75349998D01*
X144109699Y-75349998D01*
X144116750Y-75435097D01*
X144117061Y-75440071D01*
X144120820Y-75528532D01*
X144125092Y-75548356D01*
X144127451Y-75564237D01*
X144128865Y-75581301D01*
X144150661Y-75667371D01*
X144151669Y-75671676D01*
X144163630Y-75727171D01*
X144171046Y-75761581D01*
X144177333Y-75777226D01*
X144182479Y-75793017D01*
X144185843Y-75806301D01*
X144222875Y-75890727D01*
X144224377Y-75894301D01*
X144259936Y-75982790D01*
X144266979Y-75994229D01*
X144274945Y-76009431D01*
X144279076Y-76018849D01*
X144331366Y-76098886D01*
X144333147Y-76101693D01*
X144384931Y-76185796D01*
X144391539Y-76193303D01*
X144402268Y-76207409D01*
X144406021Y-76213153D01*
X144473117Y-76286040D01*
X144474930Y-76288054D01*
X144542437Y-76364756D01*
X144547561Y-76368894D01*
X144560886Y-76381382D01*
X144563216Y-76383913D01*
X144644933Y-76447515D01*
X144727920Y-76514523D01*
X144730685Y-76516067D01*
X144746359Y-76526458D01*
X144746374Y-76526470D01*
X144840162Y-76577225D01*
X144936046Y-76630790D01*
X144936051Y-76630791D01*
X144936252Y-76630904D01*
X144947584Y-76635935D01*
X144950492Y-76636933D01*
X144950497Y-76636936D01*
X145054276Y-76672563D01*
X145160829Y-76710211D01*
X145160836Y-76710212D01*
X145163802Y-76711260D01*
X145170015Y-76712296D01*
X145170019Y-76712298D01*
X145281323Y-76730871D01*
X145281324Y-76730871D01*
X145395799Y-76750500D01*
X145395800Y-76750500D01*
X145631047Y-76750500D01*
X145631049Y-76750500D01*
X145685010Y-76741494D01*
X145694905Y-76740251D01*
X145752541Y-76735346D01*
X145801941Y-76722482D01*
X145812760Y-76720177D01*
X145846485Y-76714550D01*
X145859982Y-76712298D01*
X145914946Y-76693428D01*
X145923949Y-76690714D01*
X145983249Y-76675275D01*
X146026642Y-76655659D01*
X146037443Y-76651374D01*
X146079503Y-76636936D01*
X146133622Y-76607647D01*
X146141530Y-76603726D01*
X146200486Y-76577077D01*
X146237108Y-76552324D01*
X146247515Y-76546011D01*
X146283626Y-76526470D01*
X146334877Y-76486578D01*
X146341589Y-76481706D01*
X146382716Y-76453910D01*
X146398002Y-76443580D01*
X146398776Y-76442837D01*
X146427460Y-76415345D01*
X146437064Y-76407044D01*
X146466784Y-76383913D01*
X146513081Y-76333619D01*
X146518490Y-76328100D01*
X146570118Y-76278621D01*
X146592350Y-76248559D01*
X146600797Y-76238333D01*
X146623979Y-76213153D01*
X146663238Y-76153060D01*
X146667312Y-76147203D01*
X146711879Y-76086947D01*
X146727163Y-76056630D01*
X146734079Y-76044632D01*
X146737704Y-76039082D01*
X146750924Y-76018849D01*
X146781123Y-75950000D01*
X146783927Y-75944045D01*
X146819207Y-75874074D01*
X146828150Y-75844868D01*
X146833158Y-75831374D01*
X146844157Y-75806300D01*
X146863453Y-75730099D01*
X146865088Y-75724255D01*
X146889015Y-75646126D01*
X146889014Y-75646126D01*
X146889016Y-75646123D01*
X146892461Y-75619215D01*
X146895247Y-75604548D01*
X146901134Y-75581305D01*
X146907903Y-75499600D01*
X146908484Y-75494095D01*
X146910813Y-75475909D01*
X146919298Y-75409654D01*
X146918291Y-75385960D01*
X146918602Y-75370481D01*
X146920300Y-75350000D01*
X146913248Y-75264902D01*
X146912938Y-75259944D01*
X146909180Y-75171468D01*
X146904907Y-75151642D01*
X146902547Y-75135756D01*
X146901134Y-75118695D01*
X146879328Y-75032589D01*
X146878336Y-75028354D01*
X146858954Y-74938419D01*
X146852665Y-74922770D01*
X146847521Y-74906989D01*
X146844157Y-74893700D01*
X146807102Y-74809224D01*
X146805621Y-74805696D01*
X146770066Y-74717214D01*
X146770064Y-74717210D01*
X146763016Y-74705764D01*
X146755051Y-74690561D01*
X146750924Y-74681151D01*
X146698628Y-74601106D01*
X146696879Y-74598350D01*
X146645069Y-74514205D01*
X146638454Y-74506689D01*
X146627730Y-74492588D01*
X146623980Y-74486849D01*
X146623979Y-74486847D01*
X146556876Y-74413953D01*
X146555068Y-74411944D01*
X146527602Y-74380737D01*
X146487564Y-74335245D01*
X146486253Y-74334186D01*
X146482439Y-74331106D01*
X146469115Y-74318619D01*
X146466785Y-74316088D01*
X146399413Y-74263651D01*
X146385066Y-74252484D01*
X146302080Y-74185477D01*
X146302079Y-74185476D01*
X146299315Y-74183932D01*
X146283637Y-74173538D01*
X146283626Y-74173529D01*
X146189837Y-74122774D01*
X146149963Y-74100499D01*
X146093954Y-74069210D01*
X146093952Y-74069209D01*
X146093762Y-74069103D01*
X146082401Y-74064059D01*
X146024953Y-74044337D01*
X145975723Y-74027436D01*
X145916658Y-74006567D01*
X145866203Y-73988740D01*
X145748675Y-73969128D01*
X145634202Y-73949500D01*
X145634200Y-73949500D01*
X145631049Y-73949500D01*
X145398951Y-73949500D01*
X145398949Y-73949500D01*
X145344991Y-73958503D01*
X145335102Y-73959747D01*
X145277460Y-73964653D01*
X145228077Y-73977511D01*
X145217249Y-73979819D01*
X145170023Y-73987701D01*
X145170021Y-73987701D01*
X145170019Y-73987702D01*
X145115056Y-74006570D01*
X145106052Y-74009284D01*
X145046748Y-74024725D01*
X145003361Y-74044337D01*
X144992554Y-74048624D01*
X144950496Y-74063063D01*
X144896395Y-74092341D01*
X144888460Y-74096276D01*
X144829509Y-74122925D01*
X144792882Y-74147679D01*
X144782470Y-74153994D01*
X144746373Y-74173529D01*
X144695124Y-74213417D01*
X144688402Y-74218296D01*
X144631999Y-74256418D01*
X144602549Y-74284643D01*
X144592919Y-74292967D01*
X144563216Y-74316087D01*
X144563214Y-74316088D01*
X144563214Y-74316089D01*
X144516926Y-74366369D01*
X144511500Y-74371905D01*
X144459883Y-74421376D01*
X144437659Y-74451426D01*
X144429196Y-74461670D01*
X144406023Y-74486843D01*
X144366782Y-74546905D01*
X144362671Y-74552815D01*
X144318119Y-74613054D01*
X144302826Y-74643384D01*
X144295917Y-74655371D01*
X144279077Y-74681147D01*
X144248887Y-74749974D01*
X144246054Y-74755987D01*
X144210792Y-74825925D01*
X144201847Y-74855131D01*
X144196842Y-74868620D01*
X144185844Y-74893695D01*
X144166552Y-74969871D01*
X144164912Y-74975736D01*
X144140983Y-75053875D01*
X144137538Y-75080775D01*
X144134750Y-75095455D01*
X144128865Y-75118697D01*
X144122097Y-75200377D01*
X144121517Y-75205886D01*
X144110701Y-75290348D01*
X144111707Y-75314025D01*
X144111396Y-75329520D01*
X144109699Y-75349998D01*
X141470300Y-75349998D01*
X141463248Y-75264902D01*
X141462938Y-75259944D01*
X141459180Y-75171468D01*
X141454907Y-75151642D01*
X141452547Y-75135756D01*
X141451134Y-75118695D01*
X141429328Y-75032589D01*
X141428336Y-75028354D01*
X141408954Y-74938419D01*
X141402665Y-74922770D01*
X141397521Y-74906989D01*
X141394157Y-74893700D01*
X141357102Y-74809224D01*
X141355621Y-74805696D01*
X141320066Y-74717214D01*
X141320064Y-74717210D01*
X141313016Y-74705764D01*
X141305051Y-74690561D01*
X141300924Y-74681151D01*
X141248628Y-74601106D01*
X141246879Y-74598350D01*
X141195069Y-74514205D01*
X141188454Y-74506689D01*
X141177730Y-74492588D01*
X141173980Y-74486849D01*
X141173979Y-74486847D01*
X141106876Y-74413953D01*
X141105068Y-74411944D01*
X141077602Y-74380737D01*
X141037564Y-74335245D01*
X141036253Y-74334186D01*
X141032439Y-74331106D01*
X141019115Y-74318619D01*
X141016785Y-74316088D01*
X140949413Y-74263651D01*
X140935066Y-74252484D01*
X140852080Y-74185477D01*
X140852079Y-74185476D01*
X140849315Y-74183932D01*
X140833637Y-74173538D01*
X140833626Y-74173529D01*
X140739837Y-74122774D01*
X140699963Y-74100499D01*
X140643954Y-74069210D01*
X140643952Y-74069209D01*
X140643762Y-74069103D01*
X140632401Y-74064059D01*
X140574953Y-74044337D01*
X140525723Y-74027436D01*
X140466658Y-74006567D01*
X140416203Y-73988740D01*
X140298675Y-73969128D01*
X140184202Y-73949500D01*
X140184200Y-73949500D01*
X140181049Y-73949500D01*
X139948951Y-73949500D01*
X139948949Y-73949500D01*
X139894991Y-73958503D01*
X139885102Y-73959747D01*
X139827460Y-73964653D01*
X139778077Y-73977511D01*
X139767249Y-73979819D01*
X139720023Y-73987701D01*
X139720021Y-73987701D01*
X139720019Y-73987702D01*
X139665056Y-74006570D01*
X139656052Y-74009284D01*
X139596748Y-74024725D01*
X139553361Y-74044337D01*
X139542554Y-74048624D01*
X139500496Y-74063063D01*
X139446395Y-74092341D01*
X139438460Y-74096276D01*
X139379509Y-74122925D01*
X139342882Y-74147679D01*
X139332470Y-74153994D01*
X139296373Y-74173529D01*
X139245124Y-74213417D01*
X139238402Y-74218296D01*
X139181999Y-74256418D01*
X139152549Y-74284643D01*
X139142919Y-74292967D01*
X139113216Y-74316087D01*
X139113214Y-74316088D01*
X139113214Y-74316089D01*
X139066926Y-74366369D01*
X139061500Y-74371905D01*
X139009883Y-74421376D01*
X138987659Y-74451426D01*
X138979196Y-74461670D01*
X138956023Y-74486843D01*
X138916782Y-74546905D01*
X138912671Y-74552815D01*
X138868119Y-74613054D01*
X138852826Y-74643384D01*
X138845917Y-74655371D01*
X138829077Y-74681147D01*
X138798887Y-74749974D01*
X138796054Y-74755987D01*
X138760792Y-74825925D01*
X138751847Y-74855131D01*
X138746842Y-74868620D01*
X138735844Y-74893695D01*
X138716552Y-74969871D01*
X138714912Y-74975736D01*
X138690983Y-75053875D01*
X138687538Y-75080775D01*
X138684750Y-75095455D01*
X138678865Y-75118697D01*
X138672097Y-75200377D01*
X138671517Y-75205886D01*
X138660701Y-75290348D01*
X138661707Y-75314025D01*
X138661396Y-75329520D01*
X138659699Y-75349998D01*
X135250499Y-75349998D01*
X135250499Y-75284384D01*
X135250971Y-75273576D01*
X135255659Y-75219999D01*
X135250971Y-75166422D01*
X135250499Y-75155613D01*
X135250499Y-74325439D01*
X135250499Y-74322128D01*
X135244091Y-74262517D01*
X135193796Y-74127669D01*
X135107546Y-74012454D01*
X134992331Y-73926204D01*
X134857483Y-73875909D01*
X134797873Y-73869500D01*
X134794551Y-73869500D01*
X133964380Y-73869500D01*
X133953573Y-73869028D01*
X133948960Y-73868624D01*
X133899999Y-73864340D01*
X133846425Y-73869028D01*
X133835617Y-73869500D01*
X131205439Y-73869500D01*
X131205420Y-73869500D01*
X131202128Y-73869501D01*
X131198848Y-73869853D01*
X131198840Y-73869854D01*
X131142515Y-73875909D01*
X131007669Y-73926204D01*
X130892454Y-74012454D01*
X130806204Y-74127668D01*
X130755910Y-74262515D01*
X130755909Y-74262517D01*
X130749500Y-74322127D01*
X130749500Y-74325448D01*
X130749500Y-74325449D01*
X130749500Y-76114560D01*
X130749500Y-76114578D01*
X130749501Y-76117872D01*
X130749853Y-76121152D01*
X130749854Y-76121159D01*
X130755909Y-76177484D01*
X130806204Y-76312332D01*
X130883577Y-76415690D01*
X130907994Y-76481154D01*
X130893142Y-76549427D01*
X130883577Y-76564310D01*
X130806205Y-76667666D01*
X130755909Y-76802516D01*
X130754476Y-76815849D01*
X130749500Y-76862127D01*
X130749500Y-76865448D01*
X130749500Y-76865449D01*
X130749500Y-78654560D01*
X130749500Y-78654578D01*
X130749501Y-78657872D01*
X130749853Y-78661152D01*
X130749854Y-78661159D01*
X130755909Y-78717484D01*
X130806203Y-78852329D01*
X130806204Y-78852331D01*
X130883890Y-78956106D01*
X130908307Y-79021569D01*
X130893456Y-79089842D01*
X130883890Y-79104726D01*
X130806648Y-79207908D01*
X130756400Y-79342628D01*
X130750354Y-79398867D01*
X130750000Y-79405481D01*
X130750000Y-80050000D01*
X133454428Y-80050000D01*
X133431318Y-80085960D01*
X133390000Y-80226673D01*
X133390000Y-80373327D01*
X133431318Y-80514040D01*
X133454428Y-80550000D01*
X130750000Y-80550000D01*
X130750000Y-81194518D01*
X130750354Y-81201132D01*
X130756400Y-81257371D01*
X130806647Y-81392089D01*
X130883890Y-81495272D01*
X130908307Y-81560737D01*
X130893455Y-81629010D01*
X130883890Y-81643894D01*
X130806204Y-81747668D01*
X130755910Y-81882515D01*
X130755909Y-81882517D01*
X130749500Y-81942127D01*
X130749500Y-81945448D01*
X130749500Y-81945449D01*
X130749500Y-83734560D01*
X130749500Y-83734578D01*
X130749501Y-83737872D01*
X130749853Y-83741152D01*
X130749854Y-83741159D01*
X130755909Y-83797484D01*
X130806204Y-83932332D01*
X130883577Y-84035690D01*
X130907994Y-84101154D01*
X130893142Y-84169427D01*
X130883577Y-84184310D01*
X130806205Y-84287666D01*
X130755909Y-84422516D01*
X130749891Y-84478494D01*
X130749500Y-84482127D01*
X130749500Y-84485448D01*
X130749500Y-84485449D01*
X130749500Y-86274560D01*
X130749500Y-86274578D01*
X130749501Y-86277872D01*
X130749853Y-86281152D01*
X130749854Y-86281159D01*
X130755909Y-86337484D01*
X130806204Y-86472332D01*
X130883577Y-86575690D01*
X130907994Y-86641154D01*
X130893142Y-86709427D01*
X130883577Y-86724310D01*
X130806205Y-86827666D01*
X130755909Y-86962516D01*
X130755403Y-86967227D01*
X130749500Y-87022127D01*
X130749500Y-87025448D01*
X130749500Y-87025449D01*
X130749500Y-88814560D01*
X130749500Y-88814578D01*
X130749501Y-88817872D01*
X130749853Y-88821152D01*
X130749854Y-88821159D01*
X130755909Y-88877484D01*
X130806204Y-89012332D01*
X130883577Y-89115690D01*
X130907994Y-89181154D01*
X130893142Y-89249427D01*
X130883577Y-89264310D01*
X130806205Y-89367666D01*
X130755909Y-89502516D01*
X130754476Y-89515849D01*
X130749500Y-89562127D01*
X130749500Y-89565449D01*
X130749500Y-89710500D01*
X130729815Y-89777539D01*
X130677011Y-89823294D01*
X130625500Y-89834500D01*
X127756330Y-89834500D01*
X127689291Y-89814815D01*
X127683445Y-89810818D01*
X127552730Y-89715848D01*
X127379802Y-89638855D01*
X127194648Y-89599500D01*
X127194646Y-89599500D01*
X127005354Y-89599500D01*
X127005352Y-89599500D01*
X126820197Y-89638855D01*
X126647269Y-89715848D01*
X126494129Y-89827110D01*
X126367466Y-89967783D01*
X126272820Y-90131715D01*
X126214326Y-90311742D01*
X126194540Y-90500000D01*
X110768556Y-90500000D01*
X110652730Y-90415848D01*
X110479802Y-90338855D01*
X110294648Y-90299500D01*
X110294646Y-90299500D01*
X110235453Y-90299500D01*
X110168414Y-90279815D01*
X110147772Y-90263181D01*
X109800802Y-89916211D01*
X109787906Y-89900113D01*
X109736775Y-89852098D01*
X109733978Y-89849387D01*
X109717227Y-89832636D01*
X109714471Y-89829880D01*
X109711290Y-89827412D01*
X109702422Y-89819837D01*
X109670582Y-89789938D01*
X109653024Y-89780285D01*
X109636764Y-89769604D01*
X109620936Y-89757327D01*
X109580851Y-89739980D01*
X109570361Y-89734841D01*
X109532091Y-89713802D01*
X109512691Y-89708821D01*
X109494284Y-89702519D01*
X109475897Y-89694562D01*
X109432758Y-89687729D01*
X109421324Y-89685361D01*
X109379019Y-89674500D01*
X109358984Y-89674500D01*
X109339586Y-89672973D01*
X109329439Y-89671366D01*
X109319805Y-89669840D01*
X109319804Y-89669840D01*
X109303661Y-89671366D01*
X109276325Y-89673950D01*
X109264656Y-89674500D01*
X108779247Y-89674500D01*
X108712208Y-89654815D01*
X108687099Y-89633473D01*
X108681371Y-89627112D01*
X108528230Y-89515849D01*
X108528229Y-89515848D01*
X108528227Y-89515847D01*
X108355302Y-89438855D01*
X108170148Y-89399500D01*
X108170146Y-89399500D01*
X107980854Y-89399500D01*
X107980852Y-89399500D01*
X107795697Y-89438855D01*
X107622769Y-89515848D01*
X107469629Y-89627110D01*
X107342966Y-89767783D01*
X107248320Y-89931715D01*
X107189826Y-90111742D01*
X107170040Y-90299999D01*
X96671501Y-90299999D01*
X96732533Y-90232216D01*
X96827179Y-90068284D01*
X96885674Y-89888256D01*
X96905460Y-89700000D01*
X96885674Y-89511744D01*
X96855332Y-89418363D01*
X96827179Y-89331715D01*
X96732533Y-89167783D01*
X96605870Y-89027110D01*
X96452730Y-88915848D01*
X96279803Y-88838855D01*
X96214669Y-88825011D01*
X96153187Y-88791819D01*
X96152769Y-88791402D01*
X95786819Y-88425451D01*
X95753334Y-88364128D01*
X95750500Y-88337770D01*
X95750500Y-73644578D01*
X104399500Y-73644578D01*
X104399501Y-73647872D01*
X104399853Y-73651152D01*
X104399854Y-73651159D01*
X104405909Y-73707484D01*
X104431056Y-73774906D01*
X104456204Y-73842331D01*
X104542454Y-73957546D01*
X104657669Y-74043796D01*
X104792517Y-74094091D01*
X104852127Y-74100500D01*
X108147872Y-74100499D01*
X108207483Y-74094091D01*
X108342331Y-74043796D01*
X108457546Y-73957546D01*
X108543796Y-73842331D01*
X108594091Y-73707483D01*
X108600500Y-73647873D01*
X108600500Y-72699999D01*
X118726773Y-72699999D01*
X118746939Y-72969100D01*
X118746940Y-72969103D01*
X118806989Y-73232195D01*
X118905580Y-73483398D01*
X119040508Y-73717102D01*
X119208762Y-73928085D01*
X119406582Y-74111635D01*
X119629549Y-74263651D01*
X119872682Y-74380738D01*
X120130551Y-74460280D01*
X120397394Y-74500500D01*
X120667252Y-74500500D01*
X120934095Y-74460280D01*
X121191964Y-74380738D01*
X121435098Y-74263651D01*
X121658064Y-74111635D01*
X121855884Y-73928085D01*
X121935377Y-73828404D01*
X121992564Y-73788265D01*
X122062376Y-73785415D01*
X122122646Y-73820761D01*
X122129264Y-73828398D01*
X122208762Y-73928085D01*
X122406582Y-74111635D01*
X122629549Y-74263651D01*
X122872682Y-74380738D01*
X123130551Y-74460280D01*
X123397394Y-74500500D01*
X123667252Y-74500500D01*
X123934095Y-74460280D01*
X124191964Y-74380738D01*
X124435098Y-74263651D01*
X124658064Y-74111635D01*
X124855884Y-73928085D01*
X125024138Y-73717102D01*
X125159066Y-73483398D01*
X125257657Y-73232195D01*
X125317706Y-72969103D01*
X125337872Y-72700000D01*
X125317706Y-72430897D01*
X125257657Y-72167805D01*
X125159066Y-71916602D01*
X125024138Y-71682898D01*
X124855884Y-71471915D01*
X124855883Y-71471914D01*
X124658066Y-71288366D01*
X124600528Y-71249137D01*
X124435098Y-71136349D01*
X124191964Y-71019262D01*
X124112420Y-70994726D01*
X123934094Y-70939719D01*
X123667252Y-70899500D01*
X123397394Y-70899500D01*
X123130551Y-70939719D01*
X122872682Y-71019262D01*
X122629551Y-71136347D01*
X122406580Y-71288366D01*
X122208761Y-71471915D01*
X122129270Y-71571594D01*
X122072081Y-71611734D01*
X122002269Y-71614584D01*
X121942000Y-71579238D01*
X121935376Y-71571594D01*
X121915536Y-71546716D01*
X121855884Y-71471915D01*
X121752974Y-71376428D01*
X121658066Y-71288366D01*
X121600528Y-71249137D01*
X121435098Y-71136349D01*
X121191964Y-71019262D01*
X121112420Y-70994726D01*
X120934094Y-70939719D01*
X120667252Y-70899500D01*
X120397394Y-70899500D01*
X120130551Y-70939719D01*
X119872682Y-71019262D01*
X119629551Y-71136347D01*
X119406580Y-71288366D01*
X119208762Y-71471915D01*
X119040507Y-71682899D01*
X118905580Y-71916601D01*
X118806989Y-72167804D01*
X118746939Y-72430899D01*
X118726773Y-72699999D01*
X108600500Y-72699999D01*
X108600499Y-70352128D01*
X108594091Y-70292517D01*
X108543796Y-70157669D01*
X108457546Y-70042454D01*
X108342331Y-69956204D01*
X108207483Y-69905909D01*
X108147873Y-69899500D01*
X108144550Y-69899500D01*
X104855439Y-69899500D01*
X104855420Y-69899500D01*
X104852128Y-69899501D01*
X104848848Y-69899853D01*
X104848840Y-69899854D01*
X104792515Y-69905909D01*
X104657669Y-69956204D01*
X104542454Y-70042454D01*
X104456204Y-70157668D01*
X104405910Y-70292515D01*
X104405909Y-70292517D01*
X104399500Y-70352127D01*
X104399500Y-70355448D01*
X104399500Y-70355449D01*
X104399500Y-73644560D01*
X104399500Y-73644578D01*
X95750500Y-73644578D01*
X95750500Y-68510300D01*
X95770185Y-68443261D01*
X95822989Y-68397506D01*
X95835482Y-68392599D01*
X95919334Y-68364814D01*
X96068656Y-68272712D01*
X96192712Y-68148656D01*
X96284814Y-67999334D01*
X96287538Y-67991111D01*
X96327307Y-67933668D01*
X96391822Y-67906843D01*
X96460599Y-67919155D01*
X96491654Y-67945909D01*
X96493834Y-67943730D01*
X96501504Y-67951400D01*
X96501505Y-67951401D01*
X96668599Y-68118495D01*
X96862170Y-68254035D01*
X97076337Y-68353903D01*
X97304592Y-68415063D01*
X97540000Y-68435659D01*
X97775408Y-68415063D01*
X98003663Y-68353903D01*
X98217830Y-68254035D01*
X98411401Y-68118495D01*
X98578495Y-67951401D01*
X98714035Y-67757830D01*
X98813903Y-67543663D01*
X98875063Y-67315408D01*
X98895659Y-67080000D01*
X98875063Y-66844592D01*
X98813903Y-66616337D01*
X98714035Y-66402171D01*
X98578495Y-66208599D01*
X98411401Y-66041505D01*
X98225402Y-65911267D01*
X98181780Y-65856692D01*
X98174587Y-65787193D01*
X98206109Y-65724839D01*
X98225405Y-65708119D01*
X98301373Y-65654925D01*
X97672533Y-65026086D01*
X97682315Y-65024680D01*
X97813100Y-64964952D01*
X97921761Y-64870798D01*
X97999493Y-64749844D01*
X98023076Y-64669524D01*
X98654925Y-65301373D01*
X98713600Y-65217576D01*
X98721796Y-65199999D01*
X111594858Y-65199999D01*
X111615386Y-65447732D01*
X111676413Y-65688721D01*
X111776268Y-65916370D01*
X111876563Y-66069882D01*
X111876564Y-66069882D01*
X112616922Y-65329523D01*
X112640507Y-65409844D01*
X112718239Y-65530798D01*
X112826900Y-65624952D01*
X112957685Y-65684680D01*
X112967466Y-65686086D01*
X112229942Y-66423609D01*
X112229942Y-66423610D01*
X112276766Y-66460055D01*
X112495393Y-66578368D01*
X112730506Y-66659083D01*
X112975707Y-66700000D01*
X113224293Y-66700000D01*
X113469493Y-66659083D01*
X113704606Y-66578368D01*
X113923233Y-66460053D01*
X113970056Y-66423609D01*
X113791025Y-66244578D01*
X116599500Y-66244578D01*
X116599501Y-66247872D01*
X116599853Y-66251152D01*
X116599854Y-66251159D01*
X116605909Y-66307484D01*
X116613264Y-66327203D01*
X116656204Y-66442331D01*
X116742454Y-66557546D01*
X116857669Y-66643796D01*
X116992517Y-66694091D01*
X117052127Y-66700500D01*
X119147872Y-66700499D01*
X119207483Y-66694091D01*
X119342331Y-66643796D01*
X119457546Y-66557546D01*
X119543796Y-66442331D01*
X119594091Y-66307483D01*
X119600500Y-66247873D01*
X119600500Y-65444578D01*
X122579172Y-65444578D01*
X122579173Y-65447872D01*
X122585581Y-65507483D01*
X122635876Y-65642331D01*
X122722126Y-65757546D01*
X122837341Y-65843796D01*
X122972189Y-65894091D01*
X123031799Y-65900500D01*
X124727544Y-65900499D01*
X124787155Y-65894091D01*
X124922003Y-65843796D01*
X125037218Y-65757546D01*
X125123468Y-65642331D01*
X125173763Y-65507483D01*
X125180172Y-65447873D01*
X125180171Y-64600000D01*
X126074705Y-64600000D01*
X126094530Y-64826602D01*
X126153405Y-65046326D01*
X126249538Y-65252484D01*
X126300644Y-65325471D01*
X126300645Y-65325472D01*
X126981718Y-64644399D01*
X126994507Y-64725148D01*
X127052031Y-64838045D01*
X127141627Y-64927641D01*
X127254524Y-64985165D01*
X127335271Y-64997953D01*
X126654198Y-65679025D01*
X126654198Y-65679026D01*
X126727187Y-65730133D01*
X126933345Y-65826266D01*
X127153069Y-65885141D01*
X127379672Y-65904966D01*
X127606274Y-65885141D01*
X127825998Y-65826266D01*
X128032152Y-65730134D01*
X128105144Y-65679025D01*
X127424073Y-64997953D01*
X127504820Y-64985165D01*
X127617717Y-64927641D01*
X127707313Y-64838045D01*
X127764837Y-64725148D01*
X127777625Y-64644400D01*
X128458697Y-65325472D01*
X128509806Y-65252480D01*
X128605938Y-65046326D01*
X128664813Y-64826602D01*
X128684638Y-64600000D01*
X128664813Y-64373397D01*
X128605938Y-64153673D01*
X128509805Y-63947515D01*
X128458697Y-63874526D01*
X127777625Y-64555598D01*
X127764837Y-64474852D01*
X127707313Y-64361955D01*
X127617717Y-64272359D01*
X127504820Y-64214835D01*
X127424072Y-64202046D01*
X128105144Y-63520974D01*
X128105143Y-63520972D01*
X128032156Y-63469866D01*
X127825998Y-63373733D01*
X127606274Y-63314858D01*
X127379671Y-63295033D01*
X127153069Y-63314858D01*
X126933344Y-63373733D01*
X126727188Y-63469865D01*
X126654199Y-63520973D01*
X126654198Y-63520973D01*
X127335272Y-64202046D01*
X127254524Y-64214835D01*
X127141627Y-64272359D01*
X127052031Y-64361955D01*
X126994507Y-64474852D01*
X126981718Y-64555598D01*
X126300645Y-63874527D01*
X126249537Y-63947516D01*
X126153405Y-64153672D01*
X126094530Y-64373397D01*
X126074705Y-64600000D01*
X125180171Y-64600000D01*
X125180171Y-63752128D01*
X125173763Y-63692517D01*
X125123468Y-63557669D01*
X125037218Y-63442454D01*
X124922003Y-63356204D01*
X124787155Y-63305909D01*
X124727545Y-63299500D01*
X124724222Y-63299500D01*
X123035111Y-63299500D01*
X123035092Y-63299500D01*
X123031800Y-63299501D01*
X123028520Y-63299853D01*
X123028512Y-63299854D01*
X122972187Y-63305909D01*
X122837341Y-63356204D01*
X122722126Y-63442454D01*
X122635876Y-63557668D01*
X122585582Y-63692515D01*
X122585581Y-63692517D01*
X122579172Y-63752127D01*
X122579172Y-63755448D01*
X122579172Y-63755449D01*
X122579172Y-65444560D01*
X122579172Y-65444578D01*
X119600500Y-65444578D01*
X119600499Y-64152128D01*
X119594091Y-64092517D01*
X119543796Y-63957669D01*
X119457546Y-63842454D01*
X119342331Y-63756204D01*
X119207483Y-63705909D01*
X119207483Y-63705908D01*
X119151166Y-63699854D01*
X119151165Y-63699853D01*
X119147873Y-63699500D01*
X119144550Y-63699500D01*
X117055439Y-63699500D01*
X117055420Y-63699500D01*
X117052128Y-63699501D01*
X117048848Y-63699853D01*
X117048840Y-63699854D01*
X116992515Y-63705909D01*
X116857669Y-63756204D01*
X116742454Y-63842454D01*
X116656204Y-63957668D01*
X116605909Y-64092516D01*
X116603487Y-64115048D01*
X116599500Y-64152127D01*
X116599500Y-64155448D01*
X116599500Y-64155449D01*
X116599500Y-66244560D01*
X116599500Y-66244578D01*
X113791025Y-66244578D01*
X113232533Y-65686086D01*
X113242315Y-65684680D01*
X113373100Y-65624952D01*
X113481761Y-65530798D01*
X113559493Y-65409844D01*
X113583076Y-65329524D01*
X114323434Y-66069882D01*
X114423730Y-65916369D01*
X114523586Y-65688721D01*
X114584613Y-65447732D01*
X114605141Y-65199999D01*
X114584613Y-64952267D01*
X114523586Y-64711278D01*
X114423730Y-64483630D01*
X114323434Y-64330116D01*
X113583076Y-65070475D01*
X113559493Y-64990156D01*
X113481761Y-64869202D01*
X113373100Y-64775048D01*
X113242315Y-64715320D01*
X113232534Y-64713913D01*
X113970057Y-63976390D01*
X113970056Y-63976388D01*
X113923235Y-63939947D01*
X113704606Y-63821631D01*
X113469493Y-63740916D01*
X113224293Y-63700000D01*
X112975707Y-63700000D01*
X112730506Y-63740916D01*
X112495393Y-63821631D01*
X112276764Y-63939946D01*
X112229942Y-63976388D01*
X112229942Y-63976390D01*
X112967466Y-64713913D01*
X112957685Y-64715320D01*
X112826900Y-64775048D01*
X112718239Y-64869202D01*
X112640507Y-64990156D01*
X112616923Y-65070475D01*
X111876564Y-64330116D01*
X111776266Y-64483634D01*
X111676413Y-64711278D01*
X111615386Y-64952267D01*
X111594858Y-65199999D01*
X98721796Y-65199999D01*
X98813430Y-65003492D01*
X98874569Y-64775318D01*
X98895157Y-64540000D01*
X98874569Y-64304681D01*
X98813430Y-64076507D01*
X98713599Y-63862421D01*
X98654926Y-63778626D01*
X98654925Y-63778625D01*
X98023076Y-64410474D01*
X97999493Y-64330156D01*
X97921761Y-64209202D01*
X97813100Y-64115048D01*
X97682315Y-64055320D01*
X97672531Y-64053913D01*
X98301373Y-63425073D01*
X98301373Y-63425072D01*
X98224969Y-63371574D01*
X98181344Y-63316997D01*
X98174150Y-63247499D01*
X98205673Y-63185144D01*
X98224969Y-63168424D01*
X98301373Y-63114925D01*
X97672533Y-62486086D01*
X97682315Y-62484680D01*
X97813100Y-62424952D01*
X97921761Y-62330798D01*
X97999493Y-62209844D01*
X98023076Y-62129524D01*
X98654925Y-62761373D01*
X98713600Y-62677576D01*
X98813430Y-62463492D01*
X98874569Y-62235318D01*
X98895157Y-62000000D01*
X98874569Y-61764681D01*
X98813430Y-61536507D01*
X98713599Y-61322421D01*
X98654926Y-61238626D01*
X98654925Y-61238625D01*
X98023076Y-61870474D01*
X97999493Y-61790156D01*
X97921761Y-61669202D01*
X97813100Y-61575048D01*
X97682315Y-61515320D01*
X97672533Y-61513913D01*
X98301373Y-60885073D01*
X98301373Y-60885072D01*
X98224969Y-60831574D01*
X98181344Y-60776997D01*
X98174150Y-60707499D01*
X98205673Y-60645144D01*
X98224969Y-60628424D01*
X98301373Y-60574925D01*
X97672533Y-59946086D01*
X97682315Y-59944680D01*
X97813100Y-59884952D01*
X97921761Y-59790798D01*
X97999493Y-59669844D01*
X98023076Y-59589524D01*
X98654925Y-60221373D01*
X98713600Y-60137576D01*
X98813430Y-59923492D01*
X98874569Y-59695318D01*
X98895157Y-59459999D01*
X98874569Y-59224681D01*
X98813430Y-58996507D01*
X98713599Y-58782421D01*
X98654926Y-58698626D01*
X98654925Y-58698625D01*
X98023076Y-59330475D01*
X97999493Y-59250156D01*
X97921761Y-59129202D01*
X97813100Y-59035048D01*
X97682315Y-58975320D01*
X97672533Y-58973913D01*
X98301373Y-58345073D01*
X98301373Y-58345072D01*
X98225405Y-58291880D01*
X98181780Y-58237304D01*
X98174586Y-58167805D01*
X98206108Y-58105451D01*
X98225399Y-58088734D01*
X98411401Y-57958495D01*
X98578495Y-57791401D01*
X98714035Y-57597830D01*
X98813903Y-57383663D01*
X98875063Y-57155408D01*
X98887785Y-57010000D01*
X104412193Y-57010000D01*
X104414409Y-57042399D01*
X104415559Y-57050761D01*
X104472285Y-57323740D01*
X104474570Y-57331897D01*
X104567935Y-57594600D01*
X104571305Y-57602359D01*
X104699577Y-57849913D01*
X104703973Y-57857141D01*
X104864752Y-58084913D01*
X104870095Y-58091481D01*
X105060398Y-58295246D01*
X105066573Y-58301014D01*
X105282850Y-58476967D01*
X105289768Y-58481851D01*
X105527987Y-58626715D01*
X105535489Y-58630602D01*
X105791228Y-58741686D01*
X105799181Y-58744512D01*
X106067669Y-58819739D01*
X106075938Y-58821457D01*
X106249999Y-58845380D01*
X106250000Y-58845380D01*
X106250000Y-57520083D01*
X106320857Y-57544877D01*
X106455074Y-57560000D01*
X106544926Y-57560000D01*
X106679143Y-57544877D01*
X106750000Y-57520083D01*
X106750000Y-58845380D01*
X106924061Y-58821457D01*
X106932330Y-58819739D01*
X107200818Y-58744512D01*
X107208771Y-58741686D01*
X107464510Y-58630602D01*
X107472012Y-58626715D01*
X107710231Y-58481851D01*
X107717149Y-58476967D01*
X107933426Y-58301014D01*
X107939601Y-58295246D01*
X108129904Y-58091481D01*
X108135247Y-58084913D01*
X108296026Y-57857141D01*
X108300422Y-57849913D01*
X108428694Y-57602359D01*
X108432064Y-57594600D01*
X108525429Y-57331897D01*
X108527714Y-57323740D01*
X108584440Y-57050761D01*
X108585590Y-57042399D01*
X108587807Y-57010000D01*
X107260083Y-57010000D01*
X107284877Y-56939143D01*
X107305062Y-56760000D01*
X107284877Y-56580857D01*
X107260083Y-56510000D01*
X108587807Y-56510000D01*
X108587806Y-56509999D01*
X108585590Y-56477600D01*
X108584440Y-56469238D01*
X108527714Y-56196259D01*
X108525429Y-56188102D01*
X108432064Y-55925399D01*
X108428694Y-55917640D01*
X108300422Y-55670086D01*
X108296026Y-55662858D01*
X108135247Y-55435086D01*
X108129904Y-55428518D01*
X107939601Y-55224753D01*
X107933426Y-55218985D01*
X107717149Y-55043032D01*
X107710231Y-55038148D01*
X107472012Y-54893284D01*
X107464510Y-54889397D01*
X107208771Y-54778313D01*
X107200818Y-54775487D01*
X106932335Y-54700261D01*
X106924057Y-54698541D01*
X106750000Y-54674618D01*
X106750000Y-55999916D01*
X106679143Y-55975123D01*
X106544926Y-55960000D01*
X106455074Y-55960000D01*
X106320857Y-55975123D01*
X106250000Y-55999916D01*
X106250000Y-54674618D01*
X106075942Y-54698541D01*
X106067664Y-54700261D01*
X105799181Y-54775487D01*
X105791228Y-54778313D01*
X105535489Y-54889397D01*
X105527987Y-54893284D01*
X105289768Y-55038148D01*
X105282850Y-55043032D01*
X105066573Y-55218985D01*
X105060398Y-55224753D01*
X104870095Y-55428518D01*
X104864752Y-55435086D01*
X104703973Y-55662858D01*
X104699577Y-55670086D01*
X104571305Y-55917640D01*
X104567935Y-55925399D01*
X104474570Y-56188102D01*
X104472285Y-56196259D01*
X104415559Y-56469238D01*
X104414409Y-56477600D01*
X104412193Y-56509999D01*
X104412193Y-56510000D01*
X105739917Y-56510000D01*
X105715123Y-56580857D01*
X105694938Y-56760000D01*
X105715123Y-56939143D01*
X105739917Y-57010000D01*
X104412193Y-57010000D01*
X98887785Y-57010000D01*
X98895659Y-56920000D01*
X98881660Y-56760000D01*
X98875063Y-56684592D01*
X98875062Y-56684591D01*
X98813903Y-56456337D01*
X98714035Y-56242171D01*
X98578495Y-56048599D01*
X98411401Y-55881505D01*
X98217830Y-55745965D01*
X98003663Y-55646097D01*
X97942502Y-55629709D01*
X97775407Y-55584936D01*
X97540000Y-55564340D01*
X97304592Y-55584936D01*
X97076336Y-55646097D01*
X96862170Y-55745965D01*
X96668598Y-55881505D01*
X96501505Y-56048598D01*
X96371575Y-56234159D01*
X96316998Y-56277784D01*
X96247500Y-56284978D01*
X96185145Y-56253455D01*
X96168425Y-56234159D01*
X96038494Y-56048598D01*
X95871404Y-55881508D01*
X95871401Y-55881505D01*
X95677830Y-55745965D01*
X95463663Y-55646097D01*
X95402502Y-55629709D01*
X95235407Y-55584936D01*
X95000000Y-55564340D01*
X94764592Y-55584936D01*
X94536336Y-55646097D01*
X94322170Y-55745965D01*
X94128598Y-55881505D01*
X93961505Y-56048598D01*
X93825965Y-56242170D01*
X93726097Y-56456336D01*
X93664936Y-56684592D01*
X93644340Y-56920000D01*
X93664936Y-57155407D01*
X93693484Y-57261948D01*
X93726097Y-57383663D01*
X93825965Y-57597830D01*
X93961505Y-57791401D01*
X94128599Y-57958495D01*
X94314596Y-58088732D01*
X94358219Y-58143307D01*
X94365412Y-58212806D01*
X94333890Y-58275160D01*
X94314594Y-58291881D01*
X94238626Y-58345073D01*
X94867466Y-58973913D01*
X94857685Y-58975320D01*
X94726900Y-59035048D01*
X94618239Y-59129202D01*
X94540507Y-59250156D01*
X94516923Y-59330476D01*
X93885072Y-58698625D01*
X93826399Y-58782422D01*
X93726569Y-58996507D01*
X93665430Y-59224681D01*
X93644842Y-59459999D01*
X93665430Y-59695318D01*
X93726569Y-59923492D01*
X93826400Y-60137580D01*
X93885073Y-60221373D01*
X94516923Y-59589523D01*
X94540507Y-59669844D01*
X94618239Y-59790798D01*
X94726900Y-59884952D01*
X94857685Y-59944680D01*
X94867466Y-59946086D01*
X94238625Y-60574925D01*
X94315031Y-60628425D01*
X94358655Y-60683002D01*
X94365848Y-60752501D01*
X94334326Y-60814855D01*
X94315029Y-60831576D01*
X94238625Y-60885072D01*
X94867466Y-61513913D01*
X94857685Y-61515320D01*
X94726900Y-61575048D01*
X94618239Y-61669202D01*
X94540507Y-61790156D01*
X94516923Y-61870476D01*
X93885072Y-61238625D01*
X93826399Y-61322422D01*
X93726569Y-61536507D01*
X93665430Y-61764681D01*
X93644842Y-62000000D01*
X93665430Y-62235318D01*
X93726569Y-62463492D01*
X93826400Y-62677580D01*
X93885073Y-62761373D01*
X94516923Y-62129523D01*
X94540507Y-62209844D01*
X94618239Y-62330798D01*
X94726900Y-62424952D01*
X94857685Y-62484680D01*
X94867466Y-62486086D01*
X94238625Y-63114925D01*
X94315031Y-63168425D01*
X94358655Y-63223002D01*
X94365848Y-63292501D01*
X94334326Y-63354855D01*
X94315029Y-63371576D01*
X94238625Y-63425072D01*
X94867466Y-64053913D01*
X94857685Y-64055320D01*
X94726900Y-64115048D01*
X94618239Y-64209202D01*
X94540507Y-64330156D01*
X94516923Y-64410476D01*
X93885072Y-63778625D01*
X93826399Y-63862422D01*
X93726569Y-64076507D01*
X93665430Y-64304681D01*
X93644842Y-64540000D01*
X93665430Y-64775318D01*
X93726569Y-65003492D01*
X93826400Y-65217580D01*
X93885073Y-65301373D01*
X94516923Y-64669523D01*
X94540507Y-64749844D01*
X94618239Y-64870798D01*
X94726900Y-64964952D01*
X94857685Y-65024680D01*
X94867466Y-65026086D01*
X94234208Y-65659342D01*
X94223788Y-65711193D01*
X94175172Y-65761376D01*
X94153032Y-65771206D01*
X94080664Y-65795186D01*
X93931342Y-65887288D01*
X93807288Y-66011342D01*
X93715186Y-66160665D01*
X93660000Y-66327202D01*
X93649819Y-66426858D01*
X93649817Y-66426878D01*
X93649500Y-66429991D01*
X93649500Y-66433138D01*
X93649500Y-66433139D01*
X93649500Y-67726859D01*
X93649500Y-67726878D01*
X93649501Y-67730008D01*
X93649820Y-67733140D01*
X93649821Y-67733141D01*
X93660000Y-67832796D01*
X93715186Y-67999334D01*
X93807288Y-68148657D01*
X93931342Y-68272711D01*
X93931344Y-68272712D01*
X94080666Y-68364814D01*
X94164503Y-68392595D01*
X94221947Y-68432366D01*
X94248771Y-68496882D01*
X94249499Y-68510300D01*
X94249499Y-88536940D01*
X94249500Y-88536945D01*
X94249500Y-88636294D01*
X94248191Y-88654264D01*
X94244711Y-88678023D01*
X94249028Y-88727368D01*
X94249500Y-88738175D01*
X94249500Y-97812279D01*
X94249499Y-97836302D01*
X94248190Y-97854264D01*
X94244710Y-97878021D01*
X94249028Y-97927368D01*
X94249500Y-97938175D01*
X94249500Y-98315047D01*
X94229815Y-98382086D01*
X94177011Y-98427841D01*
X94107853Y-98437785D01*
X94044297Y-98408760D01*
X94037819Y-98402728D01*
X86311302Y-90676211D01*
X86298406Y-90660113D01*
X86247275Y-90612098D01*
X86244478Y-90609387D01*
X86227727Y-90592636D01*
X86224971Y-90589880D01*
X86221790Y-90587412D01*
X86212922Y-90579837D01*
X86181082Y-90549938D01*
X86163524Y-90540285D01*
X86147264Y-90529604D01*
X86131436Y-90517327D01*
X86091351Y-90499980D01*
X86080861Y-90494841D01*
X86042591Y-90473802D01*
X86023191Y-90468821D01*
X86004784Y-90462519D01*
X85986397Y-90454562D01*
X85943258Y-90447729D01*
X85931824Y-90445361D01*
X85889519Y-90434500D01*
X85869484Y-90434500D01*
X85850086Y-90432973D01*
X85842662Y-90431797D01*
X85830305Y-90429840D01*
X85830304Y-90429840D01*
X85797251Y-90432964D01*
X85786825Y-90433950D01*
X85775156Y-90434500D01*
X85275226Y-90434500D01*
X85208187Y-90414815D01*
X85173651Y-90381623D01*
X85038495Y-90188599D01*
X84871401Y-90021505D01*
X84685839Y-89891573D01*
X84642215Y-89836997D01*
X84635023Y-89767498D01*
X84666545Y-89705144D01*
X84685831Y-89688432D01*
X84871401Y-89558495D01*
X85038495Y-89391401D01*
X85174035Y-89197830D01*
X85273903Y-88983663D01*
X85335063Y-88755408D01*
X85355659Y-88520000D01*
X85354983Y-88512279D01*
X85335063Y-88284592D01*
X85303057Y-88165144D01*
X85273903Y-88056337D01*
X85174035Y-87842171D01*
X85038495Y-87648599D01*
X84871401Y-87481505D01*
X84685839Y-87351573D01*
X84642215Y-87296997D01*
X84635023Y-87227498D01*
X84666545Y-87165144D01*
X84685831Y-87148432D01*
X84871401Y-87018495D01*
X85038495Y-86851401D01*
X85174035Y-86657830D01*
X85273903Y-86443663D01*
X85335063Y-86215408D01*
X85355659Y-85980000D01*
X85335063Y-85744592D01*
X85273903Y-85516337D01*
X85174035Y-85302171D01*
X85038495Y-85108599D01*
X84871401Y-84941505D01*
X84685839Y-84811573D01*
X84642216Y-84756998D01*
X84635022Y-84687500D01*
X84666545Y-84625145D01*
X84685837Y-84608428D01*
X84871401Y-84478495D01*
X85038495Y-84311401D01*
X85174035Y-84117830D01*
X85273903Y-83903663D01*
X85335063Y-83675408D01*
X85355659Y-83440000D01*
X85335063Y-83204592D01*
X85273903Y-82976337D01*
X85174035Y-82762171D01*
X85038495Y-82568599D01*
X84871401Y-82401505D01*
X84685839Y-82271573D01*
X84642215Y-82216997D01*
X84635023Y-82147498D01*
X84666545Y-82085144D01*
X84685831Y-82068432D01*
X84871401Y-81938495D01*
X85038495Y-81771401D01*
X85174035Y-81577830D01*
X85273903Y-81363663D01*
X85335063Y-81135408D01*
X85355659Y-80900000D01*
X85335063Y-80664592D01*
X85273903Y-80436337D01*
X85174035Y-80222171D01*
X85038495Y-80028599D01*
X84871401Y-79861505D01*
X84685839Y-79731573D01*
X84642216Y-79676998D01*
X84635022Y-79607500D01*
X84666545Y-79545145D01*
X84685837Y-79528428D01*
X84871401Y-79398495D01*
X85038495Y-79231401D01*
X85174035Y-79037830D01*
X85273903Y-78823663D01*
X85335063Y-78595408D01*
X85355659Y-78360000D01*
X85335063Y-78124592D01*
X85273903Y-77896337D01*
X85174035Y-77682171D01*
X85038495Y-77488599D01*
X84916569Y-77366673D01*
X84883084Y-77305350D01*
X84888068Y-77235658D01*
X84929940Y-77179725D01*
X84960915Y-77162810D01*
X85092331Y-77113796D01*
X85207546Y-77027546D01*
X85293796Y-76912331D01*
X85344091Y-76777483D01*
X85350500Y-76717873D01*
X85350499Y-74922128D01*
X85344091Y-74862517D01*
X85293796Y-74727669D01*
X85207546Y-74612454D01*
X85092331Y-74526204D01*
X84957483Y-74475909D01*
X84897873Y-74469500D01*
X84894550Y-74469500D01*
X83105439Y-74469500D01*
X83105420Y-74469500D01*
X83102128Y-74469501D01*
X83098848Y-74469853D01*
X83098840Y-74469854D01*
X83042515Y-74475909D01*
X82907669Y-74526204D01*
X82792454Y-74612454D01*
X82706204Y-74727668D01*
X82655909Y-74862516D01*
X82651130Y-74906971D01*
X82649500Y-74922127D01*
X82649500Y-74925448D01*
X82649500Y-74925449D01*
X82649500Y-76714560D01*
X82649500Y-76714578D01*
X82649501Y-76717872D01*
X82649853Y-76721152D01*
X82649854Y-76721159D01*
X82655909Y-76777484D01*
X82681056Y-76844907D01*
X82706204Y-76912331D01*
X82792454Y-77027546D01*
X82907669Y-77113796D01*
X82990321Y-77144623D01*
X83039082Y-77162810D01*
X83095016Y-77204681D01*
X83119433Y-77270146D01*
X83104581Y-77338419D01*
X83083431Y-77366673D01*
X82961503Y-77488601D01*
X82825965Y-77682170D01*
X82726097Y-77896336D01*
X82664936Y-78124592D01*
X82644340Y-78360000D01*
X82664936Y-78595407D01*
X82697647Y-78717484D01*
X82726097Y-78823663D01*
X82825965Y-79037830D01*
X82961505Y-79231401D01*
X83128599Y-79398495D01*
X83314160Y-79528426D01*
X83357783Y-79583002D01*
X83364976Y-79652501D01*
X83333454Y-79714855D01*
X83314158Y-79731575D01*
X83208402Y-79805627D01*
X83128595Y-79861508D01*
X82961505Y-80028598D01*
X82825965Y-80222170D01*
X82726097Y-80436336D01*
X82664936Y-80664592D01*
X82644340Y-80899999D01*
X82664936Y-81135407D01*
X82709709Y-81302502D01*
X82726097Y-81363663D01*
X82825965Y-81577830D01*
X82961505Y-81771401D01*
X83128599Y-81938495D01*
X83314160Y-82068426D01*
X83357783Y-82123002D01*
X83364976Y-82192501D01*
X83333454Y-82254855D01*
X83314159Y-82271575D01*
X83128595Y-82401508D01*
X82961505Y-82568598D01*
X82825965Y-82762170D01*
X82726097Y-82976336D01*
X82664936Y-83204592D01*
X82644340Y-83440000D01*
X82664936Y-83675407D01*
X82697647Y-83797484D01*
X82726097Y-83903663D01*
X82825965Y-84117830D01*
X82961505Y-84311401D01*
X83128599Y-84478495D01*
X83314160Y-84608426D01*
X83357783Y-84663002D01*
X83364976Y-84732501D01*
X83333454Y-84794855D01*
X83314158Y-84811575D01*
X83183515Y-84903053D01*
X83128595Y-84941508D01*
X82961505Y-85108598D01*
X82825965Y-85302170D01*
X82726097Y-85516336D01*
X82664936Y-85744592D01*
X82644340Y-85979999D01*
X82664936Y-86215407D01*
X82697647Y-86337484D01*
X82726097Y-86443663D01*
X82825965Y-86657830D01*
X82961505Y-86851401D01*
X83128599Y-87018495D01*
X83314160Y-87148426D01*
X83357783Y-87203002D01*
X83364976Y-87272501D01*
X83333454Y-87334855D01*
X83314159Y-87351575D01*
X83128595Y-87481508D01*
X82961505Y-87648598D01*
X82825965Y-87842170D01*
X82726097Y-88056336D01*
X82664936Y-88284592D01*
X82644340Y-88520000D01*
X82664936Y-88755407D01*
X82709709Y-88922502D01*
X82726097Y-88983663D01*
X82825965Y-89197830D01*
X82961505Y-89391401D01*
X83128599Y-89558495D01*
X83314160Y-89688426D01*
X83357783Y-89743002D01*
X83364976Y-89812501D01*
X83333454Y-89874855D01*
X83314159Y-89891575D01*
X83128595Y-90021508D01*
X82961505Y-90188598D01*
X82825965Y-90382170D01*
X82726097Y-90596336D01*
X82664936Y-90824592D01*
X82644340Y-91060000D01*
X82664936Y-91295407D01*
X82697647Y-91417484D01*
X82726097Y-91523663D01*
X82825965Y-91737830D01*
X82961505Y-91931401D01*
X83128599Y-92098495D01*
X83314160Y-92228426D01*
X83357783Y-92283002D01*
X83364976Y-92352501D01*
X83333454Y-92414855D01*
X83314160Y-92431574D01*
X83138154Y-92554815D01*
X83128595Y-92561508D01*
X82961505Y-92728598D01*
X82825965Y-92922170D01*
X82726097Y-93136336D01*
X82664936Y-93364592D01*
X82644340Y-93599999D01*
X82664936Y-93835407D01*
X82691855Y-93935870D01*
X82726097Y-94063663D01*
X82825965Y-94277830D01*
X82961505Y-94471401D01*
X83128599Y-94638495D01*
X83314160Y-94768426D01*
X83357783Y-94823002D01*
X83364976Y-94892501D01*
X83333454Y-94954855D01*
X83314158Y-94971575D01*
X83133334Y-95098190D01*
X83128595Y-95101508D01*
X82961505Y-95268598D01*
X82825965Y-95462170D01*
X82726097Y-95676336D01*
X82664936Y-95904592D01*
X82644340Y-96140000D01*
X82664936Y-96375407D01*
X82697647Y-96497484D01*
X82726097Y-96603663D01*
X82825965Y-96817830D01*
X82961505Y-97011401D01*
X83128599Y-97178495D01*
X83314160Y-97308426D01*
X83357783Y-97363002D01*
X83364976Y-97432501D01*
X83333454Y-97494855D01*
X83314160Y-97511574D01*
X83139295Y-97634016D01*
X83128595Y-97641508D01*
X82961505Y-97808598D01*
X82825965Y-98002170D01*
X82726097Y-98216336D01*
X82664936Y-98444592D01*
X82644340Y-98680000D01*
X82664936Y-98915407D01*
X82697647Y-99037484D01*
X82726097Y-99143663D01*
X82825965Y-99357830D01*
X82961505Y-99551401D01*
X83128599Y-99718495D01*
X83314160Y-99848426D01*
X83357783Y-99903002D01*
X83364976Y-99972501D01*
X83333454Y-100034855D01*
X83314159Y-100051575D01*
X83128595Y-100181508D01*
X82961505Y-100348598D01*
X82825965Y-100542170D01*
X82726097Y-100756336D01*
X82664936Y-100984592D01*
X82644340Y-101220000D01*
X82664936Y-101455407D01*
X82697647Y-101577484D01*
X82726097Y-101683663D01*
X82825965Y-101897830D01*
X82961505Y-102091401D01*
X83128599Y-102258495D01*
X83314160Y-102388426D01*
X83357783Y-102443002D01*
X83364976Y-102512501D01*
X83333454Y-102574855D01*
X83314159Y-102591575D01*
X83128595Y-102721508D01*
X82961505Y-102888598D01*
X82825965Y-103082170D01*
X82726097Y-103296336D01*
X82664936Y-103524592D01*
X82644340Y-103759999D01*
X82664936Y-103995407D01*
X82697647Y-104117484D01*
X82726097Y-104223663D01*
X82825965Y-104437830D01*
X82961505Y-104631401D01*
X83128599Y-104798495D01*
X83314160Y-104928426D01*
X83357783Y-104983002D01*
X83364976Y-105052501D01*
X83333454Y-105114855D01*
X83314160Y-105131574D01*
X83208402Y-105205627D01*
X83128595Y-105261508D01*
X82961505Y-105428598D01*
X82825965Y-105622170D01*
X82726097Y-105836336D01*
X82664936Y-106064592D01*
X82644340Y-106300000D01*
X82664936Y-106535407D01*
X82706127Y-106689132D01*
X82726097Y-106763663D01*
X82825965Y-106977830D01*
X82961505Y-107171401D01*
X83128599Y-107338495D01*
X83314160Y-107468426D01*
X83357783Y-107523002D01*
X83364976Y-107592501D01*
X83333454Y-107654855D01*
X83314158Y-107671575D01*
X83158361Y-107780666D01*
X83128595Y-107801508D01*
X82961505Y-107968598D01*
X82825965Y-108162170D01*
X82726097Y-108376336D01*
X82664936Y-108604592D01*
X82644340Y-108839999D01*
X82664936Y-109075407D01*
X82697647Y-109197484D01*
X82726097Y-109303663D01*
X82825965Y-109517830D01*
X82961505Y-109711401D01*
X83128599Y-109878495D01*
X83314160Y-110008426D01*
X83357783Y-110063002D01*
X83364976Y-110132501D01*
X83333454Y-110194855D01*
X83314159Y-110211575D01*
X83128595Y-110341508D01*
X82961505Y-110508598D01*
X82825965Y-110702170D01*
X82726097Y-110916336D01*
X82664936Y-111144592D01*
X82644340Y-111380000D01*
X82664936Y-111615407D01*
X82697647Y-111737484D01*
X82726097Y-111843663D01*
X82825965Y-112057830D01*
X82961505Y-112251401D01*
X83128599Y-112418495D01*
X83314160Y-112548426D01*
X83357783Y-112603002D01*
X83364976Y-112672501D01*
X83333454Y-112734855D01*
X83314160Y-112751574D01*
X83228229Y-112811744D01*
X83128595Y-112881508D01*
X82961505Y-113048598D01*
X82825965Y-113242170D01*
X82726097Y-113456336D01*
X82664936Y-113684592D01*
X82644340Y-113920000D01*
X82664936Y-114155407D01*
X82697647Y-114277484D01*
X82726097Y-114383663D01*
X82825965Y-114597830D01*
X82961505Y-114791401D01*
X83128599Y-114958495D01*
X83314596Y-115088732D01*
X83358219Y-115143307D01*
X83365412Y-115212806D01*
X83333890Y-115275160D01*
X83314594Y-115291881D01*
X83238626Y-115345073D01*
X83867466Y-115973913D01*
X83857685Y-115975320D01*
X83726900Y-116035048D01*
X83618239Y-116129202D01*
X83540507Y-116250156D01*
X83516923Y-116330476D01*
X82885072Y-115698625D01*
X82826399Y-115782422D01*
X82726569Y-115996507D01*
X82665430Y-116224681D01*
X82644842Y-116460000D01*
X82665430Y-116695318D01*
X82726569Y-116923492D01*
X82826400Y-117137580D01*
X82885073Y-117221373D01*
X83516923Y-116589523D01*
X83540507Y-116669844D01*
X83618239Y-116790798D01*
X83726900Y-116884952D01*
X83857685Y-116944680D01*
X83867466Y-116946086D01*
X83238625Y-117574925D01*
X83314594Y-117628119D01*
X83358219Y-117682696D01*
X83365413Y-117752194D01*
X83333890Y-117814549D01*
X83314595Y-117831269D01*
X83237928Y-117884952D01*
X83130749Y-117960000D01*
X83128595Y-117961508D01*
X82961505Y-118128598D01*
X82825965Y-118322170D01*
X82726097Y-118536336D01*
X82664936Y-118764592D01*
X82644340Y-119000000D01*
X82664936Y-119235407D01*
X82697616Y-119357371D01*
X82726097Y-119463663D01*
X82825965Y-119677830D01*
X82961505Y-119871401D01*
X83128599Y-120038495D01*
X83322170Y-120174035D01*
X83536337Y-120273903D01*
X83734396Y-120326972D01*
X83764592Y-120335063D01*
X83999999Y-120355659D01*
X83999999Y-120355658D01*
X84000000Y-120355659D01*
X84213013Y-120337022D01*
X84281512Y-120350788D01*
X84311501Y-120372869D01*
X91313181Y-127374549D01*
X91346666Y-127435872D01*
X91349500Y-127462230D01*
X91349500Y-127665677D01*
X91332887Y-127727677D01*
X91272820Y-127831715D01*
X91214326Y-128011742D01*
X91194540Y-128200000D01*
X91214326Y-128388257D01*
X91272820Y-128568284D01*
X91367466Y-128732216D01*
X91494129Y-128872889D01*
X91647269Y-128984151D01*
X91820197Y-129061144D01*
X92005352Y-129100500D01*
X92005354Y-129100500D01*
X92194648Y-129100500D01*
X92318084Y-129074262D01*
X92379803Y-129061144D01*
X92552730Y-128984151D01*
X92705871Y-128872888D01*
X92832533Y-128732216D01*
X92927179Y-128568284D01*
X92985674Y-128388256D01*
X92990952Y-128338037D01*
X93017535Y-128273425D01*
X93074832Y-128233440D01*
X93144651Y-128230780D01*
X93201951Y-128263318D01*
X93670849Y-128732216D01*
X94287228Y-129348595D01*
X94317478Y-129397958D01*
X94372820Y-129568284D01*
X94467466Y-129732215D01*
X94521772Y-129792528D01*
X94552002Y-129855519D01*
X94543377Y-129924854D01*
X94498636Y-129978520D01*
X94431983Y-129999478D01*
X94429622Y-129999500D01*
X80124500Y-129999500D01*
X80057461Y-129979815D01*
X80011706Y-129927011D01*
X80000500Y-129875500D01*
X80000500Y-126067764D01*
X82145787Y-126067764D01*
X82175413Y-126337016D01*
X82209998Y-126469304D01*
X82243928Y-126599088D01*
X82300289Y-126731716D01*
X82349871Y-126848392D01*
X82490982Y-127079611D01*
X82580253Y-127186881D01*
X82664255Y-127287820D01*
X82865998Y-127468582D01*
X83091910Y-127618044D01*
X83122142Y-127632216D01*
X83337177Y-127733021D01*
X83589635Y-127808974D01*
X83596569Y-127811060D01*
X83864561Y-127850500D01*
X83864564Y-127850500D01*
X84065369Y-127850500D01*
X84067631Y-127850500D01*
X84270156Y-127835677D01*
X84534553Y-127776780D01*
X84787558Y-127680014D01*
X85023777Y-127547441D01*
X85238177Y-127381888D01*
X85426186Y-127186881D01*
X85583799Y-126966579D01*
X85707656Y-126725675D01*
X85795118Y-126469305D01*
X85844319Y-126202933D01*
X85854212Y-125932235D01*
X85824586Y-125662982D01*
X85756072Y-125400912D01*
X85650130Y-125151610D01*
X85509018Y-124920390D01*
X85509017Y-124920388D01*
X85335746Y-124712181D01*
X85230759Y-124618112D01*
X85134002Y-124531418D01*
X84908090Y-124381956D01*
X84899700Y-124378023D01*
X84662822Y-124266978D01*
X84403437Y-124188941D01*
X84403431Y-124188940D01*
X84135439Y-124149500D01*
X83932369Y-124149500D01*
X83930120Y-124149664D01*
X83930109Y-124149665D01*
X83729843Y-124164322D01*
X83465449Y-124223219D01*
X83212441Y-124319986D01*
X82976223Y-124452559D01*
X82761825Y-124618109D01*
X82573813Y-124813120D01*
X82416201Y-125033420D01*
X82292342Y-125274329D01*
X82204881Y-125530695D01*
X82155680Y-125797066D01*
X82145787Y-126067764D01*
X80000500Y-126067764D01*
X80000500Y-54067764D01*
X82145787Y-54067764D01*
X82175413Y-54337016D01*
X82175414Y-54337018D01*
X82243928Y-54599088D01*
X82349870Y-54848390D01*
X82349871Y-54848392D01*
X82490982Y-55079611D01*
X82580253Y-55186881D01*
X82664255Y-55287820D01*
X82865998Y-55468582D01*
X83091910Y-55618044D01*
X83187507Y-55662858D01*
X83337177Y-55733021D01*
X83596562Y-55811058D01*
X83596569Y-55811060D01*
X83864561Y-55850500D01*
X83864564Y-55850500D01*
X84065369Y-55850500D01*
X84067631Y-55850500D01*
X84270156Y-55835677D01*
X84534553Y-55776780D01*
X84787558Y-55680014D01*
X85023777Y-55547441D01*
X85238177Y-55381888D01*
X85426186Y-55186881D01*
X85583799Y-54966579D01*
X85707656Y-54725675D01*
X85795118Y-54469305D01*
X85844319Y-54202933D01*
X85849259Y-54067764D01*
X194145787Y-54067764D01*
X194175413Y-54337016D01*
X194175414Y-54337018D01*
X194243928Y-54599088D01*
X194349870Y-54848390D01*
X194349871Y-54848392D01*
X194490982Y-55079611D01*
X194580253Y-55186881D01*
X194664255Y-55287820D01*
X194865998Y-55468582D01*
X195091910Y-55618044D01*
X195187507Y-55662858D01*
X195337177Y-55733021D01*
X195596562Y-55811058D01*
X195596569Y-55811060D01*
X195864561Y-55850500D01*
X195864564Y-55850500D01*
X196065369Y-55850500D01*
X196067631Y-55850500D01*
X196270156Y-55835677D01*
X196534553Y-55776780D01*
X196787558Y-55680014D01*
X197023777Y-55547441D01*
X197238177Y-55381888D01*
X197426186Y-55186881D01*
X197583799Y-54966579D01*
X197707656Y-54725675D01*
X197795118Y-54469305D01*
X197844319Y-54202933D01*
X197854212Y-53932235D01*
X197824586Y-53662982D01*
X197756072Y-53400912D01*
X197650130Y-53151610D01*
X197509018Y-52920390D01*
X197509017Y-52920388D01*
X197335746Y-52712181D01*
X197230759Y-52618112D01*
X197134002Y-52531418D01*
X196908090Y-52381956D01*
X196908086Y-52381954D01*
X196662822Y-52266978D01*
X196403437Y-52188941D01*
X196403431Y-52188940D01*
X196135439Y-52149500D01*
X195932369Y-52149500D01*
X195930120Y-52149664D01*
X195930109Y-52149665D01*
X195729843Y-52164322D01*
X195465449Y-52223219D01*
X195212441Y-52319986D01*
X194976223Y-52452559D01*
X194761825Y-52618109D01*
X194573813Y-52813120D01*
X194416201Y-53033420D01*
X194292342Y-53274329D01*
X194204881Y-53530695D01*
X194155680Y-53797066D01*
X194145787Y-54067764D01*
X85849259Y-54067764D01*
X85854212Y-53932235D01*
X85824586Y-53662982D01*
X85756072Y-53400912D01*
X85650130Y-53151610D01*
X85509018Y-52920390D01*
X85509017Y-52920388D01*
X85335746Y-52712181D01*
X85230759Y-52618112D01*
X85134002Y-52531418D01*
X84908090Y-52381956D01*
X84908086Y-52381954D01*
X84662822Y-52266978D01*
X84403437Y-52188941D01*
X84403431Y-52188940D01*
X84135439Y-52149500D01*
X83932369Y-52149500D01*
X83930120Y-52149664D01*
X83930109Y-52149665D01*
X83729843Y-52164322D01*
X83465449Y-52223219D01*
X83212441Y-52319986D01*
X82976223Y-52452559D01*
X82761825Y-52618109D01*
X82573813Y-52813120D01*
X82416201Y-53033420D01*
X82292342Y-53274329D01*
X82204881Y-53530695D01*
X82155680Y-53797066D01*
X82145787Y-54067764D01*
X80000500Y-54067764D01*
X80000500Y-50124500D01*
X80020185Y-50057461D01*
X80072989Y-50011706D01*
X80124500Y-50000500D01*
X199875500Y-50000500D01*
X199942539Y-50020185D01*
G37*
%TD.AperFunction*%
%TA.AperFunction,Conductor*%
G36*
X85567807Y-96052398D02*
G01*
X90299196Y-100783787D01*
X90312096Y-100799888D01*
X90363223Y-100847900D01*
X90366020Y-100850611D01*
X90385529Y-100870120D01*
X90388709Y-100872587D01*
X90397571Y-100880155D01*
X90418171Y-100899500D01*
X90429418Y-100910062D01*
X90446970Y-100919711D01*
X90463238Y-100930397D01*
X90479064Y-100942673D01*
X90519146Y-100960017D01*
X90529633Y-100965155D01*
X90567907Y-100986197D01*
X90576410Y-100988379D01*
X90587308Y-100991178D01*
X90605713Y-100997478D01*
X90624104Y-101005437D01*
X90667250Y-101012270D01*
X90678668Y-101014635D01*
X90720981Y-101025500D01*
X90741016Y-101025500D01*
X90760415Y-101027027D01*
X90780196Y-101030160D01*
X90823674Y-101026050D01*
X90835344Y-101025500D01*
X93446753Y-101025500D01*
X93513792Y-101045185D01*
X93538900Y-101066526D01*
X93544629Y-101072888D01*
X93697770Y-101184151D01*
X93697771Y-101184151D01*
X93697772Y-101184152D01*
X93870697Y-101261144D01*
X94055852Y-101300500D01*
X94125500Y-101300500D01*
X94192539Y-101320185D01*
X94238294Y-101372989D01*
X94249499Y-101424499D01*
X94249499Y-104184150D01*
X94249499Y-106936299D01*
X94248190Y-106954267D01*
X94244710Y-106978022D01*
X94249028Y-107027368D01*
X94249500Y-107038175D01*
X94249500Y-107043709D01*
X94249916Y-107047272D01*
X94249917Y-107047282D01*
X94253098Y-107074496D01*
X94253464Y-107078082D01*
X94260109Y-107154041D01*
X94264329Y-107173071D01*
X94264758Y-107174251D01*
X94264759Y-107174255D01*
X94290413Y-107244742D01*
X94291582Y-107248107D01*
X94315580Y-107320524D01*
X94324075Y-107338072D01*
X94365979Y-107401784D01*
X94367889Y-107404782D01*
X94404707Y-107464471D01*
X94407952Y-107469732D01*
X94420253Y-107484830D01*
X94421168Y-107485693D01*
X94421170Y-107485696D01*
X94449852Y-107512756D01*
X94475708Y-107537150D01*
X94478295Y-107539663D01*
X95277840Y-108339208D01*
X95311325Y-108400531D01*
X95306341Y-108470223D01*
X95297547Y-108488888D01*
X95272820Y-108531716D01*
X95214326Y-108711742D01*
X95194540Y-108900000D01*
X95214326Y-109088257D01*
X95272820Y-109268284D01*
X95332887Y-109372321D01*
X95349500Y-109434321D01*
X95349500Y-112637769D01*
X95329815Y-112704808D01*
X95313181Y-112725450D01*
X89825451Y-118213181D01*
X89764128Y-118246666D01*
X89737770Y-118249500D01*
X85187701Y-118249500D01*
X85120662Y-118229815D01*
X85086126Y-118196623D01*
X85044781Y-118137576D01*
X85038495Y-118128599D01*
X84871401Y-117961505D01*
X84685402Y-117831267D01*
X84641780Y-117776692D01*
X84634587Y-117707193D01*
X84666109Y-117644839D01*
X84685405Y-117628119D01*
X84761373Y-117574925D01*
X84132533Y-116946086D01*
X84142315Y-116944680D01*
X84273100Y-116884952D01*
X84381761Y-116790798D01*
X84459493Y-116669844D01*
X84483076Y-116589524D01*
X85114925Y-117221373D01*
X85173600Y-117137576D01*
X85273430Y-116923492D01*
X85334569Y-116695318D01*
X85355157Y-116460000D01*
X85334569Y-116224681D01*
X85273430Y-115996507D01*
X85173599Y-115782421D01*
X85114926Y-115698626D01*
X85114925Y-115698625D01*
X84483076Y-116330475D01*
X84459493Y-116250156D01*
X84381761Y-116129202D01*
X84273100Y-116035048D01*
X84142315Y-115975320D01*
X84132533Y-115973913D01*
X84761373Y-115345073D01*
X84761373Y-115345072D01*
X84685405Y-115291880D01*
X84641780Y-115237304D01*
X84634586Y-115167805D01*
X84666108Y-115105451D01*
X84685399Y-115088734D01*
X84871401Y-114958495D01*
X85038495Y-114791401D01*
X85174035Y-114597830D01*
X85273903Y-114383663D01*
X85335063Y-114155408D01*
X85355659Y-113920000D01*
X85335063Y-113684592D01*
X85273903Y-113456337D01*
X85174035Y-113242171D01*
X85038495Y-113048599D01*
X84871401Y-112881505D01*
X84685839Y-112751573D01*
X84642215Y-112696997D01*
X84635023Y-112627498D01*
X84666545Y-112565144D01*
X84685831Y-112548432D01*
X84871401Y-112418495D01*
X85038495Y-112251401D01*
X85174035Y-112057830D01*
X85273903Y-111843663D01*
X85335063Y-111615408D01*
X85347924Y-111468413D01*
X85356598Y-111369271D01*
X85382050Y-111304202D01*
X85438641Y-111263223D01*
X85508403Y-111259345D01*
X85567807Y-111292397D01*
X87159197Y-112883787D01*
X87172098Y-112899889D01*
X87174212Y-112901874D01*
X87174214Y-112901877D01*
X87221561Y-112946339D01*
X87223240Y-112947916D01*
X87226036Y-112950626D01*
X87245530Y-112970120D01*
X87248615Y-112972513D01*
X87248701Y-112972580D01*
X87257573Y-112980158D01*
X87289418Y-113010062D01*
X87306974Y-113019714D01*
X87323231Y-113030392D01*
X87339064Y-113042674D01*
X87352754Y-113048598D01*
X87379156Y-113060023D01*
X87389643Y-113065160D01*
X87427908Y-113086197D01*
X87447316Y-113091180D01*
X87465710Y-113097478D01*
X87484105Y-113105438D01*
X87527254Y-113112271D01*
X87538680Y-113114638D01*
X87554222Y-113118629D01*
X87580980Y-113125500D01*
X87580981Y-113125500D01*
X87601016Y-113125500D01*
X87620413Y-113127026D01*
X87640196Y-113130160D01*
X87683674Y-113126050D01*
X87695344Y-113125500D01*
X87696253Y-113125500D01*
X87763292Y-113145185D01*
X87788400Y-113166526D01*
X87794129Y-113172888D01*
X87947270Y-113284151D01*
X87947271Y-113284151D01*
X87947272Y-113284152D01*
X88120197Y-113361144D01*
X88305352Y-113400500D01*
X88305354Y-113400500D01*
X88494648Y-113400500D01*
X88618083Y-113374262D01*
X88679803Y-113361144D01*
X88772215Y-113319999D01*
X88800064Y-113307600D01*
X88869314Y-113298315D01*
X88932591Y-113327943D01*
X88969804Y-113387078D01*
X88974500Y-113420879D01*
X88974500Y-114750812D01*
X88954815Y-114817851D01*
X88942650Y-114833784D01*
X88867466Y-114917283D01*
X88772820Y-115081215D01*
X88714326Y-115261242D01*
X88694540Y-115449499D01*
X88714326Y-115637757D01*
X88772820Y-115817784D01*
X88867466Y-115981716D01*
X88994129Y-116122389D01*
X89147269Y-116233651D01*
X89320197Y-116310644D01*
X89505352Y-116350000D01*
X89505354Y-116350000D01*
X89694648Y-116350000D01*
X89818083Y-116323762D01*
X89879803Y-116310644D01*
X90052730Y-116233651D01*
X90143361Y-116167804D01*
X90205870Y-116122389D01*
X90284513Y-116035048D01*
X90332533Y-115981716D01*
X90427179Y-115817784D01*
X90485674Y-115637756D01*
X90505460Y-115449500D01*
X90485674Y-115261244D01*
X90436694Y-115110500D01*
X90427179Y-115081215D01*
X90332533Y-114917283D01*
X90257350Y-114833784D01*
X90227120Y-114770793D01*
X90225500Y-114750812D01*
X90225500Y-111982743D01*
X90227764Y-111962239D01*
X90226306Y-111915849D01*
X90225561Y-111892126D01*
X90225500Y-111888231D01*
X90225500Y-111864540D01*
X90225500Y-111860650D01*
X90224998Y-111856677D01*
X90224080Y-111845018D01*
X90222709Y-111801373D01*
X90217120Y-111782140D01*
X90213174Y-111763082D01*
X90210664Y-111743206D01*
X90194588Y-111702604D01*
X90190804Y-111691553D01*
X90184881Y-111671168D01*
X90178618Y-111649610D01*
X90168414Y-111632355D01*
X90159861Y-111614895D01*
X90156242Y-111605754D01*
X90152486Y-111596268D01*
X90126808Y-111560925D01*
X90120401Y-111551171D01*
X90098169Y-111513579D01*
X90084006Y-111499416D01*
X90071367Y-111484617D01*
X90059595Y-111468413D01*
X90025941Y-111440573D01*
X90017299Y-111432709D01*
X85340237Y-106755646D01*
X85306752Y-106694323D01*
X85308143Y-106635872D01*
X85335063Y-106535408D01*
X85355659Y-106300000D01*
X85335063Y-106064592D01*
X85273903Y-105836337D01*
X85174035Y-105622171D01*
X85038495Y-105428599D01*
X84871401Y-105261505D01*
X84685839Y-105131573D01*
X84642215Y-105076997D01*
X84635023Y-105007498D01*
X84666545Y-104945144D01*
X84685831Y-104928432D01*
X84871401Y-104798495D01*
X85038495Y-104631401D01*
X85174035Y-104437830D01*
X85273903Y-104223663D01*
X85335063Y-103995408D01*
X85355659Y-103760000D01*
X85335063Y-103524592D01*
X85273903Y-103296337D01*
X85174035Y-103082171D01*
X85038495Y-102888599D01*
X84871401Y-102721505D01*
X84685839Y-102591573D01*
X84642215Y-102536997D01*
X84635023Y-102467498D01*
X84666545Y-102405144D01*
X84685831Y-102388432D01*
X84871401Y-102258495D01*
X85038495Y-102091401D01*
X85174035Y-101897830D01*
X85273903Y-101683663D01*
X85335063Y-101455408D01*
X85355659Y-101220000D01*
X85335063Y-100984592D01*
X85273903Y-100756337D01*
X85174035Y-100542171D01*
X85038495Y-100348599D01*
X84871401Y-100181505D01*
X84685839Y-100051573D01*
X84642215Y-99996997D01*
X84635023Y-99927498D01*
X84666545Y-99865144D01*
X84685831Y-99848432D01*
X84871401Y-99718495D01*
X85038495Y-99551401D01*
X85174035Y-99357830D01*
X85273903Y-99143663D01*
X85335063Y-98915408D01*
X85355659Y-98680000D01*
X85348703Y-98600500D01*
X85335063Y-98444592D01*
X85303057Y-98325144D01*
X85273903Y-98216337D01*
X85174035Y-98002171D01*
X85038495Y-97808599D01*
X84871401Y-97641505D01*
X84685839Y-97511573D01*
X84642215Y-97456997D01*
X84635023Y-97387498D01*
X84666545Y-97325144D01*
X84685831Y-97308432D01*
X84871401Y-97178495D01*
X85038495Y-97011401D01*
X85174035Y-96817830D01*
X85273903Y-96603663D01*
X85335063Y-96375408D01*
X85350150Y-96202965D01*
X85356598Y-96129272D01*
X85382050Y-96064203D01*
X85438641Y-96023224D01*
X85508403Y-96019346D01*
X85567807Y-96052398D01*
G37*
%TD.AperFunction*%
%TA.AperFunction,Conductor*%
G36*
X97080507Y-64749844D02*
G01*
X97158239Y-64870798D01*
X97266900Y-64964952D01*
X97397685Y-65024680D01*
X97407466Y-65026086D01*
X96778625Y-65654925D01*
X96854594Y-65708119D01*
X96898219Y-65762696D01*
X96905413Y-65832194D01*
X96873890Y-65894549D01*
X96854595Y-65911269D01*
X96668595Y-66041508D01*
X96493834Y-66216270D01*
X96491128Y-66213564D01*
X96452151Y-66244671D01*
X96382647Y-66251809D01*
X96320317Y-66220237D01*
X96287539Y-66168890D01*
X96284814Y-66160666D01*
X96192712Y-66011344D01*
X96192711Y-66011342D01*
X96068657Y-65887288D01*
X95919334Y-65795186D01*
X95846967Y-65771206D01*
X95789522Y-65731433D01*
X95762699Y-65666917D01*
X95762585Y-65656137D01*
X95132533Y-65026086D01*
X95142315Y-65024680D01*
X95273100Y-64964952D01*
X95381761Y-64870798D01*
X95459493Y-64749844D01*
X95483077Y-64669523D01*
X96114925Y-65301372D01*
X96168424Y-65224969D01*
X96223001Y-65181344D01*
X96292499Y-65174150D01*
X96354854Y-65205673D01*
X96371574Y-65224969D01*
X96425072Y-65301373D01*
X96425073Y-65301373D01*
X97056923Y-64669523D01*
X97080507Y-64749844D01*
G37*
%TD.AperFunction*%
%TA.AperFunction,Conductor*%
G36*
X97080507Y-62209844D02*
G01*
X97158239Y-62330798D01*
X97266900Y-62424952D01*
X97397685Y-62484680D01*
X97407466Y-62486086D01*
X96778625Y-63114925D01*
X96855031Y-63168425D01*
X96898655Y-63223002D01*
X96905848Y-63292501D01*
X96874326Y-63354855D01*
X96855029Y-63371576D01*
X96778626Y-63425072D01*
X96778625Y-63425073D01*
X97407466Y-64053913D01*
X97397685Y-64055320D01*
X97266900Y-64115048D01*
X97158239Y-64209202D01*
X97080507Y-64330156D01*
X97056923Y-64410475D01*
X96425073Y-63778625D01*
X96425072Y-63778626D01*
X96371576Y-63855030D01*
X96317000Y-63898656D01*
X96247501Y-63905850D01*
X96185146Y-63874328D01*
X96168425Y-63855031D01*
X96114926Y-63778626D01*
X96114925Y-63778625D01*
X95483076Y-64410474D01*
X95459493Y-64330156D01*
X95381761Y-64209202D01*
X95273100Y-64115048D01*
X95142315Y-64055320D01*
X95132533Y-64053913D01*
X95761373Y-63425073D01*
X95761373Y-63425072D01*
X95684969Y-63371574D01*
X95641344Y-63316997D01*
X95634150Y-63247499D01*
X95665673Y-63185144D01*
X95684969Y-63168424D01*
X95761373Y-63114925D01*
X95132533Y-62486086D01*
X95142315Y-62484680D01*
X95273100Y-62424952D01*
X95381761Y-62330798D01*
X95459493Y-62209844D01*
X95483076Y-62129524D01*
X96114925Y-62761373D01*
X96168424Y-62684969D01*
X96223001Y-62641344D01*
X96292499Y-62634150D01*
X96354854Y-62665673D01*
X96371574Y-62684969D01*
X96425072Y-62761373D01*
X96425073Y-62761373D01*
X97056923Y-62129523D01*
X97080507Y-62209844D01*
G37*
%TD.AperFunction*%
%TA.AperFunction,Conductor*%
G36*
X97080507Y-59669844D02*
G01*
X97158239Y-59790798D01*
X97266900Y-59884952D01*
X97397685Y-59944680D01*
X97407466Y-59946086D01*
X96778625Y-60574925D01*
X96855031Y-60628425D01*
X96898655Y-60683002D01*
X96905848Y-60752501D01*
X96874326Y-60814855D01*
X96855029Y-60831576D01*
X96778625Y-60885072D01*
X97407466Y-61513913D01*
X97397685Y-61515320D01*
X97266900Y-61575048D01*
X97158239Y-61669202D01*
X97080507Y-61790156D01*
X97056923Y-61870475D01*
X96425073Y-61238625D01*
X96371576Y-61315030D01*
X96317000Y-61358656D01*
X96247501Y-61365850D01*
X96185146Y-61334328D01*
X96168425Y-61315031D01*
X96114926Y-61238626D01*
X96114925Y-61238625D01*
X95483076Y-61870475D01*
X95459493Y-61790156D01*
X95381761Y-61669202D01*
X95273100Y-61575048D01*
X95142315Y-61515320D01*
X95132533Y-61513913D01*
X95761373Y-60885073D01*
X95761373Y-60885072D01*
X95684969Y-60831574D01*
X95641344Y-60776997D01*
X95634150Y-60707499D01*
X95665673Y-60645144D01*
X95684969Y-60628424D01*
X95761373Y-60574925D01*
X95132533Y-59946086D01*
X95142315Y-59944680D01*
X95273100Y-59884952D01*
X95381761Y-59790798D01*
X95459493Y-59669844D01*
X95483076Y-59589524D01*
X96114925Y-60221373D01*
X96168424Y-60144969D01*
X96223001Y-60101344D01*
X96292499Y-60094150D01*
X96354854Y-60125673D01*
X96371574Y-60144969D01*
X96425072Y-60221373D01*
X96425073Y-60221373D01*
X97056923Y-59589523D01*
X97080507Y-59669844D01*
G37*
%TD.AperFunction*%
%TA.AperFunction,Conductor*%
G36*
X96354854Y-57586545D02*
G01*
X96371572Y-57605838D01*
X96501505Y-57791401D01*
X96668599Y-57958495D01*
X96854596Y-58088732D01*
X96898219Y-58143307D01*
X96905412Y-58212806D01*
X96873890Y-58275160D01*
X96854594Y-58291881D01*
X96778626Y-58345073D01*
X97407466Y-58973913D01*
X97397685Y-58975320D01*
X97266900Y-59035048D01*
X97158239Y-59129202D01*
X97080507Y-59250156D01*
X97056923Y-59330475D01*
X96425073Y-58698625D01*
X96371576Y-58775030D01*
X96317000Y-58818656D01*
X96247501Y-58825850D01*
X96185146Y-58794328D01*
X96168425Y-58775031D01*
X96114926Y-58698626D01*
X96114925Y-58698625D01*
X95483076Y-59330475D01*
X95459493Y-59250156D01*
X95381761Y-59129202D01*
X95273100Y-59035048D01*
X95142315Y-58975320D01*
X95132533Y-58973913D01*
X95761373Y-58345073D01*
X95761373Y-58345072D01*
X95685405Y-58291880D01*
X95641780Y-58237304D01*
X95634586Y-58167805D01*
X95666108Y-58105451D01*
X95685399Y-58088734D01*
X95871401Y-57958495D01*
X96038495Y-57791401D01*
X96168427Y-57605838D01*
X96223001Y-57562216D01*
X96292499Y-57555022D01*
X96354854Y-57586545D01*
G37*
%TD.AperFunction*%
%TD*%
M02*
