%TF.GenerationSoftware,KiCad,Pcbnew,7.0.2*%
%TF.CreationDate,2024-07-09T13:38:02+01:00*%
%TF.ProjectId,dk2_03_bottom,646b325f-3033-45f6-926f-74746f6d2e6b,rev?*%
%TF.SameCoordinates,Original*%
%TF.FileFunction,Copper,L2,Bot*%
%TF.FilePolarity,Positive*%
%FSLAX46Y46*%
G04 Gerber Fmt 4.6, Leading zero omitted, Abs format (unit mm)*
G04 Created by KiCad (PCBNEW 7.0.2) date 2024-07-09 13:38:02*
%MOMM*%
%LPD*%
G01*
G04 APERTURE LIST*
G04 Aperture macros list*
%AMRoundRect*
0 Rectangle with rounded corners*
0 $1 Rounding radius*
0 $2 $3 $4 $5 $6 $7 $8 $9 X,Y pos of 4 corners*
0 Add a 4 corners polygon primitive as box body*
4,1,4,$2,$3,$4,$5,$6,$7,$8,$9,$2,$3,0*
0 Add four circle primitives for the rounded corners*
1,1,$1+$1,$2,$3*
1,1,$1+$1,$4,$5*
1,1,$1+$1,$6,$7*
1,1,$1+$1,$8,$9*
0 Add four rect primitives between the rounded corners*
20,1,$1+$1,$2,$3,$4,$5,0*
20,1,$1+$1,$4,$5,$6,$7,0*
20,1,$1+$1,$6,$7,$8,$9,0*
20,1,$1+$1,$8,$9,$2,$3,0*%
G04 Aperture macros list end*
%TA.AperFunction,ComponentPad*%
%ADD10R,1.700000X1.700000*%
%TD*%
%TA.AperFunction,ComponentPad*%
%ADD11O,1.700000X1.700000*%
%TD*%
%TA.AperFunction,ComponentPad*%
%ADD12RoundRect,0.250000X-0.600000X-0.600000X0.600000X-0.600000X0.600000X0.600000X-0.600000X0.600000X0*%
%TD*%
%TA.AperFunction,ComponentPad*%
%ADD13C,1.700000*%
%TD*%
%TA.AperFunction,ComponentPad*%
%ADD14C,2.600000*%
%TD*%
%TA.AperFunction,ComponentPad*%
%ADD15R,1.600000X1.600000*%
%TD*%
%TA.AperFunction,ComponentPad*%
%ADD16C,1.600000*%
%TD*%
%TA.AperFunction,ComponentPad*%
%ADD17R,2.000000X2.000000*%
%TD*%
%TA.AperFunction,ComponentPad*%
%ADD18C,2.000000*%
%TD*%
%TA.AperFunction,ComponentPad*%
%ADD19R,3.200000X3.200000*%
%TD*%
%TA.AperFunction,ComponentPad*%
%ADD20O,3.200000X3.200000*%
%TD*%
%TA.AperFunction,SMDPad,CuDef*%
%ADD21R,3.500000X1.700000*%
%TD*%
%TA.AperFunction,SMDPad,CuDef*%
%ADD22R,1.700000X3.500000*%
%TD*%
%TA.AperFunction,ViaPad*%
%ADD23C,0.800000*%
%TD*%
%TA.AperFunction,Conductor*%
%ADD24C,0.500000*%
%TD*%
%TA.AperFunction,Conductor*%
%ADD25C,0.250000*%
%TD*%
G04 APERTURE END LIST*
D10*
%TO.P,J1,1,Pin_1*%
%TO.N,unconnected-(J1-Pin_1-Pad1)*%
X84000000Y-55920000D03*
D11*
%TO.P,J1,2,Pin_2*%
%TO.N,4051_ADDRESS_A*%
X84000000Y-58460000D03*
%TO.P,J1,3,Pin_3*%
%TO.N,4051_ADDRESS_B*%
X84000000Y-61000000D03*
%TO.P,J1,4,Pin_4*%
%TO.N,4051_ADDRESS_C*%
X84000000Y-63540000D03*
%TO.P,J1,5,Pin_5*%
%TO.N,4051_READING_1*%
X84000000Y-66080000D03*
%TO.P,J1,6,Pin_6*%
%TO.N,4051_READING_0*%
X84000000Y-68620000D03*
%TO.P,J1,7,Pin_7*%
%TO.N,165_LOAD*%
X84000000Y-71160000D03*
%TO.P,J1,8,Pin_8*%
%TO.N,165_CLOCK*%
X84000000Y-73700000D03*
%TO.P,J1,9,Pin_9*%
%TO.N,165_DATA*%
X84000000Y-76240000D03*
%TO.P,J1,10,Pin_10*%
%TO.N,TRIGGER_OUT_1_EURO*%
X84000000Y-78780000D03*
%TO.P,J1,11,Pin_11*%
%TO.N,TRIGGER_OUT_2_EURO*%
X84000000Y-81320000D03*
%TO.P,J1,12,Pin_12*%
%TO.N,TRIGGER_OUT_3_EURO*%
X84000000Y-83860000D03*
%TO.P,J1,13,Pin_13*%
%TO.N,TRIGGER_OUT_4_EURO*%
X84000000Y-86400000D03*
%TO.P,J1,14,Pin_14*%
%TO.N,SYNC_IN_EURO*%
X84000000Y-88940000D03*
%TO.P,J1,15,Pin_15*%
%TO.N,SYNC_OUT_EURO*%
X84000000Y-91480000D03*
%TO.P,J1,16,Pin_16*%
%TO.N,+12V*%
X84000000Y-94020000D03*
%TO.P,J1,17,Pin_17*%
%TO.N,+3.3VDAC*%
X84000000Y-96560000D03*
%TO.P,J1,18,Pin_18*%
%TO.N,+3.3V*%
X84000000Y-99100000D03*
%TO.P,J1,19,Pin_19*%
%TO.N,GND*%
X84000000Y-101640000D03*
%TO.P,J1,20,Pin_20*%
%TO.N,-12V*%
X84000000Y-104180000D03*
%TD*%
D10*
%TO.P,J2,1,Pin_1*%
%TO.N,unconnected-(J2-Pin_1-Pad1)*%
X196000000Y-61000000D03*
D11*
%TO.P,J2,2,Pin_2*%
%TO.N,unconnected-(J2-Pin_2-Pad2)*%
X196000000Y-63540000D03*
%TO.P,J2,3,Pin_3*%
%TO.N,SD_CLOCK*%
X196000000Y-66080000D03*
%TO.P,J2,4,Pin_4*%
%TO.N,SD_SERIAL_IN*%
X196000000Y-68620000D03*
%TO.P,J2,5,Pin_5*%
%TO.N,SD_SERIAL_OUT*%
X196000000Y-71160000D03*
%TO.P,J2,6,Pin_6*%
%TO.N,SD_CHIP_SELECT*%
X196000000Y-73700000D03*
%TO.P,J2,7,Pin_7*%
%TO.N,595_DATA*%
X196000000Y-76240000D03*
%TO.P,J2,8,Pin_8*%
%TO.N,595_CLOCK*%
X196000000Y-78780000D03*
%TO.P,J2,9,Pin_9*%
%TO.N,595_LATCH*%
X196000000Y-81320000D03*
%TO.P,J2,10,Pin_10*%
%TO.N,EURO_OUT_1*%
X196000000Y-83860000D03*
%TO.P,J2,11,Pin_11*%
%TO.N,EURO_OUT_2*%
X196000000Y-86400000D03*
%TO.P,J2,12,Pin_12*%
%TO.N,+12V*%
X196000000Y-88940000D03*
%TO.P,J2,13,Pin_13*%
%TO.N,+3.3VDAC*%
X196000000Y-91480000D03*
%TO.P,J2,14,Pin_14*%
%TO.N,+3.3V*%
X196000000Y-94020000D03*
%TO.P,J2,15,Pin_15*%
%TO.N,GND*%
X196000000Y-96560000D03*
%TO.P,J2,16,Pin_16*%
%TO.N,-12V*%
X196000000Y-99100000D03*
%TD*%
D12*
%TO.P,J3,1,Pin_1*%
%TO.N,-12V*%
X95000000Y-67080000D03*
D13*
%TO.P,J3,2,Pin_2*%
X97540000Y-67080000D03*
%TO.P,J3,3,Pin_3*%
%TO.N,GND*%
X95000000Y-64540000D03*
%TO.P,J3,4,Pin_4*%
X97540000Y-64540000D03*
%TO.P,J3,5,Pin_5*%
X95000000Y-62000000D03*
%TO.P,J3,6,Pin_6*%
X97540000Y-62000000D03*
%TO.P,J3,7,Pin_7*%
X95000000Y-59460000D03*
%TO.P,J3,8,Pin_8*%
X97540000Y-59460000D03*
%TO.P,J3,9,Pin_9*%
%TO.N,+12V*%
X95000000Y-56920000D03*
%TO.P,J3,10,Pin_10*%
X97540000Y-56920000D03*
%TD*%
D10*
%TO.P,JP1,1,A*%
%TO.N,Net-(JP1-A)*%
X190500000Y-53340000D03*
D11*
%TO.P,JP1,2,C*%
%TO.N,+3.3VDAC*%
X190500000Y-55880000D03*
%TO.P,JP1,3,B*%
%TO.N,+3.3V*%
X190500000Y-58420000D03*
%TD*%
D14*
%TO.P,L1,1,1*%
%TO.N,Net-(D2-K)*%
X120532323Y-72700000D03*
%TO.P,L1,2,2*%
%TO.N,+5V*%
X123532323Y-72700000D03*
%TD*%
D10*
%TO.P,J4,1,Pin_1*%
%TO.N,SERIAL_TX*%
X165000000Y-55880000D03*
D11*
%TO.P,J4,2,Pin_2*%
%TO.N,SERIAL_RX*%
X165000000Y-58420000D03*
%TO.P,J4,3,Pin_3*%
%TO.N,GND*%
X165000000Y-60960000D03*
%TO.P,J4,4,Pin_4*%
%TO.N,SD_CLOCK*%
X165000000Y-63500000D03*
%TO.P,J4,5,Pin_5*%
%TO.N,SD_SERIAL_IN*%
X165000000Y-66040000D03*
%TO.P,J4,6,Pin_6*%
%TO.N,SD_SERIAL_OUT*%
X165000000Y-68580000D03*
%TO.P,J4,7,Pin_7*%
%TO.N,SD_CHIP_SELECT*%
X165000000Y-71120000D03*
%TO.P,J4,8,Pin_8*%
%TO.N,GND*%
X165000000Y-73660000D03*
%TO.P,J4,9,Pin_9*%
%TO.N,595_DATA*%
X165000000Y-76200000D03*
%TO.P,J4,10,Pin_10*%
%TO.N,595_CLOCK*%
X165000000Y-78740000D03*
%TO.P,J4,11,Pin_11*%
%TO.N,595_LATCH*%
X165000000Y-81280000D03*
%TO.P,J4,12,Pin_12*%
%TO.N,DAC_DOUT*%
X165000000Y-83820000D03*
%TO.P,J4,13,Pin_13*%
%TO.N,GND*%
X165000000Y-86360000D03*
%TO.P,J4,14,Pin_14*%
%TO.N,DAC_BCLK*%
X165000000Y-88900000D03*
%TO.P,J4,15,Pin_15*%
%TO.N,DAC_LRC*%
X165000000Y-91440000D03*
%TO.P,J4,16,Pin_16*%
%TO.N,165_LOAD*%
X165000000Y-93980000D03*
%TO.P,J4,17,Pin_17*%
%TO.N,165_CLOCK*%
X165000000Y-96520000D03*
%TO.P,J4,18,Pin_18*%
%TO.N,GND*%
X165000000Y-99060000D03*
%TO.P,J4,19,Pin_19*%
%TO.N,165_DATA*%
X165000000Y-101600000D03*
%TO.P,J4,20,Pin_20*%
%TO.N,TRIGGER_OUT_1*%
X165000000Y-104140000D03*
%TD*%
D15*
%TO.P,C27,1*%
%TO.N,+5V*%
X123879672Y-64600000D03*
D16*
%TO.P,C27,2*%
%TO.N,GND*%
X127379672Y-64600000D03*
%TD*%
D17*
%TO.P,C25,1*%
%TO.N,+12V*%
X118100000Y-65200000D03*
D18*
%TO.P,C25,2*%
%TO.N,GND*%
X113100000Y-65200000D03*
%TD*%
D19*
%TO.P,D2,1,K*%
%TO.N,Net-(D2-K)*%
X106490000Y-68880000D03*
D20*
%TO.P,D2,2,A*%
%TO.N,GND*%
X106490000Y-53640000D03*
%TD*%
D10*
%TO.P,J6,1,Pin_1*%
%TO.N,SERIAL_TX*%
X175260000Y-53340000D03*
D11*
%TO.P,J6,2,Pin_2*%
%TO.N,GND*%
X175260000Y-55880000D03*
%TO.P,J6,3,Pin_3*%
%TO.N,SERIAL_RX*%
X175260000Y-58420000D03*
%TD*%
D10*
%TO.P,J5,1,Pin_1*%
%TO.N,unconnected-(J5-Pin_1-Pad1)*%
X137160000Y-55880000D03*
D11*
%TO.P,J5,2,Pin_2*%
%TO.N,Net-(#FLG02-pwr)*%
X137160000Y-58420000D03*
%TO.P,J5,3,Pin_3*%
%TO.N,GND*%
X137160000Y-60960000D03*
%TO.P,J5,4,Pin_4*%
%TO.N,unconnected-(J5-Pin_4-Pad4)*%
X137160000Y-63500000D03*
%TO.P,J5,5,Pin_5*%
%TO.N,+3.3V*%
X137160000Y-66040000D03*
%TO.P,J5,6,Pin_6*%
%TO.N,unconnected-(J5-Pin_6-Pad6)*%
X137160000Y-68580000D03*
%TO.P,J5,7,Pin_7*%
%TO.N,TRIGGER_OUT_2*%
X137160000Y-71120000D03*
%TO.P,J5,8,Pin_8*%
%TO.N,GND*%
X137160000Y-73660000D03*
%TO.P,J5,9,Pin_9*%
%TO.N,4051_READING_1*%
X137160000Y-76200000D03*
%TO.P,J5,10,Pin_10*%
%TO.N,4051_READING_0*%
X137160000Y-78740000D03*
%TO.P,J5,11,Pin_11*%
%TO.N,unconnected-(J5-Pin_11-Pad11)*%
X137160000Y-81280000D03*
%TO.P,J5,12,Pin_12*%
%TO.N,TRIGGER_OUT_3*%
X137160000Y-83820000D03*
%TO.P,J5,13,Pin_13*%
%TO.N,GND*%
X137160000Y-86360000D03*
%TO.P,J5,14,Pin_14*%
%TO.N,4051_ADDRESS_C*%
X137160000Y-88900000D03*
%TO.P,J5,15,Pin_15*%
%TO.N,4051_ADDRESS_B*%
X137160000Y-91440000D03*
%TO.P,J5,16,Pin_16*%
%TO.N,4051_ADDRESS_A*%
X137160000Y-93980000D03*
%TO.P,J5,17,Pin_17*%
%TO.N,TRIGGER_OUT_4*%
X137160000Y-96520000D03*
%TO.P,J5,18,Pin_18*%
%TO.N,GND*%
X137160000Y-99060000D03*
%TO.P,J5,19,Pin_19*%
%TO.N,SYNC_OUT*%
X137160000Y-101600000D03*
%TO.P,J5,20,Pin_20*%
%TO.N,SYNC_IN*%
X137160000Y-104140000D03*
%TD*%
%TO.P,U1,1,GPIO0*%
%TO.N,SERIAL_TX*%
X160020000Y-55880000D03*
D21*
X160920000Y-55880000D03*
D11*
%TO.P,U1,2,GPIO1*%
%TO.N,SERIAL_RX*%
X160020000Y-58420000D03*
D21*
X160920000Y-58420000D03*
D10*
%TO.P,U1,3,GND*%
%TO.N,GND*%
X160020000Y-60960000D03*
D21*
X160920000Y-60960000D03*
D11*
%TO.P,U1,4,GPIO2*%
%TO.N,SD_CLOCK*%
X160020000Y-63500000D03*
D21*
X160920000Y-63500000D03*
D11*
%TO.P,U1,5,GPIO3*%
%TO.N,SD_SERIAL_IN*%
X160020000Y-66040000D03*
D21*
X160920000Y-66040000D03*
D11*
%TO.P,U1,6,GPIO4*%
%TO.N,SD_SERIAL_OUT*%
X160020000Y-68580000D03*
D21*
X160920000Y-68580000D03*
D11*
%TO.P,U1,7,GPIO5*%
%TO.N,SD_CHIP_SELECT*%
X160020000Y-71120000D03*
D21*
X160920000Y-71120000D03*
D10*
%TO.P,U1,8,GND*%
%TO.N,GND*%
X160020000Y-73660000D03*
D21*
X160920000Y-73660000D03*
D11*
%TO.P,U1,9,GPIO6*%
%TO.N,595_DATA*%
X160020000Y-76200000D03*
D21*
X160920000Y-76200000D03*
D11*
%TO.P,U1,10,GPIO7*%
%TO.N,595_CLOCK*%
X160020000Y-78740000D03*
D21*
X160920000Y-78740000D03*
D11*
%TO.P,U1,11,GPIO8*%
%TO.N,595_LATCH*%
X160020000Y-81280000D03*
D21*
X160920000Y-81280000D03*
D11*
%TO.P,U1,12,GPIO9*%
%TO.N,DAC_DOUT*%
X160020000Y-83820000D03*
D21*
X160920000Y-83820000D03*
D10*
%TO.P,U1,13,GND*%
%TO.N,GND*%
X160020000Y-86360000D03*
D21*
X160920000Y-86360000D03*
D11*
%TO.P,U1,14,GPIO10*%
%TO.N,DAC_BCLK*%
X160020000Y-88900000D03*
D21*
X160920000Y-88900000D03*
D11*
%TO.P,U1,15,GPIO11*%
%TO.N,DAC_LRC*%
X160020000Y-91440000D03*
D21*
X160920000Y-91440000D03*
D11*
%TO.P,U1,16,GPIO12*%
%TO.N,165_LOAD*%
X160020000Y-93980000D03*
D21*
X160920000Y-93980000D03*
D11*
%TO.P,U1,17,GPIO13*%
%TO.N,165_CLOCK*%
X160020000Y-96520000D03*
D21*
X160920000Y-96520000D03*
D10*
%TO.P,U1,18,GND*%
%TO.N,GND*%
X160020000Y-99060000D03*
D21*
X160920000Y-99060000D03*
D11*
%TO.P,U1,19,GPIO14*%
%TO.N,165_DATA*%
X160020000Y-101600000D03*
D21*
X160920000Y-101600000D03*
D11*
%TO.P,U1,20,GPIO15*%
%TO.N,TRIGGER_OUT_1*%
X160020000Y-104140000D03*
D21*
X160920000Y-104140000D03*
D11*
%TO.P,U1,21,GPIO16*%
%TO.N,SYNC_IN*%
X142240000Y-104140000D03*
D21*
X141340000Y-104140000D03*
D11*
%TO.P,U1,22,GPIO17*%
%TO.N,SYNC_OUT*%
X142240000Y-101600000D03*
D21*
X141340000Y-101600000D03*
D10*
%TO.P,U1,23,GND*%
%TO.N,GND*%
X142240000Y-99060000D03*
D21*
X141340000Y-99060000D03*
D11*
%TO.P,U1,24,GPIO18*%
%TO.N,TRIGGER_OUT_4*%
X142240000Y-96520000D03*
D21*
X141340000Y-96520000D03*
D11*
%TO.P,U1,25,GPIO19*%
%TO.N,4051_ADDRESS_A*%
X142240000Y-93980000D03*
D21*
X141340000Y-93980000D03*
D11*
%TO.P,U1,26,GPIO20*%
%TO.N,4051_ADDRESS_B*%
X142240000Y-91440000D03*
D21*
X141340000Y-91440000D03*
D11*
%TO.P,U1,27,GPIO21*%
%TO.N,4051_ADDRESS_C*%
X142240000Y-88900000D03*
D21*
X141340000Y-88900000D03*
D10*
%TO.P,U1,28,GND*%
%TO.N,GND*%
X142240000Y-86360000D03*
D21*
X141340000Y-86360000D03*
D11*
%TO.P,U1,29,GPIO22*%
%TO.N,TRIGGER_OUT_3*%
X142240000Y-83820000D03*
D21*
X141340000Y-83820000D03*
D11*
%TO.P,U1,30,RUN*%
%TO.N,unconnected-(J5-Pin_11-Pad11)*%
X142240000Y-81280000D03*
D21*
X141340000Y-81280000D03*
D11*
%TO.P,U1,31,GPIO26_ADC0*%
%TO.N,4051_READING_0*%
X142240000Y-78740000D03*
D21*
X141340000Y-78740000D03*
D11*
%TO.P,U1,32,GPIO27_ADC1*%
%TO.N,4051_READING_1*%
X142240000Y-76200000D03*
D21*
X141340000Y-76200000D03*
D10*
%TO.P,U1,33,AGND*%
%TO.N,GND*%
X142240000Y-73660000D03*
D21*
X141340000Y-73660000D03*
D11*
%TO.P,U1,34,GPIO28_ADC2*%
%TO.N,TRIGGER_OUT_2*%
X142240000Y-71120000D03*
D21*
X141340000Y-71120000D03*
D11*
%TO.P,U1,35,ADC_VREF*%
%TO.N,unconnected-(J5-Pin_6-Pad6)*%
X142240000Y-68580000D03*
D21*
X141340000Y-68580000D03*
D11*
%TO.P,U1,36,3V3*%
%TO.N,+3.3V*%
X142240000Y-66040000D03*
D21*
X141340000Y-66040000D03*
D11*
%TO.P,U1,37,3V3_EN*%
%TO.N,unconnected-(J5-Pin_4-Pad4)*%
X142240000Y-63500000D03*
D21*
X141340000Y-63500000D03*
D10*
%TO.P,U1,38,GND*%
%TO.N,GND*%
X142240000Y-60960000D03*
D21*
X141340000Y-60960000D03*
D11*
%TO.P,U1,39,VSYS*%
%TO.N,Net-(#FLG02-pwr)*%
X142240000Y-58420000D03*
D21*
X141340000Y-58420000D03*
D11*
%TO.P,U1,40,VBUS*%
%TO.N,unconnected-(J5-Pin_1-Pad1)*%
X142240000Y-55880000D03*
D21*
X141340000Y-55880000D03*
D11*
%TO.P,U1,41,SWCLK*%
%TO.N,unconnected-(U1-SWCLK-Pad41)*%
X153670000Y-103910000D03*
D22*
X153670000Y-104810000D03*
D10*
%TO.P,U1,42,GND*%
%TO.N,GND*%
X151130000Y-103910000D03*
D22*
X151130000Y-104810000D03*
D11*
%TO.P,U1,43,SWDIO*%
%TO.N,unconnected-(U1-SWDIO-Pad43)*%
X148590000Y-103910000D03*
D22*
X148590000Y-104810000D03*
%TD*%
D23*
%TO.N,GND*%
X97750000Y-89250000D03*
X119250000Y-100250000D03*
X97250000Y-103250000D03*
X188000000Y-54000000D03*
X185000000Y-74000000D03*
X111000000Y-79000000D03*
X105250000Y-84824500D03*
X128000000Y-84750000D03*
X191250000Y-71750000D03*
X145500000Y-104750000D03*
X124500000Y-52750000D03*
X110500000Y-89250000D03*
X107500000Y-101750000D03*
X98000000Y-78750000D03*
X116750000Y-88500000D03*
X124000000Y-59000000D03*
X178250000Y-73095500D03*
%TO.N,Net-(U4-VNEG)*%
X182250000Y-77250000D03*
X182250000Y-74500000D03*
%TO.N,SYNC_OUT*%
X113500000Y-102500000D03*
%TO.N,4051_ADDRESS_A*%
X124500000Y-87750000D03*
%TO.N,LINE_OUT_L*%
X169000000Y-72500000D03*
X184250000Y-85500000D03*
%TO.N,TRIGGER_OUT_2_EURO*%
X105500000Y-74500000D03*
X93500000Y-76500000D03*
%TO.N,TRIGGER_OUT_4_EURO*%
X106500000Y-85000000D03*
X97750000Y-91000000D03*
%TO.N,SYNC_OUT_EURO*%
X96500000Y-96500000D03*
%TO.N,+3.3VDAC*%
X197650500Y-61500000D03*
%TO.N,LINE_OUT_R*%
X188750000Y-84750000D03*
X171250000Y-75250000D03*
%TO.N,+12V*%
X105750000Y-103250000D03*
X184000000Y-92000000D03*
%TO.N,-12V*%
X88250000Y-107859500D03*
X101750000Y-96250000D03*
%TO.N,TRIGGER_OUT_1*%
X146000000Y-88500000D03*
X99250000Y-81500000D03*
%TO.N,TRIGGER_OUT_3*%
X110000000Y-92000000D03*
X99000000Y-92000000D03*
%TD*%
D24*
%TO.N,GND*%
X97750000Y-89250000D02*
X102175500Y-84824500D01*
X160020000Y-73660000D02*
X165000000Y-73660000D01*
X160020000Y-60960000D02*
X165000000Y-60960000D01*
X137160000Y-60960000D02*
X142240000Y-60960000D01*
X165000000Y-99060000D02*
X160020000Y-99060000D01*
X142240000Y-73660000D02*
X137160000Y-73660000D01*
X142240000Y-99060000D02*
X137160000Y-99060000D01*
X102175500Y-84824500D02*
X105250000Y-84824500D01*
X160020000Y-86360000D02*
X165000000Y-86360000D01*
X137160000Y-86360000D02*
X142240000Y-86360000D01*
D25*
%TO.N,SYNC_IN*%
X142240000Y-104140000D02*
X137160000Y-104140000D01*
%TO.N,Net-(U4-VNEG)*%
X182250000Y-74500000D02*
X182250000Y-77250000D01*
D24*
%TO.N,Net-(#FLG02-pwr)*%
X137160000Y-58420000D02*
X142240000Y-58420000D01*
D25*
%TO.N,SD_CLOCK*%
X196000000Y-66080000D02*
X193420000Y-63500000D01*
X160020000Y-63500000D02*
X165000000Y-63500000D01*
X193420000Y-63500000D02*
X165000000Y-63500000D01*
%TO.N,SD_SERIAL_OUT*%
X165000000Y-68580000D02*
X169180000Y-64400000D01*
X169180000Y-64400000D02*
X169750000Y-64400000D01*
X189240000Y-64400000D02*
X169750000Y-64400000D01*
X160020000Y-68580000D02*
X165000000Y-68580000D01*
X196000000Y-71160000D02*
X189240000Y-64400000D01*
%TO.N,SD_SERIAL_IN*%
X167090000Y-63950000D02*
X165000000Y-66040000D01*
X160020000Y-66040000D02*
X165000000Y-66040000D01*
X196000000Y-68620000D02*
X191330000Y-63950000D01*
X191330000Y-63950000D02*
X167090000Y-63950000D01*
%TO.N,SD_CHIP_SELECT*%
X187150000Y-64850000D02*
X196000000Y-73700000D01*
X171270000Y-64850000D02*
X187150000Y-64850000D01*
X165000000Y-71120000D02*
X171270000Y-64850000D01*
X160020000Y-71120000D02*
X165000000Y-71120000D01*
%TO.N,595_DATA*%
X175025000Y-86225000D02*
X165000000Y-76200000D01*
X194825000Y-77415000D02*
X194825000Y-80175000D01*
X196000000Y-76240000D02*
X194825000Y-77415000D01*
X188775000Y-86225000D02*
X175025000Y-86225000D01*
X160020000Y-76200000D02*
X165000000Y-76200000D01*
X194825000Y-80175000D02*
X188775000Y-86225000D01*
%TO.N,595_CLOCK*%
X172935000Y-86675000D02*
X165000000Y-78740000D01*
X188961396Y-86675000D02*
X172935000Y-86675000D01*
X160020000Y-78740000D02*
X165000000Y-78740000D01*
X196000000Y-79636396D02*
X188961396Y-86675000D01*
X196000000Y-78780000D02*
X196000000Y-79636396D01*
%TO.N,595_LATCH*%
X160020000Y-81280000D02*
X165000000Y-81280000D01*
X170845000Y-87125000D02*
X165000000Y-81280000D01*
X190195000Y-87125000D02*
X170845000Y-87125000D01*
X196000000Y-81320000D02*
X190195000Y-87125000D01*
%TO.N,DAC_DOUT*%
X165000000Y-83820000D02*
X160020000Y-83820000D01*
%TO.N,DAC_BCLK*%
X165000000Y-88900000D02*
X160020000Y-88900000D01*
%TO.N,DAC_LRC*%
X160020000Y-91440000D02*
X165000000Y-91440000D01*
%TO.N,165_LOAD*%
X84000000Y-71795584D02*
X93000000Y-80795584D01*
X165000000Y-93980000D02*
X160020000Y-93980000D01*
X84000000Y-71160000D02*
X84000000Y-71795584D01*
X93000000Y-80795584D02*
X93000000Y-87500000D01*
X93000000Y-87500000D02*
X98500000Y-93000000D01*
X129535812Y-97695000D02*
X156305000Y-97695000D01*
X156305000Y-97695000D02*
X160020000Y-93980000D01*
X98500000Y-93000000D02*
X124840812Y-93000000D01*
X124840812Y-93000000D02*
X129535812Y-97695000D01*
%TO.N,165_CLOCK*%
X92550000Y-87686396D02*
X98313604Y-93450000D01*
X84000000Y-73700000D02*
X85268020Y-73700000D01*
X131439416Y-100235000D02*
X156305000Y-100235000D01*
X160020000Y-96520000D02*
X165000000Y-96520000D01*
X156305000Y-100235000D02*
X160020000Y-96520000D01*
X92550000Y-80981980D02*
X92550000Y-87686396D01*
X98313604Y-93450000D02*
X124654416Y-93450000D01*
X124654416Y-93450000D02*
X131439416Y-100235000D01*
X85268020Y-73700000D02*
X92550000Y-80981980D01*
%TO.N,165_DATA*%
X87171624Y-76240000D02*
X92090812Y-81159188D01*
X136388299Y-103250000D02*
X136673299Y-102965000D01*
X84000000Y-76240000D02*
X87171624Y-76240000D01*
X103400000Y-93900000D02*
X112750000Y-103250000D01*
X160020000Y-101600000D02*
X165000000Y-101600000D01*
X148400000Y-101600000D02*
X160020000Y-101600000D01*
X92090812Y-87863604D02*
X98127208Y-93900000D01*
X112750000Y-103250000D02*
X136388299Y-103250000D01*
X98127208Y-93900000D02*
X103400000Y-93900000D01*
X136673299Y-102965000D02*
X147035000Y-102965000D01*
X147035000Y-102965000D02*
X148400000Y-101600000D01*
X92090812Y-81159188D02*
X92090812Y-87863604D01*
%TO.N,SYNC_OUT*%
X136260000Y-102500000D02*
X137160000Y-101600000D01*
X137160000Y-101600000D02*
X142240000Y-101600000D01*
X113500000Y-102500000D02*
X136260000Y-102500000D01*
%TO.N,4051_ADDRESS_A*%
X97686396Y-82300000D02*
X117436396Y-82300000D01*
X97318198Y-81931802D02*
X97686396Y-82300000D01*
X89250000Y-73863604D02*
X97318198Y-81931802D01*
X119050000Y-82300000D02*
X124500000Y-87750000D01*
X84000000Y-58460000D02*
X89250000Y-63710000D01*
X117436396Y-82300000D02*
X119050000Y-82300000D01*
X142240000Y-93980000D02*
X137160000Y-93980000D01*
X89250000Y-63710000D02*
X89250000Y-73863604D01*
%TO.N,4051_ADDRESS_B*%
X84331701Y-64750000D02*
X83548299Y-64750000D01*
X88250000Y-74136396D02*
X88250000Y-68668299D01*
X83548299Y-64750000D02*
X82750000Y-63951701D01*
X97313604Y-83200000D02*
X88250000Y-74136396D01*
X125190000Y-91440000D02*
X116950000Y-83200000D01*
X137160000Y-91440000D02*
X142240000Y-91440000D01*
X88250000Y-68668299D02*
X84331701Y-64750000D01*
X137160000Y-91440000D02*
X125190000Y-91440000D01*
X82750000Y-62250000D02*
X84000000Y-61000000D01*
X116950000Y-83200000D02*
X97313604Y-83200000D01*
X82750000Y-63951701D02*
X82750000Y-62250000D01*
%TO.N,4051_ADDRESS_C*%
X97500000Y-82750000D02*
X88750000Y-74000000D01*
X88750000Y-68290000D02*
X84000000Y-63540000D01*
X137160000Y-88900000D02*
X123400000Y-88900000D01*
X123400000Y-88900000D02*
X117250000Y-82750000D01*
X88750000Y-74000000D02*
X88750000Y-68290000D01*
X117250000Y-82750000D02*
X97500000Y-82750000D01*
X142240000Y-88900000D02*
X137160000Y-88900000D01*
%TO.N,4051_READING_0*%
X135985000Y-75515000D02*
X135985000Y-77565000D01*
X147700000Y-79310000D02*
X143415000Y-75025000D01*
X87350000Y-74509188D02*
X96940812Y-84100000D01*
X147700000Y-91300000D02*
X147700000Y-79310000D01*
X143845000Y-95155000D02*
X147700000Y-91300000D01*
X135985000Y-77565000D02*
X137160000Y-78740000D01*
X96940812Y-84100000D02*
X116577208Y-84100000D01*
X87350000Y-70500000D02*
X87350000Y-74509188D01*
X116577208Y-84100000D02*
X127632208Y-95155000D01*
X142240000Y-78740000D02*
X137160000Y-78740000D01*
X143415000Y-75025000D02*
X136475000Y-75025000D01*
X127632208Y-95155000D02*
X143845000Y-95155000D01*
X85470000Y-68620000D02*
X87350000Y-70500000D01*
X136475000Y-75025000D02*
X135985000Y-75515000D01*
X84000000Y-68620000D02*
X85470000Y-68620000D01*
%TO.N,4051_READING_1*%
X97127208Y-83650000D02*
X116763604Y-83650000D01*
X87800000Y-69880000D02*
X87800000Y-74322792D01*
X147250000Y-88750000D02*
X147250000Y-81210000D01*
X84000000Y-66080000D02*
X87800000Y-69880000D01*
X137160000Y-76200000D02*
X142240000Y-76200000D01*
X125728604Y-92615000D02*
X143385000Y-92615000D01*
X147250000Y-81210000D02*
X142240000Y-76200000D01*
X116763604Y-83650000D02*
X125728604Y-92615000D01*
X143385000Y-92615000D02*
X147250000Y-88750000D01*
X87800000Y-74322792D02*
X97127208Y-83650000D01*
%TO.N,SERIAL_TX*%
X160020000Y-55880000D02*
X165000000Y-55880000D01*
X175260000Y-53340000D02*
X167540000Y-53340000D01*
X167540000Y-53340000D02*
X165000000Y-55880000D01*
%TO.N,LINE_OUT_L*%
X180474695Y-85500000D02*
X184250000Y-85500000D01*
X169000000Y-72500000D02*
X169000000Y-74025305D01*
X169000000Y-74025305D02*
X180474695Y-85500000D01*
%TO.N,TRIGGER_OUT_2_EURO*%
X95500000Y-74500000D02*
X93500000Y-76500000D01*
X105500000Y-74500000D02*
X95500000Y-74500000D01*
%TO.N,TRIGGER_OUT_4_EURO*%
X105500000Y-86000000D02*
X100500000Y-91000000D01*
X105500000Y-86000000D02*
X106500000Y-85000000D01*
X100500000Y-91000000D02*
X97750000Y-91000000D01*
%TO.N,SYNC_OUT_EURO*%
X96500000Y-96500000D02*
X91480000Y-91480000D01*
X91480000Y-91480000D02*
X84000000Y-91480000D01*
D24*
%TO.N,+3.3VDAC*%
X197650500Y-89530500D02*
X197650500Y-61500000D01*
X197800000Y-89680000D02*
X197650500Y-89530500D01*
X196000000Y-91480000D02*
X197800000Y-89680000D01*
D25*
%TO.N,LINE_OUT_R*%
X180500000Y-84500000D02*
X180750000Y-84750000D01*
X171250000Y-75250000D02*
X180500000Y-84500000D01*
X180750000Y-84750000D02*
X188750000Y-84750000D01*
D24*
%TO.N,+12V*%
X181490000Y-107010000D02*
X103500000Y-107010000D01*
X196000000Y-88940000D02*
X194700000Y-90240000D01*
X184000000Y-92000000D02*
X192940000Y-92000000D01*
X81000000Y-97020000D02*
X84000000Y-94020000D01*
X192940000Y-92000000D02*
X196000000Y-88940000D01*
X105750000Y-103250000D02*
X105750000Y-104760000D01*
X105750000Y-104760000D02*
X103500000Y-107010000D01*
X81000000Y-104750000D02*
X81000000Y-97020000D01*
X194700000Y-93800000D02*
X181490000Y-107010000D01*
X194700000Y-90240000D02*
X194700000Y-93800000D01*
X83260000Y-107010000D02*
X81000000Y-104750000D01*
X103500000Y-107010000D02*
X83260000Y-107010000D01*
%TO.N,-12V*%
X187240500Y-107859500D02*
X88250000Y-107859500D01*
X93820000Y-104180000D02*
X101750000Y-96250000D01*
X84000000Y-104180000D02*
X93820000Y-104180000D01*
X196000000Y-99100000D02*
X187240500Y-107859500D01*
%TO.N,+3.3V*%
X184120000Y-52040000D02*
X138400000Y-52040000D01*
X196020000Y-58420000D02*
X198500000Y-60900000D01*
X135750000Y-54690000D02*
X135750000Y-54750000D01*
X137160000Y-66040000D02*
X142240000Y-66040000D01*
X198500000Y-91520000D02*
X196000000Y-94020000D01*
X134000000Y-56500000D02*
X134000000Y-62880000D01*
X138400000Y-52040000D02*
X135750000Y-54690000D01*
X134000000Y-62880000D02*
X137160000Y-66040000D01*
X190500000Y-58420000D02*
X184120000Y-52040000D01*
X135750000Y-54750000D02*
X134000000Y-56500000D01*
X198500000Y-60900000D02*
X198500000Y-91520000D01*
X190500000Y-58420000D02*
X196020000Y-58420000D01*
D25*
%TO.N,SERIAL_RX*%
X160020000Y-58420000D02*
X165000000Y-58420000D01*
X175260000Y-58420000D02*
X165000000Y-58420000D01*
%TO.N,unconnected-(J5-Pin_1-Pad1)*%
X137160000Y-55880000D02*
X142240000Y-55880000D01*
%TO.N,unconnected-(J5-Pin_4-Pad4)*%
X142240000Y-63500000D02*
X137160000Y-63500000D01*
%TO.N,TRIGGER_OUT_1*%
X126225000Y-87725000D02*
X145225000Y-87725000D01*
X145225000Y-87725000D02*
X146000000Y-88500000D01*
X120000000Y-81500000D02*
X126225000Y-87725000D01*
X165000000Y-104140000D02*
X160020000Y-104140000D01*
X99250000Y-81500000D02*
X120000000Y-81500000D01*
%TO.N,TRIGGER_OUT_4*%
X137160000Y-96520000D02*
X142240000Y-96520000D01*
%TO.N,TRIGGER_OUT_3*%
X110000000Y-92000000D02*
X99000000Y-92000000D01*
X142240000Y-83820000D02*
X137160000Y-83820000D01*
%TO.N,TRIGGER_OUT_2*%
X137160000Y-71120000D02*
X142240000Y-71120000D01*
%TO.N,unconnected-(J5-Pin_6-Pad6)*%
X142240000Y-68580000D02*
X137160000Y-68580000D01*
%TO.N,unconnected-(J5-Pin_11-Pad11)*%
X137160000Y-81280000D02*
X142240000Y-81280000D01*
%TD*%
%TA.AperFunction,Conductor*%
%TO.N,GND*%
G36*
X166972585Y-52810185D02*
G01*
X167018340Y-52862989D01*
X167028284Y-52932147D01*
X166999259Y-52995703D01*
X166993227Y-53002181D01*
X165502226Y-54493181D01*
X165440903Y-54526666D01*
X165414545Y-54529500D01*
X164105439Y-54529500D01*
X164105420Y-54529500D01*
X164102128Y-54529501D01*
X164098848Y-54529853D01*
X164098840Y-54529854D01*
X164042515Y-54535909D01*
X163907669Y-54586204D01*
X163792454Y-54672454D01*
X163706204Y-54787668D01*
X163655909Y-54922516D01*
X163650645Y-54971481D01*
X163649500Y-54982127D01*
X163649500Y-54985449D01*
X163649500Y-55130500D01*
X163629815Y-55197539D01*
X163577011Y-55243294D01*
X163525500Y-55254500D01*
X163294499Y-55254500D01*
X163227460Y-55234815D01*
X163181705Y-55182011D01*
X163170499Y-55130500D01*
X163170499Y-54985439D01*
X163170499Y-54982128D01*
X163164091Y-54922517D01*
X163113796Y-54787669D01*
X163027546Y-54672454D01*
X162912331Y-54586204D01*
X162777483Y-54535909D01*
X162717873Y-54529500D01*
X162714551Y-54529500D01*
X160084385Y-54529500D01*
X160073578Y-54529028D01*
X160019999Y-54524340D01*
X159966420Y-54529028D01*
X159955613Y-54529500D01*
X159125439Y-54529500D01*
X159125420Y-54529500D01*
X159122128Y-54529501D01*
X159118848Y-54529853D01*
X159118840Y-54529854D01*
X159062515Y-54535909D01*
X158927669Y-54586204D01*
X158812454Y-54672454D01*
X158726204Y-54787668D01*
X158675909Y-54922516D01*
X158670645Y-54971481D01*
X158669500Y-54982127D01*
X158669500Y-54985449D01*
X158669500Y-55815615D01*
X158669028Y-55826422D01*
X158664340Y-55879999D01*
X158669028Y-55933576D01*
X158669500Y-55944384D01*
X158669500Y-56774560D01*
X158669500Y-56774578D01*
X158669501Y-56777872D01*
X158669853Y-56781152D01*
X158669854Y-56781159D01*
X158675909Y-56837484D01*
X158726204Y-56972332D01*
X158803577Y-57075690D01*
X158827994Y-57141154D01*
X158813142Y-57209427D01*
X158803577Y-57224310D01*
X158726205Y-57327666D01*
X158675910Y-57462515D01*
X158675909Y-57462517D01*
X158669500Y-57522127D01*
X158669500Y-57525448D01*
X158669500Y-57525449D01*
X158669500Y-58355615D01*
X158669028Y-58366422D01*
X158664340Y-58419999D01*
X158669028Y-58473576D01*
X158669500Y-58484384D01*
X158669500Y-59314560D01*
X158669500Y-59314578D01*
X158669501Y-59317872D01*
X158669853Y-59321152D01*
X158669854Y-59321159D01*
X158675909Y-59377484D01*
X158726203Y-59512329D01*
X158726204Y-59512331D01*
X158803890Y-59616106D01*
X158828307Y-59681569D01*
X158813456Y-59749842D01*
X158803890Y-59764726D01*
X158726648Y-59867908D01*
X158676400Y-60002628D01*
X158670354Y-60058867D01*
X158670000Y-60065481D01*
X158670000Y-60710000D01*
X159574428Y-60710000D01*
X159551318Y-60745960D01*
X159510000Y-60886673D01*
X159510000Y-61033327D01*
X159551318Y-61174040D01*
X159574428Y-61210000D01*
X158670000Y-61210000D01*
X158670000Y-61854518D01*
X158670354Y-61861132D01*
X158676400Y-61917371D01*
X158726647Y-62052089D01*
X158803890Y-62155272D01*
X158828307Y-62220737D01*
X158813455Y-62289010D01*
X158803890Y-62303894D01*
X158726204Y-62407668D01*
X158675910Y-62542515D01*
X158675909Y-62542517D01*
X158669500Y-62602127D01*
X158669500Y-62605448D01*
X158669500Y-62605449D01*
X158669500Y-63435615D01*
X158669028Y-63446422D01*
X158664340Y-63499999D01*
X158669028Y-63553576D01*
X158669500Y-63564384D01*
X158669500Y-64394560D01*
X158669500Y-64394578D01*
X158669501Y-64397872D01*
X158669853Y-64401152D01*
X158669854Y-64401159D01*
X158675909Y-64457484D01*
X158726204Y-64592332D01*
X158803577Y-64695690D01*
X158827994Y-64761154D01*
X158813142Y-64829427D01*
X158803577Y-64844310D01*
X158726205Y-64947666D01*
X158675909Y-65082516D01*
X158674246Y-65097989D01*
X158669500Y-65142127D01*
X158669500Y-65145449D01*
X158669500Y-65975615D01*
X158669028Y-65986422D01*
X158664340Y-66039999D01*
X158669028Y-66093576D01*
X158669500Y-66104384D01*
X158669500Y-66934560D01*
X158669500Y-66934578D01*
X158669501Y-66937872D01*
X158669853Y-66941152D01*
X158669854Y-66941159D01*
X158675909Y-66997484D01*
X158726204Y-67132332D01*
X158803577Y-67235690D01*
X158827994Y-67301154D01*
X158813142Y-67369427D01*
X158803577Y-67384310D01*
X158726205Y-67487666D01*
X158675910Y-67622515D01*
X158675909Y-67622517D01*
X158669500Y-67682127D01*
X158669500Y-67685448D01*
X158669500Y-67685449D01*
X158669500Y-68515615D01*
X158669028Y-68526422D01*
X158664340Y-68579999D01*
X158669028Y-68633576D01*
X158669500Y-68644384D01*
X158669500Y-69474560D01*
X158669500Y-69474578D01*
X158669501Y-69477872D01*
X158669853Y-69481152D01*
X158669854Y-69481159D01*
X158675909Y-69537484D01*
X158726204Y-69672332D01*
X158803577Y-69775690D01*
X158827994Y-69841154D01*
X158813142Y-69909427D01*
X158803577Y-69924310D01*
X158726205Y-70027666D01*
X158675910Y-70162515D01*
X158675909Y-70162517D01*
X158669500Y-70222127D01*
X158669500Y-70225449D01*
X158669500Y-71055615D01*
X158669028Y-71066422D01*
X158664340Y-71119999D01*
X158669028Y-71173576D01*
X158669500Y-71184384D01*
X158669500Y-72014560D01*
X158669500Y-72014578D01*
X158669501Y-72017872D01*
X158669853Y-72021152D01*
X158669854Y-72021159D01*
X158675909Y-72077484D01*
X158726203Y-72212329D01*
X158726204Y-72212331D01*
X158803890Y-72316106D01*
X158828307Y-72381569D01*
X158813456Y-72449842D01*
X158803890Y-72464726D01*
X158726648Y-72567908D01*
X158676400Y-72702628D01*
X158670354Y-72758867D01*
X158670000Y-72765481D01*
X158670000Y-73410000D01*
X159574428Y-73410000D01*
X159551318Y-73445960D01*
X159510000Y-73586673D01*
X159510000Y-73733327D01*
X159551318Y-73874040D01*
X159574428Y-73910000D01*
X158670000Y-73910000D01*
X158670000Y-74554518D01*
X158670354Y-74561132D01*
X158676400Y-74617371D01*
X158726647Y-74752089D01*
X158803890Y-74855272D01*
X158828307Y-74920737D01*
X158813455Y-74989010D01*
X158803890Y-75003894D01*
X158726204Y-75107668D01*
X158675909Y-75242516D01*
X158671433Y-75284152D01*
X158669500Y-75302127D01*
X158669500Y-75305449D01*
X158669500Y-76135615D01*
X158669028Y-76146422D01*
X158664340Y-76199999D01*
X158669028Y-76253576D01*
X158669500Y-76264384D01*
X158669500Y-77094560D01*
X158669500Y-77094578D01*
X158669501Y-77097872D01*
X158669853Y-77101152D01*
X158669854Y-77101159D01*
X158675909Y-77157484D01*
X158726204Y-77292332D01*
X158803577Y-77395690D01*
X158827994Y-77461154D01*
X158813142Y-77529427D01*
X158803577Y-77544310D01*
X158726205Y-77647666D01*
X158675909Y-77782516D01*
X158670521Y-77832635D01*
X158669500Y-77842127D01*
X158669500Y-77845448D01*
X158669500Y-77845449D01*
X158669500Y-78675615D01*
X158669028Y-78686422D01*
X158664340Y-78739999D01*
X158669028Y-78793576D01*
X158669500Y-78804384D01*
X158669500Y-79634560D01*
X158669500Y-79634578D01*
X158669501Y-79637872D01*
X158669853Y-79641152D01*
X158669854Y-79641159D01*
X158675909Y-79697484D01*
X158726204Y-79832332D01*
X158803577Y-79935690D01*
X158827994Y-80001154D01*
X158813142Y-80069427D01*
X158803577Y-80084310D01*
X158726205Y-80187666D01*
X158675910Y-80322515D01*
X158675909Y-80322517D01*
X158669500Y-80382127D01*
X158669500Y-80385449D01*
X158669500Y-81215615D01*
X158669028Y-81226422D01*
X158664340Y-81279999D01*
X158669028Y-81333576D01*
X158669500Y-81344384D01*
X158669500Y-82174560D01*
X158669500Y-82174578D01*
X158669501Y-82177872D01*
X158669853Y-82181152D01*
X158669854Y-82181159D01*
X158675909Y-82237484D01*
X158726204Y-82372332D01*
X158803577Y-82475690D01*
X158827994Y-82541154D01*
X158813142Y-82609427D01*
X158803577Y-82624310D01*
X158726205Y-82727666D01*
X158675910Y-82862515D01*
X158675909Y-82862517D01*
X158669500Y-82922127D01*
X158669500Y-82925448D01*
X158669500Y-82925449D01*
X158669500Y-83755615D01*
X158669028Y-83766422D01*
X158664340Y-83819999D01*
X158669028Y-83873576D01*
X158669500Y-83884384D01*
X158669500Y-84714560D01*
X158669500Y-84714578D01*
X158669501Y-84717872D01*
X158669853Y-84721152D01*
X158669854Y-84721159D01*
X158675909Y-84777484D01*
X158726203Y-84912329D01*
X158726204Y-84912331D01*
X158803890Y-85016106D01*
X158828307Y-85081569D01*
X158813456Y-85149842D01*
X158803890Y-85164726D01*
X158726648Y-85267908D01*
X158676400Y-85402628D01*
X158670354Y-85458867D01*
X158670000Y-85465481D01*
X158670000Y-86110000D01*
X159574428Y-86110000D01*
X159551318Y-86145960D01*
X159510000Y-86286673D01*
X159510000Y-86433327D01*
X159551318Y-86574040D01*
X159574428Y-86610000D01*
X158670000Y-86610000D01*
X158670000Y-87254518D01*
X158670354Y-87261132D01*
X158676400Y-87317371D01*
X158726647Y-87452089D01*
X158803890Y-87555272D01*
X158828307Y-87620737D01*
X158813455Y-87689010D01*
X158803890Y-87703894D01*
X158726204Y-87807668D01*
X158675909Y-87942516D01*
X158671722Y-87981464D01*
X158669500Y-88002127D01*
X158669500Y-88005448D01*
X158669500Y-88005449D01*
X158669500Y-88835615D01*
X158669028Y-88846422D01*
X158664340Y-88899999D01*
X158669028Y-88953576D01*
X158669500Y-88964384D01*
X158669500Y-89794560D01*
X158669500Y-89794578D01*
X158669501Y-89797872D01*
X158669853Y-89801152D01*
X158669854Y-89801159D01*
X158675909Y-89857483D01*
X158726204Y-89992331D01*
X158758252Y-90035141D01*
X158803577Y-90095688D01*
X158827994Y-90161153D01*
X158813142Y-90229426D01*
X158803578Y-90244309D01*
X158726204Y-90347669D01*
X158675910Y-90482515D01*
X158675909Y-90482517D01*
X158669500Y-90542127D01*
X158669500Y-90545449D01*
X158669500Y-91375615D01*
X158669028Y-91386422D01*
X158664340Y-91439999D01*
X158669028Y-91493576D01*
X158669500Y-91504384D01*
X158669500Y-92334560D01*
X158669500Y-92334578D01*
X158669501Y-92337872D01*
X158669853Y-92341152D01*
X158669854Y-92341159D01*
X158671322Y-92354815D01*
X158675909Y-92397483D01*
X158726204Y-92532331D01*
X158761704Y-92579753D01*
X158803577Y-92635688D01*
X158827994Y-92701153D01*
X158813142Y-92769426D01*
X158803578Y-92784309D01*
X158726204Y-92887669D01*
X158675910Y-93022515D01*
X158675909Y-93022517D01*
X158669500Y-93082127D01*
X158669500Y-93085448D01*
X158669500Y-93085449D01*
X158669500Y-93915615D01*
X158669028Y-93926422D01*
X158664340Y-93979999D01*
X158669028Y-94033576D01*
X158669500Y-94044384D01*
X158669499Y-94394546D01*
X158649814Y-94461586D01*
X158633180Y-94482227D01*
X156082228Y-97033181D01*
X156020905Y-97066666D01*
X155994547Y-97069500D01*
X143714500Y-97069500D01*
X143647461Y-97049815D01*
X143601706Y-96997011D01*
X143590500Y-96945500D01*
X143590499Y-96584385D01*
X143590971Y-96573576D01*
X143593267Y-96547337D01*
X143595659Y-96520000D01*
X143590970Y-96466420D01*
X143590499Y-96455613D01*
X143590499Y-95904500D01*
X143610184Y-95837461D01*
X143662988Y-95791706D01*
X143714499Y-95780500D01*
X143762256Y-95780500D01*
X143782762Y-95782764D01*
X143785665Y-95782672D01*
X143785667Y-95782673D01*
X143852872Y-95780561D01*
X143856768Y-95780500D01*
X143880448Y-95780500D01*
X143884350Y-95780500D01*
X143888313Y-95779999D01*
X143899962Y-95779080D01*
X143943627Y-95777709D01*
X143962859Y-95772120D01*
X143981918Y-95768174D01*
X143988196Y-95767381D01*
X144001792Y-95765664D01*
X144042407Y-95749582D01*
X144053444Y-95745803D01*
X144095390Y-95733618D01*
X144112629Y-95723422D01*
X144130102Y-95714862D01*
X144148732Y-95707486D01*
X144184064Y-95681814D01*
X144193830Y-95675400D01*
X144231418Y-95653171D01*
X144231417Y-95653171D01*
X144231420Y-95653170D01*
X144245585Y-95639004D01*
X144260373Y-95626373D01*
X144276587Y-95614594D01*
X144304438Y-95580926D01*
X144312279Y-95572309D01*
X148083789Y-91800800D01*
X148099885Y-91787906D01*
X148101873Y-91785787D01*
X148101877Y-91785786D01*
X148147949Y-91736723D01*
X148150534Y-91734055D01*
X148170120Y-91714471D01*
X148172585Y-91711292D01*
X148180167Y-91702416D01*
X148210062Y-91670582D01*
X148219717Y-91653018D01*
X148230394Y-91636764D01*
X148242673Y-91620936D01*
X148260018Y-91580852D01*
X148265160Y-91570356D01*
X148286197Y-91532092D01*
X148291179Y-91512684D01*
X148297481Y-91494280D01*
X148305437Y-91475896D01*
X148312269Y-91432752D01*
X148314633Y-91421338D01*
X148325500Y-91379019D01*
X148325500Y-91358983D01*
X148327027Y-91339584D01*
X148329002Y-91327112D01*
X148330160Y-91319804D01*
X148326050Y-91276324D01*
X148325500Y-91264655D01*
X148325500Y-79392740D01*
X148327763Y-79372239D01*
X148327551Y-79365500D01*
X148325561Y-79302144D01*
X148325500Y-79298250D01*
X148325500Y-79274544D01*
X148325500Y-79270650D01*
X148324998Y-79266681D01*
X148324080Y-79255024D01*
X148322709Y-79211373D01*
X148317120Y-79192140D01*
X148313174Y-79173082D01*
X148310664Y-79153208D01*
X148294588Y-79112606D01*
X148290804Y-79101552D01*
X148278619Y-79059613D01*
X148278618Y-79059612D01*
X148278618Y-79059610D01*
X148268417Y-79042361D01*
X148259860Y-79024895D01*
X148252486Y-79006268D01*
X148226813Y-78970932D01*
X148220402Y-78961172D01*
X148198169Y-78923578D01*
X148184006Y-78909415D01*
X148171369Y-78894620D01*
X148159595Y-78878414D01*
X148159594Y-78878413D01*
X148125935Y-78850568D01*
X148117305Y-78842714D01*
X143915802Y-74641211D01*
X143902906Y-74625113D01*
X143851775Y-74577098D01*
X143848978Y-74574387D01*
X143832227Y-74557636D01*
X143829471Y-74554880D01*
X143826290Y-74552412D01*
X143817422Y-74544837D01*
X143785582Y-74514938D01*
X143768024Y-74505285D01*
X143751764Y-74494604D01*
X143735936Y-74482327D01*
X143695851Y-74464980D01*
X143685359Y-74459840D01*
X143654261Y-74442743D01*
X143604997Y-74393196D01*
X143590000Y-74334082D01*
X143590000Y-73910000D01*
X142685572Y-73910000D01*
X142708682Y-73874040D01*
X142750000Y-73733327D01*
X142750000Y-73586673D01*
X142708682Y-73445960D01*
X142685572Y-73410000D01*
X143590000Y-73410000D01*
X143590000Y-72765481D01*
X143589645Y-72758867D01*
X143583599Y-72702628D01*
X143533352Y-72567911D01*
X143456109Y-72464727D01*
X143431692Y-72399263D01*
X143446544Y-72330990D01*
X143456100Y-72316118D01*
X143533796Y-72212331D01*
X143584091Y-72077483D01*
X143590500Y-72017873D01*
X143590499Y-71184384D01*
X143590971Y-71173576D01*
X143594228Y-71136349D01*
X143595659Y-71120000D01*
X143590970Y-71066420D01*
X143590499Y-71055613D01*
X143590499Y-70225439D01*
X143590499Y-70225438D01*
X143590499Y-70222128D01*
X143584091Y-70162517D01*
X143533796Y-70027669D01*
X143456420Y-69924308D01*
X143432004Y-69858846D01*
X143446856Y-69790573D01*
X143456411Y-69775702D01*
X143533796Y-69672331D01*
X143584091Y-69537483D01*
X143590500Y-69477873D01*
X143590499Y-68644384D01*
X143590971Y-68633576D01*
X143595659Y-68579999D01*
X143590971Y-68526422D01*
X143590499Y-68515613D01*
X143590499Y-67685439D01*
X143590499Y-67682128D01*
X143584091Y-67622517D01*
X143533796Y-67487669D01*
X143456421Y-67384310D01*
X143432005Y-67318846D01*
X143446857Y-67250573D01*
X143456422Y-67235689D01*
X143459088Y-67232128D01*
X143533796Y-67132331D01*
X143584091Y-66997483D01*
X143590500Y-66937873D01*
X143590499Y-66104384D01*
X143590971Y-66093576D01*
X143595659Y-66039999D01*
X143590971Y-65986422D01*
X143590499Y-65975613D01*
X143590499Y-65145439D01*
X143590499Y-65145438D01*
X143590499Y-65142128D01*
X143584091Y-65082517D01*
X143533796Y-64947669D01*
X143456421Y-64844310D01*
X143432005Y-64778846D01*
X143446857Y-64710573D01*
X143456422Y-64695689D01*
X143492130Y-64647989D01*
X143533796Y-64592331D01*
X143584091Y-64457483D01*
X143590500Y-64397873D01*
X143590499Y-63564384D01*
X143590971Y-63553576D01*
X143595659Y-63499999D01*
X143590971Y-63446422D01*
X143590499Y-63435613D01*
X143590499Y-62605439D01*
X143590499Y-62602128D01*
X143584091Y-62542517D01*
X143533796Y-62407669D01*
X143456108Y-62303892D01*
X143431692Y-62238428D01*
X143446544Y-62170155D01*
X143456110Y-62155270D01*
X143533352Y-62052089D01*
X143583599Y-61917371D01*
X143589645Y-61861132D01*
X143590000Y-61854518D01*
X143590000Y-61210000D01*
X142685572Y-61210000D01*
X142708682Y-61174040D01*
X142750000Y-61033327D01*
X142750000Y-60886673D01*
X142708682Y-60745960D01*
X142685572Y-60710000D01*
X143590000Y-60710000D01*
X143590000Y-60065481D01*
X143589645Y-60058867D01*
X143583599Y-60002628D01*
X143533352Y-59867911D01*
X143456109Y-59764727D01*
X143431692Y-59699263D01*
X143446544Y-59630990D01*
X143456100Y-59616118D01*
X143533796Y-59512331D01*
X143584091Y-59377483D01*
X143590500Y-59317873D01*
X143590500Y-59040000D01*
X147449723Y-59040000D01*
X147451332Y-59058400D01*
X147451678Y-59074753D01*
X147450709Y-59096328D01*
X147461444Y-59175576D01*
X147462094Y-59181413D01*
X147468792Y-59257976D01*
X147474461Y-59279132D01*
X147477564Y-59294578D01*
X147480925Y-59319390D01*
X147504573Y-59392170D01*
X147506416Y-59398393D01*
X147525423Y-59469327D01*
X147536135Y-59492298D01*
X147541683Y-59506383D01*
X147550481Y-59533460D01*
X147585128Y-59597847D01*
X147588314Y-59604199D01*
X147617896Y-59667637D01*
X147634406Y-59691215D01*
X147642023Y-59703575D01*
X147657148Y-59731681D01*
X147692219Y-59775659D01*
X147700588Y-59786153D01*
X147705214Y-59792340D01*
X147743403Y-59846878D01*
X147766186Y-59869661D01*
X147775452Y-59880029D01*
X147797493Y-59907667D01*
X147847387Y-59951259D01*
X147853484Y-59956959D01*
X147898123Y-60001598D01*
X147927330Y-60022049D01*
X147937793Y-60030244D01*
X147951840Y-60042516D01*
X147967004Y-60055765D01*
X148020940Y-60087990D01*
X148028435Y-60092843D01*
X148077361Y-60127102D01*
X148087490Y-60131825D01*
X148112799Y-60143628D01*
X148123991Y-60149560D01*
X148160236Y-60171215D01*
X148160239Y-60171216D01*
X148215839Y-60192083D01*
X148224669Y-60195792D01*
X148268999Y-60216464D01*
X148275670Y-60219575D01*
X148316757Y-60230584D01*
X148328235Y-60234266D01*
X148339903Y-60238645D01*
X148370976Y-60250307D01*
X148426024Y-60260296D01*
X148435970Y-60262527D01*
X148487023Y-60276207D01*
X148531133Y-60280065D01*
X148532814Y-60280213D01*
X148544148Y-60281733D01*
X148592453Y-60290500D01*
X148644985Y-60290500D01*
X148655791Y-60290971D01*
X148678447Y-60292954D01*
X148704999Y-60295277D01*
X148704999Y-60295276D01*
X148705000Y-60295277D01*
X148758286Y-60290615D01*
X148760025Y-60290500D01*
X148761155Y-60290500D01*
X148815172Y-60285638D01*
X148851934Y-60282422D01*
X148927665Y-60275797D01*
X148929186Y-60275377D01*
X148929188Y-60275377D01*
X149032997Y-60246726D01*
X149134330Y-60219575D01*
X149134330Y-60219574D01*
X149139379Y-60218222D01*
X149144153Y-60216464D01*
X149146168Y-60215493D01*
X149146170Y-60215493D01*
X149240454Y-60170088D01*
X149332639Y-60127102D01*
X149332647Y-60127095D01*
X149334393Y-60126282D01*
X149348155Y-60118222D01*
X149348973Y-60117829D01*
X149431156Y-60058118D01*
X149511877Y-60001598D01*
X149512748Y-60000726D01*
X149527543Y-59988089D01*
X149531078Y-59985522D01*
X149598237Y-59915277D01*
X149600097Y-59913377D01*
X149666593Y-59846882D01*
X149666593Y-59846881D01*
X149666598Y-59846877D01*
X149669285Y-59843039D01*
X149681232Y-59828471D01*
X149686632Y-59822825D01*
X149738288Y-59744566D01*
X149740082Y-59741929D01*
X149792102Y-59667639D01*
X149795539Y-59660267D01*
X149804434Y-59644362D01*
X149805130Y-59643307D01*
X149810635Y-59634968D01*
X149846114Y-59551958D01*
X149847713Y-59548377D01*
X149884575Y-59469330D01*
X149887572Y-59458143D01*
X149893324Y-59441508D01*
X149899102Y-59427990D01*
X149899101Y-59427990D01*
X149899103Y-59427988D01*
X149918434Y-59343291D01*
X149919533Y-59338863D01*
X149921532Y-59331404D01*
X149941207Y-59257977D01*
X149942516Y-59243005D01*
X149945153Y-59226227D01*
X149945804Y-59223376D01*
X149949191Y-59208537D01*
X149952934Y-59125183D01*
X149953274Y-59120039D01*
X149960277Y-59040000D01*
X152299723Y-59040000D01*
X152301332Y-59058400D01*
X152301678Y-59074753D01*
X152300709Y-59096328D01*
X152311444Y-59175576D01*
X152312094Y-59181413D01*
X152318792Y-59257976D01*
X152324461Y-59279132D01*
X152327564Y-59294578D01*
X152330925Y-59319390D01*
X152354573Y-59392170D01*
X152356416Y-59398393D01*
X152375423Y-59469327D01*
X152386135Y-59492298D01*
X152391683Y-59506383D01*
X152400481Y-59533460D01*
X152435128Y-59597847D01*
X152438314Y-59604199D01*
X152467896Y-59667637D01*
X152484406Y-59691215D01*
X152492023Y-59703575D01*
X152507148Y-59731681D01*
X152542219Y-59775659D01*
X152550588Y-59786153D01*
X152555214Y-59792340D01*
X152593403Y-59846878D01*
X152616186Y-59869661D01*
X152625452Y-59880029D01*
X152647493Y-59907667D01*
X152697387Y-59951259D01*
X152703484Y-59956959D01*
X152748123Y-60001598D01*
X152777330Y-60022049D01*
X152787793Y-60030244D01*
X152801840Y-60042516D01*
X152817004Y-60055765D01*
X152870940Y-60087990D01*
X152878435Y-60092843D01*
X152927361Y-60127102D01*
X152937490Y-60131825D01*
X152962799Y-60143628D01*
X152973991Y-60149560D01*
X153010236Y-60171215D01*
X153010239Y-60171216D01*
X153065839Y-60192083D01*
X153074669Y-60195792D01*
X153118999Y-60216464D01*
X153125670Y-60219575D01*
X153166757Y-60230584D01*
X153178235Y-60234266D01*
X153189903Y-60238645D01*
X153220976Y-60250307D01*
X153276024Y-60260296D01*
X153285970Y-60262527D01*
X153337023Y-60276207D01*
X153381133Y-60280065D01*
X153382814Y-60280213D01*
X153394148Y-60281733D01*
X153442453Y-60290500D01*
X153494985Y-60290500D01*
X153505791Y-60290971D01*
X153528447Y-60292954D01*
X153554999Y-60295277D01*
X153554999Y-60295276D01*
X153555000Y-60295277D01*
X153608286Y-60290615D01*
X153610025Y-60290500D01*
X153611155Y-60290500D01*
X153665172Y-60285638D01*
X153701934Y-60282422D01*
X153777665Y-60275797D01*
X153779186Y-60275377D01*
X153779188Y-60275377D01*
X153882997Y-60246726D01*
X153984330Y-60219575D01*
X153984330Y-60219574D01*
X153989379Y-60218222D01*
X153994153Y-60216464D01*
X153996168Y-60215493D01*
X153996170Y-60215493D01*
X154090454Y-60170088D01*
X154182639Y-60127102D01*
X154182647Y-60127095D01*
X154184393Y-60126282D01*
X154198155Y-60118222D01*
X154198973Y-60117829D01*
X154281156Y-60058118D01*
X154361877Y-60001598D01*
X154362748Y-60000726D01*
X154377543Y-59988089D01*
X154381078Y-59985522D01*
X154448237Y-59915277D01*
X154450097Y-59913377D01*
X154516593Y-59846882D01*
X154516593Y-59846881D01*
X154516598Y-59846877D01*
X154519285Y-59843039D01*
X154531232Y-59828471D01*
X154536632Y-59822825D01*
X154588288Y-59744566D01*
X154590082Y-59741929D01*
X154642102Y-59667639D01*
X154645539Y-59660267D01*
X154654434Y-59644362D01*
X154655130Y-59643307D01*
X154660635Y-59634968D01*
X154696114Y-59551958D01*
X154697713Y-59548377D01*
X154734575Y-59469330D01*
X154737572Y-59458143D01*
X154743324Y-59441508D01*
X154749102Y-59427990D01*
X154749101Y-59427990D01*
X154749103Y-59427988D01*
X154768434Y-59343291D01*
X154769533Y-59338863D01*
X154771532Y-59331404D01*
X154791207Y-59257977D01*
X154792516Y-59243005D01*
X154795153Y-59226227D01*
X154795804Y-59223376D01*
X154799191Y-59208537D01*
X154802934Y-59125183D01*
X154803274Y-59120039D01*
X154810277Y-59040000D01*
X154808667Y-59021608D01*
X154808321Y-59005238D01*
X154808713Y-58996507D01*
X154809290Y-58983670D01*
X154798549Y-58904385D01*
X154797905Y-58898596D01*
X154791542Y-58825850D01*
X154791208Y-58822027D01*
X154790305Y-58818656D01*
X154785536Y-58800860D01*
X154782434Y-58785414D01*
X154779075Y-58760614D01*
X154771291Y-58736659D01*
X154755421Y-58687816D01*
X154753578Y-58681592D01*
X154734575Y-58610671D01*
X154723867Y-58587708D01*
X154718317Y-58573619D01*
X154709517Y-58546535D01*
X154674869Y-58482148D01*
X154671681Y-58475794D01*
X154642102Y-58412362D01*
X154642102Y-58412361D01*
X154625591Y-58388782D01*
X154617975Y-58376423D01*
X154602852Y-58348319D01*
X154559404Y-58293837D01*
X154554785Y-58287661D01*
X154516598Y-58233123D01*
X154493804Y-58210329D01*
X154484546Y-58199969D01*
X154462508Y-58172334D01*
X154459631Y-58169820D01*
X154412611Y-58128739D01*
X154406514Y-58123039D01*
X154361878Y-58078402D01*
X154332664Y-58057947D01*
X154322210Y-58049759D01*
X154292996Y-58024235D01*
X154292991Y-58024232D01*
X154239073Y-57992017D01*
X154231550Y-57987145D01*
X154182640Y-57952898D01*
X154161043Y-57942827D01*
X154147201Y-57936372D01*
X154136014Y-57930442D01*
X154099764Y-57908784D01*
X154044171Y-57887921D01*
X154035349Y-57884216D01*
X153987208Y-57861767D01*
X153984328Y-57860424D01*
X153956575Y-57852987D01*
X153943228Y-57849411D01*
X153931762Y-57845732D01*
X153889024Y-57829693D01*
X153845636Y-57821818D01*
X153833964Y-57819700D01*
X153824018Y-57817468D01*
X153772980Y-57803793D01*
X153727175Y-57799785D01*
X153715846Y-57798264D01*
X153667550Y-57789500D01*
X153667547Y-57789500D01*
X153615015Y-57789500D01*
X153604208Y-57789028D01*
X153600436Y-57788698D01*
X153554999Y-57784722D01*
X153501723Y-57789384D01*
X153499970Y-57789500D01*
X153498845Y-57789500D01*
X153496099Y-57789747D01*
X153496078Y-57789748D01*
X153444827Y-57794361D01*
X153332333Y-57804202D01*
X153227002Y-57833273D01*
X153120661Y-57861767D01*
X153115813Y-57863551D01*
X153049451Y-57895509D01*
X153019528Y-57909919D01*
X152996351Y-57920727D01*
X152925634Y-57953703D01*
X152911875Y-57961762D01*
X152911029Y-57962169D01*
X152828830Y-58021889D01*
X152748120Y-58078403D01*
X152747235Y-58079289D01*
X152732467Y-58091901D01*
X152728923Y-58094476D01*
X152661846Y-58164632D01*
X152659903Y-58166619D01*
X152593401Y-58233122D01*
X152590708Y-58236968D01*
X152578776Y-58251517D01*
X152573370Y-58257172D01*
X152521775Y-58335333D01*
X152519866Y-58338141D01*
X152467897Y-58412363D01*
X152464460Y-58419734D01*
X152455571Y-58435629D01*
X152449364Y-58445032D01*
X152413893Y-58528021D01*
X152412260Y-58531676D01*
X152405331Y-58546536D01*
X152375423Y-58610673D01*
X152372426Y-58621856D01*
X152366680Y-58638478D01*
X152360897Y-58652009D01*
X152341576Y-58736659D01*
X152340460Y-58741157D01*
X152318793Y-58822020D01*
X152317483Y-58836993D01*
X152314847Y-58853767D01*
X152310809Y-58871460D01*
X152307066Y-58954777D01*
X152306719Y-58960016D01*
X152301331Y-59021613D01*
X152299723Y-59040000D01*
X149960277Y-59040000D01*
X149958667Y-59021608D01*
X149958321Y-59005238D01*
X149958713Y-58996507D01*
X149959290Y-58983670D01*
X149948549Y-58904385D01*
X149947905Y-58898596D01*
X149941542Y-58825850D01*
X149941208Y-58822027D01*
X149940305Y-58818656D01*
X149935536Y-58800860D01*
X149932434Y-58785414D01*
X149929075Y-58760614D01*
X149921291Y-58736659D01*
X149905421Y-58687816D01*
X149903578Y-58681592D01*
X149884575Y-58610671D01*
X149873867Y-58587708D01*
X149868317Y-58573619D01*
X149859517Y-58546535D01*
X149824869Y-58482148D01*
X149821681Y-58475794D01*
X149792102Y-58412362D01*
X149792102Y-58412361D01*
X149775591Y-58388782D01*
X149767975Y-58376423D01*
X149752852Y-58348319D01*
X149709404Y-58293837D01*
X149704785Y-58287661D01*
X149666598Y-58233123D01*
X149643804Y-58210329D01*
X149634546Y-58199969D01*
X149612508Y-58172334D01*
X149609631Y-58169820D01*
X149562611Y-58128739D01*
X149556514Y-58123039D01*
X149511878Y-58078402D01*
X149482664Y-58057947D01*
X149472210Y-58049759D01*
X149442996Y-58024235D01*
X149442991Y-58024232D01*
X149389073Y-57992017D01*
X149381550Y-57987145D01*
X149332640Y-57952898D01*
X149311043Y-57942827D01*
X149297201Y-57936372D01*
X149286014Y-57930442D01*
X149249764Y-57908784D01*
X149194171Y-57887921D01*
X149185349Y-57884216D01*
X149137208Y-57861767D01*
X149134328Y-57860424D01*
X149106575Y-57852987D01*
X149093228Y-57849411D01*
X149081762Y-57845732D01*
X149039024Y-57829693D01*
X148995636Y-57821818D01*
X148983964Y-57819700D01*
X148974018Y-57817468D01*
X148922980Y-57803793D01*
X148877175Y-57799785D01*
X148865846Y-57798264D01*
X148817550Y-57789500D01*
X148817547Y-57789500D01*
X148765015Y-57789500D01*
X148754208Y-57789028D01*
X148750436Y-57788698D01*
X148704999Y-57784722D01*
X148651723Y-57789384D01*
X148649970Y-57789500D01*
X148648845Y-57789500D01*
X148646099Y-57789747D01*
X148646078Y-57789748D01*
X148594827Y-57794361D01*
X148482333Y-57804202D01*
X148377002Y-57833273D01*
X148270661Y-57861767D01*
X148265813Y-57863551D01*
X148199451Y-57895509D01*
X148169528Y-57909919D01*
X148146351Y-57920727D01*
X148075634Y-57953703D01*
X148061875Y-57961762D01*
X148061029Y-57962169D01*
X147978830Y-58021889D01*
X147898120Y-58078403D01*
X147897235Y-58079289D01*
X147882467Y-58091901D01*
X147878923Y-58094476D01*
X147811846Y-58164632D01*
X147809903Y-58166619D01*
X147743401Y-58233122D01*
X147740708Y-58236968D01*
X147728776Y-58251517D01*
X147723370Y-58257172D01*
X147671775Y-58335333D01*
X147669866Y-58338141D01*
X147617897Y-58412363D01*
X147614460Y-58419734D01*
X147605571Y-58435629D01*
X147599364Y-58445032D01*
X147563893Y-58528021D01*
X147562260Y-58531676D01*
X147555331Y-58546536D01*
X147525423Y-58610673D01*
X147522426Y-58621856D01*
X147516680Y-58638478D01*
X147510897Y-58652009D01*
X147491576Y-58736659D01*
X147490460Y-58741157D01*
X147468793Y-58822020D01*
X147467483Y-58836993D01*
X147464847Y-58853767D01*
X147460809Y-58871460D01*
X147457066Y-58954777D01*
X147456719Y-58960016D01*
X147451331Y-59021613D01*
X147449723Y-59040000D01*
X143590500Y-59040000D01*
X143590499Y-58484384D01*
X143590971Y-58473576D01*
X143595659Y-58419999D01*
X143590971Y-58366422D01*
X143590499Y-58355613D01*
X143590499Y-57525439D01*
X143590499Y-57522128D01*
X143584091Y-57462517D01*
X143533796Y-57327669D01*
X143456421Y-57224310D01*
X143432005Y-57158846D01*
X143446857Y-57090573D01*
X143456422Y-57075689D01*
X143472632Y-57054035D01*
X143533796Y-56972331D01*
X143584091Y-56837483D01*
X143590500Y-56777873D01*
X143590499Y-56009998D01*
X146999699Y-56009998D01*
X147006750Y-56095097D01*
X147007061Y-56100071D01*
X147010820Y-56188532D01*
X147015092Y-56208356D01*
X147017451Y-56224237D01*
X147018865Y-56241301D01*
X147018865Y-56241304D01*
X147018866Y-56241305D01*
X147029925Y-56284978D01*
X147040661Y-56327371D01*
X147041669Y-56331676D01*
X147053630Y-56387171D01*
X147061046Y-56421581D01*
X147067333Y-56437226D01*
X147072479Y-56453017D01*
X147075843Y-56466301D01*
X147112875Y-56550727D01*
X147114377Y-56554301D01*
X147149936Y-56642790D01*
X147156979Y-56654229D01*
X147164945Y-56669431D01*
X147169076Y-56678849D01*
X147221366Y-56758886D01*
X147223147Y-56761693D01*
X147274931Y-56845796D01*
X147281539Y-56853303D01*
X147292268Y-56867409D01*
X147296021Y-56873153D01*
X147363117Y-56946040D01*
X147364930Y-56948054D01*
X147421501Y-57012331D01*
X147432437Y-57024756D01*
X147437561Y-57028894D01*
X147450886Y-57041382D01*
X147453216Y-57043913D01*
X147513166Y-57090573D01*
X147534933Y-57107515D01*
X147594245Y-57155407D01*
X147617920Y-57174523D01*
X147620685Y-57176067D01*
X147636359Y-57186458D01*
X147636374Y-57186470D01*
X147730162Y-57237225D01*
X147826046Y-57290790D01*
X147826051Y-57290791D01*
X147826252Y-57290904D01*
X147837584Y-57295935D01*
X147840492Y-57296933D01*
X147840497Y-57296936D01*
X147944276Y-57332563D01*
X148050829Y-57370211D01*
X148050836Y-57370212D01*
X148053802Y-57371260D01*
X148060015Y-57372296D01*
X148060019Y-57372298D01*
X148171324Y-57390871D01*
X148285799Y-57410500D01*
X148285800Y-57410500D01*
X148521047Y-57410500D01*
X148521049Y-57410500D01*
X148575010Y-57401494D01*
X148584905Y-57400251D01*
X148642541Y-57395346D01*
X148691941Y-57382482D01*
X148702760Y-57380177D01*
X148732221Y-57375261D01*
X148749982Y-57372298D01*
X148804946Y-57353428D01*
X148813949Y-57350714D01*
X148873249Y-57335275D01*
X148916642Y-57315659D01*
X148927443Y-57311374D01*
X148969503Y-57296936D01*
X149023622Y-57267647D01*
X149031530Y-57263726D01*
X149090486Y-57237077D01*
X149127108Y-57212324D01*
X149137515Y-57206011D01*
X149173626Y-57186470D01*
X149224877Y-57146578D01*
X149231589Y-57141706D01*
X149272716Y-57113910D01*
X149288002Y-57103580D01*
X149288924Y-57102696D01*
X149317460Y-57075345D01*
X149327064Y-57067044D01*
X149356784Y-57043913D01*
X149403081Y-56993619D01*
X149408490Y-56988100D01*
X149460118Y-56938621D01*
X149482350Y-56908559D01*
X149490797Y-56898333D01*
X149513979Y-56873153D01*
X149553238Y-56813060D01*
X149557312Y-56807203D01*
X149601879Y-56746947D01*
X149617163Y-56716630D01*
X149624079Y-56704632D01*
X149627704Y-56699082D01*
X149640924Y-56678849D01*
X149671123Y-56610000D01*
X149673927Y-56604045D01*
X149709207Y-56534074D01*
X149718150Y-56504868D01*
X149723158Y-56491374D01*
X149734157Y-56466300D01*
X149753453Y-56390099D01*
X149755088Y-56384255D01*
X149779015Y-56306126D01*
X149779014Y-56306126D01*
X149779016Y-56306123D01*
X149782461Y-56279215D01*
X149785247Y-56264548D01*
X149791134Y-56241305D01*
X149797903Y-56159600D01*
X149798484Y-56154095D01*
X149809298Y-56069654D01*
X149808291Y-56045960D01*
X149808602Y-56030481D01*
X149810300Y-56010000D01*
X149810300Y-56009998D01*
X152449699Y-56009998D01*
X152456750Y-56095097D01*
X152457061Y-56100071D01*
X152460820Y-56188532D01*
X152465092Y-56208356D01*
X152467451Y-56224237D01*
X152468865Y-56241301D01*
X152468865Y-56241304D01*
X152468866Y-56241305D01*
X152479925Y-56284978D01*
X152490661Y-56327371D01*
X152491669Y-56331676D01*
X152503630Y-56387171D01*
X152511046Y-56421581D01*
X152517333Y-56437226D01*
X152522479Y-56453017D01*
X152525843Y-56466301D01*
X152562875Y-56550727D01*
X152564377Y-56554301D01*
X152599936Y-56642790D01*
X152606979Y-56654229D01*
X152614945Y-56669431D01*
X152619076Y-56678849D01*
X152671366Y-56758886D01*
X152673147Y-56761693D01*
X152724931Y-56845796D01*
X152731539Y-56853303D01*
X152742268Y-56867409D01*
X152746021Y-56873153D01*
X152813117Y-56946040D01*
X152814930Y-56948054D01*
X152871501Y-57012331D01*
X152882437Y-57024756D01*
X152887561Y-57028894D01*
X152900886Y-57041382D01*
X152903216Y-57043913D01*
X152963166Y-57090573D01*
X152984933Y-57107515D01*
X153044245Y-57155407D01*
X153067920Y-57174523D01*
X153070685Y-57176067D01*
X153086359Y-57186458D01*
X153086374Y-57186470D01*
X153180162Y-57237225D01*
X153276046Y-57290790D01*
X153276051Y-57290791D01*
X153276252Y-57290904D01*
X153287584Y-57295935D01*
X153290492Y-57296933D01*
X153290497Y-57296936D01*
X153394276Y-57332563D01*
X153500829Y-57370211D01*
X153500836Y-57370212D01*
X153503802Y-57371260D01*
X153510015Y-57372296D01*
X153510019Y-57372298D01*
X153621323Y-57390871D01*
X153621324Y-57390871D01*
X153735799Y-57410500D01*
X153735800Y-57410500D01*
X153971047Y-57410500D01*
X153971049Y-57410500D01*
X154025010Y-57401494D01*
X154034905Y-57400251D01*
X154092541Y-57395346D01*
X154141941Y-57382482D01*
X154152760Y-57380177D01*
X154182221Y-57375261D01*
X154199982Y-57372298D01*
X154254946Y-57353428D01*
X154263949Y-57350714D01*
X154323249Y-57335275D01*
X154366642Y-57315659D01*
X154377443Y-57311374D01*
X154419503Y-57296936D01*
X154473622Y-57267647D01*
X154481530Y-57263726D01*
X154540486Y-57237077D01*
X154577108Y-57212324D01*
X154587515Y-57206011D01*
X154623626Y-57186470D01*
X154674877Y-57146578D01*
X154681589Y-57141706D01*
X154722716Y-57113910D01*
X154738002Y-57103580D01*
X154738924Y-57102696D01*
X154767460Y-57075345D01*
X154777064Y-57067044D01*
X154806784Y-57043913D01*
X154853081Y-56993619D01*
X154858490Y-56988100D01*
X154910118Y-56938621D01*
X154932350Y-56908559D01*
X154940797Y-56898333D01*
X154963979Y-56873153D01*
X155003238Y-56813060D01*
X155007312Y-56807203D01*
X155051879Y-56746947D01*
X155067163Y-56716630D01*
X155074079Y-56704632D01*
X155077704Y-56699082D01*
X155090924Y-56678849D01*
X155121123Y-56610000D01*
X155123927Y-56604045D01*
X155159207Y-56534074D01*
X155168150Y-56504868D01*
X155173158Y-56491374D01*
X155184157Y-56466300D01*
X155203453Y-56390099D01*
X155205088Y-56384255D01*
X155229015Y-56306126D01*
X155229014Y-56306126D01*
X155229016Y-56306123D01*
X155232461Y-56279215D01*
X155235247Y-56264548D01*
X155241134Y-56241305D01*
X155247903Y-56159600D01*
X155248484Y-56154095D01*
X155259298Y-56069654D01*
X155258291Y-56045960D01*
X155258602Y-56030481D01*
X155260300Y-56010000D01*
X155253248Y-55924902D01*
X155252938Y-55919944D01*
X155249180Y-55831468D01*
X155244907Y-55811642D01*
X155242547Y-55795756D01*
X155242339Y-55793243D01*
X155241134Y-55778695D01*
X155219328Y-55692589D01*
X155218336Y-55688354D01*
X155198954Y-55598419D01*
X155192665Y-55582770D01*
X155187521Y-55566989D01*
X155184157Y-55553700D01*
X155147102Y-55469224D01*
X155145621Y-55465696D01*
X155110066Y-55377214D01*
X155110064Y-55377210D01*
X155103016Y-55365764D01*
X155095051Y-55350561D01*
X155090924Y-55341151D01*
X155038628Y-55261106D01*
X155036879Y-55258350D01*
X154985069Y-55174205D01*
X154978454Y-55166689D01*
X154967730Y-55152588D01*
X154963980Y-55146849D01*
X154963979Y-55146847D01*
X154896876Y-55073953D01*
X154895068Y-55071944D01*
X154827564Y-54995245D01*
X154826253Y-54994186D01*
X154822439Y-54991106D01*
X154809115Y-54978619D01*
X154806785Y-54976088D01*
X154789346Y-54962515D01*
X154725066Y-54912484D01*
X154642080Y-54845477D01*
X154642079Y-54845476D01*
X154639315Y-54843932D01*
X154623637Y-54833538D01*
X154623626Y-54833529D01*
X154529837Y-54782774D01*
X154482404Y-54756276D01*
X154433954Y-54729210D01*
X154433952Y-54729209D01*
X154433762Y-54729103D01*
X154422401Y-54724059D01*
X154364953Y-54704337D01*
X154315723Y-54687436D01*
X154256658Y-54666567D01*
X154206203Y-54648740D01*
X154088675Y-54629128D01*
X153974202Y-54609500D01*
X153974200Y-54609500D01*
X153971049Y-54609500D01*
X153738951Y-54609500D01*
X153738949Y-54609500D01*
X153684991Y-54618503D01*
X153675102Y-54619747D01*
X153617460Y-54624653D01*
X153568077Y-54637511D01*
X153557249Y-54639819D01*
X153510023Y-54647701D01*
X153510021Y-54647701D01*
X153510019Y-54647702D01*
X153455056Y-54666570D01*
X153446052Y-54669284D01*
X153386748Y-54684725D01*
X153343361Y-54704337D01*
X153332554Y-54708624D01*
X153290496Y-54723063D01*
X153236395Y-54752341D01*
X153228460Y-54756276D01*
X153169509Y-54782925D01*
X153132882Y-54807679D01*
X153122470Y-54813994D01*
X153086373Y-54833529D01*
X153035124Y-54873417D01*
X153028402Y-54878296D01*
X152971999Y-54916418D01*
X152942549Y-54944643D01*
X152932919Y-54952967D01*
X152903216Y-54976087D01*
X152903214Y-54976088D01*
X152903214Y-54976089D01*
X152856926Y-55026369D01*
X152851500Y-55031905D01*
X152799883Y-55081376D01*
X152777659Y-55111426D01*
X152769196Y-55121670D01*
X152746023Y-55146843D01*
X152706782Y-55206905D01*
X152702671Y-55212815D01*
X152658119Y-55273054D01*
X152642826Y-55303384D01*
X152635917Y-55315371D01*
X152619077Y-55341147D01*
X152588887Y-55409974D01*
X152586054Y-55415987D01*
X152550792Y-55485925D01*
X152541847Y-55515131D01*
X152536842Y-55528620D01*
X152525844Y-55553695D01*
X152506552Y-55629871D01*
X152504912Y-55635736D01*
X152480983Y-55713875D01*
X152477538Y-55740775D01*
X152474750Y-55755455D01*
X152468865Y-55778697D01*
X152462097Y-55860377D01*
X152461517Y-55865886D01*
X152450701Y-55950348D01*
X152451707Y-55974025D01*
X152451396Y-55989520D01*
X152449699Y-56009998D01*
X149810300Y-56009998D01*
X149803248Y-55924902D01*
X149802938Y-55919944D01*
X149799180Y-55831468D01*
X149794907Y-55811642D01*
X149792547Y-55795756D01*
X149792339Y-55793243D01*
X149791134Y-55778695D01*
X149769328Y-55692589D01*
X149768336Y-55688354D01*
X149748954Y-55598419D01*
X149742665Y-55582770D01*
X149737521Y-55566989D01*
X149734157Y-55553700D01*
X149697102Y-55469224D01*
X149695621Y-55465696D01*
X149660066Y-55377214D01*
X149660064Y-55377210D01*
X149653016Y-55365764D01*
X149645051Y-55350561D01*
X149640924Y-55341151D01*
X149588628Y-55261106D01*
X149586879Y-55258350D01*
X149535069Y-55174205D01*
X149528454Y-55166689D01*
X149517730Y-55152588D01*
X149513980Y-55146849D01*
X149513979Y-55146847D01*
X149446876Y-55073953D01*
X149445068Y-55071944D01*
X149377564Y-54995245D01*
X149376253Y-54994186D01*
X149372439Y-54991106D01*
X149359115Y-54978619D01*
X149356785Y-54976088D01*
X149339346Y-54962515D01*
X149275066Y-54912484D01*
X149192080Y-54845477D01*
X149192079Y-54845476D01*
X149189315Y-54843932D01*
X149173637Y-54833538D01*
X149173626Y-54833529D01*
X149079837Y-54782774D01*
X149032404Y-54756276D01*
X148983954Y-54729210D01*
X148983952Y-54729209D01*
X148983762Y-54729103D01*
X148972401Y-54724059D01*
X148914953Y-54704337D01*
X148865723Y-54687436D01*
X148806658Y-54666567D01*
X148756203Y-54648740D01*
X148638675Y-54629128D01*
X148524202Y-54609500D01*
X148524200Y-54609500D01*
X148521049Y-54609500D01*
X148288951Y-54609500D01*
X148288949Y-54609500D01*
X148234991Y-54618503D01*
X148225102Y-54619747D01*
X148167460Y-54624653D01*
X148118077Y-54637511D01*
X148107249Y-54639819D01*
X148060023Y-54647701D01*
X148060021Y-54647701D01*
X148060019Y-54647702D01*
X148005056Y-54666570D01*
X147996052Y-54669284D01*
X147936748Y-54684725D01*
X147893361Y-54704337D01*
X147882554Y-54708624D01*
X147840496Y-54723063D01*
X147786395Y-54752341D01*
X147778460Y-54756276D01*
X147719509Y-54782925D01*
X147682882Y-54807679D01*
X147672470Y-54813994D01*
X147636373Y-54833529D01*
X147585124Y-54873417D01*
X147578402Y-54878296D01*
X147521999Y-54916418D01*
X147492549Y-54944643D01*
X147482919Y-54952967D01*
X147453216Y-54976087D01*
X147453214Y-54976088D01*
X147453214Y-54976089D01*
X147406926Y-55026369D01*
X147401500Y-55031905D01*
X147349883Y-55081376D01*
X147327659Y-55111426D01*
X147319196Y-55121670D01*
X147296023Y-55146843D01*
X147256782Y-55206905D01*
X147252671Y-55212815D01*
X147208119Y-55273054D01*
X147192826Y-55303384D01*
X147185917Y-55315371D01*
X147169077Y-55341147D01*
X147138887Y-55409974D01*
X147136054Y-55415987D01*
X147100792Y-55485925D01*
X147091847Y-55515131D01*
X147086842Y-55528620D01*
X147075844Y-55553695D01*
X147056552Y-55629871D01*
X147054912Y-55635736D01*
X147030983Y-55713875D01*
X147027538Y-55740775D01*
X147024750Y-55755455D01*
X147018865Y-55778697D01*
X147012097Y-55860377D01*
X147011517Y-55865886D01*
X147000701Y-55950348D01*
X147001707Y-55974025D01*
X147001396Y-55989520D01*
X146999699Y-56009998D01*
X143590499Y-56009998D01*
X143590499Y-55944384D01*
X143590971Y-55933576D01*
X143591226Y-55930659D01*
X143595659Y-55880000D01*
X143590970Y-55826420D01*
X143590499Y-55815613D01*
X143590499Y-54985439D01*
X143590499Y-54985438D01*
X143590499Y-54982128D01*
X143584091Y-54922517D01*
X143533796Y-54787669D01*
X143447546Y-54672454D01*
X143332331Y-54586204D01*
X143197483Y-54535909D01*
X143137873Y-54529500D01*
X143134551Y-54529500D01*
X142304380Y-54529500D01*
X142293573Y-54529028D01*
X142288960Y-54528624D01*
X142239999Y-54524340D01*
X142186425Y-54529028D01*
X142175617Y-54529500D01*
X139545439Y-54529500D01*
X139545420Y-54529500D01*
X139542128Y-54529501D01*
X139538848Y-54529853D01*
X139538840Y-54529854D01*
X139482515Y-54535909D01*
X139347669Y-54586204D01*
X139232454Y-54672454D01*
X139146204Y-54787668D01*
X139095909Y-54922516D01*
X139090645Y-54971481D01*
X139089500Y-54982127D01*
X139089500Y-54985449D01*
X139089500Y-55130500D01*
X139069815Y-55197539D01*
X139017011Y-55243294D01*
X138965500Y-55254500D01*
X138634499Y-55254500D01*
X138567460Y-55234815D01*
X138521705Y-55182011D01*
X138510499Y-55130500D01*
X138510499Y-54985439D01*
X138510499Y-54982128D01*
X138504091Y-54922517D01*
X138453796Y-54787669D01*
X138367546Y-54672454D01*
X138252331Y-54586204D01*
X138117483Y-54535909D01*
X138057873Y-54529500D01*
X138054551Y-54529500D01*
X137271229Y-54529500D01*
X137204190Y-54509815D01*
X137158435Y-54457011D01*
X137148491Y-54387853D01*
X137177516Y-54324297D01*
X137183548Y-54317819D01*
X137861368Y-53640000D01*
X138674548Y-52826819D01*
X138735872Y-52793334D01*
X138762230Y-52790500D01*
X166905546Y-52790500D01*
X166972585Y-52810185D01*
G37*
%TD.AperFunction*%
%TA.AperFunction,Conductor*%
G36*
X166567807Y-83732398D02*
G01*
X170344196Y-87508787D01*
X170357096Y-87524888D01*
X170408223Y-87572900D01*
X170411020Y-87575611D01*
X170430529Y-87595120D01*
X170433709Y-87597587D01*
X170442571Y-87605155D01*
X170464871Y-87626097D01*
X170474418Y-87635062D01*
X170491970Y-87644711D01*
X170508238Y-87655397D01*
X170524064Y-87667673D01*
X170564146Y-87685017D01*
X170574633Y-87690155D01*
X170612907Y-87711197D01*
X170621410Y-87713379D01*
X170632308Y-87716178D01*
X170650713Y-87722478D01*
X170669104Y-87730437D01*
X170712250Y-87737270D01*
X170723668Y-87739635D01*
X170765981Y-87750500D01*
X170786016Y-87750500D01*
X170805415Y-87752027D01*
X170825196Y-87755160D01*
X170868674Y-87751050D01*
X170880344Y-87750500D01*
X190112256Y-87750500D01*
X190132762Y-87752764D01*
X190135665Y-87752672D01*
X190135667Y-87752673D01*
X190202872Y-87750561D01*
X190206768Y-87750500D01*
X190230448Y-87750500D01*
X190234350Y-87750500D01*
X190238313Y-87749999D01*
X190249962Y-87749080D01*
X190293627Y-87747709D01*
X190312859Y-87742120D01*
X190331918Y-87738174D01*
X190339099Y-87737267D01*
X190351792Y-87735664D01*
X190392407Y-87719582D01*
X190403444Y-87715803D01*
X190445390Y-87703618D01*
X190462629Y-87693422D01*
X190480102Y-87684862D01*
X190498732Y-87677486D01*
X190534064Y-87651814D01*
X190543830Y-87645400D01*
X190561311Y-87635062D01*
X190581420Y-87623170D01*
X190595585Y-87609004D01*
X190610373Y-87596373D01*
X190626587Y-87584594D01*
X190654438Y-87550926D01*
X190662279Y-87542309D01*
X194432194Y-83772394D01*
X194493515Y-83738911D01*
X194563207Y-83743895D01*
X194619140Y-83785767D01*
X194643401Y-83849269D01*
X194664936Y-84095407D01*
X194697727Y-84217783D01*
X194726097Y-84323663D01*
X194825965Y-84537830D01*
X194961505Y-84731401D01*
X195128599Y-84898495D01*
X195314160Y-85028426D01*
X195357783Y-85083002D01*
X195364976Y-85152501D01*
X195333454Y-85214855D01*
X195314160Y-85231574D01*
X195185173Y-85321892D01*
X195128595Y-85361508D01*
X194961505Y-85528598D01*
X194825965Y-85722170D01*
X194726097Y-85936336D01*
X194664936Y-86164592D01*
X194644340Y-86400000D01*
X194664936Y-86635407D01*
X194681551Y-86697413D01*
X194726097Y-86863663D01*
X194825965Y-87077830D01*
X194961505Y-87271401D01*
X195128599Y-87438495D01*
X195314160Y-87568426D01*
X195357783Y-87623002D01*
X195364976Y-87692501D01*
X195333454Y-87754855D01*
X195314158Y-87771575D01*
X195165923Y-87875371D01*
X195128595Y-87901508D01*
X194961505Y-88068598D01*
X194825965Y-88262170D01*
X194726097Y-88476336D01*
X194664936Y-88704592D01*
X194644340Y-88939999D01*
X194662977Y-89153011D01*
X194649210Y-89221511D01*
X194627130Y-89251500D01*
X194214358Y-89664272D01*
X194200727Y-89676053D01*
X194181468Y-89690391D01*
X194149635Y-89728328D01*
X194142377Y-89736253D01*
X194141500Y-89737131D01*
X194138406Y-89740224D01*
X194138406Y-89740225D01*
X193384432Y-90494200D01*
X192665451Y-91213181D01*
X192604128Y-91246666D01*
X192577770Y-91249500D01*
X184539337Y-91249500D01*
X184472298Y-91229815D01*
X184466450Y-91225817D01*
X184452728Y-91215847D01*
X184279802Y-91138855D01*
X184094648Y-91099500D01*
X184094646Y-91099500D01*
X183905354Y-91099500D01*
X183905352Y-91099500D01*
X183720197Y-91138855D01*
X183547269Y-91215848D01*
X183394129Y-91327110D01*
X183267466Y-91467783D01*
X183172820Y-91631715D01*
X183114326Y-91811742D01*
X183094540Y-91999999D01*
X183114326Y-92188257D01*
X183172820Y-92368284D01*
X183267466Y-92532216D01*
X183394129Y-92672889D01*
X183547269Y-92784151D01*
X183720197Y-92861144D01*
X183905352Y-92900500D01*
X183905354Y-92900500D01*
X184094648Y-92900500D01*
X184218083Y-92874262D01*
X184279803Y-92861144D01*
X184452730Y-92784151D01*
X184466449Y-92774183D01*
X184532256Y-92750702D01*
X184539337Y-92750500D01*
X192876294Y-92750500D01*
X192894264Y-92751809D01*
X192898320Y-92752402D01*
X192918023Y-92755289D01*
X192967368Y-92750972D01*
X192978176Y-92750500D01*
X192980100Y-92750500D01*
X192983709Y-92750500D01*
X193014550Y-92746894D01*
X193018031Y-92746539D01*
X193092797Y-92739999D01*
X193092797Y-92739998D01*
X193094052Y-92739889D01*
X193113062Y-92735674D01*
X193114250Y-92735241D01*
X193114255Y-92735241D01*
X193184820Y-92709557D01*
X193188095Y-92708419D01*
X193259334Y-92684814D01*
X193259336Y-92684812D01*
X193260536Y-92684415D01*
X193278063Y-92675929D01*
X193279112Y-92675238D01*
X193279117Y-92675237D01*
X193341806Y-92634005D01*
X193344798Y-92632099D01*
X193408656Y-92592712D01*
X193408656Y-92592711D01*
X193409729Y-92592050D01*
X193424824Y-92579753D01*
X193425692Y-92578832D01*
X193425696Y-92578830D01*
X193477185Y-92524253D01*
X193479631Y-92521735D01*
X193737818Y-92263548D01*
X193799142Y-92230063D01*
X193868834Y-92235047D01*
X193924767Y-92276919D01*
X193949184Y-92342383D01*
X193949500Y-92351229D01*
X193949500Y-93437770D01*
X193929815Y-93504809D01*
X193913181Y-93525451D01*
X181215451Y-106223181D01*
X181154128Y-106256666D01*
X181127770Y-106259500D01*
X155144500Y-106259500D01*
X155077461Y-106239815D01*
X155031706Y-106187011D01*
X155020500Y-106135500D01*
X155020499Y-103974387D01*
X155020971Y-103963578D01*
X155020972Y-103963573D01*
X155025659Y-103910000D01*
X155022640Y-103875500D01*
X155020971Y-103856418D01*
X155020499Y-103845610D01*
X155020499Y-103015439D01*
X155020499Y-103015438D01*
X155020499Y-103012128D01*
X155014091Y-102952517D01*
X154963796Y-102817669D01*
X154877546Y-102702454D01*
X154762331Y-102616204D01*
X154627483Y-102565909D01*
X154575816Y-102560354D01*
X154571166Y-102559854D01*
X154571165Y-102559853D01*
X154567873Y-102559500D01*
X154564551Y-102559500D01*
X153734383Y-102559500D01*
X153723576Y-102559028D01*
X153720170Y-102558730D01*
X153669999Y-102554340D01*
X153616422Y-102559028D01*
X153605615Y-102559500D01*
X152775439Y-102559500D01*
X152775420Y-102559500D01*
X152772128Y-102559501D01*
X152768848Y-102559853D01*
X152768840Y-102559854D01*
X152712515Y-102565909D01*
X152577669Y-102616204D01*
X152462454Y-102702454D01*
X152376204Y-102817668D01*
X152325909Y-102952516D01*
X152320163Y-103005965D01*
X152319500Y-103012127D01*
X152319500Y-103015449D01*
X152319500Y-103022690D01*
X152299815Y-103089729D01*
X152283181Y-103110371D01*
X151621132Y-103772419D01*
X151598682Y-103695960D01*
X151519395Y-103572587D01*
X151408562Y-103476549D01*
X151275161Y-103415627D01*
X151166473Y-103400000D01*
X151093527Y-103400000D01*
X150984839Y-103415627D01*
X150851438Y-103476549D01*
X150740605Y-103572587D01*
X150661318Y-103695960D01*
X150638866Y-103772419D01*
X149976818Y-103110370D01*
X149943333Y-103049047D01*
X149940499Y-103022689D01*
X149940499Y-103015439D01*
X149940499Y-103015438D01*
X149940499Y-103012128D01*
X149934091Y-102952517D01*
X149883796Y-102817669D01*
X149797546Y-102702454D01*
X149682331Y-102616204D01*
X149572597Y-102575276D01*
X150148829Y-102575276D01*
X150879999Y-103306446D01*
X150880000Y-103306445D01*
X150880000Y-102560000D01*
X151380000Y-102560000D01*
X151380000Y-103306446D01*
X152111169Y-102575276D01*
X152111168Y-102575275D01*
X152087375Y-102566401D01*
X152031132Y-102560354D01*
X152024518Y-102560000D01*
X151380000Y-102560000D01*
X150880000Y-102560000D01*
X150235482Y-102560000D01*
X150228867Y-102560354D01*
X150172627Y-102566400D01*
X150148830Y-102575276D01*
X150148829Y-102575276D01*
X149572597Y-102575276D01*
X149547483Y-102565909D01*
X149495816Y-102560354D01*
X149491166Y-102559854D01*
X149491165Y-102559853D01*
X149487873Y-102559500D01*
X149484551Y-102559500D01*
X148654383Y-102559500D01*
X148643580Y-102559028D01*
X148633258Y-102558125D01*
X148616047Y-102556619D01*
X148550980Y-102531164D01*
X148510003Y-102474572D01*
X148506127Y-102404810D01*
X148539176Y-102345412D01*
X148622771Y-102261818D01*
X148684095Y-102228333D01*
X148710452Y-102225500D01*
X158545501Y-102225500D01*
X158612540Y-102245185D01*
X158658295Y-102297989D01*
X158669501Y-102349499D01*
X158669501Y-102497872D01*
X158669853Y-102501152D01*
X158669854Y-102501159D01*
X158675909Y-102557484D01*
X158679235Y-102566401D01*
X158726204Y-102692331D01*
X158773062Y-102754925D01*
X158803577Y-102795688D01*
X158827994Y-102861153D01*
X158813142Y-102929426D01*
X158803578Y-102944309D01*
X158726204Y-103047669D01*
X158675910Y-103182515D01*
X158675909Y-103182517D01*
X158669500Y-103242127D01*
X158669500Y-103245448D01*
X158669500Y-103245449D01*
X158669500Y-104075615D01*
X158669028Y-104086422D01*
X158664340Y-104139999D01*
X158669028Y-104193576D01*
X158669500Y-104204384D01*
X158669500Y-105034560D01*
X158669500Y-105034578D01*
X158669501Y-105037872D01*
X158669853Y-105041152D01*
X158669854Y-105041159D01*
X158674614Y-105085435D01*
X158675909Y-105097483D01*
X158726204Y-105232331D01*
X158812454Y-105347546D01*
X158927669Y-105433796D01*
X159062517Y-105484091D01*
X159122127Y-105490500D01*
X159955615Y-105490499D01*
X159966424Y-105490971D01*
X160019999Y-105495659D01*
X160019999Y-105495658D01*
X160020000Y-105495659D01*
X160073574Y-105490971D01*
X160084384Y-105490499D01*
X162714561Y-105490499D01*
X162717872Y-105490499D01*
X162777483Y-105484091D01*
X162912331Y-105433796D01*
X163027546Y-105347546D01*
X163113796Y-105232331D01*
X163164091Y-105097483D01*
X163170500Y-105037873D01*
X163170500Y-104889499D01*
X163190185Y-104822461D01*
X163242989Y-104776706D01*
X163294500Y-104765500D01*
X163724773Y-104765500D01*
X163791812Y-104785185D01*
X163826345Y-104818373D01*
X163961505Y-105011401D01*
X164128599Y-105178495D01*
X164322170Y-105314035D01*
X164536337Y-105413903D01*
X164764592Y-105475063D01*
X165000000Y-105495659D01*
X165235408Y-105475063D01*
X165463663Y-105413903D01*
X165677830Y-105314035D01*
X165871401Y-105178495D01*
X166038495Y-105011401D01*
X166174035Y-104817830D01*
X166273903Y-104603663D01*
X166335063Y-104375408D01*
X166355659Y-104140000D01*
X166335063Y-103904592D01*
X166273903Y-103676337D01*
X166174035Y-103462171D01*
X166038495Y-103268599D01*
X165871401Y-103101505D01*
X165685839Y-102971573D01*
X165642216Y-102916998D01*
X165635022Y-102847500D01*
X165666545Y-102785145D01*
X165685837Y-102768428D01*
X165871401Y-102638495D01*
X166038495Y-102471401D01*
X166174035Y-102277830D01*
X166273903Y-102063663D01*
X166335063Y-101835408D01*
X166355659Y-101600000D01*
X166335063Y-101364592D01*
X166273903Y-101136337D01*
X166174035Y-100922171D01*
X166038495Y-100728599D01*
X165871401Y-100561505D01*
X165685402Y-100431267D01*
X165641780Y-100376692D01*
X165634587Y-100307193D01*
X165666109Y-100244839D01*
X165685405Y-100228119D01*
X165871078Y-100098109D01*
X166038106Y-99931081D01*
X166173600Y-99737576D01*
X166273430Y-99523492D01*
X166330636Y-99310000D01*
X165433686Y-99310000D01*
X165459493Y-99269844D01*
X165500000Y-99131889D01*
X165500000Y-98988111D01*
X165459493Y-98850156D01*
X165433686Y-98810000D01*
X166330636Y-98810000D01*
X166330635Y-98809999D01*
X166273430Y-98596507D01*
X166173599Y-98382421D01*
X166038109Y-98188921D01*
X165871081Y-98021893D01*
X165685404Y-97891880D01*
X165641780Y-97837303D01*
X165634587Y-97767804D01*
X165666109Y-97705450D01*
X165685399Y-97688734D01*
X165871401Y-97558495D01*
X166038495Y-97391401D01*
X166174035Y-97197830D01*
X166273903Y-96983663D01*
X166335063Y-96755408D01*
X166355659Y-96520000D01*
X166335063Y-96284592D01*
X166273903Y-96056337D01*
X166174035Y-95842171D01*
X166038495Y-95648599D01*
X165871401Y-95481505D01*
X165685839Y-95351573D01*
X165642216Y-95296998D01*
X165635022Y-95227500D01*
X165666545Y-95165145D01*
X165685837Y-95148428D01*
X165871401Y-95018495D01*
X166038495Y-94851401D01*
X166174035Y-94657830D01*
X166273903Y-94443663D01*
X166335063Y-94215408D01*
X166355659Y-93980000D01*
X166335063Y-93744592D01*
X166273903Y-93516337D01*
X166174035Y-93302171D01*
X166038495Y-93108599D01*
X165871401Y-92941505D01*
X165685839Y-92811573D01*
X165642216Y-92756998D01*
X165635022Y-92687500D01*
X165666545Y-92625145D01*
X165685837Y-92608428D01*
X165871401Y-92478495D01*
X166038495Y-92311401D01*
X166174035Y-92117830D01*
X166273903Y-91903663D01*
X166335063Y-91675408D01*
X166355659Y-91440000D01*
X166335063Y-91204592D01*
X166273903Y-90976337D01*
X166174035Y-90762171D01*
X166038495Y-90568599D01*
X165871401Y-90401505D01*
X165685839Y-90271573D01*
X165642216Y-90216998D01*
X165635022Y-90147500D01*
X165666545Y-90085145D01*
X165685837Y-90068428D01*
X165871401Y-89938495D01*
X166038495Y-89771401D01*
X166174035Y-89577830D01*
X166273903Y-89363663D01*
X166335063Y-89135408D01*
X166355659Y-88900000D01*
X166335063Y-88664592D01*
X166273903Y-88436337D01*
X166174035Y-88222171D01*
X166038495Y-88028599D01*
X165871401Y-87861505D01*
X165685402Y-87731267D01*
X165641780Y-87676692D01*
X165634587Y-87607193D01*
X165666109Y-87544839D01*
X165685405Y-87528119D01*
X165871078Y-87398109D01*
X166038106Y-87231081D01*
X166173600Y-87037576D01*
X166273430Y-86823492D01*
X166330636Y-86610000D01*
X165433686Y-86610000D01*
X165459493Y-86569844D01*
X165500000Y-86431889D01*
X165500000Y-86288111D01*
X165459493Y-86150156D01*
X165433686Y-86110000D01*
X166330636Y-86110000D01*
X166330635Y-86109999D01*
X166273430Y-85896507D01*
X166173599Y-85682421D01*
X166038109Y-85488921D01*
X165871081Y-85321893D01*
X165685404Y-85191880D01*
X165641780Y-85137303D01*
X165634587Y-85067804D01*
X165666109Y-85005450D01*
X165685399Y-84988734D01*
X165871401Y-84858495D01*
X166038495Y-84691401D01*
X166174035Y-84497830D01*
X166273903Y-84283663D01*
X166335063Y-84055408D01*
X166350972Y-83873576D01*
X166356598Y-83809272D01*
X166382050Y-83744203D01*
X166438641Y-83703224D01*
X166508403Y-83699346D01*
X166567807Y-83732398D01*
G37*
%TD.AperFunction*%
%TA.AperFunction,Conductor*%
G36*
X194867958Y-94795921D02*
G01*
X194923891Y-94837793D01*
X194926198Y-94840978D01*
X194933499Y-94851404D01*
X194961505Y-94891401D01*
X195128599Y-95058495D01*
X195314596Y-95188732D01*
X195358219Y-95243307D01*
X195365412Y-95312806D01*
X195333890Y-95375160D01*
X195314595Y-95391880D01*
X195128919Y-95521892D01*
X194961890Y-95688921D01*
X194826400Y-95882421D01*
X194726569Y-96096507D01*
X194669364Y-96309999D01*
X194669364Y-96310000D01*
X195566314Y-96310000D01*
X195540507Y-96350156D01*
X195500000Y-96488111D01*
X195500000Y-96631889D01*
X195540507Y-96769844D01*
X195566314Y-96810000D01*
X194669364Y-96810000D01*
X194726569Y-97023492D01*
X194826399Y-97237576D01*
X194961893Y-97431081D01*
X195128918Y-97598106D01*
X195314595Y-97728119D01*
X195358219Y-97782696D01*
X195365412Y-97852195D01*
X195333890Y-97914549D01*
X195314595Y-97931269D01*
X195128595Y-98061508D01*
X194961505Y-98228598D01*
X194825965Y-98422170D01*
X194726097Y-98636336D01*
X194664936Y-98864592D01*
X194644340Y-99100000D01*
X194662977Y-99313013D01*
X194649210Y-99381513D01*
X194627130Y-99411501D01*
X186965951Y-107072681D01*
X186904628Y-107106166D01*
X186878270Y-107109000D01*
X182751730Y-107109000D01*
X182684691Y-107089315D01*
X182638936Y-107036511D01*
X182628992Y-106967353D01*
X182658017Y-106903797D01*
X182664049Y-106897319D01*
X184672964Y-104888404D01*
X194736945Y-94824420D01*
X194798266Y-94790937D01*
X194867958Y-94795921D01*
G37*
%TD.AperFunction*%
%TA.AperFunction,Conductor*%
G36*
X86928211Y-76885185D02*
G01*
X86948853Y-76901819D01*
X91428993Y-81381959D01*
X91462478Y-81443282D01*
X91465312Y-81469640D01*
X91465312Y-87780860D01*
X91463047Y-87801370D01*
X91465251Y-87871476D01*
X91465312Y-87875371D01*
X91465312Y-87902954D01*
X91465800Y-87906823D01*
X91465801Y-87906829D01*
X91465816Y-87906947D01*
X91466730Y-87918571D01*
X91468102Y-87962230D01*
X91473691Y-87981464D01*
X91477637Y-88000520D01*
X91480147Y-88020396D01*
X91496226Y-88061008D01*
X91500009Y-88072055D01*
X91512194Y-88113995D01*
X91522392Y-88131239D01*
X91530948Y-88148704D01*
X91538326Y-88167336D01*
X91538327Y-88167337D01*
X91563992Y-88202663D01*
X91570405Y-88212426D01*
X91592638Y-88250020D01*
X91592641Y-88250023D01*
X91592642Y-88250024D01*
X91606807Y-88264189D01*
X91619439Y-88278979D01*
X91631218Y-88295191D01*
X91664870Y-88323030D01*
X91673511Y-88330893D01*
X97626404Y-94283787D01*
X97639304Y-94299888D01*
X97690431Y-94347900D01*
X97693228Y-94350611D01*
X97712737Y-94370120D01*
X97715917Y-94372587D01*
X97724779Y-94380155D01*
X97740103Y-94394546D01*
X97756626Y-94410062D01*
X97774178Y-94419711D01*
X97790446Y-94430397D01*
X97806272Y-94442673D01*
X97846354Y-94460017D01*
X97856841Y-94465155D01*
X97895115Y-94486197D01*
X97903618Y-94488379D01*
X97914516Y-94491178D01*
X97932921Y-94497478D01*
X97951312Y-94505437D01*
X97994458Y-94512270D01*
X98005876Y-94514635D01*
X98048189Y-94525500D01*
X98068224Y-94525500D01*
X98087623Y-94527027D01*
X98107404Y-94530160D01*
X98150882Y-94526050D01*
X98162552Y-94525500D01*
X103089548Y-94525500D01*
X103156587Y-94545185D01*
X103177229Y-94561819D01*
X112249196Y-103633787D01*
X112262096Y-103649888D01*
X112264213Y-103651876D01*
X112264214Y-103651877D01*
X112290260Y-103676336D01*
X112313223Y-103697900D01*
X112316020Y-103700611D01*
X112335529Y-103720120D01*
X112338709Y-103722587D01*
X112347571Y-103730155D01*
X112379418Y-103760062D01*
X112396972Y-103769712D01*
X112413236Y-103780396D01*
X112424972Y-103789499D01*
X112429064Y-103792673D01*
X112453909Y-103803424D01*
X112469152Y-103810021D01*
X112479631Y-103815154D01*
X112517908Y-103836197D01*
X112537306Y-103841177D01*
X112555708Y-103847477D01*
X112574104Y-103855438D01*
X112617261Y-103862273D01*
X112628664Y-103864634D01*
X112670981Y-103875500D01*
X112691016Y-103875500D01*
X112710413Y-103877026D01*
X112730196Y-103880160D01*
X112773674Y-103876050D01*
X112785344Y-103875500D01*
X135692159Y-103875500D01*
X135759198Y-103895185D01*
X135804953Y-103947989D01*
X135815687Y-104010307D01*
X135804340Y-104139999D01*
X135824936Y-104375407D01*
X135869709Y-104542502D01*
X135886097Y-104603663D01*
X135985965Y-104817830D01*
X136121505Y-105011401D01*
X136288599Y-105178495D01*
X136482170Y-105314035D01*
X136696337Y-105413903D01*
X136924592Y-105475063D01*
X137160000Y-105495659D01*
X137395408Y-105475063D01*
X137623663Y-105413903D01*
X137837830Y-105314035D01*
X138031401Y-105178495D01*
X138198495Y-105011401D01*
X138333653Y-104818374D01*
X138388229Y-104774752D01*
X138435227Y-104765500D01*
X138965501Y-104765500D01*
X139032540Y-104785185D01*
X139078295Y-104837989D01*
X139089501Y-104889499D01*
X139089501Y-105037872D01*
X139089853Y-105041152D01*
X139089854Y-105041159D01*
X139094614Y-105085435D01*
X139095909Y-105097483D01*
X139146204Y-105232331D01*
X139232454Y-105347546D01*
X139347669Y-105433796D01*
X139482517Y-105484091D01*
X139542127Y-105490500D01*
X142175611Y-105490499D01*
X142186419Y-105490970D01*
X142240000Y-105495659D01*
X142293580Y-105490970D01*
X142304389Y-105490499D01*
X143134561Y-105490499D01*
X143137872Y-105490499D01*
X143197483Y-105484091D01*
X143332331Y-105433796D01*
X143447546Y-105347546D01*
X143533796Y-105232331D01*
X143584091Y-105097483D01*
X143590500Y-105037873D01*
X143590499Y-104204384D01*
X143590971Y-104193576D01*
X143595659Y-104139999D01*
X143590971Y-104086422D01*
X143590499Y-104075613D01*
X143590499Y-103714500D01*
X143610184Y-103647461D01*
X143662988Y-103601706D01*
X143714499Y-103590500D01*
X146952256Y-103590500D01*
X146972762Y-103592764D01*
X146975665Y-103592672D01*
X146975667Y-103592673D01*
X147042872Y-103590561D01*
X147046768Y-103590500D01*
X147070448Y-103590500D01*
X147074350Y-103590500D01*
X147078313Y-103589999D01*
X147089958Y-103589080D01*
X147111607Y-103588400D01*
X147179229Y-103605969D01*
X147226620Y-103657310D01*
X147239500Y-103712339D01*
X147239500Y-103845618D01*
X147239028Y-103856426D01*
X147234340Y-103909999D01*
X147239028Y-103963573D01*
X147239500Y-103974381D01*
X147239500Y-105097484D01*
X147239501Y-106135500D01*
X147219816Y-106202539D01*
X147167013Y-106248294D01*
X147115501Y-106259500D01*
X105611229Y-106259500D01*
X105544190Y-106239815D01*
X105498435Y-106187011D01*
X105488491Y-106117853D01*
X105517516Y-106054297D01*
X105523548Y-106047819D01*
X106056303Y-105515063D01*
X106235638Y-105335727D01*
X106249256Y-105323957D01*
X106268530Y-105309610D01*
X106300372Y-105271661D01*
X106307686Y-105263681D01*
X106308264Y-105263102D01*
X106311591Y-105259776D01*
X106330853Y-105235413D01*
X106333076Y-105232686D01*
X106344984Y-105218495D01*
X106381302Y-105175214D01*
X106381303Y-105175211D01*
X106382115Y-105174244D01*
X106392573Y-105157828D01*
X106393107Y-105156680D01*
X106393111Y-105156677D01*
X106424845Y-105088621D01*
X106426371Y-105085470D01*
X106460040Y-105018433D01*
X106460040Y-105018431D01*
X106460609Y-105017299D01*
X106467002Y-104998906D01*
X106482431Y-104924184D01*
X106483212Y-104920660D01*
X106484497Y-104915241D01*
X106500500Y-104847721D01*
X106500500Y-104847720D01*
X106500791Y-104846493D01*
X106502770Y-104827120D01*
X106502733Y-104825858D01*
X106502734Y-104825855D01*
X106500552Y-104750868D01*
X106500500Y-104747262D01*
X106500500Y-103784321D01*
X106517113Y-103722321D01*
X106520569Y-103716336D01*
X106577179Y-103618284D01*
X106635674Y-103438256D01*
X106655460Y-103250000D01*
X106635674Y-103061744D01*
X106600184Y-102952517D01*
X106577179Y-102881715D01*
X106482533Y-102717783D01*
X106355870Y-102577110D01*
X106202730Y-102465848D01*
X106029802Y-102388855D01*
X105844648Y-102349500D01*
X105844646Y-102349500D01*
X105655354Y-102349500D01*
X105655352Y-102349500D01*
X105470197Y-102388855D01*
X105297269Y-102465848D01*
X105144129Y-102577110D01*
X105017466Y-102717783D01*
X104922820Y-102881715D01*
X104864326Y-103061742D01*
X104844540Y-103250000D01*
X104864326Y-103438257D01*
X104922820Y-103618284D01*
X104982887Y-103722321D01*
X104999500Y-103784321D01*
X104999500Y-104397770D01*
X104979815Y-104464809D01*
X104963181Y-104485451D01*
X103225451Y-106223181D01*
X103164128Y-106256666D01*
X103137770Y-106259500D01*
X83622229Y-106259500D01*
X83555190Y-106239815D01*
X83534548Y-106223181D01*
X81786819Y-104475451D01*
X81753334Y-104414128D01*
X81750500Y-104387770D01*
X81750500Y-97382229D01*
X81770185Y-97315190D01*
X81786819Y-97294548D01*
X82116579Y-96964788D01*
X82446416Y-96634950D01*
X82507737Y-96601467D01*
X82577428Y-96606451D01*
X82633362Y-96648322D01*
X82657623Y-96711824D01*
X82664936Y-96795407D01*
X82705196Y-96945658D01*
X82726097Y-97023663D01*
X82825965Y-97237830D01*
X82961505Y-97431401D01*
X83128599Y-97598495D01*
X83314160Y-97728426D01*
X83357783Y-97783002D01*
X83364976Y-97852501D01*
X83333454Y-97914855D01*
X83314160Y-97931574D01*
X83185173Y-98021892D01*
X83128595Y-98061508D01*
X82961505Y-98228598D01*
X82825965Y-98422170D01*
X82726097Y-98636336D01*
X82664936Y-98864592D01*
X82644340Y-99099999D01*
X82664936Y-99335407D01*
X82707284Y-99493451D01*
X82726097Y-99563663D01*
X82825965Y-99777830D01*
X82961505Y-99971401D01*
X83128599Y-100138495D01*
X83314596Y-100268732D01*
X83358219Y-100323307D01*
X83365412Y-100392806D01*
X83333890Y-100455160D01*
X83314594Y-100471881D01*
X83238626Y-100525073D01*
X83867466Y-101153913D01*
X83857685Y-101155320D01*
X83726900Y-101215048D01*
X83618239Y-101309202D01*
X83540507Y-101430156D01*
X83516923Y-101510476D01*
X82885072Y-100878625D01*
X82826399Y-100962422D01*
X82726569Y-101176507D01*
X82665430Y-101404681D01*
X82644842Y-101640000D01*
X82665430Y-101875318D01*
X82726569Y-102103492D01*
X82826400Y-102317580D01*
X82885073Y-102401373D01*
X83516923Y-101769523D01*
X83540507Y-101849844D01*
X83618239Y-101970798D01*
X83726900Y-102064952D01*
X83857685Y-102124680D01*
X83867466Y-102126086D01*
X83238625Y-102754925D01*
X83314594Y-102808119D01*
X83358219Y-102862696D01*
X83365413Y-102932194D01*
X83333890Y-102994549D01*
X83314595Y-103011269D01*
X83128595Y-103141508D01*
X82961505Y-103308598D01*
X82825965Y-103502170D01*
X82726097Y-103716336D01*
X82664936Y-103944592D01*
X82644340Y-104180000D01*
X82664936Y-104415407D01*
X82709709Y-104582501D01*
X82726097Y-104643663D01*
X82825965Y-104857830D01*
X82961505Y-105051401D01*
X83128599Y-105218495D01*
X83322170Y-105354035D01*
X83536337Y-105453903D01*
X83764592Y-105515063D01*
X84000000Y-105535659D01*
X84235408Y-105515063D01*
X84463663Y-105453903D01*
X84677830Y-105354035D01*
X84871401Y-105218495D01*
X85038495Y-105051401D01*
X85086127Y-104983374D01*
X85140703Y-104939751D01*
X85187701Y-104930500D01*
X93756294Y-104930500D01*
X93774264Y-104931809D01*
X93778320Y-104932402D01*
X93798023Y-104935289D01*
X93847368Y-104930972D01*
X93858176Y-104930500D01*
X93860100Y-104930500D01*
X93863709Y-104930500D01*
X93894550Y-104926894D01*
X93898031Y-104926539D01*
X93972797Y-104919999D01*
X93972797Y-104919998D01*
X93974052Y-104919889D01*
X93993062Y-104915674D01*
X93994250Y-104915241D01*
X93994255Y-104915241D01*
X94064820Y-104889557D01*
X94068095Y-104888419D01*
X94139334Y-104864814D01*
X94139336Y-104864812D01*
X94140536Y-104864415D01*
X94158063Y-104855929D01*
X94159112Y-104855238D01*
X94159117Y-104855237D01*
X94221806Y-104814005D01*
X94224798Y-104812099D01*
X94288656Y-104772712D01*
X94288656Y-104772711D01*
X94289729Y-104772050D01*
X94304824Y-104759753D01*
X94305692Y-104758832D01*
X94305696Y-104758830D01*
X94357185Y-104704253D01*
X94359631Y-104701735D01*
X101902770Y-97158595D01*
X101964091Y-97125112D01*
X101964464Y-97125031D01*
X102029803Y-97111144D01*
X102029804Y-97111143D01*
X102029806Y-97111143D01*
X102202730Y-97034151D01*
X102355870Y-96922889D01*
X102413122Y-96859305D01*
X102482533Y-96782216D01*
X102577179Y-96618284D01*
X102635674Y-96438256D01*
X102655460Y-96250000D01*
X102635674Y-96061744D01*
X102577179Y-95881716D01*
X102577179Y-95881715D01*
X102482533Y-95717783D01*
X102355870Y-95577110D01*
X102202730Y-95465848D01*
X102029802Y-95388855D01*
X101844648Y-95349500D01*
X101844646Y-95349500D01*
X101655354Y-95349500D01*
X101655352Y-95349500D01*
X101470197Y-95388855D01*
X101297269Y-95465848D01*
X101144129Y-95577110D01*
X101017466Y-95717783D01*
X100922821Y-95881714D01*
X100867478Y-96052041D01*
X100837228Y-96101403D01*
X93545451Y-103393181D01*
X93484128Y-103426666D01*
X93457770Y-103429500D01*
X85187701Y-103429500D01*
X85120662Y-103409815D01*
X85086126Y-103376623D01*
X85038494Y-103308598D01*
X84871404Y-103141508D01*
X84871403Y-103141507D01*
X84871401Y-103141505D01*
X84685402Y-103011267D01*
X84641780Y-102956692D01*
X84634587Y-102887193D01*
X84666109Y-102824839D01*
X84685405Y-102808119D01*
X84761373Y-102754925D01*
X84132533Y-102126086D01*
X84142315Y-102124680D01*
X84273100Y-102064952D01*
X84381761Y-101970798D01*
X84459493Y-101849844D01*
X84483076Y-101769524D01*
X85114925Y-102401373D01*
X85173600Y-102317576D01*
X85273430Y-102103492D01*
X85334569Y-101875318D01*
X85355157Y-101640000D01*
X85334569Y-101404681D01*
X85273430Y-101176507D01*
X85173599Y-100962421D01*
X85114926Y-100878626D01*
X85114925Y-100878625D01*
X84483076Y-101510474D01*
X84459493Y-101430156D01*
X84381761Y-101309202D01*
X84273100Y-101215048D01*
X84142315Y-101155320D01*
X84132533Y-101153913D01*
X84761373Y-100525073D01*
X84761373Y-100525072D01*
X84685405Y-100471880D01*
X84641780Y-100417304D01*
X84634586Y-100347805D01*
X84666108Y-100285451D01*
X84685399Y-100268734D01*
X84871401Y-100138495D01*
X85038495Y-99971401D01*
X85174035Y-99777830D01*
X85273903Y-99563663D01*
X85335063Y-99335408D01*
X85355659Y-99100000D01*
X85335063Y-98864592D01*
X85273903Y-98636337D01*
X85174035Y-98422171D01*
X85038495Y-98228599D01*
X84871401Y-98061505D01*
X84685839Y-97931573D01*
X84642215Y-97876997D01*
X84635023Y-97807498D01*
X84666545Y-97745144D01*
X84685831Y-97728432D01*
X84871401Y-97598495D01*
X85038495Y-97431401D01*
X85174035Y-97237830D01*
X85273903Y-97023663D01*
X85335063Y-96795408D01*
X85355659Y-96560000D01*
X85335063Y-96324592D01*
X85273903Y-96096337D01*
X85174035Y-95882171D01*
X85038495Y-95688599D01*
X84871401Y-95521505D01*
X84685839Y-95391573D01*
X84642215Y-95336997D01*
X84635023Y-95267498D01*
X84666545Y-95205144D01*
X84685831Y-95188432D01*
X84871401Y-95058495D01*
X85038495Y-94891401D01*
X85174035Y-94697830D01*
X85273903Y-94483663D01*
X85335063Y-94255408D01*
X85355659Y-94020000D01*
X85335063Y-93784592D01*
X85273903Y-93556337D01*
X85174035Y-93342171D01*
X85038495Y-93148599D01*
X84871401Y-92981505D01*
X84685839Y-92851573D01*
X84642215Y-92796997D01*
X84635023Y-92727498D01*
X84666545Y-92665144D01*
X84685831Y-92648432D01*
X84871401Y-92518495D01*
X85038495Y-92351401D01*
X85173653Y-92158374D01*
X85228229Y-92114752D01*
X85275227Y-92105500D01*
X91169548Y-92105500D01*
X91236587Y-92125185D01*
X91257228Y-92141818D01*
X93415266Y-94299857D01*
X95561038Y-96445629D01*
X95594523Y-96506952D01*
X95596678Y-96520348D01*
X95614326Y-96688257D01*
X95672820Y-96868284D01*
X95767466Y-97032216D01*
X95894129Y-97172889D01*
X96047269Y-97284151D01*
X96220197Y-97361144D01*
X96405352Y-97400500D01*
X96405354Y-97400500D01*
X96594648Y-97400500D01*
X96718084Y-97374262D01*
X96779803Y-97361144D01*
X96952730Y-97284151D01*
X96952729Y-97284150D01*
X97105870Y-97172889D01*
X97232533Y-97032216D01*
X97327179Y-96868284D01*
X97355144Y-96782216D01*
X97385674Y-96688256D01*
X97405460Y-96500000D01*
X97385674Y-96311744D01*
X97327179Y-96131716D01*
X97327179Y-96131715D01*
X97232533Y-95967783D01*
X97105870Y-95827110D01*
X96952730Y-95715848D01*
X96779802Y-95638855D01*
X96594648Y-95599500D01*
X96594646Y-95599500D01*
X96535452Y-95599500D01*
X96468413Y-95579815D01*
X96447771Y-95563181D01*
X94226761Y-93342171D01*
X91980802Y-91096211D01*
X91967906Y-91080113D01*
X91916775Y-91032098D01*
X91913978Y-91029387D01*
X91897227Y-91012636D01*
X91894471Y-91009880D01*
X91891290Y-91007412D01*
X91882422Y-90999837D01*
X91850582Y-90969938D01*
X91833024Y-90960285D01*
X91816764Y-90949604D01*
X91800936Y-90937327D01*
X91760851Y-90919980D01*
X91750361Y-90914841D01*
X91712091Y-90893802D01*
X91692691Y-90888821D01*
X91674284Y-90882519D01*
X91655897Y-90874562D01*
X91612758Y-90867729D01*
X91601324Y-90865361D01*
X91559019Y-90854500D01*
X91538984Y-90854500D01*
X91519586Y-90852973D01*
X91512162Y-90851797D01*
X91499805Y-90849840D01*
X91499804Y-90849840D01*
X91466751Y-90852964D01*
X91456325Y-90853950D01*
X91444656Y-90854500D01*
X85275226Y-90854500D01*
X85208187Y-90834815D01*
X85173651Y-90801623D01*
X85142783Y-90757539D01*
X85038495Y-90608599D01*
X84871401Y-90441505D01*
X84685839Y-90311573D01*
X84642215Y-90256997D01*
X84635023Y-90187498D01*
X84666545Y-90125144D01*
X84685831Y-90108432D01*
X84871401Y-89978495D01*
X85038495Y-89811401D01*
X85174035Y-89617830D01*
X85273903Y-89403663D01*
X85335063Y-89175408D01*
X85355659Y-88940000D01*
X85335063Y-88704592D01*
X85273903Y-88476337D01*
X85174035Y-88262171D01*
X85038495Y-88068599D01*
X84871401Y-87901505D01*
X84685839Y-87771573D01*
X84642216Y-87716998D01*
X84635022Y-87647500D01*
X84666545Y-87585145D01*
X84685837Y-87568428D01*
X84871401Y-87438495D01*
X85038495Y-87271401D01*
X85174035Y-87077830D01*
X85273903Y-86863663D01*
X85335063Y-86635408D01*
X85355659Y-86400000D01*
X85335063Y-86164592D01*
X85273903Y-85936337D01*
X85174035Y-85722171D01*
X85038495Y-85528599D01*
X84871401Y-85361505D01*
X84685839Y-85231573D01*
X84642215Y-85176997D01*
X84635023Y-85107498D01*
X84666545Y-85045144D01*
X84685831Y-85028432D01*
X84871401Y-84898495D01*
X85038495Y-84731401D01*
X85174035Y-84537830D01*
X85273903Y-84323663D01*
X85335063Y-84095408D01*
X85355659Y-83860000D01*
X85347994Y-83772396D01*
X85335063Y-83624592D01*
X85324345Y-83584592D01*
X85273903Y-83396337D01*
X85174035Y-83182171D01*
X85038495Y-82988599D01*
X84871401Y-82821505D01*
X84685839Y-82691573D01*
X84642216Y-82636998D01*
X84635022Y-82567500D01*
X84666545Y-82505145D01*
X84685837Y-82488428D01*
X84871401Y-82358495D01*
X85038495Y-82191401D01*
X85174035Y-81997830D01*
X85273903Y-81783663D01*
X85335063Y-81555408D01*
X85355659Y-81320000D01*
X85341942Y-81163223D01*
X85335063Y-81084592D01*
X85324345Y-81044592D01*
X85273903Y-80856337D01*
X85174035Y-80642171D01*
X85038495Y-80448599D01*
X84871401Y-80281505D01*
X84685839Y-80151573D01*
X84642215Y-80096997D01*
X84635023Y-80027498D01*
X84666545Y-79965144D01*
X84685831Y-79948432D01*
X84871401Y-79818495D01*
X85038495Y-79651401D01*
X85174035Y-79457830D01*
X85273903Y-79243663D01*
X85335063Y-79015408D01*
X85355659Y-78780000D01*
X85335063Y-78544592D01*
X85273903Y-78316337D01*
X85174035Y-78102171D01*
X85038495Y-77908599D01*
X84871401Y-77741505D01*
X84685839Y-77611573D01*
X84642216Y-77556998D01*
X84635022Y-77487500D01*
X84666545Y-77425145D01*
X84685837Y-77408428D01*
X84871401Y-77278495D01*
X85038495Y-77111401D01*
X85173653Y-76918374D01*
X85228229Y-76874752D01*
X85275227Y-76865500D01*
X86861172Y-76865500D01*
X86928211Y-76885185D01*
G37*
%TD.AperFunction*%
%TA.AperFunction,Conductor*%
G36*
X151380000Y-104936000D02*
G01*
X151360315Y-105003039D01*
X151307511Y-105048794D01*
X151256000Y-105060000D01*
X151004000Y-105060000D01*
X150936961Y-105040315D01*
X150891206Y-104987511D01*
X150880000Y-104936000D01*
X150880000Y-104356494D01*
X150984839Y-104404373D01*
X151093527Y-104420000D01*
X151166473Y-104420000D01*
X151275161Y-104404373D01*
X151380000Y-104356494D01*
X151380000Y-104936000D01*
G37*
%TD.AperFunction*%
%TA.AperFunction,Conductor*%
G36*
X124411003Y-94095185D02*
G01*
X124431644Y-94111818D01*
X127702054Y-97382229D01*
X130938612Y-100618787D01*
X130951512Y-100634888D01*
X131002639Y-100682900D01*
X131005436Y-100685611D01*
X131024945Y-100705120D01*
X131028125Y-100707587D01*
X131036987Y-100715155D01*
X131068834Y-100745062D01*
X131086388Y-100754712D01*
X131102652Y-100765396D01*
X131114388Y-100774499D01*
X131118480Y-100777673D01*
X131143325Y-100788424D01*
X131158568Y-100795021D01*
X131169047Y-100800154D01*
X131207324Y-100821197D01*
X131226722Y-100826177D01*
X131245124Y-100832477D01*
X131263520Y-100840438D01*
X131306677Y-100847273D01*
X131318080Y-100849634D01*
X131360397Y-100860500D01*
X131380432Y-100860500D01*
X131399829Y-100862026D01*
X131419612Y-100865160D01*
X131463090Y-100861050D01*
X131474760Y-100860500D01*
X135820081Y-100860500D01*
X135887120Y-100880185D01*
X135932875Y-100932989D01*
X135942819Y-101002147D01*
X135932463Y-101036905D01*
X135886097Y-101136336D01*
X135824936Y-101364592D01*
X135804340Y-101600000D01*
X135816562Y-101739693D01*
X135802795Y-101808193D01*
X135754180Y-101858376D01*
X135693034Y-101874500D01*
X114203747Y-101874500D01*
X114136708Y-101854815D01*
X114111599Y-101833473D01*
X114105871Y-101827112D01*
X113952730Y-101715849D01*
X113952729Y-101715848D01*
X113952727Y-101715847D01*
X113779802Y-101638855D01*
X113594648Y-101599500D01*
X113594646Y-101599500D01*
X113405354Y-101599500D01*
X113405352Y-101599500D01*
X113220197Y-101638855D01*
X113047269Y-101715848D01*
X112894129Y-101827110D01*
X112767466Y-101967783D01*
X112696332Y-102090993D01*
X112645765Y-102139209D01*
X112577158Y-102152432D01*
X112512293Y-102126464D01*
X112501264Y-102116674D01*
X104671772Y-94287181D01*
X104638287Y-94225858D01*
X104643271Y-94156166D01*
X104685143Y-94100233D01*
X104750607Y-94075816D01*
X104759453Y-94075500D01*
X124343964Y-94075500D01*
X124411003Y-94095185D01*
G37*
%TD.AperFunction*%
%TA.AperFunction,Conductor*%
G36*
X158583207Y-96403896D02*
G01*
X158639140Y-96445768D01*
X158663401Y-96509269D01*
X158669028Y-96573575D01*
X158669500Y-96584384D01*
X158669499Y-96934546D01*
X158649814Y-97001586D01*
X158633180Y-97022227D01*
X156082228Y-99573181D01*
X156020905Y-99606666D01*
X155994547Y-99609500D01*
X143714000Y-99609500D01*
X143646961Y-99589815D01*
X143601206Y-99537011D01*
X143590000Y-99485500D01*
X143590000Y-99310000D01*
X142685572Y-99310000D01*
X142708682Y-99274040D01*
X142750000Y-99133327D01*
X142750000Y-98986673D01*
X142708682Y-98845960D01*
X142685572Y-98810000D01*
X143590000Y-98810000D01*
X143590000Y-98444500D01*
X143609685Y-98377461D01*
X143662489Y-98331706D01*
X143714000Y-98320500D01*
X156222256Y-98320500D01*
X156242762Y-98322764D01*
X156245665Y-98322672D01*
X156245667Y-98322673D01*
X156312872Y-98320561D01*
X156316768Y-98320500D01*
X156340448Y-98320500D01*
X156344350Y-98320500D01*
X156348313Y-98319999D01*
X156359962Y-98319080D01*
X156403627Y-98317709D01*
X156422859Y-98312120D01*
X156441918Y-98308174D01*
X156448196Y-98307381D01*
X156461792Y-98305664D01*
X156502407Y-98289582D01*
X156513444Y-98285803D01*
X156555390Y-98273618D01*
X156572629Y-98263422D01*
X156590102Y-98254862D01*
X156608732Y-98247486D01*
X156644064Y-98221814D01*
X156653830Y-98215400D01*
X156691418Y-98193171D01*
X156691417Y-98193171D01*
X156691420Y-98193170D01*
X156705585Y-98179004D01*
X156720373Y-98166373D01*
X156736587Y-98154594D01*
X156764438Y-98120926D01*
X156772279Y-98112309D01*
X158452193Y-96432395D01*
X158513515Y-96398912D01*
X158583207Y-96403896D01*
G37*
%TD.AperFunction*%
%TA.AperFunction,Conductor*%
G36*
X159551318Y-98845960D02*
G01*
X159510000Y-98986673D01*
X159510000Y-99133327D01*
X159551318Y-99274040D01*
X159574428Y-99310000D01*
X158670000Y-99310000D01*
X158670000Y-99954518D01*
X158670354Y-99961132D01*
X158676400Y-100017371D01*
X158726647Y-100152089D01*
X158803890Y-100255272D01*
X158828307Y-100320737D01*
X158813455Y-100389010D01*
X158803890Y-100403894D01*
X158726204Y-100507668D01*
X158675909Y-100642516D01*
X158671425Y-100684226D01*
X158669500Y-100702127D01*
X158669500Y-100705449D01*
X158669500Y-100850500D01*
X158649815Y-100917539D01*
X158597011Y-100963294D01*
X158545500Y-100974500D01*
X156736621Y-100974500D01*
X156669582Y-100954815D01*
X156623827Y-100902011D01*
X156613883Y-100832853D01*
X156642908Y-100769297D01*
X156673501Y-100743768D01*
X156691417Y-100733172D01*
X156691417Y-100733171D01*
X156691420Y-100733170D01*
X156705585Y-100719004D01*
X156720373Y-100706373D01*
X156736587Y-100694594D01*
X156764438Y-100660926D01*
X156772279Y-100652309D01*
X158578270Y-98846319D01*
X158639593Y-98812834D01*
X158665951Y-98810000D01*
X159574428Y-98810000D01*
X159551318Y-98845960D01*
G37*
%TD.AperFunction*%
%TA.AperFunction,Conductor*%
G36*
X163791812Y-97165185D02*
G01*
X163826345Y-97198373D01*
X163961505Y-97391401D01*
X164128599Y-97558495D01*
X164314596Y-97688732D01*
X164358219Y-97743307D01*
X164365412Y-97812806D01*
X164333890Y-97875160D01*
X164314595Y-97891880D01*
X164128919Y-98021892D01*
X163961890Y-98188921D01*
X163826400Y-98382421D01*
X163726569Y-98596507D01*
X163669364Y-98809999D01*
X163669364Y-98810000D01*
X164566314Y-98810000D01*
X164540507Y-98850156D01*
X164500000Y-98988111D01*
X164500000Y-99131889D01*
X164540507Y-99269844D01*
X164566314Y-99310000D01*
X163669364Y-99310000D01*
X163726569Y-99523492D01*
X163826399Y-99737576D01*
X163961893Y-99931081D01*
X164128918Y-100098106D01*
X164314595Y-100228119D01*
X164358219Y-100282696D01*
X164365412Y-100352195D01*
X164333890Y-100414549D01*
X164314595Y-100431269D01*
X164128595Y-100561508D01*
X163961505Y-100728598D01*
X163878412Y-100847268D01*
X163829209Y-100917539D01*
X163826349Y-100921623D01*
X163771772Y-100965248D01*
X163724774Y-100974500D01*
X163294499Y-100974500D01*
X163227460Y-100954815D01*
X163181705Y-100902011D01*
X163170499Y-100850500D01*
X163170499Y-100705439D01*
X163170499Y-100702128D01*
X163164091Y-100642517D01*
X163113796Y-100507669D01*
X163036108Y-100403892D01*
X163011692Y-100338428D01*
X163026544Y-100270155D01*
X163036110Y-100255270D01*
X163113352Y-100152089D01*
X163163599Y-100017371D01*
X163169645Y-99961132D01*
X163170000Y-99954518D01*
X163170000Y-99310000D01*
X160465572Y-99310000D01*
X160488682Y-99274040D01*
X160530000Y-99133327D01*
X160530000Y-98986673D01*
X160488682Y-98845960D01*
X160465572Y-98810000D01*
X163170000Y-98810000D01*
X163170000Y-98165481D01*
X163169645Y-98158867D01*
X163163599Y-98102628D01*
X163113352Y-97967911D01*
X163036109Y-97864727D01*
X163011692Y-97799263D01*
X163026544Y-97730990D01*
X163036100Y-97716118D01*
X163113796Y-97612331D01*
X163164091Y-97477483D01*
X163170500Y-97417873D01*
X163170500Y-97269499D01*
X163190185Y-97202461D01*
X163242989Y-97156706D01*
X163294500Y-97145500D01*
X163724773Y-97145500D01*
X163791812Y-97165185D01*
G37*
%TD.AperFunction*%
%TA.AperFunction,Conductor*%
G36*
X139033039Y-98340185D02*
G01*
X139078794Y-98392989D01*
X139090000Y-98444500D01*
X139090000Y-98810000D01*
X141794428Y-98810000D01*
X141771318Y-98845960D01*
X141730000Y-98986673D01*
X141730000Y-99133327D01*
X141771318Y-99274040D01*
X141794428Y-99310000D01*
X139090000Y-99310000D01*
X139090000Y-99485500D01*
X139070315Y-99552539D01*
X139017511Y-99598294D01*
X138966000Y-99609500D01*
X138571985Y-99609500D01*
X138504946Y-99589815D01*
X138459191Y-99537011D01*
X138449247Y-99467853D01*
X138452210Y-99453406D01*
X138494569Y-99295318D01*
X138515157Y-99060000D01*
X138494569Y-98824681D01*
X138433430Y-98596507D01*
X138386985Y-98496905D01*
X138376493Y-98427827D01*
X138405013Y-98364043D01*
X138463489Y-98325804D01*
X138499367Y-98320500D01*
X138966000Y-98320500D01*
X139033039Y-98340185D01*
G37*
%TD.AperFunction*%
%TA.AperFunction,Conductor*%
G36*
X93830703Y-81874927D02*
G01*
X93837179Y-81880957D01*
X95139515Y-83183294D01*
X96440008Y-84483787D01*
X96452908Y-84499888D01*
X96504035Y-84547900D01*
X96506832Y-84550611D01*
X96526341Y-84570120D01*
X96529521Y-84572587D01*
X96538383Y-84580155D01*
X96570230Y-84610062D01*
X96587782Y-84619711D01*
X96604050Y-84630397D01*
X96619876Y-84642673D01*
X96659958Y-84660017D01*
X96670445Y-84665155D01*
X96708719Y-84686197D01*
X96717222Y-84688379D01*
X96728120Y-84691178D01*
X96746525Y-84697478D01*
X96764916Y-84705437D01*
X96808062Y-84712270D01*
X96819480Y-84714635D01*
X96861793Y-84725500D01*
X96881828Y-84725500D01*
X96901227Y-84727027D01*
X96921008Y-84730160D01*
X96964486Y-84726050D01*
X96976156Y-84725500D01*
X105485675Y-84725500D01*
X105552714Y-84745185D01*
X105598469Y-84797989D01*
X105608995Y-84862459D01*
X105596679Y-84979650D01*
X105570094Y-85044264D01*
X105561039Y-85054369D01*
X105029880Y-85585529D01*
X100277228Y-90338181D01*
X100215905Y-90371666D01*
X100189547Y-90374500D01*
X98453747Y-90374500D01*
X98386708Y-90354815D01*
X98361599Y-90333473D01*
X98355871Y-90327112D01*
X98202730Y-90215849D01*
X98202729Y-90215848D01*
X98202727Y-90215847D01*
X98029802Y-90138855D01*
X97844648Y-90099500D01*
X97844646Y-90099500D01*
X97655354Y-90099500D01*
X97655352Y-90099500D01*
X97470197Y-90138855D01*
X97297269Y-90215848D01*
X97144129Y-90327110D01*
X97026681Y-90457551D01*
X96967194Y-90494200D01*
X96897337Y-90492869D01*
X96846850Y-90462260D01*
X95284590Y-88900000D01*
X93661819Y-87277228D01*
X93628334Y-87215905D01*
X93625500Y-87189547D01*
X93625500Y-81968640D01*
X93645185Y-81901601D01*
X93697989Y-81855846D01*
X93767147Y-81845902D01*
X93830703Y-81874927D01*
G37*
%TD.AperFunction*%
%TA.AperFunction,Conductor*%
G36*
X116333795Y-84745185D02*
G01*
X116354437Y-84761819D01*
X123755436Y-92162819D01*
X123788921Y-92224142D01*
X123783937Y-92293834D01*
X123742065Y-92349767D01*
X123676601Y-92374184D01*
X123667755Y-92374500D01*
X110995831Y-92374500D01*
X110928792Y-92354815D01*
X110883037Y-92302011D01*
X110873093Y-92232853D01*
X110877900Y-92212183D01*
X110885673Y-92188259D01*
X110885672Y-92188259D01*
X110885674Y-92188256D01*
X110905460Y-92000000D01*
X110885674Y-91811744D01*
X110850151Y-91702416D01*
X110827179Y-91631715D01*
X110732533Y-91467783D01*
X110605870Y-91327110D01*
X110452730Y-91215848D01*
X110279802Y-91138855D01*
X110094648Y-91099500D01*
X110094646Y-91099500D01*
X109905354Y-91099500D01*
X109905352Y-91099500D01*
X109720197Y-91138855D01*
X109547272Y-91215847D01*
X109500953Y-91249500D01*
X109394129Y-91327112D01*
X109388401Y-91333472D01*
X109328916Y-91370121D01*
X109296253Y-91374500D01*
X101309452Y-91374500D01*
X101242413Y-91354815D01*
X101196658Y-91302011D01*
X101186714Y-91232853D01*
X101215739Y-91169297D01*
X101221771Y-91162819D01*
X103484591Y-88899999D01*
X105970120Y-86414471D01*
X105970121Y-86414468D01*
X105980910Y-86403680D01*
X105980912Y-86403676D01*
X106447770Y-85936819D01*
X106509094Y-85903334D01*
X106535452Y-85900500D01*
X106594648Y-85900500D01*
X106718083Y-85874262D01*
X106779803Y-85861144D01*
X106952730Y-85784151D01*
X106952729Y-85784151D01*
X107105870Y-85672889D01*
X107232533Y-85532216D01*
X107327179Y-85368284D01*
X107359793Y-85267908D01*
X107385674Y-85188256D01*
X107405460Y-85000000D01*
X107391004Y-84862459D01*
X107403574Y-84793732D01*
X107451306Y-84742708D01*
X107514325Y-84725500D01*
X116266756Y-84725500D01*
X116333795Y-84745185D01*
G37*
%TD.AperFunction*%
%TA.AperFunction,Conductor*%
G36*
X163791812Y-84465185D02*
G01*
X163826345Y-84498373D01*
X163961505Y-84691401D01*
X164128599Y-84858495D01*
X164314596Y-84988732D01*
X164358219Y-85043307D01*
X164365412Y-85112806D01*
X164333890Y-85175160D01*
X164314595Y-85191880D01*
X164128919Y-85321892D01*
X163961890Y-85488921D01*
X163826400Y-85682421D01*
X163726569Y-85896507D01*
X163669364Y-86109999D01*
X163669364Y-86110000D01*
X164566314Y-86110000D01*
X164540507Y-86150156D01*
X164500000Y-86288111D01*
X164500000Y-86431889D01*
X164540507Y-86569844D01*
X164566314Y-86610000D01*
X163669364Y-86610000D01*
X163726569Y-86823492D01*
X163826399Y-87037576D01*
X163961893Y-87231081D01*
X164128918Y-87398106D01*
X164314595Y-87528119D01*
X164358219Y-87582696D01*
X164365412Y-87652195D01*
X164333890Y-87714549D01*
X164314595Y-87731269D01*
X164167632Y-87834173D01*
X164148171Y-87847801D01*
X164128595Y-87861508D01*
X163961505Y-88028598D01*
X163894605Y-88124142D01*
X163832789Y-88212426D01*
X163826349Y-88221623D01*
X163771772Y-88265248D01*
X163724774Y-88274500D01*
X163294499Y-88274500D01*
X163227460Y-88254815D01*
X163181705Y-88202011D01*
X163170499Y-88150500D01*
X163170499Y-88005439D01*
X163170499Y-88002128D01*
X163164091Y-87942517D01*
X163113796Y-87807669D01*
X163036108Y-87703892D01*
X163011692Y-87638428D01*
X163026544Y-87570155D01*
X163036110Y-87555270D01*
X163113352Y-87452089D01*
X163163599Y-87317371D01*
X163169645Y-87261132D01*
X163170000Y-87254518D01*
X163170000Y-86610000D01*
X160465572Y-86610000D01*
X160488682Y-86574040D01*
X160530000Y-86433327D01*
X160530000Y-86286673D01*
X160488682Y-86145960D01*
X160465572Y-86110000D01*
X163170000Y-86110000D01*
X163170000Y-85465481D01*
X163169645Y-85458867D01*
X163163599Y-85402628D01*
X163113352Y-85267911D01*
X163036109Y-85164727D01*
X163011692Y-85099263D01*
X163026544Y-85030990D01*
X163036100Y-85016118D01*
X163113796Y-84912331D01*
X163164091Y-84777483D01*
X163170500Y-84717873D01*
X163170500Y-84569500D01*
X163190185Y-84502461D01*
X163242989Y-84456706D01*
X163294500Y-84445500D01*
X163724773Y-84445500D01*
X163791812Y-84465185D01*
G37*
%TD.AperFunction*%
%TA.AperFunction,Conductor*%
G36*
X143807807Y-78652397D02*
G01*
X146588181Y-81432771D01*
X146621666Y-81494094D01*
X146624500Y-81520452D01*
X146624500Y-87601382D01*
X146604815Y-87668421D01*
X146552011Y-87714176D01*
X146482853Y-87724120D01*
X146450064Y-87714662D01*
X146400290Y-87692501D01*
X146279803Y-87638856D01*
X146279802Y-87638855D01*
X146279798Y-87638854D01*
X146094648Y-87599500D01*
X146094646Y-87599500D01*
X146035453Y-87599500D01*
X145968414Y-87579815D01*
X145947772Y-87563181D01*
X145725802Y-87341211D01*
X145712906Y-87325113D01*
X145661775Y-87277098D01*
X145658978Y-87274387D01*
X145642227Y-87257636D01*
X145639471Y-87254880D01*
X145636290Y-87252412D01*
X145627422Y-87244837D01*
X145595582Y-87214938D01*
X145578024Y-87205285D01*
X145561764Y-87194604D01*
X145545936Y-87182327D01*
X145505851Y-87164980D01*
X145495361Y-87159841D01*
X145457091Y-87138802D01*
X145437691Y-87133821D01*
X145419284Y-87127519D01*
X145400897Y-87119562D01*
X145357758Y-87112729D01*
X145346324Y-87110361D01*
X145304019Y-87099500D01*
X145283984Y-87099500D01*
X145264586Y-87097973D01*
X145257162Y-87096797D01*
X145244805Y-87094840D01*
X145244804Y-87094840D01*
X145211751Y-87097964D01*
X145201325Y-87098950D01*
X145189656Y-87099500D01*
X143714000Y-87099500D01*
X143646961Y-87079815D01*
X143601206Y-87027011D01*
X143590000Y-86975500D01*
X143590000Y-86610000D01*
X142685572Y-86610000D01*
X142708682Y-86574040D01*
X142750000Y-86433327D01*
X142750000Y-86286673D01*
X142708682Y-86145960D01*
X142685572Y-86110000D01*
X143590000Y-86110000D01*
X143590000Y-85465481D01*
X143589645Y-85458867D01*
X143583599Y-85402628D01*
X143533352Y-85267911D01*
X143456109Y-85164727D01*
X143431692Y-85099263D01*
X143446544Y-85030990D01*
X143456100Y-85016118D01*
X143533796Y-84912331D01*
X143584091Y-84777483D01*
X143590500Y-84717873D01*
X143590499Y-83884384D01*
X143590971Y-83873576D01*
X143595659Y-83819999D01*
X143590971Y-83766422D01*
X143590499Y-83755613D01*
X143590499Y-82925439D01*
X143590499Y-82922128D01*
X143584091Y-82862517D01*
X143533796Y-82727669D01*
X143456421Y-82624310D01*
X143432005Y-82558846D01*
X143446857Y-82490573D01*
X143456422Y-82475689D01*
X143476832Y-82448425D01*
X143533796Y-82372331D01*
X143584091Y-82237483D01*
X143590500Y-82177873D01*
X143590499Y-81344384D01*
X143590971Y-81333576D01*
X143592881Y-81311744D01*
X143595659Y-81280000D01*
X143590970Y-81226420D01*
X143590499Y-81215613D01*
X143590499Y-80385439D01*
X143590499Y-80385438D01*
X143590499Y-80382128D01*
X143584091Y-80322517D01*
X143533796Y-80187669D01*
X143456421Y-80084310D01*
X143432005Y-80018846D01*
X143446857Y-79950573D01*
X143456422Y-79935689D01*
X143476832Y-79908425D01*
X143533796Y-79832331D01*
X143584091Y-79697483D01*
X143590500Y-79637873D01*
X143590499Y-78804384D01*
X143590971Y-78793576D01*
X143596598Y-78729269D01*
X143622051Y-78664201D01*
X143678643Y-78623223D01*
X143748405Y-78619346D01*
X143807807Y-78652397D01*
G37*
%TD.AperFunction*%
%TA.AperFunction,Conductor*%
G36*
X139032540Y-84465185D02*
G01*
X139078295Y-84517989D01*
X139089501Y-84569499D01*
X139089501Y-84717872D01*
X139089853Y-84721152D01*
X139089854Y-84721159D01*
X139095909Y-84777484D01*
X139146203Y-84912329D01*
X139146204Y-84912331D01*
X139223890Y-85016106D01*
X139248307Y-85081569D01*
X139233456Y-85149842D01*
X139223890Y-85164726D01*
X139146648Y-85267908D01*
X139096400Y-85402628D01*
X139090354Y-85458867D01*
X139090000Y-85465481D01*
X139090000Y-86110000D01*
X141794428Y-86110000D01*
X141771318Y-86145960D01*
X141730000Y-86286673D01*
X141730000Y-86433327D01*
X141771318Y-86574040D01*
X141794428Y-86610000D01*
X139090000Y-86610000D01*
X139090000Y-86975500D01*
X139070315Y-87042539D01*
X139017511Y-87088294D01*
X138966000Y-87099500D01*
X138499367Y-87099500D01*
X138432328Y-87079815D01*
X138386573Y-87027011D01*
X138376629Y-86957853D01*
X138386985Y-86923095D01*
X138433430Y-86823492D01*
X138490636Y-86610000D01*
X137593686Y-86610000D01*
X137619493Y-86569844D01*
X137660000Y-86431889D01*
X137660000Y-86288111D01*
X137619493Y-86150156D01*
X137593686Y-86110000D01*
X138490636Y-86110000D01*
X138490635Y-86109999D01*
X138433430Y-85896507D01*
X138333599Y-85682421D01*
X138198109Y-85488921D01*
X138031081Y-85321893D01*
X137845404Y-85191880D01*
X137801780Y-85137303D01*
X137794587Y-85067804D01*
X137826109Y-85005450D01*
X137845399Y-84988734D01*
X138031401Y-84858495D01*
X138198495Y-84691401D01*
X138333653Y-84498374D01*
X138388229Y-84454752D01*
X138435227Y-84445500D01*
X138965501Y-84445500D01*
X139032540Y-84465185D01*
G37*
%TD.AperFunction*%
%TA.AperFunction,Conductor*%
G36*
X186906587Y-65495185D02*
G01*
X186927229Y-65511819D01*
X194659761Y-73244352D01*
X194693246Y-73305675D01*
X194691855Y-73364125D01*
X194664936Y-73464591D01*
X194644340Y-73700000D01*
X194664936Y-73935407D01*
X194693071Y-74040406D01*
X194726097Y-74163663D01*
X194825965Y-74377830D01*
X194961505Y-74571401D01*
X195128599Y-74738495D01*
X195314160Y-74868426D01*
X195357783Y-74923002D01*
X195364976Y-74992501D01*
X195333454Y-75054855D01*
X195314158Y-75071575D01*
X195139228Y-75194063D01*
X195128595Y-75201508D01*
X194961505Y-75368598D01*
X194825965Y-75562170D01*
X194726097Y-75776336D01*
X194664936Y-76004592D01*
X194644340Y-76239999D01*
X194664936Y-76475408D01*
X194691855Y-76575873D01*
X194690192Y-76645722D01*
X194659761Y-76695646D01*
X194441208Y-76914199D01*
X194425110Y-76927096D01*
X194377096Y-76978225D01*
X194374392Y-76981016D01*
X194357628Y-76997780D01*
X194357621Y-76997787D01*
X194354880Y-77000529D01*
X194352499Y-77003597D01*
X194352490Y-77003608D01*
X194352411Y-77003711D01*
X194344842Y-77012572D01*
X194314935Y-77044420D01*
X194305285Y-77061974D01*
X194294609Y-77078228D01*
X194282326Y-77094063D01*
X194264975Y-77134158D01*
X194259838Y-77144644D01*
X194238802Y-77182907D01*
X194233821Y-77202309D01*
X194227520Y-77220711D01*
X194219561Y-77239102D01*
X194212728Y-77282242D01*
X194210360Y-77293674D01*
X194199500Y-77335977D01*
X194199500Y-77356016D01*
X194197972Y-77375414D01*
X194194840Y-77395196D01*
X194196091Y-77408425D01*
X194198950Y-77438673D01*
X194199500Y-77450343D01*
X194199500Y-79864546D01*
X194179815Y-79931585D01*
X194163181Y-79952227D01*
X189748735Y-84366672D01*
X189687412Y-84400157D01*
X189617720Y-84395173D01*
X189561787Y-84353301D01*
X189553667Y-84340991D01*
X189482533Y-84217783D01*
X189355870Y-84077110D01*
X189202730Y-83965848D01*
X189029802Y-83888855D01*
X188844648Y-83849500D01*
X188844646Y-83849500D01*
X188655354Y-83849500D01*
X188655352Y-83849500D01*
X188470197Y-83888855D01*
X188297272Y-83965847D01*
X188195175Y-84040024D01*
X188144129Y-84077112D01*
X188138401Y-84083472D01*
X188078916Y-84120121D01*
X188046253Y-84124500D01*
X181060453Y-84124500D01*
X180993414Y-84104815D01*
X180972772Y-84088181D01*
X180931912Y-84047321D01*
X180931910Y-84047318D01*
X176582075Y-79697483D01*
X174134591Y-77250000D01*
X181344540Y-77250000D01*
X181364326Y-77438257D01*
X181422820Y-77618284D01*
X181517466Y-77782216D01*
X181644129Y-77922889D01*
X181797269Y-78034151D01*
X181970197Y-78111144D01*
X182155352Y-78150500D01*
X182155354Y-78150500D01*
X182344648Y-78150500D01*
X182468084Y-78124262D01*
X182529803Y-78111144D01*
X182702730Y-78034151D01*
X182816600Y-77951420D01*
X182855870Y-77922889D01*
X182868560Y-77908796D01*
X182982533Y-77782216D01*
X183077179Y-77618284D01*
X183135674Y-77438256D01*
X183155460Y-77250000D01*
X183135674Y-77061744D01*
X183105332Y-76968363D01*
X183077179Y-76881715D01*
X182982533Y-76717783D01*
X182907350Y-76634284D01*
X182877120Y-76571293D01*
X182875500Y-76551312D01*
X182875500Y-75198687D01*
X182895185Y-75131648D01*
X182907350Y-75115714D01*
X182918158Y-75103711D01*
X182982533Y-75032216D01*
X183005463Y-74992501D01*
X183077179Y-74868284D01*
X183081407Y-74855272D01*
X183135674Y-74688256D01*
X183155460Y-74500000D01*
X183135674Y-74311744D01*
X183083945Y-74152538D01*
X183077179Y-74131715D01*
X182982533Y-73967783D01*
X182855870Y-73827110D01*
X182702730Y-73715848D01*
X182529802Y-73638855D01*
X182344648Y-73599500D01*
X182344646Y-73599500D01*
X182155354Y-73599500D01*
X182155352Y-73599500D01*
X181970197Y-73638855D01*
X181797269Y-73715848D01*
X181644129Y-73827110D01*
X181517466Y-73967783D01*
X181422820Y-74131715D01*
X181364326Y-74311742D01*
X181344540Y-74500000D01*
X181364326Y-74688257D01*
X181422820Y-74868284D01*
X181517464Y-75032213D01*
X181517467Y-75032216D01*
X181581749Y-75103608D01*
X181592650Y-75115714D01*
X181622880Y-75178706D01*
X181624500Y-75198687D01*
X181624500Y-76551312D01*
X181604815Y-76618351D01*
X181592650Y-76634284D01*
X181517466Y-76717783D01*
X181422820Y-76881715D01*
X181364326Y-77061742D01*
X181344540Y-77250000D01*
X174134591Y-77250000D01*
X172188959Y-75304368D01*
X172155475Y-75243046D01*
X172153323Y-75229668D01*
X172135674Y-75061744D01*
X172095606Y-74938428D01*
X172077179Y-74881715D01*
X171982533Y-74717783D01*
X171855870Y-74577110D01*
X171702730Y-74465848D01*
X171529802Y-74388855D01*
X171344648Y-74349500D01*
X171344646Y-74349500D01*
X171155354Y-74349500D01*
X171155352Y-74349500D01*
X170970197Y-74388855D01*
X170797269Y-74465848D01*
X170644128Y-74577111D01*
X170633136Y-74589319D01*
X170573647Y-74625964D01*
X170503790Y-74624631D01*
X170453309Y-74594023D01*
X169661819Y-73802533D01*
X169628334Y-73741210D01*
X169625500Y-73714852D01*
X169625500Y-73198687D01*
X169645185Y-73131648D01*
X169657350Y-73115714D01*
X169732533Y-73032216D01*
X169738333Y-73022171D01*
X169827179Y-72868284D01*
X169885674Y-72688256D01*
X169905460Y-72500000D01*
X169885674Y-72311744D01*
X169827179Y-72131716D01*
X169827179Y-72131715D01*
X169732533Y-71967783D01*
X169605870Y-71827110D01*
X169452730Y-71715848D01*
X169279802Y-71638855D01*
X169094648Y-71599500D01*
X169094646Y-71599500D01*
X168905354Y-71599500D01*
X168905352Y-71599500D01*
X168720197Y-71638855D01*
X168547269Y-71715848D01*
X168394129Y-71827110D01*
X168267466Y-71967783D01*
X168172820Y-72131715D01*
X168114326Y-72311742D01*
X168094540Y-72500000D01*
X168114326Y-72688257D01*
X168172820Y-72868284D01*
X168267464Y-73032213D01*
X168342650Y-73115714D01*
X168372880Y-73178706D01*
X168374500Y-73198687D01*
X168374500Y-73942561D01*
X168372235Y-73963071D01*
X168374439Y-74033177D01*
X168374500Y-74037072D01*
X168374500Y-74064655D01*
X168374988Y-74068524D01*
X168374989Y-74068530D01*
X168375004Y-74068648D01*
X168375918Y-74080272D01*
X168377290Y-74123931D01*
X168382879Y-74143165D01*
X168386825Y-74162221D01*
X168389335Y-74182097D01*
X168405414Y-74222709D01*
X168409197Y-74233756D01*
X168421382Y-74275696D01*
X168431580Y-74292940D01*
X168440136Y-74310405D01*
X168447514Y-74329037D01*
X168453718Y-74337576D01*
X168473180Y-74364364D01*
X168479593Y-74374127D01*
X168501826Y-74411721D01*
X168501829Y-74411724D01*
X168501830Y-74411725D01*
X168515995Y-74425890D01*
X168528627Y-74440680D01*
X168540406Y-74456892D01*
X168574058Y-74484731D01*
X168582699Y-74492594D01*
X179477923Y-85387819D01*
X179511408Y-85449142D01*
X179506424Y-85518834D01*
X179464552Y-85574767D01*
X179399088Y-85599184D01*
X179390242Y-85599500D01*
X175335452Y-85599500D01*
X175268413Y-85579815D01*
X175247771Y-85563181D01*
X166340237Y-76655646D01*
X166306752Y-76594323D01*
X166308143Y-76535872D01*
X166329617Y-76455734D01*
X166335063Y-76435409D01*
X166355659Y-76200000D01*
X166335063Y-75964592D01*
X166335062Y-75964591D01*
X166273903Y-75736337D01*
X166174035Y-75522171D01*
X166038495Y-75328599D01*
X165871401Y-75161505D01*
X165685402Y-75031267D01*
X165641780Y-74976692D01*
X165634587Y-74907193D01*
X165666109Y-74844839D01*
X165685405Y-74828119D01*
X165871078Y-74698109D01*
X166038106Y-74531081D01*
X166173600Y-74337576D01*
X166273430Y-74123492D01*
X166330636Y-73910000D01*
X165433686Y-73910000D01*
X165459493Y-73869844D01*
X165500000Y-73731889D01*
X165500000Y-73588111D01*
X165459493Y-73450156D01*
X165433686Y-73410000D01*
X166330636Y-73410000D01*
X166330635Y-73409999D01*
X166273430Y-73196507D01*
X166173599Y-72982421D01*
X166038109Y-72788921D01*
X165871081Y-72621893D01*
X165685404Y-72491880D01*
X165641780Y-72437303D01*
X165634587Y-72367804D01*
X165666109Y-72305450D01*
X165685399Y-72288734D01*
X165871401Y-72158495D01*
X166038495Y-71991401D01*
X166174035Y-71797830D01*
X166273903Y-71583663D01*
X166335063Y-71355408D01*
X166355659Y-71120000D01*
X166335063Y-70884592D01*
X166308143Y-70784125D01*
X166309806Y-70714276D01*
X166340235Y-70664353D01*
X171492771Y-65511819D01*
X171554095Y-65478334D01*
X171580453Y-65475500D01*
X186839548Y-65475500D01*
X186906587Y-65495185D01*
G37*
%TD.AperFunction*%
%TA.AperFunction,Conductor*%
G36*
X163791812Y-71765185D02*
G01*
X163826345Y-71798373D01*
X163961505Y-71991401D01*
X164128599Y-72158495D01*
X164314596Y-72288732D01*
X164358219Y-72343307D01*
X164365412Y-72412806D01*
X164333890Y-72475160D01*
X164314595Y-72491880D01*
X164128919Y-72621892D01*
X163961890Y-72788921D01*
X163826400Y-72982421D01*
X163726569Y-73196507D01*
X163669364Y-73409999D01*
X163669364Y-73410000D01*
X164566314Y-73410000D01*
X164540507Y-73450156D01*
X164500000Y-73588111D01*
X164500000Y-73731889D01*
X164540507Y-73869844D01*
X164566314Y-73910000D01*
X163669364Y-73910000D01*
X163726569Y-74123492D01*
X163826399Y-74337576D01*
X163961893Y-74531081D01*
X164128918Y-74698106D01*
X164314595Y-74828119D01*
X164358219Y-74882696D01*
X164365412Y-74952195D01*
X164333890Y-75014549D01*
X164314595Y-75031269D01*
X164180020Y-75125500D01*
X164151907Y-75145185D01*
X164128595Y-75161508D01*
X163961505Y-75328598D01*
X163876149Y-75450500D01*
X163844855Y-75495194D01*
X163826349Y-75521623D01*
X163771772Y-75565248D01*
X163724774Y-75574500D01*
X163294499Y-75574500D01*
X163227460Y-75554815D01*
X163181705Y-75502011D01*
X163170499Y-75450500D01*
X163170499Y-75305439D01*
X163170499Y-75302128D01*
X163164091Y-75242517D01*
X163113796Y-75107669D01*
X163036108Y-75003892D01*
X163011692Y-74938428D01*
X163026544Y-74870155D01*
X163036110Y-74855270D01*
X163113352Y-74752089D01*
X163163599Y-74617371D01*
X163169645Y-74561132D01*
X163170000Y-74554518D01*
X163170000Y-73910000D01*
X160465572Y-73910000D01*
X160488682Y-73874040D01*
X160530000Y-73733327D01*
X160530000Y-73586673D01*
X160488682Y-73445960D01*
X160465572Y-73410000D01*
X163170000Y-73410000D01*
X163170000Y-72765481D01*
X163169645Y-72758867D01*
X163163599Y-72702628D01*
X163113352Y-72567911D01*
X163036109Y-72464727D01*
X163011692Y-72399263D01*
X163026544Y-72330990D01*
X163036100Y-72316118D01*
X163113796Y-72212331D01*
X163164091Y-72077483D01*
X163170500Y-72017873D01*
X163170500Y-71869500D01*
X163190185Y-71802461D01*
X163242989Y-71756706D01*
X163294500Y-71745500D01*
X163724773Y-71745500D01*
X163791812Y-71765185D01*
G37*
%TD.AperFunction*%
%TA.AperFunction,Conductor*%
G36*
X139032540Y-71765185D02*
G01*
X139078295Y-71817989D01*
X139089501Y-71869499D01*
X139089501Y-72017872D01*
X139089853Y-72021152D01*
X139089854Y-72021159D01*
X139095909Y-72077484D01*
X139146203Y-72212329D01*
X139146204Y-72212331D01*
X139223890Y-72316106D01*
X139248307Y-72381569D01*
X139233456Y-72449842D01*
X139223890Y-72464726D01*
X139146648Y-72567908D01*
X139096400Y-72702628D01*
X139090354Y-72758867D01*
X139090000Y-72765481D01*
X139090000Y-73410000D01*
X141794428Y-73410000D01*
X141771318Y-73445960D01*
X141730000Y-73586673D01*
X141730000Y-73733327D01*
X141771318Y-73874040D01*
X141794428Y-73910000D01*
X139090000Y-73910000D01*
X139090000Y-74275500D01*
X139070315Y-74342539D01*
X139017511Y-74388294D01*
X138966000Y-74399500D01*
X138499367Y-74399500D01*
X138432328Y-74379815D01*
X138386573Y-74327011D01*
X138376629Y-74257853D01*
X138386985Y-74223095D01*
X138433430Y-74123492D01*
X138490636Y-73910000D01*
X137593686Y-73910000D01*
X137619493Y-73869844D01*
X137660000Y-73731889D01*
X137660000Y-73588111D01*
X137619493Y-73450156D01*
X137593686Y-73410000D01*
X138490636Y-73410000D01*
X138490635Y-73409999D01*
X138433430Y-73196507D01*
X138333599Y-72982421D01*
X138198109Y-72788921D01*
X138031081Y-72621893D01*
X137845404Y-72491880D01*
X137801780Y-72437303D01*
X137794587Y-72367804D01*
X137826109Y-72305450D01*
X137845399Y-72288734D01*
X138031401Y-72158495D01*
X138198495Y-71991401D01*
X138333653Y-71798374D01*
X138388229Y-71754752D01*
X138435227Y-71745500D01*
X138965501Y-71745500D01*
X139032540Y-71765185D01*
G37*
%TD.AperFunction*%
%TA.AperFunction,Conductor*%
G36*
X183824809Y-52810185D02*
G01*
X183845451Y-52826819D01*
X186487905Y-55469273D01*
X189127130Y-58108497D01*
X189160615Y-58169820D01*
X189162977Y-58206985D01*
X189144340Y-58419999D01*
X189164936Y-58655407D01*
X189202160Y-58794328D01*
X189226097Y-58883663D01*
X189325965Y-59097830D01*
X189461505Y-59291401D01*
X189628599Y-59458495D01*
X189822170Y-59594035D01*
X190036337Y-59693903D01*
X190264592Y-59755063D01*
X190499999Y-59775659D01*
X190499999Y-59775658D01*
X190500000Y-59775659D01*
X190735408Y-59755063D01*
X190963663Y-59693903D01*
X191177830Y-59594035D01*
X191371401Y-59458495D01*
X191538495Y-59291401D01*
X191586127Y-59223374D01*
X191640703Y-59179751D01*
X191687701Y-59170500D01*
X195657770Y-59170500D01*
X195724809Y-59190185D01*
X195745451Y-59206819D01*
X195976451Y-59437819D01*
X196009936Y-59499142D01*
X196004952Y-59568834D01*
X195963080Y-59624767D01*
X195897616Y-59649184D01*
X195888770Y-59649500D01*
X195105439Y-59649500D01*
X195105420Y-59649500D01*
X195102128Y-59649501D01*
X195098848Y-59649853D01*
X195098840Y-59649854D01*
X195042515Y-59655909D01*
X194907669Y-59706204D01*
X194792454Y-59792454D01*
X194706204Y-59907668D01*
X194655909Y-60042516D01*
X194650358Y-60094150D01*
X194649500Y-60102127D01*
X194649500Y-60105448D01*
X194649500Y-60105449D01*
X194649500Y-61894560D01*
X194649500Y-61894578D01*
X194649501Y-61897872D01*
X194649853Y-61901152D01*
X194649854Y-61901159D01*
X194655909Y-61957484D01*
X194671766Y-61999999D01*
X194706204Y-62092331D01*
X194792454Y-62207546D01*
X194907669Y-62293796D01*
X195019907Y-62335658D01*
X195039082Y-62342810D01*
X195095016Y-62384681D01*
X195119433Y-62450146D01*
X195104581Y-62518419D01*
X195083431Y-62546673D01*
X194961503Y-62668601D01*
X194825965Y-62862170D01*
X194726097Y-63076336D01*
X194664936Y-63304592D01*
X194643401Y-63550728D01*
X194617948Y-63615797D01*
X194561357Y-63656775D01*
X194491595Y-63660653D01*
X194432192Y-63627601D01*
X193920802Y-63116211D01*
X193907906Y-63100113D01*
X193856775Y-63052098D01*
X193853978Y-63049387D01*
X193837227Y-63032636D01*
X193834471Y-63029880D01*
X193831290Y-63027412D01*
X193822422Y-63019837D01*
X193790582Y-62989938D01*
X193773024Y-62980285D01*
X193756764Y-62969604D01*
X193740936Y-62957327D01*
X193700851Y-62939980D01*
X193690361Y-62934841D01*
X193652091Y-62913802D01*
X193632691Y-62908821D01*
X193614284Y-62902519D01*
X193595897Y-62894562D01*
X193552758Y-62887729D01*
X193541324Y-62885361D01*
X193499019Y-62874500D01*
X193478984Y-62874500D01*
X193459586Y-62872973D01*
X193452162Y-62871797D01*
X193439805Y-62869840D01*
X193439804Y-62869840D01*
X193406751Y-62872964D01*
X193396325Y-62873950D01*
X193384656Y-62874500D01*
X166275226Y-62874500D01*
X166208187Y-62854815D01*
X166173651Y-62821623D01*
X166038495Y-62628599D01*
X165871401Y-62461505D01*
X165685402Y-62331267D01*
X165641780Y-62276692D01*
X165634587Y-62207193D01*
X165666109Y-62144839D01*
X165685405Y-62128119D01*
X165871078Y-61998109D01*
X166038106Y-61831081D01*
X166173600Y-61637576D01*
X166273430Y-61423492D01*
X166330636Y-61210000D01*
X165433686Y-61210000D01*
X165459493Y-61169844D01*
X165500000Y-61031889D01*
X165500000Y-60888111D01*
X165459493Y-60750156D01*
X165433686Y-60710000D01*
X166330636Y-60710000D01*
X166330635Y-60709999D01*
X166273430Y-60496507D01*
X166173599Y-60282421D01*
X166038109Y-60088921D01*
X165871081Y-59921893D01*
X165685404Y-59791880D01*
X165641780Y-59737303D01*
X165634587Y-59667804D01*
X165666109Y-59605450D01*
X165685399Y-59588734D01*
X165871401Y-59458495D01*
X166038495Y-59291401D01*
X166173653Y-59098374D01*
X166228229Y-59054752D01*
X166275227Y-59045500D01*
X173984773Y-59045500D01*
X174051812Y-59065185D01*
X174086345Y-59098373D01*
X174221505Y-59291401D01*
X174388599Y-59458495D01*
X174582170Y-59594035D01*
X174796337Y-59693903D01*
X175024591Y-59755063D01*
X175024592Y-59755063D01*
X175259999Y-59775659D01*
X175259999Y-59775658D01*
X175260000Y-59775659D01*
X175495408Y-59755063D01*
X175723663Y-59693903D01*
X175937830Y-59594035D01*
X176131401Y-59458495D01*
X176298495Y-59291401D01*
X176434035Y-59097830D01*
X176533903Y-58883663D01*
X176595063Y-58655408D01*
X176615659Y-58420000D01*
X176595063Y-58184592D01*
X176533903Y-57956337D01*
X176434035Y-57742171D01*
X176298495Y-57548599D01*
X176131401Y-57381505D01*
X175945402Y-57251267D01*
X175901780Y-57196692D01*
X175894587Y-57127193D01*
X175926109Y-57064839D01*
X175945405Y-57048119D01*
X176021373Y-56994925D01*
X175392533Y-56366086D01*
X175402315Y-56364680D01*
X175533100Y-56304952D01*
X175641761Y-56210798D01*
X175719493Y-56089844D01*
X175743076Y-56009524D01*
X176374925Y-56641373D01*
X176433600Y-56557576D01*
X176533430Y-56343492D01*
X176594569Y-56115318D01*
X176615157Y-55880000D01*
X176594569Y-55644681D01*
X176533430Y-55416507D01*
X176433599Y-55202421D01*
X176374926Y-55118626D01*
X176374925Y-55118625D01*
X175743076Y-55750475D01*
X175719493Y-55670156D01*
X175641761Y-55549202D01*
X175533100Y-55455048D01*
X175402315Y-55395320D01*
X175392534Y-55393913D01*
X176059629Y-54726818D01*
X176120952Y-54693333D01*
X176147309Y-54690499D01*
X176157872Y-54690499D01*
X176217483Y-54684091D01*
X176352331Y-54633796D01*
X176467546Y-54547546D01*
X176553796Y-54432331D01*
X176604091Y-54297483D01*
X176610500Y-54237873D01*
X176610499Y-52914499D01*
X176630184Y-52847461D01*
X176682987Y-52801706D01*
X176734499Y-52790500D01*
X183757770Y-52790500D01*
X183824809Y-52810185D01*
G37*
%TD.AperFunction*%
%TA.AperFunction,Conductor*%
G36*
X135728833Y-55935046D02*
G01*
X135784767Y-55976918D01*
X135809184Y-56042382D01*
X135809500Y-56051228D01*
X135809500Y-56774560D01*
X135809500Y-56774578D01*
X135809501Y-56777872D01*
X135809853Y-56781152D01*
X135809854Y-56781159D01*
X135815909Y-56837484D01*
X135827071Y-56867410D01*
X135866204Y-56972331D01*
X135952454Y-57087546D01*
X136067669Y-57173796D01*
X136154029Y-57206006D01*
X136199082Y-57222810D01*
X136255016Y-57264681D01*
X136279433Y-57330146D01*
X136264581Y-57398419D01*
X136243431Y-57426673D01*
X136121503Y-57548601D01*
X135985965Y-57742170D01*
X135886097Y-57956336D01*
X135824936Y-58184592D01*
X135804340Y-58420000D01*
X135824936Y-58655407D01*
X135862160Y-58794328D01*
X135886097Y-58883663D01*
X135985965Y-59097830D01*
X136121505Y-59291401D01*
X136288599Y-59458495D01*
X136474596Y-59588732D01*
X136518219Y-59643307D01*
X136525412Y-59712806D01*
X136493890Y-59775160D01*
X136474594Y-59791881D01*
X136398626Y-59845073D01*
X137027466Y-60473913D01*
X137017685Y-60475320D01*
X136886900Y-60535048D01*
X136778239Y-60629202D01*
X136700507Y-60750156D01*
X136676923Y-60830476D01*
X136045072Y-60198625D01*
X135986399Y-60282422D01*
X135886569Y-60496507D01*
X135825430Y-60724681D01*
X135804842Y-60960000D01*
X135825430Y-61195318D01*
X135886569Y-61423492D01*
X135986400Y-61637580D01*
X136045073Y-61721373D01*
X136676923Y-61089523D01*
X136700507Y-61169844D01*
X136778239Y-61290798D01*
X136886900Y-61384952D01*
X137017685Y-61444680D01*
X137027466Y-61446086D01*
X136398625Y-62074925D01*
X136474594Y-62128119D01*
X136518219Y-62182696D01*
X136525413Y-62252194D01*
X136493890Y-62314549D01*
X136474595Y-62331269D01*
X136365485Y-62407669D01*
X136304822Y-62450146D01*
X136288595Y-62461508D01*
X136121505Y-62628598D01*
X135985965Y-62822170D01*
X135886097Y-63036336D01*
X135824936Y-63264592D01*
X135817623Y-63348174D01*
X135792170Y-63413242D01*
X135735578Y-63454220D01*
X135665816Y-63458097D01*
X135606414Y-63425046D01*
X134786819Y-62605451D01*
X134753334Y-62544128D01*
X134750500Y-62517770D01*
X134750500Y-56862229D01*
X134770185Y-56795190D01*
X134786819Y-56774548D01*
X135181367Y-56380000D01*
X135597821Y-55963545D01*
X135659142Y-55930062D01*
X135728833Y-55935046D01*
G37*
%TD.AperFunction*%
%TA.AperFunction,Conductor*%
G36*
X139032540Y-59190185D02*
G01*
X139078295Y-59242989D01*
X139089501Y-59294499D01*
X139089501Y-59317872D01*
X139089853Y-59321152D01*
X139089854Y-59321159D01*
X139095909Y-59377484D01*
X139146203Y-59512329D01*
X139146204Y-59512331D01*
X139223890Y-59616106D01*
X139248307Y-59681569D01*
X139233456Y-59749842D01*
X139223890Y-59764726D01*
X139146648Y-59867908D01*
X139096400Y-60002628D01*
X139090354Y-60058867D01*
X139090000Y-60065481D01*
X139090000Y-60710000D01*
X141794428Y-60710000D01*
X141771318Y-60745960D01*
X141730000Y-60886673D01*
X141730000Y-61033327D01*
X141771318Y-61174040D01*
X141794428Y-61210000D01*
X139090000Y-61210000D01*
X139090000Y-61854518D01*
X139090354Y-61861132D01*
X139096400Y-61917371D01*
X139146647Y-62052089D01*
X139223890Y-62155272D01*
X139248307Y-62220737D01*
X139233455Y-62289010D01*
X139223890Y-62303894D01*
X139146204Y-62407668D01*
X139095910Y-62542515D01*
X139095909Y-62542517D01*
X139089500Y-62602127D01*
X139089500Y-62605449D01*
X139089500Y-62750500D01*
X139069815Y-62817539D01*
X139017011Y-62863294D01*
X138965500Y-62874500D01*
X138435226Y-62874500D01*
X138368187Y-62854815D01*
X138333651Y-62821623D01*
X138198495Y-62628599D01*
X138031401Y-62461505D01*
X137845402Y-62331267D01*
X137801780Y-62276692D01*
X137794587Y-62207193D01*
X137826109Y-62144839D01*
X137845405Y-62128119D01*
X137921373Y-62074925D01*
X137292533Y-61446086D01*
X137302315Y-61444680D01*
X137433100Y-61384952D01*
X137541761Y-61290798D01*
X137619493Y-61169844D01*
X137643076Y-61089524D01*
X138274925Y-61721373D01*
X138333600Y-61637576D01*
X138433430Y-61423492D01*
X138494569Y-61195318D01*
X138515157Y-60960000D01*
X138494569Y-60724681D01*
X138433430Y-60496507D01*
X138333599Y-60282421D01*
X138274926Y-60198626D01*
X138274925Y-60198625D01*
X137643076Y-60830475D01*
X137619493Y-60750156D01*
X137541761Y-60629202D01*
X137433100Y-60535048D01*
X137302315Y-60475320D01*
X137292533Y-60473913D01*
X137921373Y-59845073D01*
X137921373Y-59845072D01*
X137845405Y-59791880D01*
X137801780Y-59737304D01*
X137794586Y-59667805D01*
X137826108Y-59605451D01*
X137845399Y-59588734D01*
X138031401Y-59458495D01*
X138198495Y-59291401D01*
X138246127Y-59223374D01*
X138300703Y-59179751D01*
X138347701Y-59170500D01*
X138965501Y-59170500D01*
X139032540Y-59190185D01*
G37*
%TD.AperFunction*%
%TA.AperFunction,Conductor*%
G36*
X163791812Y-59065185D02*
G01*
X163826345Y-59098373D01*
X163961505Y-59291401D01*
X164128599Y-59458495D01*
X164314596Y-59588732D01*
X164358219Y-59643307D01*
X164365412Y-59712806D01*
X164333890Y-59775160D01*
X164314595Y-59791880D01*
X164128919Y-59921892D01*
X163961890Y-60088921D01*
X163826400Y-60282421D01*
X163726569Y-60496507D01*
X163669364Y-60709999D01*
X163669364Y-60710000D01*
X164566314Y-60710000D01*
X164540507Y-60750156D01*
X164500000Y-60888111D01*
X164500000Y-61031889D01*
X164540507Y-61169844D01*
X164566314Y-61210000D01*
X163669364Y-61210000D01*
X163726569Y-61423492D01*
X163826399Y-61637576D01*
X163961893Y-61831081D01*
X164128918Y-61998106D01*
X164314595Y-62128119D01*
X164358219Y-62182696D01*
X164365412Y-62252195D01*
X164333890Y-62314549D01*
X164314595Y-62331269D01*
X164205485Y-62407669D01*
X164144822Y-62450146D01*
X164128595Y-62461508D01*
X163961505Y-62628598D01*
X163933495Y-62668601D01*
X163829209Y-62817539D01*
X163826349Y-62821623D01*
X163771772Y-62865248D01*
X163724774Y-62874500D01*
X163294499Y-62874500D01*
X163227460Y-62854815D01*
X163181705Y-62802011D01*
X163170499Y-62750500D01*
X163170499Y-62605439D01*
X163170499Y-62602128D01*
X163164091Y-62542517D01*
X163113796Y-62407669D01*
X163036108Y-62303892D01*
X163011692Y-62238428D01*
X163026544Y-62170155D01*
X163036110Y-62155270D01*
X163113352Y-62052089D01*
X163163599Y-61917371D01*
X163169645Y-61861132D01*
X163170000Y-61854518D01*
X163170000Y-61210000D01*
X160465572Y-61210000D01*
X160488682Y-61174040D01*
X160530000Y-61033327D01*
X160530000Y-60886673D01*
X160488682Y-60745960D01*
X160465572Y-60710000D01*
X163170000Y-60710000D01*
X163170000Y-60065481D01*
X163169645Y-60058867D01*
X163163599Y-60002628D01*
X163113352Y-59867911D01*
X163036109Y-59764727D01*
X163011692Y-59699263D01*
X163026544Y-59630990D01*
X163036100Y-59616118D01*
X163113796Y-59512331D01*
X163164091Y-59377483D01*
X163170500Y-59317873D01*
X163170500Y-59169500D01*
X163190185Y-59102461D01*
X163242989Y-59056706D01*
X163294500Y-59045500D01*
X163724773Y-59045500D01*
X163791812Y-59065185D01*
G37*
%TD.AperFunction*%
%TA.AperFunction,Conductor*%
G36*
X173852540Y-53985185D02*
G01*
X173898295Y-54037989D01*
X173909501Y-54089499D01*
X173909501Y-54237872D01*
X173909853Y-54241152D01*
X173909854Y-54241159D01*
X173913469Y-54274786D01*
X173915909Y-54297483D01*
X173966204Y-54432331D01*
X174052454Y-54547546D01*
X174167669Y-54633796D01*
X174302517Y-54684091D01*
X174362127Y-54690500D01*
X174372681Y-54690499D01*
X174439720Y-54710177D01*
X174460371Y-54726818D01*
X175127466Y-55393913D01*
X175117685Y-55395320D01*
X174986900Y-55455048D01*
X174878239Y-55549202D01*
X174800507Y-55670156D01*
X174776923Y-55750476D01*
X174145072Y-55118625D01*
X174086399Y-55202422D01*
X173986569Y-55416507D01*
X173925430Y-55644681D01*
X173904842Y-55880000D01*
X173925430Y-56115318D01*
X173986569Y-56343492D01*
X174086400Y-56557580D01*
X174145073Y-56641373D01*
X174776923Y-56009523D01*
X174800507Y-56089844D01*
X174878239Y-56210798D01*
X174986900Y-56304952D01*
X175117685Y-56364680D01*
X175127466Y-56366086D01*
X174498625Y-56994925D01*
X174574594Y-57048119D01*
X174618219Y-57102696D01*
X174625413Y-57172194D01*
X174593890Y-57234549D01*
X174574595Y-57251269D01*
X174428697Y-57353428D01*
X174403231Y-57371260D01*
X174388595Y-57381508D01*
X174221505Y-57548598D01*
X174086349Y-57741623D01*
X174031772Y-57785248D01*
X173984774Y-57794500D01*
X166275226Y-57794500D01*
X166208187Y-57774815D01*
X166173651Y-57741623D01*
X166159919Y-57722011D01*
X166038495Y-57548599D01*
X165916569Y-57426673D01*
X165883084Y-57365350D01*
X165888068Y-57295658D01*
X165929940Y-57239725D01*
X165960915Y-57222810D01*
X166092331Y-57173796D01*
X166207546Y-57087546D01*
X166293796Y-56972331D01*
X166344091Y-56837483D01*
X166350500Y-56777873D01*
X166350499Y-55465451D01*
X166370184Y-55398413D01*
X166386813Y-55377776D01*
X167762771Y-54001819D01*
X167824095Y-53968334D01*
X167850453Y-53965500D01*
X173785501Y-53965500D01*
X173852540Y-53985185D01*
G37*
%TD.AperFunction*%
%TA.AperFunction,Conductor*%
G36*
X97080507Y-64749844D02*
G01*
X97158239Y-64870798D01*
X97266900Y-64964952D01*
X97397685Y-65024680D01*
X97407466Y-65026086D01*
X96778625Y-65654925D01*
X96854594Y-65708119D01*
X96898219Y-65762696D01*
X96905413Y-65832194D01*
X96873890Y-65894549D01*
X96854595Y-65911269D01*
X96762703Y-65975613D01*
X96670749Y-66040000D01*
X96668595Y-66041508D01*
X96493834Y-66216270D01*
X96491128Y-66213564D01*
X96452151Y-66244671D01*
X96382647Y-66251809D01*
X96320317Y-66220237D01*
X96287539Y-66168890D01*
X96284814Y-66160666D01*
X96235059Y-66080000D01*
X96192711Y-66011342D01*
X96068657Y-65887288D01*
X95919334Y-65795186D01*
X95919333Y-65795185D01*
X95846966Y-65771205D01*
X95789522Y-65731433D01*
X95762699Y-65666917D01*
X95762585Y-65656137D01*
X95132533Y-65026086D01*
X95142315Y-65024680D01*
X95273100Y-64964952D01*
X95381761Y-64870798D01*
X95459493Y-64749844D01*
X95483077Y-64669523D01*
X96114925Y-65301372D01*
X96168424Y-65224969D01*
X96223001Y-65181344D01*
X96292499Y-65174150D01*
X96354854Y-65205673D01*
X96371574Y-65224969D01*
X96425072Y-65301373D01*
X96425073Y-65301373D01*
X97056923Y-64669523D01*
X97080507Y-64749844D01*
G37*
%TD.AperFunction*%
%TA.AperFunction,Conductor*%
G36*
X97080507Y-62209844D02*
G01*
X97158239Y-62330798D01*
X97266900Y-62424952D01*
X97397685Y-62484680D01*
X97407466Y-62486086D01*
X96778625Y-63114925D01*
X96855031Y-63168425D01*
X96898655Y-63223002D01*
X96905848Y-63292501D01*
X96874326Y-63354855D01*
X96855029Y-63371576D01*
X96778626Y-63425072D01*
X96778625Y-63425073D01*
X97407466Y-64053913D01*
X97397685Y-64055320D01*
X97266900Y-64115048D01*
X97158239Y-64209202D01*
X97080507Y-64330156D01*
X97056923Y-64410475D01*
X96425073Y-63778625D01*
X96425072Y-63778626D01*
X96371576Y-63855030D01*
X96317000Y-63898656D01*
X96247501Y-63905850D01*
X96185146Y-63874328D01*
X96168425Y-63855031D01*
X96114926Y-63778626D01*
X96114925Y-63778625D01*
X95483076Y-64410474D01*
X95459493Y-64330156D01*
X95381761Y-64209202D01*
X95273100Y-64115048D01*
X95142315Y-64055320D01*
X95132533Y-64053913D01*
X95761373Y-63425073D01*
X95761373Y-63425072D01*
X95684969Y-63371574D01*
X95641344Y-63316997D01*
X95634150Y-63247499D01*
X95665673Y-63185144D01*
X95684969Y-63168424D01*
X95761373Y-63114925D01*
X95132533Y-62486086D01*
X95142315Y-62484680D01*
X95273100Y-62424952D01*
X95381761Y-62330798D01*
X95459493Y-62209844D01*
X95483076Y-62129524D01*
X96114925Y-62761373D01*
X96168424Y-62684969D01*
X96223001Y-62641344D01*
X96292499Y-62634150D01*
X96354854Y-62665673D01*
X96371574Y-62684969D01*
X96425072Y-62761373D01*
X96425073Y-62761373D01*
X97056923Y-62129523D01*
X97080507Y-62209844D01*
G37*
%TD.AperFunction*%
%TA.AperFunction,Conductor*%
G36*
X97080507Y-59669844D02*
G01*
X97158239Y-59790798D01*
X97266900Y-59884952D01*
X97397685Y-59944680D01*
X97407466Y-59946086D01*
X96778625Y-60574925D01*
X96855031Y-60628425D01*
X96898655Y-60683002D01*
X96905848Y-60752501D01*
X96874326Y-60814855D01*
X96855029Y-60831576D01*
X96778625Y-60885072D01*
X97407466Y-61513913D01*
X97397685Y-61515320D01*
X97266900Y-61575048D01*
X97158239Y-61669202D01*
X97080507Y-61790156D01*
X97056923Y-61870475D01*
X96425073Y-61238625D01*
X96371576Y-61315030D01*
X96317000Y-61358656D01*
X96247501Y-61365850D01*
X96185146Y-61334328D01*
X96168425Y-61315031D01*
X96114926Y-61238626D01*
X96114925Y-61238625D01*
X95483076Y-61870475D01*
X95459493Y-61790156D01*
X95381761Y-61669202D01*
X95273100Y-61575048D01*
X95142315Y-61515320D01*
X95132533Y-61513913D01*
X95761373Y-60885073D01*
X95761373Y-60885072D01*
X95684969Y-60831574D01*
X95641344Y-60776997D01*
X95634150Y-60707499D01*
X95665673Y-60645144D01*
X95684969Y-60628424D01*
X95761373Y-60574925D01*
X95132533Y-59946086D01*
X95142315Y-59944680D01*
X95273100Y-59884952D01*
X95381761Y-59790798D01*
X95459493Y-59669844D01*
X95483076Y-59589524D01*
X96114925Y-60221373D01*
X96168424Y-60144969D01*
X96223001Y-60101344D01*
X96292499Y-60094150D01*
X96354854Y-60125673D01*
X96371574Y-60144969D01*
X96425072Y-60221373D01*
X96425073Y-60221373D01*
X97056923Y-59589523D01*
X97080507Y-59669844D01*
G37*
%TD.AperFunction*%
%TA.AperFunction,Conductor*%
G36*
X96354854Y-57586545D02*
G01*
X96371572Y-57605838D01*
X96501505Y-57791401D01*
X96668599Y-57958495D01*
X96854596Y-58088732D01*
X96898219Y-58143307D01*
X96905412Y-58212806D01*
X96873890Y-58275160D01*
X96854594Y-58291881D01*
X96778626Y-58345073D01*
X97407466Y-58973913D01*
X97397685Y-58975320D01*
X97266900Y-59035048D01*
X97158239Y-59129202D01*
X97080507Y-59250156D01*
X97056923Y-59330475D01*
X96425073Y-58698625D01*
X96371576Y-58775030D01*
X96317000Y-58818656D01*
X96247501Y-58825850D01*
X96185146Y-58794328D01*
X96168425Y-58775031D01*
X96114926Y-58698626D01*
X96114925Y-58698625D01*
X95483076Y-59330475D01*
X95459493Y-59250156D01*
X95381761Y-59129202D01*
X95273100Y-59035048D01*
X95142315Y-58975320D01*
X95132533Y-58973913D01*
X95761373Y-58345073D01*
X95761373Y-58345072D01*
X95685405Y-58291880D01*
X95641780Y-58237304D01*
X95634586Y-58167805D01*
X95666108Y-58105451D01*
X95685399Y-58088734D01*
X95871401Y-57958495D01*
X96038495Y-57791401D01*
X96168427Y-57605838D01*
X96223001Y-57562216D01*
X96292499Y-57555022D01*
X96354854Y-57586545D01*
G37*
%TD.AperFunction*%
%TA.AperFunction,Conductor*%
G36*
X199942539Y-50020185D02*
G01*
X199988294Y-50072989D01*
X199999500Y-50124500D01*
X199999500Y-109875500D01*
X199979815Y-109942539D01*
X199927011Y-109988294D01*
X199875500Y-109999500D01*
X80124500Y-109999500D01*
X80057461Y-109979815D01*
X80011706Y-109927011D01*
X80000500Y-109875500D01*
X80000500Y-104776744D01*
X80012794Y-104734873D01*
X80011657Y-104732365D01*
X80237407Y-104732365D01*
X80243477Y-104741809D01*
X80248028Y-104765938D01*
X80249028Y-104777369D01*
X80249500Y-104788175D01*
X80249500Y-104793709D01*
X80249916Y-104797272D01*
X80249917Y-104797282D01*
X80253098Y-104824496D01*
X80253464Y-104828082D01*
X80260109Y-104904041D01*
X80264329Y-104923071D01*
X80264758Y-104924251D01*
X80264759Y-104924255D01*
X80290413Y-104994742D01*
X80291582Y-104998107D01*
X80315580Y-105070524D01*
X80324075Y-105088072D01*
X80365979Y-105151784D01*
X80367889Y-105154782D01*
X80407189Y-105218495D01*
X80407952Y-105219732D01*
X80420253Y-105234830D01*
X80421168Y-105235693D01*
X80421170Y-105235696D01*
X80454895Y-105267514D01*
X80475709Y-105287151D01*
X80478296Y-105289664D01*
X82684267Y-107495634D01*
X82696048Y-107509266D01*
X82710389Y-107528529D01*
X82748339Y-107560373D01*
X82756314Y-107567681D01*
X82760224Y-107571591D01*
X82763056Y-107573830D01*
X82784541Y-107590818D01*
X82787304Y-107593069D01*
X82844786Y-107641302D01*
X82844788Y-107641303D01*
X82845750Y-107642110D01*
X82862180Y-107652578D01*
X82863322Y-107653110D01*
X82863323Y-107653111D01*
X82931350Y-107684832D01*
X82934527Y-107686371D01*
X83001567Y-107720040D01*
X83002702Y-107720610D01*
X83021085Y-107726999D01*
X83022322Y-107727254D01*
X83022328Y-107727257D01*
X83095852Y-107742437D01*
X83099286Y-107743199D01*
X83145566Y-107754168D01*
X83173506Y-107760791D01*
X83192879Y-107762770D01*
X83194141Y-107762733D01*
X83194145Y-107762734D01*
X83266534Y-107760627D01*
X83269132Y-107760552D01*
X83272738Y-107760500D01*
X87222485Y-107760500D01*
X87289524Y-107780185D01*
X87335279Y-107832989D01*
X87345804Y-107871534D01*
X87361853Y-108024234D01*
X87364326Y-108047757D01*
X87422820Y-108227784D01*
X87517466Y-108391716D01*
X87644129Y-108532389D01*
X87797269Y-108643651D01*
X87970197Y-108720644D01*
X88155352Y-108760000D01*
X88155354Y-108760000D01*
X88344648Y-108760000D01*
X88468084Y-108733762D01*
X88529803Y-108720644D01*
X88702730Y-108643651D01*
X88716449Y-108633683D01*
X88782256Y-108610202D01*
X88789337Y-108610000D01*
X187176794Y-108610000D01*
X187194764Y-108611309D01*
X187198820Y-108611902D01*
X187218523Y-108614789D01*
X187267868Y-108610472D01*
X187278676Y-108610000D01*
X187280600Y-108610000D01*
X187284209Y-108610000D01*
X187315050Y-108606394D01*
X187318531Y-108606039D01*
X187393297Y-108599499D01*
X187393297Y-108599498D01*
X187394552Y-108599389D01*
X187413562Y-108595174D01*
X187414750Y-108594741D01*
X187414755Y-108594741D01*
X187485320Y-108569057D01*
X187488595Y-108567919D01*
X187559834Y-108544314D01*
X187559836Y-108544312D01*
X187561036Y-108543915D01*
X187578563Y-108535429D01*
X187579612Y-108534738D01*
X187579617Y-108534737D01*
X187642306Y-108493505D01*
X187645298Y-108491599D01*
X187709156Y-108452212D01*
X187709156Y-108452211D01*
X187710229Y-108451550D01*
X187725324Y-108439253D01*
X187726192Y-108438332D01*
X187726196Y-108438330D01*
X187777685Y-108383753D01*
X187780131Y-108381235D01*
X195688499Y-100472866D01*
X195749820Y-100439383D01*
X195786977Y-100437021D01*
X196000000Y-100455659D01*
X196235408Y-100435063D01*
X196463663Y-100373903D01*
X196677830Y-100274035D01*
X196871401Y-100138495D01*
X197038495Y-99971401D01*
X197174035Y-99777830D01*
X197273903Y-99563663D01*
X197335063Y-99335408D01*
X197355659Y-99100000D01*
X197335063Y-98864592D01*
X197273903Y-98636337D01*
X197174035Y-98422171D01*
X197038495Y-98228599D01*
X196871401Y-98061505D01*
X196685402Y-97931267D01*
X196641780Y-97876692D01*
X196634587Y-97807193D01*
X196666109Y-97744839D01*
X196685405Y-97728119D01*
X196871078Y-97598109D01*
X197038106Y-97431081D01*
X197173600Y-97237576D01*
X197273430Y-97023492D01*
X197330636Y-96810000D01*
X196433686Y-96810000D01*
X196459493Y-96769844D01*
X196500000Y-96631889D01*
X196500000Y-96488111D01*
X196459493Y-96350156D01*
X196433686Y-96310000D01*
X197330636Y-96310000D01*
X197330635Y-96309999D01*
X197273430Y-96096507D01*
X197173599Y-95882421D01*
X197038109Y-95688921D01*
X196871081Y-95521893D01*
X196685404Y-95391880D01*
X196641780Y-95337303D01*
X196634587Y-95267804D01*
X196666109Y-95205450D01*
X196685399Y-95188734D01*
X196871401Y-95058495D01*
X197038495Y-94891401D01*
X197174035Y-94697830D01*
X197273903Y-94483663D01*
X197335063Y-94255408D01*
X197355659Y-94020000D01*
X197337022Y-93806985D01*
X197350788Y-93738486D01*
X197372866Y-93708500D01*
X198985642Y-92095724D01*
X198999260Y-92083954D01*
X199018530Y-92069610D01*
X199050366Y-92031667D01*
X199057680Y-92023688D01*
X199058264Y-92023103D01*
X199061591Y-92019777D01*
X199080833Y-91995439D01*
X199083090Y-91992670D01*
X199124212Y-91943663D01*
X199131302Y-91935214D01*
X199131303Y-91935211D01*
X199132115Y-91934244D01*
X199142573Y-91917827D01*
X199143106Y-91916682D01*
X199143111Y-91916677D01*
X199174833Y-91848646D01*
X199176362Y-91845488D01*
X199210040Y-91778433D01*
X199210040Y-91778432D01*
X199210612Y-91777294D01*
X199217000Y-91758914D01*
X199217255Y-91757675D01*
X199217257Y-91757673D01*
X199232447Y-91684103D01*
X199233186Y-91680770D01*
X199250500Y-91607721D01*
X199250500Y-91607716D01*
X199250791Y-91606489D01*
X199252770Y-91587121D01*
X199252733Y-91585859D01*
X199252734Y-91585856D01*
X199250552Y-91510868D01*
X199250500Y-91507262D01*
X199250500Y-60963705D01*
X199251809Y-60945735D01*
X199251961Y-60944691D01*
X199255289Y-60921977D01*
X199250972Y-60872629D01*
X199250500Y-60861823D01*
X199250500Y-60859901D01*
X199250500Y-60856291D01*
X199246903Y-60825520D01*
X199246536Y-60821929D01*
X199239889Y-60745949D01*
X199235672Y-60726930D01*
X199234853Y-60724681D01*
X199209591Y-60655273D01*
X199208408Y-60651868D01*
X199193357Y-60606447D01*
X199184814Y-60580666D01*
X199184812Y-60580663D01*
X199184415Y-60579464D01*
X199175929Y-60561936D01*
X199175237Y-60560884D01*
X199175237Y-60560883D01*
X199134001Y-60498188D01*
X199132086Y-60495181D01*
X199092048Y-60430269D01*
X199079748Y-60415170D01*
X199024272Y-60362831D01*
X199021685Y-60360318D01*
X196595728Y-57934360D01*
X196583946Y-57920727D01*
X196569609Y-57901469D01*
X196531666Y-57869631D01*
X196523691Y-57862323D01*
X196522329Y-57860961D01*
X196519777Y-57858409D01*
X196495444Y-57839169D01*
X196492647Y-57836890D01*
X196436170Y-57789500D01*
X196435214Y-57788698D01*
X196435213Y-57788697D01*
X196434251Y-57787890D01*
X196417821Y-57777422D01*
X196348691Y-57745186D01*
X196345447Y-57743615D01*
X196277306Y-57709394D01*
X196258903Y-57702997D01*
X196184211Y-57687574D01*
X196180692Y-57686794D01*
X196106490Y-57669208D01*
X196087121Y-57667229D01*
X196010869Y-57669448D01*
X196007263Y-57669500D01*
X191687701Y-57669500D01*
X191620662Y-57649815D01*
X191586126Y-57616623D01*
X191538494Y-57548598D01*
X191371404Y-57381508D01*
X191371401Y-57381505D01*
X191185839Y-57251573D01*
X191142215Y-57196997D01*
X191135023Y-57127498D01*
X191166545Y-57065144D01*
X191185831Y-57048432D01*
X191371401Y-56918495D01*
X191538495Y-56751401D01*
X191674035Y-56557830D01*
X191773903Y-56343663D01*
X191835063Y-56115408D01*
X191855659Y-55880000D01*
X191835063Y-55644592D01*
X191773903Y-55416337D01*
X191674035Y-55202171D01*
X191538495Y-55008599D01*
X191416569Y-54886673D01*
X191383084Y-54825350D01*
X191388068Y-54755658D01*
X191429940Y-54699725D01*
X191460915Y-54682810D01*
X191592331Y-54633796D01*
X191707546Y-54547546D01*
X191793796Y-54432331D01*
X191844091Y-54297483D01*
X191850500Y-54237873D01*
X191850499Y-52442128D01*
X191844091Y-52382517D01*
X191793796Y-52247669D01*
X191707546Y-52132454D01*
X191592331Y-52046204D01*
X191457483Y-51995909D01*
X191397873Y-51989500D01*
X191394550Y-51989500D01*
X189605439Y-51989500D01*
X189605420Y-51989500D01*
X189602128Y-51989501D01*
X189598848Y-51989853D01*
X189598840Y-51989854D01*
X189542515Y-51995909D01*
X189407669Y-52046204D01*
X189292454Y-52132454D01*
X189206204Y-52247668D01*
X189155910Y-52382515D01*
X189155909Y-52382517D01*
X189149500Y-52442127D01*
X189149500Y-52445448D01*
X189149500Y-52445449D01*
X189149500Y-54234560D01*
X189149500Y-54234578D01*
X189149501Y-54237872D01*
X189149853Y-54241152D01*
X189149854Y-54241159D01*
X189153469Y-54274786D01*
X189155909Y-54297483D01*
X189206204Y-54432331D01*
X189292454Y-54547546D01*
X189407669Y-54633796D01*
X189511317Y-54672454D01*
X189539082Y-54682810D01*
X189595016Y-54724681D01*
X189619433Y-54790146D01*
X189604581Y-54858419D01*
X189583431Y-54886673D01*
X189461503Y-55008601D01*
X189325965Y-55202170D01*
X189226097Y-55416336D01*
X189164936Y-55644592D01*
X189157623Y-55728175D01*
X189132170Y-55793243D01*
X189075578Y-55834221D01*
X189005816Y-55838098D01*
X188946414Y-55805047D01*
X184695728Y-51554360D01*
X184683946Y-51540727D01*
X184669609Y-51521469D01*
X184631666Y-51489631D01*
X184623691Y-51482323D01*
X184622329Y-51480961D01*
X184619777Y-51478409D01*
X184595444Y-51459169D01*
X184592647Y-51456890D01*
X184534251Y-51407890D01*
X184517821Y-51397422D01*
X184448691Y-51365186D01*
X184445447Y-51363615D01*
X184377306Y-51329394D01*
X184358903Y-51322997D01*
X184284211Y-51307574D01*
X184280692Y-51306794D01*
X184206490Y-51289208D01*
X184187121Y-51287229D01*
X184110869Y-51289448D01*
X184107263Y-51289500D01*
X138463706Y-51289500D01*
X138445736Y-51288191D01*
X138431853Y-51286157D01*
X138421977Y-51284711D01*
X138421976Y-51284711D01*
X138372631Y-51289028D01*
X138361824Y-51289500D01*
X138356291Y-51289500D01*
X138352730Y-51289916D01*
X138352715Y-51289917D01*
X138325501Y-51293098D01*
X138321916Y-51293464D01*
X138245961Y-51300109D01*
X138226921Y-51304330D01*
X138155232Y-51330421D01*
X138151831Y-51331603D01*
X138079474Y-51355580D01*
X138061927Y-51364075D01*
X137998221Y-51405975D01*
X137995181Y-51407912D01*
X137930280Y-51447944D01*
X137915164Y-51460257D01*
X137862831Y-51515726D01*
X137860319Y-51518312D01*
X135264358Y-54114272D01*
X135250727Y-54126053D01*
X135231468Y-54140391D01*
X135199635Y-54178328D01*
X135192338Y-54186292D01*
X135190972Y-54187657D01*
X135190950Y-54187681D01*
X135188409Y-54190223D01*
X135186173Y-54193050D01*
X135186171Y-54193053D01*
X135169176Y-54214546D01*
X135166902Y-54217337D01*
X135117894Y-54275744D01*
X135107416Y-54292190D01*
X135082558Y-54345498D01*
X135057858Y-54380773D01*
X133514358Y-55924272D01*
X133500727Y-55936053D01*
X133481468Y-55950391D01*
X133449635Y-55988328D01*
X133442338Y-55996292D01*
X133440972Y-55997657D01*
X133440950Y-55997681D01*
X133438409Y-56000223D01*
X133436173Y-56003050D01*
X133436171Y-56003053D01*
X133419176Y-56024546D01*
X133416902Y-56027337D01*
X133367894Y-56085744D01*
X133357418Y-56102187D01*
X133325192Y-56171294D01*
X133323622Y-56174536D01*
X133289393Y-56242692D01*
X133282996Y-56261098D01*
X133267573Y-56335788D01*
X133266793Y-56339305D01*
X133249208Y-56413506D01*
X133247229Y-56432881D01*
X133249447Y-56509130D01*
X133249499Y-56512735D01*
X133249499Y-62816299D01*
X133248190Y-62834267D01*
X133244710Y-62858022D01*
X133249028Y-62907368D01*
X133249500Y-62918175D01*
X133249500Y-62923709D01*
X133249916Y-62927272D01*
X133249917Y-62927282D01*
X133253098Y-62954496D01*
X133253464Y-62958082D01*
X133260109Y-63034041D01*
X133264329Y-63053071D01*
X133264758Y-63054251D01*
X133264759Y-63054255D01*
X133290413Y-63124742D01*
X133291582Y-63128107D01*
X133315580Y-63200524D01*
X133324075Y-63218072D01*
X133365979Y-63281784D01*
X133367889Y-63284782D01*
X133406991Y-63348174D01*
X133407952Y-63349732D01*
X133420253Y-63364830D01*
X133421168Y-63365693D01*
X133421170Y-63365696D01*
X133429689Y-63373733D01*
X133475708Y-63417150D01*
X133478295Y-63419663D01*
X135787130Y-65728498D01*
X135820615Y-65789821D01*
X135822977Y-65826986D01*
X135804340Y-66039999D01*
X135824936Y-66275407D01*
X135867200Y-66433139D01*
X135886097Y-66503663D01*
X135985965Y-66717830D01*
X136121505Y-66911401D01*
X136288599Y-67078495D01*
X136474160Y-67208426D01*
X136517783Y-67263002D01*
X136524976Y-67332501D01*
X136493454Y-67394855D01*
X136474158Y-67411575D01*
X136365490Y-67487666D01*
X136288595Y-67541508D01*
X136121505Y-67708598D01*
X135985965Y-67902170D01*
X135886097Y-68116336D01*
X135824936Y-68344592D01*
X135804340Y-68580000D01*
X135824936Y-68815407D01*
X135856026Y-68931435D01*
X135886097Y-69043663D01*
X135985965Y-69257830D01*
X136121505Y-69451401D01*
X136288599Y-69618495D01*
X136474160Y-69748426D01*
X136517783Y-69803002D01*
X136524976Y-69872501D01*
X136493454Y-69934855D01*
X136474158Y-69951575D01*
X136365490Y-70027666D01*
X136288595Y-70081508D01*
X136121505Y-70248598D01*
X135985965Y-70442170D01*
X135886097Y-70656336D01*
X135824936Y-70884592D01*
X135804340Y-71120000D01*
X135824936Y-71355407D01*
X135866744Y-71511436D01*
X135886097Y-71583663D01*
X135985965Y-71797830D01*
X136121505Y-71991401D01*
X136288599Y-72158495D01*
X136474596Y-72288732D01*
X136518219Y-72343307D01*
X136525412Y-72412806D01*
X136493890Y-72475160D01*
X136474595Y-72491880D01*
X136288919Y-72621892D01*
X136121890Y-72788921D01*
X135986400Y-72982421D01*
X135886569Y-73196507D01*
X135829364Y-73409999D01*
X135829364Y-73410000D01*
X136726314Y-73410000D01*
X136700507Y-73450156D01*
X136660000Y-73588111D01*
X136660000Y-73731889D01*
X136700507Y-73869844D01*
X136726314Y-73910000D01*
X135829364Y-73910000D01*
X135886569Y-74123492D01*
X135986400Y-74337580D01*
X136044751Y-74420914D01*
X136067078Y-74487120D01*
X136050068Y-74554888D01*
X136038720Y-74571077D01*
X136015574Y-74599056D01*
X136007711Y-74607697D01*
X135601211Y-75014197D01*
X135585112Y-75027095D01*
X135537097Y-75078224D01*
X135534393Y-75081015D01*
X135517628Y-75097780D01*
X135517621Y-75097787D01*
X135514880Y-75100529D01*
X135512499Y-75103597D01*
X135512490Y-75103608D01*
X135512411Y-75103711D01*
X135504842Y-75112572D01*
X135474935Y-75144420D01*
X135465285Y-75161974D01*
X135454609Y-75178228D01*
X135442326Y-75194063D01*
X135424975Y-75234158D01*
X135419838Y-75244644D01*
X135398802Y-75282907D01*
X135393821Y-75302309D01*
X135387520Y-75320711D01*
X135379561Y-75339102D01*
X135372728Y-75382242D01*
X135370360Y-75393674D01*
X135359500Y-75435977D01*
X135359500Y-75456016D01*
X135357972Y-75475414D01*
X135354840Y-75495196D01*
X135358950Y-75538673D01*
X135359500Y-75550343D01*
X135359500Y-77482256D01*
X135357235Y-77502766D01*
X135359439Y-77572872D01*
X135359500Y-77576767D01*
X135359500Y-77604350D01*
X135359988Y-77608219D01*
X135359989Y-77608225D01*
X135360004Y-77608343D01*
X135360918Y-77619967D01*
X135362290Y-77663626D01*
X135367879Y-77682860D01*
X135371825Y-77701916D01*
X135374335Y-77721792D01*
X135390414Y-77762404D01*
X135394197Y-77773451D01*
X135406382Y-77815391D01*
X135416580Y-77832635D01*
X135425136Y-77850100D01*
X135432514Y-77868732D01*
X135432515Y-77868733D01*
X135458180Y-77904059D01*
X135464593Y-77913822D01*
X135486826Y-77951416D01*
X135486829Y-77951419D01*
X135486830Y-77951420D01*
X135500995Y-77965585D01*
X135513627Y-77980375D01*
X135525406Y-77996587D01*
X135559058Y-78024426D01*
X135567699Y-78032289D01*
X135819762Y-78284352D01*
X135853247Y-78345675D01*
X135851856Y-78404126D01*
X135824936Y-78504593D01*
X135804340Y-78740000D01*
X135824936Y-78975407D01*
X135847499Y-79059613D01*
X135886097Y-79203663D01*
X135985965Y-79417830D01*
X136121505Y-79611401D01*
X136288599Y-79778495D01*
X136474160Y-79908426D01*
X136517783Y-79963002D01*
X136524976Y-80032501D01*
X136493454Y-80094855D01*
X136474160Y-80111574D01*
X136365490Y-80187666D01*
X136288595Y-80241508D01*
X136121505Y-80408598D01*
X135985965Y-80602170D01*
X135886097Y-80816336D01*
X135824936Y-81044592D01*
X135804340Y-81280000D01*
X135824936Y-81515407D01*
X135862954Y-81657292D01*
X135886097Y-81743663D01*
X135985965Y-81957830D01*
X136121505Y-82151401D01*
X136288599Y-82318495D01*
X136474160Y-82448426D01*
X136517783Y-82503002D01*
X136524976Y-82572501D01*
X136493454Y-82634855D01*
X136474158Y-82651575D01*
X136365490Y-82727666D01*
X136288595Y-82781508D01*
X136121505Y-82948598D01*
X135985965Y-83142170D01*
X135886097Y-83356336D01*
X135824936Y-83584592D01*
X135804340Y-83820000D01*
X135824936Y-84055407D01*
X135868445Y-84217783D01*
X135886097Y-84283663D01*
X135985965Y-84497830D01*
X136121505Y-84691401D01*
X136288599Y-84858495D01*
X136474596Y-84988732D01*
X136518219Y-85043307D01*
X136525412Y-85112806D01*
X136493890Y-85175160D01*
X136474595Y-85191880D01*
X136288919Y-85321892D01*
X136121890Y-85488921D01*
X135986400Y-85682421D01*
X135886569Y-85896507D01*
X135829364Y-86109999D01*
X135829364Y-86110000D01*
X136726314Y-86110000D01*
X136700507Y-86150156D01*
X136660000Y-86288111D01*
X136660000Y-86431889D01*
X136700507Y-86569844D01*
X136726314Y-86610000D01*
X135829364Y-86610000D01*
X135886569Y-86823492D01*
X135933015Y-86923095D01*
X135943507Y-86992173D01*
X135914987Y-87055957D01*
X135856511Y-87094196D01*
X135820633Y-87099500D01*
X126535453Y-87099500D01*
X126468414Y-87079815D01*
X126447772Y-87063181D01*
X120500802Y-81116211D01*
X120487906Y-81100113D01*
X120436775Y-81052098D01*
X120433978Y-81049387D01*
X120417227Y-81032636D01*
X120414471Y-81029880D01*
X120411290Y-81027412D01*
X120402422Y-81019837D01*
X120370582Y-80989938D01*
X120353024Y-80980285D01*
X120336764Y-80969604D01*
X120320936Y-80957327D01*
X120280851Y-80939980D01*
X120270361Y-80934841D01*
X120232091Y-80913802D01*
X120212691Y-80908821D01*
X120194284Y-80902519D01*
X120175897Y-80894562D01*
X120132758Y-80887729D01*
X120121324Y-80885361D01*
X120079019Y-80874500D01*
X120058984Y-80874500D01*
X120039586Y-80872973D01*
X120032162Y-80871797D01*
X120019805Y-80869840D01*
X120019804Y-80869840D01*
X119986751Y-80872964D01*
X119976325Y-80873950D01*
X119964656Y-80874500D01*
X99953747Y-80874500D01*
X99886708Y-80854815D01*
X99861599Y-80833473D01*
X99855871Y-80827112D01*
X99702730Y-80715849D01*
X99702729Y-80715848D01*
X99702727Y-80715847D01*
X99529802Y-80638855D01*
X99344648Y-80599500D01*
X99344646Y-80599500D01*
X99155354Y-80599500D01*
X99155352Y-80599500D01*
X98970197Y-80638855D01*
X98797269Y-80715848D01*
X98644129Y-80827110D01*
X98517466Y-80967783D01*
X98422820Y-81131715D01*
X98364326Y-81311742D01*
X98364325Y-81311744D01*
X98364326Y-81311744D01*
X98344540Y-81500000D01*
X98348485Y-81537540D01*
X98335917Y-81606268D01*
X98288185Y-81657292D01*
X98225165Y-81674500D01*
X97996849Y-81674500D01*
X97929810Y-81654815D01*
X97909168Y-81638181D01*
X97732678Y-81461691D01*
X97732669Y-81461682D01*
X97732664Y-81461678D01*
X93805199Y-77534213D01*
X93771715Y-77472891D01*
X93776699Y-77403199D01*
X93818571Y-77347266D01*
X93842446Y-77333253D01*
X93934358Y-77292331D01*
X93952730Y-77284151D01*
X93952730Y-77284150D01*
X93952732Y-77284150D01*
X94105870Y-77172889D01*
X94232533Y-77032216D01*
X94327179Y-76868284D01*
X94341080Y-76825500D01*
X94385674Y-76688256D01*
X94403321Y-76520344D01*
X94429904Y-76455734D01*
X94438951Y-76445638D01*
X95722771Y-75161819D01*
X95784095Y-75128334D01*
X95810453Y-75125500D01*
X104796253Y-75125500D01*
X104863292Y-75145185D01*
X104888400Y-75166526D01*
X104894129Y-75172888D01*
X105047270Y-75284151D01*
X105047271Y-75284151D01*
X105047272Y-75284152D01*
X105220197Y-75361144D01*
X105405352Y-75400500D01*
X105405354Y-75400500D01*
X105594648Y-75400500D01*
X105718084Y-75374262D01*
X105779803Y-75361144D01*
X105952730Y-75284151D01*
X106007107Y-75244644D01*
X106105870Y-75172889D01*
X106111598Y-75166528D01*
X106232533Y-75032216D01*
X106327179Y-74868284D01*
X106385674Y-74688256D01*
X106405460Y-74500000D01*
X106385674Y-74311744D01*
X106333945Y-74152538D01*
X106327179Y-74131715D01*
X106232533Y-73967783D01*
X106105870Y-73827110D01*
X105952730Y-73715848D01*
X105779802Y-73638855D01*
X105594648Y-73599500D01*
X105594646Y-73599500D01*
X105405354Y-73599500D01*
X105405352Y-73599500D01*
X105220197Y-73638855D01*
X105047272Y-73715847D01*
X105023213Y-73733327D01*
X104894129Y-73827112D01*
X104888401Y-73833472D01*
X104828916Y-73870121D01*
X104796253Y-73874500D01*
X95582741Y-73874500D01*
X95562237Y-73872236D01*
X95492145Y-73874439D01*
X95488251Y-73874500D01*
X95460650Y-73874500D01*
X95456799Y-73874986D01*
X95456768Y-73874988D01*
X95456640Y-73875005D01*
X95445028Y-73875918D01*
X95401368Y-73877290D01*
X95382128Y-73882880D01*
X95363081Y-73886825D01*
X95343209Y-73889335D01*
X95302599Y-73905413D01*
X95291554Y-73909194D01*
X95249611Y-73921380D01*
X95232369Y-73931578D01*
X95214897Y-73940138D01*
X95196266Y-73947514D01*
X95160938Y-73973181D01*
X95151180Y-73979591D01*
X95113579Y-74001829D01*
X95099410Y-74015998D01*
X95084622Y-74028628D01*
X95068413Y-74040405D01*
X95040572Y-74074058D01*
X95032711Y-74082696D01*
X93552228Y-75563181D01*
X93490905Y-75596666D01*
X93464547Y-75599500D01*
X93405352Y-75599500D01*
X93220197Y-75638855D01*
X93047269Y-75715848D01*
X92894129Y-75827110D01*
X92767466Y-75967783D01*
X92672821Y-76131714D01*
X92669107Y-76143146D01*
X92629669Y-76200821D01*
X92565310Y-76228019D01*
X92496464Y-76216104D01*
X92463495Y-76192508D01*
X89911819Y-73640832D01*
X89878334Y-73579509D01*
X89875500Y-73553151D01*
X89875500Y-72699999D01*
X118726773Y-72699999D01*
X118746939Y-72969100D01*
X118788477Y-73151087D01*
X118806989Y-73232195D01*
X118905580Y-73483398D01*
X119040508Y-73717102D01*
X119208762Y-73928085D01*
X119406582Y-74111635D01*
X119629549Y-74263651D01*
X119872682Y-74380738D01*
X120130551Y-74460280D01*
X120397394Y-74500500D01*
X120667252Y-74500500D01*
X120934095Y-74460280D01*
X121191964Y-74380738D01*
X121435098Y-74263651D01*
X121658064Y-74111635D01*
X121855884Y-73928085D01*
X121935377Y-73828404D01*
X121992564Y-73788265D01*
X122062376Y-73785415D01*
X122122646Y-73820761D01*
X122129264Y-73828398D01*
X122208762Y-73928085D01*
X122406582Y-74111635D01*
X122629549Y-74263651D01*
X122872682Y-74380738D01*
X123130551Y-74460280D01*
X123397394Y-74500500D01*
X123667252Y-74500500D01*
X123934095Y-74460280D01*
X124191964Y-74380738D01*
X124435098Y-74263651D01*
X124658064Y-74111635D01*
X124855884Y-73928085D01*
X125024138Y-73717102D01*
X125159066Y-73483398D01*
X125257657Y-73232195D01*
X125317706Y-72969103D01*
X125337872Y-72700000D01*
X125317706Y-72430897D01*
X125257657Y-72167805D01*
X125159066Y-71916602D01*
X125024138Y-71682898D01*
X124855884Y-71471915D01*
X124773428Y-71395407D01*
X124658066Y-71288366D01*
X124598276Y-71247602D01*
X124435098Y-71136349D01*
X124191964Y-71019262D01*
X124066301Y-70980500D01*
X123934094Y-70939719D01*
X123667252Y-70899500D01*
X123397394Y-70899500D01*
X123130551Y-70939719D01*
X122872682Y-71019262D01*
X122629551Y-71136347D01*
X122406580Y-71288366D01*
X122208761Y-71471915D01*
X122129270Y-71571594D01*
X122072081Y-71611734D01*
X122002269Y-71614584D01*
X121942000Y-71579238D01*
X121935376Y-71571594D01*
X121887401Y-71511436D01*
X121855884Y-71471915D01*
X121730318Y-71355407D01*
X121658066Y-71288366D01*
X121598276Y-71247602D01*
X121435098Y-71136349D01*
X121191964Y-71019262D01*
X121066301Y-70980500D01*
X120934094Y-70939719D01*
X120667252Y-70899500D01*
X120397394Y-70899500D01*
X120130551Y-70939719D01*
X119872682Y-71019262D01*
X119629551Y-71136347D01*
X119406580Y-71288366D01*
X119208762Y-71471915D01*
X119040507Y-71682899D01*
X118905580Y-71916601D01*
X118806989Y-72167804D01*
X118746939Y-72430899D01*
X118726773Y-72699999D01*
X89875500Y-72699999D01*
X89875500Y-70524578D01*
X104389500Y-70524578D01*
X104389501Y-70527872D01*
X104395909Y-70587483D01*
X104446204Y-70722331D01*
X104532454Y-70837546D01*
X104647669Y-70923796D01*
X104782517Y-70974091D01*
X104842127Y-70980500D01*
X108137872Y-70980499D01*
X108197483Y-70974091D01*
X108332331Y-70923796D01*
X108447546Y-70837546D01*
X108533796Y-70722331D01*
X108584091Y-70587483D01*
X108590500Y-70527873D01*
X108590499Y-67232128D01*
X108584091Y-67172517D01*
X108533796Y-67037669D01*
X108447546Y-66922454D01*
X108332331Y-66836204D01*
X108197483Y-66785909D01*
X108137873Y-66779500D01*
X108134550Y-66779500D01*
X104845439Y-66779500D01*
X104845420Y-66779500D01*
X104842128Y-66779501D01*
X104838848Y-66779853D01*
X104838840Y-66779854D01*
X104782515Y-66785909D01*
X104647669Y-66836204D01*
X104532454Y-66922454D01*
X104446204Y-67037668D01*
X104395910Y-67172515D01*
X104395909Y-67172517D01*
X104389500Y-67232127D01*
X104389500Y-67235448D01*
X104389500Y-67235449D01*
X104389500Y-70524560D01*
X104389500Y-70524578D01*
X89875500Y-70524578D01*
X89875500Y-63792739D01*
X89877763Y-63772238D01*
X89877259Y-63756204D01*
X89875561Y-63702144D01*
X89875500Y-63698250D01*
X89875500Y-63674544D01*
X89875500Y-63670650D01*
X89874998Y-63666681D01*
X89874080Y-63655024D01*
X89872709Y-63611373D01*
X89867120Y-63592140D01*
X89863174Y-63573082D01*
X89860664Y-63553208D01*
X89859682Y-63550728D01*
X89844585Y-63512597D01*
X89840804Y-63501552D01*
X89828619Y-63459613D01*
X89828618Y-63459612D01*
X89828618Y-63459610D01*
X89818417Y-63442361D01*
X89809860Y-63424895D01*
X89802486Y-63406268D01*
X89776813Y-63370932D01*
X89770402Y-63361172D01*
X89766666Y-63354855D01*
X89748170Y-63323579D01*
X89734006Y-63309415D01*
X89721369Y-63294620D01*
X89709595Y-63278414D01*
X89692887Y-63264592D01*
X89675935Y-63250568D01*
X89667305Y-63242714D01*
X85340237Y-58915646D01*
X85306752Y-58854323D01*
X85308143Y-58795872D01*
X85335063Y-58695408D01*
X85355659Y-58460000D01*
X85354349Y-58445032D01*
X85335063Y-58224592D01*
X85330345Y-58206985D01*
X85273903Y-57996337D01*
X85174035Y-57782171D01*
X85038495Y-57588599D01*
X84916569Y-57466673D01*
X84883084Y-57405350D01*
X84888068Y-57335658D01*
X84929940Y-57279725D01*
X84960915Y-57262810D01*
X85092331Y-57213796D01*
X85207546Y-57127546D01*
X85293796Y-57012331D01*
X85328233Y-56920000D01*
X93644340Y-56920000D01*
X93664936Y-57155407D01*
X93702859Y-57296936D01*
X93726097Y-57383663D01*
X93825965Y-57597830D01*
X93961505Y-57791401D01*
X94128599Y-57958495D01*
X94314596Y-58088732D01*
X94358219Y-58143307D01*
X94365412Y-58212806D01*
X94333890Y-58275160D01*
X94314594Y-58291881D01*
X94238626Y-58345073D01*
X94867466Y-58973913D01*
X94857685Y-58975320D01*
X94726900Y-59035048D01*
X94618239Y-59129202D01*
X94540507Y-59250156D01*
X94516923Y-59330476D01*
X93885072Y-58698625D01*
X93826399Y-58782422D01*
X93726569Y-58996507D01*
X93665430Y-59224681D01*
X93644842Y-59459999D01*
X93665430Y-59695318D01*
X93726569Y-59923492D01*
X93826400Y-60137580D01*
X93885073Y-60221373D01*
X94516923Y-59589523D01*
X94540507Y-59669844D01*
X94618239Y-59790798D01*
X94726900Y-59884952D01*
X94857685Y-59944680D01*
X94867466Y-59946086D01*
X94238625Y-60574925D01*
X94315031Y-60628425D01*
X94358655Y-60683002D01*
X94365848Y-60752501D01*
X94334326Y-60814855D01*
X94315029Y-60831576D01*
X94238625Y-60885072D01*
X94867466Y-61513913D01*
X94857685Y-61515320D01*
X94726900Y-61575048D01*
X94618239Y-61669202D01*
X94540507Y-61790156D01*
X94516923Y-61870476D01*
X93885072Y-61238625D01*
X93826399Y-61322422D01*
X93726569Y-61536507D01*
X93665430Y-61764681D01*
X93644842Y-62000000D01*
X93665430Y-62235318D01*
X93726569Y-62463492D01*
X93826400Y-62677580D01*
X93885073Y-62761373D01*
X94516923Y-62129523D01*
X94540507Y-62209844D01*
X94618239Y-62330798D01*
X94726900Y-62424952D01*
X94857685Y-62484680D01*
X94867466Y-62486086D01*
X94238625Y-63114925D01*
X94315031Y-63168425D01*
X94358655Y-63223002D01*
X94365848Y-63292501D01*
X94334326Y-63354855D01*
X94315029Y-63371576D01*
X94238625Y-63425072D01*
X94867466Y-64053913D01*
X94857685Y-64055320D01*
X94726900Y-64115048D01*
X94618239Y-64209202D01*
X94540507Y-64330156D01*
X94516923Y-64410476D01*
X93885072Y-63778625D01*
X93826399Y-63862422D01*
X93726569Y-64076507D01*
X93665430Y-64304681D01*
X93644842Y-64540000D01*
X93665430Y-64775318D01*
X93726569Y-65003492D01*
X93826400Y-65217580D01*
X93885073Y-65301373D01*
X94516923Y-64669523D01*
X94540507Y-64749844D01*
X94618239Y-64870798D01*
X94726900Y-64964952D01*
X94857685Y-65024680D01*
X94867466Y-65026086D01*
X94234208Y-65659342D01*
X94223788Y-65711193D01*
X94175172Y-65761376D01*
X94153032Y-65771206D01*
X94080664Y-65795186D01*
X93931342Y-65887288D01*
X93807288Y-66011342D01*
X93715186Y-66160665D01*
X93660000Y-66327202D01*
X93649819Y-66426858D01*
X93649817Y-66426878D01*
X93649500Y-66429991D01*
X93649500Y-66433138D01*
X93649500Y-66433139D01*
X93649500Y-67726859D01*
X93649500Y-67726878D01*
X93649501Y-67730008D01*
X93649820Y-67733140D01*
X93649821Y-67733141D01*
X93660000Y-67832796D01*
X93715186Y-67999334D01*
X93807288Y-68148657D01*
X93931342Y-68272711D01*
X93987895Y-68307592D01*
X94080666Y-68364814D01*
X94192016Y-68401712D01*
X94247202Y-68419999D01*
X94346858Y-68430180D01*
X94346859Y-68430180D01*
X94349991Y-68430500D01*
X95650008Y-68430499D01*
X95752797Y-68419999D01*
X95919334Y-68364814D01*
X96068656Y-68272712D01*
X96192712Y-68148656D01*
X96284814Y-67999334D01*
X96287538Y-67991111D01*
X96327307Y-67933668D01*
X96391822Y-67906843D01*
X96460599Y-67919155D01*
X96491654Y-67945909D01*
X96493834Y-67943730D01*
X96501504Y-67951400D01*
X96501505Y-67951401D01*
X96668599Y-68118495D01*
X96862170Y-68254035D01*
X97076337Y-68353903D01*
X97304592Y-68415063D01*
X97540000Y-68435659D01*
X97775408Y-68415063D01*
X98003663Y-68353903D01*
X98217830Y-68254035D01*
X98411401Y-68118495D01*
X98578495Y-67951401D01*
X98714035Y-67757830D01*
X98813903Y-67543663D01*
X98875063Y-67315408D01*
X98895659Y-67080000D01*
X98891955Y-67037669D01*
X98875063Y-66844592D01*
X98851815Y-66757830D01*
X98813903Y-66616337D01*
X98714035Y-66402171D01*
X98578495Y-66208599D01*
X98411401Y-66041505D01*
X98225402Y-65911267D01*
X98181780Y-65856692D01*
X98174587Y-65787193D01*
X98206109Y-65724839D01*
X98225405Y-65708119D01*
X98301373Y-65654925D01*
X97672533Y-65026086D01*
X97682315Y-65024680D01*
X97813100Y-64964952D01*
X97921761Y-64870798D01*
X97999493Y-64749844D01*
X98023076Y-64669524D01*
X98654925Y-65301373D01*
X98713600Y-65217576D01*
X98721796Y-65199999D01*
X111594858Y-65199999D01*
X111615386Y-65447732D01*
X111676413Y-65688721D01*
X111776268Y-65916370D01*
X111876563Y-66069882D01*
X111876564Y-66069882D01*
X112616922Y-65329523D01*
X112640507Y-65409844D01*
X112718239Y-65530798D01*
X112826900Y-65624952D01*
X112957685Y-65684680D01*
X112967466Y-65686086D01*
X112229942Y-66423609D01*
X112229942Y-66423610D01*
X112276766Y-66460055D01*
X112495393Y-66578368D01*
X112730506Y-66659083D01*
X112975707Y-66700000D01*
X113224293Y-66700000D01*
X113469493Y-66659083D01*
X113704606Y-66578368D01*
X113923233Y-66460053D01*
X113970056Y-66423609D01*
X113791025Y-66244578D01*
X116599500Y-66244578D01*
X116599501Y-66247872D01*
X116599853Y-66251152D01*
X116599854Y-66251159D01*
X116605909Y-66307484D01*
X116613264Y-66327203D01*
X116656204Y-66442331D01*
X116742454Y-66557546D01*
X116857669Y-66643796D01*
X116992517Y-66694091D01*
X117052127Y-66700500D01*
X119147872Y-66700499D01*
X119207483Y-66694091D01*
X119342331Y-66643796D01*
X119457546Y-66557546D01*
X119543796Y-66442331D01*
X119594091Y-66307483D01*
X119600500Y-66247873D01*
X119600500Y-65444578D01*
X122579172Y-65444578D01*
X122579173Y-65447872D01*
X122579525Y-65451152D01*
X122579526Y-65451159D01*
X122584259Y-65495185D01*
X122585581Y-65507483D01*
X122635876Y-65642331D01*
X122722126Y-65757546D01*
X122837341Y-65843796D01*
X122972189Y-65894091D01*
X123031799Y-65900500D01*
X124727544Y-65900499D01*
X124787155Y-65894091D01*
X124922003Y-65843796D01*
X125037218Y-65757546D01*
X125123468Y-65642331D01*
X125173763Y-65507483D01*
X125180172Y-65447873D01*
X125180171Y-64600000D01*
X126074705Y-64600000D01*
X126094530Y-64826602D01*
X126153405Y-65046326D01*
X126249538Y-65252484D01*
X126300644Y-65325471D01*
X126300645Y-65325472D01*
X126981718Y-64644399D01*
X126994507Y-64725148D01*
X127052031Y-64838045D01*
X127141627Y-64927641D01*
X127254524Y-64985165D01*
X127335271Y-64997953D01*
X126654198Y-65679025D01*
X126654198Y-65679026D01*
X126727187Y-65730133D01*
X126933345Y-65826266D01*
X127153069Y-65885141D01*
X127379672Y-65904966D01*
X127606274Y-65885141D01*
X127825998Y-65826266D01*
X128032152Y-65730134D01*
X128105144Y-65679025D01*
X127424073Y-64997953D01*
X127504820Y-64985165D01*
X127617717Y-64927641D01*
X127707313Y-64838045D01*
X127764837Y-64725148D01*
X127777625Y-64644400D01*
X128458697Y-65325472D01*
X128509806Y-65252480D01*
X128605938Y-65046326D01*
X128664813Y-64826602D01*
X128684638Y-64600000D01*
X128664813Y-64373397D01*
X128605938Y-64153673D01*
X128509805Y-63947515D01*
X128458697Y-63874526D01*
X127777625Y-64555598D01*
X127764837Y-64474852D01*
X127707313Y-64361955D01*
X127617717Y-64272359D01*
X127504820Y-64214835D01*
X127424072Y-64202046D01*
X128105144Y-63520974D01*
X128105143Y-63520972D01*
X128032156Y-63469866D01*
X127825998Y-63373733D01*
X127606274Y-63314858D01*
X127379671Y-63295033D01*
X127153069Y-63314858D01*
X126933344Y-63373733D01*
X126727188Y-63469865D01*
X126654199Y-63520973D01*
X126654198Y-63520973D01*
X127335272Y-64202046D01*
X127254524Y-64214835D01*
X127141627Y-64272359D01*
X127052031Y-64361955D01*
X126994507Y-64474852D01*
X126981718Y-64555598D01*
X126300645Y-63874527D01*
X126249537Y-63947516D01*
X126153405Y-64153672D01*
X126094530Y-64373397D01*
X126074705Y-64600000D01*
X125180171Y-64600000D01*
X125180171Y-63752128D01*
X125173763Y-63692517D01*
X125123468Y-63557669D01*
X125037218Y-63442454D01*
X124922003Y-63356204D01*
X124787155Y-63305909D01*
X124774906Y-63304592D01*
X124730838Y-63299854D01*
X124730837Y-63299853D01*
X124727545Y-63299500D01*
X124724222Y-63299500D01*
X123035111Y-63299500D01*
X123035092Y-63299500D01*
X123031800Y-63299501D01*
X123028520Y-63299853D01*
X123028512Y-63299854D01*
X122972187Y-63305909D01*
X122837341Y-63356204D01*
X122722126Y-63442454D01*
X122635876Y-63557668D01*
X122585582Y-63692515D01*
X122585581Y-63692517D01*
X122579172Y-63752127D01*
X122579172Y-63755448D01*
X122579172Y-63755449D01*
X122579172Y-65444560D01*
X122579172Y-65444578D01*
X119600500Y-65444578D01*
X119600499Y-64152128D01*
X119594091Y-64092517D01*
X119543796Y-63957669D01*
X119457546Y-63842454D01*
X119342331Y-63756204D01*
X119207483Y-63705909D01*
X119154412Y-63700203D01*
X119151166Y-63699854D01*
X119151165Y-63699853D01*
X119147873Y-63699500D01*
X119144550Y-63699500D01*
X117055439Y-63699500D01*
X117055420Y-63699500D01*
X117052128Y-63699501D01*
X117048848Y-63699853D01*
X117048840Y-63699854D01*
X116992515Y-63705909D01*
X116857669Y-63756204D01*
X116742454Y-63842454D01*
X116656204Y-63957668D01*
X116605909Y-64092516D01*
X116603487Y-64115048D01*
X116599500Y-64152127D01*
X116599500Y-64155448D01*
X116599500Y-64155449D01*
X116599500Y-66244560D01*
X116599500Y-66244578D01*
X113791025Y-66244578D01*
X113232533Y-65686086D01*
X113242315Y-65684680D01*
X113373100Y-65624952D01*
X113481761Y-65530798D01*
X113559493Y-65409844D01*
X113583076Y-65329524D01*
X114323434Y-66069882D01*
X114423730Y-65916369D01*
X114523586Y-65688721D01*
X114584613Y-65447732D01*
X114605141Y-65199999D01*
X114584613Y-64952267D01*
X114523586Y-64711278D01*
X114423730Y-64483630D01*
X114323434Y-64330116D01*
X113583076Y-65070475D01*
X113559493Y-64990156D01*
X113481761Y-64869202D01*
X113373100Y-64775048D01*
X113242315Y-64715320D01*
X113232534Y-64713913D01*
X113970057Y-63976390D01*
X113970056Y-63976388D01*
X113923235Y-63939947D01*
X113704606Y-63821631D01*
X113469493Y-63740916D01*
X113224293Y-63700000D01*
X112975707Y-63700000D01*
X112730506Y-63740916D01*
X112495393Y-63821631D01*
X112276764Y-63939946D01*
X112229942Y-63976388D01*
X112229942Y-63976390D01*
X112967466Y-64713913D01*
X112957685Y-64715320D01*
X112826900Y-64775048D01*
X112718239Y-64869202D01*
X112640507Y-64990156D01*
X112616923Y-65070475D01*
X111876564Y-64330116D01*
X111776266Y-64483634D01*
X111676413Y-64711278D01*
X111615386Y-64952267D01*
X111594858Y-65199999D01*
X98721796Y-65199999D01*
X98813430Y-65003492D01*
X98874569Y-64775318D01*
X98895157Y-64540000D01*
X98874569Y-64304681D01*
X98813430Y-64076507D01*
X98713599Y-63862421D01*
X98654926Y-63778626D01*
X98654925Y-63778625D01*
X98023076Y-64410474D01*
X97999493Y-64330156D01*
X97921761Y-64209202D01*
X97813100Y-64115048D01*
X97682315Y-64055320D01*
X97672531Y-64053913D01*
X98301373Y-63425073D01*
X98301373Y-63425072D01*
X98224969Y-63371574D01*
X98181344Y-63316997D01*
X98174150Y-63247499D01*
X98205673Y-63185144D01*
X98224969Y-63168424D01*
X98301373Y-63114925D01*
X97672533Y-62486086D01*
X97682315Y-62484680D01*
X97813100Y-62424952D01*
X97921761Y-62330798D01*
X97999493Y-62209844D01*
X98023076Y-62129524D01*
X98654925Y-62761373D01*
X98713600Y-62677576D01*
X98813430Y-62463492D01*
X98874569Y-62235318D01*
X98895157Y-62000000D01*
X98874569Y-61764681D01*
X98813430Y-61536507D01*
X98713599Y-61322421D01*
X98654926Y-61238626D01*
X98654925Y-61238625D01*
X98023076Y-61870474D01*
X97999493Y-61790156D01*
X97921761Y-61669202D01*
X97813100Y-61575048D01*
X97682315Y-61515320D01*
X97672533Y-61513913D01*
X98301373Y-60885073D01*
X98301373Y-60885072D01*
X98224969Y-60831574D01*
X98181344Y-60776997D01*
X98174150Y-60707499D01*
X98205673Y-60645144D01*
X98224969Y-60628424D01*
X98301373Y-60574925D01*
X97672533Y-59946086D01*
X97682315Y-59944680D01*
X97813100Y-59884952D01*
X97921761Y-59790798D01*
X97999493Y-59669844D01*
X98023076Y-59589524D01*
X98654925Y-60221373D01*
X98713600Y-60137576D01*
X98813430Y-59923492D01*
X98874569Y-59695318D01*
X98895157Y-59459999D01*
X98874569Y-59224681D01*
X98813430Y-58996507D01*
X98713599Y-58782421D01*
X98654926Y-58698626D01*
X98654925Y-58698625D01*
X98023076Y-59330475D01*
X97999493Y-59250156D01*
X97921761Y-59129202D01*
X97813100Y-59035048D01*
X97682315Y-58975320D01*
X97672533Y-58973913D01*
X98301373Y-58345073D01*
X98301373Y-58345072D01*
X98225405Y-58291880D01*
X98181780Y-58237304D01*
X98174586Y-58167805D01*
X98206108Y-58105451D01*
X98225399Y-58088734D01*
X98411401Y-57958495D01*
X98578495Y-57791401D01*
X98714035Y-57597830D01*
X98813903Y-57383663D01*
X98875063Y-57155408D01*
X98895659Y-56920000D01*
X98890407Y-56859976D01*
X98875063Y-56684592D01*
X98855081Y-56610018D01*
X98813903Y-56456337D01*
X98714035Y-56242171D01*
X98578495Y-56048599D01*
X98411401Y-55881505D01*
X98217830Y-55745965D01*
X98003663Y-55646097D01*
X97912559Y-55621686D01*
X97775407Y-55584936D01*
X97540000Y-55564340D01*
X97304592Y-55584936D01*
X97076336Y-55646097D01*
X96862170Y-55745965D01*
X96668598Y-55881505D01*
X96501505Y-56048598D01*
X96371575Y-56234159D01*
X96316998Y-56277784D01*
X96247500Y-56284978D01*
X96185145Y-56253455D01*
X96168425Y-56234159D01*
X96126677Y-56174536D01*
X96038495Y-56048599D01*
X95871401Y-55881505D01*
X95677830Y-55745965D01*
X95463663Y-55646097D01*
X95372559Y-55621686D01*
X95235407Y-55584936D01*
X95000000Y-55564340D01*
X94764592Y-55584936D01*
X94536336Y-55646097D01*
X94322170Y-55745965D01*
X94128598Y-55881505D01*
X93961505Y-56048598D01*
X93825965Y-56242170D01*
X93726097Y-56456336D01*
X93664936Y-56684592D01*
X93644340Y-56920000D01*
X85328233Y-56920000D01*
X85344091Y-56877483D01*
X85350500Y-56817873D01*
X85350499Y-55022128D01*
X85344091Y-54962517D01*
X85293796Y-54827669D01*
X85207546Y-54712454D01*
X85092331Y-54626204D01*
X84957483Y-54575909D01*
X84897873Y-54569500D01*
X84894550Y-54569500D01*
X83105439Y-54569500D01*
X83105420Y-54569500D01*
X83102128Y-54569501D01*
X83098848Y-54569853D01*
X83098840Y-54569854D01*
X83042515Y-54575909D01*
X82907669Y-54626204D01*
X82792454Y-54712454D01*
X82706204Y-54827668D01*
X82655909Y-54962516D01*
X82650955Y-55008598D01*
X82649500Y-55022127D01*
X82649500Y-55025448D01*
X82649500Y-55025449D01*
X82649500Y-56814560D01*
X82649500Y-56814578D01*
X82649501Y-56817872D01*
X82649853Y-56821152D01*
X82649854Y-56821159D01*
X82655909Y-56877483D01*
X82706204Y-57012331D01*
X82792454Y-57127546D01*
X82907669Y-57213796D01*
X83008957Y-57251574D01*
X83039082Y-57262810D01*
X83095016Y-57304681D01*
X83119433Y-57370146D01*
X83104581Y-57438419D01*
X83083431Y-57466673D01*
X82961503Y-57588601D01*
X82825965Y-57782170D01*
X82726097Y-57996336D01*
X82664936Y-58224592D01*
X82644340Y-58459999D01*
X82664936Y-58695407D01*
X82691442Y-58794328D01*
X82726097Y-58923663D01*
X82825965Y-59137830D01*
X82961505Y-59331401D01*
X83128599Y-59498495D01*
X83314160Y-59628426D01*
X83357783Y-59683002D01*
X83364976Y-59752501D01*
X83333454Y-59814855D01*
X83314158Y-59831575D01*
X83130749Y-59960000D01*
X83128595Y-59961508D01*
X82961505Y-60128598D01*
X82825965Y-60322170D01*
X82726097Y-60536336D01*
X82664936Y-60764592D01*
X82644340Y-61000000D01*
X82664936Y-61235405D01*
X82664937Y-61235407D01*
X82664937Y-61235408D01*
X82691442Y-61334328D01*
X82691856Y-61335871D01*
X82690193Y-61405721D01*
X82659762Y-61455646D01*
X82366208Y-61749199D01*
X82350110Y-61762096D01*
X82302096Y-61813225D01*
X82299392Y-61816016D01*
X82282628Y-61832780D01*
X82282621Y-61832787D01*
X82279880Y-61835529D01*
X82277499Y-61838597D01*
X82277490Y-61838608D01*
X82277411Y-61838711D01*
X82269842Y-61847572D01*
X82239935Y-61879420D01*
X82230285Y-61896974D01*
X82219609Y-61913228D01*
X82207326Y-61929063D01*
X82189975Y-61969158D01*
X82184838Y-61979644D01*
X82163802Y-62017907D01*
X82158821Y-62037309D01*
X82152520Y-62055711D01*
X82144561Y-62074102D01*
X82137728Y-62117242D01*
X82135360Y-62128674D01*
X82124499Y-62170977D01*
X82124500Y-62191016D01*
X82122972Y-62210414D01*
X82119840Y-62230196D01*
X82121920Y-62252195D01*
X82123950Y-62273673D01*
X82124500Y-62285343D01*
X82124500Y-63868957D01*
X82122235Y-63889467D01*
X82124439Y-63959573D01*
X82124500Y-63963468D01*
X82124500Y-63991051D01*
X82124988Y-63994920D01*
X82124989Y-63994926D01*
X82125004Y-63995044D01*
X82125918Y-64006668D01*
X82127290Y-64050327D01*
X82132879Y-64069561D01*
X82136825Y-64088617D01*
X82139335Y-64108493D01*
X82155414Y-64149105D01*
X82159197Y-64160152D01*
X82171382Y-64202092D01*
X82181580Y-64219336D01*
X82190136Y-64236801D01*
X82197514Y-64255433D01*
X82197515Y-64255434D01*
X82223180Y-64290760D01*
X82229593Y-64300523D01*
X82251826Y-64338117D01*
X82251829Y-64338120D01*
X82251830Y-64338121D01*
X82265995Y-64352286D01*
X82278627Y-64367076D01*
X82290406Y-64383288D01*
X82324058Y-64411127D01*
X82332699Y-64418990D01*
X82954224Y-65040515D01*
X82987709Y-65101838D01*
X82982725Y-65171530D01*
X82965612Y-65198231D01*
X82967727Y-65199712D01*
X82825965Y-65402170D01*
X82726097Y-65616336D01*
X82664936Y-65844592D01*
X82644340Y-66079999D01*
X82664936Y-66315407D01*
X82709709Y-66482502D01*
X82726097Y-66543663D01*
X82825965Y-66757830D01*
X82961505Y-66951401D01*
X83128599Y-67118495D01*
X83314160Y-67248426D01*
X83357783Y-67303002D01*
X83364976Y-67372501D01*
X83333454Y-67434855D01*
X83314159Y-67451575D01*
X83128595Y-67581508D01*
X82961505Y-67748598D01*
X82825965Y-67942170D01*
X82726097Y-68156336D01*
X82664936Y-68384592D01*
X82644340Y-68620000D01*
X82664936Y-68855407D01*
X82685308Y-68931435D01*
X82726097Y-69083663D01*
X82825965Y-69297830D01*
X82961505Y-69491401D01*
X83128599Y-69658495D01*
X83314160Y-69788426D01*
X83357783Y-69843002D01*
X83364976Y-69912501D01*
X83333454Y-69974855D01*
X83314159Y-69991575D01*
X83128595Y-70121508D01*
X82961505Y-70288598D01*
X82825965Y-70482170D01*
X82726097Y-70696336D01*
X82664936Y-70924592D01*
X82644340Y-71160000D01*
X82664936Y-71395407D01*
X82696026Y-71511436D01*
X82726097Y-71623663D01*
X82825965Y-71837830D01*
X82961505Y-72031401D01*
X83128599Y-72198495D01*
X83314160Y-72328426D01*
X83357783Y-72383002D01*
X83364976Y-72452501D01*
X83333454Y-72514855D01*
X83314158Y-72531575D01*
X83185173Y-72621892D01*
X83128595Y-72661508D01*
X82961505Y-72828598D01*
X82825965Y-73022170D01*
X82726097Y-73236336D01*
X82664936Y-73464592D01*
X82644340Y-73700000D01*
X82664936Y-73935407D01*
X82693071Y-74040406D01*
X82726097Y-74163663D01*
X82825965Y-74377830D01*
X82961505Y-74571401D01*
X83128599Y-74738495D01*
X83314160Y-74868426D01*
X83357783Y-74923002D01*
X83364976Y-74992501D01*
X83333454Y-75054855D01*
X83314158Y-75071575D01*
X83139228Y-75194063D01*
X83128595Y-75201508D01*
X82961505Y-75368598D01*
X82825965Y-75562170D01*
X82726097Y-75776336D01*
X82664936Y-76004592D01*
X82644340Y-76239999D01*
X82664936Y-76475407D01*
X82685275Y-76551312D01*
X82726097Y-76703663D01*
X82825965Y-76917830D01*
X82961505Y-77111401D01*
X83128599Y-77278495D01*
X83314160Y-77408426D01*
X83357783Y-77463002D01*
X83364976Y-77532501D01*
X83333454Y-77594855D01*
X83314159Y-77611575D01*
X83128595Y-77741508D01*
X82961505Y-77908598D01*
X82825965Y-78102170D01*
X82726097Y-78316336D01*
X82664936Y-78544592D01*
X82644340Y-78780000D01*
X82664936Y-79015407D01*
X82688019Y-79101552D01*
X82726097Y-79243663D01*
X82825965Y-79457830D01*
X82961505Y-79651401D01*
X83128599Y-79818495D01*
X83314160Y-79948426D01*
X83357783Y-80003002D01*
X83364976Y-80072501D01*
X83333454Y-80134855D01*
X83314159Y-80151575D01*
X83128595Y-80281508D01*
X82961505Y-80448598D01*
X82825965Y-80642170D01*
X82726097Y-80856336D01*
X82664936Y-81084592D01*
X82644340Y-81319999D01*
X82664936Y-81555407D01*
X82692236Y-81657292D01*
X82726097Y-81783663D01*
X82825965Y-81997830D01*
X82961505Y-82191401D01*
X83128599Y-82358495D01*
X83314160Y-82488426D01*
X83357783Y-82543002D01*
X83364976Y-82612501D01*
X83333454Y-82674855D01*
X83314159Y-82691575D01*
X83128595Y-82821508D01*
X82961505Y-82988598D01*
X82825965Y-83182170D01*
X82726097Y-83396336D01*
X82664936Y-83624592D01*
X82644340Y-83860000D01*
X82664936Y-84095407D01*
X82697727Y-84217783D01*
X82726097Y-84323663D01*
X82825965Y-84537830D01*
X82961505Y-84731401D01*
X83128599Y-84898495D01*
X83314160Y-85028426D01*
X83357783Y-85083002D01*
X83364976Y-85152501D01*
X83333454Y-85214855D01*
X83314160Y-85231574D01*
X83185173Y-85321892D01*
X83128595Y-85361508D01*
X82961505Y-85528598D01*
X82825965Y-85722170D01*
X82726097Y-85936336D01*
X82664936Y-86164592D01*
X82644340Y-86400000D01*
X82664936Y-86635407D01*
X82681551Y-86697413D01*
X82726097Y-86863663D01*
X82825965Y-87077830D01*
X82961505Y-87271401D01*
X83128599Y-87438495D01*
X83314160Y-87568426D01*
X83357783Y-87623002D01*
X83364976Y-87692501D01*
X83333454Y-87754855D01*
X83314158Y-87771575D01*
X83165923Y-87875371D01*
X83128595Y-87901508D01*
X82961505Y-88068598D01*
X82825965Y-88262170D01*
X82726097Y-88476336D01*
X82664936Y-88704592D01*
X82644340Y-88939999D01*
X82664936Y-89175407D01*
X82694074Y-89284151D01*
X82726097Y-89403663D01*
X82825965Y-89617830D01*
X82961505Y-89811401D01*
X83128599Y-89978495D01*
X83314160Y-90108426D01*
X83357783Y-90163002D01*
X83364976Y-90232501D01*
X83333454Y-90294855D01*
X83314160Y-90311574D01*
X83224293Y-90374500D01*
X83128595Y-90441508D01*
X82961505Y-90608598D01*
X82825965Y-90802170D01*
X82726097Y-91016336D01*
X82664936Y-91244592D01*
X82644340Y-91480000D01*
X82664936Y-91715407D01*
X82690749Y-91811742D01*
X82726097Y-91943663D01*
X82825965Y-92157830D01*
X82961505Y-92351401D01*
X83128599Y-92518495D01*
X83314160Y-92648426D01*
X83357783Y-92703002D01*
X83364976Y-92772501D01*
X83333454Y-92834855D01*
X83314159Y-92851575D01*
X83128595Y-92981508D01*
X82961505Y-93148598D01*
X82825965Y-93342170D01*
X82726097Y-93556336D01*
X82664936Y-93784592D01*
X82644340Y-94020000D01*
X82662977Y-94233013D01*
X82649210Y-94301513D01*
X82627130Y-94331501D01*
X80514358Y-96444272D01*
X80500727Y-96456053D01*
X80481468Y-96470391D01*
X80449635Y-96508328D01*
X80442338Y-96516292D01*
X80440972Y-96517657D01*
X80440950Y-96517681D01*
X80438409Y-96520223D01*
X80436173Y-96523050D01*
X80436171Y-96523053D01*
X80419176Y-96544546D01*
X80416902Y-96547337D01*
X80367894Y-96605744D01*
X80357418Y-96622187D01*
X80325192Y-96691294D01*
X80323622Y-96694536D01*
X80289393Y-96762692D01*
X80282996Y-96781098D01*
X80267573Y-96855788D01*
X80266793Y-96859305D01*
X80249208Y-96933506D01*
X80246939Y-96955725D01*
X80245939Y-96960569D01*
X80243692Y-96964788D01*
X80248447Y-96994755D01*
X80248553Y-96998363D01*
X80249448Y-97029129D01*
X80249500Y-97032735D01*
X80249500Y-104686294D01*
X80248191Y-104704265D01*
X80247191Y-104711092D01*
X80237407Y-104732365D01*
X80011657Y-104732365D01*
X80001716Y-104710444D01*
X80000500Y-104693121D01*
X80000500Y-96998363D01*
X80009461Y-96967843D01*
X80000917Y-96945658D01*
X80000500Y-96935499D01*
X80000500Y-53890000D01*
X104402193Y-53890000D01*
X104404409Y-53922399D01*
X104405559Y-53930761D01*
X104462285Y-54203740D01*
X104464570Y-54211897D01*
X104557935Y-54474600D01*
X104561305Y-54482359D01*
X104689577Y-54729913D01*
X104693973Y-54737141D01*
X104854752Y-54964913D01*
X104860095Y-54971481D01*
X105050398Y-55175246D01*
X105056573Y-55181014D01*
X105272850Y-55356967D01*
X105279768Y-55361851D01*
X105517987Y-55506715D01*
X105525489Y-55510602D01*
X105781228Y-55621686D01*
X105789181Y-55624512D01*
X106057669Y-55699739D01*
X106065938Y-55701457D01*
X106239999Y-55725380D01*
X106240000Y-55725380D01*
X106240000Y-54400083D01*
X106310857Y-54424877D01*
X106445074Y-54440000D01*
X106534926Y-54440000D01*
X106669143Y-54424877D01*
X106740000Y-54400083D01*
X106740000Y-55725380D01*
X106914061Y-55701457D01*
X106922330Y-55699739D01*
X107190818Y-55624512D01*
X107198771Y-55621686D01*
X107454510Y-55510602D01*
X107462012Y-55506715D01*
X107700231Y-55361851D01*
X107707149Y-55356967D01*
X107923426Y-55181014D01*
X107929601Y-55175246D01*
X108119904Y-54971481D01*
X108125247Y-54964913D01*
X108286026Y-54737141D01*
X108290422Y-54729913D01*
X108418694Y-54482359D01*
X108422064Y-54474600D01*
X108515429Y-54211897D01*
X108517714Y-54203740D01*
X108574440Y-53930761D01*
X108575590Y-53922399D01*
X108577807Y-53890000D01*
X107250083Y-53890000D01*
X107274877Y-53819143D01*
X107295062Y-53640000D01*
X107274877Y-53460857D01*
X107250083Y-53390000D01*
X108577807Y-53390000D01*
X108577806Y-53389999D01*
X108575590Y-53357600D01*
X108574440Y-53349238D01*
X108517714Y-53076259D01*
X108515429Y-53068102D01*
X108422064Y-52805399D01*
X108418694Y-52797640D01*
X108290422Y-52550086D01*
X108286026Y-52542858D01*
X108125247Y-52315086D01*
X108119904Y-52308518D01*
X107929601Y-52104753D01*
X107923426Y-52098985D01*
X107707149Y-51923032D01*
X107700231Y-51918148D01*
X107462012Y-51773284D01*
X107454510Y-51769397D01*
X107198771Y-51658313D01*
X107190818Y-51655487D01*
X106922335Y-51580261D01*
X106914057Y-51578541D01*
X106740000Y-51554618D01*
X106740000Y-52879916D01*
X106669143Y-52855123D01*
X106534926Y-52840000D01*
X106445074Y-52840000D01*
X106310857Y-52855123D01*
X106240000Y-52879916D01*
X106240000Y-51554618D01*
X106065942Y-51578541D01*
X106057664Y-51580261D01*
X105789181Y-51655487D01*
X105781228Y-51658313D01*
X105525489Y-51769397D01*
X105517987Y-51773284D01*
X105279768Y-51918148D01*
X105272850Y-51923032D01*
X105056573Y-52098985D01*
X105050398Y-52104753D01*
X104860095Y-52308518D01*
X104854752Y-52315086D01*
X104693973Y-52542858D01*
X104689577Y-52550086D01*
X104561305Y-52797640D01*
X104557935Y-52805399D01*
X104464570Y-53068102D01*
X104462285Y-53076259D01*
X104405559Y-53349238D01*
X104404409Y-53357600D01*
X104402193Y-53389999D01*
X104402193Y-53390000D01*
X105729917Y-53390000D01*
X105705123Y-53460857D01*
X105684938Y-53640000D01*
X105705123Y-53819143D01*
X105729917Y-53890000D01*
X104402193Y-53890000D01*
X80000500Y-53890000D01*
X80000500Y-50124500D01*
X80020185Y-50057461D01*
X80072989Y-50011706D01*
X80124500Y-50000500D01*
X199875500Y-50000500D01*
X199942539Y-50020185D01*
G37*
%TD.AperFunction*%
%TD*%
M02*
