%TF.GenerationSoftware,KiCad,Pcbnew,7.0.2*%
%TF.CreationDate,2023-08-30T16:48:59+01:00*%
%TF.ProjectId,dk2_02_bottom,646b325f-3032-45f6-926f-74746f6d2e6b,rev?*%
%TF.SameCoordinates,Original*%
%TF.FileFunction,Paste,Top*%
%TF.FilePolarity,Positive*%
%FSLAX46Y46*%
G04 Gerber Fmt 4.6, Leading zero omitted, Abs format (unit mm)*
G04 Created by KiCad (PCBNEW 7.0.2) date 2023-08-30 16:48:59*
%MOMM*%
%LPD*%
G01*
G04 APERTURE LIST*
G04 Aperture macros list*
%AMRoundRect*
0 Rectangle with rounded corners*
0 $1 Rounding radius*
0 $2 $3 $4 $5 $6 $7 $8 $9 X,Y pos of 4 corners*
0 Add a 4 corners polygon primitive as box body*
4,1,4,$2,$3,$4,$5,$6,$7,$8,$9,$2,$3,0*
0 Add four circle primitives for the rounded corners*
1,1,$1+$1,$2,$3*
1,1,$1+$1,$4,$5*
1,1,$1+$1,$6,$7*
1,1,$1+$1,$8,$9*
0 Add four rect primitives between the rounded corners*
20,1,$1+$1,$2,$3,$4,$5,0*
20,1,$1+$1,$4,$5,$6,$7,0*
20,1,$1+$1,$6,$7,$8,$9,0*
20,1,$1+$1,$8,$9,$2,$3,0*%
G04 Aperture macros list end*
%ADD10RoundRect,0.112500X0.187500X0.112500X-0.187500X0.112500X-0.187500X-0.112500X0.187500X-0.112500X0*%
%ADD11RoundRect,0.200000X0.275000X-0.200000X0.275000X0.200000X-0.275000X0.200000X-0.275000X-0.200000X0*%
%ADD12RoundRect,0.200000X-0.200000X-0.275000X0.200000X-0.275000X0.200000X0.275000X-0.200000X0.275000X0*%
%ADD13RoundRect,0.200000X0.200000X0.275000X-0.200000X0.275000X-0.200000X-0.275000X0.200000X-0.275000X0*%
%ADD14RoundRect,0.100000X-0.637500X-0.100000X0.637500X-0.100000X0.637500X0.100000X-0.637500X0.100000X0*%
%ADD15RoundRect,0.150000X0.150000X-0.825000X0.150000X0.825000X-0.150000X0.825000X-0.150000X-0.825000X0*%
%ADD16RoundRect,0.200000X-0.275000X0.200000X-0.275000X-0.200000X0.275000X-0.200000X0.275000X0.200000X0*%
%ADD17RoundRect,0.225000X0.225000X0.250000X-0.225000X0.250000X-0.225000X-0.250000X0.225000X-0.250000X0*%
%ADD18RoundRect,0.225000X-0.250000X0.225000X-0.250000X-0.225000X0.250000X-0.225000X0.250000X0.225000X0*%
%ADD19RoundRect,0.225000X-0.225000X-0.250000X0.225000X-0.250000X0.225000X0.250000X-0.225000X0.250000X0*%
%ADD20RoundRect,0.150000X-0.825000X-0.150000X0.825000X-0.150000X0.825000X0.150000X-0.825000X0.150000X0*%
%ADD21RoundRect,0.225000X0.250000X-0.225000X0.250000X0.225000X-0.250000X0.225000X-0.250000X-0.225000X0*%
%ADD22RoundRect,0.150000X-0.587500X-0.150000X0.587500X-0.150000X0.587500X0.150000X-0.587500X0.150000X0*%
G04 APERTURE END LIST*
D10*
%TO.C,D1*%
X131282323Y-56200000D03*
X129182323Y-56200000D03*
%TD*%
D11*
%TO.C,R11*%
X178100000Y-93525000D03*
X178100000Y-91875000D03*
%TD*%
D12*
%TO.C,R8*%
X179500000Y-106600000D03*
X181150000Y-106600000D03*
%TD*%
D13*
%TO.C,R2*%
X181150000Y-113400000D03*
X179500000Y-113400000D03*
%TD*%
D14*
%TO.C,U4*%
X174525000Y-83650000D03*
X174525000Y-84300000D03*
X174525000Y-84950000D03*
X174525000Y-85600000D03*
X174525000Y-86250000D03*
X174525000Y-86900000D03*
X174525000Y-87550000D03*
X174525000Y-88200000D03*
X174525000Y-88850000D03*
X174525000Y-89500000D03*
X180250000Y-89500000D03*
X180250000Y-88850000D03*
X180250000Y-88200000D03*
X180250000Y-87550000D03*
X180250000Y-86900000D03*
X180250000Y-86250000D03*
X180250000Y-85600000D03*
X180250000Y-84950000D03*
X180250000Y-84300000D03*
X180250000Y-83650000D03*
%TD*%
D15*
%TO.C,U8*%
X118627323Y-58475000D03*
X119897323Y-58475000D03*
X121167323Y-58475000D03*
X122437323Y-58475000D03*
X122437323Y-53525000D03*
X121167323Y-53525000D03*
X119897323Y-53525000D03*
X118627323Y-53525000D03*
%TD*%
D12*
%TO.C,R14*%
X103875000Y-120135000D03*
X105525000Y-120135000D03*
%TD*%
D11*
%TO.C,R10*%
X179750000Y-93525000D03*
X179750000Y-91875000D03*
%TD*%
D16*
%TO.C,R19*%
X100375000Y-85735000D03*
X100375000Y-87385000D03*
%TD*%
D17*
%TO.C,C3*%
X184350000Y-111700000D03*
X182800000Y-111700000D03*
%TD*%
D18*
%TO.C,C20*%
X171050000Y-83600000D03*
X171050000Y-85150000D03*
%TD*%
%TO.C,C16*%
X183750000Y-83000000D03*
X183750000Y-84550000D03*
%TD*%
D19*
%TO.C,C4*%
X173300000Y-69800000D03*
X174850000Y-69800000D03*
%TD*%
%TO.C,C1*%
X173300000Y-64600000D03*
X174850000Y-64600000D03*
%TD*%
D20*
%TO.C,U3*%
X172475000Y-109030000D03*
X172475000Y-110300000D03*
X172475000Y-111570000D03*
X172475000Y-112840000D03*
X177425000Y-112840000D03*
X177425000Y-111570000D03*
X177425000Y-110300000D03*
X177425000Y-109030000D03*
%TD*%
D19*
%TO.C,C2*%
X165550000Y-110400000D03*
X167100000Y-110400000D03*
%TD*%
D18*
%TO.C,C11*%
X169350000Y-87800000D03*
X169350000Y-89350000D03*
%TD*%
D12*
%TO.C,R3*%
X168750000Y-110400000D03*
X170400000Y-110400000D03*
%TD*%
D11*
%TO.C,R20*%
X112775000Y-85335000D03*
X112775000Y-83685000D03*
%TD*%
D18*
%TO.C,C14*%
X182150000Y-83000000D03*
X182150000Y-84550000D03*
%TD*%
D13*
%TO.C,R13*%
X169400000Y-86000000D03*
X167750000Y-86000000D03*
%TD*%
D20*
%TO.C,U5*%
X105675000Y-85935000D03*
X105675000Y-87205000D03*
X105675000Y-88475000D03*
X105675000Y-89745000D03*
X110625000Y-89745000D03*
X110625000Y-88475000D03*
X110625000Y-87205000D03*
X110625000Y-85935000D03*
%TD*%
D18*
%TO.C,C17*%
X182150000Y-86200000D03*
X182150000Y-87750000D03*
%TD*%
D13*
%TO.C,R17*%
X103675000Y-87335000D03*
X102025000Y-87335000D03*
%TD*%
D12*
%TO.C,R1*%
X168750000Y-112100000D03*
X170400000Y-112100000D03*
%TD*%
D11*
%TO.C,R15*%
X111275000Y-121835000D03*
X111275000Y-120185000D03*
%TD*%
D13*
%TO.C,R21*%
X103675000Y-85735000D03*
X102025000Y-85735000D03*
%TD*%
D17*
%TO.C,C23*%
X108875000Y-101935000D03*
X107325000Y-101935000D03*
%TD*%
D12*
%TO.C,R22*%
X112575000Y-99135000D03*
X114225000Y-99135000D03*
%TD*%
D13*
%TO.C,R6*%
X181150000Y-110000000D03*
X179500000Y-110000000D03*
%TD*%
D12*
%TO.C,R16*%
X112675000Y-88535000D03*
X114325000Y-88535000D03*
%TD*%
D13*
%TO.C,R23*%
X103575000Y-97835000D03*
X101925000Y-97835000D03*
%TD*%
D20*
%TO.C,U7*%
X105600000Y-107330000D03*
X105600000Y-108600000D03*
X105600000Y-109870000D03*
X105600000Y-111140000D03*
X110550000Y-111140000D03*
X110550000Y-109870000D03*
X110550000Y-108600000D03*
X110550000Y-107330000D03*
%TD*%
D13*
%TO.C,R28*%
X103575000Y-108635000D03*
X101925000Y-108635000D03*
%TD*%
D12*
%TO.C,R7*%
X179500000Y-104900000D03*
X181150000Y-104900000D03*
%TD*%
D18*
%TO.C,C15*%
X183750000Y-86200000D03*
X183750000Y-87750000D03*
%TD*%
D17*
%TO.C,C24*%
X108875000Y-112835000D03*
X107325000Y-112835000D03*
%TD*%
D12*
%TO.C,R5*%
X168750000Y-108700000D03*
X170400000Y-108700000D03*
%TD*%
D17*
%TO.C,C6*%
X175650000Y-114500000D03*
X174100000Y-114500000D03*
%TD*%
D11*
%TO.C,R26*%
X112675000Y-95985000D03*
X112675000Y-94335000D03*
%TD*%
D18*
%TO.C,C9*%
X172550000Y-87800000D03*
X172550000Y-89350000D03*
%TD*%
D17*
%TO.C,C8*%
X181100000Y-108300000D03*
X179550000Y-108300000D03*
%TD*%
D13*
%TO.C,R27*%
X103575000Y-96235000D03*
X101925000Y-96235000D03*
%TD*%
%TO.C,R12*%
X169400000Y-84400000D03*
X167750000Y-84400000D03*
%TD*%
D17*
%TO.C,C22*%
X108925000Y-91435000D03*
X107375000Y-91435000D03*
%TD*%
%TO.C,C5*%
X175550000Y-107300000D03*
X174000000Y-107300000D03*
%TD*%
D13*
%TO.C,R4*%
X181150000Y-111700000D03*
X179500000Y-111700000D03*
%TD*%
D12*
%TO.C,R18*%
X112675000Y-86935000D03*
X114325000Y-86935000D03*
%TD*%
D18*
%TO.C,C10*%
X170950000Y-87800000D03*
X170950000Y-89350000D03*
%TD*%
%TO.C,C18*%
X172650000Y-83600000D03*
X172650000Y-85150000D03*
%TD*%
D17*
%TO.C,C21*%
X166200000Y-86000000D03*
X164650000Y-86000000D03*
%TD*%
D19*
%TO.C,C7*%
X168800000Y-107000000D03*
X170350000Y-107000000D03*
%TD*%
D20*
%TO.C,U6*%
X105600000Y-96430000D03*
X105600000Y-97700000D03*
X105600000Y-98970000D03*
X105600000Y-100240000D03*
X110550000Y-100240000D03*
X110550000Y-98970000D03*
X110550000Y-97700000D03*
X110550000Y-96430000D03*
%TD*%
D19*
%TO.C,C12*%
X175450000Y-82200000D03*
X177000000Y-82200000D03*
%TD*%
D17*
%TO.C,C19*%
X166200000Y-84400000D03*
X164650000Y-84400000D03*
%TD*%
D13*
%TO.C,R30*%
X103575000Y-106935000D03*
X101925000Y-106935000D03*
%TD*%
D21*
%TO.C,C26*%
X116832323Y-56700000D03*
X116832323Y-55150000D03*
%TD*%
D17*
%TO.C,C13*%
X175750000Y-91000000D03*
X174200000Y-91000000D03*
%TD*%
D22*
%TO.C,U2*%
X173150000Y-66280000D03*
X173150000Y-68180000D03*
X175025000Y-67230000D03*
%TD*%
D12*
%TO.C,R24*%
X112575000Y-97535000D03*
X114225000Y-97535000D03*
%TD*%
D11*
%TO.C,R9*%
X181450000Y-93525000D03*
X181450000Y-91875000D03*
%TD*%
D22*
%TO.C,Q1*%
X107400000Y-120185000D03*
X107400000Y-122085000D03*
X109275000Y-121135000D03*
%TD*%
D16*
%TO.C,R25*%
X100375000Y-96135000D03*
X100375000Y-97785000D03*
%TD*%
%TO.C,R29*%
X100375000Y-106935000D03*
X100375000Y-108585000D03*
%TD*%
M02*
