M48
; DRILL file {KiCad 7.0.2} date Wed Aug 30 16:49:00 2023
; FORMAT={-:-/ absolute / inch / decimal}
; #@! TF.CreationDate,2023-08-30T16:49:00+01:00
; #@! TF.GenerationSoftware,Kicad,Pcbnew,7.0.2
; #@! TF.FileFunction,Plated,1,2,PTH
FMAT,2
INCH
; #@! TA.AperFunction,Plated,PTH,ViaDrill
T1C0.0157
; #@! TA.AperFunction,Plated,PTH,ComponentDrill
T2C0.0315
; #@! TA.AperFunction,Plated,PTH,ComponentDrill
T3C0.0394
; #@! TA.AperFunction,Plated,PTH,ComponentDrill
T4C0.0402
; #@! TA.AperFunction,Plated,PTH,ComponentDrill
T5C0.0512
; #@! TA.AperFunction,Plated,PTH,ComponentDrill
T6C0.0630
%
G90
G05
T1
X3.4803Y-4.4291
X3.5276Y-4.5453
X3.626Y-5.0472
X3.6693Y-4.6654
X3.7067Y-3.9134
X3.7067Y-3.9528
X3.7441Y-4.9331
X3.748Y-5.0866
X3.7795Y-3.5315
X3.7795Y-4.0197
X3.7835Y-4.2874
X3.7913Y-3.9055
X3.8071Y-3.7047
X3.8228Y-4.0079
X3.8346Y-3.6693
X3.9134Y-3.7047
X3.9961Y-3.8898
X3.9961Y-4.311
X4.0433Y-3.4833
X4.1654Y-4.8031
X4.2165Y-3.9016
X4.253Y-4.3976
X4.2549Y-3.5551
X4.3031Y-4.0709
X4.3386Y-3.5906
X4.3543Y-4.0748
X4.3976Y-3.6693
X4.4134Y-3.9724
X4.4331Y-4.7283
X4.4409Y-4.3858
X4.5197Y-4.7283
X4.5354Y-4.1417
X4.5551Y-3.9252
X4.5591Y-3.5118
X4.622Y-4.1417
X4.626Y-4.437
X4.8819Y-2.0866
X4.8819Y-2.3228
X5.0039Y-3.563
X5.4016Y-3.0551
X5.4803Y-4.2992
X5.5472Y-3.5118
X5.5984Y-3.8465
X5.6063Y-3.7717
X5.7913Y-4.5709
X6.126Y-3.2244
X6.1678Y-3.2229
X6.2165Y-3.2244
X6.2638Y-3.2244
X6.3858Y-5.0039
X6.4528Y-3.6811
X6.4567Y-3.7205
X6.4685Y-3.6102
X6.5079Y-3.7559
X6.5197Y-3.2598
X6.5512Y-3.7165
X6.56Y-3.8789
X6.6151Y-3.8237
X6.6299Y-3.4409
X6.6732Y-3.7795
X6.7008Y-3.748
X6.7402Y-3.7392
X6.7638Y-3.3799
X6.7756Y-4.5197
X6.7835Y-3.5748
X6.7953Y-4.2087
X6.8031Y-2.8031
X6.8071Y-3.185
X6.8701Y-4.4488
X6.9646Y-2.6457
X6.9803Y-4.5276
X7.248Y-3.5079
X7.2598Y-4.1014
X7.2598Y-4.2254
X7.2795Y-3.3071
T2
X4.8772Y-2.5433
X5.0149Y-2.5433
T3
X3.3071Y-2.985
X3.3071Y-3.085
X3.3071Y-3.185
X3.3071Y-3.285
X3.3071Y-3.385
X3.3071Y-3.485
X3.3071Y-3.585
X3.3071Y-3.685
X3.3071Y-3.785
X3.3071Y-3.885
X3.3071Y-3.985
X3.3071Y-4.085
X3.3071Y-4.185
X3.3071Y-4.285
X3.3071Y-4.385
X3.3071Y-4.485
X3.3071Y-4.585
X3.3071Y-4.685
X3.7402Y-2.2409
X3.7402Y-2.3409
X3.7402Y-2.4409
X3.7402Y-2.5409
X3.7402Y-2.6409
X3.8402Y-2.2409
X3.8402Y-2.3409
X3.8402Y-2.4409
X3.8402Y-2.5409
X3.8402Y-2.6409
X4.4528Y-2.5669
X4.6496Y-2.5669
X7.7165Y-3.0244
X7.7165Y-3.1244
X7.7165Y-3.2244
X7.7165Y-3.3244
X7.7165Y-3.4244
X7.7165Y-3.5244
X7.7165Y-3.6244
X7.7165Y-3.7244
X7.7165Y-3.8244
X7.7165Y-3.9244
X7.7165Y-4.0244
X7.7165Y-4.1244
X7.7165Y-4.2244
X7.7165Y-4.3244
X7.7165Y-4.4244
X7.7165Y-4.5244
X7.7165Y-4.6244
X7.7165Y-4.7244
T4
X5.2717Y-2.9614
X5.2717Y-3.0614
X5.2717Y-3.1614
X5.2717Y-3.2614
X5.2717Y-3.3614
X5.2717Y-3.4614
X5.2717Y-3.5614
X5.2717Y-3.6614
X5.2717Y-3.7614
X5.2717Y-3.8614
X5.2717Y-3.9614
X5.2717Y-4.0614
X5.2717Y-4.1614
X5.2717Y-4.2614
X5.2717Y-4.3614
X5.2717Y-4.4614
X5.2717Y-4.5614
X5.2717Y-4.6614
X5.2717Y-4.7614
X5.2717Y-4.8614
X5.5217Y-4.8524
X5.6217Y-4.8524
X5.7217Y-4.8524
X5.9717Y-2.9614
X5.9717Y-3.0614
X5.9717Y-3.1614
X5.9717Y-3.2614
X5.9717Y-3.3614
X5.9717Y-3.4614
X5.9717Y-3.5614
X5.9717Y-3.6614
X5.9717Y-3.7614
X5.9717Y-3.8614
X5.9717Y-3.9614
X5.9717Y-4.0614
X5.9717Y-4.1614
X5.9717Y-4.2614
X5.9717Y-4.3614
X5.9717Y-4.4614
X5.9717Y-4.5614
X5.9717Y-4.6614
X5.9717Y-4.7614
X5.9717Y-4.8614
T5
X4.7454Y-2.8622
X4.8635Y-2.8622
T6
X4.1929Y-2.2346
X4.1929Y-2.8346
T0
M30
