%TF.GenerationSoftware,KiCad,Pcbnew,7.0.2*%
%TF.CreationDate,2023-08-30T16:49:00+01:00*%
%TF.ProjectId,dk2_02_bottom,646b325f-3032-45f6-926f-74746f6d2e6b,rev?*%
%TF.SameCoordinates,Original*%
%TF.FileFunction,Legend,Bot*%
%TF.FilePolarity,Positive*%
%FSLAX46Y46*%
G04 Gerber Fmt 4.6, Leading zero omitted, Abs format (unit mm)*
G04 Created by KiCad (PCBNEW 7.0.2) date 2023-08-30 16:49:00*
%MOMM*%
%LPD*%
G01*
G04 APERTURE LIST*
G04 Aperture macros list*
%AMRoundRect*
0 Rectangle with rounded corners*
0 $1 Rounding radius*
0 $2 $3 $4 $5 $6 $7 $8 $9 X,Y pos of 4 corners*
0 Add a 4 corners polygon primitive as box body*
4,1,4,$2,$3,$4,$5,$6,$7,$8,$9,$2,$3,0*
0 Add four circle primitives for the rounded corners*
1,1,$1+$1,$2,$3*
1,1,$1+$1,$4,$5*
1,1,$1+$1,$6,$7*
1,1,$1+$1,$8,$9*
0 Add four rect primitives between the rounded corners*
20,1,$1+$1,$2,$3,$4,$5,0*
20,1,$1+$1,$4,$5,$6,$7,0*
20,1,$1+$1,$6,$7,$8,$9,0*
20,1,$1+$1,$8,$9,$2,$3,0*%
G04 Aperture macros list end*
%ADD10C,0.150000*%
%ADD11C,0.120000*%
%ADD12C,3.200000*%
%ADD13R,1.700000X1.700000*%
%ADD14O,1.700000X1.700000*%
%ADD15RoundRect,0.250000X-0.600000X-0.600000X0.600000X-0.600000X0.600000X0.600000X-0.600000X0.600000X0*%
%ADD16C,1.700000*%
%ADD17C,2.600000*%
%ADD18R,1.600000X1.600000*%
%ADD19C,1.600000*%
%ADD20R,2.000000X2.000000*%
%ADD21C,2.000000*%
%ADD22R,3.200000X3.200000*%
%ADD23O,3.200000X3.200000*%
%ADD24O,1.800000X1.800000*%
%ADD25O,1.500000X1.500000*%
%ADD26R,3.500000X1.700000*%
%ADD27R,1.700000X3.500000*%
G04 APERTURE END LIST*
D10*
X103809523Y-72877619D02*
X103809523Y-73068095D01*
X103428571Y-72877619D02*
X103428571Y-73068095D01*
X102428571Y-73877619D02*
X102761904Y-73401428D01*
X102999999Y-73877619D02*
X102999999Y-72877619D01*
X102999999Y-72877619D02*
X102619047Y-72877619D01*
X102619047Y-72877619D02*
X102523809Y-72925238D01*
X102523809Y-72925238D02*
X102476190Y-72972857D01*
X102476190Y-72972857D02*
X102428571Y-73068095D01*
X102428571Y-73068095D02*
X102428571Y-73210952D01*
X102428571Y-73210952D02*
X102476190Y-73306190D01*
X102476190Y-73306190D02*
X102523809Y-73353809D01*
X102523809Y-73353809D02*
X102619047Y-73401428D01*
X102619047Y-73401428D02*
X102999999Y-73401428D01*
X101999999Y-73353809D02*
X101666666Y-73353809D01*
X101523809Y-73877619D02*
X101999999Y-73877619D01*
X101999999Y-73877619D02*
X101999999Y-72877619D01*
X101999999Y-72877619D02*
X101523809Y-72877619D01*
X101095237Y-73877619D02*
X101095237Y-72877619D01*
X101095237Y-72877619D02*
X100857142Y-72877619D01*
X100857142Y-72877619D02*
X100714285Y-72925238D01*
X100714285Y-72925238D02*
X100619047Y-73020476D01*
X100619047Y-73020476D02*
X100571428Y-73115714D01*
X100571428Y-73115714D02*
X100523809Y-73306190D01*
X100523809Y-73306190D02*
X100523809Y-73449047D01*
X100523809Y-73449047D02*
X100571428Y-73639523D01*
X100571428Y-73639523D02*
X100619047Y-73734761D01*
X100619047Y-73734761D02*
X100714285Y-73830000D01*
X100714285Y-73830000D02*
X100857142Y-73877619D01*
X100857142Y-73877619D02*
X101095237Y-73877619D01*
X99380951Y-73830000D02*
X99238094Y-73877619D01*
X99238094Y-73877619D02*
X98999999Y-73877619D01*
X98999999Y-73877619D02*
X98904761Y-73830000D01*
X98904761Y-73830000D02*
X98857142Y-73782380D01*
X98857142Y-73782380D02*
X98809523Y-73687142D01*
X98809523Y-73687142D02*
X98809523Y-73591904D01*
X98809523Y-73591904D02*
X98857142Y-73496666D01*
X98857142Y-73496666D02*
X98904761Y-73449047D01*
X98904761Y-73449047D02*
X98999999Y-73401428D01*
X98999999Y-73401428D02*
X99190475Y-73353809D01*
X99190475Y-73353809D02*
X99285713Y-73306190D01*
X99285713Y-73306190D02*
X99333332Y-73258571D01*
X99333332Y-73258571D02*
X99380951Y-73163333D01*
X99380951Y-73163333D02*
X99380951Y-73068095D01*
X99380951Y-73068095D02*
X99333332Y-72972857D01*
X99333332Y-72972857D02*
X99285713Y-72925238D01*
X99285713Y-72925238D02*
X99190475Y-72877619D01*
X99190475Y-72877619D02*
X98952380Y-72877619D01*
X98952380Y-72877619D02*
X98809523Y-72925238D01*
X98523808Y-72877619D02*
X97952380Y-72877619D01*
X98238094Y-73877619D02*
X98238094Y-72877619D01*
X97047618Y-73877619D02*
X97380951Y-73401428D01*
X97619046Y-73877619D02*
X97619046Y-72877619D01*
X97619046Y-72877619D02*
X97238094Y-72877619D01*
X97238094Y-72877619D02*
X97142856Y-72925238D01*
X97142856Y-72925238D02*
X97095237Y-72972857D01*
X97095237Y-72972857D02*
X97047618Y-73068095D01*
X97047618Y-73068095D02*
X97047618Y-73210952D01*
X97047618Y-73210952D02*
X97095237Y-73306190D01*
X97095237Y-73306190D02*
X97142856Y-73353809D01*
X97142856Y-73353809D02*
X97238094Y-73401428D01*
X97238094Y-73401428D02*
X97619046Y-73401428D01*
X96619046Y-73877619D02*
X96619046Y-72877619D01*
X96142856Y-73877619D02*
X96142856Y-72877619D01*
X96142856Y-72877619D02*
X95761904Y-72877619D01*
X95761904Y-72877619D02*
X95666666Y-72925238D01*
X95666666Y-72925238D02*
X95619047Y-72972857D01*
X95619047Y-72972857D02*
X95571428Y-73068095D01*
X95571428Y-73068095D02*
X95571428Y-73210952D01*
X95571428Y-73210952D02*
X95619047Y-73306190D01*
X95619047Y-73306190D02*
X95666666Y-73353809D01*
X95666666Y-73353809D02*
X95761904Y-73401428D01*
X95761904Y-73401428D02*
X96142856Y-73401428D01*
X95142856Y-73353809D02*
X94809523Y-73353809D01*
X94666666Y-73877619D02*
X95142856Y-73877619D01*
X95142856Y-73877619D02*
X95142856Y-72877619D01*
X95142856Y-72877619D02*
X94666666Y-72877619D01*
X94285713Y-72877619D02*
X94285713Y-73068095D01*
X93904761Y-72877619D02*
X93904761Y-73068095D01*
X92428570Y-74258571D02*
X92476189Y-74210952D01*
X92476189Y-74210952D02*
X92571427Y-74068095D01*
X92571427Y-74068095D02*
X92619046Y-73972857D01*
X92619046Y-73972857D02*
X92666665Y-73830000D01*
X92666665Y-73830000D02*
X92714284Y-73591904D01*
X92714284Y-73591904D02*
X92714284Y-73401428D01*
X92714284Y-73401428D02*
X92666665Y-73163333D01*
X92666665Y-73163333D02*
X92619046Y-73020476D01*
X92619046Y-73020476D02*
X92571427Y-72925238D01*
X92571427Y-72925238D02*
X92476189Y-72782380D01*
X92476189Y-72782380D02*
X92428570Y-72734761D01*
X92047617Y-73496666D02*
X91285713Y-73496666D01*
X90285713Y-73877619D02*
X90857141Y-73877619D01*
X90571427Y-73877619D02*
X90571427Y-72877619D01*
X90571427Y-72877619D02*
X90666665Y-73020476D01*
X90666665Y-73020476D02*
X90761903Y-73115714D01*
X90761903Y-73115714D02*
X90857141Y-73163333D01*
X89904760Y-72972857D02*
X89857141Y-72925238D01*
X89857141Y-72925238D02*
X89761903Y-72877619D01*
X89761903Y-72877619D02*
X89523808Y-72877619D01*
X89523808Y-72877619D02*
X89428570Y-72925238D01*
X89428570Y-72925238D02*
X89380951Y-72972857D01*
X89380951Y-72972857D02*
X89333332Y-73068095D01*
X89333332Y-73068095D02*
X89333332Y-73163333D01*
X89333332Y-73163333D02*
X89380951Y-73306190D01*
X89380951Y-73306190D02*
X89952379Y-73877619D01*
X89952379Y-73877619D02*
X89333332Y-73877619D01*
X89047617Y-72877619D02*
X88714284Y-73877619D01*
X88714284Y-73877619D02*
X88380951Y-72877619D01*
X88142855Y-74258571D02*
X88095236Y-74210952D01*
X88095236Y-74210952D02*
X87999998Y-74068095D01*
X87999998Y-74068095D02*
X87952379Y-73972857D01*
X87952379Y-73972857D02*
X87904760Y-73830000D01*
X87904760Y-73830000D02*
X87857141Y-73591904D01*
X87857141Y-73591904D02*
X87857141Y-73401428D01*
X87857141Y-73401428D02*
X87904760Y-73163333D01*
X87904760Y-73163333D02*
X87952379Y-73020476D01*
X87952379Y-73020476D02*
X87999998Y-72925238D01*
X87999998Y-72925238D02*
X88095236Y-72782380D01*
X88095236Y-72782380D02*
X88142855Y-72734761D01*
X188285714Y-60632857D02*
X188285714Y-57632857D01*
X188285714Y-57632857D02*
X187571428Y-57632857D01*
X187571428Y-57632857D02*
X187142857Y-57775714D01*
X187142857Y-57775714D02*
X186857142Y-58061428D01*
X186857142Y-58061428D02*
X186714285Y-58347142D01*
X186714285Y-58347142D02*
X186571428Y-58918571D01*
X186571428Y-58918571D02*
X186571428Y-59347142D01*
X186571428Y-59347142D02*
X186714285Y-59918571D01*
X186714285Y-59918571D02*
X186857142Y-60204285D01*
X186857142Y-60204285D02*
X187142857Y-60490000D01*
X187142857Y-60490000D02*
X187571428Y-60632857D01*
X187571428Y-60632857D02*
X188285714Y-60632857D01*
X185285714Y-60632857D02*
X185285714Y-58632857D01*
X185285714Y-59204285D02*
X185142857Y-58918571D01*
X185142857Y-58918571D02*
X185000000Y-58775714D01*
X185000000Y-58775714D02*
X184714285Y-58632857D01*
X184714285Y-58632857D02*
X184428571Y-58632857D01*
X182142857Y-58632857D02*
X182142857Y-60632857D01*
X183428571Y-58632857D02*
X183428571Y-60204285D01*
X183428571Y-60204285D02*
X183285714Y-60490000D01*
X183285714Y-60490000D02*
X182999999Y-60632857D01*
X182999999Y-60632857D02*
X182571428Y-60632857D01*
X182571428Y-60632857D02*
X182285714Y-60490000D01*
X182285714Y-60490000D02*
X182142857Y-60347142D01*
X180714285Y-60632857D02*
X180714285Y-58632857D01*
X180714285Y-58918571D02*
X180571428Y-58775714D01*
X180571428Y-58775714D02*
X180285713Y-58632857D01*
X180285713Y-58632857D02*
X179857142Y-58632857D01*
X179857142Y-58632857D02*
X179571428Y-58775714D01*
X179571428Y-58775714D02*
X179428571Y-59061428D01*
X179428571Y-59061428D02*
X179428571Y-60632857D01*
X179428571Y-59061428D02*
X179285713Y-58775714D01*
X179285713Y-58775714D02*
X178999999Y-58632857D01*
X178999999Y-58632857D02*
X178571428Y-58632857D01*
X178571428Y-58632857D02*
X178285713Y-58775714D01*
X178285713Y-58775714D02*
X178142856Y-59061428D01*
X178142856Y-59061428D02*
X178142856Y-60632857D01*
X176714285Y-60632857D02*
X176714285Y-57632857D01*
X176428571Y-59490000D02*
X175571428Y-60632857D01*
X175571428Y-58632857D02*
X176714285Y-59775714D01*
X174285714Y-60632857D02*
X174285714Y-58632857D01*
X174285714Y-57632857D02*
X174428571Y-57775714D01*
X174428571Y-57775714D02*
X174285714Y-57918571D01*
X174285714Y-57918571D02*
X174142857Y-57775714D01*
X174142857Y-57775714D02*
X174285714Y-57632857D01*
X174285714Y-57632857D02*
X174285714Y-57918571D01*
X171571429Y-60632857D02*
X171571429Y-57632857D01*
X171571429Y-60490000D02*
X171857143Y-60632857D01*
X171857143Y-60632857D02*
X172428571Y-60632857D01*
X172428571Y-60632857D02*
X172714286Y-60490000D01*
X172714286Y-60490000D02*
X172857143Y-60347142D01*
X172857143Y-60347142D02*
X173000000Y-60061428D01*
X173000000Y-60061428D02*
X173000000Y-59204285D01*
X173000000Y-59204285D02*
X172857143Y-58918571D01*
X172857143Y-58918571D02*
X172714286Y-58775714D01*
X172714286Y-58775714D02*
X172428571Y-58632857D01*
X172428571Y-58632857D02*
X171857143Y-58632857D01*
X171857143Y-58632857D02*
X171571429Y-58775714D01*
X168000000Y-57918571D02*
X167857143Y-57775714D01*
X167857143Y-57775714D02*
X167571429Y-57632857D01*
X167571429Y-57632857D02*
X166857143Y-57632857D01*
X166857143Y-57632857D02*
X166571429Y-57775714D01*
X166571429Y-57775714D02*
X166428571Y-57918571D01*
X166428571Y-57918571D02*
X166285714Y-58204285D01*
X166285714Y-58204285D02*
X166285714Y-58490000D01*
X166285714Y-58490000D02*
X166428571Y-58918571D01*
X166428571Y-58918571D02*
X168142857Y-60632857D01*
X168142857Y-60632857D02*
X166285714Y-60632857D01*
X165000000Y-60347142D02*
X164857143Y-60490000D01*
X164857143Y-60490000D02*
X165000000Y-60632857D01*
X165000000Y-60632857D02*
X165142857Y-60490000D01*
X165142857Y-60490000D02*
X165000000Y-60347142D01*
X165000000Y-60347142D02*
X165000000Y-60632857D01*
X163000000Y-57632857D02*
X162714286Y-57632857D01*
X162714286Y-57632857D02*
X162428572Y-57775714D01*
X162428572Y-57775714D02*
X162285715Y-57918571D01*
X162285715Y-57918571D02*
X162142857Y-58204285D01*
X162142857Y-58204285D02*
X162000000Y-58775714D01*
X162000000Y-58775714D02*
X162000000Y-59490000D01*
X162000000Y-59490000D02*
X162142857Y-60061428D01*
X162142857Y-60061428D02*
X162285715Y-60347142D01*
X162285715Y-60347142D02*
X162428572Y-60490000D01*
X162428572Y-60490000D02*
X162714286Y-60632857D01*
X162714286Y-60632857D02*
X163000000Y-60632857D01*
X163000000Y-60632857D02*
X163285715Y-60490000D01*
X163285715Y-60490000D02*
X163428572Y-60347142D01*
X163428572Y-60347142D02*
X163571429Y-60061428D01*
X163571429Y-60061428D02*
X163714286Y-59490000D01*
X163714286Y-59490000D02*
X163714286Y-58775714D01*
X163714286Y-58775714D02*
X163571429Y-58204285D01*
X163571429Y-58204285D02*
X163428572Y-57918571D01*
X163428572Y-57918571D02*
X163285715Y-57775714D01*
X163285715Y-57775714D02*
X163000000Y-57632857D01*
X160857143Y-57918571D02*
X160714286Y-57775714D01*
X160714286Y-57775714D02*
X160428572Y-57632857D01*
X160428572Y-57632857D02*
X159714286Y-57632857D01*
X159714286Y-57632857D02*
X159428572Y-57775714D01*
X159428572Y-57775714D02*
X159285714Y-57918571D01*
X159285714Y-57918571D02*
X159142857Y-58204285D01*
X159142857Y-58204285D02*
X159142857Y-58490000D01*
X159142857Y-58490000D02*
X159285714Y-58918571D01*
X159285714Y-58918571D02*
X161000000Y-60632857D01*
X161000000Y-60632857D02*
X159142857Y-60632857D01*
X154714286Y-61775714D02*
X154857143Y-61632857D01*
X154857143Y-61632857D02*
X155142857Y-61204285D01*
X155142857Y-61204285D02*
X155285715Y-60918571D01*
X155285715Y-60918571D02*
X155428572Y-60490000D01*
X155428572Y-60490000D02*
X155571429Y-59775714D01*
X155571429Y-59775714D02*
X155571429Y-59204285D01*
X155571429Y-59204285D02*
X155428572Y-58490000D01*
X155428572Y-58490000D02*
X155285715Y-58061428D01*
X155285715Y-58061428D02*
X155142857Y-57775714D01*
X155142857Y-57775714D02*
X154857143Y-57347142D01*
X154857143Y-57347142D02*
X154714286Y-57204285D01*
X153571429Y-59061428D02*
X152571429Y-59061428D01*
X152142857Y-60632857D02*
X153571429Y-60632857D01*
X153571429Y-60632857D02*
X153571429Y-57632857D01*
X153571429Y-57632857D02*
X152142857Y-57632857D01*
X149571429Y-58632857D02*
X149571429Y-60632857D01*
X150857143Y-58632857D02*
X150857143Y-60204285D01*
X150857143Y-60204285D02*
X150714286Y-60490000D01*
X150714286Y-60490000D02*
X150428571Y-60632857D01*
X150428571Y-60632857D02*
X150000000Y-60632857D01*
X150000000Y-60632857D02*
X149714286Y-60490000D01*
X149714286Y-60490000D02*
X149571429Y-60347142D01*
X148142857Y-60632857D02*
X148142857Y-58632857D01*
X148142857Y-59204285D02*
X148000000Y-58918571D01*
X148000000Y-58918571D02*
X147857143Y-58775714D01*
X147857143Y-58775714D02*
X147571428Y-58632857D01*
X147571428Y-58632857D02*
X147285714Y-58632857D01*
X145857142Y-60632857D02*
X146142857Y-60490000D01*
X146142857Y-60490000D02*
X146285714Y-60347142D01*
X146285714Y-60347142D02*
X146428571Y-60061428D01*
X146428571Y-60061428D02*
X146428571Y-59204285D01*
X146428571Y-59204285D02*
X146285714Y-58918571D01*
X146285714Y-58918571D02*
X146142857Y-58775714D01*
X146142857Y-58775714D02*
X145857142Y-58632857D01*
X145857142Y-58632857D02*
X145428571Y-58632857D01*
X145428571Y-58632857D02*
X145142857Y-58775714D01*
X145142857Y-58775714D02*
X145000000Y-58918571D01*
X145000000Y-58918571D02*
X144857142Y-59204285D01*
X144857142Y-59204285D02*
X144857142Y-60061428D01*
X144857142Y-60061428D02*
X145000000Y-60347142D01*
X145000000Y-60347142D02*
X145142857Y-60490000D01*
X145142857Y-60490000D02*
X145428571Y-60632857D01*
X145428571Y-60632857D02*
X145857142Y-60632857D01*
X143571428Y-60632857D02*
X143571428Y-58632857D01*
X143571428Y-59204285D02*
X143428571Y-58918571D01*
X143428571Y-58918571D02*
X143285714Y-58775714D01*
X143285714Y-58775714D02*
X142999999Y-58632857D01*
X142999999Y-58632857D02*
X142714285Y-58632857D01*
X140428571Y-60632857D02*
X140428571Y-59061428D01*
X140428571Y-59061428D02*
X140571428Y-58775714D01*
X140571428Y-58775714D02*
X140857142Y-58632857D01*
X140857142Y-58632857D02*
X141428571Y-58632857D01*
X141428571Y-58632857D02*
X141714285Y-58775714D01*
X140428571Y-60490000D02*
X140714285Y-60632857D01*
X140714285Y-60632857D02*
X141428571Y-60632857D01*
X141428571Y-60632857D02*
X141714285Y-60490000D01*
X141714285Y-60490000D02*
X141857142Y-60204285D01*
X141857142Y-60204285D02*
X141857142Y-59918571D01*
X141857142Y-59918571D02*
X141714285Y-59632857D01*
X141714285Y-59632857D02*
X141428571Y-59490000D01*
X141428571Y-59490000D02*
X140714285Y-59490000D01*
X140714285Y-59490000D02*
X140428571Y-59347142D01*
X137714285Y-60490000D02*
X137999999Y-60632857D01*
X137999999Y-60632857D02*
X138571427Y-60632857D01*
X138571427Y-60632857D02*
X138857142Y-60490000D01*
X138857142Y-60490000D02*
X138999999Y-60347142D01*
X138999999Y-60347142D02*
X139142856Y-60061428D01*
X139142856Y-60061428D02*
X139142856Y-59204285D01*
X139142856Y-59204285D02*
X138999999Y-58918571D01*
X138999999Y-58918571D02*
X138857142Y-58775714D01*
X138857142Y-58775714D02*
X138571427Y-58632857D01*
X138571427Y-58632857D02*
X137999999Y-58632857D01*
X137999999Y-58632857D02*
X137714285Y-58775714D01*
X136428570Y-60632857D02*
X136428570Y-57632857D01*
X136142856Y-59490000D02*
X135285713Y-60632857D01*
X135285713Y-58632857D02*
X136428570Y-59775714D01*
X134285713Y-61775714D02*
X134142856Y-61632857D01*
X134142856Y-61632857D02*
X133857142Y-61204285D01*
X133857142Y-61204285D02*
X133714285Y-60918571D01*
X133714285Y-60918571D02*
X133571427Y-60490000D01*
X133571427Y-60490000D02*
X133428570Y-59775714D01*
X133428570Y-59775714D02*
X133428570Y-59204285D01*
X133428570Y-59204285D02*
X133571427Y-58490000D01*
X133571427Y-58490000D02*
X133714285Y-58061428D01*
X133714285Y-58061428D02*
X133857142Y-57775714D01*
X133857142Y-57775714D02*
X134142856Y-57347142D01*
X134142856Y-57347142D02*
X134285713Y-57204285D01*
%TO.C,J3*%
X90333333Y-69462619D02*
X90333333Y-70176904D01*
X90333333Y-70176904D02*
X90380952Y-70319761D01*
X90380952Y-70319761D02*
X90476190Y-70415000D01*
X90476190Y-70415000D02*
X90619047Y-70462619D01*
X90619047Y-70462619D02*
X90714285Y-70462619D01*
X89952380Y-69462619D02*
X89333333Y-69462619D01*
X89333333Y-69462619D02*
X89666666Y-69843571D01*
X89666666Y-69843571D02*
X89523809Y-69843571D01*
X89523809Y-69843571D02*
X89428571Y-69891190D01*
X89428571Y-69891190D02*
X89380952Y-69938809D01*
X89380952Y-69938809D02*
X89333333Y-70034047D01*
X89333333Y-70034047D02*
X89333333Y-70272142D01*
X89333333Y-70272142D02*
X89380952Y-70367380D01*
X89380952Y-70367380D02*
X89428571Y-70415000D01*
X89428571Y-70415000D02*
X89523809Y-70462619D01*
X89523809Y-70462619D02*
X89809523Y-70462619D01*
X89809523Y-70462619D02*
X89904761Y-70415000D01*
X89904761Y-70415000D02*
X89952380Y-70367380D01*
%TO.C,L1*%
X122198989Y-77912619D02*
X122675179Y-77912619D01*
X122675179Y-77912619D02*
X122675179Y-76912619D01*
X121341846Y-77912619D02*
X121913274Y-77912619D01*
X121627560Y-77912619D02*
X121627560Y-76912619D01*
X121627560Y-76912619D02*
X121722798Y-77055476D01*
X121722798Y-77055476D02*
X121818036Y-77150714D01*
X121818036Y-77150714D02*
X121913274Y-77198333D01*
%TO.C,C27*%
X126272529Y-70217380D02*
X126320148Y-70265000D01*
X126320148Y-70265000D02*
X126463005Y-70312619D01*
X126463005Y-70312619D02*
X126558243Y-70312619D01*
X126558243Y-70312619D02*
X126701100Y-70265000D01*
X126701100Y-70265000D02*
X126796338Y-70169761D01*
X126796338Y-70169761D02*
X126843957Y-70074523D01*
X126843957Y-70074523D02*
X126891576Y-69884047D01*
X126891576Y-69884047D02*
X126891576Y-69741190D01*
X126891576Y-69741190D02*
X126843957Y-69550714D01*
X126843957Y-69550714D02*
X126796338Y-69455476D01*
X126796338Y-69455476D02*
X126701100Y-69360238D01*
X126701100Y-69360238D02*
X126558243Y-69312619D01*
X126558243Y-69312619D02*
X126463005Y-69312619D01*
X126463005Y-69312619D02*
X126320148Y-69360238D01*
X126320148Y-69360238D02*
X126272529Y-69407857D01*
X125891576Y-69407857D02*
X125843957Y-69360238D01*
X125843957Y-69360238D02*
X125748719Y-69312619D01*
X125748719Y-69312619D02*
X125510624Y-69312619D01*
X125510624Y-69312619D02*
X125415386Y-69360238D01*
X125415386Y-69360238D02*
X125367767Y-69407857D01*
X125367767Y-69407857D02*
X125320148Y-69503095D01*
X125320148Y-69503095D02*
X125320148Y-69598333D01*
X125320148Y-69598333D02*
X125367767Y-69741190D01*
X125367767Y-69741190D02*
X125939195Y-70312619D01*
X125939195Y-70312619D02*
X125320148Y-70312619D01*
X124986814Y-69312619D02*
X124320148Y-69312619D01*
X124320148Y-69312619D02*
X124748719Y-70312619D01*
%TO.C,C25*%
X116242857Y-59317380D02*
X116290476Y-59365000D01*
X116290476Y-59365000D02*
X116433333Y-59412619D01*
X116433333Y-59412619D02*
X116528571Y-59412619D01*
X116528571Y-59412619D02*
X116671428Y-59365000D01*
X116671428Y-59365000D02*
X116766666Y-59269761D01*
X116766666Y-59269761D02*
X116814285Y-59174523D01*
X116814285Y-59174523D02*
X116861904Y-58984047D01*
X116861904Y-58984047D02*
X116861904Y-58841190D01*
X116861904Y-58841190D02*
X116814285Y-58650714D01*
X116814285Y-58650714D02*
X116766666Y-58555476D01*
X116766666Y-58555476D02*
X116671428Y-58460238D01*
X116671428Y-58460238D02*
X116528571Y-58412619D01*
X116528571Y-58412619D02*
X116433333Y-58412619D01*
X116433333Y-58412619D02*
X116290476Y-58460238D01*
X116290476Y-58460238D02*
X116242857Y-58507857D01*
X115861904Y-58507857D02*
X115814285Y-58460238D01*
X115814285Y-58460238D02*
X115719047Y-58412619D01*
X115719047Y-58412619D02*
X115480952Y-58412619D01*
X115480952Y-58412619D02*
X115385714Y-58460238D01*
X115385714Y-58460238D02*
X115338095Y-58507857D01*
X115338095Y-58507857D02*
X115290476Y-58603095D01*
X115290476Y-58603095D02*
X115290476Y-58698333D01*
X115290476Y-58698333D02*
X115338095Y-58841190D01*
X115338095Y-58841190D02*
X115909523Y-59412619D01*
X115909523Y-59412619D02*
X115290476Y-59412619D01*
X114385714Y-58412619D02*
X114861904Y-58412619D01*
X114861904Y-58412619D02*
X114909523Y-58888809D01*
X114909523Y-58888809D02*
X114861904Y-58841190D01*
X114861904Y-58841190D02*
X114766666Y-58793571D01*
X114766666Y-58793571D02*
X114528571Y-58793571D01*
X114528571Y-58793571D02*
X114433333Y-58841190D01*
X114433333Y-58841190D02*
X114385714Y-58888809D01*
X114385714Y-58888809D02*
X114338095Y-58984047D01*
X114338095Y-58984047D02*
X114338095Y-59222142D01*
X114338095Y-59222142D02*
X114385714Y-59317380D01*
X114385714Y-59317380D02*
X114433333Y-59365000D01*
X114433333Y-59365000D02*
X114528571Y-59412619D01*
X114528571Y-59412619D02*
X114766666Y-59412619D01*
X114766666Y-59412619D02*
X114861904Y-59365000D01*
X114861904Y-59365000D02*
X114909523Y-59317380D01*
%TO.C,D2*%
X110682619Y-63641905D02*
X109682619Y-63641905D01*
X109682619Y-63641905D02*
X109682619Y-63880000D01*
X109682619Y-63880000D02*
X109730238Y-64022857D01*
X109730238Y-64022857D02*
X109825476Y-64118095D01*
X109825476Y-64118095D02*
X109920714Y-64165714D01*
X109920714Y-64165714D02*
X110111190Y-64213333D01*
X110111190Y-64213333D02*
X110254047Y-64213333D01*
X110254047Y-64213333D02*
X110444523Y-64165714D01*
X110444523Y-64165714D02*
X110539761Y-64118095D01*
X110539761Y-64118095D02*
X110635000Y-64022857D01*
X110635000Y-64022857D02*
X110682619Y-63880000D01*
X110682619Y-63880000D02*
X110682619Y-63641905D01*
X109777857Y-64594286D02*
X109730238Y-64641905D01*
X109730238Y-64641905D02*
X109682619Y-64737143D01*
X109682619Y-64737143D02*
X109682619Y-64975238D01*
X109682619Y-64975238D02*
X109730238Y-65070476D01*
X109730238Y-65070476D02*
X109777857Y-65118095D01*
X109777857Y-65118095D02*
X109873095Y-65165714D01*
X109873095Y-65165714D02*
X109968333Y-65165714D01*
X109968333Y-65165714D02*
X110111190Y-65118095D01*
X110111190Y-65118095D02*
X110682619Y-64546667D01*
X110682619Y-64546667D02*
X110682619Y-65165714D01*
X109562619Y-71738095D02*
X108562619Y-71738095D01*
X109562619Y-72309523D02*
X108991190Y-71880952D01*
X108562619Y-72309523D02*
X109134047Y-71738095D01*
%TO.C,U1*%
X143551904Y-98812619D02*
X143551904Y-99622142D01*
X143551904Y-99622142D02*
X143504285Y-99717380D01*
X143504285Y-99717380D02*
X143456666Y-99765000D01*
X143456666Y-99765000D02*
X143361428Y-99812619D01*
X143361428Y-99812619D02*
X143170952Y-99812619D01*
X143170952Y-99812619D02*
X143075714Y-99765000D01*
X143075714Y-99765000D02*
X143028095Y-99717380D01*
X143028095Y-99717380D02*
X142980476Y-99622142D01*
X142980476Y-99622142D02*
X142980476Y-98812619D01*
X141980476Y-99812619D02*
X142551904Y-99812619D01*
X142266190Y-99812619D02*
X142266190Y-98812619D01*
X142266190Y-98812619D02*
X142361428Y-98955476D01*
X142361428Y-98955476D02*
X142456666Y-99050714D01*
X142456666Y-99050714D02*
X142551904Y-99098333D01*
X156271111Y-90587009D02*
X156351924Y-90613946D01*
X156351924Y-90613946D02*
X156432736Y-90694759D01*
X156432736Y-90694759D02*
X156486611Y-90802508D01*
X156486611Y-90802508D02*
X156486611Y-90910258D01*
X156486611Y-90910258D02*
X156459673Y-90991070D01*
X156459673Y-90991070D02*
X156378861Y-91125757D01*
X156378861Y-91125757D02*
X156298049Y-91206569D01*
X156298049Y-91206569D02*
X156163362Y-91287382D01*
X156163362Y-91287382D02*
X156082550Y-91314319D01*
X156082550Y-91314319D02*
X155974800Y-91314319D01*
X155974800Y-91314319D02*
X155867050Y-91260444D01*
X155867050Y-91260444D02*
X155813176Y-91206569D01*
X155813176Y-91206569D02*
X155759301Y-91098820D01*
X155759301Y-91098820D02*
X155759301Y-91044945D01*
X155759301Y-91044945D02*
X155947863Y-90856383D01*
X155947863Y-90856383D02*
X156055612Y-90964133D01*
X155462989Y-90856383D02*
X156028675Y-90290698D01*
X156028675Y-90290698D02*
X155813176Y-90075198D01*
X155813176Y-90075198D02*
X155732363Y-90048261D01*
X155732363Y-90048261D02*
X155678489Y-90048261D01*
X155678489Y-90048261D02*
X155597676Y-90075198D01*
X155597676Y-90075198D02*
X155516864Y-90156011D01*
X155516864Y-90156011D02*
X155489927Y-90236823D01*
X155489927Y-90236823D02*
X155489927Y-90290698D01*
X155489927Y-90290698D02*
X155516864Y-90371510D01*
X155516864Y-90371510D02*
X155732363Y-90587009D01*
X155193615Y-89455638D02*
X155462989Y-89725012D01*
X155462989Y-89725012D02*
X155220553Y-90021324D01*
X155220553Y-90021324D02*
X155220553Y-89967449D01*
X155220553Y-89967449D02*
X155193615Y-89886637D01*
X155193615Y-89886637D02*
X155058928Y-89751950D01*
X155058928Y-89751950D02*
X154978116Y-89725012D01*
X154978116Y-89725012D02*
X154924241Y-89725012D01*
X154924241Y-89725012D02*
X154843429Y-89751950D01*
X154843429Y-89751950D02*
X154708742Y-89886637D01*
X154708742Y-89886637D02*
X154681805Y-89967449D01*
X154681805Y-89967449D02*
X154681805Y-90021324D01*
X154681805Y-90021324D02*
X154708742Y-90102136D01*
X154708742Y-90102136D02*
X154843429Y-90236823D01*
X154843429Y-90236823D02*
X154924241Y-90263760D01*
X154924241Y-90263760D02*
X154978116Y-90263760D01*
X130686486Y-90602384D02*
X130767298Y-90629321D01*
X130767298Y-90629321D02*
X130848110Y-90710133D01*
X130848110Y-90710133D02*
X130901985Y-90817883D01*
X130901985Y-90817883D02*
X130901985Y-90925632D01*
X130901985Y-90925632D02*
X130875048Y-91006445D01*
X130875048Y-91006445D02*
X130794235Y-91141132D01*
X130794235Y-91141132D02*
X130713423Y-91221944D01*
X130713423Y-91221944D02*
X130578736Y-91302756D01*
X130578736Y-91302756D02*
X130497924Y-91329693D01*
X130497924Y-91329693D02*
X130390174Y-91329693D01*
X130390174Y-91329693D02*
X130282425Y-91275819D01*
X130282425Y-91275819D02*
X130228550Y-91221944D01*
X130228550Y-91221944D02*
X130174675Y-91114194D01*
X130174675Y-91114194D02*
X130174675Y-91060319D01*
X130174675Y-91060319D02*
X130363237Y-90871758D01*
X130363237Y-90871758D02*
X130470987Y-90979507D01*
X129878364Y-90871758D02*
X130444049Y-90306072D01*
X130444049Y-90306072D02*
X130228550Y-90090573D01*
X130228550Y-90090573D02*
X130147738Y-90063636D01*
X130147738Y-90063636D02*
X130093863Y-90063636D01*
X130093863Y-90063636D02*
X130013051Y-90090573D01*
X130013051Y-90090573D02*
X129932239Y-90171385D01*
X129932239Y-90171385D02*
X129905301Y-90252197D01*
X129905301Y-90252197D02*
X129905301Y-90306072D01*
X129905301Y-90306072D02*
X129932239Y-90386884D01*
X129932239Y-90386884D02*
X130147738Y-90602384D01*
X129851426Y-89821199D02*
X129851426Y-89767324D01*
X129851426Y-89767324D02*
X129824489Y-89686512D01*
X129824489Y-89686512D02*
X129689802Y-89551825D01*
X129689802Y-89551825D02*
X129608990Y-89524887D01*
X129608990Y-89524887D02*
X129555115Y-89524887D01*
X129555115Y-89524887D02*
X129474303Y-89551825D01*
X129474303Y-89551825D02*
X129420428Y-89605700D01*
X129420428Y-89605700D02*
X129366553Y-89713449D01*
X129366553Y-89713449D02*
X129366553Y-90359947D01*
X129366553Y-90359947D02*
X129016367Y-90009761D01*
X129016367Y-89363263D02*
X129097179Y-89390200D01*
X129097179Y-89390200D02*
X129151054Y-89390200D01*
X129151054Y-89390200D02*
X129231866Y-89363263D01*
X129231866Y-89363263D02*
X129258803Y-89336326D01*
X129258803Y-89336326D02*
X129285741Y-89255513D01*
X129285741Y-89255513D02*
X129285741Y-89201638D01*
X129285741Y-89201638D02*
X129258803Y-89120826D01*
X129258803Y-89120826D02*
X129151054Y-89013077D01*
X129151054Y-89013077D02*
X129070242Y-88986139D01*
X129070242Y-88986139D02*
X129016367Y-88986139D01*
X129016367Y-88986139D02*
X128935555Y-89013077D01*
X128935555Y-89013077D02*
X128908617Y-89040014D01*
X128908617Y-89040014D02*
X128881680Y-89120826D01*
X128881680Y-89120826D02*
X128881680Y-89174701D01*
X128881680Y-89174701D02*
X128908617Y-89255513D01*
X128908617Y-89255513D02*
X129016367Y-89363263D01*
X129016367Y-89363263D02*
X129043304Y-89444075D01*
X129043304Y-89444075D02*
X129043304Y-89497950D01*
X129043304Y-89497950D02*
X129016367Y-89578762D01*
X129016367Y-89578762D02*
X128908617Y-89686512D01*
X128908617Y-89686512D02*
X128827805Y-89713449D01*
X128827805Y-89713449D02*
X128773930Y-89713449D01*
X128773930Y-89713449D02*
X128693118Y-89686512D01*
X128693118Y-89686512D02*
X128585368Y-89578762D01*
X128585368Y-89578762D02*
X128558431Y-89497950D01*
X128558431Y-89497950D02*
X128558431Y-89444075D01*
X128558431Y-89444075D02*
X128585368Y-89363263D01*
X128585368Y-89363263D02*
X128693118Y-89255513D01*
X128693118Y-89255513D02*
X128773930Y-89228576D01*
X128773930Y-89228576D02*
X128827805Y-89228576D01*
X128827805Y-89228576D02*
X128908617Y-89255513D01*
X130686486Y-121336384D02*
X130767298Y-121363321D01*
X130767298Y-121363321D02*
X130848110Y-121444133D01*
X130848110Y-121444133D02*
X130901985Y-121551883D01*
X130901985Y-121551883D02*
X130901985Y-121659632D01*
X130901985Y-121659632D02*
X130875048Y-121740445D01*
X130875048Y-121740445D02*
X130794235Y-121875132D01*
X130794235Y-121875132D02*
X130713423Y-121955944D01*
X130713423Y-121955944D02*
X130578736Y-122036756D01*
X130578736Y-122036756D02*
X130497924Y-122063693D01*
X130497924Y-122063693D02*
X130390174Y-122063693D01*
X130390174Y-122063693D02*
X130282425Y-122009819D01*
X130282425Y-122009819D02*
X130228550Y-121955944D01*
X130228550Y-121955944D02*
X130174675Y-121848194D01*
X130174675Y-121848194D02*
X130174675Y-121794319D01*
X130174675Y-121794319D02*
X130363237Y-121605758D01*
X130363237Y-121605758D02*
X130470987Y-121713507D01*
X129878364Y-121605758D02*
X130444049Y-121040072D01*
X130444049Y-121040072D02*
X130228550Y-120824573D01*
X130228550Y-120824573D02*
X130147738Y-120797636D01*
X130147738Y-120797636D02*
X130093863Y-120797636D01*
X130093863Y-120797636D02*
X130013051Y-120824573D01*
X130013051Y-120824573D02*
X129932239Y-120905385D01*
X129932239Y-120905385D02*
X129905301Y-120986197D01*
X129905301Y-120986197D02*
X129905301Y-121040072D01*
X129905301Y-121040072D02*
X129932239Y-121120884D01*
X129932239Y-121120884D02*
X130147738Y-121336384D01*
X129016367Y-120743761D02*
X129339616Y-121067010D01*
X129177991Y-120905385D02*
X129743677Y-120339700D01*
X129743677Y-120339700D02*
X129716739Y-120474387D01*
X129716739Y-120474387D02*
X129716739Y-120582136D01*
X129716739Y-120582136D02*
X129743677Y-120662948D01*
X129393490Y-119989513D02*
X129016367Y-119612390D01*
X129016367Y-119612390D02*
X128693118Y-120420512D01*
X130686486Y-123876384D02*
X130767298Y-123903321D01*
X130767298Y-123903321D02*
X130848110Y-123984133D01*
X130848110Y-123984133D02*
X130901985Y-124091883D01*
X130901985Y-124091883D02*
X130901985Y-124199632D01*
X130901985Y-124199632D02*
X130875048Y-124280445D01*
X130875048Y-124280445D02*
X130794235Y-124415132D01*
X130794235Y-124415132D02*
X130713423Y-124495944D01*
X130713423Y-124495944D02*
X130578736Y-124576756D01*
X130578736Y-124576756D02*
X130497924Y-124603693D01*
X130497924Y-124603693D02*
X130390174Y-124603693D01*
X130390174Y-124603693D02*
X130282425Y-124549819D01*
X130282425Y-124549819D02*
X130228550Y-124495944D01*
X130228550Y-124495944D02*
X130174675Y-124388194D01*
X130174675Y-124388194D02*
X130174675Y-124334319D01*
X130174675Y-124334319D02*
X130363237Y-124145758D01*
X130363237Y-124145758D02*
X130470987Y-124253507D01*
X129878364Y-124145758D02*
X130444049Y-123580072D01*
X130444049Y-123580072D02*
X130228550Y-123364573D01*
X130228550Y-123364573D02*
X130147738Y-123337636D01*
X130147738Y-123337636D02*
X130093863Y-123337636D01*
X130093863Y-123337636D02*
X130013051Y-123364573D01*
X130013051Y-123364573D02*
X129932239Y-123445385D01*
X129932239Y-123445385D02*
X129905301Y-123526197D01*
X129905301Y-123526197D02*
X129905301Y-123580072D01*
X129905301Y-123580072D02*
X129932239Y-123660884D01*
X129932239Y-123660884D02*
X130147738Y-123876384D01*
X129016367Y-123283761D02*
X129339616Y-123607010D01*
X129177991Y-123445385D02*
X129743677Y-122879700D01*
X129743677Y-122879700D02*
X129716739Y-123014387D01*
X129716739Y-123014387D02*
X129716739Y-123122136D01*
X129716739Y-123122136D02*
X129743677Y-123202948D01*
X129097179Y-122233202D02*
X129204929Y-122340951D01*
X129204929Y-122340951D02*
X129231866Y-122421764D01*
X129231866Y-122421764D02*
X129231866Y-122475638D01*
X129231866Y-122475638D02*
X129204929Y-122610326D01*
X129204929Y-122610326D02*
X129124116Y-122745013D01*
X129124116Y-122745013D02*
X128908617Y-122960512D01*
X128908617Y-122960512D02*
X128827805Y-122987449D01*
X128827805Y-122987449D02*
X128773930Y-122987449D01*
X128773930Y-122987449D02*
X128693118Y-122960512D01*
X128693118Y-122960512D02*
X128585368Y-122852762D01*
X128585368Y-122852762D02*
X128558431Y-122771950D01*
X128558431Y-122771950D02*
X128558431Y-122718075D01*
X128558431Y-122718075D02*
X128585368Y-122637263D01*
X128585368Y-122637263D02*
X128720055Y-122502576D01*
X128720055Y-122502576D02*
X128800868Y-122475638D01*
X128800868Y-122475638D02*
X128854742Y-122475638D01*
X128854742Y-122475638D02*
X128935555Y-122502576D01*
X128935555Y-122502576D02*
X129043304Y-122610326D01*
X129043304Y-122610326D02*
X129070242Y-122691138D01*
X129070242Y-122691138D02*
X129070242Y-122745013D01*
X129070242Y-122745013D02*
X129043304Y-122825825D01*
X156298049Y-118553946D02*
X156378861Y-118580884D01*
X156378861Y-118580884D02*
X156459673Y-118661696D01*
X156459673Y-118661696D02*
X156513548Y-118769446D01*
X156513548Y-118769446D02*
X156513548Y-118877195D01*
X156513548Y-118877195D02*
X156486610Y-118958007D01*
X156486610Y-118958007D02*
X156405798Y-119092694D01*
X156405798Y-119092694D02*
X156324986Y-119173507D01*
X156324986Y-119173507D02*
X156190299Y-119254319D01*
X156190299Y-119254319D02*
X156109487Y-119281256D01*
X156109487Y-119281256D02*
X156001737Y-119281256D01*
X156001737Y-119281256D02*
X155893988Y-119227381D01*
X155893988Y-119227381D02*
X155840113Y-119173507D01*
X155840113Y-119173507D02*
X155786238Y-119065757D01*
X155786238Y-119065757D02*
X155786238Y-119011882D01*
X155786238Y-119011882D02*
X155974800Y-118823320D01*
X155974800Y-118823320D02*
X156082549Y-118931070D01*
X155489927Y-118823320D02*
X156055612Y-118257635D01*
X156055612Y-118257635D02*
X155166678Y-118500072D01*
X155166678Y-118500072D02*
X155732363Y-117934386D01*
X154897304Y-118230698D02*
X155462989Y-117665012D01*
X155462989Y-117665012D02*
X155328302Y-117530325D01*
X155328302Y-117530325D02*
X155220553Y-117476450D01*
X155220553Y-117476450D02*
X155112803Y-117476450D01*
X155112803Y-117476450D02*
X155031991Y-117503388D01*
X155031991Y-117503388D02*
X154897304Y-117584200D01*
X154897304Y-117584200D02*
X154816492Y-117665012D01*
X154816492Y-117665012D02*
X154735680Y-117799699D01*
X154735680Y-117799699D02*
X154708742Y-117880511D01*
X154708742Y-117880511D02*
X154708742Y-117988261D01*
X154708742Y-117988261D02*
X154762617Y-118096011D01*
X154762617Y-118096011D02*
X154897304Y-118230698D01*
X156271111Y-88047009D02*
X156351924Y-88073946D01*
X156351924Y-88073946D02*
X156432736Y-88154759D01*
X156432736Y-88154759D02*
X156486611Y-88262508D01*
X156486611Y-88262508D02*
X156486611Y-88370258D01*
X156486611Y-88370258D02*
X156459673Y-88451070D01*
X156459673Y-88451070D02*
X156378861Y-88585757D01*
X156378861Y-88585757D02*
X156298049Y-88666569D01*
X156298049Y-88666569D02*
X156163362Y-88747382D01*
X156163362Y-88747382D02*
X156082550Y-88774319D01*
X156082550Y-88774319D02*
X155974800Y-88774319D01*
X155974800Y-88774319D02*
X155867050Y-88720444D01*
X155867050Y-88720444D02*
X155813176Y-88666569D01*
X155813176Y-88666569D02*
X155759301Y-88558820D01*
X155759301Y-88558820D02*
X155759301Y-88504945D01*
X155759301Y-88504945D02*
X155947863Y-88316383D01*
X155947863Y-88316383D02*
X156055612Y-88424133D01*
X155462989Y-88316383D02*
X156028675Y-87750698D01*
X156028675Y-87750698D02*
X155813176Y-87535198D01*
X155813176Y-87535198D02*
X155732363Y-87508261D01*
X155732363Y-87508261D02*
X155678489Y-87508261D01*
X155678489Y-87508261D02*
X155597676Y-87535198D01*
X155597676Y-87535198D02*
X155516864Y-87616011D01*
X155516864Y-87616011D02*
X155489927Y-87696823D01*
X155489927Y-87696823D02*
X155489927Y-87750698D01*
X155489927Y-87750698D02*
X155516864Y-87831510D01*
X155516864Y-87831510D02*
X155732363Y-88047009D01*
X155031991Y-87131137D02*
X154654867Y-87508261D01*
X155382177Y-87050325D02*
X155112803Y-87589073D01*
X155112803Y-87589073D02*
X154762617Y-87238887D01*
X138885238Y-125882000D02*
X138770952Y-125920095D01*
X138770952Y-125920095D02*
X138580476Y-125920095D01*
X138580476Y-125920095D02*
X138504285Y-125882000D01*
X138504285Y-125882000D02*
X138466190Y-125843904D01*
X138466190Y-125843904D02*
X138428095Y-125767714D01*
X138428095Y-125767714D02*
X138428095Y-125691523D01*
X138428095Y-125691523D02*
X138466190Y-125615333D01*
X138466190Y-125615333D02*
X138504285Y-125577238D01*
X138504285Y-125577238D02*
X138580476Y-125539142D01*
X138580476Y-125539142D02*
X138732857Y-125501047D01*
X138732857Y-125501047D02*
X138809047Y-125462952D01*
X138809047Y-125462952D02*
X138847142Y-125424857D01*
X138847142Y-125424857D02*
X138885238Y-125348666D01*
X138885238Y-125348666D02*
X138885238Y-125272476D01*
X138885238Y-125272476D02*
X138847142Y-125196285D01*
X138847142Y-125196285D02*
X138809047Y-125158190D01*
X138809047Y-125158190D02*
X138732857Y-125120095D01*
X138732857Y-125120095D02*
X138542380Y-125120095D01*
X138542380Y-125120095D02*
X138428095Y-125158190D01*
X138161428Y-125120095D02*
X137970952Y-125920095D01*
X137970952Y-125920095D02*
X137818571Y-125348666D01*
X137818571Y-125348666D02*
X137666190Y-125920095D01*
X137666190Y-125920095D02*
X137475714Y-125120095D01*
X137170951Y-125920095D02*
X137170951Y-125120095D01*
X137170951Y-125120095D02*
X136980475Y-125120095D01*
X136980475Y-125120095D02*
X136866189Y-125158190D01*
X136866189Y-125158190D02*
X136789999Y-125234380D01*
X136789999Y-125234380D02*
X136751904Y-125310571D01*
X136751904Y-125310571D02*
X136713808Y-125462952D01*
X136713808Y-125462952D02*
X136713808Y-125577238D01*
X136713808Y-125577238D02*
X136751904Y-125729619D01*
X136751904Y-125729619D02*
X136789999Y-125805809D01*
X136789999Y-125805809D02*
X136866189Y-125882000D01*
X136866189Y-125882000D02*
X136980475Y-125920095D01*
X136980475Y-125920095D02*
X137170951Y-125920095D01*
X136370951Y-125920095D02*
X136370951Y-125120095D01*
X135837618Y-125120095D02*
X135685237Y-125120095D01*
X135685237Y-125120095D02*
X135609047Y-125158190D01*
X135609047Y-125158190D02*
X135532856Y-125234380D01*
X135532856Y-125234380D02*
X135494761Y-125386761D01*
X135494761Y-125386761D02*
X135494761Y-125653428D01*
X135494761Y-125653428D02*
X135532856Y-125805809D01*
X135532856Y-125805809D02*
X135609047Y-125882000D01*
X135609047Y-125882000D02*
X135685237Y-125920095D01*
X135685237Y-125920095D02*
X135837618Y-125920095D01*
X135837618Y-125920095D02*
X135913809Y-125882000D01*
X135913809Y-125882000D02*
X135989999Y-125805809D01*
X135989999Y-125805809D02*
X136028095Y-125653428D01*
X136028095Y-125653428D02*
X136028095Y-125386761D01*
X136028095Y-125386761D02*
X135989999Y-125234380D01*
X135989999Y-125234380D02*
X135913809Y-125158190D01*
X135913809Y-125158190D02*
X135837618Y-125120095D01*
X130686486Y-108646384D02*
X130767298Y-108673321D01*
X130767298Y-108673321D02*
X130848110Y-108754133D01*
X130848110Y-108754133D02*
X130901985Y-108861883D01*
X130901985Y-108861883D02*
X130901985Y-108969632D01*
X130901985Y-108969632D02*
X130875048Y-109050445D01*
X130875048Y-109050445D02*
X130794235Y-109185132D01*
X130794235Y-109185132D02*
X130713423Y-109265944D01*
X130713423Y-109265944D02*
X130578736Y-109346756D01*
X130578736Y-109346756D02*
X130497924Y-109373693D01*
X130497924Y-109373693D02*
X130390174Y-109373693D01*
X130390174Y-109373693D02*
X130282425Y-109319819D01*
X130282425Y-109319819D02*
X130228550Y-109265944D01*
X130228550Y-109265944D02*
X130174675Y-109158194D01*
X130174675Y-109158194D02*
X130174675Y-109104319D01*
X130174675Y-109104319D02*
X130363237Y-108915758D01*
X130363237Y-108915758D02*
X130470987Y-109023507D01*
X129878364Y-108915758D02*
X130444049Y-108350072D01*
X130444049Y-108350072D02*
X130228550Y-108134573D01*
X130228550Y-108134573D02*
X130147738Y-108107636D01*
X130147738Y-108107636D02*
X130093863Y-108107636D01*
X130093863Y-108107636D02*
X130013051Y-108134573D01*
X130013051Y-108134573D02*
X129932239Y-108215385D01*
X129932239Y-108215385D02*
X129905301Y-108296197D01*
X129905301Y-108296197D02*
X129905301Y-108350072D01*
X129905301Y-108350072D02*
X129932239Y-108430884D01*
X129932239Y-108430884D02*
X130147738Y-108646384D01*
X129851426Y-107865199D02*
X129851426Y-107811324D01*
X129851426Y-107811324D02*
X129824489Y-107730512D01*
X129824489Y-107730512D02*
X129689802Y-107595825D01*
X129689802Y-107595825D02*
X129608990Y-107568887D01*
X129608990Y-107568887D02*
X129555115Y-107568887D01*
X129555115Y-107568887D02*
X129474303Y-107595825D01*
X129474303Y-107595825D02*
X129420428Y-107649700D01*
X129420428Y-107649700D02*
X129366553Y-107757449D01*
X129366553Y-107757449D02*
X129366553Y-108403947D01*
X129366553Y-108403947D02*
X129016367Y-108053761D01*
X128477619Y-107515013D02*
X128800868Y-107838261D01*
X128639243Y-107676637D02*
X129204929Y-107110951D01*
X129204929Y-107110951D02*
X129177991Y-107245638D01*
X129177991Y-107245638D02*
X129177991Y-107353388D01*
X129177991Y-107353388D02*
X129204929Y-107434200D01*
X156171111Y-98177009D02*
X156251924Y-98203946D01*
X156251924Y-98203946D02*
X156332736Y-98284759D01*
X156332736Y-98284759D02*
X156386611Y-98392508D01*
X156386611Y-98392508D02*
X156386611Y-98500258D01*
X156386611Y-98500258D02*
X156359673Y-98581070D01*
X156359673Y-98581070D02*
X156278861Y-98715757D01*
X156278861Y-98715757D02*
X156198049Y-98796569D01*
X156198049Y-98796569D02*
X156063362Y-98877382D01*
X156063362Y-98877382D02*
X155982550Y-98904319D01*
X155982550Y-98904319D02*
X155874800Y-98904319D01*
X155874800Y-98904319D02*
X155767050Y-98850444D01*
X155767050Y-98850444D02*
X155713176Y-98796569D01*
X155713176Y-98796569D02*
X155659301Y-98688820D01*
X155659301Y-98688820D02*
X155659301Y-98634945D01*
X155659301Y-98634945D02*
X155847863Y-98446383D01*
X155847863Y-98446383D02*
X155955612Y-98554133D01*
X155362989Y-98446383D02*
X155928675Y-97880698D01*
X155928675Y-97880698D02*
X155713176Y-97665198D01*
X155713176Y-97665198D02*
X155632363Y-97638261D01*
X155632363Y-97638261D02*
X155578489Y-97638261D01*
X155578489Y-97638261D02*
X155497676Y-97665198D01*
X155497676Y-97665198D02*
X155416864Y-97746011D01*
X155416864Y-97746011D02*
X155389927Y-97826823D01*
X155389927Y-97826823D02*
X155389927Y-97880698D01*
X155389927Y-97880698D02*
X155416864Y-97961510D01*
X155416864Y-97961510D02*
X155632363Y-98177009D01*
X155416864Y-97368887D02*
X155039741Y-96991763D01*
X155039741Y-96991763D02*
X154716492Y-97799885D01*
X130698049Y-80453946D02*
X130778861Y-80480884D01*
X130778861Y-80480884D02*
X130859673Y-80561696D01*
X130859673Y-80561696D02*
X130913548Y-80669446D01*
X130913548Y-80669446D02*
X130913548Y-80777195D01*
X130913548Y-80777195D02*
X130886610Y-80858007D01*
X130886610Y-80858007D02*
X130805798Y-80992694D01*
X130805798Y-80992694D02*
X130724986Y-81073507D01*
X130724986Y-81073507D02*
X130590299Y-81154319D01*
X130590299Y-81154319D02*
X130509487Y-81181256D01*
X130509487Y-81181256D02*
X130401737Y-81181256D01*
X130401737Y-81181256D02*
X130293988Y-81127381D01*
X130293988Y-81127381D02*
X130240113Y-81073507D01*
X130240113Y-81073507D02*
X130186238Y-80965757D01*
X130186238Y-80965757D02*
X130186238Y-80911882D01*
X130186238Y-80911882D02*
X130374800Y-80723320D01*
X130374800Y-80723320D02*
X130482549Y-80831070D01*
X129889927Y-80723320D02*
X130455612Y-80157635D01*
X130455612Y-80157635D02*
X129566678Y-80400072D01*
X129566678Y-80400072D02*
X130132363Y-79834386D01*
X129297304Y-80130698D02*
X129862989Y-79565012D01*
X129862989Y-79565012D02*
X129728302Y-79430325D01*
X129728302Y-79430325D02*
X129620553Y-79376450D01*
X129620553Y-79376450D02*
X129512803Y-79376450D01*
X129512803Y-79376450D02*
X129431991Y-79403388D01*
X129431991Y-79403388D02*
X129297304Y-79484200D01*
X129297304Y-79484200D02*
X129216492Y-79565012D01*
X129216492Y-79565012D02*
X129135680Y-79699699D01*
X129135680Y-79699699D02*
X129108742Y-79780511D01*
X129108742Y-79780511D02*
X129108742Y-79888261D01*
X129108742Y-79888261D02*
X129162617Y-79996011D01*
X129162617Y-79996011D02*
X129297304Y-80130698D01*
X156298049Y-105853946D02*
X156378861Y-105880884D01*
X156378861Y-105880884D02*
X156459673Y-105961696D01*
X156459673Y-105961696D02*
X156513548Y-106069446D01*
X156513548Y-106069446D02*
X156513548Y-106177195D01*
X156513548Y-106177195D02*
X156486610Y-106258007D01*
X156486610Y-106258007D02*
X156405798Y-106392694D01*
X156405798Y-106392694D02*
X156324986Y-106473507D01*
X156324986Y-106473507D02*
X156190299Y-106554319D01*
X156190299Y-106554319D02*
X156109487Y-106581256D01*
X156109487Y-106581256D02*
X156001737Y-106581256D01*
X156001737Y-106581256D02*
X155893988Y-106527381D01*
X155893988Y-106527381D02*
X155840113Y-106473507D01*
X155840113Y-106473507D02*
X155786238Y-106365757D01*
X155786238Y-106365757D02*
X155786238Y-106311882D01*
X155786238Y-106311882D02*
X155974800Y-106123320D01*
X155974800Y-106123320D02*
X156082549Y-106231070D01*
X155489927Y-106123320D02*
X156055612Y-105557635D01*
X156055612Y-105557635D02*
X155166678Y-105800072D01*
X155166678Y-105800072D02*
X155732363Y-105234386D01*
X154897304Y-105530698D02*
X155462989Y-104965012D01*
X155462989Y-104965012D02*
X155328302Y-104830325D01*
X155328302Y-104830325D02*
X155220553Y-104776450D01*
X155220553Y-104776450D02*
X155112803Y-104776450D01*
X155112803Y-104776450D02*
X155031991Y-104803388D01*
X155031991Y-104803388D02*
X154897304Y-104884200D01*
X154897304Y-104884200D02*
X154816492Y-104965012D01*
X154816492Y-104965012D02*
X154735680Y-105099699D01*
X154735680Y-105099699D02*
X154708742Y-105180511D01*
X154708742Y-105180511D02*
X154708742Y-105288261D01*
X154708742Y-105288261D02*
X154762617Y-105396011D01*
X154762617Y-105396011D02*
X154897304Y-105530698D01*
X130629420Y-88889565D02*
X130360046Y-88620191D01*
X130521670Y-89105064D02*
X130898794Y-88350817D01*
X130898794Y-88350817D02*
X130144547Y-88727940D01*
X129955985Y-88539379D02*
X130521670Y-87973693D01*
X130521670Y-87973693D02*
X130386983Y-87839006D01*
X130386983Y-87839006D02*
X130279234Y-87785132D01*
X130279234Y-87785132D02*
X130171484Y-87785132D01*
X130171484Y-87785132D02*
X130090672Y-87812069D01*
X130090672Y-87812069D02*
X129955985Y-87892881D01*
X129955985Y-87892881D02*
X129875173Y-87973693D01*
X129875173Y-87973693D02*
X129794361Y-88108380D01*
X129794361Y-88108380D02*
X129767423Y-88189193D01*
X129767423Y-88189193D02*
X129767423Y-88296942D01*
X129767423Y-88296942D02*
X129821298Y-88404692D01*
X129821298Y-88404692D02*
X129955985Y-88539379D01*
X129120926Y-87596570D02*
X129120926Y-87650445D01*
X129120926Y-87650445D02*
X129174800Y-87758194D01*
X129174800Y-87758194D02*
X129228675Y-87812069D01*
X129228675Y-87812069D02*
X129336425Y-87865944D01*
X129336425Y-87865944D02*
X129444174Y-87865944D01*
X129444174Y-87865944D02*
X129524987Y-87839006D01*
X129524987Y-87839006D02*
X129659674Y-87758194D01*
X129659674Y-87758194D02*
X129740486Y-87677382D01*
X129740486Y-87677382D02*
X129821298Y-87542695D01*
X129821298Y-87542695D02*
X129848235Y-87461883D01*
X129848235Y-87461883D02*
X129848235Y-87354133D01*
X129848235Y-87354133D02*
X129794361Y-87246383D01*
X129794361Y-87246383D02*
X129740486Y-87192509D01*
X129740486Y-87192509D02*
X129632736Y-87138634D01*
X129632736Y-87138634D02*
X129578861Y-87138634D01*
X128905426Y-87596570D02*
X128474428Y-87165571D01*
X129040113Y-86492136D02*
X128285866Y-86869260D01*
X128285866Y-86869260D02*
X128662990Y-86115013D01*
X127585494Y-86168888D02*
X128043430Y-86088075D01*
X127908743Y-86492136D02*
X128474428Y-85926451D01*
X128474428Y-85926451D02*
X128258929Y-85710952D01*
X128258929Y-85710952D02*
X128178117Y-85684014D01*
X128178117Y-85684014D02*
X128124242Y-85684014D01*
X128124242Y-85684014D02*
X128043430Y-85710952D01*
X128043430Y-85710952D02*
X127962617Y-85791764D01*
X127962617Y-85791764D02*
X127935680Y-85872576D01*
X127935680Y-85872576D02*
X127935680Y-85926451D01*
X127935680Y-85926451D02*
X127962617Y-86007263D01*
X127962617Y-86007263D02*
X128178117Y-86222762D01*
X127639369Y-85630139D02*
X127450807Y-85441578D01*
X127073683Y-85657077D02*
X127343057Y-85926451D01*
X127343057Y-85926451D02*
X127908743Y-85360765D01*
X127908743Y-85360765D02*
X127639369Y-85091391D01*
X126938996Y-84929767D02*
X127127558Y-85118329D01*
X126831246Y-85414640D02*
X127396932Y-84848955D01*
X127396932Y-84848955D02*
X127127558Y-84579581D01*
X130686486Y-95946384D02*
X130767298Y-95973321D01*
X130767298Y-95973321D02*
X130848110Y-96054133D01*
X130848110Y-96054133D02*
X130901985Y-96161883D01*
X130901985Y-96161883D02*
X130901985Y-96269632D01*
X130901985Y-96269632D02*
X130875048Y-96350445D01*
X130875048Y-96350445D02*
X130794235Y-96485132D01*
X130794235Y-96485132D02*
X130713423Y-96565944D01*
X130713423Y-96565944D02*
X130578736Y-96646756D01*
X130578736Y-96646756D02*
X130497924Y-96673693D01*
X130497924Y-96673693D02*
X130390174Y-96673693D01*
X130390174Y-96673693D02*
X130282425Y-96619819D01*
X130282425Y-96619819D02*
X130228550Y-96565944D01*
X130228550Y-96565944D02*
X130174675Y-96458194D01*
X130174675Y-96458194D02*
X130174675Y-96404319D01*
X130174675Y-96404319D02*
X130363237Y-96215758D01*
X130363237Y-96215758D02*
X130470987Y-96323507D01*
X129878364Y-96215758D02*
X130444049Y-95650072D01*
X130444049Y-95650072D02*
X130228550Y-95434573D01*
X130228550Y-95434573D02*
X130147738Y-95407636D01*
X130147738Y-95407636D02*
X130093863Y-95407636D01*
X130093863Y-95407636D02*
X130013051Y-95434573D01*
X130013051Y-95434573D02*
X129932239Y-95515385D01*
X129932239Y-95515385D02*
X129905301Y-95596197D01*
X129905301Y-95596197D02*
X129905301Y-95650072D01*
X129905301Y-95650072D02*
X129932239Y-95730884D01*
X129932239Y-95730884D02*
X130147738Y-95946384D01*
X129851426Y-95165199D02*
X129851426Y-95111324D01*
X129851426Y-95111324D02*
X129824489Y-95030512D01*
X129824489Y-95030512D02*
X129689802Y-94895825D01*
X129689802Y-94895825D02*
X129608990Y-94868887D01*
X129608990Y-94868887D02*
X129555115Y-94868887D01*
X129555115Y-94868887D02*
X129474303Y-94895825D01*
X129474303Y-94895825D02*
X129420428Y-94949700D01*
X129420428Y-94949700D02*
X129366553Y-95057449D01*
X129366553Y-95057449D02*
X129366553Y-95703947D01*
X129366553Y-95703947D02*
X129016367Y-95353761D01*
X129393490Y-94599513D02*
X129016367Y-94222390D01*
X129016367Y-94222390D02*
X128693118Y-95030512D01*
X156794486Y-108636384D02*
X156875298Y-108663321D01*
X156875298Y-108663321D02*
X156956110Y-108744133D01*
X156956110Y-108744133D02*
X157009985Y-108851883D01*
X157009985Y-108851883D02*
X157009985Y-108959632D01*
X157009985Y-108959632D02*
X156983048Y-109040445D01*
X156983048Y-109040445D02*
X156902235Y-109175132D01*
X156902235Y-109175132D02*
X156821423Y-109255944D01*
X156821423Y-109255944D02*
X156686736Y-109336756D01*
X156686736Y-109336756D02*
X156605924Y-109363693D01*
X156605924Y-109363693D02*
X156498174Y-109363693D01*
X156498174Y-109363693D02*
X156390425Y-109309819D01*
X156390425Y-109309819D02*
X156336550Y-109255944D01*
X156336550Y-109255944D02*
X156282675Y-109148194D01*
X156282675Y-109148194D02*
X156282675Y-109094319D01*
X156282675Y-109094319D02*
X156471237Y-108905758D01*
X156471237Y-108905758D02*
X156578987Y-109013507D01*
X155986364Y-108905758D02*
X156552049Y-108340072D01*
X156552049Y-108340072D02*
X156336550Y-108124573D01*
X156336550Y-108124573D02*
X156255738Y-108097636D01*
X156255738Y-108097636D02*
X156201863Y-108097636D01*
X156201863Y-108097636D02*
X156121051Y-108124573D01*
X156121051Y-108124573D02*
X156040239Y-108205385D01*
X156040239Y-108205385D02*
X156013301Y-108286197D01*
X156013301Y-108286197D02*
X156013301Y-108340072D01*
X156013301Y-108340072D02*
X156040239Y-108420884D01*
X156040239Y-108420884D02*
X156255738Y-108636384D01*
X155124367Y-108043761D02*
X155447616Y-108367010D01*
X155285991Y-108205385D02*
X155851677Y-107639700D01*
X155851677Y-107639700D02*
X155824739Y-107774387D01*
X155824739Y-107774387D02*
X155824739Y-107882136D01*
X155824739Y-107882136D02*
X155851677Y-107962948D01*
X155339866Y-107127889D02*
X155285991Y-107074014D01*
X155285991Y-107074014D02*
X155205179Y-107047077D01*
X155205179Y-107047077D02*
X155151304Y-107047077D01*
X155151304Y-107047077D02*
X155070492Y-107074014D01*
X155070492Y-107074014D02*
X154935805Y-107154826D01*
X154935805Y-107154826D02*
X154801118Y-107289513D01*
X154801118Y-107289513D02*
X154720306Y-107424200D01*
X154720306Y-107424200D02*
X154693368Y-107505013D01*
X154693368Y-107505013D02*
X154693368Y-107558887D01*
X154693368Y-107558887D02*
X154720306Y-107639700D01*
X154720306Y-107639700D02*
X154774181Y-107693574D01*
X154774181Y-107693574D02*
X154854993Y-107720512D01*
X154854993Y-107720512D02*
X154908868Y-107720512D01*
X154908868Y-107720512D02*
X154989680Y-107693574D01*
X154989680Y-107693574D02*
X155124367Y-107612762D01*
X155124367Y-107612762D02*
X155259054Y-107478075D01*
X155259054Y-107478075D02*
X155339866Y-107343388D01*
X155339866Y-107343388D02*
X155366803Y-107262576D01*
X155366803Y-107262576D02*
X155366803Y-107208701D01*
X155366803Y-107208701D02*
X155339866Y-107127889D01*
X130698049Y-105853946D02*
X130778861Y-105880884D01*
X130778861Y-105880884D02*
X130859673Y-105961696D01*
X130859673Y-105961696D02*
X130913548Y-106069446D01*
X130913548Y-106069446D02*
X130913548Y-106177195D01*
X130913548Y-106177195D02*
X130886610Y-106258007D01*
X130886610Y-106258007D02*
X130805798Y-106392694D01*
X130805798Y-106392694D02*
X130724986Y-106473507D01*
X130724986Y-106473507D02*
X130590299Y-106554319D01*
X130590299Y-106554319D02*
X130509487Y-106581256D01*
X130509487Y-106581256D02*
X130401737Y-106581256D01*
X130401737Y-106581256D02*
X130293988Y-106527381D01*
X130293988Y-106527381D02*
X130240113Y-106473507D01*
X130240113Y-106473507D02*
X130186238Y-106365757D01*
X130186238Y-106365757D02*
X130186238Y-106311882D01*
X130186238Y-106311882D02*
X130374800Y-106123320D01*
X130374800Y-106123320D02*
X130482549Y-106231070D01*
X129889927Y-106123320D02*
X130455612Y-105557635D01*
X130455612Y-105557635D02*
X129566678Y-105800072D01*
X129566678Y-105800072D02*
X130132363Y-105234386D01*
X129297304Y-105530698D02*
X129862989Y-104965012D01*
X129862989Y-104965012D02*
X129728302Y-104830325D01*
X129728302Y-104830325D02*
X129620553Y-104776450D01*
X129620553Y-104776450D02*
X129512803Y-104776450D01*
X129512803Y-104776450D02*
X129431991Y-104803388D01*
X129431991Y-104803388D02*
X129297304Y-104884200D01*
X129297304Y-104884200D02*
X129216492Y-104965012D01*
X129216492Y-104965012D02*
X129135680Y-105099699D01*
X129135680Y-105099699D02*
X129108742Y-105180511D01*
X129108742Y-105180511D02*
X129108742Y-105288261D01*
X129108742Y-105288261D02*
X129162617Y-105396011D01*
X129162617Y-105396011D02*
X129297304Y-105530698D01*
X130686486Y-113716384D02*
X130767298Y-113743321D01*
X130767298Y-113743321D02*
X130848110Y-113824133D01*
X130848110Y-113824133D02*
X130901985Y-113931883D01*
X130901985Y-113931883D02*
X130901985Y-114039632D01*
X130901985Y-114039632D02*
X130875048Y-114120445D01*
X130875048Y-114120445D02*
X130794235Y-114255132D01*
X130794235Y-114255132D02*
X130713423Y-114335944D01*
X130713423Y-114335944D02*
X130578736Y-114416756D01*
X130578736Y-114416756D02*
X130497924Y-114443693D01*
X130497924Y-114443693D02*
X130390174Y-114443693D01*
X130390174Y-114443693D02*
X130282425Y-114389819D01*
X130282425Y-114389819D02*
X130228550Y-114335944D01*
X130228550Y-114335944D02*
X130174675Y-114228194D01*
X130174675Y-114228194D02*
X130174675Y-114174319D01*
X130174675Y-114174319D02*
X130363237Y-113985758D01*
X130363237Y-113985758D02*
X130470987Y-114093507D01*
X129878364Y-113985758D02*
X130444049Y-113420072D01*
X130444049Y-113420072D02*
X130228550Y-113204573D01*
X130228550Y-113204573D02*
X130147738Y-113177636D01*
X130147738Y-113177636D02*
X130093863Y-113177636D01*
X130093863Y-113177636D02*
X130013051Y-113204573D01*
X130013051Y-113204573D02*
X129932239Y-113285385D01*
X129932239Y-113285385D02*
X129905301Y-113366197D01*
X129905301Y-113366197D02*
X129905301Y-113420072D01*
X129905301Y-113420072D02*
X129932239Y-113500884D01*
X129932239Y-113500884D02*
X130147738Y-113716384D01*
X129016367Y-113123761D02*
X129339616Y-113447010D01*
X129177991Y-113285385D02*
X129743677Y-112719700D01*
X129743677Y-112719700D02*
X129716739Y-112854387D01*
X129716739Y-112854387D02*
X129716739Y-112962136D01*
X129716739Y-112962136D02*
X129743677Y-113042948D01*
X128746993Y-112854387D02*
X128639243Y-112746637D01*
X128639243Y-112746637D02*
X128612306Y-112665825D01*
X128612306Y-112665825D02*
X128612306Y-112611950D01*
X128612306Y-112611950D02*
X128639243Y-112477263D01*
X128639243Y-112477263D02*
X128720055Y-112342576D01*
X128720055Y-112342576D02*
X128935555Y-112127077D01*
X128935555Y-112127077D02*
X129016367Y-112100139D01*
X129016367Y-112100139D02*
X129070242Y-112100139D01*
X129070242Y-112100139D02*
X129151054Y-112127077D01*
X129151054Y-112127077D02*
X129258803Y-112234826D01*
X129258803Y-112234826D02*
X129285741Y-112315638D01*
X129285741Y-112315638D02*
X129285741Y-112369513D01*
X129285741Y-112369513D02*
X129258803Y-112450326D01*
X129258803Y-112450326D02*
X129124116Y-112585013D01*
X129124116Y-112585013D02*
X129043304Y-112611950D01*
X129043304Y-112611950D02*
X128989429Y-112611950D01*
X128989429Y-112611950D02*
X128908617Y-112585013D01*
X128908617Y-112585013D02*
X128800868Y-112477263D01*
X128800868Y-112477263D02*
X128773930Y-112396451D01*
X128773930Y-112396451D02*
X128773930Y-112342576D01*
X128773930Y-112342576D02*
X128800868Y-112261764D01*
X156298049Y-93153946D02*
X156378861Y-93180884D01*
X156378861Y-93180884D02*
X156459673Y-93261696D01*
X156459673Y-93261696D02*
X156513548Y-93369446D01*
X156513548Y-93369446D02*
X156513548Y-93477195D01*
X156513548Y-93477195D02*
X156486610Y-93558007D01*
X156486610Y-93558007D02*
X156405798Y-93692694D01*
X156405798Y-93692694D02*
X156324986Y-93773507D01*
X156324986Y-93773507D02*
X156190299Y-93854319D01*
X156190299Y-93854319D02*
X156109487Y-93881256D01*
X156109487Y-93881256D02*
X156001737Y-93881256D01*
X156001737Y-93881256D02*
X155893988Y-93827381D01*
X155893988Y-93827381D02*
X155840113Y-93773507D01*
X155840113Y-93773507D02*
X155786238Y-93665757D01*
X155786238Y-93665757D02*
X155786238Y-93611882D01*
X155786238Y-93611882D02*
X155974800Y-93423320D01*
X155974800Y-93423320D02*
X156082549Y-93531070D01*
X155489927Y-93423320D02*
X156055612Y-92857635D01*
X156055612Y-92857635D02*
X155166678Y-93100072D01*
X155166678Y-93100072D02*
X155732363Y-92534386D01*
X154897304Y-92830698D02*
X155462989Y-92265012D01*
X155462989Y-92265012D02*
X155328302Y-92130325D01*
X155328302Y-92130325D02*
X155220553Y-92076450D01*
X155220553Y-92076450D02*
X155112803Y-92076450D01*
X155112803Y-92076450D02*
X155031991Y-92103388D01*
X155031991Y-92103388D02*
X154897304Y-92184200D01*
X154897304Y-92184200D02*
X154816492Y-92265012D01*
X154816492Y-92265012D02*
X154735680Y-92399699D01*
X154735680Y-92399699D02*
X154708742Y-92480511D01*
X154708742Y-92480511D02*
X154708742Y-92588261D01*
X154708742Y-92588261D02*
X154762617Y-92696011D01*
X154762617Y-92696011D02*
X154897304Y-92830698D01*
X130862076Y-83314099D02*
X130511890Y-82963913D01*
X130511890Y-82963913D02*
X130484953Y-83367974D01*
X130484953Y-83367974D02*
X130404140Y-83287162D01*
X130404140Y-83287162D02*
X130323328Y-83260224D01*
X130323328Y-83260224D02*
X130269453Y-83260224D01*
X130269453Y-83260224D02*
X130188641Y-83287162D01*
X130188641Y-83287162D02*
X130053954Y-83421849D01*
X130053954Y-83421849D02*
X130027017Y-83502661D01*
X130027017Y-83502661D02*
X130027017Y-83556536D01*
X130027017Y-83556536D02*
X130053954Y-83637348D01*
X130053954Y-83637348D02*
X130215579Y-83798972D01*
X130215579Y-83798972D02*
X130296391Y-83825910D01*
X130296391Y-83825910D02*
X130350266Y-83825910D01*
X130350266Y-82802288D02*
X129596018Y-83179412D01*
X129596018Y-83179412D02*
X129973142Y-82425165D01*
X129838455Y-82290478D02*
X129488269Y-81940292D01*
X129488269Y-81940292D02*
X129461331Y-82344353D01*
X129461331Y-82344353D02*
X129380519Y-82263541D01*
X129380519Y-82263541D02*
X129299707Y-82236603D01*
X129299707Y-82236603D02*
X129245832Y-82236603D01*
X129245832Y-82236603D02*
X129165020Y-82263541D01*
X129165020Y-82263541D02*
X129030333Y-82398228D01*
X129030333Y-82398228D02*
X129003396Y-82479040D01*
X129003396Y-82479040D02*
X129003396Y-82532915D01*
X129003396Y-82532915D02*
X129030333Y-82613727D01*
X129030333Y-82613727D02*
X129191957Y-82775351D01*
X129191957Y-82775351D02*
X129272770Y-82802289D01*
X129272770Y-82802289D02*
X129326644Y-82802289D01*
X128760959Y-82452102D02*
X128329960Y-82021104D01*
X128545460Y-81536230D02*
X128356898Y-81347669D01*
X127979774Y-81563168D02*
X128249148Y-81832542D01*
X128249148Y-81832542D02*
X128814834Y-81266856D01*
X128814834Y-81266856D02*
X128545460Y-80997482D01*
X127737337Y-81320731D02*
X128303023Y-80755045D01*
X128303023Y-80755045D02*
X127414088Y-80997482D01*
X127414088Y-80997482D02*
X127979774Y-80431797D01*
X129945832Y-101299226D02*
X130403768Y-101218414D01*
X130269081Y-101622475D02*
X130834766Y-101056789D01*
X130834766Y-101056789D02*
X130619267Y-100841290D01*
X130619267Y-100841290D02*
X130538455Y-100814353D01*
X130538455Y-100814353D02*
X130484580Y-100814353D01*
X130484580Y-100814353D02*
X130403768Y-100841290D01*
X130403768Y-100841290D02*
X130322956Y-100922102D01*
X130322956Y-100922102D02*
X130296018Y-101002914D01*
X130296018Y-101002914D02*
X130296018Y-101056789D01*
X130296018Y-101056789D02*
X130322956Y-101137601D01*
X130322956Y-101137601D02*
X130538455Y-101353101D01*
X130269081Y-100491104D02*
X129811145Y-100949040D01*
X129811145Y-100949040D02*
X129730333Y-100975977D01*
X129730333Y-100975977D02*
X129676458Y-100975977D01*
X129676458Y-100975977D02*
X129595646Y-100949040D01*
X129595646Y-100949040D02*
X129487896Y-100841290D01*
X129487896Y-100841290D02*
X129460959Y-100760478D01*
X129460959Y-100760478D02*
X129460959Y-100706603D01*
X129460959Y-100706603D02*
X129487896Y-100625791D01*
X129487896Y-100625791D02*
X129945832Y-100167855D01*
X129110773Y-100464167D02*
X129676458Y-99898481D01*
X129676458Y-99898481D02*
X128787524Y-100140918D01*
X128787524Y-100140918D02*
X129353210Y-99575232D01*
X156271111Y-100747009D02*
X156351924Y-100773946D01*
X156351924Y-100773946D02*
X156432736Y-100854759D01*
X156432736Y-100854759D02*
X156486611Y-100962508D01*
X156486611Y-100962508D02*
X156486611Y-101070258D01*
X156486611Y-101070258D02*
X156459673Y-101151070D01*
X156459673Y-101151070D02*
X156378861Y-101285757D01*
X156378861Y-101285757D02*
X156298049Y-101366569D01*
X156298049Y-101366569D02*
X156163362Y-101447382D01*
X156163362Y-101447382D02*
X156082550Y-101474319D01*
X156082550Y-101474319D02*
X155974800Y-101474319D01*
X155974800Y-101474319D02*
X155867050Y-101420444D01*
X155867050Y-101420444D02*
X155813176Y-101366569D01*
X155813176Y-101366569D02*
X155759301Y-101258820D01*
X155759301Y-101258820D02*
X155759301Y-101204945D01*
X155759301Y-101204945D02*
X155947863Y-101016383D01*
X155947863Y-101016383D02*
X156055612Y-101124133D01*
X155462989Y-101016383D02*
X156028675Y-100450698D01*
X156028675Y-100450698D02*
X155813176Y-100235198D01*
X155813176Y-100235198D02*
X155732363Y-100208261D01*
X155732363Y-100208261D02*
X155678489Y-100208261D01*
X155678489Y-100208261D02*
X155597676Y-100235198D01*
X155597676Y-100235198D02*
X155516864Y-100316011D01*
X155516864Y-100316011D02*
X155489927Y-100396823D01*
X155489927Y-100396823D02*
X155489927Y-100450698D01*
X155489927Y-100450698D02*
X155516864Y-100531510D01*
X155516864Y-100531510D02*
X155732363Y-100747009D01*
X155139741Y-100046637D02*
X155220553Y-100073574D01*
X155220553Y-100073574D02*
X155274428Y-100073574D01*
X155274428Y-100073574D02*
X155355240Y-100046637D01*
X155355240Y-100046637D02*
X155382177Y-100019699D01*
X155382177Y-100019699D02*
X155409115Y-99938887D01*
X155409115Y-99938887D02*
X155409115Y-99885012D01*
X155409115Y-99885012D02*
X155382177Y-99804200D01*
X155382177Y-99804200D02*
X155274428Y-99696450D01*
X155274428Y-99696450D02*
X155193615Y-99669513D01*
X155193615Y-99669513D02*
X155139741Y-99669513D01*
X155139741Y-99669513D02*
X155058928Y-99696450D01*
X155058928Y-99696450D02*
X155031991Y-99723388D01*
X155031991Y-99723388D02*
X155005054Y-99804200D01*
X155005054Y-99804200D02*
X155005054Y-99858075D01*
X155005054Y-99858075D02*
X155031991Y-99938887D01*
X155031991Y-99938887D02*
X155139741Y-100046637D01*
X155139741Y-100046637D02*
X155166678Y-100127449D01*
X155166678Y-100127449D02*
X155166678Y-100181324D01*
X155166678Y-100181324D02*
X155139741Y-100262136D01*
X155139741Y-100262136D02*
X155031991Y-100369885D01*
X155031991Y-100369885D02*
X154951179Y-100396823D01*
X154951179Y-100396823D02*
X154897304Y-100396823D01*
X154897304Y-100396823D02*
X154816492Y-100369885D01*
X154816492Y-100369885D02*
X154708742Y-100262136D01*
X154708742Y-100262136D02*
X154681805Y-100181324D01*
X154681805Y-100181324D02*
X154681805Y-100127449D01*
X154681805Y-100127449D02*
X154708742Y-100046637D01*
X154708742Y-100046637D02*
X154816492Y-99938887D01*
X154816492Y-99938887D02*
X154897304Y-99911950D01*
X154897304Y-99911950D02*
X154951179Y-99911950D01*
X154951179Y-99911950D02*
X155031991Y-99938887D01*
X130863734Y-78425757D02*
X130109487Y-78802881D01*
X130109487Y-78802881D02*
X130486611Y-78048634D01*
X129786239Y-78425758D02*
X129678489Y-78371883D01*
X129678489Y-78371883D02*
X129543802Y-78237196D01*
X129543802Y-78237196D02*
X129516865Y-78156384D01*
X129516865Y-78156384D02*
X129516865Y-78102509D01*
X129516865Y-78102509D02*
X129543802Y-78021697D01*
X129543802Y-78021697D02*
X129597677Y-77967822D01*
X129597677Y-77967822D02*
X129678489Y-77940884D01*
X129678489Y-77940884D02*
X129732364Y-77940884D01*
X129732364Y-77940884D02*
X129813176Y-77967822D01*
X129813176Y-77967822D02*
X129947863Y-78048634D01*
X129947863Y-78048634D02*
X130028675Y-78075571D01*
X130028675Y-78075571D02*
X130082550Y-78075571D01*
X130082550Y-78075571D02*
X130163362Y-78048634D01*
X130163362Y-78048634D02*
X130217237Y-77994759D01*
X130217237Y-77994759D02*
X130244174Y-77913947D01*
X130244174Y-77913947D02*
X130244174Y-77860072D01*
X130244174Y-77860072D02*
X130217237Y-77779260D01*
X130217237Y-77779260D02*
X130082550Y-77644573D01*
X130082550Y-77644573D02*
X129974800Y-77590698D01*
X129355240Y-77509886D02*
X129085866Y-77779260D01*
X129840113Y-77402136D02*
X129355240Y-77509886D01*
X129355240Y-77509886D02*
X129462990Y-77025013D01*
X128762617Y-77402136D02*
X128654868Y-77348262D01*
X128654868Y-77348262D02*
X128520181Y-77213575D01*
X128520181Y-77213575D02*
X128493243Y-77132762D01*
X128493243Y-77132762D02*
X128493243Y-77078888D01*
X128493243Y-77078888D02*
X128520181Y-76998075D01*
X128520181Y-76998075D02*
X128574056Y-76944201D01*
X128574056Y-76944201D02*
X128654868Y-76917263D01*
X128654868Y-76917263D02*
X128708743Y-76917263D01*
X128708743Y-76917263D02*
X128789555Y-76944201D01*
X128789555Y-76944201D02*
X128924242Y-77025013D01*
X128924242Y-77025013D02*
X129005054Y-77051950D01*
X129005054Y-77051950D02*
X129058929Y-77051950D01*
X129058929Y-77051950D02*
X129139741Y-77025013D01*
X129139741Y-77025013D02*
X129193616Y-76971138D01*
X129193616Y-76971138D02*
X129220553Y-76890326D01*
X129220553Y-76890326D02*
X129220553Y-76836451D01*
X129220553Y-76836451D02*
X129193616Y-76755639D01*
X129193616Y-76755639D02*
X129058929Y-76620952D01*
X129058929Y-76620952D02*
X128951179Y-76567077D01*
X130686486Y-111176384D02*
X130767298Y-111203321D01*
X130767298Y-111203321D02*
X130848110Y-111284133D01*
X130848110Y-111284133D02*
X130901985Y-111391883D01*
X130901985Y-111391883D02*
X130901985Y-111499632D01*
X130901985Y-111499632D02*
X130875048Y-111580445D01*
X130875048Y-111580445D02*
X130794235Y-111715132D01*
X130794235Y-111715132D02*
X130713423Y-111795944D01*
X130713423Y-111795944D02*
X130578736Y-111876756D01*
X130578736Y-111876756D02*
X130497924Y-111903693D01*
X130497924Y-111903693D02*
X130390174Y-111903693D01*
X130390174Y-111903693D02*
X130282425Y-111849819D01*
X130282425Y-111849819D02*
X130228550Y-111795944D01*
X130228550Y-111795944D02*
X130174675Y-111688194D01*
X130174675Y-111688194D02*
X130174675Y-111634319D01*
X130174675Y-111634319D02*
X130363237Y-111445758D01*
X130363237Y-111445758D02*
X130470987Y-111553507D01*
X129878364Y-111445758D02*
X130444049Y-110880072D01*
X130444049Y-110880072D02*
X130228550Y-110664573D01*
X130228550Y-110664573D02*
X130147738Y-110637636D01*
X130147738Y-110637636D02*
X130093863Y-110637636D01*
X130093863Y-110637636D02*
X130013051Y-110664573D01*
X130013051Y-110664573D02*
X129932239Y-110745385D01*
X129932239Y-110745385D02*
X129905301Y-110826197D01*
X129905301Y-110826197D02*
X129905301Y-110880072D01*
X129905301Y-110880072D02*
X129932239Y-110960884D01*
X129932239Y-110960884D02*
X130147738Y-111176384D01*
X129851426Y-110395199D02*
X129851426Y-110341324D01*
X129851426Y-110341324D02*
X129824489Y-110260512D01*
X129824489Y-110260512D02*
X129689802Y-110125825D01*
X129689802Y-110125825D02*
X129608990Y-110098887D01*
X129608990Y-110098887D02*
X129555115Y-110098887D01*
X129555115Y-110098887D02*
X129474303Y-110125825D01*
X129474303Y-110125825D02*
X129420428Y-110179700D01*
X129420428Y-110179700D02*
X129366553Y-110287449D01*
X129366553Y-110287449D02*
X129366553Y-110933947D01*
X129366553Y-110933947D02*
X129016367Y-110583761D01*
X129231866Y-109667889D02*
X129177991Y-109614014D01*
X129177991Y-109614014D02*
X129097179Y-109587077D01*
X129097179Y-109587077D02*
X129043304Y-109587077D01*
X129043304Y-109587077D02*
X128962492Y-109614014D01*
X128962492Y-109614014D02*
X128827805Y-109694826D01*
X128827805Y-109694826D02*
X128693118Y-109829513D01*
X128693118Y-109829513D02*
X128612306Y-109964200D01*
X128612306Y-109964200D02*
X128585368Y-110045013D01*
X128585368Y-110045013D02*
X128585368Y-110098887D01*
X128585368Y-110098887D02*
X128612306Y-110179700D01*
X128612306Y-110179700D02*
X128666181Y-110233574D01*
X128666181Y-110233574D02*
X128746993Y-110260512D01*
X128746993Y-110260512D02*
X128800868Y-110260512D01*
X128800868Y-110260512D02*
X128881680Y-110233574D01*
X128881680Y-110233574D02*
X129016367Y-110152762D01*
X129016367Y-110152762D02*
X129151054Y-110018075D01*
X129151054Y-110018075D02*
X129231866Y-109883388D01*
X129231866Y-109883388D02*
X129258803Y-109802576D01*
X129258803Y-109802576D02*
X129258803Y-109748701D01*
X129258803Y-109748701D02*
X129231866Y-109667889D01*
X130632610Y-94096755D02*
X130363236Y-93827381D01*
X130524861Y-94312254D02*
X130901984Y-93558007D01*
X130901984Y-93558007D02*
X130147737Y-93935131D01*
X130201612Y-92911510D02*
X130282424Y-92938447D01*
X130282424Y-92938447D02*
X130363237Y-93019259D01*
X130363237Y-93019259D02*
X130417111Y-93127009D01*
X130417111Y-93127009D02*
X130417111Y-93234759D01*
X130417111Y-93234759D02*
X130390174Y-93315571D01*
X130390174Y-93315571D02*
X130309362Y-93450258D01*
X130309362Y-93450258D02*
X130228550Y-93531070D01*
X130228550Y-93531070D02*
X130093863Y-93611882D01*
X130093863Y-93611882D02*
X130013050Y-93638820D01*
X130013050Y-93638820D02*
X129905301Y-93638820D01*
X129905301Y-93638820D02*
X129797551Y-93584945D01*
X129797551Y-93584945D02*
X129743676Y-93531070D01*
X129743676Y-93531070D02*
X129689802Y-93423320D01*
X129689802Y-93423320D02*
X129689802Y-93369446D01*
X129689802Y-93369446D02*
X129878363Y-93180884D01*
X129878363Y-93180884D02*
X129986113Y-93288633D01*
X129393490Y-93180884D02*
X129959176Y-92615198D01*
X129959176Y-92615198D02*
X129070241Y-92857635D01*
X129070241Y-92857635D02*
X129635927Y-92291950D01*
X128800867Y-92588261D02*
X129366553Y-92022576D01*
X129366553Y-92022576D02*
X129231866Y-91887889D01*
X129231866Y-91887889D02*
X129124116Y-91834014D01*
X129124116Y-91834014D02*
X129016367Y-91834014D01*
X129016367Y-91834014D02*
X128935554Y-91860951D01*
X128935554Y-91860951D02*
X128800867Y-91941764D01*
X128800867Y-91941764D02*
X128720055Y-92022576D01*
X128720055Y-92022576D02*
X128639243Y-92157263D01*
X128639243Y-92157263D02*
X128612306Y-92238075D01*
X128612306Y-92238075D02*
X128612306Y-92345825D01*
X128612306Y-92345825D02*
X128666180Y-92453574D01*
X128666180Y-92453574D02*
X128800867Y-92588261D01*
X130831078Y-75883101D02*
X130076831Y-76260224D01*
X130076831Y-76260224D02*
X130453954Y-75505977D01*
X129807457Y-75398228D02*
X129699707Y-75344353D01*
X129699707Y-75344353D02*
X129645832Y-75344353D01*
X129645832Y-75344353D02*
X129565020Y-75371290D01*
X129565020Y-75371290D02*
X129484208Y-75452103D01*
X129484208Y-75452103D02*
X129457271Y-75532915D01*
X129457271Y-75532915D02*
X129457271Y-75586790D01*
X129457271Y-75586790D02*
X129484208Y-75667602D01*
X129484208Y-75667602D02*
X129699707Y-75883101D01*
X129699707Y-75883101D02*
X130265393Y-75317416D01*
X130265393Y-75317416D02*
X130076831Y-75128854D01*
X130076831Y-75128854D02*
X129996019Y-75101916D01*
X129996019Y-75101916D02*
X129942144Y-75101916D01*
X129942144Y-75101916D02*
X129861332Y-75128854D01*
X129861332Y-75128854D02*
X129807457Y-75182729D01*
X129807457Y-75182729D02*
X129780519Y-75263541D01*
X129780519Y-75263541D02*
X129780519Y-75317416D01*
X129780519Y-75317416D02*
X129807457Y-75398228D01*
X129807457Y-75398228D02*
X129996019Y-75586790D01*
X129699707Y-74751730D02*
X129241771Y-75209666D01*
X129241771Y-75209666D02*
X129160959Y-75236603D01*
X129160959Y-75236603D02*
X129107084Y-75236603D01*
X129107084Y-75236603D02*
X129026272Y-75209666D01*
X129026272Y-75209666D02*
X128918523Y-75101916D01*
X128918523Y-75101916D02*
X128891585Y-75021104D01*
X128891585Y-75021104D02*
X128891585Y-74967229D01*
X128891585Y-74967229D02*
X128918523Y-74886417D01*
X128918523Y-74886417D02*
X129376458Y-74428481D01*
X128595274Y-74724793D02*
X128487524Y-74670918D01*
X128487524Y-74670918D02*
X128352837Y-74536231D01*
X128352837Y-74536231D02*
X128325900Y-74455419D01*
X128325900Y-74455419D02*
X128325900Y-74401544D01*
X128325900Y-74401544D02*
X128352837Y-74320732D01*
X128352837Y-74320732D02*
X128406712Y-74266857D01*
X128406712Y-74266857D02*
X128487524Y-74239920D01*
X128487524Y-74239920D02*
X128541399Y-74239920D01*
X128541399Y-74239920D02*
X128622211Y-74266857D01*
X128622211Y-74266857D02*
X128756898Y-74347669D01*
X128756898Y-74347669D02*
X128837711Y-74374607D01*
X128837711Y-74374607D02*
X128891585Y-74374607D01*
X128891585Y-74374607D02*
X128972398Y-74347669D01*
X128972398Y-74347669D02*
X129026272Y-74293794D01*
X129026272Y-74293794D02*
X129053210Y-74212982D01*
X129053210Y-74212982D02*
X129053210Y-74159107D01*
X129053210Y-74159107D02*
X129026272Y-74078295D01*
X129026272Y-74078295D02*
X128891585Y-73943608D01*
X128891585Y-73943608D02*
X128783836Y-73889733D01*
X130698049Y-118553946D02*
X130778861Y-118580884D01*
X130778861Y-118580884D02*
X130859673Y-118661696D01*
X130859673Y-118661696D02*
X130913548Y-118769446D01*
X130913548Y-118769446D02*
X130913548Y-118877195D01*
X130913548Y-118877195D02*
X130886610Y-118958007D01*
X130886610Y-118958007D02*
X130805798Y-119092694D01*
X130805798Y-119092694D02*
X130724986Y-119173507D01*
X130724986Y-119173507D02*
X130590299Y-119254319D01*
X130590299Y-119254319D02*
X130509487Y-119281256D01*
X130509487Y-119281256D02*
X130401737Y-119281256D01*
X130401737Y-119281256D02*
X130293988Y-119227381D01*
X130293988Y-119227381D02*
X130240113Y-119173507D01*
X130240113Y-119173507D02*
X130186238Y-119065757D01*
X130186238Y-119065757D02*
X130186238Y-119011882D01*
X130186238Y-119011882D02*
X130374800Y-118823320D01*
X130374800Y-118823320D02*
X130482549Y-118931070D01*
X129889927Y-118823320D02*
X130455612Y-118257635D01*
X130455612Y-118257635D02*
X129566678Y-118500072D01*
X129566678Y-118500072D02*
X130132363Y-117934386D01*
X129297304Y-118230698D02*
X129862989Y-117665012D01*
X129862989Y-117665012D02*
X129728302Y-117530325D01*
X129728302Y-117530325D02*
X129620553Y-117476450D01*
X129620553Y-117476450D02*
X129512803Y-117476450D01*
X129512803Y-117476450D02*
X129431991Y-117503388D01*
X129431991Y-117503388D02*
X129297304Y-117584200D01*
X129297304Y-117584200D02*
X129216492Y-117665012D01*
X129216492Y-117665012D02*
X129135680Y-117799699D01*
X129135680Y-117799699D02*
X129108742Y-117880511D01*
X129108742Y-117880511D02*
X129108742Y-117988261D01*
X129108742Y-117988261D02*
X129162617Y-118096011D01*
X129162617Y-118096011D02*
X129297304Y-118230698D01*
X156371111Y-77877009D02*
X156451924Y-77903946D01*
X156451924Y-77903946D02*
X156532736Y-77984759D01*
X156532736Y-77984759D02*
X156586611Y-78092508D01*
X156586611Y-78092508D02*
X156586611Y-78200258D01*
X156586611Y-78200258D02*
X156559673Y-78281070D01*
X156559673Y-78281070D02*
X156478861Y-78415757D01*
X156478861Y-78415757D02*
X156398049Y-78496569D01*
X156398049Y-78496569D02*
X156263362Y-78577382D01*
X156263362Y-78577382D02*
X156182550Y-78604319D01*
X156182550Y-78604319D02*
X156074800Y-78604319D01*
X156074800Y-78604319D02*
X155967050Y-78550444D01*
X155967050Y-78550444D02*
X155913176Y-78496569D01*
X155913176Y-78496569D02*
X155859301Y-78388820D01*
X155859301Y-78388820D02*
X155859301Y-78334945D01*
X155859301Y-78334945D02*
X156047863Y-78146383D01*
X156047863Y-78146383D02*
X156155612Y-78254133D01*
X155562989Y-78146383D02*
X156128675Y-77580698D01*
X156128675Y-77580698D02*
X155913176Y-77365198D01*
X155913176Y-77365198D02*
X155832363Y-77338261D01*
X155832363Y-77338261D02*
X155778489Y-77338261D01*
X155778489Y-77338261D02*
X155697676Y-77365198D01*
X155697676Y-77365198D02*
X155616864Y-77446011D01*
X155616864Y-77446011D02*
X155589927Y-77526823D01*
X155589927Y-77526823D02*
X155589927Y-77580698D01*
X155589927Y-77580698D02*
X155616864Y-77661510D01*
X155616864Y-77661510D02*
X155832363Y-77877009D01*
X154700993Y-77284386D02*
X155024241Y-77607635D01*
X154862617Y-77446011D02*
X155428302Y-76880325D01*
X155428302Y-76880325D02*
X155401365Y-77015012D01*
X155401365Y-77015012D02*
X155401365Y-77122762D01*
X155401365Y-77122762D02*
X155428302Y-77203574D01*
X156371111Y-82967009D02*
X156451924Y-82993946D01*
X156451924Y-82993946D02*
X156532736Y-83074759D01*
X156532736Y-83074759D02*
X156586611Y-83182508D01*
X156586611Y-83182508D02*
X156586611Y-83290258D01*
X156586611Y-83290258D02*
X156559673Y-83371070D01*
X156559673Y-83371070D02*
X156478861Y-83505757D01*
X156478861Y-83505757D02*
X156398049Y-83586569D01*
X156398049Y-83586569D02*
X156263362Y-83667382D01*
X156263362Y-83667382D02*
X156182550Y-83694319D01*
X156182550Y-83694319D02*
X156074800Y-83694319D01*
X156074800Y-83694319D02*
X155967050Y-83640444D01*
X155967050Y-83640444D02*
X155913176Y-83586569D01*
X155913176Y-83586569D02*
X155859301Y-83478820D01*
X155859301Y-83478820D02*
X155859301Y-83424945D01*
X155859301Y-83424945D02*
X156047863Y-83236383D01*
X156047863Y-83236383D02*
X156155612Y-83344133D01*
X155562989Y-83236383D02*
X156128675Y-82670698D01*
X156128675Y-82670698D02*
X155913176Y-82455198D01*
X155913176Y-82455198D02*
X155832363Y-82428261D01*
X155832363Y-82428261D02*
X155778489Y-82428261D01*
X155778489Y-82428261D02*
X155697676Y-82455198D01*
X155697676Y-82455198D02*
X155616864Y-82536011D01*
X155616864Y-82536011D02*
X155589927Y-82616823D01*
X155589927Y-82616823D02*
X155589927Y-82670698D01*
X155589927Y-82670698D02*
X155616864Y-82751510D01*
X155616864Y-82751510D02*
X155832363Y-82967009D01*
X155536052Y-82185824D02*
X155536052Y-82131950D01*
X155536052Y-82131950D02*
X155509115Y-82051137D01*
X155509115Y-82051137D02*
X155374428Y-81916450D01*
X155374428Y-81916450D02*
X155293615Y-81889513D01*
X155293615Y-81889513D02*
X155239741Y-81889513D01*
X155239741Y-81889513D02*
X155158928Y-81916450D01*
X155158928Y-81916450D02*
X155105054Y-81970325D01*
X155105054Y-81970325D02*
X155051179Y-82078075D01*
X155051179Y-82078075D02*
X155051179Y-82724572D01*
X155051179Y-82724572D02*
X154700993Y-82374386D01*
X156271111Y-75347009D02*
X156351924Y-75373946D01*
X156351924Y-75373946D02*
X156432736Y-75454759D01*
X156432736Y-75454759D02*
X156486611Y-75562508D01*
X156486611Y-75562508D02*
X156486611Y-75670258D01*
X156486611Y-75670258D02*
X156459673Y-75751070D01*
X156459673Y-75751070D02*
X156378861Y-75885757D01*
X156378861Y-75885757D02*
X156298049Y-75966569D01*
X156298049Y-75966569D02*
X156163362Y-76047382D01*
X156163362Y-76047382D02*
X156082550Y-76074319D01*
X156082550Y-76074319D02*
X155974800Y-76074319D01*
X155974800Y-76074319D02*
X155867050Y-76020444D01*
X155867050Y-76020444D02*
X155813176Y-75966569D01*
X155813176Y-75966569D02*
X155759301Y-75858820D01*
X155759301Y-75858820D02*
X155759301Y-75804945D01*
X155759301Y-75804945D02*
X155947863Y-75616383D01*
X155947863Y-75616383D02*
X156055612Y-75724133D01*
X155462989Y-75616383D02*
X156028675Y-75050698D01*
X156028675Y-75050698D02*
X155813176Y-74835198D01*
X155813176Y-74835198D02*
X155732363Y-74808261D01*
X155732363Y-74808261D02*
X155678489Y-74808261D01*
X155678489Y-74808261D02*
X155597676Y-74835198D01*
X155597676Y-74835198D02*
X155516864Y-74916011D01*
X155516864Y-74916011D02*
X155489927Y-74996823D01*
X155489927Y-74996823D02*
X155489927Y-75050698D01*
X155489927Y-75050698D02*
X155516864Y-75131510D01*
X155516864Y-75131510D02*
X155732363Y-75347009D01*
X155355240Y-74377263D02*
X155301365Y-74323388D01*
X155301365Y-74323388D02*
X155220553Y-74296450D01*
X155220553Y-74296450D02*
X155166678Y-74296450D01*
X155166678Y-74296450D02*
X155085866Y-74323388D01*
X155085866Y-74323388D02*
X154951179Y-74404200D01*
X154951179Y-74404200D02*
X154816492Y-74538887D01*
X154816492Y-74538887D02*
X154735680Y-74673574D01*
X154735680Y-74673574D02*
X154708742Y-74754386D01*
X154708742Y-74754386D02*
X154708742Y-74808261D01*
X154708742Y-74808261D02*
X154735680Y-74889073D01*
X154735680Y-74889073D02*
X154789554Y-74942948D01*
X154789554Y-74942948D02*
X154870367Y-74969885D01*
X154870367Y-74969885D02*
X154924241Y-74969885D01*
X154924241Y-74969885D02*
X155005054Y-74942948D01*
X155005054Y-74942948D02*
X155139741Y-74862136D01*
X155139741Y-74862136D02*
X155274428Y-74727449D01*
X155274428Y-74727449D02*
X155355240Y-74592762D01*
X155355240Y-74592762D02*
X155382177Y-74511950D01*
X155382177Y-74511950D02*
X155382177Y-74458075D01*
X155382177Y-74458075D02*
X155355240Y-74377263D01*
X156794486Y-116256384D02*
X156875298Y-116283321D01*
X156875298Y-116283321D02*
X156956110Y-116364133D01*
X156956110Y-116364133D02*
X157009985Y-116471883D01*
X157009985Y-116471883D02*
X157009985Y-116579632D01*
X157009985Y-116579632D02*
X156983048Y-116660445D01*
X156983048Y-116660445D02*
X156902235Y-116795132D01*
X156902235Y-116795132D02*
X156821423Y-116875944D01*
X156821423Y-116875944D02*
X156686736Y-116956756D01*
X156686736Y-116956756D02*
X156605924Y-116983693D01*
X156605924Y-116983693D02*
X156498174Y-116983693D01*
X156498174Y-116983693D02*
X156390425Y-116929819D01*
X156390425Y-116929819D02*
X156336550Y-116875944D01*
X156336550Y-116875944D02*
X156282675Y-116768194D01*
X156282675Y-116768194D02*
X156282675Y-116714319D01*
X156282675Y-116714319D02*
X156471237Y-116525758D01*
X156471237Y-116525758D02*
X156578987Y-116633507D01*
X155986364Y-116525758D02*
X156552049Y-115960072D01*
X156552049Y-115960072D02*
X156336550Y-115744573D01*
X156336550Y-115744573D02*
X156255738Y-115717636D01*
X156255738Y-115717636D02*
X156201863Y-115717636D01*
X156201863Y-115717636D02*
X156121051Y-115744573D01*
X156121051Y-115744573D02*
X156040239Y-115825385D01*
X156040239Y-115825385D02*
X156013301Y-115906197D01*
X156013301Y-115906197D02*
X156013301Y-115960072D01*
X156013301Y-115960072D02*
X156040239Y-116040884D01*
X156040239Y-116040884D02*
X156255738Y-116256384D01*
X155124367Y-115663761D02*
X155447616Y-115987010D01*
X155285991Y-115825385D02*
X155851677Y-115259700D01*
X155851677Y-115259700D02*
X155824739Y-115394387D01*
X155824739Y-115394387D02*
X155824739Y-115502136D01*
X155824739Y-115502136D02*
X155851677Y-115582948D01*
X155501490Y-114909513D02*
X155151304Y-114559327D01*
X155151304Y-114559327D02*
X155124367Y-114963388D01*
X155124367Y-114963388D02*
X155043555Y-114882576D01*
X155043555Y-114882576D02*
X154962742Y-114855638D01*
X154962742Y-114855638D02*
X154908868Y-114855638D01*
X154908868Y-114855638D02*
X154828055Y-114882576D01*
X154828055Y-114882576D02*
X154693368Y-115017263D01*
X154693368Y-115017263D02*
X154666431Y-115098075D01*
X154666431Y-115098075D02*
X154666431Y-115151950D01*
X154666431Y-115151950D02*
X154693368Y-115232762D01*
X154693368Y-115232762D02*
X154854993Y-115394387D01*
X154854993Y-115394387D02*
X154935805Y-115421324D01*
X154935805Y-115421324D02*
X154989680Y-115421324D01*
X156794486Y-123876384D02*
X156875298Y-123903321D01*
X156875298Y-123903321D02*
X156956110Y-123984133D01*
X156956110Y-123984133D02*
X157009985Y-124091883D01*
X157009985Y-124091883D02*
X157009985Y-124199632D01*
X157009985Y-124199632D02*
X156983048Y-124280445D01*
X156983048Y-124280445D02*
X156902235Y-124415132D01*
X156902235Y-124415132D02*
X156821423Y-124495944D01*
X156821423Y-124495944D02*
X156686736Y-124576756D01*
X156686736Y-124576756D02*
X156605924Y-124603693D01*
X156605924Y-124603693D02*
X156498174Y-124603693D01*
X156498174Y-124603693D02*
X156390425Y-124549819D01*
X156390425Y-124549819D02*
X156336550Y-124495944D01*
X156336550Y-124495944D02*
X156282675Y-124388194D01*
X156282675Y-124388194D02*
X156282675Y-124334319D01*
X156282675Y-124334319D02*
X156471237Y-124145758D01*
X156471237Y-124145758D02*
X156578987Y-124253507D01*
X155986364Y-124145758D02*
X156552049Y-123580072D01*
X156552049Y-123580072D02*
X156336550Y-123364573D01*
X156336550Y-123364573D02*
X156255738Y-123337636D01*
X156255738Y-123337636D02*
X156201863Y-123337636D01*
X156201863Y-123337636D02*
X156121051Y-123364573D01*
X156121051Y-123364573D02*
X156040239Y-123445385D01*
X156040239Y-123445385D02*
X156013301Y-123526197D01*
X156013301Y-123526197D02*
X156013301Y-123580072D01*
X156013301Y-123580072D02*
X156040239Y-123660884D01*
X156040239Y-123660884D02*
X156255738Y-123876384D01*
X155124367Y-123283761D02*
X155447616Y-123607010D01*
X155285991Y-123445385D02*
X155851677Y-122879700D01*
X155851677Y-122879700D02*
X155824739Y-123014387D01*
X155824739Y-123014387D02*
X155824739Y-123122136D01*
X155824739Y-123122136D02*
X155851677Y-123202948D01*
X155178242Y-122206264D02*
X155447616Y-122475638D01*
X155447616Y-122475638D02*
X155205179Y-122771950D01*
X155205179Y-122771950D02*
X155205179Y-122718075D01*
X155205179Y-122718075D02*
X155178242Y-122637263D01*
X155178242Y-122637263D02*
X155043555Y-122502576D01*
X155043555Y-122502576D02*
X154962742Y-122475638D01*
X154962742Y-122475638D02*
X154908868Y-122475638D01*
X154908868Y-122475638D02*
X154828055Y-122502576D01*
X154828055Y-122502576D02*
X154693368Y-122637263D01*
X154693368Y-122637263D02*
X154666431Y-122718075D01*
X154666431Y-122718075D02*
X154666431Y-122771950D01*
X154666431Y-122771950D02*
X154693368Y-122852762D01*
X154693368Y-122852762D02*
X154828055Y-122987449D01*
X154828055Y-122987449D02*
X154908868Y-123014387D01*
X154908868Y-123014387D02*
X154962742Y-123014387D01*
X156940486Y-111176384D02*
X157021298Y-111203321D01*
X157021298Y-111203321D02*
X157102110Y-111284133D01*
X157102110Y-111284133D02*
X157155985Y-111391883D01*
X157155985Y-111391883D02*
X157155985Y-111499632D01*
X157155985Y-111499632D02*
X157129048Y-111580445D01*
X157129048Y-111580445D02*
X157048235Y-111715132D01*
X157048235Y-111715132D02*
X156967423Y-111795944D01*
X156967423Y-111795944D02*
X156832736Y-111876756D01*
X156832736Y-111876756D02*
X156751924Y-111903693D01*
X156751924Y-111903693D02*
X156644174Y-111903693D01*
X156644174Y-111903693D02*
X156536425Y-111849819D01*
X156536425Y-111849819D02*
X156482550Y-111795944D01*
X156482550Y-111795944D02*
X156428675Y-111688194D01*
X156428675Y-111688194D02*
X156428675Y-111634319D01*
X156428675Y-111634319D02*
X156617237Y-111445758D01*
X156617237Y-111445758D02*
X156724987Y-111553507D01*
X156132364Y-111445758D02*
X156698049Y-110880072D01*
X156698049Y-110880072D02*
X156482550Y-110664573D01*
X156482550Y-110664573D02*
X156401738Y-110637636D01*
X156401738Y-110637636D02*
X156347863Y-110637636D01*
X156347863Y-110637636D02*
X156267051Y-110664573D01*
X156267051Y-110664573D02*
X156186239Y-110745385D01*
X156186239Y-110745385D02*
X156159301Y-110826197D01*
X156159301Y-110826197D02*
X156159301Y-110880072D01*
X156159301Y-110880072D02*
X156186239Y-110960884D01*
X156186239Y-110960884D02*
X156401738Y-111176384D01*
X155270367Y-110583761D02*
X155593616Y-110907010D01*
X155431991Y-110745385D02*
X155997677Y-110179700D01*
X155997677Y-110179700D02*
X155970739Y-110314387D01*
X155970739Y-110314387D02*
X155970739Y-110422136D01*
X155970739Y-110422136D02*
X155997677Y-110502948D01*
X154731619Y-110045013D02*
X155054868Y-110368261D01*
X154893243Y-110206637D02*
X155458929Y-109640951D01*
X155458929Y-109640951D02*
X155431991Y-109775638D01*
X155431991Y-109775638D02*
X155431991Y-109883388D01*
X155431991Y-109883388D02*
X155458929Y-109964200D01*
X156271111Y-103287009D02*
X156351924Y-103313946D01*
X156351924Y-103313946D02*
X156432736Y-103394759D01*
X156432736Y-103394759D02*
X156486611Y-103502508D01*
X156486611Y-103502508D02*
X156486611Y-103610258D01*
X156486611Y-103610258D02*
X156459673Y-103691070D01*
X156459673Y-103691070D02*
X156378861Y-103825757D01*
X156378861Y-103825757D02*
X156298049Y-103906569D01*
X156298049Y-103906569D02*
X156163362Y-103987382D01*
X156163362Y-103987382D02*
X156082550Y-104014319D01*
X156082550Y-104014319D02*
X155974800Y-104014319D01*
X155974800Y-104014319D02*
X155867050Y-103960444D01*
X155867050Y-103960444D02*
X155813176Y-103906569D01*
X155813176Y-103906569D02*
X155759301Y-103798820D01*
X155759301Y-103798820D02*
X155759301Y-103744945D01*
X155759301Y-103744945D02*
X155947863Y-103556383D01*
X155947863Y-103556383D02*
X156055612Y-103664133D01*
X155462989Y-103556383D02*
X156028675Y-102990698D01*
X156028675Y-102990698D02*
X155813176Y-102775198D01*
X155813176Y-102775198D02*
X155732363Y-102748261D01*
X155732363Y-102748261D02*
X155678489Y-102748261D01*
X155678489Y-102748261D02*
X155597676Y-102775198D01*
X155597676Y-102775198D02*
X155516864Y-102856011D01*
X155516864Y-102856011D02*
X155489927Y-102936823D01*
X155489927Y-102936823D02*
X155489927Y-102990698D01*
X155489927Y-102990698D02*
X155516864Y-103071510D01*
X155516864Y-103071510D02*
X155732363Y-103287009D01*
X154870367Y-102963760D02*
X154762617Y-102856011D01*
X154762617Y-102856011D02*
X154735680Y-102775198D01*
X154735680Y-102775198D02*
X154735680Y-102721324D01*
X154735680Y-102721324D02*
X154762617Y-102586637D01*
X154762617Y-102586637D02*
X154843429Y-102451950D01*
X154843429Y-102451950D02*
X155058928Y-102236450D01*
X155058928Y-102236450D02*
X155139741Y-102209513D01*
X155139741Y-102209513D02*
X155193615Y-102209513D01*
X155193615Y-102209513D02*
X155274428Y-102236450D01*
X155274428Y-102236450D02*
X155382177Y-102344200D01*
X155382177Y-102344200D02*
X155409115Y-102425012D01*
X155409115Y-102425012D02*
X155409115Y-102478887D01*
X155409115Y-102478887D02*
X155382177Y-102559699D01*
X155382177Y-102559699D02*
X155247490Y-102694386D01*
X155247490Y-102694386D02*
X155166678Y-102721324D01*
X155166678Y-102721324D02*
X155112803Y-102721324D01*
X155112803Y-102721324D02*
X155031991Y-102694386D01*
X155031991Y-102694386D02*
X154924241Y-102586637D01*
X154924241Y-102586637D02*
X154897304Y-102505824D01*
X154897304Y-102505824D02*
X154897304Y-102451950D01*
X154897304Y-102451950D02*
X154924241Y-102371137D01*
X156298049Y-80453946D02*
X156378861Y-80480884D01*
X156378861Y-80480884D02*
X156459673Y-80561696D01*
X156459673Y-80561696D02*
X156513548Y-80669446D01*
X156513548Y-80669446D02*
X156513548Y-80777195D01*
X156513548Y-80777195D02*
X156486610Y-80858007D01*
X156486610Y-80858007D02*
X156405798Y-80992694D01*
X156405798Y-80992694D02*
X156324986Y-81073507D01*
X156324986Y-81073507D02*
X156190299Y-81154319D01*
X156190299Y-81154319D02*
X156109487Y-81181256D01*
X156109487Y-81181256D02*
X156001737Y-81181256D01*
X156001737Y-81181256D02*
X155893988Y-81127381D01*
X155893988Y-81127381D02*
X155840113Y-81073507D01*
X155840113Y-81073507D02*
X155786238Y-80965757D01*
X155786238Y-80965757D02*
X155786238Y-80911882D01*
X155786238Y-80911882D02*
X155974800Y-80723320D01*
X155974800Y-80723320D02*
X156082549Y-80831070D01*
X155489927Y-80723320D02*
X156055612Y-80157635D01*
X156055612Y-80157635D02*
X155166678Y-80400072D01*
X155166678Y-80400072D02*
X155732363Y-79834386D01*
X154897304Y-80130698D02*
X155462989Y-79565012D01*
X155462989Y-79565012D02*
X155328302Y-79430325D01*
X155328302Y-79430325D02*
X155220553Y-79376450D01*
X155220553Y-79376450D02*
X155112803Y-79376450D01*
X155112803Y-79376450D02*
X155031991Y-79403388D01*
X155031991Y-79403388D02*
X154897304Y-79484200D01*
X154897304Y-79484200D02*
X154816492Y-79565012D01*
X154816492Y-79565012D02*
X154735680Y-79699699D01*
X154735680Y-79699699D02*
X154708742Y-79780511D01*
X154708742Y-79780511D02*
X154708742Y-79888261D01*
X154708742Y-79888261D02*
X154762617Y-79996011D01*
X154762617Y-79996011D02*
X154897304Y-80130698D01*
X130686486Y-103556384D02*
X130767298Y-103583321D01*
X130767298Y-103583321D02*
X130848110Y-103664133D01*
X130848110Y-103664133D02*
X130901985Y-103771883D01*
X130901985Y-103771883D02*
X130901985Y-103879632D01*
X130901985Y-103879632D02*
X130875048Y-103960445D01*
X130875048Y-103960445D02*
X130794235Y-104095132D01*
X130794235Y-104095132D02*
X130713423Y-104175944D01*
X130713423Y-104175944D02*
X130578736Y-104256756D01*
X130578736Y-104256756D02*
X130497924Y-104283693D01*
X130497924Y-104283693D02*
X130390174Y-104283693D01*
X130390174Y-104283693D02*
X130282425Y-104229819D01*
X130282425Y-104229819D02*
X130228550Y-104175944D01*
X130228550Y-104175944D02*
X130174675Y-104068194D01*
X130174675Y-104068194D02*
X130174675Y-104014319D01*
X130174675Y-104014319D02*
X130363237Y-103825758D01*
X130363237Y-103825758D02*
X130470987Y-103933507D01*
X129878364Y-103825758D02*
X130444049Y-103260072D01*
X130444049Y-103260072D02*
X130228550Y-103044573D01*
X130228550Y-103044573D02*
X130147738Y-103017636D01*
X130147738Y-103017636D02*
X130093863Y-103017636D01*
X130093863Y-103017636D02*
X130013051Y-103044573D01*
X130013051Y-103044573D02*
X129932239Y-103125385D01*
X129932239Y-103125385D02*
X129905301Y-103206197D01*
X129905301Y-103206197D02*
X129905301Y-103260072D01*
X129905301Y-103260072D02*
X129932239Y-103340884D01*
X129932239Y-103340884D02*
X130147738Y-103556384D01*
X129851426Y-102775199D02*
X129851426Y-102721324D01*
X129851426Y-102721324D02*
X129824489Y-102640512D01*
X129824489Y-102640512D02*
X129689802Y-102505825D01*
X129689802Y-102505825D02*
X129608990Y-102478887D01*
X129608990Y-102478887D02*
X129555115Y-102478887D01*
X129555115Y-102478887D02*
X129474303Y-102505825D01*
X129474303Y-102505825D02*
X129420428Y-102559700D01*
X129420428Y-102559700D02*
X129366553Y-102667449D01*
X129366553Y-102667449D02*
X129366553Y-103313947D01*
X129366553Y-103313947D02*
X129016367Y-102963761D01*
X129312678Y-102236451D02*
X129312678Y-102182576D01*
X129312678Y-102182576D02*
X129285741Y-102101764D01*
X129285741Y-102101764D02*
X129151054Y-101967077D01*
X129151054Y-101967077D02*
X129070242Y-101940139D01*
X129070242Y-101940139D02*
X129016367Y-101940139D01*
X129016367Y-101940139D02*
X128935555Y-101967077D01*
X128935555Y-101967077D02*
X128881680Y-102020951D01*
X128881680Y-102020951D02*
X128827805Y-102128701D01*
X128827805Y-102128701D02*
X128827805Y-102775199D01*
X128827805Y-102775199D02*
X128477619Y-102425013D01*
X130686486Y-116256384D02*
X130767298Y-116283321D01*
X130767298Y-116283321D02*
X130848110Y-116364133D01*
X130848110Y-116364133D02*
X130901985Y-116471883D01*
X130901985Y-116471883D02*
X130901985Y-116579632D01*
X130901985Y-116579632D02*
X130875048Y-116660445D01*
X130875048Y-116660445D02*
X130794235Y-116795132D01*
X130794235Y-116795132D02*
X130713423Y-116875944D01*
X130713423Y-116875944D02*
X130578736Y-116956756D01*
X130578736Y-116956756D02*
X130497924Y-116983693D01*
X130497924Y-116983693D02*
X130390174Y-116983693D01*
X130390174Y-116983693D02*
X130282425Y-116929819D01*
X130282425Y-116929819D02*
X130228550Y-116875944D01*
X130228550Y-116875944D02*
X130174675Y-116768194D01*
X130174675Y-116768194D02*
X130174675Y-116714319D01*
X130174675Y-116714319D02*
X130363237Y-116525758D01*
X130363237Y-116525758D02*
X130470987Y-116633507D01*
X129878364Y-116525758D02*
X130444049Y-115960072D01*
X130444049Y-115960072D02*
X130228550Y-115744573D01*
X130228550Y-115744573D02*
X130147738Y-115717636D01*
X130147738Y-115717636D02*
X130093863Y-115717636D01*
X130093863Y-115717636D02*
X130013051Y-115744573D01*
X130013051Y-115744573D02*
X129932239Y-115825385D01*
X129932239Y-115825385D02*
X129905301Y-115906197D01*
X129905301Y-115906197D02*
X129905301Y-115960072D01*
X129905301Y-115960072D02*
X129932239Y-116040884D01*
X129932239Y-116040884D02*
X130147738Y-116256384D01*
X129016367Y-115663761D02*
X129339616Y-115987010D01*
X129177991Y-115825385D02*
X129743677Y-115259700D01*
X129743677Y-115259700D02*
X129716739Y-115394387D01*
X129716739Y-115394387D02*
X129716739Y-115502136D01*
X129716739Y-115502136D02*
X129743677Y-115582948D01*
X129016367Y-115017263D02*
X129097179Y-115044200D01*
X129097179Y-115044200D02*
X129151054Y-115044200D01*
X129151054Y-115044200D02*
X129231866Y-115017263D01*
X129231866Y-115017263D02*
X129258803Y-114990326D01*
X129258803Y-114990326D02*
X129285741Y-114909513D01*
X129285741Y-114909513D02*
X129285741Y-114855638D01*
X129285741Y-114855638D02*
X129258803Y-114774826D01*
X129258803Y-114774826D02*
X129151054Y-114667077D01*
X129151054Y-114667077D02*
X129070242Y-114640139D01*
X129070242Y-114640139D02*
X129016367Y-114640139D01*
X129016367Y-114640139D02*
X128935555Y-114667077D01*
X128935555Y-114667077D02*
X128908617Y-114694014D01*
X128908617Y-114694014D02*
X128881680Y-114774826D01*
X128881680Y-114774826D02*
X128881680Y-114828701D01*
X128881680Y-114828701D02*
X128908617Y-114909513D01*
X128908617Y-114909513D02*
X129016367Y-115017263D01*
X129016367Y-115017263D02*
X129043304Y-115098075D01*
X129043304Y-115098075D02*
X129043304Y-115151950D01*
X129043304Y-115151950D02*
X129016367Y-115232762D01*
X129016367Y-115232762D02*
X128908617Y-115340512D01*
X128908617Y-115340512D02*
X128827805Y-115367449D01*
X128827805Y-115367449D02*
X128773930Y-115367449D01*
X128773930Y-115367449D02*
X128693118Y-115340512D01*
X128693118Y-115340512D02*
X128585368Y-115232762D01*
X128585368Y-115232762D02*
X128558431Y-115151950D01*
X128558431Y-115151950D02*
X128558431Y-115098075D01*
X128558431Y-115098075D02*
X128585368Y-115017263D01*
X128585368Y-115017263D02*
X128693118Y-114909513D01*
X128693118Y-114909513D02*
X128773930Y-114882576D01*
X128773930Y-114882576D02*
X128827805Y-114882576D01*
X128827805Y-114882576D02*
X128908617Y-114909513D01*
X156271111Y-85507009D02*
X156351924Y-85533946D01*
X156351924Y-85533946D02*
X156432736Y-85614759D01*
X156432736Y-85614759D02*
X156486611Y-85722508D01*
X156486611Y-85722508D02*
X156486611Y-85830258D01*
X156486611Y-85830258D02*
X156459673Y-85911070D01*
X156459673Y-85911070D02*
X156378861Y-86045757D01*
X156378861Y-86045757D02*
X156298049Y-86126569D01*
X156298049Y-86126569D02*
X156163362Y-86207382D01*
X156163362Y-86207382D02*
X156082550Y-86234319D01*
X156082550Y-86234319D02*
X155974800Y-86234319D01*
X155974800Y-86234319D02*
X155867050Y-86180444D01*
X155867050Y-86180444D02*
X155813176Y-86126569D01*
X155813176Y-86126569D02*
X155759301Y-86018820D01*
X155759301Y-86018820D02*
X155759301Y-85964945D01*
X155759301Y-85964945D02*
X155947863Y-85776383D01*
X155947863Y-85776383D02*
X156055612Y-85884133D01*
X155462989Y-85776383D02*
X156028675Y-85210698D01*
X156028675Y-85210698D02*
X155813176Y-84995198D01*
X155813176Y-84995198D02*
X155732363Y-84968261D01*
X155732363Y-84968261D02*
X155678489Y-84968261D01*
X155678489Y-84968261D02*
X155597676Y-84995198D01*
X155597676Y-84995198D02*
X155516864Y-85076011D01*
X155516864Y-85076011D02*
X155489927Y-85156823D01*
X155489927Y-85156823D02*
X155489927Y-85210698D01*
X155489927Y-85210698D02*
X155516864Y-85291510D01*
X155516864Y-85291510D02*
X155732363Y-85507009D01*
X155516864Y-84698887D02*
X155166678Y-84348701D01*
X155166678Y-84348701D02*
X155139741Y-84752762D01*
X155139741Y-84752762D02*
X155058928Y-84671950D01*
X155058928Y-84671950D02*
X154978116Y-84645012D01*
X154978116Y-84645012D02*
X154924241Y-84645012D01*
X154924241Y-84645012D02*
X154843429Y-84671950D01*
X154843429Y-84671950D02*
X154708742Y-84806637D01*
X154708742Y-84806637D02*
X154681805Y-84887449D01*
X154681805Y-84887449D02*
X154681805Y-84941324D01*
X154681805Y-84941324D02*
X154708742Y-85022136D01*
X154708742Y-85022136D02*
X154870367Y-85183760D01*
X154870367Y-85183760D02*
X154951179Y-85210698D01*
X154951179Y-85210698D02*
X155005054Y-85210698D01*
X156940486Y-113716384D02*
X157021298Y-113743321D01*
X157021298Y-113743321D02*
X157102110Y-113824133D01*
X157102110Y-113824133D02*
X157155985Y-113931883D01*
X157155985Y-113931883D02*
X157155985Y-114039632D01*
X157155985Y-114039632D02*
X157129048Y-114120445D01*
X157129048Y-114120445D02*
X157048235Y-114255132D01*
X157048235Y-114255132D02*
X156967423Y-114335944D01*
X156967423Y-114335944D02*
X156832736Y-114416756D01*
X156832736Y-114416756D02*
X156751924Y-114443693D01*
X156751924Y-114443693D02*
X156644174Y-114443693D01*
X156644174Y-114443693D02*
X156536425Y-114389819D01*
X156536425Y-114389819D02*
X156482550Y-114335944D01*
X156482550Y-114335944D02*
X156428675Y-114228194D01*
X156428675Y-114228194D02*
X156428675Y-114174319D01*
X156428675Y-114174319D02*
X156617237Y-113985758D01*
X156617237Y-113985758D02*
X156724987Y-114093507D01*
X156132364Y-113985758D02*
X156698049Y-113420072D01*
X156698049Y-113420072D02*
X156482550Y-113204573D01*
X156482550Y-113204573D02*
X156401738Y-113177636D01*
X156401738Y-113177636D02*
X156347863Y-113177636D01*
X156347863Y-113177636D02*
X156267051Y-113204573D01*
X156267051Y-113204573D02*
X156186239Y-113285385D01*
X156186239Y-113285385D02*
X156159301Y-113366197D01*
X156159301Y-113366197D02*
X156159301Y-113420072D01*
X156159301Y-113420072D02*
X156186239Y-113500884D01*
X156186239Y-113500884D02*
X156401738Y-113716384D01*
X155270367Y-113123761D02*
X155593616Y-113447010D01*
X155431991Y-113285385D02*
X155997677Y-112719700D01*
X155997677Y-112719700D02*
X155970739Y-112854387D01*
X155970739Y-112854387D02*
X155970739Y-112962136D01*
X155970739Y-112962136D02*
X155997677Y-113042948D01*
X155566678Y-112396451D02*
X155566678Y-112342576D01*
X155566678Y-112342576D02*
X155539741Y-112261764D01*
X155539741Y-112261764D02*
X155405054Y-112127077D01*
X155405054Y-112127077D02*
X155324242Y-112100139D01*
X155324242Y-112100139D02*
X155270367Y-112100139D01*
X155270367Y-112100139D02*
X155189555Y-112127077D01*
X155189555Y-112127077D02*
X155135680Y-112180951D01*
X155135680Y-112180951D02*
X155081805Y-112288701D01*
X155081805Y-112288701D02*
X155081805Y-112935199D01*
X155081805Y-112935199D02*
X154731619Y-112585013D01*
X130686486Y-98476384D02*
X130767298Y-98503321D01*
X130767298Y-98503321D02*
X130848110Y-98584133D01*
X130848110Y-98584133D02*
X130901985Y-98691883D01*
X130901985Y-98691883D02*
X130901985Y-98799632D01*
X130901985Y-98799632D02*
X130875048Y-98880445D01*
X130875048Y-98880445D02*
X130794235Y-99015132D01*
X130794235Y-99015132D02*
X130713423Y-99095944D01*
X130713423Y-99095944D02*
X130578736Y-99176756D01*
X130578736Y-99176756D02*
X130497924Y-99203693D01*
X130497924Y-99203693D02*
X130390174Y-99203693D01*
X130390174Y-99203693D02*
X130282425Y-99149819D01*
X130282425Y-99149819D02*
X130228550Y-99095944D01*
X130228550Y-99095944D02*
X130174675Y-98988194D01*
X130174675Y-98988194D02*
X130174675Y-98934319D01*
X130174675Y-98934319D02*
X130363237Y-98745758D01*
X130363237Y-98745758D02*
X130470987Y-98853507D01*
X129878364Y-98745758D02*
X130444049Y-98180072D01*
X130444049Y-98180072D02*
X130228550Y-97964573D01*
X130228550Y-97964573D02*
X130147738Y-97937636D01*
X130147738Y-97937636D02*
X130093863Y-97937636D01*
X130093863Y-97937636D02*
X130013051Y-97964573D01*
X130013051Y-97964573D02*
X129932239Y-98045385D01*
X129932239Y-98045385D02*
X129905301Y-98126197D01*
X129905301Y-98126197D02*
X129905301Y-98180072D01*
X129905301Y-98180072D02*
X129932239Y-98260884D01*
X129932239Y-98260884D02*
X130147738Y-98476384D01*
X129851426Y-97695199D02*
X129851426Y-97641324D01*
X129851426Y-97641324D02*
X129824489Y-97560512D01*
X129824489Y-97560512D02*
X129689802Y-97425825D01*
X129689802Y-97425825D02*
X129608990Y-97398887D01*
X129608990Y-97398887D02*
X129555115Y-97398887D01*
X129555115Y-97398887D02*
X129474303Y-97425825D01*
X129474303Y-97425825D02*
X129420428Y-97479700D01*
X129420428Y-97479700D02*
X129366553Y-97587449D01*
X129366553Y-97587449D02*
X129366553Y-98233947D01*
X129366553Y-98233947D02*
X129016367Y-97883761D01*
X129097179Y-96833202D02*
X129204929Y-96940951D01*
X129204929Y-96940951D02*
X129231866Y-97021764D01*
X129231866Y-97021764D02*
X129231866Y-97075638D01*
X129231866Y-97075638D02*
X129204929Y-97210326D01*
X129204929Y-97210326D02*
X129124116Y-97345013D01*
X129124116Y-97345013D02*
X128908617Y-97560512D01*
X128908617Y-97560512D02*
X128827805Y-97587449D01*
X128827805Y-97587449D02*
X128773930Y-97587449D01*
X128773930Y-97587449D02*
X128693118Y-97560512D01*
X128693118Y-97560512D02*
X128585368Y-97452762D01*
X128585368Y-97452762D02*
X128558431Y-97371950D01*
X128558431Y-97371950D02*
X128558431Y-97318075D01*
X128558431Y-97318075D02*
X128585368Y-97237263D01*
X128585368Y-97237263D02*
X128720055Y-97102576D01*
X128720055Y-97102576D02*
X128800868Y-97075638D01*
X128800868Y-97075638D02*
X128854742Y-97075638D01*
X128854742Y-97075638D02*
X128935555Y-97102576D01*
X128935555Y-97102576D02*
X129043304Y-97210326D01*
X129043304Y-97210326D02*
X129070242Y-97291138D01*
X129070242Y-97291138D02*
X129070242Y-97345013D01*
X129070242Y-97345013D02*
X129043304Y-97425825D01*
X130894361Y-85846383D02*
X130544174Y-85496197D01*
X130544174Y-85496197D02*
X130517237Y-85900258D01*
X130517237Y-85900258D02*
X130436425Y-85819446D01*
X130436425Y-85819446D02*
X130355613Y-85792509D01*
X130355613Y-85792509D02*
X130301738Y-85792509D01*
X130301738Y-85792509D02*
X130220926Y-85819446D01*
X130220926Y-85819446D02*
X130086239Y-85954133D01*
X130086239Y-85954133D02*
X130059301Y-86034945D01*
X130059301Y-86034945D02*
X130059301Y-86088820D01*
X130059301Y-86088820D02*
X130086239Y-86169632D01*
X130086239Y-86169632D02*
X130247863Y-86331257D01*
X130247863Y-86331257D02*
X130328675Y-86358194D01*
X130328675Y-86358194D02*
X130382550Y-86358194D01*
X130382550Y-85334573D02*
X129628303Y-85711696D01*
X129628303Y-85711696D02*
X130005426Y-84957449D01*
X129870739Y-84822762D02*
X129520553Y-84472576D01*
X129520553Y-84472576D02*
X129493616Y-84876637D01*
X129493616Y-84876637D02*
X129412804Y-84795825D01*
X129412804Y-84795825D02*
X129331991Y-84768887D01*
X129331991Y-84768887D02*
X129278117Y-84768887D01*
X129278117Y-84768887D02*
X129197304Y-84795825D01*
X129197304Y-84795825D02*
X129062617Y-84930512D01*
X129062617Y-84930512D02*
X129035680Y-85011324D01*
X129035680Y-85011324D02*
X129035680Y-85065199D01*
X129035680Y-85065199D02*
X129062617Y-85146011D01*
X129062617Y-85146011D02*
X129224242Y-85307635D01*
X129224242Y-85307635D02*
X129305054Y-85334573D01*
X129305054Y-85334573D02*
X129358929Y-85334573D01*
X156271111Y-95667009D02*
X156351924Y-95693946D01*
X156351924Y-95693946D02*
X156432736Y-95774759D01*
X156432736Y-95774759D02*
X156486611Y-95882508D01*
X156486611Y-95882508D02*
X156486611Y-95990258D01*
X156486611Y-95990258D02*
X156459673Y-96071070D01*
X156459673Y-96071070D02*
X156378861Y-96205757D01*
X156378861Y-96205757D02*
X156298049Y-96286569D01*
X156298049Y-96286569D02*
X156163362Y-96367382D01*
X156163362Y-96367382D02*
X156082550Y-96394319D01*
X156082550Y-96394319D02*
X155974800Y-96394319D01*
X155974800Y-96394319D02*
X155867050Y-96340444D01*
X155867050Y-96340444D02*
X155813176Y-96286569D01*
X155813176Y-96286569D02*
X155759301Y-96178820D01*
X155759301Y-96178820D02*
X155759301Y-96124945D01*
X155759301Y-96124945D02*
X155947863Y-95936383D01*
X155947863Y-95936383D02*
X156055612Y-96044133D01*
X155462989Y-95936383D02*
X156028675Y-95370698D01*
X156028675Y-95370698D02*
X155813176Y-95155198D01*
X155813176Y-95155198D02*
X155732363Y-95128261D01*
X155732363Y-95128261D02*
X155678489Y-95128261D01*
X155678489Y-95128261D02*
X155597676Y-95155198D01*
X155597676Y-95155198D02*
X155516864Y-95236011D01*
X155516864Y-95236011D02*
X155489927Y-95316823D01*
X155489927Y-95316823D02*
X155489927Y-95370698D01*
X155489927Y-95370698D02*
X155516864Y-95451510D01*
X155516864Y-95451510D02*
X155732363Y-95667009D01*
X155220553Y-94562576D02*
X155328302Y-94670325D01*
X155328302Y-94670325D02*
X155355240Y-94751137D01*
X155355240Y-94751137D02*
X155355240Y-94805012D01*
X155355240Y-94805012D02*
X155328302Y-94939699D01*
X155328302Y-94939699D02*
X155247490Y-95074386D01*
X155247490Y-95074386D02*
X155031991Y-95289885D01*
X155031991Y-95289885D02*
X154951179Y-95316823D01*
X154951179Y-95316823D02*
X154897304Y-95316823D01*
X154897304Y-95316823D02*
X154816492Y-95289885D01*
X154816492Y-95289885D02*
X154708742Y-95182136D01*
X154708742Y-95182136D02*
X154681805Y-95101324D01*
X154681805Y-95101324D02*
X154681805Y-95047449D01*
X154681805Y-95047449D02*
X154708742Y-94966637D01*
X154708742Y-94966637D02*
X154843429Y-94831950D01*
X154843429Y-94831950D02*
X154924241Y-94805012D01*
X154924241Y-94805012D02*
X154978116Y-94805012D01*
X154978116Y-94805012D02*
X155058928Y-94831950D01*
X155058928Y-94831950D02*
X155166678Y-94939699D01*
X155166678Y-94939699D02*
X155193615Y-95020511D01*
X155193615Y-95020511D02*
X155193615Y-95074386D01*
X155193615Y-95074386D02*
X155166678Y-95155198D01*
X150299524Y-125882000D02*
X150185238Y-125920095D01*
X150185238Y-125920095D02*
X149994762Y-125920095D01*
X149994762Y-125920095D02*
X149918571Y-125882000D01*
X149918571Y-125882000D02*
X149880476Y-125843904D01*
X149880476Y-125843904D02*
X149842381Y-125767714D01*
X149842381Y-125767714D02*
X149842381Y-125691523D01*
X149842381Y-125691523D02*
X149880476Y-125615333D01*
X149880476Y-125615333D02*
X149918571Y-125577238D01*
X149918571Y-125577238D02*
X149994762Y-125539142D01*
X149994762Y-125539142D02*
X150147143Y-125501047D01*
X150147143Y-125501047D02*
X150223333Y-125462952D01*
X150223333Y-125462952D02*
X150261428Y-125424857D01*
X150261428Y-125424857D02*
X150299524Y-125348666D01*
X150299524Y-125348666D02*
X150299524Y-125272476D01*
X150299524Y-125272476D02*
X150261428Y-125196285D01*
X150261428Y-125196285D02*
X150223333Y-125158190D01*
X150223333Y-125158190D02*
X150147143Y-125120095D01*
X150147143Y-125120095D02*
X149956666Y-125120095D01*
X149956666Y-125120095D02*
X149842381Y-125158190D01*
X149575714Y-125120095D02*
X149385238Y-125920095D01*
X149385238Y-125920095D02*
X149232857Y-125348666D01*
X149232857Y-125348666D02*
X149080476Y-125920095D01*
X149080476Y-125920095D02*
X148890000Y-125120095D01*
X148128094Y-125843904D02*
X148166190Y-125882000D01*
X148166190Y-125882000D02*
X148280475Y-125920095D01*
X148280475Y-125920095D02*
X148356666Y-125920095D01*
X148356666Y-125920095D02*
X148470952Y-125882000D01*
X148470952Y-125882000D02*
X148547142Y-125805809D01*
X148547142Y-125805809D02*
X148585237Y-125729619D01*
X148585237Y-125729619D02*
X148623333Y-125577238D01*
X148623333Y-125577238D02*
X148623333Y-125462952D01*
X148623333Y-125462952D02*
X148585237Y-125310571D01*
X148585237Y-125310571D02*
X148547142Y-125234380D01*
X148547142Y-125234380D02*
X148470952Y-125158190D01*
X148470952Y-125158190D02*
X148356666Y-125120095D01*
X148356666Y-125120095D02*
X148280475Y-125120095D01*
X148280475Y-125120095D02*
X148166190Y-125158190D01*
X148166190Y-125158190D02*
X148128094Y-125196285D01*
X147404285Y-125920095D02*
X147785237Y-125920095D01*
X147785237Y-125920095D02*
X147785237Y-125120095D01*
X147137618Y-125920095D02*
X147137618Y-125120095D01*
X146680475Y-125920095D02*
X147023333Y-125462952D01*
X146680475Y-125120095D02*
X147137618Y-125577238D01*
X156840486Y-121336384D02*
X156921298Y-121363321D01*
X156921298Y-121363321D02*
X157002110Y-121444133D01*
X157002110Y-121444133D02*
X157055985Y-121551883D01*
X157055985Y-121551883D02*
X157055985Y-121659632D01*
X157055985Y-121659632D02*
X157029048Y-121740445D01*
X157029048Y-121740445D02*
X156948235Y-121875132D01*
X156948235Y-121875132D02*
X156867423Y-121955944D01*
X156867423Y-121955944D02*
X156732736Y-122036756D01*
X156732736Y-122036756D02*
X156651924Y-122063693D01*
X156651924Y-122063693D02*
X156544174Y-122063693D01*
X156544174Y-122063693D02*
X156436425Y-122009819D01*
X156436425Y-122009819D02*
X156382550Y-121955944D01*
X156382550Y-121955944D02*
X156328675Y-121848194D01*
X156328675Y-121848194D02*
X156328675Y-121794319D01*
X156328675Y-121794319D02*
X156517237Y-121605758D01*
X156517237Y-121605758D02*
X156624987Y-121713507D01*
X156032364Y-121605758D02*
X156598049Y-121040072D01*
X156598049Y-121040072D02*
X156382550Y-120824573D01*
X156382550Y-120824573D02*
X156301738Y-120797636D01*
X156301738Y-120797636D02*
X156247863Y-120797636D01*
X156247863Y-120797636D02*
X156167051Y-120824573D01*
X156167051Y-120824573D02*
X156086239Y-120905385D01*
X156086239Y-120905385D02*
X156059301Y-120986197D01*
X156059301Y-120986197D02*
X156059301Y-121040072D01*
X156059301Y-121040072D02*
X156086239Y-121120884D01*
X156086239Y-121120884D02*
X156301738Y-121336384D01*
X155170367Y-120743761D02*
X155493616Y-121067010D01*
X155331991Y-120905385D02*
X155897677Y-120339700D01*
X155897677Y-120339700D02*
X155870739Y-120474387D01*
X155870739Y-120474387D02*
X155870739Y-120582136D01*
X155870739Y-120582136D02*
X155897677Y-120662948D01*
X155062617Y-119881764D02*
X154685494Y-120258887D01*
X155412803Y-119800951D02*
X155143429Y-120339700D01*
X155143429Y-120339700D02*
X154793243Y-119989513D01*
D11*
%TO.C,J3*%
X90320000Y-66580000D02*
X91320000Y-67080000D01*
X90320000Y-67580000D02*
X90320000Y-66580000D01*
X91320000Y-67080000D02*
X90320000Y-67580000D01*
X91710000Y-51710000D02*
X91710000Y-72290000D01*
X91710000Y-64050000D02*
X93020000Y-64050000D01*
X91710000Y-72290000D02*
X100830000Y-72290000D01*
X93020000Y-53010000D02*
X93020000Y-59950000D01*
X93020000Y-59950000D02*
X91710000Y-59950000D01*
X93020000Y-59950000D02*
X93020000Y-59950000D01*
X93020000Y-64050000D02*
X93020000Y-70990000D01*
X93020000Y-70990000D02*
X99520000Y-70990000D01*
X99520000Y-53010000D02*
X93020000Y-53010000D01*
X99520000Y-70990000D02*
X99520000Y-53010000D01*
X100830000Y-51710000D02*
X91710000Y-51710000D01*
X100830000Y-72290000D02*
X100830000Y-51710000D01*
%TO.C,L1*%
X125652323Y-72700000D02*
G75*
G03*
X125652323Y-72700000I-3620000J0D01*
G01*
%TO.C,C27*%
X121219974Y-66915000D02*
X122019974Y-66915000D01*
X121619974Y-67315000D02*
X121619974Y-66515000D01*
X125629672Y-68680000D02*
X125629672Y-60520000D01*
X125669672Y-68680000D02*
X125669672Y-60520000D01*
X125709672Y-68680000D02*
X125709672Y-60520000D01*
X125749672Y-68679000D02*
X125749672Y-60521000D01*
X125789672Y-68677000D02*
X125789672Y-60523000D01*
X125829672Y-68676000D02*
X125829672Y-60524000D01*
X125869672Y-68674000D02*
X125869672Y-60526000D01*
X125909672Y-68671000D02*
X125909672Y-60529000D01*
X125949672Y-68668000D02*
X125949672Y-60532000D01*
X125989672Y-68665000D02*
X125989672Y-60535000D01*
X126029672Y-68661000D02*
X126029672Y-60539000D01*
X126069672Y-68657000D02*
X126069672Y-60543000D01*
X126109672Y-68652000D02*
X126109672Y-60548000D01*
X126149672Y-68648000D02*
X126149672Y-60552000D01*
X126189672Y-68642000D02*
X126189672Y-60558000D01*
X126229672Y-68637000D02*
X126229672Y-60563000D01*
X126269672Y-68630000D02*
X126269672Y-60570000D01*
X126309672Y-68624000D02*
X126309672Y-60576000D01*
X126350672Y-63560000D02*
X126350672Y-60583000D01*
X126350672Y-68617000D02*
X126350672Y-65640000D01*
X126390672Y-63560000D02*
X126390672Y-60590000D01*
X126390672Y-68610000D02*
X126390672Y-65640000D01*
X126430672Y-63560000D02*
X126430672Y-60598000D01*
X126430672Y-68602000D02*
X126430672Y-65640000D01*
X126470672Y-63560000D02*
X126470672Y-60606000D01*
X126470672Y-68594000D02*
X126470672Y-65640000D01*
X126510672Y-63560000D02*
X126510672Y-60615000D01*
X126510672Y-68585000D02*
X126510672Y-65640000D01*
X126550672Y-63560000D02*
X126550672Y-60624000D01*
X126550672Y-68576000D02*
X126550672Y-65640000D01*
X126590672Y-63560000D02*
X126590672Y-60633000D01*
X126590672Y-68567000D02*
X126590672Y-65640000D01*
X126630672Y-63560000D02*
X126630672Y-60643000D01*
X126630672Y-68557000D02*
X126630672Y-65640000D01*
X126670672Y-63560000D02*
X126670672Y-60653000D01*
X126670672Y-68547000D02*
X126670672Y-65640000D01*
X126710672Y-63560000D02*
X126710672Y-60664000D01*
X126710672Y-68536000D02*
X126710672Y-65640000D01*
X126750672Y-63560000D02*
X126750672Y-60675000D01*
X126750672Y-68525000D02*
X126750672Y-65640000D01*
X126790672Y-63560000D02*
X126790672Y-60686000D01*
X126790672Y-68514000D02*
X126790672Y-65640000D01*
X126830672Y-63560000D02*
X126830672Y-60698000D01*
X126830672Y-68502000D02*
X126830672Y-65640000D01*
X126870672Y-63560000D02*
X126870672Y-60711000D01*
X126870672Y-68489000D02*
X126870672Y-65640000D01*
X126910672Y-63560000D02*
X126910672Y-60723000D01*
X126910672Y-68477000D02*
X126910672Y-65640000D01*
X126950672Y-63560000D02*
X126950672Y-60737000D01*
X126950672Y-68463000D02*
X126950672Y-65640000D01*
X126990672Y-63560000D02*
X126990672Y-60750000D01*
X126990672Y-68450000D02*
X126990672Y-65640000D01*
X127030672Y-63560000D02*
X127030672Y-60765000D01*
X127030672Y-68435000D02*
X127030672Y-65640000D01*
X127070672Y-63560000D02*
X127070672Y-60779000D01*
X127070672Y-68421000D02*
X127070672Y-65640000D01*
X127110672Y-63560000D02*
X127110672Y-60795000D01*
X127110672Y-68405000D02*
X127110672Y-65640000D01*
X127150672Y-63560000D02*
X127150672Y-60810000D01*
X127150672Y-68390000D02*
X127150672Y-65640000D01*
X127190672Y-63560000D02*
X127190672Y-60826000D01*
X127190672Y-68374000D02*
X127190672Y-65640000D01*
X127230672Y-63560000D02*
X127230672Y-60843000D01*
X127230672Y-68357000D02*
X127230672Y-65640000D01*
X127270672Y-63560000D02*
X127270672Y-60860000D01*
X127270672Y-68340000D02*
X127270672Y-65640000D01*
X127310672Y-63560000D02*
X127310672Y-60878000D01*
X127310672Y-68322000D02*
X127310672Y-65640000D01*
X127350672Y-63560000D02*
X127350672Y-60896000D01*
X127350672Y-68304000D02*
X127350672Y-65640000D01*
X127390672Y-63560000D02*
X127390672Y-60914000D01*
X127390672Y-68286000D02*
X127390672Y-65640000D01*
X127430672Y-63560000D02*
X127430672Y-60934000D01*
X127430672Y-68266000D02*
X127430672Y-65640000D01*
X127470672Y-63560000D02*
X127470672Y-60953000D01*
X127470672Y-68247000D02*
X127470672Y-65640000D01*
X127510672Y-63560000D02*
X127510672Y-60973000D01*
X127510672Y-68227000D02*
X127510672Y-65640000D01*
X127550672Y-63560000D02*
X127550672Y-60994000D01*
X127550672Y-68206000D02*
X127550672Y-65640000D01*
X127590672Y-63560000D02*
X127590672Y-61016000D01*
X127590672Y-68184000D02*
X127590672Y-65640000D01*
X127630672Y-63560000D02*
X127630672Y-61038000D01*
X127630672Y-68162000D02*
X127630672Y-65640000D01*
X127670672Y-63560000D02*
X127670672Y-61060000D01*
X127670672Y-68140000D02*
X127670672Y-65640000D01*
X127710672Y-63560000D02*
X127710672Y-61083000D01*
X127710672Y-68117000D02*
X127710672Y-65640000D01*
X127750672Y-63560000D02*
X127750672Y-61107000D01*
X127750672Y-68093000D02*
X127750672Y-65640000D01*
X127790672Y-63560000D02*
X127790672Y-61131000D01*
X127790672Y-68069000D02*
X127790672Y-65640000D01*
X127830672Y-63560000D02*
X127830672Y-61156000D01*
X127830672Y-68044000D02*
X127830672Y-65640000D01*
X127870672Y-63560000D02*
X127870672Y-61182000D01*
X127870672Y-68018000D02*
X127870672Y-65640000D01*
X127910672Y-63560000D02*
X127910672Y-61208000D01*
X127910672Y-67992000D02*
X127910672Y-65640000D01*
X127950672Y-63560000D02*
X127950672Y-61235000D01*
X127950672Y-67965000D02*
X127950672Y-65640000D01*
X127990672Y-63560000D02*
X127990672Y-61262000D01*
X127990672Y-67938000D02*
X127990672Y-65640000D01*
X128030672Y-63560000D02*
X128030672Y-61291000D01*
X128030672Y-67909000D02*
X128030672Y-65640000D01*
X128070672Y-63560000D02*
X128070672Y-61320000D01*
X128070672Y-67880000D02*
X128070672Y-65640000D01*
X128110672Y-63560000D02*
X128110672Y-61350000D01*
X128110672Y-67850000D02*
X128110672Y-65640000D01*
X128150672Y-63560000D02*
X128150672Y-61380000D01*
X128150672Y-67820000D02*
X128150672Y-65640000D01*
X128190672Y-63560000D02*
X128190672Y-61411000D01*
X128190672Y-67789000D02*
X128190672Y-65640000D01*
X128230672Y-63560000D02*
X128230672Y-61444000D01*
X128230672Y-67756000D02*
X128230672Y-65640000D01*
X128270672Y-63560000D02*
X128270672Y-61476000D01*
X128270672Y-67724000D02*
X128270672Y-65640000D01*
X128310672Y-63560000D02*
X128310672Y-61510000D01*
X128310672Y-67690000D02*
X128310672Y-65640000D01*
X128350672Y-63560000D02*
X128350672Y-61545000D01*
X128350672Y-67655000D02*
X128350672Y-65640000D01*
X128390672Y-63560000D02*
X128390672Y-61581000D01*
X128390672Y-67619000D02*
X128390672Y-65640000D01*
X128430672Y-67583000D02*
X128430672Y-61617000D01*
X128470672Y-67545000D02*
X128470672Y-61655000D01*
X128510672Y-67507000D02*
X128510672Y-61693000D01*
X128550672Y-67467000D02*
X128550672Y-61733000D01*
X128590672Y-67426000D02*
X128590672Y-61774000D01*
X128630672Y-67384000D02*
X128630672Y-61816000D01*
X128670672Y-67341000D02*
X128670672Y-61859000D01*
X128710672Y-67297000D02*
X128710672Y-61903000D01*
X128750672Y-67251000D02*
X128750672Y-61949000D01*
X128790672Y-67204000D02*
X128790672Y-61996000D01*
X128830672Y-67156000D02*
X128830672Y-62044000D01*
X128870672Y-67105000D02*
X128870672Y-62095000D01*
X128910672Y-67054000D02*
X128910672Y-62146000D01*
X128950672Y-67000000D02*
X128950672Y-62200000D01*
X128990672Y-66945000D02*
X128990672Y-62255000D01*
X129030672Y-66887000D02*
X129030672Y-62313000D01*
X129070672Y-66828000D02*
X129070672Y-62372000D01*
X129110672Y-66766000D02*
X129110672Y-62434000D01*
X129150672Y-66702000D02*
X129150672Y-62498000D01*
X129190672Y-66634000D02*
X129190672Y-62566000D01*
X129230672Y-66564000D02*
X129230672Y-62636000D01*
X129270672Y-66490000D02*
X129270672Y-62710000D01*
X129310672Y-66413000D02*
X129310672Y-62787000D01*
X129350672Y-66331000D02*
X129350672Y-62869000D01*
X129390672Y-66245000D02*
X129390672Y-62955000D01*
X129430672Y-66152000D02*
X129430672Y-63048000D01*
X129470672Y-66053000D02*
X129470672Y-63147000D01*
X129510672Y-65946000D02*
X129510672Y-63254000D01*
X129550672Y-65829000D02*
X129550672Y-63371000D01*
X129590672Y-65698000D02*
X129590672Y-63502000D01*
X129630672Y-65548000D02*
X129630672Y-63652000D01*
X129670672Y-65368000D02*
X129670672Y-63832000D01*
X129710672Y-65133000D02*
X129710672Y-64067000D01*
X129749672Y-64600000D02*
G75*
G03*
X129749672Y-64600000I-4120000J0D01*
G01*
%TO.C,C25*%
X121079646Y-62325000D02*
X120079646Y-62325000D01*
X120579646Y-61825000D02*
X120579646Y-62825000D01*
X115600000Y-60120000D02*
X115600000Y-70280000D01*
X115560000Y-60120000D02*
X115560000Y-70280000D01*
X115520000Y-60120000D02*
X115520000Y-70280000D01*
X115480000Y-60121000D02*
X115480000Y-70279000D01*
X115440000Y-60122000D02*
X115440000Y-70278000D01*
X115400000Y-60123000D02*
X115400000Y-70277000D01*
X115360000Y-60125000D02*
X115360000Y-70275000D01*
X115320000Y-60127000D02*
X115320000Y-70273000D01*
X115280000Y-60130000D02*
X115280000Y-70270000D01*
X115240000Y-60132000D02*
X115240000Y-70268000D01*
X115200000Y-60135000D02*
X115200000Y-70265000D01*
X115160000Y-60138000D02*
X115160000Y-70262000D01*
X115120000Y-60142000D02*
X115120000Y-70258000D01*
X115080000Y-60146000D02*
X115080000Y-70254000D01*
X115040000Y-60150000D02*
X115040000Y-70250000D01*
X115000000Y-60155000D02*
X115000000Y-70245000D01*
X114960000Y-60160000D02*
X114960000Y-70240000D01*
X114920000Y-60165000D02*
X114920000Y-70235000D01*
X114879000Y-60170000D02*
X114879000Y-70230000D01*
X114839000Y-60176000D02*
X114839000Y-70224000D01*
X114799000Y-60182000D02*
X114799000Y-70218000D01*
X114759000Y-60189000D02*
X114759000Y-70211000D01*
X114719000Y-60196000D02*
X114719000Y-70204000D01*
X114679000Y-60203000D02*
X114679000Y-70197000D01*
X114639000Y-60210000D02*
X114639000Y-70190000D01*
X114599000Y-60218000D02*
X114599000Y-70182000D01*
X114559000Y-60226000D02*
X114559000Y-70174000D01*
X114519000Y-60235000D02*
X114519000Y-70165000D01*
X114479000Y-60244000D02*
X114479000Y-70156000D01*
X114439000Y-60253000D02*
X114439000Y-70147000D01*
X114399000Y-60262000D02*
X114399000Y-70138000D01*
X114359000Y-60272000D02*
X114359000Y-70128000D01*
X114319000Y-66441000D02*
X114319000Y-70118000D01*
X114319000Y-60282000D02*
X114319000Y-63959000D01*
X114279000Y-66441000D02*
X114279000Y-70107000D01*
X114279000Y-60293000D02*
X114279000Y-63959000D01*
X114239000Y-66441000D02*
X114239000Y-70097000D01*
X114239000Y-60303000D02*
X114239000Y-63959000D01*
X114199000Y-66441000D02*
X114199000Y-70085000D01*
X114199000Y-60315000D02*
X114199000Y-63959000D01*
X114159000Y-66441000D02*
X114159000Y-70074000D01*
X114159000Y-60326000D02*
X114159000Y-63959000D01*
X114119000Y-66441000D02*
X114119000Y-70062000D01*
X114119000Y-60338000D02*
X114119000Y-63959000D01*
X114079000Y-66441000D02*
X114079000Y-70050000D01*
X114079000Y-60350000D02*
X114079000Y-63959000D01*
X114039000Y-66441000D02*
X114039000Y-70037000D01*
X114039000Y-60363000D02*
X114039000Y-63959000D01*
X113999000Y-66441000D02*
X113999000Y-70024000D01*
X113999000Y-60376000D02*
X113999000Y-63959000D01*
X113959000Y-66441000D02*
X113959000Y-70011000D01*
X113959000Y-60389000D02*
X113959000Y-63959000D01*
X113919000Y-66441000D02*
X113919000Y-69997000D01*
X113919000Y-60403000D02*
X113919000Y-63959000D01*
X113879000Y-66441000D02*
X113879000Y-69983000D01*
X113879000Y-60417000D02*
X113879000Y-63959000D01*
X113839000Y-66441000D02*
X113839000Y-69968000D01*
X113839000Y-60432000D02*
X113839000Y-63959000D01*
X113799000Y-66441000D02*
X113799000Y-69954000D01*
X113799000Y-60446000D02*
X113799000Y-63959000D01*
X113759000Y-66441000D02*
X113759000Y-69938000D01*
X113759000Y-60462000D02*
X113759000Y-63959000D01*
X113719000Y-66441000D02*
X113719000Y-69923000D01*
X113719000Y-60477000D02*
X113719000Y-63959000D01*
X113679000Y-66441000D02*
X113679000Y-69907000D01*
X113679000Y-60493000D02*
X113679000Y-63959000D01*
X113639000Y-66441000D02*
X113639000Y-69890000D01*
X113639000Y-60510000D02*
X113639000Y-63959000D01*
X113599000Y-66441000D02*
X113599000Y-69874000D01*
X113599000Y-60526000D02*
X113599000Y-63959000D01*
X113559000Y-66441000D02*
X113559000Y-69857000D01*
X113559000Y-60543000D02*
X113559000Y-63959000D01*
X113519000Y-66441000D02*
X113519000Y-69839000D01*
X113519000Y-60561000D02*
X113519000Y-63959000D01*
X113479000Y-66441000D02*
X113479000Y-69821000D01*
X113479000Y-60579000D02*
X113479000Y-63959000D01*
X113439000Y-66441000D02*
X113439000Y-69803000D01*
X113439000Y-60597000D02*
X113439000Y-63959000D01*
X113399000Y-66441000D02*
X113399000Y-69784000D01*
X113399000Y-60616000D02*
X113399000Y-63959000D01*
X113359000Y-66441000D02*
X113359000Y-69764000D01*
X113359000Y-60636000D02*
X113359000Y-63959000D01*
X113319000Y-66441000D02*
X113319000Y-69745000D01*
X113319000Y-60655000D02*
X113319000Y-63959000D01*
X113279000Y-66441000D02*
X113279000Y-69725000D01*
X113279000Y-60675000D02*
X113279000Y-63959000D01*
X113239000Y-66441000D02*
X113239000Y-69704000D01*
X113239000Y-60696000D02*
X113239000Y-63959000D01*
X113199000Y-66441000D02*
X113199000Y-69683000D01*
X113199000Y-60717000D02*
X113199000Y-63959000D01*
X113159000Y-66441000D02*
X113159000Y-69662000D01*
X113159000Y-60738000D02*
X113159000Y-63959000D01*
X113119000Y-66441000D02*
X113119000Y-69640000D01*
X113119000Y-60760000D02*
X113119000Y-63959000D01*
X113079000Y-66441000D02*
X113079000Y-69617000D01*
X113079000Y-60783000D02*
X113079000Y-63959000D01*
X113039000Y-66441000D02*
X113039000Y-69595000D01*
X113039000Y-60805000D02*
X113039000Y-63959000D01*
X112999000Y-66441000D02*
X112999000Y-69571000D01*
X112999000Y-60829000D02*
X112999000Y-63959000D01*
X112959000Y-66441000D02*
X112959000Y-69547000D01*
X112959000Y-60853000D02*
X112959000Y-63959000D01*
X112919000Y-66441000D02*
X112919000Y-69523000D01*
X112919000Y-60877000D02*
X112919000Y-63959000D01*
X112879000Y-66441000D02*
X112879000Y-69498000D01*
X112879000Y-60902000D02*
X112879000Y-63959000D01*
X112839000Y-66441000D02*
X112839000Y-69473000D01*
X112839000Y-60927000D02*
X112839000Y-63959000D01*
X112799000Y-66441000D02*
X112799000Y-69447000D01*
X112799000Y-60953000D02*
X112799000Y-63959000D01*
X112759000Y-66441000D02*
X112759000Y-69421000D01*
X112759000Y-60979000D02*
X112759000Y-63959000D01*
X112719000Y-66441000D02*
X112719000Y-69394000D01*
X112719000Y-61006000D02*
X112719000Y-63959000D01*
X112679000Y-66441000D02*
X112679000Y-69366000D01*
X112679000Y-61034000D02*
X112679000Y-63959000D01*
X112639000Y-66441000D02*
X112639000Y-69338000D01*
X112639000Y-61062000D02*
X112639000Y-63959000D01*
X112599000Y-66441000D02*
X112599000Y-69310000D01*
X112599000Y-61090000D02*
X112599000Y-63959000D01*
X112559000Y-66441000D02*
X112559000Y-69280000D01*
X112559000Y-61120000D02*
X112559000Y-63959000D01*
X112519000Y-66441000D02*
X112519000Y-69250000D01*
X112519000Y-61150000D02*
X112519000Y-63959000D01*
X112479000Y-66441000D02*
X112479000Y-69220000D01*
X112479000Y-61180000D02*
X112479000Y-63959000D01*
X112439000Y-66441000D02*
X112439000Y-69189000D01*
X112439000Y-61211000D02*
X112439000Y-63959000D01*
X112399000Y-66441000D02*
X112399000Y-69157000D01*
X112399000Y-61243000D02*
X112399000Y-63959000D01*
X112359000Y-66441000D02*
X112359000Y-69125000D01*
X112359000Y-61275000D02*
X112359000Y-63959000D01*
X112319000Y-66441000D02*
X112319000Y-69092000D01*
X112319000Y-61308000D02*
X112319000Y-63959000D01*
X112279000Y-66441000D02*
X112279000Y-69058000D01*
X112279000Y-61342000D02*
X112279000Y-63959000D01*
X112239000Y-66441000D02*
X112239000Y-69024000D01*
X112239000Y-61376000D02*
X112239000Y-63959000D01*
X112199000Y-66441000D02*
X112199000Y-68989000D01*
X112199000Y-61411000D02*
X112199000Y-63959000D01*
X112159000Y-66441000D02*
X112159000Y-68953000D01*
X112159000Y-61447000D02*
X112159000Y-63959000D01*
X112119000Y-66441000D02*
X112119000Y-68916000D01*
X112119000Y-61484000D02*
X112119000Y-63959000D01*
X112079000Y-66441000D02*
X112079000Y-68879000D01*
X112079000Y-61521000D02*
X112079000Y-63959000D01*
X112039000Y-66441000D02*
X112039000Y-68840000D01*
X112039000Y-61560000D02*
X112039000Y-63959000D01*
X111999000Y-66441000D02*
X111999000Y-68801000D01*
X111999000Y-61599000D02*
X111999000Y-63959000D01*
X111959000Y-66441000D02*
X111959000Y-68761000D01*
X111959000Y-61639000D02*
X111959000Y-63959000D01*
X111919000Y-66441000D02*
X111919000Y-68720000D01*
X111919000Y-61680000D02*
X111919000Y-63959000D01*
X111879000Y-66441000D02*
X111879000Y-68678000D01*
X111879000Y-61722000D02*
X111879000Y-63959000D01*
X111839000Y-61764000D02*
X111839000Y-68636000D01*
X111799000Y-61808000D02*
X111799000Y-68592000D01*
X111759000Y-61853000D02*
X111759000Y-68547000D01*
X111719000Y-61899000D02*
X111719000Y-68501000D01*
X111679000Y-61946000D02*
X111679000Y-68454000D01*
X111639000Y-61994000D02*
X111639000Y-68406000D01*
X111599000Y-62044000D02*
X111599000Y-68356000D01*
X111559000Y-62094000D02*
X111559000Y-68306000D01*
X111519000Y-62146000D02*
X111519000Y-68254000D01*
X111479000Y-62200000D02*
X111479000Y-68200000D01*
X111439000Y-62255000D02*
X111439000Y-68145000D01*
X111399000Y-62311000D02*
X111399000Y-68089000D01*
X111359000Y-62370000D02*
X111359000Y-68030000D01*
X111319000Y-62430000D02*
X111319000Y-67970000D01*
X111279000Y-62491000D02*
X111279000Y-67909000D01*
X111239000Y-62555000D02*
X111239000Y-67845000D01*
X111199000Y-62621000D02*
X111199000Y-67779000D01*
X111159000Y-62690000D02*
X111159000Y-67710000D01*
X111119000Y-62761000D02*
X111119000Y-67639000D01*
X111079000Y-62835000D02*
X111079000Y-67565000D01*
X111039000Y-62911000D02*
X111039000Y-67489000D01*
X110999000Y-62991000D02*
X110999000Y-67409000D01*
X110959000Y-63075000D02*
X110959000Y-67325000D01*
X110919000Y-63163000D02*
X110919000Y-67237000D01*
X110879000Y-63256000D02*
X110879000Y-67144000D01*
X110839000Y-63354000D02*
X110839000Y-67046000D01*
X110799000Y-63458000D02*
X110799000Y-66942000D01*
X110759000Y-63570000D02*
X110759000Y-66830000D01*
X110719000Y-63690000D02*
X110719000Y-66710000D01*
X110679000Y-63822000D02*
X110679000Y-66578000D01*
X110639000Y-63970000D02*
X110639000Y-66430000D01*
X110599000Y-64138000D02*
X110599000Y-66262000D01*
X110559000Y-64338000D02*
X110559000Y-66062000D01*
X110519000Y-64601000D02*
X110519000Y-65799000D01*
X120720000Y-65200000D02*
G75*
G03*
X120720000Y-65200000I-5120000J0D01*
G01*
%TO.C,D2*%
X106500000Y-70160000D02*
X106500000Y-69250000D01*
X103780000Y-69250000D02*
X103780000Y-59510000D01*
X109220000Y-69250000D02*
X103780000Y-69250000D01*
X109220000Y-67825000D02*
X103780000Y-67825000D01*
X109220000Y-67705000D02*
X103780000Y-67705000D01*
X109220000Y-67585000D02*
X103780000Y-67585000D01*
X103780000Y-59510000D02*
X109220000Y-59510000D01*
X109220000Y-59510000D02*
X109220000Y-69250000D01*
X106500000Y-58600000D02*
X106500000Y-59510000D01*
%TO.C,U1*%
X153290000Y-122050000D02*
X153290000Y-122450000D01*
X153290000Y-119450000D02*
X153290000Y-119850000D01*
X153290000Y-116950000D02*
X153290000Y-117350000D01*
X153290000Y-114450000D02*
X153290000Y-114850000D01*
X153290000Y-111850000D02*
X153290000Y-112250000D01*
X153290000Y-109350000D02*
X153290000Y-109750000D01*
X153290000Y-106750000D02*
X153290000Y-107150000D01*
X153290000Y-104250000D02*
X153290000Y-104650000D01*
X153290000Y-101650000D02*
X153290000Y-102050000D01*
X153290000Y-99150000D02*
X153290000Y-99550000D01*
X153290000Y-96650000D02*
X153290000Y-97050000D01*
X153290000Y-94050000D02*
X153290000Y-94450000D01*
X153290000Y-91550000D02*
X153290000Y-91950000D01*
X153290000Y-88950000D02*
X153290000Y-89350000D01*
X153290000Y-86450000D02*
X153290000Y-86850000D01*
X153290000Y-83950000D02*
X153290000Y-84350000D01*
X153290000Y-81350000D02*
X153290000Y-81750000D01*
X153290000Y-78850000D02*
X153290000Y-79250000D01*
X153290000Y-76517000D02*
X150283000Y-76517000D01*
X153290000Y-76250000D02*
X153290000Y-76650000D01*
X153290000Y-73850000D02*
X153290000Y-74150000D01*
X153290000Y-73850000D02*
X132290000Y-73850000D01*
X150283000Y-76517000D02*
X150283000Y-73850000D01*
X146490000Y-124850000D02*
X153290000Y-124850000D01*
X144290000Y-124850000D02*
X143890000Y-124850000D01*
X141690000Y-124850000D02*
X141290000Y-124850000D01*
X132290000Y-124850000D02*
X139090000Y-124850000D01*
X132290000Y-122050000D02*
X132290000Y-122450000D01*
X132290000Y-119450000D02*
X132290000Y-119850000D01*
X132290000Y-116950000D02*
X132290000Y-117350000D01*
X132290000Y-114450000D02*
X132290000Y-114850000D01*
X132290000Y-111850000D02*
X132290000Y-112250000D01*
X132290000Y-109350000D02*
X132290000Y-109750000D01*
X132290000Y-106750000D02*
X132290000Y-107150000D01*
X132290000Y-104250000D02*
X132290000Y-104650000D01*
X132290000Y-101650000D02*
X132290000Y-102050000D01*
X132290000Y-99150000D02*
X132290000Y-99550000D01*
X132290000Y-96650000D02*
X132290000Y-97050000D01*
X132290000Y-94050000D02*
X132290000Y-94450000D01*
X132290000Y-91550000D02*
X132290000Y-91950000D01*
X132290000Y-88950000D02*
X132290000Y-89350000D01*
X132290000Y-86450000D02*
X132290000Y-86850000D01*
X132290000Y-83950000D02*
X132290000Y-84350000D01*
X132290000Y-81350000D02*
X132290000Y-81750000D01*
X132290000Y-78850000D02*
X132290000Y-79250000D01*
X132290000Y-76250000D02*
X132290000Y-76650000D01*
X132290000Y-73850000D02*
X132290000Y-74150000D01*
%TD*%
%LPC*%
D12*
%TO.C,H4*%
X196000000Y-126000000D03*
%TD*%
%TO.C,H3*%
X84000000Y-126000000D03*
%TD*%
%TO.C,H2*%
X196000000Y-54000000D03*
%TD*%
D13*
%TO.C,J1*%
X84000000Y-75820000D03*
D14*
X84000000Y-78360000D03*
X84000000Y-80900000D03*
X84000000Y-83440000D03*
X84000000Y-85980000D03*
X84000000Y-88520000D03*
X84000000Y-91060000D03*
X84000000Y-93600000D03*
X84000000Y-96140000D03*
X84000000Y-98680000D03*
X84000000Y-101220000D03*
X84000000Y-103760000D03*
X84000000Y-106300000D03*
X84000000Y-108840000D03*
X84000000Y-111380000D03*
X84000000Y-113920000D03*
X84000000Y-116460000D03*
X84000000Y-119000000D03*
%TD*%
D12*
%TO.C,H1*%
X84000000Y-54000000D03*
%TD*%
D13*
%TO.C,J2*%
X196000000Y-76820000D03*
D14*
X196000000Y-79360000D03*
X196000000Y-81900000D03*
X196000000Y-84440000D03*
X196000000Y-86980000D03*
X196000000Y-89520000D03*
X196000000Y-92060000D03*
X196000000Y-94600000D03*
X196000000Y-97140000D03*
X196000000Y-99680000D03*
X196000000Y-102220000D03*
X196000000Y-104760000D03*
X196000000Y-107300000D03*
X196000000Y-109840000D03*
X196000000Y-112380000D03*
X196000000Y-114920000D03*
X196000000Y-117460000D03*
X196000000Y-120000000D03*
%TD*%
D15*
%TO.C,J3*%
X95000000Y-67080000D03*
D16*
X97540000Y-67080000D03*
X95000000Y-64540000D03*
X97540000Y-64540000D03*
X95000000Y-62000000D03*
X97540000Y-62000000D03*
X95000000Y-59460000D03*
X97540000Y-59460000D03*
X95000000Y-56920000D03*
X97540000Y-56920000D03*
%TD*%
D17*
%TO.C,L1*%
X120532323Y-72700000D03*
X123532323Y-72700000D03*
%TD*%
D18*
%TO.C,C27*%
X123879672Y-64600000D03*
D19*
X127379672Y-64600000D03*
%TD*%
D20*
%TO.C,C25*%
X118100000Y-65200000D03*
D21*
X113100000Y-65200000D03*
%TD*%
D22*
%TO.C,D2*%
X106500000Y-72000000D03*
D23*
X106500000Y-56760000D03*
%TD*%
D24*
%TO.C,U1*%
X145515000Y-75350000D03*
D25*
X145215000Y-78380000D03*
X140365000Y-78380000D03*
D24*
X140065000Y-75350000D03*
D14*
X151680000Y-75220000D03*
D26*
X152580000Y-75220000D03*
D14*
X151680000Y-77760000D03*
D26*
X152580000Y-77760000D03*
D13*
X151680000Y-80300000D03*
D26*
X152580000Y-80300000D03*
D14*
X151680000Y-82840000D03*
D26*
X152580000Y-82840000D03*
D14*
X151680000Y-85380000D03*
D26*
X152580000Y-85380000D03*
D14*
X151680000Y-87920000D03*
D26*
X152580000Y-87920000D03*
D14*
X151680000Y-90460000D03*
D26*
X152580000Y-90460000D03*
D13*
X151680000Y-93000000D03*
D26*
X152580000Y-93000000D03*
D14*
X151680000Y-95540000D03*
D26*
X152580000Y-95540000D03*
D14*
X151680000Y-98080000D03*
D26*
X152580000Y-98080000D03*
D14*
X151680000Y-100620000D03*
D26*
X152580000Y-100620000D03*
D14*
X151680000Y-103160000D03*
D26*
X152580000Y-103160000D03*
D13*
X151680000Y-105700000D03*
D26*
X152580000Y-105700000D03*
D14*
X151680000Y-108240000D03*
D26*
X152580000Y-108240000D03*
D14*
X151680000Y-110780000D03*
D26*
X152580000Y-110780000D03*
D14*
X151680000Y-113320000D03*
D26*
X152580000Y-113320000D03*
D14*
X151680000Y-115860000D03*
D26*
X152580000Y-115860000D03*
D13*
X151680000Y-118400000D03*
D26*
X152580000Y-118400000D03*
D14*
X151680000Y-120940000D03*
D26*
X152580000Y-120940000D03*
D14*
X151680000Y-123480000D03*
D26*
X152580000Y-123480000D03*
D14*
X133900000Y-123480000D03*
D26*
X133000000Y-123480000D03*
D14*
X133900000Y-120940000D03*
D26*
X133000000Y-120940000D03*
D13*
X133900000Y-118400000D03*
D26*
X133000000Y-118400000D03*
D14*
X133900000Y-115860000D03*
D26*
X133000000Y-115860000D03*
D14*
X133900000Y-113320000D03*
D26*
X133000000Y-113320000D03*
D14*
X133900000Y-110780000D03*
D26*
X133000000Y-110780000D03*
D14*
X133900000Y-108240000D03*
D26*
X133000000Y-108240000D03*
D13*
X133900000Y-105700000D03*
D26*
X133000000Y-105700000D03*
D14*
X133900000Y-103160000D03*
D26*
X133000000Y-103160000D03*
D14*
X133900000Y-100620000D03*
D26*
X133000000Y-100620000D03*
D14*
X133900000Y-98080000D03*
D26*
X133000000Y-98080000D03*
D14*
X133900000Y-95540000D03*
D26*
X133000000Y-95540000D03*
D13*
X133900000Y-93000000D03*
D26*
X133000000Y-93000000D03*
D14*
X133900000Y-90460000D03*
D26*
X133000000Y-90460000D03*
D14*
X133900000Y-87920000D03*
D26*
X133000000Y-87920000D03*
D14*
X133900000Y-85380000D03*
D26*
X133000000Y-85380000D03*
D14*
X133900000Y-82840000D03*
D26*
X133000000Y-82840000D03*
D13*
X133900000Y-80300000D03*
D26*
X133000000Y-80300000D03*
D14*
X133900000Y-77760000D03*
D26*
X133000000Y-77760000D03*
D14*
X133900000Y-75220000D03*
D26*
X133000000Y-75220000D03*
D14*
X145330000Y-123250000D03*
D27*
X145330000Y-124150000D03*
D13*
X142790000Y-123250000D03*
D27*
X142790000Y-124150000D03*
D14*
X140250000Y-123250000D03*
D27*
X140250000Y-124150000D03*
%TD*%
%LPD*%
M02*
