%TF.GenerationSoftware,KiCad,Pcbnew,7.0.2*%
%TF.CreationDate,2025-02-19T16:58:47+00:00*%
%TF.ProjectId,dk2_04_panel,646b325f-3034-45f7-9061-6e656c2e6b69,rev?*%
%TF.SameCoordinates,Original*%
%TF.FileFunction,Other,Comment*%
%FSLAX46Y46*%
G04 Gerber Fmt 4.6, Leading zero omitted, Abs format (unit mm)*
G04 Created by KiCad (PCBNEW 7.0.2) date 2025-02-19 16:58:47*
%MOMM*%
%LPD*%
G01*
G04 APERTURE LIST*
%ADD10C,0.150000*%
G04 APERTURE END LIST*
D10*
%TO.C,H37*%
X109550000Y-99250000D02*
G75*
G03*
X109550000Y-99250000I-4300000J0D01*
G01*
%TO.C,H4*%
X136650000Y-147250000D02*
G75*
G03*
X136650000Y-147250000I-3200000J0D01*
G01*
%TO.C,H14*%
X100400000Y-116000000D02*
G75*
G03*
X100400000Y-116000000I-6400000J0D01*
G01*
%TO.C,H35*%
X84550000Y-99250000D02*
G75*
G03*
X84550000Y-99250000I-4300000J0D01*
G01*
%TO.C,H45*%
X133900000Y-38500000D02*
G75*
G03*
X133900000Y-38500000I-6400000J0D01*
G01*
%TO.C,H41*%
X57900000Y-38500000D02*
G75*
G03*
X57900000Y-38500000I-6400000J0D01*
G01*
%TO.C,H12*%
X76400000Y-116000000D02*
G75*
G03*
X76400000Y-116000000I-6400000J0D01*
G01*
%TO.C,H20*%
X100400000Y-132000000D02*
G75*
G03*
X100400000Y-132000000I-6400000J0D01*
G01*
%TO.C,H16*%
X52400000Y-132000000D02*
G75*
G03*
X52400000Y-132000000I-6400000J0D01*
G01*
%TO.C,H23*%
X64550000Y-75250000D02*
G75*
G03*
X64550000Y-75250000I-4300000J0D01*
G01*
%TO.C,H6*%
X139200000Y-48000000D02*
G75*
G03*
X139200000Y-48000000I-3200000J0D01*
G01*
%TO.C,H18*%
X76400000Y-132000000D02*
G75*
G03*
X76400000Y-132000000I-6400000J0D01*
G01*
%TO.C,H42*%
X76900000Y-38500000D02*
G75*
G03*
X76900000Y-38500000I-6400000J0D01*
G01*
%TO.C,H54*%
X111450000Y-126100000D02*
G75*
G03*
X111450000Y-126100000I-3200000J0D01*
G01*
%TO.C,H52*%
X111450000Y-115000000D02*
G75*
G03*
X111450000Y-115000000I-3200000J0D01*
G01*
%TO.C,H9*%
X40400000Y-116000000D02*
G75*
G03*
X40400000Y-116000000I-6400000J0D01*
G01*
%TO.C,H39*%
X129550000Y-99250000D02*
G75*
G03*
X129550000Y-99250000I-4300000J0D01*
G01*
%TO.C,H17*%
X64400000Y-132000000D02*
G75*
G03*
X64400000Y-132000000I-6400000J0D01*
G01*
%TO.C,H46*%
X38900000Y-58500000D02*
G75*
G03*
X38900000Y-58500000I-6400000J0D01*
G01*
%TO.C,H47*%
X57900000Y-58500000D02*
G75*
G03*
X57900000Y-58500000I-6400000J0D01*
G01*
%TO.C,H3*%
X29750000Y-147250000D02*
G75*
G03*
X29750000Y-147250000I-3200000J0D01*
G01*
%TO.C,H11*%
X64400000Y-116000000D02*
G75*
G03*
X64400000Y-116000000I-6400000J0D01*
G01*
%TO.C,H38*%
X119550000Y-99250000D02*
G75*
G03*
X119550000Y-99250000I-4300000J0D01*
G01*
%TO.C,H33*%
X64550000Y-99250000D02*
G75*
G03*
X64550000Y-99250000I-4300000J0D01*
G01*
%TO.C,H19*%
X88400000Y-132000000D02*
G75*
G03*
X88400000Y-132000000I-6400000J0D01*
G01*
%TO.C,H31*%
X44550000Y-99250000D02*
G75*
G03*
X44550000Y-99250000I-4300000J0D01*
G01*
%TO.C,H5*%
X27200000Y-48000000D02*
G75*
G03*
X27200000Y-48000000I-3200000J0D01*
G01*
%TO.C,H15*%
X40400000Y-132000000D02*
G75*
G03*
X40400000Y-132000000I-6400000J0D01*
G01*
%TO.C,H24*%
X74550000Y-75250000D02*
G75*
G03*
X74550000Y-75250000I-4300000J0D01*
G01*
%TO.C,H48*%
X76900000Y-58500000D02*
G75*
G03*
X76900000Y-58500000I-6400000J0D01*
G01*
%TO.C,H40*%
X38900000Y-38500000D02*
G75*
G03*
X38900000Y-38500000I-6400000J0D01*
G01*
%TO.C,H7*%
X27200000Y-120000000D02*
G75*
G03*
X27200000Y-120000000I-3200000J0D01*
G01*
%TO.C,H34*%
X74550000Y-99250000D02*
G75*
G03*
X74550000Y-99250000I-4300000J0D01*
G01*
%TO.C,H28*%
X64550000Y-87250000D02*
G75*
G03*
X64550000Y-87250000I-4300000J0D01*
G01*
%TO.C,H2*%
X136650000Y-24750000D02*
G75*
G03*
X136650000Y-24750000I-3200000J0D01*
G01*
%TO.C,H51*%
X133900000Y-58500000D02*
G75*
G03*
X133900000Y-58500000I-6400000J0D01*
G01*
%TO.C,H27*%
X54550000Y-87250000D02*
G75*
G03*
X54550000Y-87250000I-4300000J0D01*
G01*
%TO.C,H43*%
X95900000Y-38500000D02*
G75*
G03*
X95900000Y-38500000I-6400000J0D01*
G01*
%TO.C,H50*%
X114900000Y-58500000D02*
G75*
G03*
X114900000Y-58500000I-6400000J0D01*
G01*
%TO.C,H25*%
X84550000Y-75250000D02*
G75*
G03*
X84550000Y-75250000I-4300000J0D01*
G01*
%TO.C,H53*%
X111450000Y-120550000D02*
G75*
G03*
X111450000Y-120550000I-3200000J0D01*
G01*
%TO.C,H8*%
X139200000Y-120000000D02*
G75*
G03*
X139200000Y-120000000I-3200000J0D01*
G01*
%TO.C,H10*%
X52400000Y-116000000D02*
G75*
G03*
X52400000Y-116000000I-6400000J0D01*
G01*
%TO.C,H32*%
X54550000Y-99250000D02*
G75*
G03*
X54550000Y-99250000I-4300000J0D01*
G01*
%TO.C,H26*%
X44550000Y-87250000D02*
G75*
G03*
X44550000Y-87250000I-4300000J0D01*
G01*
%TO.C,H13*%
X88400000Y-116000000D02*
G75*
G03*
X88400000Y-116000000I-6400000J0D01*
G01*
%TO.C,H21*%
X44550000Y-75250000D02*
G75*
G03*
X44550000Y-75250000I-4300000J0D01*
G01*
%TO.C,H30*%
X84550000Y-87250000D02*
G75*
G03*
X84550000Y-87250000I-4300000J0D01*
G01*
%TO.C,H1*%
X29750000Y-24750000D02*
G75*
G03*
X29750000Y-24750000I-3200000J0D01*
G01*
%TO.C,H22*%
X54550000Y-75250000D02*
G75*
G03*
X54550000Y-75250000I-4300000J0D01*
G01*
%TO.C,H55*%
X111450000Y-131650000D02*
G75*
G03*
X111450000Y-131650000I-3200000J0D01*
G01*
%TO.C,H36*%
X99550000Y-99250000D02*
G75*
G03*
X99550000Y-99250000I-4300000J0D01*
G01*
%TO.C,H49*%
X95900000Y-58500000D02*
G75*
G03*
X95900000Y-58500000I-6400000J0D01*
G01*
%TO.C,H44*%
X114900000Y-38500000D02*
G75*
G03*
X114900000Y-38500000I-6400000J0D01*
G01*
%TO.C,H29*%
X74550000Y-87250000D02*
G75*
G03*
X74550000Y-87250000I-4300000J0D01*
G01*
%TD*%
M02*
