M48
; DRILL file {KiCad 7.0.2} date Tue Sep  5 13:57:42 2023
; FORMAT={-:-/ absolute / inch / decimal}
; #@! TF.CreationDate,2023-09-05T13:57:42+01:00
; #@! TF.GenerationSoftware,Kicad,Pcbnew,7.0.2
; #@! TF.FileFunction,NonPlated,1,2,NPTH
FMAT,2
INCH
; #@! TA.AperFunction,NonPlated,NPTH,ComponentDrill
T1C0.1260
; #@! TA.AperFunction,NonPlated,NPTH,ComponentDrill
T2C0.1693
; #@! TA.AperFunction,NonPlated,NPTH,ComponentDrill
T3C0.2520
%
G90
G05
T1
X0.9449Y-1.8898
X0.9449Y-4.7244
X1.0453Y-0.9744
X1.0453Y-5.7972
X4.2618Y-4.5276
X4.2618Y-4.7461
X4.2618Y-4.9646
X4.2618Y-5.1831
X5.2539Y-0.9744
X5.2539Y-5.7972
X5.3543Y-1.8898
X5.3543Y-4.7244
T2
X1.9783Y-2.9626
X1.9783Y-3.435
X1.9783Y-3.9075
X2.372Y-2.9626
X2.372Y-3.435
X2.372Y-3.9075
X2.7657Y-2.9626
X2.7657Y-3.435
X2.7657Y-3.9075
X3.1594Y-2.9626
X3.1594Y-3.435
X3.1594Y-3.9075
X3.75Y-3.9075
X4.1437Y-3.9075
X4.5374Y-3.9075
X4.9311Y-3.9075
T3
X1.2795Y-1.4764
X1.2795Y-2.2638
X1.3386Y-4.5669
X1.3386Y-5.1969
X1.811Y-4.5669
X1.811Y-5.1969
X2.0276Y-1.4764
X2.0276Y-2.2638
X2.2835Y-4.5669
X2.2835Y-5.1969
X2.7559Y-4.5669
X2.7559Y-5.1969
X2.7756Y-1.4764
X2.7756Y-2.2638
X3.2283Y-4.5669
X3.2283Y-5.1969
X3.5236Y-1.4764
X3.5236Y-2.2638
X3.7008Y-4.5669
X3.7008Y-5.1969
X4.2717Y-1.4764
X4.2717Y-2.2638
X5.0197Y-1.4764
X5.0197Y-2.2638
T0
M30
