%TF.GenerationSoftware,KiCad,Pcbnew,7.0.2*%
%TF.CreationDate,2025-03-27T17:53:26+00:00*%
%TF.ProjectId,dk2_04b_bottom,646b325f-3034-4625-9f62-6f74746f6d2e,rev?*%
%TF.SameCoordinates,Original*%
%TF.FileFunction,Soldermask,Top*%
%TF.FilePolarity,Negative*%
%FSLAX46Y46*%
G04 Gerber Fmt 4.6, Leading zero omitted, Abs format (unit mm)*
G04 Created by KiCad (PCBNEW 7.0.2) date 2025-03-27 17:53:26*
%MOMM*%
%LPD*%
G01*
G04 APERTURE LIST*
G04 Aperture macros list*
%AMRoundRect*
0 Rectangle with rounded corners*
0 $1 Rounding radius*
0 $2 $3 $4 $5 $6 $7 $8 $9 X,Y pos of 4 corners*
0 Add a 4 corners polygon primitive as box body*
4,1,4,$2,$3,$4,$5,$6,$7,$8,$9,$2,$3,0*
0 Add four circle primitives for the rounded corners*
1,1,$1+$1,$2,$3*
1,1,$1+$1,$4,$5*
1,1,$1+$1,$6,$7*
1,1,$1+$1,$8,$9*
0 Add four rect primitives between the rounded corners*
20,1,$1+$1,$2,$3,$4,$5,0*
20,1,$1+$1,$4,$5,$6,$7,0*
20,1,$1+$1,$6,$7,$8,$9,0*
20,1,$1+$1,$8,$9,$2,$3,0*%
G04 Aperture macros list end*
%ADD10RoundRect,0.200000X0.275000X-0.200000X0.275000X0.200000X-0.275000X0.200000X-0.275000X-0.200000X0*%
%ADD11RoundRect,0.200000X-0.200000X-0.275000X0.200000X-0.275000X0.200000X0.275000X-0.200000X0.275000X0*%
%ADD12RoundRect,0.200000X0.200000X0.275000X-0.200000X0.275000X-0.200000X-0.275000X0.200000X-0.275000X0*%
%ADD13RoundRect,0.100000X-0.637500X-0.100000X0.637500X-0.100000X0.637500X0.100000X-0.637500X0.100000X0*%
%ADD14RoundRect,0.150000X0.150000X-0.825000X0.150000X0.825000X-0.150000X0.825000X-0.150000X-0.825000X0*%
%ADD15RoundRect,0.200000X-0.275000X0.200000X-0.275000X-0.200000X0.275000X-0.200000X0.275000X0.200000X0*%
%ADD16RoundRect,0.225000X0.225000X0.250000X-0.225000X0.250000X-0.225000X-0.250000X0.225000X-0.250000X0*%
%ADD17R,1.700000X1.700000*%
%ADD18O,1.700000X1.700000*%
%ADD19RoundRect,0.225000X-0.250000X0.225000X-0.250000X-0.225000X0.250000X-0.225000X0.250000X0.225000X0*%
%ADD20RoundRect,0.112500X-0.112500X0.187500X-0.112500X-0.187500X0.112500X-0.187500X0.112500X0.187500X0*%
%ADD21RoundRect,0.150000X-0.825000X-0.150000X0.825000X-0.150000X0.825000X0.150000X-0.825000X0.150000X0*%
%ADD22RoundRect,0.225000X-0.225000X-0.250000X0.225000X-0.250000X0.225000X0.250000X-0.225000X0.250000X0*%
%ADD23RoundRect,0.150000X-0.587500X-0.150000X0.587500X-0.150000X0.587500X0.150000X-0.587500X0.150000X0*%
%ADD24R,1.500000X1.000000*%
%ADD25RoundRect,0.112500X0.187500X0.112500X-0.187500X0.112500X-0.187500X-0.112500X0.187500X-0.112500X0*%
%ADD26RoundRect,0.225000X0.250000X-0.225000X0.250000X0.225000X-0.250000X0.225000X-0.250000X-0.225000X0*%
%ADD27R,2.400000X2.400000*%
%ADD28C,2.400000*%
%ADD29RoundRect,0.250000X-0.600000X-0.600000X0.600000X-0.600000X0.600000X0.600000X-0.600000X0.600000X0*%
%ADD30C,1.700000*%
%ADD31C,2.600000*%
%ADD32R,1.600000X1.600000*%
%ADD33C,1.600000*%
%ADD34R,2.000000X2.000000*%
%ADD35C,2.000000*%
%ADD36O,1.800000X1.800000*%
%ADD37O,1.500000X1.500000*%
G04 APERTURE END LIST*
D10*
%TO.C,R11*%
X184432500Y-80770000D03*
X184432500Y-79120000D03*
%TD*%
D11*
%TO.C,R8*%
X185660000Y-90435000D03*
X187310000Y-90435000D03*
%TD*%
D12*
%TO.C,R2*%
X187310000Y-97235000D03*
X185660000Y-97235000D03*
%TD*%
D13*
%TO.C,U4*%
X180857500Y-70895000D03*
X180857500Y-71545000D03*
X180857500Y-72195000D03*
X180857500Y-72845000D03*
X180857500Y-73495000D03*
X180857500Y-74145000D03*
X180857500Y-74795000D03*
X180857500Y-75445000D03*
X180857500Y-76095000D03*
X180857500Y-76745000D03*
X186582500Y-76745000D03*
X186582500Y-76095000D03*
X186582500Y-75445000D03*
X186582500Y-74795000D03*
X186582500Y-74145000D03*
X186582500Y-73495000D03*
X186582500Y-72845000D03*
X186582500Y-72195000D03*
X186582500Y-71545000D03*
X186582500Y-70895000D03*
%TD*%
D14*
%TO.C,U8*%
X118627323Y-58475000D03*
X119897323Y-58475000D03*
X121167323Y-58475000D03*
X122437323Y-58475000D03*
X122437323Y-53525000D03*
X121167323Y-53525000D03*
X119897323Y-53525000D03*
X118627323Y-53525000D03*
%TD*%
D11*
%TO.C,R14*%
X117250000Y-97110000D03*
X118900000Y-97110000D03*
%TD*%
D10*
%TO.C,R10*%
X186082500Y-80770000D03*
X186082500Y-79120000D03*
%TD*%
D15*
%TO.C,R19*%
X95515000Y-76295000D03*
X95515000Y-77945000D03*
%TD*%
D16*
%TO.C,C3*%
X190510000Y-95535000D03*
X188960000Y-95535000D03*
%TD*%
D17*
%TO.C,J1*%
X84000000Y-58500000D03*
D18*
X84000000Y-61040000D03*
X84000000Y-63580000D03*
X84000000Y-66120000D03*
X84000000Y-68660000D03*
X84000000Y-71200000D03*
X84000000Y-73740000D03*
X84000000Y-76280000D03*
X84000000Y-78820000D03*
X84000000Y-81360000D03*
X84000000Y-83900000D03*
X84000000Y-86440000D03*
X84000000Y-88980000D03*
X84000000Y-91520000D03*
X84000000Y-94060000D03*
X84000000Y-96600000D03*
%TD*%
D19*
%TO.C,C20*%
X177382500Y-70845000D03*
X177382500Y-72395000D03*
%TD*%
%TO.C,C16*%
X190082500Y-70245000D03*
X190082500Y-71795000D03*
%TD*%
D20*
%TO.C,D3*%
X131700000Y-71200000D03*
X131700000Y-73300000D03*
%TD*%
D21*
%TO.C,U3*%
X178635000Y-92865000D03*
X178635000Y-94135000D03*
X178635000Y-95405000D03*
X178635000Y-96675000D03*
X183585000Y-96675000D03*
X183585000Y-95405000D03*
X183585000Y-94135000D03*
X183585000Y-92865000D03*
%TD*%
D22*
%TO.C,C2*%
X171710000Y-94235000D03*
X173260000Y-94235000D03*
%TD*%
D19*
%TO.C,C11*%
X175682500Y-75045000D03*
X175682500Y-76595000D03*
%TD*%
D11*
%TO.C,R3*%
X174910000Y-94235000D03*
X176560000Y-94235000D03*
%TD*%
D10*
%TO.C,R20*%
X107915000Y-75895000D03*
X107915000Y-74245000D03*
%TD*%
D19*
%TO.C,C14*%
X188482500Y-70245000D03*
X188482500Y-71795000D03*
%TD*%
D23*
%TO.C,U2*%
X185732500Y-57800000D03*
X185732500Y-59700000D03*
X187607500Y-58750000D03*
%TD*%
D22*
%TO.C,C1*%
X185455000Y-52760000D03*
X187005000Y-52760000D03*
%TD*%
D12*
%TO.C,R13*%
X175732500Y-73245000D03*
X174082500Y-73245000D03*
%TD*%
D21*
%TO.C,U5*%
X100815000Y-76495000D03*
X100815000Y-77765000D03*
X100815000Y-79035000D03*
X100815000Y-80305000D03*
X105765000Y-80305000D03*
X105765000Y-79035000D03*
X105765000Y-77765000D03*
X105765000Y-76495000D03*
%TD*%
D19*
%TO.C,C17*%
X188482500Y-73445000D03*
X188482500Y-74995000D03*
%TD*%
D12*
%TO.C,R17*%
X98815000Y-77895000D03*
X97165000Y-77895000D03*
%TD*%
D11*
%TO.C,R1*%
X174000000Y-96500000D03*
X175650000Y-96500000D03*
%TD*%
D10*
%TO.C,R15*%
X124650000Y-98810000D03*
X124650000Y-97160000D03*
%TD*%
D17*
%TO.C,J2*%
X196000000Y-66000000D03*
D18*
X196000000Y-68540000D03*
X196000000Y-71080000D03*
X196000000Y-73620000D03*
X196000000Y-76160000D03*
X196000000Y-78700000D03*
X196000000Y-81240000D03*
X196000000Y-83780000D03*
X196000000Y-86320000D03*
X196000000Y-88860000D03*
X196000000Y-91400000D03*
X196000000Y-93940000D03*
%TD*%
D12*
%TO.C,R21*%
X98815000Y-76295000D03*
X97165000Y-76295000D03*
%TD*%
D16*
%TO.C,C23*%
X104015000Y-92495000D03*
X102465000Y-92495000D03*
%TD*%
D11*
%TO.C,R22*%
X107715000Y-89695000D03*
X109365000Y-89695000D03*
%TD*%
D12*
%TO.C,R6*%
X187310000Y-93835000D03*
X185660000Y-93835000D03*
%TD*%
D11*
%TO.C,R16*%
X107815000Y-79095000D03*
X109465000Y-79095000D03*
%TD*%
D12*
%TO.C,R23*%
X98715000Y-88395000D03*
X97065000Y-88395000D03*
%TD*%
D21*
%TO.C,U7*%
X100740000Y-97890000D03*
X100740000Y-99160000D03*
X100740000Y-100430000D03*
X100740000Y-101700000D03*
X105690000Y-101700000D03*
X105690000Y-100430000D03*
X105690000Y-99160000D03*
X105690000Y-97890000D03*
%TD*%
D12*
%TO.C,R28*%
X98715000Y-99195000D03*
X97065000Y-99195000D03*
%TD*%
D11*
%TO.C,R7*%
X185660000Y-88735000D03*
X187310000Y-88735000D03*
%TD*%
D19*
%TO.C,C15*%
X190082500Y-73445000D03*
X190082500Y-74995000D03*
%TD*%
D16*
%TO.C,C24*%
X104015000Y-103395000D03*
X102465000Y-103395000D03*
%TD*%
D11*
%TO.C,R5*%
X174910000Y-92535000D03*
X176560000Y-92535000D03*
%TD*%
D24*
%TO.C,JP2*%
X128800000Y-72900001D03*
X128800000Y-71600001D03*
%TD*%
D16*
%TO.C,C6*%
X181810000Y-98335000D03*
X180260000Y-98335000D03*
%TD*%
D10*
%TO.C,R26*%
X107815000Y-86545000D03*
X107815000Y-84895000D03*
%TD*%
D19*
%TO.C,C9*%
X178882500Y-75045000D03*
X178882500Y-76595000D03*
%TD*%
D16*
%TO.C,C8*%
X187260000Y-92135000D03*
X185710000Y-92135000D03*
%TD*%
D12*
%TO.C,R27*%
X98715000Y-86795000D03*
X97065000Y-86795000D03*
%TD*%
%TO.C,R12*%
X175732500Y-71645000D03*
X174082500Y-71645000D03*
%TD*%
D16*
%TO.C,C22*%
X104065000Y-81995000D03*
X102515000Y-81995000D03*
%TD*%
%TO.C,C5*%
X181710000Y-91135000D03*
X180160000Y-91135000D03*
%TD*%
D12*
%TO.C,R4*%
X187310000Y-95535000D03*
X185660000Y-95535000D03*
%TD*%
D11*
%TO.C,R18*%
X107815000Y-77495000D03*
X109465000Y-77495000D03*
%TD*%
D19*
%TO.C,C10*%
X177282500Y-75045000D03*
X177282500Y-76595000D03*
%TD*%
%TO.C,C18*%
X178982500Y-70845000D03*
X178982500Y-72395000D03*
%TD*%
D16*
%TO.C,C21*%
X172532500Y-73245000D03*
X170982500Y-73245000D03*
%TD*%
D22*
%TO.C,C7*%
X174960000Y-90835000D03*
X176510000Y-90835000D03*
%TD*%
D21*
%TO.C,U6*%
X100740000Y-86990000D03*
X100740000Y-88260000D03*
X100740000Y-89530000D03*
X100740000Y-90800000D03*
X105690000Y-90800000D03*
X105690000Y-89530000D03*
X105690000Y-88260000D03*
X105690000Y-86990000D03*
%TD*%
D25*
%TO.C,D2*%
X116750000Y-72900000D03*
X114650000Y-72900000D03*
%TD*%
D22*
%TO.C,C12*%
X181782500Y-69445000D03*
X183332500Y-69445000D03*
%TD*%
D16*
%TO.C,C19*%
X172532500Y-71645000D03*
X170982500Y-71645000D03*
%TD*%
D12*
%TO.C,R30*%
X98715000Y-97495000D03*
X97065000Y-97495000D03*
%TD*%
D26*
%TO.C,C26*%
X116832323Y-56700000D03*
X116832323Y-55150000D03*
%TD*%
D22*
%TO.C,C4*%
X185455000Y-55270000D03*
X187005000Y-55270000D03*
%TD*%
D16*
%TO.C,C13*%
X182082500Y-78245000D03*
X180532500Y-78245000D03*
%TD*%
D11*
%TO.C,R24*%
X107715000Y-88095000D03*
X109365000Y-88095000D03*
%TD*%
D10*
%TO.C,R9*%
X187782500Y-80770000D03*
X187782500Y-79120000D03*
%TD*%
D23*
%TO.C,Q1*%
X120775000Y-97160000D03*
X120775000Y-99060000D03*
X122650000Y-98110000D03*
%TD*%
D15*
%TO.C,R25*%
X95515000Y-86695000D03*
X95515000Y-88345000D03*
%TD*%
%TO.C,R29*%
X95515000Y-97495000D03*
X95515000Y-99145000D03*
%TD*%
D27*
%TO.C,C28*%
X125500000Y-83500000D03*
D28*
X125500000Y-88500000D03*
%TD*%
D29*
%TO.C,J3*%
X95000000Y-67080000D03*
D30*
X97540000Y-67080000D03*
X95000000Y-64540000D03*
X97540000Y-64540000D03*
X95000000Y-62000000D03*
X97540000Y-62000000D03*
X95000000Y-59460000D03*
X97540000Y-59460000D03*
X95000000Y-56920000D03*
X97540000Y-56920000D03*
%TD*%
D31*
%TO.C,L1*%
X120532323Y-72700000D03*
X123532323Y-72700000D03*
%TD*%
D17*
%TO.C,J4*%
X165000000Y-55880000D03*
D18*
X165000000Y-58420000D03*
X165000000Y-60960000D03*
X165000000Y-63500000D03*
X165000000Y-66040000D03*
X165000000Y-68580000D03*
X165000000Y-71120000D03*
X165000000Y-73660000D03*
X165000000Y-76200000D03*
X165000000Y-78740000D03*
X165000000Y-81280000D03*
X165000000Y-83820000D03*
X165000000Y-86360000D03*
X165000000Y-88900000D03*
X165000000Y-91440000D03*
X165000000Y-93980000D03*
X165000000Y-96520000D03*
X165000000Y-99060000D03*
X165000000Y-101600000D03*
X165000000Y-104140000D03*
%TD*%
D32*
%TO.C,C27*%
X123879672Y-64600000D03*
D33*
X127379672Y-64600000D03*
%TD*%
D34*
%TO.C,C25*%
X118100000Y-65200000D03*
D35*
X113100000Y-65200000D03*
%TD*%
D17*
%TO.C,J6*%
X175260000Y-53340000D03*
D18*
X175260000Y-55880000D03*
X175260000Y-58420000D03*
%TD*%
D17*
%TO.C,J5*%
X137160000Y-55880000D03*
D18*
X137160000Y-58420000D03*
X137160000Y-60960000D03*
X137160000Y-63500000D03*
X137160000Y-66040000D03*
X137160000Y-68580000D03*
X137160000Y-71120000D03*
X137160000Y-73660000D03*
X137160000Y-76200000D03*
X137160000Y-78740000D03*
X137160000Y-81280000D03*
X137160000Y-83820000D03*
X137160000Y-86360000D03*
X137160000Y-88900000D03*
X137160000Y-91440000D03*
X137160000Y-93980000D03*
X137160000Y-96520000D03*
X137160000Y-99060000D03*
X137160000Y-101600000D03*
X137160000Y-104140000D03*
%TD*%
D36*
%TO.C,U1*%
X153855000Y-56010000D03*
D37*
X153555000Y-59040000D03*
X148705000Y-59040000D03*
D36*
X148405000Y-56010000D03*
D18*
X160020000Y-55880000D03*
X160020000Y-58420000D03*
D17*
X160020000Y-60960000D03*
D18*
X160020000Y-63500000D03*
X160020000Y-66040000D03*
X160020000Y-68580000D03*
X160020000Y-71120000D03*
D17*
X160020000Y-73660000D03*
D18*
X160020000Y-76200000D03*
X160020000Y-78740000D03*
X160020000Y-81280000D03*
X160020000Y-83820000D03*
D17*
X160020000Y-86360000D03*
D18*
X160020000Y-88900000D03*
X160020000Y-91440000D03*
X160020000Y-93980000D03*
X160020000Y-96520000D03*
D17*
X160020000Y-99060000D03*
D18*
X160020000Y-101600000D03*
X160020000Y-104140000D03*
X142240000Y-104140000D03*
X142240000Y-101600000D03*
D17*
X142240000Y-99060000D03*
D18*
X142240000Y-96520000D03*
X142240000Y-93980000D03*
X142240000Y-91440000D03*
X142240000Y-88900000D03*
D17*
X142240000Y-86360000D03*
D18*
X142240000Y-83820000D03*
X142240000Y-81280000D03*
X142240000Y-78740000D03*
X142240000Y-76200000D03*
D17*
X142240000Y-73660000D03*
D18*
X142240000Y-71120000D03*
X142240000Y-68580000D03*
X142240000Y-66040000D03*
X142240000Y-63500000D03*
D17*
X142240000Y-60960000D03*
D18*
X142240000Y-58420000D03*
X142240000Y-55880000D03*
X153670000Y-103910000D03*
D17*
X151130000Y-103910000D03*
D18*
X148590000Y-103910000D03*
%TD*%
M02*
