M48
; DRILL file {KiCad 7.0.2} date Thu Mar 27 17:53:26 2025
; FORMAT={-:-/ absolute / inch / decimal}
; #@! TF.CreationDate,2025-03-27T17:53:26+00:00
; #@! TF.GenerationSoftware,Kicad,Pcbnew,7.0.2
; #@! TF.FileFunction,Plated,1,2,PTH
FMAT,2
INCH
; #@! TA.AperFunction,Plated,PTH,ViaDrill
T1C0.0157
; #@! TA.AperFunction,Plated,PTH,ComponentDrill
T2C0.0315
; #@! TA.AperFunction,Plated,PTH,ComponentDrill
T3C0.0394
; #@! TA.AperFunction,Plated,PTH,ComponentDrill
T4C0.0402
; #@! TA.AperFunction,Plated,PTH,ComponentDrill
T5C0.0472
; #@! TA.AperFunction,Plated,PTH,ComponentDrill
T6C0.0512
%
G90
G05
T1
X3.6811Y-3.0118
X3.7992Y-3.7992
X3.8287Y-4.065
X3.8484Y-3.5138
X3.8484Y-3.5827
X3.8583Y-3.1004
X3.8976Y-3.622
X3.9075Y-3.2087
X4.0512Y-4.0197
X4.1437Y-3.3395
X4.1535Y-2.9331
X4.1634Y-4.065
X4.1929Y-3.3465
X4.2323Y-4.0059
X4.3307Y-3.622
X4.3504Y-3.5138
X4.3701Y-3.1102
X4.4685Y-4.0354
X4.5709Y-3.752
X4.5965Y-3.4843
X4.6024Y-3.5669
X4.6949Y-3.9469
X4.8524Y-3.4449
X4.8819Y-2.3228
X4.9016Y-2.0768
X5.0394Y-3.3366
X5.2283Y-2.8031
X5.7283Y-4.124
X5.748Y-3.4843
X6.6535Y-2.8543
X6.7421Y-2.9626
X7.0177Y-2.8778
X7.1752Y-2.9331
X7.1752Y-3.0413
X7.2441Y-3.622
X7.2539Y-3.3661
X7.2835Y-2.9134
X7.4016Y-2.126
X7.4311Y-3.3366
X7.5295Y-2.8248
T2
X4.8772Y-2.5433
X5.0149Y-2.5433
T3
X3.3071Y-2.3031
X3.3071Y-2.4031
X3.3071Y-2.5031
X3.3071Y-2.6031
X3.3071Y-2.7031
X3.3071Y-2.8031
X3.3071Y-2.9031
X3.3071Y-3.0031
X3.3071Y-3.1031
X3.3071Y-3.2031
X3.3071Y-3.3031
X3.3071Y-3.4031
X3.3071Y-3.5031
X3.3071Y-3.6031
X3.3071Y-3.7031
X3.3071Y-3.8031
X3.7402Y-2.2409
X3.7402Y-2.3409
X3.7402Y-2.4409
X3.7402Y-2.5409
X3.7402Y-2.6409
X3.8402Y-2.2409
X3.8402Y-2.3409
X3.8402Y-2.4409
X3.8402Y-2.5409
X3.8402Y-2.6409
X4.4528Y-2.5669
X4.6496Y-2.5669
X5.4Y-2.2
X5.4Y-2.3
X5.4Y-2.4
X5.4Y-2.5
X5.4Y-2.6
X5.4Y-2.7
X5.4Y-2.8
X5.4Y-2.9
X5.4Y-3.0
X5.4Y-3.1
X5.4Y-3.2
X5.4Y-3.3
X5.4Y-3.4
X5.4Y-3.5
X5.4Y-3.6
X5.4Y-3.7
X5.4Y-3.8
X5.4Y-3.9
X5.4Y-4.0
X5.4Y-4.1
X6.4961Y-2.2
X6.4961Y-2.3
X6.4961Y-2.4
X6.4961Y-2.5
X6.4961Y-2.6
X6.4961Y-2.7
X6.4961Y-2.8
X6.4961Y-2.9
X6.4961Y-3.0
X6.4961Y-3.1
X6.4961Y-3.2
X6.4961Y-3.3
X6.4961Y-3.4
X6.4961Y-3.5
X6.4961Y-3.6
X6.4961Y-3.7
X6.4961Y-3.8
X6.4961Y-3.9
X6.4961Y-4.0
X6.4961Y-4.1
X6.9Y-2.1
X6.9Y-2.2
X6.9Y-2.3
X7.7165Y-2.5984
X7.7165Y-2.6984
X7.7165Y-2.7984
X7.7165Y-2.8984
X7.7165Y-2.9984
X7.7165Y-3.0984
X7.7165Y-3.1984
X7.7165Y-3.2984
X7.7165Y-3.3984
X7.7165Y-3.4984
X7.7165Y-3.5984
X7.7165Y-3.6984
T4
X5.6Y-2.2
X5.6Y-2.3
X5.6Y-2.4
X5.6Y-2.5
X5.6Y-2.6
X5.6Y-2.7
X5.6Y-2.8
X5.6Y-2.9
X5.6Y-3.0
X5.6Y-3.1
X5.6Y-3.2
X5.6Y-3.3
X5.6Y-3.4
X5.6Y-3.5
X5.6Y-3.6
X5.6Y-3.7
X5.6Y-3.8
X5.6Y-3.9
X5.6Y-4.0
X5.6Y-4.1
X5.85Y-4.0909
X5.95Y-4.0909
X6.05Y-4.0909
X6.3Y-2.2
X6.3Y-2.3
X6.3Y-2.4
X6.3Y-2.5
X6.3Y-2.6
X6.3Y-2.7
X6.3Y-2.8
X6.3Y-2.9
X6.3Y-3.0
X6.3Y-3.1
X6.3Y-3.2
X6.3Y-3.3
X6.3Y-3.4
X6.3Y-3.5
X6.3Y-3.6
X6.3Y-3.7
X6.3Y-3.8
X6.3Y-3.9
X6.3Y-4.0
X6.3Y-4.1
T5
X4.9409Y-3.2874
X4.9409Y-3.4843
T6
X4.7454Y-2.8622
X4.8635Y-2.8622
T0
M30
