M48
; DRILL file {KiCad 9.0.1} date 2025-08-18T10:47:35+0100
; FORMAT={-:-/ absolute / inch / decimal}
; #@! TF.CreationDate,2025-08-18T10:47:35+01:00
; #@! TF.GenerationSoftware,Kicad,Pcbnew,9.0.1
; #@! TF.FileFunction,Plated,1,4,PTH
FMAT,2
INCH
; #@! TA.AperFunction,Plated,PTH,ViaDrill
T1C0.0157
; #@! TA.AperFunction,Plated,PTH,ComponentDrill
T2C0.0236
; #@! TA.AperFunction,Plated,PTH,ComponentDrill
T3C0.0276
; #@! TA.AperFunction,Plated,PTH,ComponentDrill
T4C0.0354
; #@! TA.AperFunction,Plated,PTH,ComponentDrill
T5C0.0394
; #@! TA.AperFunction,Plated,PTH,ComponentDrill
T6C0.0433
; #@! TA.AperFunction,Plated,PTH,ComponentDrill
T7C0.0591
%
G90
G05
T1
X2.8189Y-5.1969
X2.8268Y-4.5157
X2.8583Y-4.4055
X2.878Y-2.8858
X2.8964Y-5.2382
X2.918Y-5.0322
X2.945Y-5.5659
X2.9488Y-4.473
X2.9606Y-4.3583
X2.9646Y-4.2205
X2.9882Y-4.7126
X3.0236Y-4.8071
X3.0354Y-4.6063
X3.0669Y-4.9567
X3.0866Y-5.5433
X3.1009Y-4.5015
X3.1024Y-5.6378
X3.122Y-5.248
X3.126Y-5.4843
X3.1575Y-4.315
X3.1654Y-5.315
X3.1693Y-3.8425
X3.1732Y-3.3583
X3.1929Y-4.1417
X3.2244Y-5.311
X3.2953Y-3.0472
X3.3346Y-4.8031
X3.3583Y-2.9685
X3.3661Y-2.4016
X3.3661Y-2.4488
X3.3701Y-2.5079
X3.374Y-2.7874
X3.3868Y-3.0906
X3.4173Y-4.9173
X3.4567Y-2.0945
X3.5512Y-4.3071
X3.563Y-3.3583
X3.563Y-3.8346
X3.5748Y-3.012
X3.5787Y-2.5472
X3.6378Y-3.6732
X3.6417Y-4.2598
X3.7087Y-2.2874
X3.7087Y-2.811
X3.7087Y-2.9173
X3.7205Y-2.7559
X3.7402Y-2.9685
X3.7598Y-2.9331
X3.9134Y-3.1811
X3.9409Y-3.3622
X3.9449Y-4.3031
X3.9567Y-3.8307
X4.0276Y-4.0846
X4.0369Y-3.033
X4.0669Y-4.6378
X4.1457Y-2.9065
X4.1496Y-2.8465
X4.1575Y-2.1102
X4.1654Y-2.3937
X4.1693Y-2.8031
X4.1772Y-2.9331
X4.2953Y-2.3252
X4.2958Y-2.118
X4.2992Y-2.4055
X4.3031Y-2.4646
X4.3228Y-4.311
X4.3386Y-3.0709
X4.3425Y-2.9065
X4.3425Y-2.9459
X4.3425Y-2.9852
X4.3425Y-3.0276
X4.3425Y-3.3661
X4.3465Y-3.8386
X4.4803Y-3.4262
X4.4843Y-4.2087
X4.4921Y-2.4252
X4.5Y-3.1457
X4.5118Y-2.7835
X4.5315Y-2.8189
X4.5512Y-3.1535
X4.5748Y-3.185
X4.6024Y-5.4961
X4.6526Y-4.0788
X4.6732Y-3.2087
X4.6732Y-3.6457
X4.7126Y-4.311
X4.7165Y-4.0197
X4.7195Y-3.8425
X4.7441Y-3.3583
X4.7874Y-5.4252
X4.7913Y-4.7953
X4.8307Y-5.3858
X4.8386Y-4.7441
X4.8415Y-3.622
X4.8583Y-3.9843
X4.8701Y-3.5669
X4.9213Y-2.9882
X4.9291Y-3.626
X4.937Y-2.9065
X4.9449Y-2.752
X4.9646Y-3.6575
X4.9724Y-5.5906
X4.9803Y-4.4606
X5.0118Y-3.1575
X5.0197Y-2.7047
X5.0197Y-4.1102
X5.0354Y-4.752
X5.0404Y-3.2087
X5.0591Y-2.4685
X5.0591Y-4.1063
X5.0669Y-2.689
X5.0669Y-5.3228
X5.0787Y-2.2087
X5.0787Y-3.2441
X5.0945Y-3.5945
X5.0945Y-3.9252
X5.0984Y-2.6496
X5.1043Y-2.4488
X5.1063Y-4.4882
X5.1142Y-4.6102
X5.1329Y-2.689
X5.1575Y-2.3701
X5.1614Y-2.6417
X5.1732Y-2.4331
X5.1841Y-3.7756
X5.2008Y-3.4291
X5.2126Y-3.5591
X5.2559Y-4.2402
X5.2746Y-5.1772
X5.2795Y-2.7677
X5.2874Y-3.878
X5.2913Y-2.9646
X5.2913Y-3.0088
X5.2913Y-3.0906
X5.2953Y-2.811
X5.3031Y-4.7717
X5.3031Y-5.5236
X5.3228Y-2.8425
X5.3228Y-2.9134
X5.3274Y-3.7055
X5.3307Y-3.6496
X5.3366Y-2.9503
X5.3386Y-3.7638
X5.3465Y-3.4528
X5.3583Y-4.311
X5.4173Y-2.5748
X5.4764Y-4.7638
X5.4843Y-3.7795
X5.5079Y-3.0906
X5.5512Y-3.0866
X5.5512Y-4.6063
X5.5553Y-4.419
X5.6102Y-3.6181
X5.6118Y-4.3449
X5.6137Y-3.5753
X5.6188Y-3.6565
X5.6457Y-3.7441
X5.7283Y-4.3071
X5.7323Y-3.6575
X5.8386Y-3.5591
X5.878Y-2.9065
X5.8976Y-3.7598
X5.9213Y-2.9094
X5.9646Y-2.9134
X5.9764Y-3.4134
X6.0433Y-3.4134
X6.122Y-4.3189
X6.1772Y-3.6299
X6.3346Y-3.7913
X6.3386Y-3.0866
X6.3622Y-4.3386
X6.3622Y-4.6535
X6.363Y-4.1693
X6.3767Y-3.5039
X6.3898Y-2.8386
X6.4331Y-2.8465
X6.4961Y-3.5039
X6.5118Y-2.878
X6.5118Y-4.5591
X6.5157Y-3.563
X6.5157Y-3.626
X6.5394Y-2.8346
X6.5394Y-3.7047
X6.5668Y-4.2676
X6.5984Y-3.9488
X6.6702Y-3.8027
X6.6772Y-2.9016
X6.6929Y-3.9291
X6.6949Y-3.0177
X6.7047Y-3.6102
X6.7087Y-3.4606
X6.7087Y-3.811
X6.7205Y-5.4724
X6.7315Y-3.6425
X6.7362Y-2.7342
X6.7559Y-3.815
X6.7559Y-3.9291
X6.7598Y-3.6151
X6.7717Y-3.4646
X6.8622Y-2.9409
X6.8701Y-2.7913
X6.8937Y-3.0118
X6.9016Y-2.9606
X6.9055Y-3.6181
X6.9134Y-4.311
X6.9409Y-5.6378
X7.0197Y-3.0394
X7.0669Y-5.5079
X7.1575Y-4.6339
X7.1575Y-5.0984
X7.1614Y-5.3386
X7.2559Y-5.4685
X7.2559Y-5.6063
T3
X7.1043Y-3.498
X7.1043Y-3.5846
X7.1043Y-3.6713
X7.1043Y-3.7579
X7.1476Y-3.5413
X7.1476Y-3.628
X7.1476Y-3.7146
X7.1476Y-3.8012
T4
X6.1309Y-4.8622
X6.1309Y-5.0807
X6.1309Y-5.2992
X6.1309Y-5.5177
X6.2309Y-4.8622
X6.2309Y-5.0807
X6.2309Y-5.2992
X6.2309Y-5.5177
X7.2724Y-3.4803
X7.2724Y-3.8189
T5
X3.0512Y-2.0866
X3.0512Y-2.9528
X3.1496Y-2.0866
X3.1496Y-2.9528
X3.248Y-2.0866
X3.248Y-2.9528
X3.8386Y-2.0866
X3.8386Y-2.9528
X3.937Y-2.0866
X3.937Y-2.9528
X4.0354Y-2.0866
X4.0354Y-2.9528
X4.626Y-2.0866
X4.626Y-2.9528
X4.7244Y-2.0866
X4.7244Y-2.9528
X4.8228Y-2.0866
X4.8228Y-2.9528
X5.2453Y-3.1972
X5.2453Y-3.2972
X5.2453Y-3.9972
X5.2453Y-4.0972
X5.3453Y-3.1972
X5.3453Y-3.2972
X5.3453Y-3.9972
X5.3453Y-4.0972
X5.4134Y-2.0866
X5.4134Y-2.9528
X5.4453Y-3.1972
X5.4453Y-3.2972
X5.4453Y-3.9972
X5.4453Y-4.0972
X5.5118Y-2.0866
X5.5118Y-2.9528
X5.5453Y-3.1972
X5.5453Y-3.2972
X5.5453Y-3.9972
X5.5453Y-4.0972
X5.6102Y-2.0866
X5.6102Y-2.9528
X5.6453Y-3.1972
X5.6453Y-3.2972
X5.6453Y-3.9972
X5.6453Y-4.0972
X5.7453Y-3.1972
X5.7453Y-3.2972
X5.7453Y-3.9972
X5.7453Y-4.0972
X5.7555Y-2.2933
X5.8453Y-3.1972
X5.8453Y-3.2972
X5.8453Y-3.9972
X5.8453Y-4.0972
X5.8555Y-2.2933
X5.9453Y-3.1972
X5.9453Y-3.2972
X5.9453Y-3.9972
X5.9453Y-4.0972
X5.9555Y-2.2933
X6.0453Y-3.1972
X6.0453Y-3.2972
X6.0453Y-3.9972
X6.0453Y-4.0972
X6.0555Y-2.2933
X6.1453Y-3.1972
X6.1453Y-3.2972
X6.1453Y-3.9972
X6.1453Y-4.0972
X6.1476Y-3.4508
X6.1476Y-3.8508
X6.2008Y-2.0866
X6.2008Y-2.9528
X6.2453Y-3.1972
X6.2453Y-3.2972
X6.2453Y-3.9972
X6.2453Y-4.0972
X6.2476Y-3.4508
X6.2476Y-3.8508
X6.2992Y-2.0866
X6.2992Y-2.9528
X6.3453Y-3.1972
X6.3453Y-3.2972
X6.3453Y-3.9972
X6.3453Y-4.0972
X6.3476Y-3.4508
X6.3476Y-3.8508
X6.3976Y-2.0866
X6.3976Y-2.9528
X6.4453Y-3.1972
X6.4453Y-3.2972
X6.4453Y-3.9972
X6.4453Y-4.0972
X6.4476Y-3.4508
X6.4476Y-3.8508
X6.4961Y-4.6858
X6.4961Y-4.7858
X6.4961Y-4.8858
X6.4961Y-4.9858
X6.4961Y-5.0858
X6.5453Y-3.1972
X6.5453Y-3.2972
X6.5453Y-3.9972
X6.5453Y-4.0972
X6.5476Y-3.4508
X6.5476Y-3.8508
X6.5961Y-4.6858
X6.5961Y-4.7858
X6.5961Y-4.8858
X6.5961Y-4.9858
X6.5961Y-5.0858
X6.6453Y-3.1972
X6.6453Y-3.2972
X6.6453Y-3.9972
X6.6453Y-4.0972
X6.6476Y-3.4508
X6.6476Y-3.8508
X6.7453Y-3.1972
X6.7453Y-3.2972
X6.7453Y-3.9972
X6.7453Y-4.0972
X6.8453Y-3.1972
X6.8453Y-3.2972
X6.8453Y-3.9972
X6.8453Y-4.0972
X6.9453Y-3.1972
X6.9453Y-3.2972
X6.9453Y-3.9972
X6.9453Y-4.0972
X6.9882Y-2.0866
X6.9882Y-2.9528
X7.0453Y-3.1972
X7.0453Y-3.2972
X7.0453Y-3.9972
X7.0453Y-4.0972
X7.0866Y-2.0866
X7.0866Y-2.9528
X7.1453Y-3.1972
X7.1453Y-3.2972
X7.1453Y-3.9972
X7.1453Y-4.0972
X7.185Y-2.0866
X7.185Y-2.9528
X7.2835Y-4.1913
X7.2835Y-4.2913
X7.2835Y-4.3913
T6
X3.1201Y-3.2776
X3.1201Y-3.4547
X3.1201Y-3.75
X3.1201Y-3.9272
X3.1201Y-4.2224
X3.1201Y-4.3996
X3.376Y-3.2776
X3.376Y-3.4547
X3.376Y-3.75
X3.376Y-3.9272
X3.376Y-4.2224
X3.376Y-4.3996
X3.5138Y-3.2776
X3.5138Y-3.4547
X3.5138Y-3.75
X3.5138Y-3.9272
X3.5138Y-4.2224
X3.5138Y-4.3996
X3.7697Y-3.2776
X3.7697Y-3.4547
X3.7697Y-3.75
X3.7697Y-3.9272
X3.7697Y-4.2224
X3.7697Y-4.3996
X3.9075Y-3.2776
X3.9075Y-3.4547
X3.9075Y-3.75
X3.9075Y-3.9272
X3.9075Y-4.2224
X3.9075Y-4.3996
X4.1634Y-3.2776
X4.1634Y-3.4547
X4.1634Y-3.75
X4.1634Y-3.9272
X4.1634Y-4.2224
X4.1634Y-4.3996
X4.3012Y-3.2776
X4.3012Y-3.4547
X4.3012Y-3.75
X4.3012Y-3.9272
X4.3012Y-4.2224
X4.3012Y-4.3996
X4.5571Y-3.2776
X4.5571Y-3.4547
X4.5571Y-3.75
X4.5571Y-3.9272
X4.5571Y-4.2224
X4.5571Y-4.3996
X4.6949Y-3.2776
X4.6949Y-3.4547
X4.6949Y-3.75
X4.6949Y-3.9272
X4.6949Y-4.2224
X4.6949Y-4.3996
X4.9508Y-3.2776
X4.9508Y-3.4547
X4.9508Y-3.75
X4.9508Y-3.9272
X4.9508Y-4.2224
X4.9508Y-4.3996
X5.6791Y-4.2224
X5.6791Y-4.3996
X5.935Y-4.2224
X5.935Y-4.3996
X6.0728Y-4.2224
X6.0728Y-4.3996
X6.3287Y-4.2224
X6.3287Y-4.3996
X6.4665Y-4.2224
X6.4665Y-4.3996
X6.7224Y-4.2224
X6.7224Y-4.3996
X6.8602Y-4.2224
X6.8602Y-4.3996
X7.1161Y-4.2224
X7.1161Y-4.3996
T2
G00X3.2874Y-4.685
M15
G01X3.3268Y-4.685
M16
G05
G00X3.2874Y-5.0118
M15
G01X3.3268Y-5.0118
M16
G05
G00X3.2874Y-5.1339
M15
G01X3.3268Y-5.1339
M16
G05
G00X3.2874Y-5.315
M15
G01X3.3268Y-5.315
M16
G05
G00X3.2874Y-5.6417
M15
G01X3.3268Y-5.6417
M16
G05
G00X3.2874Y-5.7638
M15
G01X3.3268Y-5.7638
M16
G05
G00X3.7598Y-4.685
M15
G01X3.7992Y-4.685
M16
G05
G00X3.7598Y-5.0118
M15
G01X3.7992Y-5.0118
M16
G05
G00X3.7598Y-5.1339
M15
G01X3.7992Y-5.1339
M16
G05
G00X3.7598Y-5.315
M15
G01X3.7992Y-5.315
M16
G05
G00X3.7598Y-5.6417
M15
G01X3.7992Y-5.6417
M16
G05
G00X3.7598Y-5.7638
M15
G01X3.7992Y-5.7638
M16
G05
G00X4.2323Y-4.685
M15
G01X4.2717Y-4.685
M16
G05
G00X4.2323Y-5.0118
M15
G01X4.2717Y-5.0118
M16
G05
G00X4.2323Y-5.1339
M15
G01X4.2717Y-5.1339
M16
G05
G00X4.2323Y-5.315
M15
G01X4.2717Y-5.315
M16
G05
G00X4.2323Y-5.6417
M15
G01X4.2717Y-5.6417
M16
G05
G00X4.2323Y-5.7638
M15
G01X4.2717Y-5.7638
M16
G05
G00X4.7047Y-4.685
M15
G01X4.7441Y-4.685
M16
G05
G00X4.7047Y-5.0118
M15
G01X4.7441Y-5.0118
M16
G05
G00X4.7047Y-5.1339
M15
G01X4.7441Y-5.1339
M16
G05
G00X4.7047Y-5.315
M15
G01X4.7441Y-5.315
M16
G05
G00X4.7047Y-5.6417
M15
G01X4.7441Y-5.6417
M16
G05
G00X4.7047Y-5.7638
M15
G01X4.7441Y-5.7638
M16
G05
G00X5.1772Y-4.685
M15
G01X5.2165Y-4.685
M16
G05
G00X5.1772Y-5.0118
M15
G01X5.2165Y-5.0118
M16
G05
G00X5.1772Y-5.1339
M15
G01X5.2165Y-5.1339
M16
G05
G00X5.1772Y-5.315
M15
G01X5.2165Y-5.315
M16
G05
G00X5.1772Y-5.6417
M15
G01X5.2165Y-5.6417
M16
G05
G00X5.1772Y-5.7638
M15
G01X5.2165Y-5.7638
M16
G05
G00X5.6496Y-4.685
M15
G01X5.689Y-4.685
M16
G05
G00X5.6496Y-5.0118
M15
G01X5.689Y-5.0118
M16
G05
G00X5.6496Y-5.1339
M15
G01X5.689Y-5.1339
M16
G05
G00X5.6496Y-5.315
M15
G01X5.689Y-5.315
M16
G05
G00X5.6496Y-5.6417
M15
G01X5.689Y-5.6417
M16
G05
G00X5.6496Y-5.7638
M15
G01X5.689Y-5.7638
M16
G05
T7
G00X2.9606Y-1.811
M15
G01X2.9606Y-1.7717
M16
G05
G00X2.9606Y-2.6772
M15
G01X2.9606Y-2.6378
M16
G05
G00X3.3386Y-1.811
M15
G01X3.3386Y-1.7717
M16
G05
G00X3.3386Y-2.6772
M15
G01X3.3386Y-2.6378
M16
G05
G00X3.748Y-1.811
M15
G01X3.748Y-1.7717
M16
G05
G00X3.748Y-2.6772
M15
G01X3.748Y-2.6378
M16
G05
G00X4.126Y-1.811
M15
G01X4.126Y-1.7717
M16
G05
G00X4.126Y-2.6772
M15
G01X4.126Y-2.6378
M16
G05
G00X4.5354Y-1.811
M15
G01X4.5354Y-1.7717
M16
G05
G00X4.5354Y-2.6772
M15
G01X4.5354Y-2.6378
M16
G05
G00X4.9134Y-1.811
M15
G01X4.9134Y-1.7717
M16
G05
G00X4.9134Y-2.6772
M15
G01X4.9134Y-2.6378
M16
G05
G00X5.3228Y-1.811
M15
G01X5.3228Y-1.7717
M16
G05
G00X5.3228Y-2.6772
M15
G01X5.3228Y-2.6378
M16
G05
G00X5.7008Y-1.811
M15
G01X5.7008Y-1.7717
M16
G05
G00X5.7008Y-2.6772
M15
G01X5.7008Y-2.6378
M16
G05
G00X6.1102Y-1.811
M15
G01X6.1102Y-1.7717
M16
G05
G00X6.1102Y-2.6772
M15
G01X6.1102Y-2.6378
M16
G05
G00X6.4882Y-1.811
M15
G01X6.4882Y-1.7717
M16
G05
G00X6.4882Y-2.6772
M15
G01X6.4882Y-2.6378
M16
G05
G00X6.8976Y-1.811
M15
G01X6.8976Y-1.7717
M16
G05
G00X6.8976Y-2.6772
M15
G01X6.8976Y-2.6378
M16
G05
G00X7.2756Y-1.811
M15
G01X7.2756Y-1.7717
M16
G05
G00X7.2756Y-2.6772
M15
G01X7.2756Y-2.6378
M16
G05
M30
