<?xml version="1.0" standalone="no"?>
 <!DOCTYPE svg PUBLIC "-//W3C//DTD SVG 1.1//EN" 
 "http://www.w3.org/Graphics/SVG/1.1/DTD/svg11.dtd"> 
<svg
  xmlns:svg="http://www.w3.org/2000/svg"
  xmlns="http://www.w3.org/2000/svg"
  xmlns:xlink="http://www.w3.org/1999/xlink"
  version="1.1"
  width="297.0022mm" height="210.0072mm" viewBox="0.0000 0.0000 297.0022 210.0072">
<title>SVG Image created as dk2_06_panel-Edge_Cuts.svg date 2025/09/24 23:44:47 </title>
  <desc>Image generated by PCBNEW </desc>
<g style="fill:#000000; fill-opacity:1.0000;stroke:#000000; stroke-opacity:1.0000;
stroke-linecap:round; stroke-linejoin:round;"
 transform="translate(0 0) scale(1 1)">
</g>
<g style="fill:none; 
stroke:#000000; stroke-width:0.1500; stroke-opacity:1; 
stroke-linecap:round; stroke-linejoin:round;">
<path d="M146.5000 99.7500
L146.5000 85.7500
" />
</g>
<g style="fill:none; 
stroke:#000000; stroke-width:0.1000; stroke-opacity:1; 
stroke-linecap:round; stroke-linejoin:round;">
<path d="M184.3000 100.0300 A0.5000 0.5000 0.0 0 0 184.8000 99.5300" />
<path d="M182.0000 86.2300 A0.5000 0.5000 0.0 0 0 181.5000 86.7300" />
</g>
<g style="fill:none; 
stroke:#000000; stroke-width:0.1500; stroke-opacity:1; 
stroke-linecap:round; stroke-linejoin:round;">
<path d="M177.5000 100.7500
L147.5000 100.7500
" />
</g>
<g style="fill:none; 
stroke:#000000; stroke-width:0.1000; stroke-opacity:1; 
stroke-linecap:round; stroke-linejoin:round;">
<path d="M184.8000 86.7300
L184.8000 99.5300
" />
</g>
<g style="fill:none; 
stroke:#000000; stroke-width:0.1500; stroke-opacity:1; 
stroke-linecap:round; stroke-linejoin:round;">
<path d="M146.5000 99.7500 A1.0000 1.0000 0.0 0 0 147.5000 100.7500" />
</g>
<g style="fill:none; 
stroke:#000000; stroke-width:0.1000; stroke-opacity:1; 
stroke-linecap:round; stroke-linejoin:round;">
<path d="M182.0000 86.2300
L184.3000 86.2300
" />
</g>
<g style="fill:none; 
stroke:#000000; stroke-width:0.1500; stroke-opacity:1; 
stroke-linecap:round; stroke-linejoin:round;">
<path d="M178.5000 85.7500
L178.5000 99.7500
" />
<path d="M177.5000 100.7500 A1.0000 1.0000 0.0 0 0 178.5000 99.7500" />
<path d="M178.5000 85.7500 A1.0000 1.0000 0.0 0 0 177.5000 84.7500" />
<path d="M147.5000 84.7500
L177.5000 84.7500
" />
</g>
<g style="fill:none; 
stroke:#000000; stroke-width:0.1000; stroke-opacity:1; 
stroke-linecap:round; stroke-linejoin:round;">
<path d="M184.8000 86.7300 A0.5000 0.5000 0.0 0 0 184.3000 86.2300" />
<path d="M181.5000 99.5300
L181.5000 86.7300
" />
<path d="M184.3000 100.0300
L182.0000 100.0300
" />
</g>
<g style="fill:none; 
stroke:#000000; stroke-width:0.1500; stroke-opacity:1; 
stroke-linecap:round; stroke-linejoin:round;">
<path d="M147.5000 84.7500 A1.0000 1.0000 0.0 0 0 146.5000 85.7500" />
<path style="fill:none; 
stroke:#000000; stroke-width:0.1000; stroke-opacity:1; 
stroke-linecap:round; stroke-linejoin:round;fill:none"
d="M 69.0500,29.7500
190.9500,29.7500
190.9500,158.2500
69.0500,158.2500
Z" /> 
</g>
<g style="fill:none; 
stroke:#000000; stroke-width:0.1000; stroke-opacity:1; 
stroke-linecap:round; stroke-linejoin:round;">
<path d="M181.5000 99.5300 A0.5000 0.5000 0.0 0 0 182.0000 100.0300" />
</g> 
</svg>
