<?xml version="1.0" standalone="no"?>
 <!DOCTYPE svg PUBLIC "-//W3C//DTD SVG 1.1//EN" 
 "http://www.w3.org/Graphics/SVG/1.1/DTD/svg11.dtd"> 
<svg
  xmlns:svg="http://www.w3.org/2000/svg"
  xmlns="http://www.w3.org/2000/svg"
  xmlns:xlink="http://www.w3.org/1999/xlink"
  version="1.1"
  width="297.0022mm" height="210.0072mm" viewBox="0.0000 0.0000 297.0022 210.0072">
<title>SVG Image created as dk2_06_panel-B_Cu.svg date 2025/09/24 23:44:47 </title>
  <desc>Image generated by PCBNEW </desc>
<g style="fill:#000000; fill-opacity:1.0000;stroke:#000000; stroke-opacity:1.0000;
stroke-linecap:round; stroke-linejoin:round;"
 transform="translate(0 0) scale(1 1)">
<path style="fill:#000000; fill-opacity:1.0000; stroke:none;fill-rule:evenodd;"
d="M 190.8925,29.7702
190.9383,29.8230
190.9495,29.8745
190.9495,158.1255
190.9298,158.1925
190.8770,158.2383
190.8255,158.2495
69.1745,158.2495
69.1075,158.2298
69.0617,158.1770
69.0505,158.1255
69.0505,155.1287
74.6995,155.1287
74.6995,155.3713
74.7312,155.6118
74.7939,155.8461
74.8868,156.0702
74.8868,156.0702
75.0081,156.2803
75.0081,156.2803
75.0081,156.2803
75.1557,156.4727
75.1557,156.4727
75.3273,156.6443
75.3273,156.6443
75.5197,156.7919
75.7298,156.9132
75.9539,157.0061
76.1882,157.0688
76.3686,157.0926
76.4287,157.1005
76.4287,157.1005
76.6713,157.1005
76.7194,157.0942
76.9118,157.0688
77.1461,157.0061
77.3702,156.9132
77.5803,156.7919
77.7727,156.6443
77.9443,156.4727
78.0919,156.2803
78.2132,156.0702
78.3061,155.8461
78.3688,155.6118
78.4005,155.3713
78.4005,155.1287
78.4005,155.1287
181.5995,155.1287
181.5995,155.3713
181.6312,155.6118
181.6939,155.8461
181.7868,156.0702
181.7868,156.0702
181.9081,156.2803
181.9081,156.2803
181.9081,156.2803
182.0557,156.4727
182.0557,156.4727
182.2273,156.6443
182.2273,156.6443
182.4197,156.7919
182.6298,156.9132
182.8539,157.0061
183.0882,157.0688
183.2686,157.0926
183.3287,157.1005
183.3287,157.1005
183.5713,157.1005
183.6194,157.0942
183.8118,157.0688
184.0461,157.0061
184.2702,156.9132
184.4803,156.7919
184.6727,156.6443
184.8443,156.4727
184.9919,156.2803
185.1132,156.0702
185.2061,155.8461
185.2688,155.6118
185.3005,155.3713
185.3005,155.1287
185.2688,154.8882
185.2061,154.6539
185.1132,154.4298
184.9919,154.2197
184.8443,154.0273
184.8443,154.0273
184.6727,153.8557
184.6727,153.8557
184.4803,153.7081
184.4803,153.7081
184.4803,153.7081
184.2702,153.5868
184.2702,153.5868
184.0461,153.4939
183.8118,153.4312
183.5713,153.3995
183.5713,153.3995
183.3287,153.3995
183.3287,153.3995
183.0882,153.4312
182.8539,153.4939
182.6298,153.5868
182.6298,153.5868
182.4197,153.7081
182.2273,153.8557
182.2273,153.8557
182.0557,154.0273
182.0557,154.0273
181.9081,154.2197
181.7868,154.4298
181.7868,154.4298
181.6939,154.6539
181.6312,154.8882
181.5995,155.1287
78.4005,155.1287
78.3688,154.8882
78.3061,154.6539
78.2132,154.4298
78.0919,154.2197
77.9443,154.0273
77.9443,154.0273
77.7727,153.8557
77.7727,153.8557
77.5803,153.7081
77.5803,153.7081
77.5803,153.7081
77.3702,153.5868
77.3702,153.5868
77.1461,153.4939
76.9118,153.4312
76.6713,153.3995
76.6713,153.3995
76.4287,153.3995
76.4287,153.3995
76.1882,153.4312
75.9539,153.4939
75.7298,153.5868
75.7298,153.5868
75.5197,153.7081
75.3273,153.8557
75.3273,153.8557
75.1557,154.0273
75.1557,154.0273
75.0081,154.2197
74.8868,154.4298
74.8868,154.4298
74.7939,154.6539
74.7312,154.8882
74.6995,155.1287
69.0505,155.1287
69.0505,139.8305
80.5495,139.8305
80.5495,140.1695
80.5827,140.5069
80.6489,140.8394
80.7473,141.1638
80.8770,141.4771
80.8770,141.4771
81.0368,141.7760
81.0368,141.7761
81.2252,142.0579
81.2252,142.0579
81.4403,142.3200
81.6800,142.5597
81.6800,142.5597
81.6800,142.5597
81.9421,142.7748
82.2239,142.9632
82.2240,142.9632
82.2240,142.9632
82.5229,143.1230
82.5229,143.1230
82.5229,143.1230
82.8362,143.2527
83.1606,143.3511
83.4931,143.4173
83.8305,143.4505
83.8305,143.4505
84.1695,143.4505
84.1695,143.4505
84.5069,143.4173
84.8394,143.3511
85.1638,143.2527
85.4771,143.1230
85.7761,142.9632
86.0579,142.7748
86.3200,142.5597
86.5597,142.3200
86.7748,142.0579
86.9632,141.7761
87.1230,141.4771
87.2527,141.1638
87.3511,140.8394
87.4173,140.5069
87.4505,140.1695
87.4505,139.8305
92.5495,139.8305
92.5495,140.1695
92.5827,140.5069
92.6489,140.8394
92.7473,141.1638
92.8770,141.4771
92.8770,141.4771
93.0368,141.7760
93.0368,141.7761
93.2252,142.0579
93.2252,142.0579
93.4403,142.3200
93.6800,142.5597
93.6800,142.5597
93.6800,142.5597
93.9421,142.7748
94.2239,142.9632
94.2240,142.9632
94.2240,142.9632
94.5229,143.1230
94.5229,143.1230
94.5229,143.1230
94.8362,143.2527
95.1606,143.3511
95.4931,143.4173
95.8305,143.4505
95.8305,143.4505
96.1695,143.4505
96.1695,143.4505
96.5069,143.4173
96.8394,143.3511
97.1638,143.2527
97.4771,143.1230
97.7761,142.9632
98.0579,142.7748
98.3200,142.5597
98.5597,142.3200
98.7748,142.0579
98.9632,141.7761
99.1230,141.4771
99.2527,141.1638
99.3511,140.8394
99.4173,140.5069
99.4505,140.1695
99.4505,139.8305
104.5495,139.8305
104.5495,140.1695
104.5827,140.5069
104.6489,140.8394
104.7473,141.1638
104.8770,141.4771
104.8770,141.4771
105.0368,141.7760
105.0368,141.7761
105.2252,142.0579
105.2252,142.0579
105.4403,142.3200
105.6800,142.5597
105.6800,142.5597
105.6800,142.5597
105.9421,142.7748
106.2239,142.9632
106.2240,142.9632
106.2240,142.9632
106.5229,143.1230
106.5229,143.1230
106.5229,143.1230
106.8362,143.2527
107.1606,143.3511
107.4931,143.4173
107.8305,143.4505
107.8305,143.4505
108.1695,143.4505
108.1695,143.4505
108.5069,143.4173
108.8394,143.3511
109.1638,143.2527
109.4771,143.1230
109.7761,142.9632
110.0579,142.7748
110.3200,142.5597
110.5597,142.3200
110.7748,142.0579
110.9632,141.7761
111.1230,141.4771
111.2527,141.1638
111.3511,140.8394
111.4173,140.5069
111.4505,140.1695
111.4505,139.8305
116.5495,139.8305
116.5495,140.1695
116.5827,140.5069
116.6489,140.8394
116.7473,141.1638
116.8770,141.4771
116.8770,141.4771
117.0368,141.7760
117.0368,141.7761
117.2252,142.0579
117.2252,142.0579
117.4403,142.3200
117.6800,142.5597
117.6800,142.5597
117.6800,142.5597
117.9421,142.7748
118.2239,142.9632
118.2240,142.9632
118.2240,142.9632
118.5229,143.1230
118.5229,143.1230
118.5229,143.1230
118.8362,143.2527
119.1606,143.3511
119.4931,143.4173
119.8305,143.4505
119.8305,143.4505
120.1695,143.4505
120.1695,143.4505
120.5069,143.4173
120.8394,143.3511
121.1638,143.2527
121.4771,143.1230
121.7761,142.9632
122.0579,142.7748
122.3200,142.5597
122.5597,142.3200
122.7748,142.0579
122.9632,141.7761
123.1230,141.4771
123.2527,141.1638
123.3511,140.8394
123.4173,140.5069
123.4505,140.1695
123.4505,139.8305
128.5495,139.8305
128.5495,140.1695
128.5827,140.5069
128.6489,140.8394
128.7473,141.1638
128.8770,141.4771
128.8770,141.4771
129.0368,141.7760
129.0368,141.7761
129.2252,142.0579
129.2252,142.0579
129.4403,142.3200
129.6800,142.5597
129.6800,142.5597
129.6800,142.5597
129.9421,142.7748
130.2239,142.9632
130.2240,142.9632
130.2240,142.9632
130.5229,143.1230
130.5229,143.1230
130.5229,143.1230
130.8362,143.2527
131.1606,143.3511
131.4931,143.4173
131.8305,143.4505
131.8305,143.4505
132.1695,143.4505
132.1695,143.4505
132.5069,143.4173
132.8394,143.3511
133.1638,143.2527
133.4771,143.1230
133.7761,142.9632
134.0579,142.7748
134.3200,142.5597
134.5597,142.3200
134.7748,142.0579
134.9632,141.7761
135.1230,141.4771
135.2527,141.1638
135.3511,140.8394
135.4173,140.5069
135.4505,140.1695
135.4505,139.8305
140.5495,139.8305
140.5495,140.1695
140.5827,140.5069
140.6489,140.8394
140.7473,141.1638
140.8770,141.4771
140.8770,141.4771
141.0368,141.7760
141.0368,141.7761
141.2252,142.0579
141.2252,142.0579
141.4403,142.3200
141.6800,142.5597
141.6800,142.5597
141.6800,142.5597
141.9421,142.7748
142.2239,142.9632
142.2240,142.9632
142.2240,142.9632
142.5229,143.1230
142.5229,143.1230
142.5229,143.1230
142.8362,143.2527
143.1606,143.3511
143.4931,143.4173
143.8305,143.4505
143.8305,143.4505
144.1695,143.4505
144.1695,143.4505
144.5069,143.4173
144.8394,143.3511
145.1638,143.2527
145.4771,143.1230
145.7761,142.9632
146.0579,142.7748
146.3200,142.5597
146.5597,142.3200
146.7748,142.0579
146.9632,141.7761
147.1230,141.4771
147.2527,141.1638
147.3511,140.8394
147.4173,140.5069
147.4505,140.1695
147.4505,140.0287
155.1495,140.0287
155.1495,140.2713
155.1812,140.5118
155.2439,140.7461
155.3368,140.9702
155.3368,140.9702
155.4581,141.1803
155.4581,141.1803
155.4581,141.1803
155.6057,141.3727
155.6057,141.3727
155.7773,141.5443
155.7773,141.5443
155.9697,141.6919
156.1798,141.8132
156.4039,141.9061
156.6382,141.9688
156.8186,141.9926
156.8787,142.0005
156.8787,142.0005
157.1213,142.0005
157.1694,141.9942
157.3618,141.9688
157.5961,141.9061
157.8202,141.8132
158.0303,141.6919
158.2227,141.5443
158.3943,141.3727
158.5419,141.1803
158.6632,140.9702
158.7561,140.7461
158.8188,140.5118
158.8505,140.2713
158.8505,140.0287
158.8188,139.7882
158.7561,139.5539
158.6632,139.3298
158.5419,139.1197
158.3943,138.9273
158.3943,138.9273
158.2227,138.7557
158.2227,138.7557
158.0303,138.6081
158.0303,138.6081
158.0303,138.6081
157.8202,138.4868
157.8202,138.4868
157.5961,138.3939
157.3618,138.3312
157.1213,138.2995
157.1213,138.2995
156.8787,138.2995
156.8787,138.2995
156.6382,138.3312
156.4039,138.3939
156.1798,138.4868
156.1798,138.4868
155.9697,138.6081
155.7773,138.7557
155.7773,138.7557
155.6057,138.9273
155.6057,138.9273
155.4581,139.1197
155.3368,139.3298
155.3368,139.3298
155.2439,139.5539
155.1812,139.7882
155.1495,140.0287
147.4505,140.0287
147.4505,139.8305
147.4173,139.4931
147.3511,139.1606
147.2527,138.8362
147.1230,138.5229
147.1036,138.4868
146.9632,138.2240
146.9632,138.2240
146.9632,138.2239
146.7748,137.9421
146.5597,137.6800
146.5597,137.6800
146.5597,137.6800
146.3200,137.4403
146.0579,137.2252
146.0579,137.2252
146.0579,137.2252
145.7761,137.0368
145.7760,137.0368
145.7760,137.0368
145.4771,136.8770
145.4771,136.8770
145.1638,136.7473
144.9734,136.6895
144.8394,136.6489
144.8394,136.6489
144.8394,136.6489
144.5069,136.5827
144.2692,136.5593
144.1695,136.5495
143.8305,136.5495
143.7397,136.5584
143.4931,136.5827
143.1606,136.6489
142.8362,136.7473
142.5229,136.8770
142.5229,136.8770
142.2240,137.0368
142.2239,137.0368
141.9421,137.2252
141.9421,137.2252
141.6800,137.4403
141.4403,137.6800
141.2252,137.9421
141.2252,137.9421
141.0368,138.2239
141.0368,138.2240
140.8770,138.5229
140.8770,138.5229
140.7473,138.8362
140.6489,139.1606
140.5827,139.4931
140.5495,139.8305
135.4505,139.8305
135.4505,139.8305
135.4173,139.4931
135.3511,139.1606
135.2527,138.8362
135.1230,138.5229
135.1036,138.4868
134.9632,138.2240
134.9632,138.2240
134.9632,138.2239
134.7748,137.9421
134.5597,137.6800
134.5597,137.6800
134.5597,137.6800
134.3200,137.4403
134.0579,137.2252
134.0579,137.2252
134.0579,137.2252
133.7761,137.0368
133.7760,137.0368
133.7760,137.0368
133.4771,136.8770
133.4771,136.8770
133.1638,136.7473
132.9734,136.6895
132.8394,136.6489
132.8394,136.6489
132.8394,136.6489
132.5069,136.5827
132.2692,136.5593
132.1695,136.5495
131.8305,136.5495
131.7397,136.5584
131.4931,136.5827
131.1606,136.6489
130.8362,136.7473
130.5229,136.8770
130.5229,136.8770
130.2240,137.0368
130.2239,137.0368
129.9421,137.2252
129.9421,137.2252
129.6800,137.4403
129.4403,137.6800
129.2252,137.9421
129.2252,137.9421
129.0368,138.2239
129.0368,138.2240
128.8770,138.5229
128.8770,138.5229
128.7473,138.8362
128.6489,139.1606
128.5827,139.4931
128.5495,139.8305
123.4505,139.8305
123.4505,139.8305
123.4173,139.4931
123.3511,139.1606
123.2527,138.8362
123.1230,138.5229
123.1036,138.4868
122.9632,138.2240
122.9632,138.2240
122.9632,138.2239
122.7748,137.9421
122.5597,137.6800
122.5597,137.6800
122.5597,137.6800
122.3200,137.4403
122.0579,137.2252
122.0579,137.2252
122.0579,137.2252
121.7761,137.0368
121.7760,137.0368
121.7760,137.0368
121.4771,136.8770
121.4771,136.8770
121.1638,136.7473
120.9734,136.6895
120.8394,136.6489
120.8394,136.6489
120.8394,136.6489
120.5069,136.5827
120.2692,136.5593
120.1695,136.5495
119.8305,136.5495
119.7397,136.5584
119.4931,136.5827
119.1606,136.6489
118.8362,136.7473
118.5229,136.8770
118.5229,136.8770
118.2240,137.0368
118.2239,137.0368
117.9421,137.2252
117.9421,137.2252
117.6800,137.4403
117.4403,137.6800
117.2252,137.9421
117.2252,137.9421
117.0368,138.2239
117.0368,138.2240
116.8770,138.5229
116.8770,138.5229
116.7473,138.8362
116.6489,139.1606
116.5827,139.4931
116.5495,139.8305
111.4505,139.8305
111.4505,139.8305
111.4173,139.4931
111.3511,139.1606
111.2527,138.8362
111.1230,138.5229
111.1036,138.4868
110.9632,138.2240
110.9632,138.2240
110.9632,138.2239
110.7748,137.9421
110.5597,137.6800
110.5597,137.6800
110.5597,137.6800
110.3200,137.4403
110.0579,137.2252
110.0579,137.2252
110.0579,137.2252
109.7761,137.0368
109.7760,137.0368
109.7760,137.0368
109.4771,136.8770
109.4771,136.8770
109.1638,136.7473
108.9734,136.6895
108.8394,136.6489
108.8394,136.6489
108.8394,136.6489
108.5069,136.5827
108.2692,136.5593
108.1695,136.5495
107.8305,136.5495
107.7397,136.5584
107.4931,136.5827
107.1606,136.6489
106.8362,136.7473
106.5229,136.8770
106.5229,136.8770
106.2240,137.0368
106.2239,137.0368
105.9421,137.2252
105.9421,137.2252
105.6800,137.4403
105.4403,137.6800
105.2252,137.9421
105.2252,137.9421
105.0368,138.2239
105.0368,138.2240
104.8770,138.5229
104.8770,138.5229
104.7473,138.8362
104.6489,139.1606
104.5827,139.4931
104.5495,139.8305
99.4505,139.8305
99.4505,139.8305
99.4173,139.4931
99.3511,139.1606
99.2527,138.8362
99.1230,138.5229
99.1036,138.4868
98.9632,138.2240
98.9632,138.2240
98.9632,138.2239
98.7748,137.9421
98.5597,137.6800
98.5597,137.6800
98.5597,137.6800
98.3200,137.4403
98.0579,137.2252
98.0579,137.2252
98.0579,137.2252
97.7761,137.0368
97.7760,137.0368
97.7760,137.0368
97.4771,136.8770
97.4771,136.8770
97.1638,136.7473
96.9734,136.6895
96.8394,136.6489
96.8394,136.6489
96.8394,136.6489
96.5069,136.5827
96.2692,136.5593
96.1695,136.5495
95.8305,136.5495
95.7397,136.5584
95.4931,136.5827
95.1606,136.6489
94.8362,136.7473
94.5229,136.8770
94.5229,136.8770
94.2240,137.0368
94.2239,137.0368
93.9421,137.2252
93.9421,137.2252
93.6800,137.4403
93.4403,137.6800
93.2252,137.9421
93.2252,137.9421
93.0368,138.2239
93.0368,138.2240
92.8770,138.5229
92.8770,138.5229
92.7473,138.8362
92.6489,139.1606
92.5827,139.4931
92.5495,139.8305
87.4505,139.8305
87.4505,139.8305
87.4173,139.4931
87.3511,139.1606
87.2527,138.8362
87.1230,138.5229
87.1036,138.4868
86.9632,138.2240
86.9632,138.2240
86.9632,138.2239
86.7748,137.9421
86.5597,137.6800
86.5597,137.6800
86.5597,137.6800
86.3200,137.4403
86.0579,137.2252
86.0579,137.2252
86.0579,137.2252
85.7761,137.0368
85.7760,137.0368
85.7760,137.0368
85.4771,136.8770
85.4771,136.8770
85.1638,136.7473
84.9734,136.6895
84.8394,136.6489
84.8394,136.6489
84.8394,136.6489
84.5069,136.5827
84.2692,136.5593
84.1695,136.5495
83.8305,136.5495
83.7397,136.5584
83.4931,136.5827
83.1606,136.6489
82.8362,136.7473
82.5229,136.8770
82.5229,136.8770
82.2240,137.0368
82.2239,137.0368
81.9421,137.2252
81.9421,137.2252
81.6800,137.4403
81.4403,137.6800
81.2252,137.9421
81.2252,137.9421
81.0368,138.2239
81.0368,138.2240
80.8770,138.5229
80.8770,138.5229
80.7473,138.8362
80.6489,139.1606
80.5827,139.4931
80.5495,139.8305
69.0505,139.8305
69.0505,134.4787
155.1495,134.4787
155.1495,134.7213
155.1812,134.9618
155.2439,135.1961
155.3368,135.4202
155.3368,135.4202
155.4581,135.6303
155.4581,135.6303
155.4581,135.6303
155.6057,135.8227
155.6057,135.8227
155.7773,135.9943
155.7773,135.9943
155.9697,136.1419
156.1798,136.2632
156.4039,136.3561
156.6382,136.4188
156.8186,136.4426
156.8787,136.4505
156.8787,136.4505
157.1213,136.4505
157.1694,136.4442
157.3618,136.4188
157.5961,136.3561
157.8202,136.2632
158.0303,136.1419
158.2227,135.9943
158.3943,135.8227
158.5419,135.6303
158.6632,135.4202
158.7561,135.1961
158.8188,134.9618
158.8505,134.7213
158.8505,134.4787
158.8188,134.2382
158.7561,134.0039
158.6632,133.7798
158.5419,133.5697
158.3943,133.3773
158.3943,133.3773
158.2227,133.2057
158.2227,133.2057
158.0303,133.0581
158.0303,133.0581
158.0303,133.0581
157.8202,132.9368
157.8202,132.9368
157.5961,132.8439
157.3618,132.7812
157.1213,132.7495
157.1213,132.7495
156.8787,132.7495
156.8787,132.7495
156.6382,132.7812
156.4039,132.8439
156.1798,132.9368
156.1798,132.9368
155.9697,133.0581
155.7773,133.2057
155.7773,133.2057
155.6057,133.3773
155.6057,133.3773
155.4581,133.5697
155.3368,133.7798
155.3368,133.7798
155.2439,134.0039
155.1812,134.2382
155.1495,134.4787
69.0505,134.4787
69.0505,128.9287
155.1495,128.9287
155.1495,129.1713
155.1812,129.4118
155.2439,129.6461
155.3368,129.8702
155.3368,129.8702
155.4581,130.0803
155.4581,130.0803
155.4581,130.0803
155.6057,130.2727
155.6057,130.2727
155.7773,130.4443
155.7773,130.4443
155.9697,130.5919
156.1798,130.7132
156.4039,130.8061
156.6382,130.8688
156.8186,130.8926
156.8787,130.9005
156.8787,130.9005
157.1213,130.9005
157.1694,130.8942
157.3618,130.8688
157.5961,130.8061
157.8202,130.7132
158.0303,130.5919
158.2227,130.4443
158.3943,130.2727
158.5419,130.0803
158.6632,129.8702
158.7561,129.6461
158.8188,129.4118
158.8505,129.1713
158.8505,128.9287
158.8188,128.6882
158.7561,128.4539
158.6632,128.2298
158.5419,128.0197
158.3943,127.8273
158.3943,127.8273
158.2227,127.6557
158.2227,127.6557
158.0303,127.5081
158.0303,127.5081
158.0303,127.5081
157.8202,127.3868
157.8202,127.3868
157.5961,127.2939
157.3618,127.2312
157.1213,127.1995
157.1213,127.1995
156.8787,127.1995
156.8787,127.1995
156.6382,127.2312
156.4039,127.2939
156.1798,127.3868
156.1798,127.3868
155.9697,127.5081
155.7773,127.6557
155.7773,127.6557
155.6057,127.8273
155.6057,127.8273
155.4581,128.0197
155.3368,128.2298
155.3368,128.2298
155.2439,128.4539
155.1812,128.6882
155.1495,128.9287
69.0505,128.9287
69.0505,123.8305
80.5495,123.8305
80.5495,124.1695
80.5827,124.5069
80.6489,124.8394
80.7473,125.1638
80.8770,125.4771
80.8770,125.4771
81.0368,125.7760
81.0368,125.7761
81.2252,126.0579
81.2252,126.0579
81.4403,126.3200
81.6800,126.5597
81.6800,126.5597
81.6800,126.5597
81.9421,126.7748
82.2239,126.9632
82.2240,126.9632
82.2240,126.9632
82.5229,127.1230
82.5229,127.1230
82.5229,127.1230
82.8362,127.2527
83.1606,127.3511
83.4931,127.4173
83.8305,127.4505
83.8305,127.4505
84.1695,127.4505
84.1695,127.4505
84.5069,127.4173
84.8394,127.3511
85.1638,127.2527
85.4771,127.1230
85.7761,126.9632
86.0579,126.7748
86.3200,126.5597
86.5597,126.3200
86.7748,126.0579
86.9632,125.7761
87.1230,125.4771
87.2527,125.1638
87.3511,124.8394
87.4173,124.5069
87.4505,124.1695
87.4505,123.8305
92.5495,123.8305
92.5495,124.1695
92.5827,124.5069
92.6489,124.8394
92.7473,125.1638
92.8770,125.4771
92.8770,125.4771
93.0368,125.7760
93.0368,125.7761
93.2252,126.0579
93.2252,126.0579
93.4403,126.3200
93.6800,126.5597
93.6800,126.5597
93.6800,126.5597
93.9421,126.7748
94.2239,126.9632
94.2240,126.9632
94.2240,126.9632
94.5229,127.1230
94.5229,127.1230
94.5229,127.1230
94.8362,127.2527
95.1606,127.3511
95.4931,127.4173
95.8305,127.4505
95.8305,127.4505
96.1695,127.4505
96.1695,127.4505
96.5069,127.4173
96.8394,127.3511
97.1638,127.2527
97.4771,127.1230
97.7761,126.9632
98.0579,126.7748
98.3200,126.5597
98.5597,126.3200
98.7748,126.0579
98.9632,125.7761
99.1230,125.4771
99.2527,125.1638
99.3511,124.8394
99.4173,124.5069
99.4505,124.1695
99.4505,123.8305
104.5495,123.8305
104.5495,124.1695
104.5827,124.5069
104.6489,124.8394
104.7473,125.1638
104.8770,125.4771
104.8770,125.4771
105.0368,125.7760
105.0368,125.7761
105.2252,126.0579
105.2252,126.0579
105.4403,126.3200
105.6800,126.5597
105.6800,126.5597
105.6800,126.5597
105.9421,126.7748
106.2239,126.9632
106.2240,126.9632
106.2240,126.9632
106.5229,127.1230
106.5229,127.1230
106.5229,127.1230
106.8362,127.2527
107.1606,127.3511
107.4931,127.4173
107.8305,127.4505
107.8305,127.4505
108.1695,127.4505
108.1695,127.4505
108.5069,127.4173
108.8394,127.3511
109.1638,127.2527
109.4771,127.1230
109.7761,126.9632
110.0579,126.7748
110.3200,126.5597
110.5597,126.3200
110.7748,126.0579
110.9632,125.7761
111.1230,125.4771
111.2527,125.1638
111.3511,124.8394
111.4173,124.5069
111.4505,124.1695
111.4505,123.8305
116.5495,123.8305
116.5495,124.1695
116.5827,124.5069
116.6489,124.8394
116.7473,125.1638
116.8770,125.4771
116.8770,125.4771
117.0368,125.7760
117.0368,125.7761
117.2252,126.0579
117.2252,126.0579
117.4403,126.3200
117.6800,126.5597
117.6800,126.5597
117.6800,126.5597
117.9421,126.7748
118.2239,126.9632
118.2240,126.9632
118.2240,126.9632
118.5229,127.1230
118.5229,127.1230
118.5229,127.1230
118.8362,127.2527
119.1606,127.3511
119.4931,127.4173
119.8305,127.4505
119.8305,127.4505
120.1695,127.4505
120.1695,127.4505
120.5069,127.4173
120.8394,127.3511
121.1638,127.2527
121.4771,127.1230
121.7761,126.9632
122.0579,126.7748
122.3200,126.5597
122.5597,126.3200
122.7748,126.0579
122.9632,125.7761
123.1230,125.4771
123.2527,125.1638
123.3511,124.8394
123.4173,124.5069
123.4505,124.1695
123.4505,123.8305
128.5495,123.8305
128.5495,124.1695
128.5827,124.5069
128.6489,124.8394
128.7473,125.1638
128.8770,125.4771
128.8770,125.4771
129.0368,125.7760
129.0368,125.7761
129.2252,126.0579
129.2252,126.0579
129.4403,126.3200
129.6800,126.5597
129.6800,126.5597
129.6800,126.5597
129.9421,126.7748
130.2239,126.9632
130.2240,126.9632
130.2240,126.9632
130.5229,127.1230
130.5229,127.1230
130.5229,127.1230
130.8362,127.2527
131.1606,127.3511
131.4931,127.4173
131.8305,127.4505
131.8305,127.4505
132.1695,127.4505
132.1695,127.4505
132.5069,127.4173
132.8394,127.3511
133.1638,127.2527
133.4771,127.1230
133.7761,126.9632
134.0579,126.7748
134.3200,126.5597
134.5597,126.3200
134.7748,126.0579
134.9632,125.7761
135.1230,125.4771
135.2527,125.1638
135.3511,124.8394
135.4173,124.5069
135.4505,124.1695
135.4505,123.8305
140.5495,123.8305
140.5495,124.1695
140.5827,124.5069
140.6489,124.8394
140.7473,125.1638
140.8770,125.4771
140.8770,125.4771
141.0368,125.7760
141.0368,125.7761
141.2252,126.0579
141.2252,126.0579
141.4403,126.3200
141.6800,126.5597
141.6800,126.5597
141.6800,126.5597
141.9421,126.7748
142.2239,126.9632
142.2240,126.9632
142.2240,126.9632
142.5229,127.1230
142.5229,127.1230
142.5229,127.1230
142.8362,127.2527
143.1606,127.3511
143.4931,127.4173
143.8305,127.4505
143.8305,127.4505
144.1695,127.4505
144.1695,127.4505
144.5069,127.4173
144.8394,127.3511
145.1638,127.2527
145.4771,127.1230
145.7761,126.9632
146.0579,126.7748
146.3200,126.5597
146.5597,126.3200
146.7748,126.0579
146.9632,125.7761
147.1230,125.4771
147.2527,125.1638
147.3511,124.8394
147.4173,124.5069
147.4505,124.1695
147.4505,123.8305
147.4173,123.4931
147.3945,123.3787
155.1495,123.3787
155.1495,123.6213
155.1812,123.8618
155.2439,124.0961
155.2744,124.1695
155.3368,124.3202
155.4581,124.5303
155.4581,124.5303
155.4581,124.5303
155.6057,124.7227
155.6057,124.7227
155.7773,124.8943
155.7773,124.8943
155.9697,125.0419
156.1798,125.1632
156.4039,125.2561
156.6382,125.3188
156.8186,125.3426
156.8787,125.3505
156.8787,125.3505
157.1213,125.3505
157.1694,125.3442
157.3618,125.3188
157.5961,125.2561
157.8202,125.1632
158.0303,125.0419
158.2227,124.8943
158.3943,124.7227
158.5419,124.5303
158.6632,124.3202
158.7561,124.0961
158.8188,123.8618
158.8505,123.6213
158.8505,123.3787
158.8188,123.1382
158.7561,122.9039
158.6632,122.6798
158.5419,122.4697
158.3943,122.2773
158.3943,122.2773
158.2227,122.1057
158.2227,122.1057
158.0303,121.9581
158.0303,121.9581
158.0303,121.9581
157.8202,121.8368
157.8202,121.8368
157.5961,121.7439
157.3618,121.6812
157.1213,121.6495
157.1213,121.6495
156.8787,121.6495
156.8787,121.6495
156.6382,121.6812
156.4039,121.7439
156.1798,121.8368
156.1798,121.8368
155.9697,121.9581
155.7773,122.1057
155.7773,122.1057
155.6057,122.2773
155.6057,122.2773
155.4581,122.4697
155.3368,122.6798
155.3368,122.6798
155.2439,122.9039
155.1812,123.1382
155.1495,123.3787
147.3945,123.3787
147.3511,123.1606
147.2527,122.8362
147.1230,122.5229
147.0945,122.4697
146.9632,122.2240
146.9632,122.2240
146.9632,122.2239
146.7748,121.9421
146.5597,121.6800
146.5597,121.6800
146.5597,121.6800
146.3200,121.4403
146.0579,121.2252
146.0579,121.2252
146.0579,121.2252
145.7761,121.0368
145.7760,121.0368
145.7760,121.0368
145.4771,120.8770
145.4771,120.8770
145.1638,120.7473
144.9734,120.6895
144.8394,120.6489
144.8394,120.6489
144.8394,120.6489
144.5069,120.5827
144.2692,120.5593
144.1695,120.5495
143.8305,120.5495
143.7397,120.5584
143.4931,120.5827
143.1606,120.6489
142.8362,120.7473
142.5229,120.8770
142.5229,120.8770
142.2240,121.0368
142.2239,121.0368
141.9421,121.2252
141.9421,121.2252
141.6800,121.4403
141.4403,121.6800
141.2252,121.9421
141.2252,121.9421
141.0368,122.2239
141.0368,122.2240
140.8770,122.5229
140.8770,122.5229
140.7473,122.8362
140.6489,123.1606
140.5827,123.4931
140.5495,123.8305
135.4505,123.8305
135.4505,123.8305
135.4173,123.4931
135.3511,123.1606
135.2527,122.8362
135.1230,122.5229
135.0945,122.4697
134.9632,122.2240
134.9632,122.2240
134.9632,122.2239
134.7748,121.9421
134.5597,121.6800
134.5597,121.6800
134.5597,121.6800
134.3200,121.4403
134.0579,121.2252
134.0579,121.2252
134.0579,121.2252
133.7761,121.0368
133.7760,121.0368
133.7760,121.0368
133.4771,120.8770
133.4771,120.8770
133.1638,120.7473
132.9734,120.6895
132.8394,120.6489
132.8394,120.6489
132.8394,120.6489
132.5069,120.5827
132.2692,120.5593
132.1695,120.5495
131.8305,120.5495
131.7397,120.5584
131.4931,120.5827
131.1606,120.6489
130.8362,120.7473
130.5229,120.8770
130.5229,120.8770
130.2240,121.0368
130.2239,121.0368
129.9421,121.2252
129.9421,121.2252
129.6800,121.4403
129.4403,121.6800
129.2252,121.9421
129.2252,121.9421
129.0368,122.2239
129.0368,122.2240
128.8770,122.5229
128.8770,122.5229
128.7473,122.8362
128.6489,123.1606
128.5827,123.4931
128.5495,123.8305
123.4505,123.8305
123.4505,123.8305
123.4173,123.4931
123.3511,123.1606
123.2527,122.8362
123.1230,122.5229
123.0945,122.4697
122.9632,122.2240
122.9632,122.2240
122.9632,122.2239
122.7748,121.9421
122.5597,121.6800
122.5597,121.6800
122.5597,121.6800
122.3200,121.4403
122.0579,121.2252
122.0579,121.2252
122.0579,121.2252
121.7761,121.0368
121.7760,121.0368
121.7760,121.0368
121.4771,120.8770
121.4771,120.8770
121.1638,120.7473
120.9734,120.6895
120.8394,120.6489
120.8394,120.6489
120.8394,120.6489
120.5069,120.5827
120.2692,120.5593
120.1695,120.5495
119.8305,120.5495
119.7397,120.5584
119.4931,120.5827
119.1606,120.6489
118.8362,120.7473
118.5229,120.8770
118.5229,120.8770
118.2240,121.0368
118.2239,121.0368
117.9421,121.2252
117.9421,121.2252
117.6800,121.4403
117.4403,121.6800
117.2252,121.9421
117.2252,121.9421
117.0368,122.2239
117.0368,122.2240
116.8770,122.5229
116.8770,122.5229
116.7473,122.8362
116.6489,123.1606
116.5827,123.4931
116.5495,123.8305
111.4505,123.8305
111.4505,123.8305
111.4173,123.4931
111.3511,123.1606
111.2527,122.8362
111.1230,122.5229
111.0945,122.4697
110.9632,122.2240
110.9632,122.2240
110.9632,122.2239
110.7748,121.9421
110.5597,121.6800
110.5597,121.6800
110.5597,121.6800
110.3200,121.4403
110.0579,121.2252
110.0579,121.2252
110.0579,121.2252
109.7761,121.0368
109.7760,121.0368
109.7760,121.0368
109.4771,120.8770
109.4771,120.8770
109.1638,120.7473
108.9734,120.6895
108.8394,120.6489
108.8394,120.6489
108.8394,120.6489
108.5069,120.5827
108.2692,120.5593
108.1695,120.5495
107.8305,120.5495
107.7397,120.5584
107.4931,120.5827
107.1606,120.6489
106.8362,120.7473
106.5229,120.8770
106.5229,120.8770
106.2240,121.0368
106.2239,121.0368
105.9421,121.2252
105.9421,121.2252
105.6800,121.4403
105.4403,121.6800
105.2252,121.9421
105.2252,121.9421
105.0368,122.2239
105.0368,122.2240
104.8770,122.5229
104.8770,122.5229
104.7473,122.8362
104.6489,123.1606
104.5827,123.4931
104.5495,123.8305
99.4505,123.8305
99.4505,123.8305
99.4173,123.4931
99.3511,123.1606
99.2527,122.8362
99.1230,122.5229
99.0945,122.4697
98.9632,122.2240
98.9632,122.2240
98.9632,122.2239
98.7748,121.9421
98.5597,121.6800
98.5597,121.6800
98.5597,121.6800
98.3200,121.4403
98.0579,121.2252
98.0579,121.2252
98.0579,121.2252
97.7761,121.0368
97.7760,121.0368
97.7760,121.0368
97.4771,120.8770
97.4771,120.8770
97.1638,120.7473
96.9734,120.6895
96.8394,120.6489
96.8394,120.6489
96.8394,120.6489
96.5069,120.5827
96.2692,120.5593
96.1695,120.5495
95.8305,120.5495
95.7397,120.5584
95.4931,120.5827
95.1606,120.6489
94.8362,120.7473
94.5229,120.8770
94.5229,120.8770
94.2240,121.0368
94.2239,121.0368
93.9421,121.2252
93.9421,121.2252
93.6800,121.4403
93.4403,121.6800
93.2252,121.9421
93.2252,121.9421
93.0368,122.2239
93.0368,122.2240
92.8770,122.5229
92.8770,122.5229
92.7473,122.8362
92.6489,123.1606
92.5827,123.4931
92.5495,123.8305
87.4505,123.8305
87.4505,123.8305
87.4173,123.4931
87.3511,123.1606
87.2527,122.8362
87.1230,122.5229
87.0945,122.4697
86.9632,122.2240
86.9632,122.2240
86.9632,122.2239
86.7748,121.9421
86.5597,121.6800
86.5597,121.6800
86.5597,121.6800
86.3200,121.4403
86.0579,121.2252
86.0579,121.2252
86.0579,121.2252
85.7761,121.0368
85.7760,121.0368
85.7760,121.0368
85.4771,120.8770
85.4771,120.8770
85.1638,120.7473
84.9734,120.6895
84.8394,120.6489
84.8394,120.6489
84.8394,120.6489
84.5069,120.5827
84.2692,120.5593
84.1695,120.5495
83.8305,120.5495
83.7397,120.5584
83.4931,120.5827
83.1606,120.6489
82.8362,120.7473
82.5229,120.8770
82.5229,120.8770
82.2240,121.0368
82.2239,121.0368
81.9421,121.2252
81.9421,121.2252
81.6800,121.4403
81.4403,121.6800
81.2252,121.9421
81.2252,121.9421
81.0368,122.2239
81.0368,122.2240
80.8770,122.5229
80.8770,122.5229
80.7473,122.8362
80.6489,123.1606
80.5827,123.4931
80.5495,123.8305
69.0505,123.8305
69.0505,109.3787
80.6495,109.3787
80.6495,109.6213
80.6812,109.8618
80.7439,110.0961
80.8368,110.3202
80.8368,110.3202
80.9581,110.5303
80.9581,110.5303
80.9581,110.5303
81.1057,110.7227
81.1057,110.7227
81.2773,110.8943
81.2773,110.8943
81.4697,111.0419
81.6798,111.1632
81.9039,111.2561
82.1382,111.3188
82.3186,111.3426
82.3787,111.3505
82.3787,111.3505
82.6213,111.3505
82.6694,111.3442
82.8618,111.3188
83.0961,111.2561
83.3202,111.1632
83.5303,111.0419
83.7227,110.8943
83.8943,110.7227
84.0419,110.5303
84.1632,110.3202
84.2561,110.0961
84.3188,109.8618
84.3505,109.6213
84.3505,109.3787
84.3505,109.3787
90.6495,109.3787
90.6495,109.6213
90.6812,109.8618
90.7439,110.0961
90.8368,110.3202
90.8368,110.3202
90.9581,110.5303
90.9581,110.5303
90.9581,110.5303
91.1057,110.7227
91.1057,110.7227
91.2773,110.8943
91.2773,110.8943
91.4697,111.0419
91.6798,111.1632
91.9039,111.2561
92.1382,111.3188
92.3186,111.3426
92.3787,111.3505
92.3787,111.3505
92.6213,111.3505
92.6694,111.3442
92.8618,111.3188
93.0961,111.2561
93.3202,111.1632
93.5303,111.0419
93.7227,110.8943
93.8943,110.7227
94.0419,110.5303
94.1632,110.3202
94.2561,110.0961
94.3188,109.8618
94.3505,109.6213
94.3505,109.3787
94.3505,109.3787
100.6495,109.3787
100.6495,109.6213
100.6812,109.8618
100.7439,110.0961
100.8368,110.3202
100.8368,110.3202
100.9581,110.5303
100.9581,110.5303
100.9581,110.5303
101.1057,110.7227
101.1057,110.7227
101.2773,110.8943
101.2773,110.8943
101.4697,111.0419
101.6798,111.1632
101.9039,111.2561
102.1382,111.3188
102.3186,111.3426
102.3787,111.3505
102.3787,111.3505
102.6213,111.3505
102.6694,111.3442
102.8618,111.3188
103.0961,111.2561
103.3202,111.1632
103.5303,111.0419
103.7227,110.8943
103.8943,110.7227
104.0419,110.5303
104.1632,110.3202
104.2561,110.0961
104.3188,109.8618
104.3505,109.6213
104.3505,109.3787
104.3505,109.3787
110.6495,109.3787
110.6495,109.6213
110.6812,109.8618
110.7439,110.0961
110.8368,110.3202
110.8368,110.3202
110.9581,110.5303
110.9581,110.5303
110.9581,110.5303
111.1057,110.7227
111.1057,110.7227
111.2773,110.8943
111.2773,110.8943
111.4697,111.0419
111.6798,111.1632
111.9039,111.2561
112.1382,111.3188
112.3186,111.3426
112.3787,111.3505
112.3787,111.3505
112.6213,111.3505
112.6694,111.3442
112.8618,111.3188
113.0961,111.2561
113.3202,111.1632
113.5303,111.0419
113.7227,110.8943
113.8943,110.7227
114.0419,110.5303
114.1632,110.3202
114.2561,110.0961
114.3188,109.8618
114.3505,109.6213
114.3505,109.3787
114.3505,109.3787
120.6495,109.3787
120.6495,109.6213
120.6812,109.8618
120.7439,110.0961
120.8368,110.3202
120.8368,110.3202
120.9581,110.5303
120.9581,110.5303
120.9581,110.5303
121.1057,110.7227
121.1057,110.7227
121.2773,110.8943
121.2773,110.8943
121.4697,111.0419
121.6798,111.1632
121.9039,111.2561
122.1382,111.3188
122.3186,111.3426
122.3787,111.3505
122.3787,111.3505
122.6213,111.3505
122.6694,111.3442
122.8618,111.3188
123.0961,111.2561
123.3202,111.1632
123.5303,111.0419
123.7227,110.8943
123.8943,110.7227
124.0419,110.5303
124.1632,110.3202
124.2561,110.0961
124.3188,109.8618
124.3505,109.6213
124.3505,109.3787
124.3505,109.3787
145.6495,109.3787
145.6495,109.6213
145.6812,109.8618
145.7439,110.0961
145.8368,110.3202
145.8368,110.3202
145.9581,110.5303
145.9581,110.5303
145.9581,110.5303
146.1057,110.7227
146.1057,110.7227
146.2773,110.8943
146.2773,110.8943
146.4697,111.0419
146.6798,111.1632
146.9039,111.2561
147.1382,111.3188
147.3186,111.3426
147.3787,111.3505
147.3787,111.3505
147.6213,111.3505
147.6694,111.3442
147.8618,111.3188
148.0961,111.2561
148.3202,111.1632
148.5303,111.0419
148.7227,110.8943
148.8943,110.7227
149.0419,110.5303
149.1632,110.3202
149.2561,110.0961
149.3188,109.8618
149.3505,109.6213
149.3505,109.3787
149.3505,109.3787
155.6495,109.3787
155.6495,109.6213
155.6812,109.8618
155.7439,110.0961
155.8368,110.3202
155.8368,110.3202
155.9581,110.5303
155.9581,110.5303
155.9581,110.5303
156.1057,110.7227
156.1057,110.7227
156.2773,110.8943
156.2773,110.8943
156.4697,111.0419
156.6798,111.1632
156.9039,111.2561
157.1382,111.3188
157.3186,111.3426
157.3787,111.3505
157.3787,111.3505
157.6213,111.3505
157.6694,111.3442
157.8618,111.3188
158.0961,111.2561
158.3202,111.1632
158.5303,111.0419
158.7227,110.8943
158.8943,110.7227
159.0419,110.5303
159.1632,110.3202
159.2561,110.0961
159.3188,109.8618
159.3505,109.6213
159.3505,109.3787
159.3505,109.3787
165.6495,109.3787
165.6495,109.6213
165.6812,109.8618
165.7439,110.0961
165.8368,110.3202
165.8368,110.3202
165.9581,110.5303
165.9581,110.5303
165.9581,110.5303
166.1057,110.7227
166.1057,110.7227
166.2773,110.8943
166.2773,110.8943
166.4697,111.0419
166.6798,111.1632
166.9039,111.2561
167.1382,111.3188
167.3186,111.3426
167.3787,111.3505
167.3787,111.3505
167.6213,111.3505
167.6694,111.3442
167.8618,111.3188
168.0961,111.2561
168.3202,111.1632
168.5303,111.0419
168.7227,110.8943
168.8943,110.7227
169.0419,110.5303
169.1632,110.3202
169.2561,110.0961
169.3188,109.8618
169.3505,109.6213
169.3505,109.3787
169.3505,109.3787
175.6495,109.3787
175.6495,109.6213
175.6812,109.8618
175.7439,110.0961
175.8368,110.3202
175.8368,110.3202
175.9581,110.5303
175.9581,110.5303
175.9581,110.5303
176.1057,110.7227
176.1057,110.7227
176.2773,110.8943
176.2773,110.8943
176.4697,111.0419
176.6798,111.1632
176.9039,111.2561
177.1382,111.3188
177.3186,111.3426
177.3787,111.3505
177.3787,111.3505
177.6213,111.3505
177.6694,111.3442
177.8618,111.3188
178.0961,111.2561
178.3202,111.1632
178.5303,111.0419
178.7227,110.8943
178.8943,110.7227
179.0419,110.5303
179.1632,110.3202
179.2561,110.0961
179.3188,109.8618
179.3505,109.6213
179.3505,109.3787
179.3188,109.1382
179.2561,108.9039
179.1632,108.6798
179.0419,108.4697
178.8943,108.2773
178.8943,108.2773
178.7227,108.1057
178.7227,108.1057
178.5303,107.9581
178.5303,107.9581
178.5303,107.9581
178.3202,107.8368
178.3202,107.8368
178.0961,107.7439
177.8618,107.6812
177.6213,107.6495
177.6213,107.6495
177.3787,107.6495
177.3787,107.6495
177.1382,107.6812
176.9039,107.7439
176.6798,107.8368
176.6798,107.8368
176.4697,107.9581
176.2773,108.1057
176.2773,108.1057
176.1057,108.2773
176.1057,108.2773
175.9581,108.4697
175.8368,108.6798
175.8368,108.6798
175.7439,108.9039
175.6812,109.1382
175.6495,109.3787
169.3505,109.3787
169.3188,109.1382
169.2561,108.9039
169.1632,108.6798
169.0419,108.4697
168.8943,108.2773
168.8943,108.2773
168.7227,108.1057
168.7227,108.1057
168.5303,107.9581
168.5303,107.9581
168.5303,107.9581
168.3202,107.8368
168.3202,107.8368
168.0961,107.7439
167.8618,107.6812
167.6213,107.6495
167.6213,107.6495
167.3787,107.6495
167.3787,107.6495
167.1382,107.6812
166.9039,107.7439
166.6798,107.8368
166.6798,107.8368
166.4697,107.9581
166.2773,108.1057
166.2773,108.1057
166.1057,108.2773
166.1057,108.2773
165.9581,108.4697
165.8368,108.6798
165.8368,108.6798
165.7439,108.9039
165.6812,109.1382
165.6495,109.3787
159.3505,109.3787
159.3188,109.1382
159.2561,108.9039
159.1632,108.6798
159.0419,108.4697
158.8943,108.2773
158.8943,108.2773
158.7227,108.1057
158.7227,108.1057
158.5303,107.9581
158.5303,107.9581
158.5303,107.9581
158.3202,107.8368
158.3202,107.8368
158.0961,107.7439
157.8618,107.6812
157.6213,107.6495
157.6213,107.6495
157.3787,107.6495
157.3787,107.6495
157.1382,107.6812
156.9039,107.7439
156.6798,107.8368
156.6798,107.8368
156.4697,107.9581
156.2773,108.1057
156.2773,108.1057
156.1057,108.2773
156.1057,108.2773
155.9581,108.4697
155.8368,108.6798
155.8368,108.6798
155.7439,108.9039
155.6812,109.1382
155.6495,109.3787
149.3505,109.3787
149.3188,109.1382
149.2561,108.9039
149.1632,108.6798
149.0419,108.4697
148.8943,108.2773
148.8943,108.2773
148.7227,108.1057
148.7227,108.1057
148.5303,107.9581
148.5303,107.9581
148.5303,107.9581
148.3202,107.8368
148.3202,107.8368
148.0961,107.7439
147.8618,107.6812
147.6213,107.6495
147.6213,107.6495
147.3787,107.6495
147.3787,107.6495
147.1382,107.6812
146.9039,107.7439
146.6798,107.8368
146.6798,107.8368
146.4697,107.9581
146.2773,108.1057
146.2773,108.1057
146.1057,108.2773
146.1057,108.2773
145.9581,108.4697
145.8368,108.6798
145.8368,108.6798
145.7439,108.9039
145.6812,109.1382
145.6495,109.3787
124.3505,109.3787
124.3188,109.1382
124.2561,108.9039
124.1632,108.6798
124.0419,108.4697
123.8943,108.2773
123.8943,108.2773
123.7227,108.1057
123.7227,108.1057
123.5303,107.9581
123.5303,107.9581
123.5303,107.9581
123.3202,107.8368
123.3202,107.8368
123.0961,107.7439
122.8618,107.6812
122.6213,107.6495
122.6213,107.6495
122.3787,107.6495
122.3787,107.6495
122.1382,107.6812
121.9039,107.7439
121.6798,107.8368
121.6798,107.8368
121.4697,107.9581
121.2773,108.1057
121.2773,108.1057
121.1057,108.2773
121.1057,108.2773
120.9581,108.4697
120.8368,108.6798
120.8368,108.6798
120.7439,108.9039
120.6812,109.1382
120.6495,109.3787
114.3505,109.3787
114.3188,109.1382
114.2561,108.9039
114.1632,108.6798
114.0419,108.4697
113.8943,108.2773
113.8943,108.2773
113.7227,108.1057
113.7227,108.1057
113.5303,107.9581
113.5303,107.9581
113.5303,107.9581
113.3202,107.8368
113.3202,107.8368
113.0961,107.7439
112.8618,107.6812
112.6213,107.6495
112.6213,107.6495
112.3787,107.6495
112.3787,107.6495
112.1382,107.6812
111.9039,107.7439
111.6798,107.8368
111.6798,107.8368
111.4697,107.9581
111.2773,108.1057
111.2773,108.1057
111.1057,108.2773
111.1057,108.2773
110.9581,108.4697
110.8368,108.6798
110.8368,108.6798
110.7439,108.9039
110.6812,109.1382
110.6495,109.3787
104.3505,109.3787
104.3188,109.1382
104.2561,108.9039
104.1632,108.6798
104.0419,108.4697
103.8943,108.2773
103.8943,108.2773
103.7227,108.1057
103.7227,108.1057
103.5303,107.9581
103.5303,107.9581
103.5303,107.9581
103.3202,107.8368
103.3202,107.8368
103.0961,107.7439
102.8618,107.6812
102.6213,107.6495
102.6213,107.6495
102.3787,107.6495
102.3787,107.6495
102.1382,107.6812
101.9039,107.7439
101.6798,107.8368
101.6798,107.8368
101.4697,107.9581
101.2773,108.1057
101.2773,108.1057
101.1057,108.2773
101.1057,108.2773
100.9581,108.4697
100.8368,108.6798
100.8368,108.6798
100.7439,108.9039
100.6812,109.1382
100.6495,109.3787
94.3505,109.3787
94.3188,109.1382
94.2561,108.9039
94.1632,108.6798
94.0419,108.4697
93.8943,108.2773
93.8943,108.2773
93.7227,108.1057
93.7227,108.1057
93.5303,107.9581
93.5303,107.9581
93.5303,107.9581
93.3202,107.8368
93.3202,107.8368
93.0961,107.7439
92.8618,107.6812
92.6213,107.6495
92.6213,107.6495
92.3787,107.6495
92.3787,107.6495
92.1382,107.6812
91.9039,107.7439
91.6798,107.8368
91.6798,107.8368
91.4697,107.9581
91.2773,108.1057
91.2773,108.1057
91.1057,108.2773
91.1057,108.2773
90.9581,108.4697
90.8368,108.6798
90.8368,108.6798
90.7439,108.9039
90.6812,109.1382
90.6495,109.3787
84.3505,109.3787
84.3188,109.1382
84.2561,108.9039
84.1632,108.6798
84.0419,108.4697
83.8943,108.2773
83.8943,108.2773
83.7227,108.1057
83.7227,108.1057
83.5303,107.9581
83.5303,107.9581
83.5303,107.9581
83.3202,107.8368
83.3202,107.8368
83.0961,107.7439
82.8618,107.6812
82.6213,107.6495
82.6213,107.6495
82.3787,107.6495
82.3787,107.6495
82.1382,107.6812
81.9039,107.7439
81.6798,107.8368
81.6798,107.8368
81.4697,107.9581
81.2773,108.1057
81.2773,108.1057
81.1057,108.2773
81.1057,108.2773
80.9581,108.4697
80.8368,108.6798
80.8368,108.6798
80.7439,108.9039
80.6812,109.1382
80.6495,109.3787
69.0505,109.3787
69.0505,97.3787
80.6495,97.3787
80.6495,97.6213
80.6812,97.8618
80.7439,98.0961
80.8368,98.3202
80.8368,98.3202
80.9581,98.5303
80.9581,98.5303
80.9581,98.5303
81.1057,98.7227
81.1057,98.7227
81.2773,98.8943
81.2773,98.8943
81.4697,99.0419
81.6798,99.1632
81.9039,99.2561
82.1382,99.3188
82.3186,99.3426
82.3787,99.3505
82.3787,99.3505
82.6213,99.3505
82.6694,99.3442
82.8618,99.3188
83.0961,99.2561
83.3202,99.1632
83.5303,99.0419
83.7227,98.8943
83.8943,98.7227
84.0419,98.5303
84.1632,98.3202
84.2561,98.0961
84.3188,97.8618
84.3505,97.6213
84.3505,97.3787
84.3505,97.3787
90.6495,97.3787
90.6495,97.6213
90.6812,97.8618
90.7439,98.0961
90.8368,98.3202
90.8368,98.3202
90.9581,98.5303
90.9581,98.5303
90.9581,98.5303
91.1057,98.7227
91.1057,98.7227
91.2773,98.8943
91.2773,98.8943
91.4697,99.0419
91.6798,99.1632
91.9039,99.2561
92.1382,99.3188
92.3186,99.3426
92.3787,99.3505
92.3787,99.3505
92.6213,99.3505
92.6694,99.3442
92.8618,99.3188
93.0961,99.2561
93.3202,99.1632
93.5303,99.0419
93.7227,98.8943
93.8943,98.7227
94.0419,98.5303
94.1632,98.3202
94.2561,98.0961
94.3188,97.8618
94.3505,97.6213
94.3505,97.3787
94.3505,97.3787
100.6495,97.3787
100.6495,97.6213
100.6812,97.8618
100.7439,98.0961
100.8368,98.3202
100.8368,98.3202
100.9581,98.5303
100.9581,98.5303
100.9581,98.5303
101.1057,98.7227
101.1057,98.7227
101.2773,98.8943
101.2773,98.8943
101.4697,99.0419
101.6798,99.1632
101.9039,99.2561
102.1382,99.3188
102.3186,99.3426
102.3787,99.3505
102.3787,99.3505
102.6213,99.3505
102.6694,99.3442
102.8618,99.3188
103.0961,99.2561
103.3202,99.1632
103.5303,99.0419
103.7227,98.8943
103.8943,98.7227
104.0419,98.5303
104.1632,98.3202
104.2561,98.0961
104.3188,97.8618
104.3505,97.6213
104.3505,97.3787
104.3505,97.3787
110.6495,97.3787
110.6495,97.6213
110.6812,97.8618
110.7439,98.0961
110.8368,98.3202
110.8368,98.3202
110.9581,98.5303
110.9581,98.5303
110.9581,98.5303
111.1057,98.7227
111.1057,98.7227
111.2773,98.8943
111.2773,98.8943
111.4697,99.0419
111.6798,99.1632
111.9039,99.2561
112.1382,99.3188
112.3186,99.3426
112.3787,99.3505
112.3787,99.3505
112.6213,99.3505
112.6694,99.3442
112.8618,99.3188
113.0961,99.2561
113.3202,99.1632
113.5303,99.0419
113.7227,98.8943
113.8943,98.7227
114.0419,98.5303
114.1632,98.3202
114.2561,98.0961
114.3188,97.8618
114.3505,97.6213
114.3505,97.3787
114.3505,97.3787
120.6495,97.3787
120.6495,97.6213
120.6812,97.8618
120.7439,98.0961
120.8368,98.3202
120.8368,98.3202
120.9581,98.5303
120.9581,98.5303
120.9581,98.5303
121.1057,98.7227
121.1057,98.7227
121.2773,98.8943
121.2773,98.8943
121.4697,99.0419
121.6798,99.1632
121.9039,99.2561
122.1382,99.3188
122.3186,99.3426
122.3787,99.3505
122.3787,99.3505
122.6213,99.3505
122.6694,99.3442
122.8618,99.3188
123.0961,99.2561
123.3202,99.1632
123.5303,99.0419
123.7227,98.8943
123.8943,98.7227
124.0419,98.5303
124.1632,98.3202
124.2561,98.0961
124.3188,97.8618
124.3505,97.6213
124.3505,97.3787
124.3188,97.1382
124.2561,96.9039
124.1632,96.6798
124.0419,96.4697
123.8943,96.2773
123.8943,96.2773
123.7227,96.1057
123.7227,96.1057
123.5303,95.9581
123.5303,95.9581
123.5303,95.9581
123.3202,95.8368
123.3202,95.8368
123.0961,95.7439
122.8618,95.6812
122.6213,95.6495
122.6213,95.6495
122.3787,95.6495
122.3787,95.6495
122.1382,95.6812
121.9039,95.7439
121.6798,95.8368
121.6798,95.8368
121.4697,95.9581
121.2773,96.1057
121.2773,96.1057
121.1057,96.2773
121.1057,96.2773
120.9581,96.4697
120.8368,96.6798
120.8368,96.6798
120.7439,96.9039
120.6812,97.1382
120.6495,97.3787
114.3505,97.3787
114.3188,97.1382
114.2561,96.9039
114.1632,96.6798
114.0419,96.4697
113.8943,96.2773
113.8943,96.2773
113.7227,96.1057
113.7227,96.1057
113.5303,95.9581
113.5303,95.9581
113.5303,95.9581
113.3202,95.8368
113.3202,95.8368
113.0961,95.7439
112.8618,95.6812
112.6213,95.6495
112.6213,95.6495
112.3787,95.6495
112.3787,95.6495
112.1382,95.6812
111.9039,95.7439
111.6798,95.8368
111.6798,95.8368
111.4697,95.9581
111.2773,96.1057
111.2773,96.1057
111.1057,96.2773
111.1057,96.2773
110.9581,96.4697
110.8368,96.6798
110.8368,96.6798
110.7439,96.9039
110.6812,97.1382
110.6495,97.3787
104.3505,97.3787
104.3188,97.1382
104.2561,96.9039
104.1632,96.6798
104.0419,96.4697
103.8943,96.2773
103.8943,96.2773
103.7227,96.1057
103.7227,96.1057
103.5303,95.9581
103.5303,95.9581
103.5303,95.9581
103.3202,95.8368
103.3202,95.8368
103.0961,95.7439
102.8618,95.6812
102.6213,95.6495
102.6213,95.6495
102.3787,95.6495
102.3787,95.6495
102.1382,95.6812
101.9039,95.7439
101.6798,95.8368
101.6798,95.8368
101.4697,95.9581
101.2773,96.1057
101.2773,96.1057
101.1057,96.2773
101.1057,96.2773
100.9581,96.4697
100.8368,96.6798
100.8368,96.6798
100.7439,96.9039
100.6812,97.1382
100.6495,97.3787
94.3505,97.3787
94.3188,97.1382
94.2561,96.9039
94.1632,96.6798
94.0419,96.4697
93.8943,96.2773
93.8943,96.2773
93.7227,96.1057
93.7227,96.1057
93.5303,95.9581
93.5303,95.9581
93.5303,95.9581
93.3202,95.8368
93.3202,95.8368
93.0961,95.7439
92.8618,95.6812
92.6213,95.6495
92.6213,95.6495
92.3787,95.6495
92.3787,95.6495
92.1382,95.6812
91.9039,95.7439
91.6798,95.8368
91.6798,95.8368
91.4697,95.9581
91.2773,96.1057
91.2773,96.1057
91.1057,96.2773
91.1057,96.2773
90.9581,96.4697
90.8368,96.6798
90.8368,96.6798
90.7439,96.9039
90.6812,97.1382
90.6495,97.3787
84.3505,97.3787
84.3188,97.1382
84.2561,96.9039
84.1632,96.6798
84.0419,96.4697
83.8943,96.2773
83.8943,96.2773
83.7227,96.1057
83.7227,96.1057
83.5303,95.9581
83.5303,95.9581
83.5303,95.9581
83.3202,95.8368
83.3202,95.8368
83.0961,95.7439
82.8618,95.6812
82.6213,95.6495
82.6213,95.6495
82.3787,95.6495
82.3787,95.6495
82.1382,95.6812
81.9039,95.7439
81.6798,95.8368
81.6798,95.8368
81.4697,95.9581
81.2773,96.1057
81.2773,96.1057
81.1057,96.2773
81.1057,96.2773
80.9581,96.4697
80.8368,96.6798
80.8368,96.6798
80.7439,96.9039
80.6812,97.1382
80.6495,97.3787
69.0505,97.3787
69.0505,85.3787
80.6495,85.3787
80.6495,85.6213
80.6812,85.8618
80.7439,86.0961
80.8368,86.3202
80.8368,86.3202
80.9581,86.5303
80.9581,86.5303
80.9581,86.5303
81.1057,86.7227
81.1057,86.7227
81.2773,86.8943
81.2773,86.8943
81.4697,87.0419
81.6798,87.1632
81.9039,87.2561
82.1382,87.3188
82.3186,87.3426
82.3787,87.3505
82.3787,87.3505
82.6213,87.3505
82.6694,87.3442
82.8618,87.3188
83.0961,87.2561
83.3202,87.1632
83.5303,87.0419
83.7227,86.8943
83.8943,86.7227
84.0419,86.5303
84.1632,86.3202
84.2561,86.0961
84.3188,85.8618
84.3505,85.6213
84.3505,85.3787
84.3505,85.3787
90.6495,85.3787
90.6495,85.6213
90.6812,85.8618
90.7439,86.0961
90.8368,86.3202
90.8368,86.3202
90.9581,86.5303
90.9581,86.5303
90.9581,86.5303
91.1057,86.7227
91.1057,86.7227
91.2773,86.8943
91.2773,86.8943
91.4697,87.0419
91.6798,87.1632
91.9039,87.2561
92.1382,87.3188
92.3186,87.3426
92.3787,87.3505
92.3787,87.3505
92.6213,87.3505
92.6694,87.3442
92.8618,87.3188
93.0961,87.2561
93.3202,87.1632
93.5303,87.0419
93.7227,86.8943
93.8943,86.7227
94.0419,86.5303
94.1632,86.3202
94.2561,86.0961
94.3188,85.8618
94.3505,85.6213
94.3505,85.3787
94.3505,85.3787
100.6495,85.3787
100.6495,85.6213
100.6812,85.8618
100.7439,86.0961
100.8368,86.3202
100.8368,86.3202
100.9581,86.5303
100.9581,86.5303
100.9581,86.5303
101.1057,86.7227
101.1057,86.7227
101.2773,86.8943
101.2773,86.8943
101.4697,87.0419
101.6798,87.1632
101.9039,87.2561
102.1382,87.3188
102.3186,87.3426
102.3787,87.3505
102.3787,87.3505
102.6213,87.3505
102.6694,87.3442
102.8618,87.3188
103.0961,87.2561
103.3202,87.1632
103.5303,87.0419
103.7227,86.8943
103.8943,86.7227
104.0419,86.5303
104.1632,86.3202
104.2561,86.0961
104.3188,85.8618
104.3505,85.6213
104.3505,85.3787
104.3505,85.3787
110.6495,85.3787
110.6495,85.6213
110.6812,85.8618
110.7439,86.0961
110.8368,86.3202
110.8368,86.3202
110.9581,86.5303
110.9581,86.5303
110.9581,86.5303
111.1057,86.7227
111.1057,86.7227
111.2773,86.8943
111.2773,86.8943
111.4697,87.0419
111.6798,87.1632
111.9039,87.2561
112.1382,87.3188
112.3186,87.3426
112.3787,87.3505
112.3787,87.3505
112.6213,87.3505
112.6694,87.3442
112.8618,87.3188
113.0961,87.2561
113.3202,87.1632
113.5303,87.0419
113.7227,86.8943
113.8943,86.7227
114.0419,86.5303
114.1632,86.3202
114.2561,86.0961
114.3188,85.8618
114.3505,85.6213
114.3505,85.3787
114.3505,85.3787
120.6495,85.3787
120.6495,85.6213
120.6812,85.8618
120.7439,86.0961
120.8368,86.3202
120.8368,86.3202
120.9581,86.5303
120.9581,86.5303
120.9581,86.5303
121.1057,86.7227
121.1057,86.7227
121.2773,86.8943
121.2773,86.8943
121.4697,87.0419
121.6798,87.1632
121.9039,87.2561
122.1382,87.3188
122.3186,87.3426
122.3787,87.3505
122.3787,87.3505
122.6213,87.3505
122.6694,87.3442
122.8618,87.3188
123.0961,87.2561
123.3202,87.1632
123.5303,87.0419
123.7227,86.8943
123.8943,86.7227
124.0419,86.5303
124.1632,86.3202
124.2561,86.0961
124.3188,85.8618
124.3451,85.6625
146.4995,85.6625
146.4995,85.6692
146.4995,99.7749
146.4995,99.7749
146.4995,99.8375
146.5299,100.0099
146.5366,100.0283
146.5366,100.0283
146.5398,100.0372
146.5406,100.0410
146.5458,100.0535
146.5467,100.0560
146.5467,100.0561
146.5898,100.1744
146.6072,100.2046
146.6113,100.2117
146.6158,100.2226
146.6289,100.2422
146.6309,100.2457
146.6773,100.3260
146.6773,100.3260
146.6773,100.3260
146.6773,100.3261
146.6999,100.3529
146.7103,100.3654
146.7147,100.3706
146.7250,100.3860
146.7414,100.4024
146.7449,100.4066
146.7449,100.4066
146.7898,100.4602
146.8434,100.5051
146.8434,100.5051
146.8476,100.5086
146.8640,100.5250
146.8794,100.5353
146.9239,100.5727
147.0078,100.6211
147.0274,100.6342
147.0383,100.6387
147.0756,100.6602
147.0756,100.6602
147.0756,100.6602
147.1965,100.7042
147.2090,100.7094
147.2128,100.7102
147.2217,100.7134
147.2401,100.7201
147.2870,100.7284
147.4125,100.7505
147.4998,100.7505
177.4486,100.7505
177.4486,100.7505
177.5000,100.7505
177.5875,100.7505
177.5875,100.7505
177.7599,100.7201
177.7873,100.7102
177.7910,100.7094
177.8034,100.7043
177.9244,100.6602
177.9617,100.6387
177.9726,100.6342
177.9922,100.6211
178.0761,100.5727
178.1206,100.5353
178.1360,100.5250
178.1524,100.5086
178.2102,100.4602
178.2586,100.4024
178.2750,100.3860
178.2853,100.3706
178.3227,100.3261
178.3711,100.2422
178.3842,100.2226
178.3887,100.2117
178.4102,100.1744
178.4543,100.0534
178.4594,100.0410
178.4602,100.0373
178.4701,100.0099
178.5005,99.8375
178.5005,99.7500
178.5005,99.7495
178.5005,86.6736
181.4995,86.6736
181.4995,86.6822
181.4995,99.5864
181.5246,99.6963
181.5246,99.6964
181.5298,99.7072
181.5349,99.7177
181.5361,99.7222
181.5419,99.7322
181.5439,99.7364
181.5735,99.7980
181.5906,99.8193
181.5964,99.8266
181.6016,99.8357
181.6115,99.8456
181.6159,99.8510
181.6159,99.8510
181.6438,99.8861
181.6439,99.8861
181.6439,99.8861
181.6439,99.8861
181.6790,99.9141
181.6789,99.9141
181.6844,99.9185
181.6943,99.9284
181.7034,99.9337
181.7320,99.9565
181.7978,99.9881
181.8078,99.9939
181.8123,99.9951
181.8336,100.0054
181.9436,100.0305
181.9436,100.0305
184.3564,100.0305
184.3564,100.0305
184.4664,100.0054
184.4877,99.9951
184.4922,99.9939
184.5022,99.9881
184.5680,99.9565
184.5966,99.9337
184.6057,99.9284
184.6156,99.9185
184.6561,99.8861
184.6885,99.8456
184.6984,99.8357
184.7036,99.8266
184.7265,99.7980
184.7581,99.7322
184.7639,99.7222
184.7651,99.7177
184.7754,99.6964
184.8005,99.5864
184.8005,99.5300
184.8005,99.5295
184.8005,86.7298
184.8005,86.6736
184.7754,86.5636
184.7651,86.5423
184.7639,86.5378
184.7581,86.5278
184.7265,86.4620
184.7037,86.4334
184.6984,86.4243
184.6885,86.4144
184.6841,86.4090
184.6841,86.4090
184.6561,86.3739
184.6561,86.3739
184.6561,86.3739
184.6561,86.3738
184.6210,86.3459
184.6210,86.3459
184.6156,86.3415
184.6057,86.3316
184.5966,86.3263
184.5893,86.3206
184.5680,86.3035
184.5680,86.3035
184.5064,86.2739
184.5022,86.2719
184.4922,86.2661
184.4877,86.2649
184.4772,86.2598
184.4664,86.2546
184.4664,86.2546
184.4663,86.2546
184.4663,86.2546
184.3564,86.2295
184.3564,86.2295
184.3002,86.2295
182.0005,86.2295
182.0000,86.2295
181.9436,86.2295
181.9436,86.2295
181.8336,86.2546
181.8228,86.2598
181.8228,86.2598
181.8123,86.2649
181.8078,86.2661
181.7978,86.2719
181.7936,86.2739
181.7936,86.2739
181.7320,86.3035
181.7320,86.3035
181.7107,86.3206
181.7107,86.3206
181.7034,86.3264
181.6943,86.3316
181.6844,86.3415
181.6790,86.3459
181.6790,86.3459
181.6439,86.3739
181.6159,86.4090
181.6115,86.4144
181.6016,86.4243
181.5964,86.4334
181.5906,86.4407
181.5906,86.4407
181.5906,86.4407
181.5735,86.4620
181.5735,86.4620
181.5439,86.5236
181.5396,86.5318
181.5363,86.5375
181.5363,86.5375
181.5361,86.5378
181.5349,86.5423
181.5246,86.5636
181.4995,86.6736
178.5005,86.6736
178.5005,85.8014
178.5005,85.8014
178.5005,85.6625
178.5005,85.6625
178.4967,85.6409
178.4701,85.4901
178.4677,85.4835
178.4627,85.4697
178.4598,85.4618
178.4593,85.4590
178.4555,85.4500
178.4546,85.4474
178.4546,85.4474
178.4546,85.4474
178.4102,85.3256
178.3922,85.2943
178.3922,85.2943
178.3881,85.2872
178.3841,85.2775
178.3723,85.2599
178.3703,85.2564
178.3227,85.1739
178.3227,85.1739
178.2927,85.1382
178.2887,85.1334
178.2887,85.1334
178.2844,85.1282
178.2749,85.1141
178.2598,85.0990
178.2563,85.0949
178.2563,85.0949
178.2102,85.0398
178.2102,85.0398
178.1551,84.9937
178.1551,84.9937
178.1510,84.9902
178.1359,84.9751
178.1217,84.9656
178.1166,84.9613
178.1166,84.9613
178.0761,84.9273
178.0761,84.9273
177.9936,84.8797
177.9901,84.8777
177.9725,84.8659
177.9628,84.8619
177.9557,84.8578
177.9557,84.8578
177.9245,84.8398
177.9244,84.8398
177.9244,84.8398
177.9244,84.8398
177.9244,84.8398
177.8026,84.7954
177.8026,84.7954
177.8000,84.7945
177.7910,84.7907
177.7882,84.7902
177.7803,84.7873
177.7803,84.7873
177.7599,84.7799
177.5875,84.7495
177.5875,84.7495
177.5002,84.7495
147.4998,84.7495
147.4751,84.7495
147.4751,84.7495
147.4125,84.7495
147.2401,84.7799
147.2401,84.7799
147.2401,84.7799
147.2340,84.7821
147.2198,84.7873
147.2118,84.7902
147.2090,84.7907
147.1999,84.7945
147.1974,84.7954
147.1974,84.7954
147.0756,84.8398
147.0755,84.8398
147.0443,84.8578
147.0443,84.8578
147.0373,84.8619
147.0275,84.8659
147.0099,84.8777
147.0063,84.8797
147.0063,84.8797
146.9239,84.9273
146.9239,84.9273
146.8835,84.9613
146.8783,84.9656
146.8641,84.9751
146.8490,84.9902
146.8448,84.9937
146.8448,84.9937
146.7898,85.0398
146.7437,85.0948
146.7437,85.0948
146.7402,85.0990
146.7251,85.1141
146.7156,85.1283
146.7113,85.1335
146.7113,85.1335
146.6773,85.1739
146.6773,85.1739
146.6297,85.2563
146.6297,85.2563
146.6277,85.2599
146.6159,85.2775
146.6119,85.2873
146.6078,85.2943
146.6078,85.2943
146.5898,85.3255
146.5898,85.3256
146.5454,85.4474
146.5435,85.4524
146.5411,85.4582
146.5411,85.4582
146.5407,85.4590
146.5402,85.4618
146.5299,85.4901
146.4995,85.6625
124.3451,85.6625
124.3461,85.6548
124.3479,85.6409
124.3479,85.6409
124.3505,85.6213
124.3505,85.3787
124.3188,85.1382
124.2561,84.9039
124.1632,84.6798
124.0419,84.4697
123.8943,84.2773
123.8943,84.2773
123.7227,84.1057
123.7227,84.1057
123.5303,83.9581
123.5303,83.9581
123.5303,83.9581
123.3202,83.8368
123.3202,83.8368
123.0961,83.7439
122.8618,83.6812
122.6213,83.6495
122.6213,83.6495
122.3787,83.6495
122.3787,83.6495
122.1382,83.6812
121.9039,83.7439
121.6798,83.8368
121.6798,83.8368
121.4697,83.9581
121.2773,84.1057
121.2773,84.1057
121.1057,84.2773
121.1057,84.2773
120.9581,84.4697
120.8368,84.6798
120.8368,84.6798
120.7439,84.9039
120.6812,85.1382
120.6495,85.3787
114.3505,85.3787
114.3188,85.1382
114.2561,84.9039
114.1632,84.6798
114.0419,84.4697
113.8943,84.2773
113.8943,84.2773
113.7227,84.1057
113.7227,84.1057
113.5303,83.9581
113.5303,83.9581
113.5303,83.9581
113.3202,83.8368
113.3202,83.8368
113.0961,83.7439
112.8618,83.6812
112.6213,83.6495
112.6213,83.6495
112.3787,83.6495
112.3787,83.6495
112.1382,83.6812
111.9039,83.7439
111.6798,83.8368
111.6798,83.8368
111.4697,83.9581
111.2773,84.1057
111.2773,84.1057
111.1057,84.2773
111.1057,84.2773
110.9581,84.4697
110.8368,84.6798
110.8368,84.6798
110.7439,84.9039
110.6812,85.1382
110.6495,85.3787
104.3505,85.3787
104.3188,85.1382
104.2561,84.9039
104.1632,84.6798
104.0419,84.4697
103.8943,84.2773
103.8943,84.2773
103.7227,84.1057
103.7227,84.1057
103.5303,83.9581
103.5303,83.9581
103.5303,83.9581
103.3202,83.8368
103.3202,83.8368
103.0961,83.7439
102.8618,83.6812
102.6213,83.6495
102.6213,83.6495
102.3787,83.6495
102.3787,83.6495
102.1382,83.6812
101.9039,83.7439
101.6798,83.8368
101.6798,83.8368
101.4697,83.9581
101.2773,84.1057
101.2773,84.1057
101.1057,84.2773
101.1057,84.2773
100.9581,84.4697
100.8368,84.6798
100.8368,84.6798
100.7439,84.9039
100.6812,85.1382
100.6495,85.3787
94.3505,85.3787
94.3188,85.1382
94.2561,84.9039
94.1632,84.6798
94.0419,84.4697
93.8943,84.2773
93.8943,84.2773
93.7227,84.1057
93.7227,84.1057
93.5303,83.9581
93.5303,83.9581
93.5303,83.9581
93.3202,83.8368
93.3202,83.8368
93.0961,83.7439
92.8618,83.6812
92.6213,83.6495
92.6213,83.6495
92.3787,83.6495
92.3787,83.6495
92.1382,83.6812
91.9039,83.7439
91.6798,83.8368
91.6798,83.8368
91.4697,83.9581
91.2773,84.1057
91.2773,84.1057
91.1057,84.2773
91.1057,84.2773
90.9581,84.4697
90.8368,84.6798
90.8368,84.6798
90.7439,84.9039
90.6812,85.1382
90.6495,85.3787
84.3505,85.3787
84.3188,85.1382
84.2561,84.9039
84.1632,84.6798
84.0419,84.4697
83.8943,84.2773
83.8943,84.2773
83.7227,84.1057
83.7227,84.1057
83.5303,83.9581
83.5303,83.9581
83.5303,83.9581
83.3202,83.8368
83.3202,83.8368
83.0961,83.7439
82.8618,83.6812
82.6213,83.6495
82.6213,83.6495
82.3787,83.6495
82.3787,83.6495
82.1382,83.6812
81.9039,83.7439
81.6798,83.8368
81.6798,83.8368
81.4697,83.9581
81.2773,84.1057
81.2773,84.1057
81.1057,84.2773
81.1057,84.2773
80.9581,84.4697
80.8368,84.6798
80.8368,84.6798
80.7439,84.9039
80.6812,85.1382
80.6495,85.3787
69.0505,85.3787
69.0505,67.3108
76.1495,67.3108
76.1495,67.6892
76.1866,68.0657
76.2604,68.4367
76.2604,68.4367
76.3702,68.7988
76.5150,69.1483
76.5150,69.1483
76.6933,69.4819
76.6933,69.4820
76.9035,69.7965
76.9035,69.7965
77.1435,70.0890
77.4110,70.3565
77.4110,70.3565
77.4110,70.3565
77.7035,70.5965
77.7035,70.5965
77.7035,70.5965
78.0180,70.8067
78.0180,70.8067
78.0181,70.8067
78.0181,70.8067
78.0181,70.8067
78.3517,70.9850
78.3517,70.9850
78.3517,70.9850
78.7012,71.1298
79.0633,71.2396
79.0633,71.2396
79.0633,71.2396
79.0633,71.2396
79.4343,71.3134
79.8108,71.3505
79.8108,71.3505
80.1892,71.3505
80.1892,71.3505
80.5657,71.3134
80.6379,71.2990
80.9367,71.2396
80.9367,71.2396
80.9367,71.2396
80.9367,71.2396
81.2988,71.1298
81.6483,70.9850
81.9819,70.8067
82.2965,70.5965
82.5890,70.3565
82.8565,70.0890
83.0965,69.7965
83.3067,69.4819
83.4850,69.1483
83.6298,68.7988
83.7396,68.4367
83.7396,68.4367
83.7396,68.4367
83.8134,68.0657
83.8505,67.6892
83.8505,67.3108
96.1495,67.3108
96.1495,67.6892
96.1866,68.0657
96.2604,68.4367
96.2604,68.4367
96.3702,68.7988
96.5150,69.1483
96.5150,69.1483
96.6933,69.4819
96.6933,69.4820
96.9035,69.7965
96.9035,69.7965
97.1435,70.0890
97.4110,70.3565
97.4110,70.3565
97.4110,70.3565
97.7035,70.5965
97.7035,70.5965
97.7035,70.5965
98.0180,70.8067
98.0180,70.8067
98.0181,70.8067
98.0181,70.8067
98.0181,70.8067
98.3517,70.9850
98.3517,70.9850
98.3517,70.9850
98.7012,71.1298
99.0633,71.2396
99.0633,71.2396
99.0633,71.2396
99.0633,71.2396
99.4343,71.3134
99.8108,71.3505
99.8108,71.3505
100.1892,71.3505
100.1892,71.3505
100.5657,71.3134
100.6379,71.2990
100.9367,71.2396
100.9367,71.2396
100.9367,71.2396
100.9367,71.2396
101.2988,71.1298
101.6483,70.9850
101.9819,70.8067
102.2965,70.5965
102.5890,70.3565
102.8565,70.0890
103.0965,69.7965
103.3067,69.4819
103.4850,69.1483
103.6298,68.7988
103.7396,68.4367
103.7396,68.4367
103.7396,68.4367
103.8134,68.0657
103.8505,67.6892
103.8505,67.3108
116.1495,67.3108
116.1495,67.6892
116.1866,68.0657
116.2604,68.4367
116.2604,68.4367
116.3702,68.7988
116.5150,69.1483
116.5150,69.1483
116.6933,69.4819
116.6933,69.4820
116.9035,69.7965
116.9035,69.7965
117.1435,70.0890
117.4110,70.3565
117.4110,70.3565
117.4110,70.3565
117.7035,70.5965
117.7035,70.5965
117.7035,70.5965
118.0180,70.8067
118.0180,70.8067
118.0181,70.8067
118.0181,70.8067
118.0181,70.8067
118.3517,70.9850
118.3517,70.9850
118.3517,70.9850
118.7012,71.1298
119.0633,71.2396
119.0633,71.2396
119.0633,71.2396
119.0633,71.2396
119.4343,71.3134
119.8108,71.3505
119.8108,71.3505
120.1892,71.3505
120.1892,71.3505
120.5657,71.3134
120.6379,71.2990
120.9367,71.2396
120.9367,71.2396
120.9367,71.2396
120.9367,71.2396
121.2988,71.1298
121.6483,70.9850
121.9819,70.8067
122.2965,70.5965
122.5890,70.3565
122.8565,70.0890
123.0965,69.7965
123.3067,69.4819
123.4850,69.1483
123.6298,68.7988
123.7396,68.4367
123.7396,68.4367
123.7396,68.4367
123.8134,68.0657
123.8505,67.6892
123.8505,67.3108
136.1495,67.3108
136.1495,67.6892
136.1866,68.0657
136.2604,68.4367
136.2604,68.4367
136.3702,68.7988
136.5150,69.1483
136.5150,69.1483
136.6933,69.4819
136.6933,69.4820
136.9035,69.7965
136.9035,69.7965
137.1435,70.0890
137.4110,70.3565
137.4110,70.3565
137.4110,70.3565
137.7035,70.5965
137.7035,70.5965
137.7035,70.5965
138.0180,70.8067
138.0180,70.8067
138.0181,70.8067
138.0181,70.8067
138.0181,70.8067
138.3517,70.9850
138.3517,70.9850
138.3517,70.9850
138.7012,71.1298
139.0633,71.2396
139.0633,71.2396
139.0633,71.2396
139.0633,71.2396
139.4343,71.3134
139.8108,71.3505
139.8108,71.3505
140.1892,71.3505
140.1892,71.3505
140.5657,71.3134
140.6379,71.2990
140.9367,71.2396
140.9367,71.2396
140.9367,71.2396
140.9367,71.2396
141.2988,71.1298
141.6483,70.9850
141.9819,70.8067
142.2965,70.5965
142.5890,70.3565
142.8565,70.0890
143.0965,69.7965
143.3067,69.4819
143.4850,69.1483
143.6298,68.7988
143.7396,68.4367
143.7396,68.4367
143.7396,68.4367
143.8134,68.0657
143.8505,67.6892
143.8505,67.3108
156.1495,67.3108
156.1495,67.6892
156.1866,68.0657
156.2604,68.4367
156.2604,68.4367
156.3702,68.7988
156.5150,69.1483
156.5150,69.1483
156.6933,69.4819
156.6933,69.4820
156.9035,69.7965
156.9035,69.7965
157.1435,70.0890
157.4110,70.3565
157.4110,70.3565
157.4110,70.3565
157.7035,70.5965
157.7035,70.5965
157.7035,70.5965
158.0180,70.8067
158.0180,70.8067
158.0181,70.8067
158.0181,70.8067
158.0181,70.8067
158.3517,70.9850
158.3517,70.9850
158.3517,70.9850
158.7012,71.1298
159.0633,71.2396
159.0633,71.2396
159.0633,71.2396
159.0633,71.2396
159.4343,71.3134
159.8108,71.3505
159.8108,71.3505
160.1892,71.3505
160.1892,71.3505
160.5657,71.3134
160.6379,71.2990
160.9367,71.2396
160.9367,71.2396
160.9367,71.2396
160.9367,71.2396
161.2988,71.1298
161.6483,70.9850
161.9819,70.8067
162.2965,70.5965
162.5890,70.3565
162.8565,70.0890
163.0965,69.7965
163.3067,69.4819
163.4850,69.1483
163.6298,68.7988
163.7396,68.4367
163.7396,68.4367
163.7396,68.4367
163.8134,68.0657
163.8505,67.6892
163.8505,67.3108
176.1495,67.3108
176.1495,67.6892
176.1866,68.0657
176.2604,68.4367
176.2604,68.4367
176.3702,68.7988
176.5150,69.1483
176.5150,69.1483
176.6933,69.4819
176.6933,69.4820
176.9035,69.7965
176.9035,69.7965
177.1435,70.0890
177.4110,70.3565
177.4110,70.3565
177.4110,70.3565
177.7035,70.5965
177.7035,70.5965
177.7035,70.5965
178.0180,70.8067
178.0180,70.8067
178.0181,70.8067
178.0181,70.8067
178.0181,70.8067
178.3517,70.9850
178.3517,70.9850
178.3517,70.9850
178.7012,71.1298
179.0633,71.2396
179.0633,71.2396
179.0633,71.2396
179.0633,71.2396
179.4343,71.3134
179.8108,71.3505
179.8108,71.3505
180.1892,71.3505
180.1892,71.3505
180.5657,71.3134
180.6379,71.2990
180.9367,71.2396
180.9367,71.2396
180.9367,71.2396
180.9367,71.2396
181.2988,71.1298
181.6483,70.9850
181.9819,70.8067
182.2965,70.5965
182.5890,70.3565
182.8565,70.0890
183.0965,69.7965
183.3067,69.4819
183.4850,69.1483
183.6298,68.7988
183.7396,68.4367
183.7396,68.4367
183.7396,68.4367
183.8134,68.0657
183.8505,67.6892
183.8505,67.3108
183.8134,66.9343
183.7396,66.5633
183.7396,66.5633
183.7396,66.5633
183.7396,66.5633
183.6298,66.2012
183.4850,65.8517
183.3067,65.5181
183.3067,65.5180
183.0965,65.2035
183.0965,65.2035
183.0965,65.2035
182.8565,64.9110
182.8565,64.9110
182.8565,64.9110
182.5890,64.6435
182.2965,64.4035
182.2965,64.4035
181.9820,64.1933
181.9819,64.1933
181.6483,64.0150
181.6483,64.0150
181.2988,63.8702
180.9367,63.7604
180.9367,63.7604
180.5657,63.6866
180.2821,63.6587
180.1892,63.6495
179.8108,63.6495
179.7250,63.6580
179.4343,63.6866
179.0633,63.7604
179.0633,63.7604
178.7012,63.8702
178.3517,64.0150
178.3517,64.0150
178.0181,64.1933
178.0180,64.1933
177.7035,64.4035
177.7035,64.4035
177.4110,64.6435
177.1435,64.9110
176.9035,65.2035
176.9035,65.2035
176.6933,65.5180
176.6933,65.5181
176.5150,65.8517
176.5150,65.8517
176.3702,66.2012
176.2604,66.5633
176.2604,66.5633
176.1866,66.9343
176.1495,67.3108
163.8505,67.3108
163.8134,66.9343
163.7396,66.5633
163.7396,66.5633
163.7396,66.5633
163.7396,66.5633
163.6298,66.2012
163.4850,65.8517
163.3067,65.5181
163.3067,65.5180
163.0965,65.2035
163.0965,65.2035
163.0965,65.2035
162.8565,64.9110
162.8565,64.9110
162.8565,64.9110
162.5890,64.6435
162.2965,64.4035
162.2965,64.4035
161.9820,64.1933
161.9819,64.1933
161.6483,64.0150
161.6483,64.0150
161.2988,63.8702
160.9367,63.7604
160.9367,63.7604
160.5657,63.6866
160.2821,63.6587
160.1892,63.6495
159.8108,63.6495
159.7250,63.6580
159.4343,63.6866
159.0633,63.7604
159.0633,63.7604
158.7012,63.8702
158.3517,64.0150
158.3517,64.0150
158.0181,64.1933
158.0180,64.1933
157.7035,64.4035
157.7035,64.4035
157.4110,64.6435
157.1435,64.9110
156.9035,65.2035
156.9035,65.2035
156.6933,65.5180
156.6933,65.5181
156.5150,65.8517
156.5150,65.8517
156.3702,66.2012
156.2604,66.5633
156.2604,66.5633
156.1866,66.9343
156.1495,67.3108
143.8505,67.3108
143.8134,66.9343
143.7396,66.5633
143.7396,66.5633
143.7396,66.5633
143.7396,66.5633
143.6298,66.2012
143.4850,65.8517
143.3067,65.5181
143.3067,65.5180
143.0965,65.2035
143.0965,65.2035
143.0965,65.2035
142.8565,64.9110
142.8565,64.9110
142.8565,64.9110
142.5890,64.6435
142.2965,64.4035
142.2965,64.4035
141.9820,64.1933
141.9819,64.1933
141.6483,64.0150
141.6483,64.0150
141.2988,63.8702
140.9367,63.7604
140.9367,63.7604
140.5657,63.6866
140.2821,63.6587
140.1892,63.6495
139.8108,63.6495
139.7250,63.6580
139.4343,63.6866
139.0633,63.7604
139.0633,63.7604
138.7012,63.8702
138.3517,64.0150
138.3517,64.0150
138.0181,64.1933
138.0180,64.1933
137.7035,64.4035
137.7035,64.4035
137.4110,64.6435
137.1435,64.9110
136.9035,65.2035
136.9035,65.2035
136.6933,65.5180
136.6933,65.5181
136.5150,65.8517
136.5150,65.8517
136.3702,66.2012
136.2604,66.5633
136.2604,66.5633
136.1866,66.9343
136.1495,67.3108
123.8505,67.3108
123.8134,66.9343
123.7396,66.5633
123.7396,66.5633
123.7396,66.5633
123.7396,66.5633
123.6298,66.2012
123.4850,65.8517
123.3067,65.5181
123.3067,65.5180
123.0965,65.2035
123.0965,65.2035
123.0965,65.2035
122.8565,64.9110
122.8565,64.9110
122.8565,64.9110
122.5890,64.6435
122.2965,64.4035
122.2965,64.4035
121.9820,64.1933
121.9819,64.1933
121.6483,64.0150
121.6483,64.0150
121.2988,63.8702
120.9367,63.7604
120.9367,63.7604
120.5657,63.6866
120.2821,63.6587
120.1892,63.6495
119.8108,63.6495
119.7250,63.6580
119.4343,63.6866
119.0633,63.7604
119.0633,63.7604
118.7012,63.8702
118.3517,64.0150
118.3517,64.0150
118.0181,64.1933
118.0180,64.1933
117.7035,64.4035
117.7035,64.4035
117.4110,64.6435
117.1435,64.9110
116.9035,65.2035
116.9035,65.2035
116.6933,65.5180
116.6933,65.5181
116.5150,65.8517
116.5150,65.8517
116.3702,66.2012
116.2604,66.5633
116.2604,66.5633
116.1866,66.9343
116.1495,67.3108
103.8505,67.3108
103.8134,66.9343
103.7396,66.5633
103.7396,66.5633
103.7396,66.5633
103.7396,66.5633
103.6298,66.2012
103.4850,65.8517
103.3067,65.5181
103.3067,65.5180
103.0965,65.2035
103.0965,65.2035
103.0965,65.2035
102.8565,64.9110
102.8565,64.9110
102.8565,64.9110
102.5890,64.6435
102.2965,64.4035
102.2965,64.4035
101.9820,64.1933
101.9819,64.1933
101.6483,64.0150
101.6483,64.0150
101.2988,63.8702
100.9367,63.7604
100.9367,63.7604
100.5657,63.6866
100.2821,63.6587
100.1892,63.6495
99.8108,63.6495
99.7250,63.6580
99.4343,63.6866
99.0633,63.7604
99.0633,63.7604
98.7012,63.8702
98.3517,64.0150
98.3517,64.0150
98.0181,64.1933
98.0180,64.1933
97.7035,64.4035
97.7035,64.4035
97.4110,64.6435
97.1435,64.9110
96.9035,65.2035
96.9035,65.2035
96.6933,65.5180
96.6933,65.5181
96.5150,65.8517
96.5150,65.8517
96.3702,66.2012
96.2604,66.5633
96.2604,66.5633
96.1866,66.9343
96.1495,67.3108
83.8505,67.3108
83.8134,66.9343
83.7396,66.5633
83.7396,66.5633
83.7396,66.5633
83.7396,66.5633
83.6298,66.2012
83.4850,65.8517
83.3067,65.5181
83.3067,65.5180
83.0965,65.2035
83.0965,65.2035
83.0965,65.2035
82.8565,64.9110
82.8565,64.9110
82.8565,64.9110
82.5890,64.6435
82.2965,64.4035
82.2965,64.4035
81.9820,64.1933
81.9819,64.1933
81.6483,64.0150
81.6483,64.0150
81.2988,63.8702
80.9367,63.7604
80.9367,63.7604
80.5657,63.6866
80.2821,63.6587
80.1892,63.6495
79.8108,63.6495
79.7250,63.6580
79.4343,63.6866
79.0633,63.7604
79.0633,63.7604
78.7012,63.8702
78.3517,64.0150
78.3517,64.0150
78.0181,64.1933
78.0180,64.1933
77.7035,64.4035
77.7035,64.4035
77.4110,64.6435
77.1435,64.9110
76.9035,65.2035
76.9035,65.2035
76.6933,65.5180
76.6933,65.5181
76.5150,65.8517
76.5150,65.8517
76.3702,66.2012
76.2604,66.5633
76.2604,66.5633
76.1866,66.9343
76.1495,67.3108
69.0505,67.3108
69.0505,45.3108
76.1495,45.3108
76.1495,45.6892
76.1866,46.0657
76.2604,46.4367
76.2604,46.4367
76.3702,46.7988
76.5150,47.1483
76.5150,47.1483
76.6933,47.4819
76.6933,47.4820
76.9035,47.7965
76.9035,47.7965
77.1435,48.0890
77.4110,48.3565
77.4110,48.3565
77.4110,48.3565
77.7035,48.5965
77.7035,48.5965
77.7035,48.5965
78.0180,48.8067
78.0180,48.8067
78.0181,48.8067
78.0181,48.8067
78.0181,48.8067
78.3517,48.9850
78.3517,48.9850
78.3517,48.9850
78.7012,49.1298
79.0633,49.2396
79.0633,49.2396
79.0633,49.2396
79.0633,49.2396
79.4343,49.3134
79.8108,49.3505
79.8108,49.3505
80.1892,49.3505
80.1892,49.3505
80.5657,49.3134
80.6379,49.2991
80.9367,49.2396
80.9367,49.2396
80.9367,49.2396
80.9367,49.2396
81.2988,49.1298
81.6483,48.9850
81.9819,48.8067
82.2965,48.5965
82.5890,48.3565
82.8565,48.0890
83.0965,47.7965
83.3067,47.4819
83.4850,47.1483
83.6298,46.7988
83.7396,46.4367
83.7396,46.4367
83.7396,46.4367
83.8134,46.0657
83.8505,45.6892
83.8505,45.3108
96.1495,45.3108
96.1495,45.6892
96.1866,46.0657
96.2604,46.4367
96.2604,46.4367
96.3702,46.7988
96.5150,47.1483
96.5150,47.1483
96.6933,47.4819
96.6933,47.4820
96.9035,47.7965
96.9035,47.7965
97.1435,48.0890
97.4110,48.3565
97.4110,48.3565
97.4110,48.3565
97.7035,48.5965
97.7035,48.5965
97.7035,48.5965
98.0180,48.8067
98.0180,48.8067
98.0181,48.8067
98.0181,48.8067
98.0181,48.8067
98.3517,48.9850
98.3517,48.9850
98.3517,48.9850
98.7012,49.1298
99.0633,49.2396
99.0633,49.2396
99.0633,49.2396
99.0633,49.2396
99.4343,49.3134
99.8108,49.3505
99.8108,49.3505
100.1892,49.3505
100.1892,49.3505
100.5657,49.3134
100.6379,49.2991
100.9367,49.2396
100.9367,49.2396
100.9367,49.2396
100.9367,49.2396
101.2988,49.1298
101.6483,48.9850
101.9819,48.8067
102.2965,48.5965
102.5890,48.3565
102.8565,48.0890
103.0965,47.7965
103.3067,47.4819
103.4850,47.1483
103.6298,46.7988
103.7396,46.4367
103.7396,46.4367
103.7396,46.4367
103.8134,46.0657
103.8505,45.6892
103.8505,45.3108
116.1495,45.3108
116.1495,45.6892
116.1866,46.0657
116.2604,46.4367
116.2604,46.4367
116.3702,46.7988
116.5150,47.1483
116.5150,47.1483
116.6933,47.4819
116.6933,47.4820
116.9035,47.7965
116.9035,47.7965
117.1435,48.0890
117.4110,48.3565
117.4110,48.3565
117.4110,48.3565
117.7035,48.5965
117.7035,48.5965
117.7035,48.5965
118.0180,48.8067
118.0180,48.8067
118.0181,48.8067
118.0181,48.8067
118.0181,48.8067
118.3517,48.9850
118.3517,48.9850
118.3517,48.9850
118.7012,49.1298
119.0633,49.2396
119.0633,49.2396
119.0633,49.2396
119.0633,49.2396
119.4343,49.3134
119.8108,49.3505
119.8108,49.3505
120.1892,49.3505
120.1892,49.3505
120.5657,49.3134
120.6379,49.2991
120.9367,49.2396
120.9367,49.2396
120.9367,49.2396
120.9367,49.2396
121.2988,49.1298
121.6483,48.9850
121.9819,48.8067
122.2965,48.5965
122.5890,48.3565
122.8565,48.0890
123.0965,47.7965
123.3067,47.4819
123.4850,47.1483
123.6298,46.7988
123.7396,46.4367
123.7396,46.4367
123.7396,46.4367
123.8134,46.0657
123.8505,45.6892
123.8505,45.3108
136.1495,45.3108
136.1495,45.6892
136.1866,46.0657
136.2604,46.4367
136.2604,46.4367
136.3702,46.7988
136.5150,47.1483
136.5150,47.1483
136.6933,47.4819
136.6933,47.4820
136.9035,47.7965
136.9035,47.7965
137.1435,48.0890
137.4110,48.3565
137.4110,48.3565
137.4110,48.3565
137.7035,48.5965
137.7035,48.5965
137.7035,48.5965
138.0180,48.8067
138.0180,48.8067
138.0181,48.8067
138.0181,48.8067
138.0181,48.8067
138.3517,48.9850
138.3517,48.9850
138.3517,48.9850
138.7012,49.1298
139.0633,49.2396
139.0633,49.2396
139.0633,49.2396
139.0633,49.2396
139.4343,49.3134
139.8108,49.3505
139.8108,49.3505
140.1892,49.3505
140.1892,49.3505
140.5657,49.3134
140.6379,49.2991
140.9367,49.2396
140.9367,49.2396
140.9367,49.2396
140.9367,49.2396
141.2988,49.1298
141.6483,48.9850
141.9819,48.8067
142.2965,48.5965
142.5890,48.3565
142.8565,48.0890
143.0965,47.7965
143.3067,47.4819
143.4850,47.1483
143.6298,46.7988
143.7396,46.4367
143.7396,46.4367
143.7396,46.4367
143.8134,46.0657
143.8505,45.6892
143.8505,45.3108
156.1495,45.3108
156.1495,45.6892
156.1866,46.0657
156.2604,46.4367
156.2604,46.4367
156.3702,46.7988
156.5150,47.1483
156.5150,47.1483
156.6933,47.4819
156.6933,47.4820
156.9035,47.7965
156.9035,47.7965
157.1435,48.0890
157.4110,48.3565
157.4110,48.3565
157.4110,48.3565
157.7035,48.5965
157.7035,48.5965
157.7035,48.5965
158.0180,48.8067
158.0180,48.8067
158.0181,48.8067
158.0181,48.8067
158.0181,48.8067
158.3517,48.9850
158.3517,48.9850
158.3517,48.9850
158.7012,49.1298
159.0633,49.2396
159.0633,49.2396
159.0633,49.2396
159.0633,49.2396
159.4343,49.3134
159.8108,49.3505
159.8108,49.3505
160.1892,49.3505
160.1892,49.3505
160.5657,49.3134
160.6379,49.2991
160.9367,49.2396
160.9367,49.2396
160.9367,49.2396
160.9367,49.2396
161.2988,49.1298
161.6483,48.9850
161.9819,48.8067
162.2965,48.5965
162.5890,48.3565
162.8565,48.0890
163.0965,47.7965
163.3067,47.4819
163.4850,47.1483
163.6298,46.7988
163.7396,46.4367
163.7396,46.4367
163.7396,46.4367
163.8134,46.0657
163.8505,45.6892
163.8505,45.3108
176.1495,45.3108
176.1495,45.6892
176.1866,46.0657
176.2604,46.4367
176.2604,46.4367
176.3702,46.7988
176.5150,47.1483
176.5150,47.1483
176.6933,47.4819
176.6933,47.4820
176.9035,47.7965
176.9035,47.7965
177.1435,48.0890
177.4110,48.3565
177.4110,48.3565
177.4110,48.3565
177.7035,48.5965
177.7035,48.5965
177.7035,48.5965
178.0180,48.8067
178.0180,48.8067
178.0181,48.8067
178.0181,48.8067
178.0181,48.8067
178.3517,48.9850
178.3517,48.9850
178.3517,48.9850
178.7012,49.1298
179.0633,49.2396
179.0633,49.2396
179.0633,49.2396
179.0633,49.2396
179.4343,49.3134
179.8108,49.3505
179.8108,49.3505
180.1892,49.3505
180.1892,49.3505
180.5657,49.3134
180.6379,49.2991
180.9367,49.2396
180.9367,49.2396
180.9367,49.2396
180.9367,49.2396
181.2988,49.1298
181.6483,48.9850
181.9819,48.8067
182.2965,48.5965
182.5890,48.3565
182.8565,48.0890
183.0965,47.7965
183.3067,47.4819
183.4850,47.1483
183.6298,46.7988
183.7396,46.4367
183.7396,46.4367
183.7396,46.4367
183.8134,46.0657
183.8505,45.6892
183.8505,45.3108
183.8134,44.9343
183.7396,44.5633
183.7396,44.5633
183.7396,44.5633
183.7396,44.5633
183.6298,44.2012
183.4850,43.8517
183.3067,43.5181
183.3067,43.5180
183.0965,43.2035
183.0965,43.2035
183.0965,43.2035
182.8565,42.9110
182.8565,42.9110
182.8565,42.9110
182.5890,42.6435
182.2965,42.4035
182.2965,42.4035
181.9820,42.1933
181.9819,42.1933
181.6483,42.0150
181.6483,42.0150
181.2988,41.8702
180.9367,41.7604
180.9367,41.7604
180.5657,41.6866
180.2821,41.6587
180.1892,41.6495
179.8108,41.6495
179.7250,41.6580
179.4343,41.6866
179.0633,41.7604
179.0633,41.7604
178.7012,41.8702
178.3517,42.0150
178.3517,42.0150
178.0181,42.1933
178.0180,42.1933
177.7035,42.4035
177.7035,42.4035
177.4110,42.6435
177.1435,42.9110
176.9035,43.2035
176.9035,43.2035
176.6933,43.5180
176.6933,43.5181
176.5150,43.8517
176.5150,43.8517
176.3702,44.2012
176.2604,44.5633
176.2604,44.5633
176.1866,44.9343
176.1495,45.3108
163.8505,45.3108
163.8134,44.9343
163.7396,44.5633
163.7396,44.5633
163.7396,44.5633
163.7396,44.5633
163.6298,44.2012
163.4850,43.8517
163.3067,43.5181
163.3067,43.5180
163.0965,43.2035
163.0965,43.2035
163.0965,43.2035
162.8565,42.9110
162.8565,42.9110
162.8565,42.9110
162.5890,42.6435
162.2965,42.4035
162.2965,42.4035
161.9820,42.1933
161.9819,42.1933
161.6483,42.0150
161.6483,42.0150
161.2988,41.8702
160.9367,41.7604
160.9367,41.7604
160.5657,41.6866
160.2821,41.6587
160.1892,41.6495
159.8108,41.6495
159.7250,41.6580
159.4343,41.6866
159.0633,41.7604
159.0633,41.7604
158.7012,41.8702
158.3517,42.0150
158.3517,42.0150
158.0181,42.1933
158.0180,42.1933
157.7035,42.4035
157.7035,42.4035
157.4110,42.6435
157.1435,42.9110
156.9035,43.2035
156.9035,43.2035
156.6933,43.5180
156.6933,43.5181
156.5150,43.8517
156.5150,43.8517
156.3702,44.2012
156.2604,44.5633
156.2604,44.5633
156.1866,44.9343
156.1495,45.3108
143.8505,45.3108
143.8134,44.9343
143.7396,44.5633
143.7396,44.5633
143.7396,44.5633
143.7396,44.5633
143.6298,44.2012
143.4850,43.8517
143.3067,43.5181
143.3067,43.5180
143.0965,43.2035
143.0965,43.2035
143.0965,43.2035
142.8565,42.9110
142.8565,42.9110
142.8565,42.9110
142.5890,42.6435
142.2965,42.4035
142.2965,42.4035
141.9820,42.1933
141.9819,42.1933
141.6483,42.0150
141.6483,42.0150
141.2988,41.8702
140.9367,41.7604
140.9367,41.7604
140.5657,41.6866
140.2821,41.6587
140.1892,41.6495
139.8108,41.6495
139.7250,41.6580
139.4343,41.6866
139.0633,41.7604
139.0633,41.7604
138.7012,41.8702
138.3517,42.0150
138.3517,42.0150
138.0181,42.1933
138.0180,42.1933
137.7035,42.4035
137.7035,42.4035
137.4110,42.6435
137.1435,42.9110
136.9035,43.2035
136.9035,43.2035
136.6933,43.5180
136.6933,43.5181
136.5150,43.8517
136.5150,43.8517
136.3702,44.2012
136.2604,44.5633
136.2604,44.5633
136.1866,44.9343
136.1495,45.3108
123.8505,45.3108
123.8134,44.9343
123.7396,44.5633
123.7396,44.5633
123.7396,44.5633
123.7396,44.5633
123.6298,44.2012
123.4850,43.8517
123.3067,43.5181
123.3067,43.5180
123.0965,43.2035
123.0965,43.2035
123.0965,43.2035
122.8565,42.9110
122.8565,42.9110
122.8565,42.9110
122.5890,42.6435
122.2965,42.4035
122.2965,42.4035
121.9820,42.1933
121.9819,42.1933
121.6483,42.0150
121.6483,42.0150
121.2988,41.8702
120.9367,41.7604
120.9367,41.7604
120.5657,41.6866
120.2821,41.6587
120.1892,41.6495
119.8108,41.6495
119.7250,41.6580
119.4343,41.6866
119.0633,41.7604
119.0633,41.7604
118.7012,41.8702
118.3517,42.0150
118.3517,42.0150
118.0181,42.1933
118.0180,42.1933
117.7035,42.4035
117.7035,42.4035
117.4110,42.6435
117.1435,42.9110
116.9035,43.2035
116.9035,43.2035
116.6933,43.5180
116.6933,43.5181
116.5150,43.8517
116.5150,43.8517
116.3702,44.2012
116.2604,44.5633
116.2604,44.5633
116.1866,44.9343
116.1495,45.3108
103.8505,45.3108
103.8134,44.9343
103.7396,44.5633
103.7396,44.5633
103.7396,44.5633
103.7396,44.5633
103.6298,44.2012
103.4850,43.8517
103.3067,43.5181
103.3067,43.5180
103.0965,43.2035
103.0965,43.2035
103.0965,43.2035
102.8565,42.9110
102.8565,42.9110
102.8565,42.9110
102.5890,42.6435
102.2965,42.4035
102.2965,42.4035
101.9820,42.1933
101.9819,42.1933
101.6483,42.0150
101.6483,42.0150
101.2988,41.8702
100.9367,41.7604
100.9367,41.7604
100.5657,41.6866
100.2821,41.6587
100.1892,41.6495
99.8108,41.6495
99.7250,41.6580
99.4343,41.6866
99.0633,41.7604
99.0633,41.7604
98.7012,41.8702
98.3517,42.0150
98.3517,42.0150
98.0181,42.1933
98.0180,42.1933
97.7035,42.4035
97.7035,42.4035
97.4110,42.6435
97.1435,42.9110
96.9035,43.2035
96.9035,43.2035
96.6933,43.5180
96.6933,43.5181
96.5150,43.8517
96.5150,43.8517
96.3702,44.2012
96.2604,44.5633
96.2604,44.5633
96.1866,44.9343
96.1495,45.3108
83.8505,45.3108
83.8134,44.9343
83.7396,44.5633
83.7396,44.5633
83.7396,44.5633
83.7396,44.5633
83.6298,44.2012
83.4850,43.8517
83.3067,43.5181
83.3067,43.5180
83.0965,43.2035
83.0965,43.2035
83.0965,43.2035
82.8565,42.9110
82.8565,42.9110
82.8565,42.9110
82.5890,42.6435
82.2965,42.4035
82.2965,42.4035
81.9820,42.1933
81.9819,42.1933
81.6483,42.0150
81.6483,42.0150
81.2988,41.8702
80.9367,41.7604
80.9367,41.7604
80.5657,41.6866
80.2821,41.6587
80.1892,41.6495
79.8108,41.6495
79.7250,41.6580
79.4343,41.6866
79.0633,41.7604
79.0633,41.7604
78.7012,41.8702
78.3517,42.0150
78.3517,42.0150
78.0181,42.1933
78.0180,42.1933
77.7035,42.4035
77.7035,42.4035
77.4110,42.6435
77.1435,42.9110
76.9035,43.2035
76.9035,43.2035
76.6933,43.5180
76.6933,43.5181
76.5150,43.8517
76.5150,43.8517
76.3702,44.2012
76.2604,44.5633
76.2604,44.5633
76.1866,44.9343
76.1495,45.3108
69.0505,45.3108
69.0505,32.6287
74.6995,32.6287
74.6995,32.8713
74.7312,33.1118
74.7939,33.3461
74.8868,33.5702
74.8868,33.5702
75.0081,33.7803
75.0081,33.7803
75.0081,33.7803
75.1557,33.9727
75.1557,33.9727
75.3273,34.1443
75.3273,34.1443
75.5197,34.2919
75.7298,34.4132
75.9539,34.5061
76.1882,34.5688
76.3686,34.5926
76.4287,34.6005
76.4287,34.6005
76.6713,34.6005
76.7194,34.5942
76.9118,34.5688
77.1461,34.5061
77.3702,34.4132
77.5803,34.2919
77.7727,34.1443
77.9443,33.9727
78.0919,33.7803
78.2132,33.5702
78.3061,33.3461
78.3688,33.1118
78.4005,32.8713
78.4005,32.6287
78.4005,32.6287
181.5995,32.6287
181.5995,32.8713
181.6312,33.1118
181.6939,33.3461
181.7868,33.5702
181.7868,33.5702
181.9081,33.7803
181.9081,33.7803
181.9081,33.7803
182.0557,33.9727
182.0557,33.9727
182.2273,34.1443
182.2273,34.1443
182.4197,34.2919
182.6298,34.4132
182.8539,34.5061
183.0882,34.5688
183.2686,34.5926
183.3287,34.6005
183.3287,34.6005
183.5713,34.6005
183.6194,34.5942
183.8118,34.5688
184.0461,34.5061
184.2702,34.4132
184.4803,34.2919
184.6727,34.1443
184.8443,33.9727
184.9919,33.7803
185.1132,33.5702
185.2061,33.3461
185.2688,33.1118
185.3005,32.8713
185.3005,32.6287
185.2688,32.3882
185.2061,32.1539
185.1132,31.9298
184.9919,31.7197
184.8443,31.5273
184.8443,31.5273
184.6727,31.3557
184.6727,31.3557
184.4803,31.2081
184.4803,31.2081
184.4803,31.2081
184.2702,31.0868
184.2702,31.0868
184.0461,30.9939
183.8118,30.9312
183.5713,30.8995
183.5713,30.8995
183.3287,30.8995
183.3287,30.8995
183.0882,30.9312
182.8539,30.9939
182.6298,31.0868
182.6298,31.0868
182.4197,31.2081
182.2273,31.3557
182.2273,31.3557
182.0557,31.5273
182.0557,31.5273
181.9081,31.7197
181.7868,31.9298
181.7868,31.9298
181.6939,32.1539
181.6312,32.3882
181.5995,32.6287
78.4005,32.6287
78.3688,32.3882
78.3061,32.1539
78.2132,31.9298
78.0919,31.7197
77.9443,31.5273
77.9443,31.5273
77.7727,31.3557
77.7727,31.3557
77.5803,31.2081
77.5803,31.2081
77.5803,31.2081
77.3702,31.0868
77.3702,31.0868
77.1461,30.9939
76.9118,30.9312
76.6713,30.8995
76.6713,30.8995
76.4287,30.8995
76.4287,30.8995
76.1882,30.9312
75.9539,30.9939
75.7298,31.0868
75.7298,31.0868
75.5197,31.2081
75.3273,31.3557
75.3273,31.3557
75.1557,31.5273
75.1557,31.5273
75.0081,31.7197
74.8868,31.9298
74.8868,31.9298
74.7939,32.1539
74.7312,32.3882
74.6995,32.6287
69.0505,32.6287
69.0505,29.8745
69.0702,29.8075
69.1230,29.7617
69.1745,29.7505
190.8255,29.7505
Z" /> 
<path style="fill:#000000; fill-opacity:1.0000; stroke:none;fill-rule:evenodd;"
d="M 181.5121,86.6274
181.5130,86.6189
181.5187,86.6026
Z" /> 
<path style="fill:#000000; fill-opacity:1.0000; stroke:none;fill-rule:evenodd;"
d="M 146.5143,85.5917
146.5157,85.5764
146.5223,85.5518
Z" /> 
</g> 
</svg>
