%TF.GenerationSoftware,KiCad,Pcbnew,7.0.2*%
%TF.CreationDate,2025-03-10T10:37:47+00:00*%
%TF.ProjectId,dk2_04b_top,646b325f-3034-4625-9f74-6f702e6b6963,rev?*%
%TF.SameCoordinates,Original*%
%TF.FileFunction,Soldermask,Bot*%
%TF.FilePolarity,Negative*%
%FSLAX46Y46*%
G04 Gerber Fmt 4.6, Leading zero omitted, Abs format (unit mm)*
G04 Created by KiCad (PCBNEW 7.0.2) date 2025-03-10 10:37:47*
%MOMM*%
%LPD*%
G01*
G04 APERTURE LIST*
G04 Aperture macros list*
%AMRoundRect*
0 Rectangle with rounded corners*
0 $1 Rounding radius*
0 $2 $3 $4 $5 $6 $7 $8 $9 X,Y pos of 4 corners*
0 Add a 4 corners polygon primitive as box body*
4,1,4,$2,$3,$4,$5,$6,$7,$8,$9,$2,$3,0*
0 Add four circle primitives for the rounded corners*
1,1,$1+$1,$2,$3*
1,1,$1+$1,$4,$5*
1,1,$1+$1,$6,$7*
1,1,$1+$1,$8,$9*
0 Add four rect primitives between the rounded corners*
20,1,$1+$1,$2,$3,$4,$5,0*
20,1,$1+$1,$4,$5,$6,$7,0*
20,1,$1+$1,$6,$7,$8,$9,0*
20,1,$1+$1,$8,$9,$2,$3,0*%
G04 Aperture macros list end*
%ADD10C,2.000000*%
%ADD11O,2.720000X3.240000*%
%ADD12R,1.800000X1.800000*%
%ADD13C,1.800000*%
%ADD14O,3.100000X2.300000*%
%ADD15RoundRect,0.650000X-0.650000X-0.650000X0.650000X-0.650000X0.650000X0.650000X-0.650000X0.650000X0*%
%ADD16C,3.200000*%
%ADD17R,1.500000X1.500000*%
%ADD18C,1.500000*%
%ADD19C,1.050000*%
%ADD20R,1.350000X1.350000*%
%ADD21RoundRect,0.200000X0.275000X-0.200000X0.275000X0.200000X-0.275000X0.200000X-0.275000X-0.200000X0*%
%ADD22R,1.700000X1.700000*%
%ADD23O,1.700000X1.700000*%
%ADD24RoundRect,0.200000X0.200000X0.275000X-0.200000X0.275000X-0.200000X-0.275000X0.200000X-0.275000X0*%
%ADD25RoundRect,0.200000X-0.275000X0.200000X-0.275000X-0.200000X0.275000X-0.200000X0.275000X0.200000X0*%
%ADD26RoundRect,0.150000X0.825000X0.150000X-0.825000X0.150000X-0.825000X-0.150000X0.825000X-0.150000X0*%
%ADD27RoundRect,0.200000X-0.200000X-0.275000X0.200000X-0.275000X0.200000X0.275000X-0.200000X0.275000X0*%
%ADD28RoundRect,0.225000X0.225000X0.250000X-0.225000X0.250000X-0.225000X-0.250000X0.225000X-0.250000X0*%
%ADD29RoundRect,0.150000X-0.150000X0.825000X-0.150000X-0.825000X0.150000X-0.825000X0.150000X0.825000X0*%
G04 APERTURE END LIST*
D10*
%TO.C,SW10*%
X127000000Y-93000000D03*
X133500000Y-93000000D03*
X127000000Y-97500000D03*
X133500000Y-97500000D03*
%TD*%
%TO.C,SW8*%
X107000000Y-93000000D03*
X113500000Y-93000000D03*
X107000000Y-97500000D03*
X113500000Y-97500000D03*
%TD*%
D11*
%TO.C,RV3*%
X115700000Y-46500000D03*
X125300000Y-46500000D03*
D12*
X118000000Y-54000000D03*
D13*
X120500000Y-54000000D03*
X123000000Y-54000000D03*
%TD*%
D14*
%TO.C,J2*%
X96000000Y-130400000D03*
D15*
X96000000Y-119000000D03*
X96000000Y-127300000D03*
%TD*%
D14*
%TO.C,J13*%
X132000000Y-130400000D03*
D15*
X132000000Y-119000000D03*
X132000000Y-127300000D03*
%TD*%
D11*
%TO.C,RV8*%
X134700000Y-66500000D03*
X144300000Y-66500000D03*
D12*
X137000000Y-74000000D03*
D13*
X139500000Y-74000000D03*
X142000000Y-74000000D03*
%TD*%
D14*
%TO.C,J12*%
X120000000Y-130400000D03*
D15*
X120000000Y-119000000D03*
X120000000Y-127300000D03*
%TD*%
D10*
%TO.C,SW19*%
X172000000Y-105000000D03*
X178500000Y-105000000D03*
X172000000Y-109500000D03*
X178500000Y-109500000D03*
%TD*%
D16*
%TO.C,H1*%
X74000000Y-56000000D03*
%TD*%
D14*
%TO.C,J11*%
X144000000Y-146400000D03*
D15*
X144000000Y-135000000D03*
X144000000Y-143300000D03*
%TD*%
D11*
%TO.C,RV4*%
X134700000Y-46500000D03*
X144300000Y-46500000D03*
D12*
X137000000Y-54000000D03*
D13*
X139500000Y-54000000D03*
X142000000Y-54000000D03*
%TD*%
D10*
%TO.C,SW3*%
X107000000Y-81000000D03*
X113500000Y-81000000D03*
X107000000Y-85500000D03*
X113500000Y-85500000D03*
%TD*%
D11*
%TO.C,RV1*%
X77700000Y-46500000D03*
X87300000Y-46500000D03*
D12*
X80000000Y-54000000D03*
D13*
X82500000Y-54000000D03*
X85000000Y-54000000D03*
%TD*%
D11*
%TO.C,RV10*%
X172700000Y-46500000D03*
X182300000Y-46500000D03*
D12*
X175000000Y-54000000D03*
D13*
X177500000Y-54000000D03*
X180000000Y-54000000D03*
%TD*%
D14*
%TO.C,J4*%
X84000000Y-130400000D03*
D15*
X84000000Y-119000000D03*
X84000000Y-127300000D03*
%TD*%
D10*
%TO.C,SW9*%
X117000000Y-93000000D03*
X123500000Y-93000000D03*
X117000000Y-97500000D03*
X123500000Y-97500000D03*
%TD*%
D14*
%TO.C,J14*%
X120000000Y-146400000D03*
D15*
X120000000Y-135000000D03*
X120000000Y-143300000D03*
%TD*%
D14*
%TO.C,J15*%
X132000000Y-146400000D03*
D15*
X132000000Y-135000000D03*
X132000000Y-143300000D03*
%TD*%
D10*
%TO.C,SW6*%
X87000000Y-93000000D03*
X93500000Y-93000000D03*
X87000000Y-97500000D03*
X93500000Y-97500000D03*
%TD*%
D11*
%TO.C,RV7*%
X115700000Y-66500000D03*
X125300000Y-66500000D03*
D12*
X118000000Y-74000000D03*
D13*
X120500000Y-74000000D03*
X123000000Y-74000000D03*
%TD*%
D10*
%TO.C,SW17*%
X152000000Y-105000000D03*
X158500000Y-105000000D03*
X152000000Y-109500000D03*
X158500000Y-109500000D03*
%TD*%
%TO.C,SW1*%
X87000000Y-81000000D03*
X93500000Y-81000000D03*
X87000000Y-85500000D03*
X93500000Y-85500000D03*
%TD*%
D17*
%TO.C,U3*%
X154000000Y-93000000D03*
D18*
X156540000Y-93000000D03*
X159080000Y-93000000D03*
X161620000Y-93000000D03*
X164160000Y-93000000D03*
X166700000Y-93000000D03*
X166700000Y-82840000D03*
X164160000Y-82840000D03*
X161620000Y-82840000D03*
X159080000Y-82840000D03*
X156540000Y-82840000D03*
X154000000Y-82840000D03*
%TD*%
D19*
%TO.C,J6*%
X180400000Y-91700000D03*
X179300000Y-90600000D03*
X180400000Y-89500000D03*
X179300000Y-88400000D03*
X180400000Y-87300000D03*
X179300000Y-86200000D03*
X180400000Y-85100000D03*
X179300000Y-84000000D03*
D20*
X183570000Y-92150000D03*
X183570000Y-83550000D03*
%TD*%
D12*
%TO.C,D3*%
X157000000Y-134100000D03*
D13*
X159540000Y-134100000D03*
%TD*%
D11*
%TO.C,RV11*%
X153700000Y-66500000D03*
X163300000Y-66500000D03*
D12*
X156000000Y-74000000D03*
D13*
X158500000Y-74000000D03*
X161000000Y-74000000D03*
%TD*%
D11*
%TO.C,RV9*%
X153700000Y-46500000D03*
X163300000Y-46500000D03*
D12*
X156000000Y-54000000D03*
D13*
X158500000Y-54000000D03*
X161000000Y-54000000D03*
%TD*%
D14*
%TO.C,J8*%
X96000000Y-146400000D03*
D15*
X96000000Y-135000000D03*
X96000000Y-143300000D03*
%TD*%
D21*
%TO.C,R45*%
X183300000Y-118325000D03*
X183300000Y-116675000D03*
%TD*%
D10*
%TO.C,SW15*%
X127000000Y-105000000D03*
X133500000Y-105000000D03*
X127000000Y-109500000D03*
X133500000Y-109500000D03*
%TD*%
%TO.C,SW13*%
X107000000Y-105000000D03*
X113500000Y-105000000D03*
X107000000Y-109500000D03*
X113500000Y-109500000D03*
%TD*%
%TO.C,SW18*%
X162000000Y-105000000D03*
X168500000Y-105000000D03*
X162000000Y-109500000D03*
X168500000Y-109500000D03*
%TD*%
D16*
%TO.C,H2*%
X186000000Y-56000000D03*
%TD*%
D10*
%TO.C,SW11*%
X87000000Y-105000000D03*
X93500000Y-105000000D03*
X87000000Y-109500000D03*
X93500000Y-109500000D03*
%TD*%
%TO.C,SW2*%
X97000000Y-81000000D03*
X103500000Y-81000000D03*
X97000000Y-85500000D03*
X103500000Y-85500000D03*
%TD*%
%TO.C,SW7*%
X97000000Y-93000000D03*
X103500000Y-93000000D03*
X97000000Y-97500000D03*
X103500000Y-97500000D03*
%TD*%
D12*
%TO.C,D2*%
X157000000Y-128550000D03*
D13*
X159540000Y-128550000D03*
%TD*%
D12*
%TO.C,D1*%
X157000000Y-123000000D03*
D13*
X159540000Y-123000000D03*
%TD*%
D14*
%TO.C,J5*%
X144000000Y-130400000D03*
D15*
X144000000Y-119000000D03*
X144000000Y-127300000D03*
%TD*%
D10*
%TO.C,SW12*%
X97000000Y-105000000D03*
X103500000Y-105000000D03*
X97000000Y-109500000D03*
X103500000Y-109500000D03*
%TD*%
D16*
%TO.C,H3*%
X74000000Y-128000000D03*
%TD*%
D21*
%TO.C,R44*%
X185000000Y-118325000D03*
X185000000Y-116675000D03*
%TD*%
D12*
%TO.C,D4*%
X157000000Y-139650000D03*
D13*
X159540000Y-139650000D03*
%TD*%
D10*
%TO.C,SW4*%
X117000000Y-81000000D03*
X123500000Y-81000000D03*
X117000000Y-85500000D03*
X123500000Y-85500000D03*
%TD*%
D11*
%TO.C,RV12*%
X172700000Y-66500000D03*
X182300000Y-66500000D03*
D12*
X175000000Y-74000000D03*
D13*
X177500000Y-74000000D03*
X180000000Y-74000000D03*
%TD*%
D16*
%TO.C,H4*%
X186000000Y-128000000D03*
%TD*%
D14*
%TO.C,J9*%
X108000000Y-146400000D03*
D15*
X108000000Y-135000000D03*
X108000000Y-143300000D03*
%TD*%
D11*
%TO.C,RV6*%
X96700000Y-66500000D03*
X106300000Y-66500000D03*
D12*
X99000000Y-74000000D03*
D13*
X101500000Y-74000000D03*
X104000000Y-74000000D03*
%TD*%
D22*
%TO.C,J16*%
X74000000Y-137500000D03*
D23*
X74000000Y-140040000D03*
X74000000Y-142580000D03*
X74000000Y-145120000D03*
%TD*%
D14*
%TO.C,J3*%
X108000000Y-130400000D03*
D15*
X108000000Y-119000000D03*
X108000000Y-127300000D03*
%TD*%
D11*
%TO.C,RV5*%
X77700000Y-66500000D03*
X87300000Y-66500000D03*
D12*
X80000000Y-74000000D03*
D13*
X82500000Y-74000000D03*
X85000000Y-74000000D03*
%TD*%
D10*
%TO.C,SW5*%
X127000000Y-81000000D03*
X133500000Y-81000000D03*
X127000000Y-85500000D03*
X133500000Y-85500000D03*
%TD*%
D11*
%TO.C,RV2*%
X96700000Y-46500000D03*
X106300000Y-46500000D03*
D12*
X99000000Y-54000000D03*
D13*
X101500000Y-54000000D03*
X104000000Y-54000000D03*
%TD*%
D10*
%TO.C,SW16*%
X142000000Y-105000000D03*
X148500000Y-105000000D03*
X142000000Y-109500000D03*
X148500000Y-109500000D03*
%TD*%
D14*
%TO.C,J10*%
X84000000Y-146400000D03*
D15*
X84000000Y-135000000D03*
X84000000Y-143300000D03*
%TD*%
D10*
%TO.C,SW14*%
X117000000Y-105000000D03*
X123500000Y-105000000D03*
X117000000Y-109500000D03*
X123500000Y-109500000D03*
%TD*%
D24*
%TO.C,R23*%
X91000000Y-109000000D03*
X89350000Y-109000000D03*
%TD*%
%TO.C,R27*%
X131000000Y-109000000D03*
X129350000Y-109000000D03*
%TD*%
%TO.C,R29*%
X177100000Y-138400000D03*
X175450000Y-138400000D03*
%TD*%
D25*
%TO.C,R1*%
X162000000Y-122175000D03*
X162000000Y-123825000D03*
%TD*%
D24*
%TO.C,R22*%
X131000000Y-97000000D03*
X129350000Y-97000000D03*
%TD*%
%TO.C,R17*%
X131000000Y-85000000D03*
X129350000Y-85000000D03*
%TD*%
%TO.C,R18*%
X91000000Y-97000000D03*
X89350000Y-97000000D03*
%TD*%
%TO.C,R41*%
X156000000Y-109000000D03*
X154350000Y-109000000D03*
%TD*%
D25*
%TO.C,R11*%
X156210000Y-95250000D03*
X156210000Y-96900000D03*
%TD*%
D24*
%TO.C,R35*%
X177200000Y-122200000D03*
X175550000Y-122200000D03*
%TD*%
D21*
%TO.C,R9*%
X166370000Y-80010000D03*
X166370000Y-78360000D03*
%TD*%
D25*
%TO.C,R5*%
X153670000Y-95250000D03*
X153670000Y-96900000D03*
%TD*%
D24*
%TO.C,R26*%
X121000000Y-109000000D03*
X119350000Y-109000000D03*
%TD*%
%TO.C,R42*%
X166000000Y-109000000D03*
X164350000Y-109000000D03*
%TD*%
D22*
%TO.C,J7*%
X186000000Y-78000000D03*
D23*
X186000000Y-80540000D03*
X186000000Y-83080000D03*
X186000000Y-85620000D03*
X186000000Y-88160000D03*
X186000000Y-90700000D03*
X186000000Y-93240000D03*
X186000000Y-95780000D03*
X186000000Y-98320000D03*
X186000000Y-100860000D03*
X186000000Y-103400000D03*
X186000000Y-105940000D03*
%TD*%
D26*
%TO.C,U6*%
X151475000Y-53555000D03*
X151475000Y-54825000D03*
X151475000Y-56095000D03*
X151475000Y-57365000D03*
X151475000Y-58635000D03*
X151475000Y-59905000D03*
X151475000Y-61175000D03*
X151475000Y-62445000D03*
X146525000Y-62445000D03*
X146525000Y-61175000D03*
X146525000Y-59905000D03*
X146525000Y-58635000D03*
X146525000Y-57365000D03*
X146525000Y-56095000D03*
X146525000Y-54825000D03*
X146525000Y-53555000D03*
%TD*%
D24*
%TO.C,R14*%
X101000000Y-85000000D03*
X99350000Y-85000000D03*
%TD*%
D21*
%TO.C,R8*%
X156210000Y-80010000D03*
X156210000Y-78360000D03*
%TD*%
D26*
%TO.C,U1*%
X147950000Y-76650000D03*
X147950000Y-77920000D03*
X147950000Y-79190000D03*
X147950000Y-80460000D03*
X147950000Y-81730000D03*
X147950000Y-83000000D03*
X147950000Y-84270000D03*
X147950000Y-85540000D03*
X143000000Y-85540000D03*
X143000000Y-84270000D03*
X143000000Y-83000000D03*
X143000000Y-81730000D03*
X143000000Y-80460000D03*
X143000000Y-79190000D03*
X143000000Y-77920000D03*
X143000000Y-76650000D03*
%TD*%
D27*
%TO.C,R30*%
X122350000Y-119000000D03*
X124000000Y-119000000D03*
%TD*%
D24*
%TO.C,R15*%
X111000000Y-85000000D03*
X109350000Y-85000000D03*
%TD*%
D27*
%TO.C,R36*%
X122350000Y-135000000D03*
X124000000Y-135000000D03*
%TD*%
D24*
%TO.C,R21*%
X121000000Y-97000000D03*
X119350000Y-97000000D03*
%TD*%
%TO.C,R20*%
X111000000Y-97000000D03*
X109350000Y-97000000D03*
%TD*%
D25*
%TO.C,R10*%
X161290000Y-95250000D03*
X161290000Y-96900000D03*
%TD*%
D24*
%TO.C,R13*%
X91000000Y-85000000D03*
X89350000Y-85000000D03*
%TD*%
D25*
%TO.C,R4*%
X162000000Y-139000000D03*
X162000000Y-140650000D03*
%TD*%
%TO.C,R7*%
X158750000Y-95250000D03*
X158750000Y-96900000D03*
%TD*%
D28*
%TO.C,C4*%
X172700000Y-127800000D03*
X171150000Y-127800000D03*
%TD*%
D24*
%TO.C,R16*%
X121000000Y-85000000D03*
X119350000Y-85000000D03*
%TD*%
D25*
%TO.C,R6*%
X163830000Y-95250000D03*
X163830000Y-96900000D03*
%TD*%
D26*
%TO.C,U2*%
X148000000Y-88460000D03*
X148000000Y-89730000D03*
X148000000Y-91000000D03*
X148000000Y-92270000D03*
X148000000Y-93540000D03*
X148000000Y-94810000D03*
X148000000Y-96080000D03*
X148000000Y-97350000D03*
X143050000Y-97350000D03*
X143050000Y-96080000D03*
X143050000Y-94810000D03*
X143050000Y-93540000D03*
X143050000Y-92270000D03*
X143050000Y-91000000D03*
X143050000Y-89730000D03*
X143050000Y-88460000D03*
%TD*%
%TO.C,U9*%
X170475000Y-53555000D03*
X170475000Y-54825000D03*
X170475000Y-56095000D03*
X170475000Y-57365000D03*
X170475000Y-58635000D03*
X170475000Y-59905000D03*
X170475000Y-61175000D03*
X170475000Y-62445000D03*
X165525000Y-62445000D03*
X165525000Y-61175000D03*
X165525000Y-59905000D03*
X165525000Y-58635000D03*
X165525000Y-57365000D03*
X165525000Y-56095000D03*
X165525000Y-54825000D03*
X165525000Y-53555000D03*
%TD*%
D28*
%TO.C,C2*%
X172800000Y-143800000D03*
X171250000Y-143800000D03*
%TD*%
D25*
%TO.C,R2*%
X162000000Y-128000000D03*
X162000000Y-129650000D03*
%TD*%
D21*
%TO.C,R12*%
X158750000Y-80010000D03*
X158750000Y-78360000D03*
%TD*%
D26*
%TO.C,U5*%
X83475000Y-89555000D03*
X83475000Y-90825000D03*
X83475000Y-92095000D03*
X83475000Y-93365000D03*
X83475000Y-94635000D03*
X83475000Y-95905000D03*
X83475000Y-97175000D03*
X83475000Y-98445000D03*
X78525000Y-98445000D03*
X78525000Y-97175000D03*
X78525000Y-95905000D03*
X78525000Y-94635000D03*
X78525000Y-93365000D03*
X78525000Y-92095000D03*
X78525000Y-90825000D03*
X78525000Y-89555000D03*
%TD*%
D22*
%TO.C,J1*%
X74000000Y-70500000D03*
D23*
X74000000Y-73040000D03*
X74000000Y-75580000D03*
X74000000Y-78120000D03*
X74000000Y-80660000D03*
X74000000Y-83200000D03*
X74000000Y-85740000D03*
X74000000Y-88280000D03*
X74000000Y-90820000D03*
X74000000Y-93360000D03*
X74000000Y-95900000D03*
X74000000Y-98440000D03*
X74000000Y-100980000D03*
X74000000Y-103520000D03*
X74000000Y-106060000D03*
X74000000Y-108600000D03*
%TD*%
D28*
%TO.C,C1*%
X171500000Y-134500000D03*
X169950000Y-134500000D03*
%TD*%
D24*
%TO.C,R28*%
X146000000Y-109000000D03*
X144350000Y-109000000D03*
%TD*%
%TO.C,R34*%
X172850000Y-145400000D03*
X171200000Y-145400000D03*
%TD*%
%TO.C,R33*%
X171550000Y-132900000D03*
X169900000Y-132900000D03*
%TD*%
D26*
%TO.C,U10*%
X83475000Y-102555000D03*
X83475000Y-103825000D03*
X83475000Y-105095000D03*
X83475000Y-106365000D03*
X83475000Y-107635000D03*
X83475000Y-108905000D03*
X83475000Y-110175000D03*
X83475000Y-111445000D03*
X78525000Y-111445000D03*
X78525000Y-110175000D03*
X78525000Y-108905000D03*
X78525000Y-107635000D03*
X78525000Y-106365000D03*
X78525000Y-105095000D03*
X78525000Y-103825000D03*
X78525000Y-102555000D03*
%TD*%
D29*
%TO.C,U7*%
X170045000Y-136725000D03*
X171315000Y-136725000D03*
X172585000Y-136725000D03*
X173855000Y-136725000D03*
X173855000Y-141675000D03*
X172585000Y-141675000D03*
X171315000Y-141675000D03*
X170045000Y-141675000D03*
%TD*%
D28*
%TO.C,C3*%
X171600000Y-118600000D03*
X170050000Y-118600000D03*
%TD*%
D24*
%TO.C,R25*%
X111000000Y-109000000D03*
X109350000Y-109000000D03*
%TD*%
D29*
%TO.C,U8*%
X170080000Y-120725000D03*
X171350000Y-120725000D03*
X172620000Y-120725000D03*
X173890000Y-120725000D03*
X173890000Y-125675000D03*
X172620000Y-125675000D03*
X171350000Y-125675000D03*
X170080000Y-125675000D03*
%TD*%
D24*
%TO.C,R31*%
X177100000Y-140000000D03*
X175450000Y-140000000D03*
%TD*%
%TO.C,R39*%
X171650000Y-117000000D03*
X170000000Y-117000000D03*
%TD*%
D27*
%TO.C,R32*%
X134350000Y-119000000D03*
X136000000Y-119000000D03*
%TD*%
D24*
%TO.C,R43*%
X175825000Y-109000000D03*
X174175000Y-109000000D03*
%TD*%
D25*
%TO.C,R3*%
X162000000Y-133000000D03*
X162000000Y-134650000D03*
%TD*%
D24*
%TO.C,R37*%
X177200000Y-123800000D03*
X175550000Y-123800000D03*
%TD*%
D27*
%TO.C,R38*%
X134350000Y-135000000D03*
X136000000Y-135000000D03*
%TD*%
D24*
%TO.C,R40*%
X172750000Y-129400000D03*
X171100000Y-129400000D03*
%TD*%
%TO.C,R19*%
X101000000Y-97000000D03*
X99350000Y-97000000D03*
%TD*%
%TO.C,R24*%
X101000000Y-109000000D03*
X99350000Y-109000000D03*
%TD*%
D26*
%TO.C,U4*%
X83475000Y-76555000D03*
X83475000Y-77825000D03*
X83475000Y-79095000D03*
X83475000Y-80365000D03*
X83475000Y-81635000D03*
X83475000Y-82905000D03*
X83475000Y-84175000D03*
X83475000Y-85445000D03*
X78525000Y-85445000D03*
X78525000Y-84175000D03*
X78525000Y-82905000D03*
X78525000Y-81635000D03*
X78525000Y-80365000D03*
X78525000Y-79095000D03*
X78525000Y-77825000D03*
X78525000Y-76555000D03*
%TD*%
M02*
