%TF.GenerationSoftware,KiCad,Pcbnew,7.0.2*%
%TF.CreationDate,2025-03-10T10:37:47+00:00*%
%TF.ProjectId,dk2_04b_top,646b325f-3034-4625-9f74-6f702e6b6963,rev?*%
%TF.SameCoordinates,Original*%
%TF.FileFunction,Paste,Bot*%
%TF.FilePolarity,Positive*%
%FSLAX46Y46*%
G04 Gerber Fmt 4.6, Leading zero omitted, Abs format (unit mm)*
G04 Created by KiCad (PCBNEW 7.0.2) date 2025-03-10 10:37:47*
%MOMM*%
%LPD*%
G01*
G04 APERTURE LIST*
G04 Aperture macros list*
%AMRoundRect*
0 Rectangle with rounded corners*
0 $1 Rounding radius*
0 $2 $3 $4 $5 $6 $7 $8 $9 X,Y pos of 4 corners*
0 Add a 4 corners polygon primitive as box body*
4,1,4,$2,$3,$4,$5,$6,$7,$8,$9,$2,$3,0*
0 Add four circle primitives for the rounded corners*
1,1,$1+$1,$2,$3*
1,1,$1+$1,$4,$5*
1,1,$1+$1,$6,$7*
1,1,$1+$1,$8,$9*
0 Add four rect primitives between the rounded corners*
20,1,$1+$1,$2,$3,$4,$5,0*
20,1,$1+$1,$4,$5,$6,$7,0*
20,1,$1+$1,$6,$7,$8,$9,0*
20,1,$1+$1,$8,$9,$2,$3,0*%
G04 Aperture macros list end*
%ADD10RoundRect,0.200000X0.275000X-0.200000X0.275000X0.200000X-0.275000X0.200000X-0.275000X-0.200000X0*%
%ADD11RoundRect,0.200000X0.200000X0.275000X-0.200000X0.275000X-0.200000X-0.275000X0.200000X-0.275000X0*%
%ADD12RoundRect,0.200000X-0.275000X0.200000X-0.275000X-0.200000X0.275000X-0.200000X0.275000X0.200000X0*%
%ADD13RoundRect,0.150000X0.825000X0.150000X-0.825000X0.150000X-0.825000X-0.150000X0.825000X-0.150000X0*%
%ADD14RoundRect,0.200000X-0.200000X-0.275000X0.200000X-0.275000X0.200000X0.275000X-0.200000X0.275000X0*%
%ADD15RoundRect,0.225000X0.225000X0.250000X-0.225000X0.250000X-0.225000X-0.250000X0.225000X-0.250000X0*%
%ADD16RoundRect,0.150000X-0.150000X0.825000X-0.150000X-0.825000X0.150000X-0.825000X0.150000X0.825000X0*%
G04 APERTURE END LIST*
D10*
%TO.C,R45*%
X183300000Y-118325000D03*
X183300000Y-116675000D03*
%TD*%
%TO.C,R44*%
X185000000Y-118325000D03*
X185000000Y-116675000D03*
%TD*%
D11*
%TO.C,R23*%
X91000000Y-109000000D03*
X89350000Y-109000000D03*
%TD*%
%TO.C,R27*%
X131000000Y-109000000D03*
X129350000Y-109000000D03*
%TD*%
%TO.C,R29*%
X177100000Y-138400000D03*
X175450000Y-138400000D03*
%TD*%
D12*
%TO.C,R1*%
X162000000Y-122175000D03*
X162000000Y-123825000D03*
%TD*%
D11*
%TO.C,R22*%
X131000000Y-97000000D03*
X129350000Y-97000000D03*
%TD*%
%TO.C,R17*%
X131000000Y-85000000D03*
X129350000Y-85000000D03*
%TD*%
%TO.C,R18*%
X91000000Y-97000000D03*
X89350000Y-97000000D03*
%TD*%
%TO.C,R41*%
X156000000Y-109000000D03*
X154350000Y-109000000D03*
%TD*%
D12*
%TO.C,R11*%
X156210000Y-95250000D03*
X156210000Y-96900000D03*
%TD*%
D11*
%TO.C,R35*%
X177200000Y-122200000D03*
X175550000Y-122200000D03*
%TD*%
D10*
%TO.C,R9*%
X166370000Y-80010000D03*
X166370000Y-78360000D03*
%TD*%
D12*
%TO.C,R5*%
X153670000Y-95250000D03*
X153670000Y-96900000D03*
%TD*%
D11*
%TO.C,R26*%
X121000000Y-109000000D03*
X119350000Y-109000000D03*
%TD*%
%TO.C,R42*%
X166000000Y-109000000D03*
X164350000Y-109000000D03*
%TD*%
D13*
%TO.C,U6*%
X151475000Y-53555000D03*
X151475000Y-54825000D03*
X151475000Y-56095000D03*
X151475000Y-57365000D03*
X151475000Y-58635000D03*
X151475000Y-59905000D03*
X151475000Y-61175000D03*
X151475000Y-62445000D03*
X146525000Y-62445000D03*
X146525000Y-61175000D03*
X146525000Y-59905000D03*
X146525000Y-58635000D03*
X146525000Y-57365000D03*
X146525000Y-56095000D03*
X146525000Y-54825000D03*
X146525000Y-53555000D03*
%TD*%
D11*
%TO.C,R14*%
X101000000Y-85000000D03*
X99350000Y-85000000D03*
%TD*%
D10*
%TO.C,R8*%
X156210000Y-80010000D03*
X156210000Y-78360000D03*
%TD*%
D13*
%TO.C,U1*%
X147950000Y-76650000D03*
X147950000Y-77920000D03*
X147950000Y-79190000D03*
X147950000Y-80460000D03*
X147950000Y-81730000D03*
X147950000Y-83000000D03*
X147950000Y-84270000D03*
X147950000Y-85540000D03*
X143000000Y-85540000D03*
X143000000Y-84270000D03*
X143000000Y-83000000D03*
X143000000Y-81730000D03*
X143000000Y-80460000D03*
X143000000Y-79190000D03*
X143000000Y-77920000D03*
X143000000Y-76650000D03*
%TD*%
D14*
%TO.C,R30*%
X122350000Y-119000000D03*
X124000000Y-119000000D03*
%TD*%
D11*
%TO.C,R15*%
X111000000Y-85000000D03*
X109350000Y-85000000D03*
%TD*%
D14*
%TO.C,R36*%
X122350000Y-135000000D03*
X124000000Y-135000000D03*
%TD*%
D11*
%TO.C,R21*%
X121000000Y-97000000D03*
X119350000Y-97000000D03*
%TD*%
%TO.C,R20*%
X111000000Y-97000000D03*
X109350000Y-97000000D03*
%TD*%
D12*
%TO.C,R10*%
X161290000Y-95250000D03*
X161290000Y-96900000D03*
%TD*%
D11*
%TO.C,R13*%
X91000000Y-85000000D03*
X89350000Y-85000000D03*
%TD*%
D12*
%TO.C,R4*%
X162000000Y-139000000D03*
X162000000Y-140650000D03*
%TD*%
%TO.C,R7*%
X158750000Y-95250000D03*
X158750000Y-96900000D03*
%TD*%
D15*
%TO.C,C4*%
X172700000Y-127800000D03*
X171150000Y-127800000D03*
%TD*%
D11*
%TO.C,R16*%
X121000000Y-85000000D03*
X119350000Y-85000000D03*
%TD*%
D12*
%TO.C,R6*%
X163830000Y-95250000D03*
X163830000Y-96900000D03*
%TD*%
D13*
%TO.C,U2*%
X148000000Y-88460000D03*
X148000000Y-89730000D03*
X148000000Y-91000000D03*
X148000000Y-92270000D03*
X148000000Y-93540000D03*
X148000000Y-94810000D03*
X148000000Y-96080000D03*
X148000000Y-97350000D03*
X143050000Y-97350000D03*
X143050000Y-96080000D03*
X143050000Y-94810000D03*
X143050000Y-93540000D03*
X143050000Y-92270000D03*
X143050000Y-91000000D03*
X143050000Y-89730000D03*
X143050000Y-88460000D03*
%TD*%
%TO.C,U9*%
X170475000Y-53555000D03*
X170475000Y-54825000D03*
X170475000Y-56095000D03*
X170475000Y-57365000D03*
X170475000Y-58635000D03*
X170475000Y-59905000D03*
X170475000Y-61175000D03*
X170475000Y-62445000D03*
X165525000Y-62445000D03*
X165525000Y-61175000D03*
X165525000Y-59905000D03*
X165525000Y-58635000D03*
X165525000Y-57365000D03*
X165525000Y-56095000D03*
X165525000Y-54825000D03*
X165525000Y-53555000D03*
%TD*%
D15*
%TO.C,C2*%
X172800000Y-143800000D03*
X171250000Y-143800000D03*
%TD*%
D12*
%TO.C,R2*%
X162000000Y-128000000D03*
X162000000Y-129650000D03*
%TD*%
D10*
%TO.C,R12*%
X158750000Y-80010000D03*
X158750000Y-78360000D03*
%TD*%
D13*
%TO.C,U5*%
X83475000Y-89555000D03*
X83475000Y-90825000D03*
X83475000Y-92095000D03*
X83475000Y-93365000D03*
X83475000Y-94635000D03*
X83475000Y-95905000D03*
X83475000Y-97175000D03*
X83475000Y-98445000D03*
X78525000Y-98445000D03*
X78525000Y-97175000D03*
X78525000Y-95905000D03*
X78525000Y-94635000D03*
X78525000Y-93365000D03*
X78525000Y-92095000D03*
X78525000Y-90825000D03*
X78525000Y-89555000D03*
%TD*%
D15*
%TO.C,C1*%
X171500000Y-134500000D03*
X169950000Y-134500000D03*
%TD*%
D11*
%TO.C,R28*%
X146000000Y-109000000D03*
X144350000Y-109000000D03*
%TD*%
%TO.C,R34*%
X172850000Y-145400000D03*
X171200000Y-145400000D03*
%TD*%
%TO.C,R33*%
X171550000Y-132900000D03*
X169900000Y-132900000D03*
%TD*%
D13*
%TO.C,U10*%
X83475000Y-102555000D03*
X83475000Y-103825000D03*
X83475000Y-105095000D03*
X83475000Y-106365000D03*
X83475000Y-107635000D03*
X83475000Y-108905000D03*
X83475000Y-110175000D03*
X83475000Y-111445000D03*
X78525000Y-111445000D03*
X78525000Y-110175000D03*
X78525000Y-108905000D03*
X78525000Y-107635000D03*
X78525000Y-106365000D03*
X78525000Y-105095000D03*
X78525000Y-103825000D03*
X78525000Y-102555000D03*
%TD*%
D16*
%TO.C,U7*%
X170045000Y-136725000D03*
X171315000Y-136725000D03*
X172585000Y-136725000D03*
X173855000Y-136725000D03*
X173855000Y-141675000D03*
X172585000Y-141675000D03*
X171315000Y-141675000D03*
X170045000Y-141675000D03*
%TD*%
D15*
%TO.C,C3*%
X171600000Y-118600000D03*
X170050000Y-118600000D03*
%TD*%
D11*
%TO.C,R25*%
X111000000Y-109000000D03*
X109350000Y-109000000D03*
%TD*%
D16*
%TO.C,U8*%
X170080000Y-120725000D03*
X171350000Y-120725000D03*
X172620000Y-120725000D03*
X173890000Y-120725000D03*
X173890000Y-125675000D03*
X172620000Y-125675000D03*
X171350000Y-125675000D03*
X170080000Y-125675000D03*
%TD*%
D11*
%TO.C,R31*%
X177100000Y-140000000D03*
X175450000Y-140000000D03*
%TD*%
%TO.C,R39*%
X171650000Y-117000000D03*
X170000000Y-117000000D03*
%TD*%
D14*
%TO.C,R32*%
X134350000Y-119000000D03*
X136000000Y-119000000D03*
%TD*%
D11*
%TO.C,R43*%
X175825000Y-109000000D03*
X174175000Y-109000000D03*
%TD*%
D12*
%TO.C,R3*%
X162000000Y-133000000D03*
X162000000Y-134650000D03*
%TD*%
D11*
%TO.C,R37*%
X177200000Y-123800000D03*
X175550000Y-123800000D03*
%TD*%
D14*
%TO.C,R38*%
X134350000Y-135000000D03*
X136000000Y-135000000D03*
%TD*%
D11*
%TO.C,R40*%
X172750000Y-129400000D03*
X171100000Y-129400000D03*
%TD*%
%TO.C,R19*%
X101000000Y-97000000D03*
X99350000Y-97000000D03*
%TD*%
%TO.C,R24*%
X101000000Y-109000000D03*
X99350000Y-109000000D03*
%TD*%
D13*
%TO.C,U4*%
X83475000Y-76555000D03*
X83475000Y-77825000D03*
X83475000Y-79095000D03*
X83475000Y-80365000D03*
X83475000Y-81635000D03*
X83475000Y-82905000D03*
X83475000Y-84175000D03*
X83475000Y-85445000D03*
X78525000Y-85445000D03*
X78525000Y-84175000D03*
X78525000Y-82905000D03*
X78525000Y-81635000D03*
X78525000Y-80365000D03*
X78525000Y-79095000D03*
X78525000Y-77825000D03*
X78525000Y-76555000D03*
%TD*%
M02*
