%TF.GenerationSoftware,KiCad,Pcbnew,9.0.1*%
%TF.CreationDate,2025-05-20T14:13:23+01:00*%
%TF.ProjectId,dk2_05,646b325f-3035-42e6-9b69-6361645f7063,rev?*%
%TF.SameCoordinates,Original*%
%TF.FileFunction,Legend,Top*%
%TF.FilePolarity,Positive*%
%FSLAX46Y46*%
G04 Gerber Fmt 4.6, Leading zero omitted, Abs format (unit mm)*
G04 Created by KiCad (PCBNEW 9.0.1) date 2025-05-20 14:13:23*
%MOMM*%
%LPD*%
G01*
G04 APERTURE LIST*
G04 Aperture macros list*
%AMRoundRect*
0 Rectangle with rounded corners*
0 $1 Rounding radius*
0 $2 $3 $4 $5 $6 $7 $8 $9 X,Y pos of 4 corners*
0 Add a 4 corners polygon primitive as box body*
4,1,4,$2,$3,$4,$5,$6,$7,$8,$9,$2,$3,0*
0 Add four circle primitives for the rounded corners*
1,1,$1+$1,$2,$3*
1,1,$1+$1,$4,$5*
1,1,$1+$1,$6,$7*
1,1,$1+$1,$8,$9*
0 Add four rect primitives between the rounded corners*
20,1,$1+$1,$2,$3,$4,$5,0*
20,1,$1+$1,$4,$5,$6,$7,0*
20,1,$1+$1,$6,$7,$8,$9,0*
20,1,$1+$1,$8,$9,$2,$3,0*%
G04 Aperture macros list end*
%ADD10C,0.300000*%
%ADD11C,0.150000*%
%ADD12C,0.120000*%
%ADD13C,0.200000*%
%ADD14C,0.060000*%
%ADD15C,0.080000*%
%ADD16C,2.000000*%
%ADD17O,2.720000X3.240000*%
%ADD18R,1.800000X1.800000*%
%ADD19C,1.800000*%
%ADD20O,3.100000X2.300000*%
%ADD21RoundRect,0.650000X-0.650000X-0.650000X0.650000X-0.650000X0.650000X0.650000X-0.650000X0.650000X0*%
%ADD22C,1.050000*%
%ADD23R,1.350000X1.350000*%
%ADD24R,1.700000X1.700000*%
%ADD25C,1.700000*%
%ADD26RoundRect,0.250000X-0.600000X-0.600000X0.600000X-0.600000X0.600000X0.600000X-0.600000X0.600000X0*%
%ADD27R,1.500000X1.500000*%
%ADD28C,1.500000*%
G04 APERTURE END LIST*
D10*
X159804510Y-128979400D02*
X160947368Y-128979400D01*
X160375939Y-129550828D02*
X160375939Y-128407971D01*
X159804510Y-134479400D02*
X160947368Y-134479400D01*
X160375939Y-135050828D02*
X160375939Y-133907971D01*
X159804510Y-140229400D02*
X160947368Y-140229400D01*
X160375939Y-140800828D02*
X160375939Y-139657971D01*
D11*
X84812969Y-58625057D02*
X84812969Y-55625057D01*
X84812969Y-55625057D02*
X85527255Y-55625057D01*
X85527255Y-55625057D02*
X85955826Y-55767914D01*
X85955826Y-55767914D02*
X86241541Y-56053628D01*
X86241541Y-56053628D02*
X86384398Y-56339342D01*
X86384398Y-56339342D02*
X86527255Y-56910771D01*
X86527255Y-56910771D02*
X86527255Y-57339342D01*
X86527255Y-57339342D02*
X86384398Y-57910771D01*
X86384398Y-57910771D02*
X86241541Y-58196485D01*
X86241541Y-58196485D02*
X85955826Y-58482200D01*
X85955826Y-58482200D02*
X85527255Y-58625057D01*
X85527255Y-58625057D02*
X84812969Y-58625057D01*
X87812969Y-58625057D02*
X87812969Y-56625057D01*
X87812969Y-57196485D02*
X87955826Y-56910771D01*
X87955826Y-56910771D02*
X88098684Y-56767914D01*
X88098684Y-56767914D02*
X88384398Y-56625057D01*
X88384398Y-56625057D02*
X88670112Y-56625057D01*
X90955827Y-56625057D02*
X90955827Y-58625057D01*
X89670112Y-56625057D02*
X89670112Y-58196485D01*
X89670112Y-58196485D02*
X89812969Y-58482200D01*
X89812969Y-58482200D02*
X90098684Y-58625057D01*
X90098684Y-58625057D02*
X90527255Y-58625057D01*
X90527255Y-58625057D02*
X90812969Y-58482200D01*
X90812969Y-58482200D02*
X90955827Y-58339342D01*
X92384398Y-58625057D02*
X92384398Y-56625057D01*
X92384398Y-56910771D02*
X92527255Y-56767914D01*
X92527255Y-56767914D02*
X92812970Y-56625057D01*
X92812970Y-56625057D02*
X93241541Y-56625057D01*
X93241541Y-56625057D02*
X93527255Y-56767914D01*
X93527255Y-56767914D02*
X93670113Y-57053628D01*
X93670113Y-57053628D02*
X93670113Y-58625057D01*
X93670113Y-57053628D02*
X93812970Y-56767914D01*
X93812970Y-56767914D02*
X94098684Y-56625057D01*
X94098684Y-56625057D02*
X94527255Y-56625057D01*
X94527255Y-56625057D02*
X94812970Y-56767914D01*
X94812970Y-56767914D02*
X94955827Y-57053628D01*
X94955827Y-57053628D02*
X94955827Y-58625057D01*
X96384398Y-58625057D02*
X96384398Y-55625057D01*
X96670113Y-57482200D02*
X97527255Y-58625057D01*
X97527255Y-56625057D02*
X96384398Y-57767914D01*
X98812969Y-58625057D02*
X98812969Y-56625057D01*
X98812969Y-55625057D02*
X98670112Y-55767914D01*
X98670112Y-55767914D02*
X98812969Y-55910771D01*
X98812969Y-55910771D02*
X98955826Y-55767914D01*
X98955826Y-55767914D02*
X98812969Y-55625057D01*
X98812969Y-55625057D02*
X98812969Y-55910771D01*
X101527255Y-58625057D02*
X101527255Y-55625057D01*
X101527255Y-58482200D02*
X101241540Y-58625057D01*
X101241540Y-58625057D02*
X100670112Y-58625057D01*
X100670112Y-58625057D02*
X100384397Y-58482200D01*
X100384397Y-58482200D02*
X100241540Y-58339342D01*
X100241540Y-58339342D02*
X100098683Y-58053628D01*
X100098683Y-58053628D02*
X100098683Y-57196485D01*
X100098683Y-57196485D02*
X100241540Y-56910771D01*
X100241540Y-56910771D02*
X100384397Y-56767914D01*
X100384397Y-56767914D02*
X100670112Y-56625057D01*
X100670112Y-56625057D02*
X101241540Y-56625057D01*
X101241540Y-56625057D02*
X101527255Y-56767914D01*
X105098683Y-55910771D02*
X105241540Y-55767914D01*
X105241540Y-55767914D02*
X105527255Y-55625057D01*
X105527255Y-55625057D02*
X106241540Y-55625057D01*
X106241540Y-55625057D02*
X106527255Y-55767914D01*
X106527255Y-55767914D02*
X106670112Y-55910771D01*
X106670112Y-55910771D02*
X106812969Y-56196485D01*
X106812969Y-56196485D02*
X106812969Y-56482200D01*
X106812969Y-56482200D02*
X106670112Y-56910771D01*
X106670112Y-56910771D02*
X104955826Y-58625057D01*
X104955826Y-58625057D02*
X106812969Y-58625057D01*
X108098683Y-58339342D02*
X108241540Y-58482200D01*
X108241540Y-58482200D02*
X108098683Y-58625057D01*
X108098683Y-58625057D02*
X107955826Y-58482200D01*
X107955826Y-58482200D02*
X108098683Y-58339342D01*
X108098683Y-58339342D02*
X108098683Y-58625057D01*
X110098683Y-55625057D02*
X110384397Y-55625057D01*
X110384397Y-55625057D02*
X110670111Y-55767914D01*
X110670111Y-55767914D02*
X110812969Y-55910771D01*
X110812969Y-55910771D02*
X110955826Y-56196485D01*
X110955826Y-56196485D02*
X111098683Y-56767914D01*
X111098683Y-56767914D02*
X111098683Y-57482200D01*
X111098683Y-57482200D02*
X110955826Y-58053628D01*
X110955826Y-58053628D02*
X110812969Y-58339342D01*
X110812969Y-58339342D02*
X110670111Y-58482200D01*
X110670111Y-58482200D02*
X110384397Y-58625057D01*
X110384397Y-58625057D02*
X110098683Y-58625057D01*
X110098683Y-58625057D02*
X109812969Y-58482200D01*
X109812969Y-58482200D02*
X109670111Y-58339342D01*
X109670111Y-58339342D02*
X109527254Y-58053628D01*
X109527254Y-58053628D02*
X109384397Y-57482200D01*
X109384397Y-57482200D02*
X109384397Y-56767914D01*
X109384397Y-56767914D02*
X109527254Y-56196485D01*
X109527254Y-56196485D02*
X109670111Y-55910771D01*
X109670111Y-55910771D02*
X109812969Y-55767914D01*
X109812969Y-55767914D02*
X110098683Y-55625057D01*
X113812969Y-55625057D02*
X112384397Y-55625057D01*
X112384397Y-55625057D02*
X112241540Y-57053628D01*
X112241540Y-57053628D02*
X112384397Y-56910771D01*
X112384397Y-56910771D02*
X112670112Y-56767914D01*
X112670112Y-56767914D02*
X113384397Y-56767914D01*
X113384397Y-56767914D02*
X113670112Y-56910771D01*
X113670112Y-56910771D02*
X113812969Y-57053628D01*
X113812969Y-57053628D02*
X113955826Y-57339342D01*
X113955826Y-57339342D02*
X113955826Y-58053628D01*
X113955826Y-58053628D02*
X113812969Y-58339342D01*
X113812969Y-58339342D02*
X113670112Y-58482200D01*
X113670112Y-58482200D02*
X113384397Y-58625057D01*
X113384397Y-58625057D02*
X112670112Y-58625057D01*
X112670112Y-58625057D02*
X112384397Y-58482200D01*
X112384397Y-58482200D02*
X112241540Y-58339342D01*
X118384397Y-59767914D02*
X118241540Y-59625057D01*
X118241540Y-59625057D02*
X117955826Y-59196485D01*
X117955826Y-59196485D02*
X117812969Y-58910771D01*
X117812969Y-58910771D02*
X117670111Y-58482200D01*
X117670111Y-58482200D02*
X117527254Y-57767914D01*
X117527254Y-57767914D02*
X117527254Y-57196485D01*
X117527254Y-57196485D02*
X117670111Y-56482200D01*
X117670111Y-56482200D02*
X117812969Y-56053628D01*
X117812969Y-56053628D02*
X117955826Y-55767914D01*
X117955826Y-55767914D02*
X118241540Y-55339342D01*
X118241540Y-55339342D02*
X118384397Y-55196485D01*
X119527254Y-57053628D02*
X120527254Y-57053628D01*
X120955826Y-58625057D02*
X119527254Y-58625057D01*
X119527254Y-58625057D02*
X119527254Y-55625057D01*
X119527254Y-55625057D02*
X120955826Y-55625057D01*
X123527255Y-56625057D02*
X123527255Y-58625057D01*
X122241540Y-56625057D02*
X122241540Y-58196485D01*
X122241540Y-58196485D02*
X122384397Y-58482200D01*
X122384397Y-58482200D02*
X122670112Y-58625057D01*
X122670112Y-58625057D02*
X123098683Y-58625057D01*
X123098683Y-58625057D02*
X123384397Y-58482200D01*
X123384397Y-58482200D02*
X123527255Y-58339342D01*
X124955826Y-58625057D02*
X124955826Y-56625057D01*
X124955826Y-57196485D02*
X125098683Y-56910771D01*
X125098683Y-56910771D02*
X125241541Y-56767914D01*
X125241541Y-56767914D02*
X125527255Y-56625057D01*
X125527255Y-56625057D02*
X125812969Y-56625057D01*
X127241541Y-58625057D02*
X126955826Y-58482200D01*
X126955826Y-58482200D02*
X126812969Y-58339342D01*
X126812969Y-58339342D02*
X126670112Y-58053628D01*
X126670112Y-58053628D02*
X126670112Y-57196485D01*
X126670112Y-57196485D02*
X126812969Y-56910771D01*
X126812969Y-56910771D02*
X126955826Y-56767914D01*
X126955826Y-56767914D02*
X127241541Y-56625057D01*
X127241541Y-56625057D02*
X127670112Y-56625057D01*
X127670112Y-56625057D02*
X127955826Y-56767914D01*
X127955826Y-56767914D02*
X128098684Y-56910771D01*
X128098684Y-56910771D02*
X128241541Y-57196485D01*
X128241541Y-57196485D02*
X128241541Y-58053628D01*
X128241541Y-58053628D02*
X128098684Y-58339342D01*
X128098684Y-58339342D02*
X127955826Y-58482200D01*
X127955826Y-58482200D02*
X127670112Y-58625057D01*
X127670112Y-58625057D02*
X127241541Y-58625057D01*
X129527255Y-58625057D02*
X129527255Y-56625057D01*
X129527255Y-57196485D02*
X129670112Y-56910771D01*
X129670112Y-56910771D02*
X129812970Y-56767914D01*
X129812970Y-56767914D02*
X130098684Y-56625057D01*
X130098684Y-56625057D02*
X130384398Y-56625057D01*
X132670113Y-58625057D02*
X132670113Y-57053628D01*
X132670113Y-57053628D02*
X132527255Y-56767914D01*
X132527255Y-56767914D02*
X132241541Y-56625057D01*
X132241541Y-56625057D02*
X131670113Y-56625057D01*
X131670113Y-56625057D02*
X131384398Y-56767914D01*
X132670113Y-58482200D02*
X132384398Y-58625057D01*
X132384398Y-58625057D02*
X131670113Y-58625057D01*
X131670113Y-58625057D02*
X131384398Y-58482200D01*
X131384398Y-58482200D02*
X131241541Y-58196485D01*
X131241541Y-58196485D02*
X131241541Y-57910771D01*
X131241541Y-57910771D02*
X131384398Y-57625057D01*
X131384398Y-57625057D02*
X131670113Y-57482200D01*
X131670113Y-57482200D02*
X132384398Y-57482200D01*
X132384398Y-57482200D02*
X132670113Y-57339342D01*
X135384399Y-58482200D02*
X135098684Y-58625057D01*
X135098684Y-58625057D02*
X134527256Y-58625057D01*
X134527256Y-58625057D02*
X134241541Y-58482200D01*
X134241541Y-58482200D02*
X134098684Y-58339342D01*
X134098684Y-58339342D02*
X133955827Y-58053628D01*
X133955827Y-58053628D02*
X133955827Y-57196485D01*
X133955827Y-57196485D02*
X134098684Y-56910771D01*
X134098684Y-56910771D02*
X134241541Y-56767914D01*
X134241541Y-56767914D02*
X134527256Y-56625057D01*
X134527256Y-56625057D02*
X135098684Y-56625057D01*
X135098684Y-56625057D02*
X135384399Y-56767914D01*
X136670113Y-58625057D02*
X136670113Y-55625057D01*
X136955828Y-57482200D02*
X137812970Y-58625057D01*
X137812970Y-56625057D02*
X136670113Y-57767914D01*
X138812970Y-59767914D02*
X138955827Y-59625057D01*
X138955827Y-59625057D02*
X139241541Y-59196485D01*
X139241541Y-59196485D02*
X139384399Y-58910771D01*
X139384399Y-58910771D02*
X139527256Y-58482200D01*
X139527256Y-58482200D02*
X139670113Y-57767914D01*
X139670113Y-57767914D02*
X139670113Y-57196485D01*
X139670113Y-57196485D02*
X139527256Y-56482200D01*
X139527256Y-56482200D02*
X139384399Y-56053628D01*
X139384399Y-56053628D02*
X139241541Y-55767914D01*
X139241541Y-55767914D02*
X138955827Y-55339342D01*
X138955827Y-55339342D02*
X138812970Y-55196485D01*
D10*
X159804510Y-123479400D02*
X160947368Y-123479400D01*
X160375939Y-124050828D02*
X160375939Y-122907971D01*
D12*
%TO.C,SW10*%
X119000000Y-96750000D02*
X119000000Y-98250000D01*
X120250000Y-100750000D02*
X124750000Y-100750000D01*
X124750000Y-94250000D02*
X120250000Y-94250000D01*
X126000000Y-98250000D02*
X126000000Y-96750000D01*
%TO.C,SW8*%
X99000000Y-96750000D02*
X99000000Y-98250000D01*
X100250000Y-100750000D02*
X104750000Y-100750000D01*
X104750000Y-94250000D02*
X100250000Y-94250000D01*
X106000000Y-98250000D02*
X106000000Y-96750000D01*
%TO.C,RV3*%
X115120000Y-52120000D02*
X115120000Y-47400000D01*
X115130000Y-43590000D02*
X115130000Y-40530000D01*
X116310000Y-52120000D02*
X115130000Y-52120000D01*
X119210000Y-52120000D02*
X118680000Y-52120000D01*
X121660000Y-52120000D02*
X120830000Y-52120000D01*
X124870000Y-40530000D02*
X115130000Y-40530000D01*
X124870000Y-43590000D02*
X124870000Y-40530000D01*
X124870000Y-52120000D02*
X123380000Y-52120000D01*
X124870000Y-52120000D02*
X124870000Y-47400000D01*
D13*
%TO.C,J1*%
X91500000Y-117920000D02*
X94400000Y-117920000D01*
X91500000Y-128420000D02*
X91500000Y-117920000D01*
X91500000Y-128420000D02*
X94500000Y-128420000D01*
X97500000Y-128420000D02*
X100500000Y-128420000D01*
X97600000Y-117920000D02*
X100500000Y-117920000D01*
X100500000Y-128420000D02*
X100500000Y-117920000D01*
D12*
X94703737Y-126508577D02*
G75*
G02*
X96000000Y-121024999I1296263J2588577D01*
G01*
X96000000Y-121025000D02*
G75*
G02*
X97296263Y-126508576I0J-2895000D01*
G01*
X97800000Y-123920000D02*
G75*
G02*
X94200000Y-123920000I-1800000J0D01*
G01*
X94200000Y-123920000D02*
G75*
G02*
X97800000Y-123920000I1800000J0D01*
G01*
D13*
%TO.C,J12*%
X127500000Y-117920000D02*
X130400000Y-117920000D01*
X127500000Y-128420000D02*
X127500000Y-117920000D01*
X127500000Y-128420000D02*
X130500000Y-128420000D01*
X133500000Y-128420000D02*
X136500000Y-128420000D01*
X133600000Y-117920000D02*
X136500000Y-117920000D01*
X136500000Y-128420000D02*
X136500000Y-117920000D01*
D12*
X130703737Y-126508577D02*
G75*
G02*
X132000000Y-121024999I1296263J2588577D01*
G01*
X132000000Y-121025000D02*
G75*
G02*
X133296263Y-126508576I0J-2895000D01*
G01*
X133800000Y-123920000D02*
G75*
G02*
X130200000Y-123920000I-1800000J0D01*
G01*
X130200000Y-123920000D02*
G75*
G02*
X133800000Y-123920000I1800000J0D01*
G01*
%TO.C,RV8*%
X135120000Y-74120000D02*
X135120000Y-69400000D01*
X135130000Y-65590000D02*
X135130000Y-62530000D01*
X136310000Y-74120000D02*
X135130000Y-74120000D01*
X139210000Y-74120000D02*
X138680000Y-74120000D01*
X141660000Y-74120000D02*
X140830000Y-74120000D01*
X144870000Y-62530000D02*
X135130000Y-62530000D01*
X144870000Y-65590000D02*
X144870000Y-62530000D01*
X144870000Y-74120000D02*
X143380000Y-74120000D01*
X144870000Y-74120000D02*
X144870000Y-69400000D01*
D13*
%TO.C,J11*%
X115500000Y-117920000D02*
X118400000Y-117920000D01*
X115500000Y-128420000D02*
X115500000Y-117920000D01*
X115500000Y-128420000D02*
X118500000Y-128420000D01*
X121500000Y-128420000D02*
X124500000Y-128420000D01*
X121600000Y-117920000D02*
X124500000Y-117920000D01*
X124500000Y-128420000D02*
X124500000Y-117920000D01*
D12*
X118703737Y-126508577D02*
G75*
G02*
X120000000Y-121024999I1296263J2588577D01*
G01*
X120000000Y-121025000D02*
G75*
G02*
X121296263Y-126508576I0J-2895000D01*
G01*
X121800000Y-123920000D02*
G75*
G02*
X118200000Y-123920000I-1800000J0D01*
G01*
X118200000Y-123920000D02*
G75*
G02*
X121800000Y-123920000I1800000J0D01*
G01*
%TO.C,SW19*%
X174000000Y-108750000D02*
X174000000Y-110250000D01*
X175250000Y-112750000D02*
X179750000Y-112750000D01*
X179750000Y-106250000D02*
X175250000Y-106250000D01*
X181000000Y-110250000D02*
X181000000Y-108750000D01*
D13*
%TO.C,J9*%
X139500000Y-133920000D02*
X142400000Y-133920000D01*
X139500000Y-144420000D02*
X139500000Y-133920000D01*
X139500000Y-144420000D02*
X142500000Y-144420000D01*
X145500000Y-144420000D02*
X148500000Y-144420000D01*
X145600000Y-133920000D02*
X148500000Y-133920000D01*
X148500000Y-144420000D02*
X148500000Y-133920000D01*
D12*
X142703737Y-142508577D02*
G75*
G02*
X144000000Y-137024999I1296263J2588577D01*
G01*
X144000000Y-137025000D02*
G75*
G02*
X145296263Y-142508576I0J-2895000D01*
G01*
X145800000Y-139920000D02*
G75*
G02*
X142200000Y-139920000I-1800000J0D01*
G01*
X142200000Y-139920000D02*
G75*
G02*
X145800000Y-139920000I1800000J0D01*
G01*
%TO.C,RV4*%
X135120000Y-52120000D02*
X135120000Y-47400000D01*
X135130000Y-43590000D02*
X135130000Y-40530000D01*
X136310000Y-52120000D02*
X135130000Y-52120000D01*
X139210000Y-52120000D02*
X138680000Y-52120000D01*
X141660000Y-52120000D02*
X140830000Y-52120000D01*
X144870000Y-40530000D02*
X135130000Y-40530000D01*
X144870000Y-43590000D02*
X144870000Y-40530000D01*
X144870000Y-52120000D02*
X143380000Y-52120000D01*
X144870000Y-52120000D02*
X144870000Y-47400000D01*
%TO.C,SW3*%
X99000000Y-84750000D02*
X99000000Y-86250000D01*
X100250000Y-88750000D02*
X104750000Y-88750000D01*
X104750000Y-82250000D02*
X100250000Y-82250000D01*
X106000000Y-86250000D02*
X106000000Y-84750000D01*
%TO.C,RV1*%
X75120000Y-52120000D02*
X75120000Y-47400000D01*
X75130000Y-43590000D02*
X75130000Y-40530000D01*
X76310000Y-52120000D02*
X75130000Y-52120000D01*
X79210000Y-52120000D02*
X78680000Y-52120000D01*
X81660000Y-52120000D02*
X80830000Y-52120000D01*
X84870000Y-40530000D02*
X75130000Y-40530000D01*
X84870000Y-43590000D02*
X84870000Y-40530000D01*
X84870000Y-52120000D02*
X83380000Y-52120000D01*
X84870000Y-52120000D02*
X84870000Y-47400000D01*
%TO.C,RV10*%
X175120000Y-52120000D02*
X175120000Y-47400000D01*
X175130000Y-43590000D02*
X175130000Y-40530000D01*
X176310000Y-52120000D02*
X175130000Y-52120000D01*
X179210000Y-52120000D02*
X178680000Y-52120000D01*
X181660000Y-52120000D02*
X180830000Y-52120000D01*
X184870000Y-40530000D02*
X175130000Y-40530000D01*
X184870000Y-43590000D02*
X184870000Y-40530000D01*
X184870000Y-52120000D02*
X183380000Y-52120000D01*
X184870000Y-52120000D02*
X184870000Y-47400000D01*
D13*
%TO.C,J3*%
X79500000Y-117920000D02*
X82400000Y-117920000D01*
X79500000Y-128420000D02*
X79500000Y-117920000D01*
X79500000Y-128420000D02*
X82500000Y-128420000D01*
X85500000Y-128420000D02*
X88500000Y-128420000D01*
X85600000Y-117920000D02*
X88500000Y-117920000D01*
X88500000Y-128420000D02*
X88500000Y-117920000D01*
D12*
X82703737Y-126508577D02*
G75*
G02*
X84000000Y-121024999I1296263J2588577D01*
G01*
X84000000Y-121025000D02*
G75*
G02*
X85296263Y-126508576I0J-2895000D01*
G01*
X85800000Y-123920000D02*
G75*
G02*
X82200000Y-123920000I-1800000J0D01*
G01*
X82200000Y-123920000D02*
G75*
G02*
X85800000Y-123920000I1800000J0D01*
G01*
%TO.C,SW9*%
X109000000Y-96750000D02*
X109000000Y-98250000D01*
X110250000Y-100750000D02*
X114750000Y-100750000D01*
X114750000Y-94250000D02*
X110250000Y-94250000D01*
X116000000Y-98250000D02*
X116000000Y-96750000D01*
D13*
%TO.C,J13*%
X115500000Y-133920000D02*
X118400000Y-133920000D01*
X115500000Y-144420000D02*
X115500000Y-133920000D01*
X115500000Y-144420000D02*
X118500000Y-144420000D01*
X121500000Y-144420000D02*
X124500000Y-144420000D01*
X121600000Y-133920000D02*
X124500000Y-133920000D01*
X124500000Y-144420000D02*
X124500000Y-133920000D01*
D12*
X118703737Y-142508577D02*
G75*
G02*
X120000000Y-137024999I1296263J2588577D01*
G01*
X120000000Y-137025000D02*
G75*
G02*
X121296263Y-142508576I0J-2895000D01*
G01*
X121800000Y-139920000D02*
G75*
G02*
X118200000Y-139920000I-1800000J0D01*
G01*
X118200000Y-139920000D02*
G75*
G02*
X121800000Y-139920000I1800000J0D01*
G01*
D13*
%TO.C,J14*%
X127500000Y-133920000D02*
X130400000Y-133920000D01*
X127500000Y-144420000D02*
X127500000Y-133920000D01*
X127500000Y-144420000D02*
X130500000Y-144420000D01*
X133500000Y-144420000D02*
X136500000Y-144420000D01*
X133600000Y-133920000D02*
X136500000Y-133920000D01*
X136500000Y-144420000D02*
X136500000Y-133920000D01*
D12*
X130703737Y-142508577D02*
G75*
G02*
X132000000Y-137024999I1296263J2588577D01*
G01*
X132000000Y-137025000D02*
G75*
G02*
X133296263Y-142508576I0J-2895000D01*
G01*
X133800000Y-139920000D02*
G75*
G02*
X130200000Y-139920000I-1800000J0D01*
G01*
X130200000Y-139920000D02*
G75*
G02*
X133800000Y-139920000I1800000J0D01*
G01*
%TO.C,SW6*%
X79000000Y-96750000D02*
X79000000Y-98250000D01*
X80250000Y-100750000D02*
X84750000Y-100750000D01*
X84750000Y-94250000D02*
X80250000Y-94250000D01*
X86000000Y-98250000D02*
X86000000Y-96750000D01*
%TO.C,RV7*%
X115120000Y-74120000D02*
X115120000Y-69400000D01*
X115130000Y-65590000D02*
X115130000Y-62530000D01*
X116310000Y-74120000D02*
X115130000Y-74120000D01*
X119210000Y-74120000D02*
X118680000Y-74120000D01*
X121660000Y-74120000D02*
X120830000Y-74120000D01*
X124870000Y-62530000D02*
X115130000Y-62530000D01*
X124870000Y-65590000D02*
X124870000Y-62530000D01*
X124870000Y-74120000D02*
X123380000Y-74120000D01*
X124870000Y-74120000D02*
X124870000Y-69400000D01*
%TO.C,SW17*%
X154000000Y-108750000D02*
X154000000Y-110250000D01*
X155250000Y-112750000D02*
X159750000Y-112750000D01*
X159750000Y-106250000D02*
X155250000Y-106250000D01*
X161000000Y-110250000D02*
X161000000Y-108750000D01*
%TO.C,SW1*%
X79000000Y-84750000D02*
X79000000Y-86250000D01*
X80250000Y-88750000D02*
X84750000Y-88750000D01*
X84750000Y-82250000D02*
X80250000Y-82250000D01*
X86000000Y-86250000D02*
X86000000Y-84750000D01*
D14*
%TO.C,J5*%
X180220000Y-86700000D02*
X182020000Y-86700000D01*
X180220000Y-98700000D02*
X180220000Y-86700000D01*
D15*
X182020000Y-86700000D02*
X184320000Y-86700000D01*
D14*
X182020000Y-98700000D02*
X180220000Y-98700000D01*
D15*
X182020000Y-99500000D02*
X182020000Y-98700000D01*
X184320000Y-98700000D02*
X184320000Y-99500000D01*
D14*
X184320000Y-98700000D02*
X185120000Y-98700000D01*
D15*
X184320000Y-99500000D02*
X182020000Y-99500000D01*
D14*
X185120000Y-86700000D02*
X184320000Y-86700000D01*
X185120000Y-98700000D02*
X185120000Y-86700000D01*
D12*
%TO.C,D3*%
X155435000Y-133364000D02*
X155435000Y-133520000D01*
X155435000Y-135680000D02*
X155435000Y-135836000D01*
X155435000Y-133364484D02*
G75*
G02*
X158666397Y-133519939I1560000J-1235516D01*
G01*
X155954039Y-133520000D02*
G75*
G02*
X158035910Y-133519951I1040961J-1080000D01*
G01*
X158035910Y-135680049D02*
G75*
G02*
X155954039Y-135680000I-1040910J1080049D01*
G01*
X158666397Y-135680061D02*
G75*
G02*
X155435000Y-135835516I-1671397J1080061D01*
G01*
%TO.C,RV11*%
X155120000Y-74120000D02*
X155120000Y-69400000D01*
X155130000Y-65590000D02*
X155130000Y-62530000D01*
X156310000Y-74120000D02*
X155130000Y-74120000D01*
X159210000Y-74120000D02*
X158680000Y-74120000D01*
X161660000Y-74120000D02*
X160830000Y-74120000D01*
X164870000Y-62530000D02*
X155130000Y-62530000D01*
X164870000Y-65590000D02*
X164870000Y-62530000D01*
X164870000Y-74120000D02*
X163380000Y-74120000D01*
X164870000Y-74120000D02*
X164870000Y-69400000D01*
%TO.C,RV9*%
X155120000Y-52120000D02*
X155120000Y-47400000D01*
X155130000Y-43590000D02*
X155130000Y-40530000D01*
X156310000Y-52120000D02*
X155130000Y-52120000D01*
X159210000Y-52120000D02*
X158680000Y-52120000D01*
X161660000Y-52120000D02*
X160830000Y-52120000D01*
X164870000Y-40530000D02*
X155130000Y-40530000D01*
X164870000Y-43590000D02*
X164870000Y-40530000D01*
X164870000Y-52120000D02*
X163380000Y-52120000D01*
X164870000Y-52120000D02*
X164870000Y-47400000D01*
D13*
%TO.C,J6*%
X91500000Y-133920000D02*
X94400000Y-133920000D01*
X91500000Y-144420000D02*
X91500000Y-133920000D01*
X91500000Y-144420000D02*
X94500000Y-144420000D01*
X97500000Y-144420000D02*
X100500000Y-144420000D01*
X97600000Y-133920000D02*
X100500000Y-133920000D01*
X100500000Y-144420000D02*
X100500000Y-133920000D01*
D12*
X94703737Y-142508577D02*
G75*
G02*
X96000000Y-137024999I1296263J2588577D01*
G01*
X96000000Y-137025000D02*
G75*
G02*
X97296263Y-142508576I0J-2895000D01*
G01*
X97800000Y-139920000D02*
G75*
G02*
X94200000Y-139920000I-1800000J0D01*
G01*
X94200000Y-139920000D02*
G75*
G02*
X97800000Y-139920000I1800000J0D01*
G01*
%TO.C,SW15*%
X119000000Y-108750000D02*
X119000000Y-110250000D01*
X120250000Y-112750000D02*
X124750000Y-112750000D01*
X124750000Y-106250000D02*
X120250000Y-106250000D01*
X126000000Y-110250000D02*
X126000000Y-108750000D01*
%TO.C,SW13*%
X99000000Y-108750000D02*
X99000000Y-110250000D01*
X100250000Y-112750000D02*
X104750000Y-112750000D01*
X104750000Y-106250000D02*
X100250000Y-106250000D01*
X106000000Y-110250000D02*
X106000000Y-108750000D01*
%TO.C,SW18*%
X164000000Y-108750000D02*
X164000000Y-110250000D01*
X165250000Y-112750000D02*
X169750000Y-112750000D01*
X169750000Y-106250000D02*
X165250000Y-106250000D01*
X171000000Y-110250000D02*
X171000000Y-108750000D01*
%TO.C,SW11*%
X79000000Y-108750000D02*
X79000000Y-110250000D01*
X80250000Y-112750000D02*
X84750000Y-112750000D01*
X84750000Y-106250000D02*
X80250000Y-106250000D01*
X86000000Y-110250000D02*
X86000000Y-108750000D01*
%TO.C,SW2*%
X89000000Y-84750000D02*
X89000000Y-86250000D01*
X90250000Y-88750000D02*
X94750000Y-88750000D01*
X94750000Y-82250000D02*
X90250000Y-82250000D01*
X96000000Y-86250000D02*
X96000000Y-84750000D01*
%TO.C,SW7*%
X89000000Y-96750000D02*
X89000000Y-98250000D01*
X90250000Y-100750000D02*
X94750000Y-100750000D01*
X94750000Y-94250000D02*
X90250000Y-94250000D01*
X96000000Y-98250000D02*
X96000000Y-96750000D01*
%TO.C,D2*%
X155435000Y-127814000D02*
X155435000Y-127970000D01*
X155435000Y-130130000D02*
X155435000Y-130286000D01*
X155435000Y-127814484D02*
G75*
G02*
X158666397Y-127969939I1560000J-1235516D01*
G01*
X155954039Y-127970000D02*
G75*
G02*
X158035910Y-127969951I1040961J-1080000D01*
G01*
X158035910Y-130130049D02*
G75*
G02*
X155954039Y-130130000I-1040910J1080049D01*
G01*
X158666397Y-130130061D02*
G75*
G02*
X155435000Y-130285516I-1671397J1080061D01*
G01*
%TO.C,D1*%
X155435000Y-122264000D02*
X155435000Y-122420000D01*
X155435000Y-124580000D02*
X155435000Y-124736000D01*
X155435000Y-122264484D02*
G75*
G02*
X158666397Y-122419939I1560000J-1235516D01*
G01*
X155954039Y-122420000D02*
G75*
G02*
X158035910Y-122419951I1040961J-1080000D01*
G01*
X158035910Y-124580049D02*
G75*
G02*
X155954039Y-124580000I-1040910J1080049D01*
G01*
X158666397Y-124580061D02*
G75*
G02*
X155435000Y-124735516I-1671397J1080061D01*
G01*
D13*
%TO.C,J4*%
X139500000Y-117920000D02*
X142400000Y-117920000D01*
X139500000Y-128420000D02*
X139500000Y-117920000D01*
X139500000Y-128420000D02*
X142500000Y-128420000D01*
X145500000Y-128420000D02*
X148500000Y-128420000D01*
X145600000Y-117920000D02*
X148500000Y-117920000D01*
X148500000Y-128420000D02*
X148500000Y-117920000D01*
D12*
X142703737Y-126508577D02*
G75*
G02*
X144000000Y-121024999I1296263J2588577D01*
G01*
X144000000Y-121025000D02*
G75*
G02*
X145296263Y-126508576I0J-2895000D01*
G01*
X145800000Y-123920000D02*
G75*
G02*
X142200000Y-123920000I-1800000J0D01*
G01*
X142200000Y-123920000D02*
G75*
G02*
X145800000Y-123920000I1800000J0D01*
G01*
%TO.C,SW12*%
X89000000Y-108750000D02*
X89000000Y-110250000D01*
X90250000Y-112750000D02*
X94750000Y-112750000D01*
X94750000Y-106250000D02*
X90250000Y-106250000D01*
X96000000Y-110250000D02*
X96000000Y-108750000D01*
%TO.C,D4*%
X155435000Y-138914000D02*
X155435000Y-139070000D01*
X155435000Y-141230000D02*
X155435000Y-141386000D01*
X155435000Y-138914484D02*
G75*
G02*
X158666397Y-139069939I1560000J-1235516D01*
G01*
X155954039Y-139070000D02*
G75*
G02*
X158035910Y-139069951I1040961J-1080000D01*
G01*
X158035910Y-141230049D02*
G75*
G02*
X155954039Y-141230000I-1040910J1080049D01*
G01*
X158666397Y-141230061D02*
G75*
G02*
X155435000Y-141385516I-1671397J1080061D01*
G01*
%TO.C,SW4*%
X109000000Y-84750000D02*
X109000000Y-86250000D01*
X110250000Y-88750000D02*
X114750000Y-88750000D01*
X114750000Y-82250000D02*
X110250000Y-82250000D01*
X116000000Y-86250000D02*
X116000000Y-84750000D01*
%TO.C,RV12*%
X175120000Y-74120000D02*
X175120000Y-69400000D01*
X175130000Y-65590000D02*
X175130000Y-62530000D01*
X176310000Y-74120000D02*
X175130000Y-74120000D01*
X179210000Y-74120000D02*
X178680000Y-74120000D01*
X181660000Y-74120000D02*
X180830000Y-74120000D01*
X184870000Y-62530000D02*
X175130000Y-62530000D01*
X184870000Y-65590000D02*
X184870000Y-62530000D01*
X184870000Y-74120000D02*
X183380000Y-74120000D01*
X184870000Y-74120000D02*
X184870000Y-69400000D01*
D13*
%TO.C,J7*%
X103500000Y-133920000D02*
X106400000Y-133920000D01*
X103500000Y-144420000D02*
X103500000Y-133920000D01*
X103500000Y-144420000D02*
X106500000Y-144420000D01*
X109500000Y-144420000D02*
X112500000Y-144420000D01*
X109600000Y-133920000D02*
X112500000Y-133920000D01*
X112500000Y-144420000D02*
X112500000Y-133920000D01*
D12*
X106703737Y-142508577D02*
G75*
G02*
X108000000Y-137024999I1296263J2588577D01*
G01*
X108000000Y-137025000D02*
G75*
G02*
X109296263Y-142508576I0J-2895000D01*
G01*
X109800000Y-139920000D02*
G75*
G02*
X106200000Y-139920000I-1800000J0D01*
G01*
X106200000Y-139920000D02*
G75*
G02*
X109800000Y-139920000I1800000J0D01*
G01*
%TO.C,RV6*%
X95120000Y-74120000D02*
X95120000Y-69400000D01*
X95130000Y-65590000D02*
X95130000Y-62530000D01*
X96310000Y-74120000D02*
X95130000Y-74120000D01*
X99210000Y-74120000D02*
X98680000Y-74120000D01*
X101660000Y-74120000D02*
X100830000Y-74120000D01*
X104870000Y-62530000D02*
X95130000Y-62530000D01*
X104870000Y-65590000D02*
X104870000Y-62530000D01*
X104870000Y-74120000D02*
X103380000Y-74120000D01*
X104870000Y-74120000D02*
X104870000Y-69400000D01*
D13*
%TO.C,J2*%
X103500000Y-117920000D02*
X106400000Y-117920000D01*
X103500000Y-128420000D02*
X103500000Y-117920000D01*
X103500000Y-128420000D02*
X106500000Y-128420000D01*
X109500000Y-128420000D02*
X112500000Y-128420000D01*
X109600000Y-117920000D02*
X112500000Y-117920000D01*
X112500000Y-128420000D02*
X112500000Y-117920000D01*
D12*
X106703737Y-126508577D02*
G75*
G02*
X108000000Y-121024999I1296263J2588577D01*
G01*
X108000000Y-121025000D02*
G75*
G02*
X109296263Y-126508576I0J-2895000D01*
G01*
X109800000Y-123920000D02*
G75*
G02*
X106200000Y-123920000I-1800000J0D01*
G01*
X106200000Y-123920000D02*
G75*
G02*
X109800000Y-123920000I1800000J0D01*
G01*
%TO.C,RV5*%
X75120000Y-74120000D02*
X75120000Y-69400000D01*
X75130000Y-65590000D02*
X75130000Y-62530000D01*
X76310000Y-74120000D02*
X75130000Y-74120000D01*
X79210000Y-74120000D02*
X78680000Y-74120000D01*
X81660000Y-74120000D02*
X80830000Y-74120000D01*
X84870000Y-62530000D02*
X75130000Y-62530000D01*
X84870000Y-65590000D02*
X84870000Y-62530000D01*
X84870000Y-74120000D02*
X83380000Y-74120000D01*
X84870000Y-74120000D02*
X84870000Y-69400000D01*
%TO.C,SW5*%
X119000000Y-84750000D02*
X119000000Y-86250000D01*
X120250000Y-88750000D02*
X124750000Y-88750000D01*
X124750000Y-82250000D02*
X120250000Y-82250000D01*
X126000000Y-86250000D02*
X126000000Y-84750000D01*
%TO.C,RV2*%
X95120000Y-52120000D02*
X95120000Y-47400000D01*
X95130000Y-43590000D02*
X95130000Y-40530000D01*
X96310000Y-52120000D02*
X95130000Y-52120000D01*
X99210000Y-52120000D02*
X98680000Y-52120000D01*
X101660000Y-52120000D02*
X100830000Y-52120000D01*
X104870000Y-40530000D02*
X95130000Y-40530000D01*
X104870000Y-43590000D02*
X104870000Y-40530000D01*
X104870000Y-52120000D02*
X103380000Y-52120000D01*
X104870000Y-52120000D02*
X104870000Y-47400000D01*
%TO.C,SW16*%
X144000000Y-108750000D02*
X144000000Y-110250000D01*
X145250000Y-112750000D02*
X149750000Y-112750000D01*
X149750000Y-106250000D02*
X145250000Y-106250000D01*
X151000000Y-110250000D02*
X151000000Y-108750000D01*
D13*
%TO.C,J8*%
X79500000Y-133920000D02*
X82400000Y-133920000D01*
X79500000Y-144420000D02*
X79500000Y-133920000D01*
X79500000Y-144420000D02*
X82500000Y-144420000D01*
X85500000Y-144420000D02*
X88500000Y-144420000D01*
X85600000Y-133920000D02*
X88500000Y-133920000D01*
X88500000Y-144420000D02*
X88500000Y-133920000D01*
D12*
X82703737Y-142508577D02*
G75*
G02*
X84000000Y-137024999I1296263J2588577D01*
G01*
X84000000Y-137025000D02*
G75*
G02*
X85296263Y-142508576I0J-2895000D01*
G01*
X85800000Y-139920000D02*
G75*
G02*
X82200000Y-139920000I-1800000J0D01*
G01*
X82200000Y-139920000D02*
G75*
G02*
X85800000Y-139920000I1800000J0D01*
G01*
%TO.C,SW14*%
X109000000Y-108750000D02*
X109000000Y-110250000D01*
X110250000Y-112750000D02*
X114750000Y-112750000D01*
X114750000Y-106250000D02*
X110250000Y-106250000D01*
X116000000Y-110250000D02*
X116000000Y-108750000D01*
%TO.C,U3*%
X155150000Y-100190000D02*
X157150000Y-100190000D01*
X147500000Y-99730000D02*
X177500000Y-99730000D01*
X177500000Y-85730000D01*
X147500000Y-85730000D01*
X147500000Y-99730000D01*
%TD*%
%LPC*%
D16*
%TO.C,SW10*%
X119250000Y-95250000D03*
X125750000Y-95250000D03*
X119250000Y-99750000D03*
X125750000Y-99750000D03*
%TD*%
%TO.C,SW8*%
X99250000Y-95250000D03*
X105750000Y-95250000D03*
X99250000Y-99750000D03*
X105750000Y-99750000D03*
%TD*%
D17*
%TO.C,RV3*%
X115200000Y-45500000D03*
X124800000Y-45500000D03*
D18*
X117500000Y-53000000D03*
D19*
X120000000Y-53000000D03*
X122500000Y-53000000D03*
%TD*%
D20*
%TO.C,J1*%
X96000000Y-130400000D03*
D21*
X96000000Y-119000000D03*
X96000000Y-127300000D03*
%TD*%
D20*
%TO.C,J12*%
X132000000Y-130400000D03*
D21*
X132000000Y-119000000D03*
X132000000Y-127300000D03*
%TD*%
D17*
%TO.C,RV8*%
X135200000Y-67500000D03*
X144800000Y-67500000D03*
D18*
X137500000Y-75000000D03*
D19*
X140000000Y-75000000D03*
X142500000Y-75000000D03*
%TD*%
D20*
%TO.C,J11*%
X120000000Y-130400000D03*
D21*
X120000000Y-119000000D03*
X120000000Y-127300000D03*
%TD*%
D16*
%TO.C,SW19*%
X174250000Y-107250000D03*
X180750000Y-107250000D03*
X174250000Y-111750000D03*
X180750000Y-111750000D03*
%TD*%
D20*
%TO.C,J9*%
X144000000Y-146400000D03*
D21*
X144000000Y-135000000D03*
X144000000Y-143300000D03*
%TD*%
D17*
%TO.C,RV4*%
X135200000Y-45500000D03*
X144800000Y-45500000D03*
D18*
X137500000Y-53000000D03*
D19*
X140000000Y-53000000D03*
X142500000Y-53000000D03*
%TD*%
D16*
%TO.C,SW3*%
X99250000Y-83250000D03*
X105750000Y-83250000D03*
X99250000Y-87750000D03*
X105750000Y-87750000D03*
%TD*%
D17*
%TO.C,RV1*%
X75200000Y-45500000D03*
X84800000Y-45500000D03*
D18*
X77500000Y-53000000D03*
D19*
X80000000Y-53000000D03*
X82500000Y-53000000D03*
%TD*%
D17*
%TO.C,RV10*%
X175200000Y-45500000D03*
X184800000Y-45500000D03*
D18*
X177500000Y-53000000D03*
D19*
X180000000Y-53000000D03*
X182500000Y-53000000D03*
%TD*%
D20*
%TO.C,J3*%
X84000000Y-130400000D03*
D21*
X84000000Y-119000000D03*
X84000000Y-127300000D03*
%TD*%
D16*
%TO.C,SW9*%
X109250000Y-95250000D03*
X115750000Y-95250000D03*
X109250000Y-99750000D03*
X115750000Y-99750000D03*
%TD*%
D20*
%TO.C,J13*%
X120000000Y-146400000D03*
D21*
X120000000Y-135000000D03*
X120000000Y-143300000D03*
%TD*%
D20*
%TO.C,J14*%
X132000000Y-146400000D03*
D21*
X132000000Y-135000000D03*
X132000000Y-143300000D03*
%TD*%
D16*
%TO.C,SW6*%
X79250000Y-95250000D03*
X85750000Y-95250000D03*
X79250000Y-99750000D03*
X85750000Y-99750000D03*
%TD*%
D17*
%TO.C,RV7*%
X115200000Y-67500000D03*
X124800000Y-67500000D03*
D18*
X117500000Y-75000000D03*
D19*
X120000000Y-75000000D03*
X122500000Y-75000000D03*
%TD*%
D16*
%TO.C,SW17*%
X154250000Y-107250000D03*
X160750000Y-107250000D03*
X154250000Y-111750000D03*
X160750000Y-111750000D03*
%TD*%
%TO.C,SW1*%
X79250000Y-83250000D03*
X85750000Y-83250000D03*
X79250000Y-87750000D03*
X85750000Y-87750000D03*
%TD*%
D22*
%TO.C,J5*%
X181550000Y-96550000D03*
X180450000Y-95450000D03*
X181550000Y-94350000D03*
X180450000Y-93250000D03*
X181550000Y-92150000D03*
X180450000Y-91050000D03*
X181550000Y-89950000D03*
X180450000Y-88850000D03*
D23*
X184720000Y-97000000D03*
X184720000Y-88400000D03*
%TD*%
D18*
%TO.C,D3*%
X155725000Y-134600000D03*
D19*
X158265000Y-134600000D03*
%TD*%
D17*
%TO.C,RV11*%
X155200000Y-67500000D03*
X164800000Y-67500000D03*
D18*
X157500000Y-75000000D03*
D19*
X160000000Y-75000000D03*
X162500000Y-75000000D03*
%TD*%
D17*
%TO.C,RV9*%
X155200000Y-45500000D03*
X164800000Y-45500000D03*
D18*
X157500000Y-53000000D03*
D19*
X160000000Y-53000000D03*
X162500000Y-53000000D03*
%TD*%
D20*
%TO.C,J6*%
X96000000Y-146400000D03*
D21*
X96000000Y-135000000D03*
X96000000Y-143300000D03*
%TD*%
D16*
%TO.C,SW15*%
X119250000Y-107250000D03*
X125750000Y-107250000D03*
X119250000Y-111750000D03*
X125750000Y-111750000D03*
%TD*%
%TO.C,SW13*%
X99250000Y-107250000D03*
X105750000Y-107250000D03*
X99250000Y-111750000D03*
X105750000Y-111750000D03*
%TD*%
%TO.C,SW18*%
X164250000Y-107250000D03*
X170750000Y-107250000D03*
X164250000Y-111750000D03*
X170750000Y-111750000D03*
%TD*%
%TO.C,SW11*%
X79250000Y-107250000D03*
X85750000Y-107250000D03*
X79250000Y-111750000D03*
X85750000Y-111750000D03*
%TD*%
%TO.C,SW2*%
X89250000Y-83250000D03*
X95750000Y-83250000D03*
X89250000Y-87750000D03*
X95750000Y-87750000D03*
%TD*%
%TO.C,SW7*%
X89250000Y-95250000D03*
X95750000Y-95250000D03*
X89250000Y-99750000D03*
X95750000Y-99750000D03*
%TD*%
D18*
%TO.C,D2*%
X155725000Y-129050000D03*
D19*
X158265000Y-129050000D03*
%TD*%
D18*
%TO.C,D1*%
X155725000Y-123500000D03*
D19*
X158265000Y-123500000D03*
%TD*%
D20*
%TO.C,J4*%
X144000000Y-130400000D03*
D21*
X144000000Y-119000000D03*
X144000000Y-127300000D03*
%TD*%
D16*
%TO.C,SW12*%
X89250000Y-107250000D03*
X95750000Y-107250000D03*
X89250000Y-111750000D03*
X95750000Y-111750000D03*
%TD*%
D18*
%TO.C,D4*%
X155725000Y-140150000D03*
D19*
X158265000Y-140150000D03*
%TD*%
D16*
%TO.C,SW4*%
X109250000Y-83250000D03*
X115750000Y-83250000D03*
X109250000Y-87750000D03*
X115750000Y-87750000D03*
%TD*%
D17*
%TO.C,RV12*%
X175200000Y-67500000D03*
X184800000Y-67500000D03*
D18*
X177500000Y-75000000D03*
D19*
X180000000Y-75000000D03*
X182500000Y-75000000D03*
%TD*%
D20*
%TO.C,J7*%
X108000000Y-146400000D03*
D21*
X108000000Y-135000000D03*
X108000000Y-143300000D03*
%TD*%
D17*
%TO.C,RV6*%
X95200000Y-67500000D03*
X104800000Y-67500000D03*
D18*
X97500000Y-75000000D03*
D19*
X100000000Y-75000000D03*
X102500000Y-75000000D03*
%TD*%
D20*
%TO.C,J2*%
X108000000Y-130400000D03*
D21*
X108000000Y-119000000D03*
X108000000Y-127300000D03*
%TD*%
D17*
%TO.C,RV5*%
X75200000Y-67500000D03*
X84800000Y-67500000D03*
D18*
X77500000Y-75000000D03*
D19*
X80000000Y-75000000D03*
X82500000Y-75000000D03*
%TD*%
D16*
%TO.C,SW5*%
X119250000Y-83250000D03*
X125750000Y-83250000D03*
X119250000Y-87750000D03*
X125750000Y-87750000D03*
%TD*%
D17*
%TO.C,RV2*%
X95200000Y-45500000D03*
X104800000Y-45500000D03*
D18*
X97500000Y-53000000D03*
D19*
X100000000Y-53000000D03*
X102500000Y-53000000D03*
%TD*%
D16*
%TO.C,SW16*%
X144250000Y-107250000D03*
X150750000Y-107250000D03*
X144250000Y-111750000D03*
X150750000Y-111750000D03*
%TD*%
D20*
%TO.C,J8*%
X84000000Y-146400000D03*
D21*
X84000000Y-135000000D03*
X84000000Y-143300000D03*
%TD*%
D16*
%TO.C,SW14*%
X109250000Y-107250000D03*
X115750000Y-107250000D03*
X109250000Y-111750000D03*
X115750000Y-111750000D03*
%TD*%
D24*
%TO.C,J10*%
X185000000Y-111540000D03*
D25*
X185000000Y-109000000D03*
X185000000Y-106460000D03*
%TD*%
D26*
%TO.C,J16*%
X165000000Y-129180000D03*
D25*
X167540000Y-129180000D03*
X165000000Y-126640000D03*
X167540000Y-126640000D03*
X165000000Y-124100000D03*
X167540000Y-124100000D03*
X165000000Y-121560000D03*
X167540000Y-121560000D03*
X165000000Y-119020000D03*
X167540000Y-119020000D03*
%TD*%
D24*
%TO.C,J15*%
X146190000Y-58250000D03*
D25*
X148730000Y-58250000D03*
X151270000Y-58250000D03*
X153810000Y-58250000D03*
%TD*%
%TO.C,A1*%
X181490000Y-104070000D03*
X181490000Y-101530000D03*
X178950000Y-104070000D03*
X178950000Y-101530000D03*
X176410000Y-104070000D03*
X176410000Y-101530000D03*
X173870000Y-104070000D03*
X173870000Y-101530000D03*
X171330000Y-104070000D03*
X171330000Y-101530000D03*
X168790000Y-104070000D03*
X168790000Y-101530000D03*
X166250000Y-104070000D03*
X166250000Y-101530000D03*
X163710000Y-104070000D03*
X163710000Y-101530000D03*
X161170000Y-104070000D03*
X161170000Y-101530000D03*
X158630000Y-104070000D03*
X158630000Y-101530000D03*
X156090000Y-104070000D03*
X156090000Y-101530000D03*
X153550000Y-104070000D03*
X153550000Y-101530000D03*
X151010000Y-104070000D03*
X151010000Y-101530000D03*
X148470000Y-104070000D03*
X148470000Y-101530000D03*
X145930000Y-104070000D03*
X145930000Y-101530000D03*
X143390000Y-104070000D03*
X143390000Y-101530000D03*
X140850000Y-104070000D03*
X140850000Y-101530000D03*
X138310000Y-104070000D03*
X138310000Y-101530000D03*
X135770000Y-104070000D03*
X135770000Y-101530000D03*
X133230000Y-104070000D03*
X133230000Y-101530000D03*
X133230000Y-83750000D03*
X133230000Y-81210000D03*
X135770000Y-83750000D03*
X135770000Y-81210000D03*
X138310000Y-83750000D03*
X138310000Y-81210000D03*
X140850000Y-83750000D03*
X140850000Y-81210000D03*
X143390000Y-83750000D03*
X143390000Y-81210000D03*
X145930000Y-83750000D03*
X145930000Y-81210000D03*
X148470000Y-83750000D03*
X148470000Y-81210000D03*
X151010000Y-83750000D03*
X151010000Y-81210000D03*
X153550000Y-83750000D03*
X153550000Y-81210000D03*
X156090000Y-83750000D03*
X156090000Y-81210000D03*
X158630000Y-83750000D03*
X158630000Y-81210000D03*
X161170000Y-83750000D03*
X161170000Y-81210000D03*
X163710000Y-83750000D03*
X163710000Y-81210000D03*
X166250000Y-83750000D03*
X166250000Y-81210000D03*
X168790000Y-83750000D03*
X168790000Y-81210000D03*
X171330000Y-83750000D03*
X171330000Y-81210000D03*
X173870000Y-83750000D03*
X173870000Y-81210000D03*
X176410000Y-83750000D03*
X176410000Y-81210000D03*
X178950000Y-83750000D03*
X178950000Y-81210000D03*
X181490000Y-83750000D03*
X181490000Y-81210000D03*
%TD*%
D27*
%TO.C,U3*%
X156150000Y-97810000D03*
D28*
X158690000Y-97810000D03*
X161230000Y-97810000D03*
X163770000Y-97810000D03*
X166310000Y-97810000D03*
X168850000Y-97810000D03*
X168850000Y-87650000D03*
X166310000Y-87650000D03*
X163770000Y-87650000D03*
X161230000Y-87650000D03*
X158690000Y-87650000D03*
X156150000Y-87650000D03*
%TD*%
%LPD*%
M02*
