%TF.GenerationSoftware,KiCad,Pcbnew,7.0.2*%
%TF.CreationDate,2025-03-27T17:54:01+00:00*%
%TF.ProjectId,dk2_04b_top,646b325f-3034-4625-9f74-6f702e6b6963,rev?*%
%TF.SameCoordinates,Original*%
%TF.FileFunction,Soldermask,Top*%
%TF.FilePolarity,Negative*%
%FSLAX46Y46*%
G04 Gerber Fmt 4.6, Leading zero omitted, Abs format (unit mm)*
G04 Created by KiCad (PCBNEW 7.0.2) date 2025-03-27 17:54:01*
%MOMM*%
%LPD*%
G01*
G04 APERTURE LIST*
G04 Aperture macros list*
%AMRoundRect*
0 Rectangle with rounded corners*
0 $1 Rounding radius*
0 $2 $3 $4 $5 $6 $7 $8 $9 X,Y pos of 4 corners*
0 Add a 4 corners polygon primitive as box body*
4,1,4,$2,$3,$4,$5,$6,$7,$8,$9,$2,$3,0*
0 Add four circle primitives for the rounded corners*
1,1,$1+$1,$2,$3*
1,1,$1+$1,$4,$5*
1,1,$1+$1,$6,$7*
1,1,$1+$1,$8,$9*
0 Add four rect primitives between the rounded corners*
20,1,$1+$1,$2,$3,$4,$5,0*
20,1,$1+$1,$4,$5,$6,$7,0*
20,1,$1+$1,$6,$7,$8,$9,0*
20,1,$1+$1,$8,$9,$2,$3,0*%
G04 Aperture macros list end*
%ADD10C,2.000000*%
%ADD11O,2.720000X3.240000*%
%ADD12R,1.800000X1.800000*%
%ADD13C,1.800000*%
%ADD14O,3.100000X2.300000*%
%ADD15RoundRect,0.650000X-0.650000X-0.650000X0.650000X-0.650000X0.650000X0.650000X-0.650000X0.650000X0*%
%ADD16C,3.200000*%
%ADD17R,1.500000X1.500000*%
%ADD18C,1.500000*%
%ADD19C,1.050000*%
%ADD20R,1.350000X1.350000*%
%ADD21R,1.700000X1.700000*%
%ADD22O,1.700000X1.700000*%
G04 APERTURE END LIST*
D10*
%TO.C,SW10*%
X127000000Y-93000000D03*
X133500000Y-93000000D03*
X127000000Y-97500000D03*
X133500000Y-97500000D03*
%TD*%
%TO.C,SW8*%
X107000000Y-93000000D03*
X113500000Y-93000000D03*
X107000000Y-97500000D03*
X113500000Y-97500000D03*
%TD*%
D11*
%TO.C,RV3*%
X115700000Y-46500000D03*
X125300000Y-46500000D03*
D12*
X118000000Y-54000000D03*
D13*
X120500000Y-54000000D03*
X123000000Y-54000000D03*
%TD*%
D14*
%TO.C,J2*%
X96000000Y-130400000D03*
D15*
X96000000Y-119000000D03*
X96000000Y-127300000D03*
%TD*%
D14*
%TO.C,J13*%
X132000000Y-130400000D03*
D15*
X132000000Y-119000000D03*
X132000000Y-127300000D03*
%TD*%
D11*
%TO.C,RV8*%
X134700000Y-66500000D03*
X144300000Y-66500000D03*
D12*
X137000000Y-74000000D03*
D13*
X139500000Y-74000000D03*
X142000000Y-74000000D03*
%TD*%
D14*
%TO.C,J12*%
X120000000Y-130400000D03*
D15*
X120000000Y-119000000D03*
X120000000Y-127300000D03*
%TD*%
D10*
%TO.C,SW19*%
X172000000Y-105000000D03*
X178500000Y-105000000D03*
X172000000Y-109500000D03*
X178500000Y-109500000D03*
%TD*%
D16*
%TO.C,H1*%
X74000000Y-56000000D03*
%TD*%
D14*
%TO.C,J11*%
X144000000Y-146400000D03*
D15*
X144000000Y-135000000D03*
X144000000Y-143300000D03*
%TD*%
D11*
%TO.C,RV4*%
X134700000Y-46500000D03*
X144300000Y-46500000D03*
D12*
X137000000Y-54000000D03*
D13*
X139500000Y-54000000D03*
X142000000Y-54000000D03*
%TD*%
D10*
%TO.C,SW3*%
X107000000Y-81000000D03*
X113500000Y-81000000D03*
X107000000Y-85500000D03*
X113500000Y-85500000D03*
%TD*%
D11*
%TO.C,RV1*%
X77700000Y-46500000D03*
X87300000Y-46500000D03*
D12*
X80000000Y-54000000D03*
D13*
X82500000Y-54000000D03*
X85000000Y-54000000D03*
%TD*%
D11*
%TO.C,RV10*%
X172700000Y-46500000D03*
X182300000Y-46500000D03*
D12*
X175000000Y-54000000D03*
D13*
X177500000Y-54000000D03*
X180000000Y-54000000D03*
%TD*%
D14*
%TO.C,J4*%
X84000000Y-130400000D03*
D15*
X84000000Y-119000000D03*
X84000000Y-127300000D03*
%TD*%
D10*
%TO.C,SW9*%
X117000000Y-93000000D03*
X123500000Y-93000000D03*
X117000000Y-97500000D03*
X123500000Y-97500000D03*
%TD*%
D14*
%TO.C,J14*%
X120000000Y-146400000D03*
D15*
X120000000Y-135000000D03*
X120000000Y-143300000D03*
%TD*%
D14*
%TO.C,J15*%
X132000000Y-146400000D03*
D15*
X132000000Y-135000000D03*
X132000000Y-143300000D03*
%TD*%
D10*
%TO.C,SW6*%
X87000000Y-93000000D03*
X93500000Y-93000000D03*
X87000000Y-97500000D03*
X93500000Y-97500000D03*
%TD*%
D11*
%TO.C,RV7*%
X115700000Y-66500000D03*
X125300000Y-66500000D03*
D12*
X118000000Y-74000000D03*
D13*
X120500000Y-74000000D03*
X123000000Y-74000000D03*
%TD*%
D10*
%TO.C,SW17*%
X152000000Y-105000000D03*
X158500000Y-105000000D03*
X152000000Y-109500000D03*
X158500000Y-109500000D03*
%TD*%
%TO.C,SW1*%
X87000000Y-81000000D03*
X93500000Y-81000000D03*
X87000000Y-85500000D03*
X93500000Y-85500000D03*
%TD*%
D17*
%TO.C,U3*%
X154000000Y-93000000D03*
D18*
X156540000Y-93000000D03*
X159080000Y-93000000D03*
X161620000Y-93000000D03*
X164160000Y-93000000D03*
X166700000Y-93000000D03*
X166700000Y-82840000D03*
X164160000Y-82840000D03*
X161620000Y-82840000D03*
X159080000Y-82840000D03*
X156540000Y-82840000D03*
X154000000Y-82840000D03*
%TD*%
D19*
%TO.C,J6*%
X180400000Y-91700000D03*
X179300000Y-90600000D03*
X180400000Y-89500000D03*
X179300000Y-88400000D03*
X180400000Y-87300000D03*
X179300000Y-86200000D03*
X180400000Y-85100000D03*
X179300000Y-84000000D03*
D20*
X183570000Y-92150000D03*
X183570000Y-83550000D03*
%TD*%
D12*
%TO.C,D3*%
X157000000Y-134100000D03*
D13*
X159540000Y-134100000D03*
%TD*%
D11*
%TO.C,RV11*%
X153700000Y-66500000D03*
X163300000Y-66500000D03*
D12*
X156000000Y-74000000D03*
D13*
X158500000Y-74000000D03*
X161000000Y-74000000D03*
%TD*%
D11*
%TO.C,RV9*%
X153700000Y-46500000D03*
X163300000Y-46500000D03*
D12*
X156000000Y-54000000D03*
D13*
X158500000Y-54000000D03*
X161000000Y-54000000D03*
%TD*%
D14*
%TO.C,J8*%
X96000000Y-146400000D03*
D15*
X96000000Y-135000000D03*
X96000000Y-143300000D03*
%TD*%
D10*
%TO.C,SW15*%
X127000000Y-105000000D03*
X133500000Y-105000000D03*
X127000000Y-109500000D03*
X133500000Y-109500000D03*
%TD*%
%TO.C,SW13*%
X107000000Y-105000000D03*
X113500000Y-105000000D03*
X107000000Y-109500000D03*
X113500000Y-109500000D03*
%TD*%
%TO.C,SW18*%
X162000000Y-105000000D03*
X168500000Y-105000000D03*
X162000000Y-109500000D03*
X168500000Y-109500000D03*
%TD*%
D16*
%TO.C,H2*%
X186000000Y-56000000D03*
%TD*%
D10*
%TO.C,SW11*%
X87000000Y-105000000D03*
X93500000Y-105000000D03*
X87000000Y-109500000D03*
X93500000Y-109500000D03*
%TD*%
%TO.C,SW2*%
X97000000Y-81000000D03*
X103500000Y-81000000D03*
X97000000Y-85500000D03*
X103500000Y-85500000D03*
%TD*%
%TO.C,SW7*%
X97000000Y-93000000D03*
X103500000Y-93000000D03*
X97000000Y-97500000D03*
X103500000Y-97500000D03*
%TD*%
D12*
%TO.C,D2*%
X157000000Y-128550000D03*
D13*
X159540000Y-128550000D03*
%TD*%
D12*
%TO.C,D1*%
X157000000Y-123000000D03*
D13*
X159540000Y-123000000D03*
%TD*%
D14*
%TO.C,J5*%
X144000000Y-130400000D03*
D15*
X144000000Y-119000000D03*
X144000000Y-127300000D03*
%TD*%
D10*
%TO.C,SW12*%
X97000000Y-105000000D03*
X103500000Y-105000000D03*
X97000000Y-109500000D03*
X103500000Y-109500000D03*
%TD*%
D16*
%TO.C,H3*%
X74000000Y-128000000D03*
%TD*%
D12*
%TO.C,D4*%
X157000000Y-139650000D03*
D13*
X159540000Y-139650000D03*
%TD*%
D10*
%TO.C,SW4*%
X117000000Y-81000000D03*
X123500000Y-81000000D03*
X117000000Y-85500000D03*
X123500000Y-85500000D03*
%TD*%
D11*
%TO.C,RV12*%
X172700000Y-66500000D03*
X182300000Y-66500000D03*
D12*
X175000000Y-74000000D03*
D13*
X177500000Y-74000000D03*
X180000000Y-74000000D03*
%TD*%
D16*
%TO.C,H4*%
X186000000Y-128000000D03*
%TD*%
D14*
%TO.C,J9*%
X108000000Y-146400000D03*
D15*
X108000000Y-135000000D03*
X108000000Y-143300000D03*
%TD*%
D11*
%TO.C,RV6*%
X96700000Y-66500000D03*
X106300000Y-66500000D03*
D12*
X99000000Y-74000000D03*
D13*
X101500000Y-74000000D03*
X104000000Y-74000000D03*
%TD*%
D21*
%TO.C,J16*%
X74000000Y-137500000D03*
D22*
X74000000Y-140040000D03*
X74000000Y-142580000D03*
X74000000Y-145120000D03*
%TD*%
D14*
%TO.C,J3*%
X108000000Y-130400000D03*
D15*
X108000000Y-119000000D03*
X108000000Y-127300000D03*
%TD*%
D11*
%TO.C,RV5*%
X77700000Y-66500000D03*
X87300000Y-66500000D03*
D12*
X80000000Y-74000000D03*
D13*
X82500000Y-74000000D03*
X85000000Y-74000000D03*
%TD*%
D10*
%TO.C,SW5*%
X127000000Y-81000000D03*
X133500000Y-81000000D03*
X127000000Y-85500000D03*
X133500000Y-85500000D03*
%TD*%
D11*
%TO.C,RV2*%
X96700000Y-46500000D03*
X106300000Y-46500000D03*
D12*
X99000000Y-54000000D03*
D13*
X101500000Y-54000000D03*
X104000000Y-54000000D03*
%TD*%
D10*
%TO.C,SW16*%
X142000000Y-105000000D03*
X148500000Y-105000000D03*
X142000000Y-109500000D03*
X148500000Y-109500000D03*
%TD*%
D14*
%TO.C,J10*%
X84000000Y-146400000D03*
D15*
X84000000Y-135000000D03*
X84000000Y-143300000D03*
%TD*%
D10*
%TO.C,SW14*%
X117000000Y-105000000D03*
X123500000Y-105000000D03*
X117000000Y-109500000D03*
X123500000Y-109500000D03*
%TD*%
D21*
%TO.C,J7*%
X186000000Y-78000000D03*
D22*
X186000000Y-80540000D03*
X186000000Y-83080000D03*
X186000000Y-85620000D03*
X186000000Y-88160000D03*
X186000000Y-90700000D03*
X186000000Y-93240000D03*
X186000000Y-95780000D03*
X186000000Y-98320000D03*
X186000000Y-100860000D03*
X186000000Y-103400000D03*
X186000000Y-105940000D03*
%TD*%
D21*
%TO.C,J1*%
X74000000Y-70500000D03*
D22*
X74000000Y-73040000D03*
X74000000Y-75580000D03*
X74000000Y-78120000D03*
X74000000Y-80660000D03*
X74000000Y-83200000D03*
X74000000Y-85740000D03*
X74000000Y-88280000D03*
X74000000Y-90820000D03*
X74000000Y-93360000D03*
X74000000Y-95900000D03*
X74000000Y-98440000D03*
X74000000Y-100980000D03*
X74000000Y-103520000D03*
X74000000Y-106060000D03*
X74000000Y-108600000D03*
%TD*%
M02*
