M48
; DRILL file {KiCad 9.0.1} date 2025-05-16T11:54:18+0100
; FORMAT={-:-/ absolute / inch / decimal}
; #@! TF.CreationDate,2025-05-16T11:54:18+01:00
; #@! TF.GenerationSoftware,Kicad,Pcbnew,9.0.1
; #@! TF.FileFunction,Plated,1,4,PTH
FMAT,2
INCH
; #@! TA.AperFunction,Plated,PTH,ComponentDrill
T1C0.0236
; #@! TA.AperFunction,Plated,PTH,ComponentDrill
T2C0.0276
; #@! TA.AperFunction,Plated,PTH,ComponentDrill
T3C0.0354
; #@! TA.AperFunction,Plated,PTH,ComponentDrill
T4C0.0394
; #@! TA.AperFunction,Plated,PTH,ComponentDrill
T5C0.0433
%
G90
G05
T2
X7.1043Y-3.498
X7.1043Y-3.5846
X7.1043Y-3.6713
X7.1043Y-3.7579
X7.1476Y-3.5413
X7.1476Y-3.628
X7.1476Y-3.7146
X7.1476Y-3.8012
T3
X6.1309Y-4.8622
X6.1309Y-5.0807
X6.1309Y-5.2992
X6.1309Y-5.5177
X6.2309Y-4.8622
X6.2309Y-5.0807
X6.2309Y-5.2992
X6.2309Y-5.5177
X7.2724Y-3.4803
X7.2724Y-3.8189
T4
X3.0512Y-2.0866
X3.0512Y-2.9528
X3.1496Y-2.0866
X3.1496Y-2.9528
X3.248Y-2.0866
X3.248Y-2.9528
X3.8386Y-2.0866
X3.8386Y-2.9528
X3.937Y-2.0866
X3.937Y-2.9528
X4.0354Y-2.0866
X4.0354Y-2.9528
X4.626Y-2.0866
X4.626Y-2.9528
X4.7244Y-2.0866
X4.7244Y-2.9528
X4.8228Y-2.0866
X4.8228Y-2.9528
X5.2453Y-3.1972
X5.2453Y-3.2972
X5.2453Y-3.9972
X5.2453Y-4.0972
X5.3453Y-3.1972
X5.3453Y-3.2972
X5.3453Y-3.9972
X5.3453Y-4.0972
X5.4134Y-2.0866
X5.4134Y-2.9528
X5.4453Y-3.1972
X5.4453Y-3.2972
X5.4453Y-3.9972
X5.4453Y-4.0972
X5.5118Y-2.0866
X5.5118Y-2.9528
X5.5453Y-3.1972
X5.5453Y-3.2972
X5.5453Y-3.9972
X5.5453Y-4.0972
X5.6102Y-2.0866
X5.6102Y-2.9528
X5.6453Y-3.1972
X5.6453Y-3.2972
X5.6453Y-3.9972
X5.6453Y-4.0972
X5.7453Y-3.1972
X5.7453Y-3.2972
X5.7453Y-3.9972
X5.7453Y-4.0972
X5.7555Y-2.2933
X5.8453Y-3.1972
X5.8453Y-3.2972
X5.8453Y-3.9972
X5.8453Y-4.0972
X5.8555Y-2.2933
X5.9453Y-3.1972
X5.9453Y-3.2972
X5.9453Y-3.9972
X5.9453Y-4.0972
X5.9555Y-2.2933
X6.0453Y-3.1972
X6.0453Y-3.2972
X6.0453Y-3.9972
X6.0453Y-4.0972
X6.0555Y-2.2933
X6.1453Y-3.1972
X6.1453Y-3.2972
X6.1453Y-3.9972
X6.1453Y-4.0972
X6.1476Y-3.4508
X6.1476Y-3.8508
X6.2008Y-2.0866
X6.2008Y-2.9528
X6.2453Y-3.1972
X6.2453Y-3.2972
X6.2453Y-3.9972
X6.2453Y-4.0972
X6.2476Y-3.4508
X6.2476Y-3.8508
X6.2992Y-2.0866
X6.2992Y-2.9528
X6.3453Y-3.1972
X6.3453Y-3.2972
X6.3453Y-3.9972
X6.3453Y-4.0972
X6.3476Y-3.4508
X6.3476Y-3.8508
X6.3976Y-2.0866
X6.3976Y-2.9528
X6.4453Y-3.1972
X6.4453Y-3.2972
X6.4453Y-3.9972
X6.4453Y-4.0972
X6.4476Y-3.4508
X6.4476Y-3.8508
X6.4961Y-4.6858
X6.4961Y-4.7858
X6.4961Y-4.8858
X6.4961Y-4.9858
X6.4961Y-5.0858
X6.5453Y-3.1972
X6.5453Y-3.2972
X6.5453Y-3.9972
X6.5453Y-4.0972
X6.5476Y-3.4508
X6.5476Y-3.8508
X6.5961Y-4.6858
X6.5961Y-4.7858
X6.5961Y-4.8858
X6.5961Y-4.9858
X6.5961Y-5.0858
X6.6453Y-3.1972
X6.6453Y-3.2972
X6.6453Y-3.9972
X6.6453Y-4.0972
X6.6476Y-3.4508
X6.6476Y-3.8508
X6.7453Y-3.1972
X6.7453Y-3.2972
X6.7453Y-3.9972
X6.7453Y-4.0972
X6.8453Y-3.1972
X6.8453Y-3.2972
X6.8453Y-3.9972
X6.8453Y-4.0972
X6.9453Y-3.1972
X6.9453Y-3.2972
X6.9453Y-3.9972
X6.9453Y-4.0972
X6.9882Y-2.0866
X6.9882Y-2.9528
X7.0453Y-3.1972
X7.0453Y-3.2972
X7.0453Y-3.9972
X7.0453Y-4.0972
X7.0866Y-2.0866
X7.0866Y-2.9528
X7.1453Y-3.1972
X7.1453Y-3.2972
X7.1453Y-3.9972
X7.1453Y-4.0972
X7.185Y-2.0866
X7.185Y-2.9528
X7.2835Y-4.1913
X7.2835Y-4.2913
X7.2835Y-4.3913
T5
X3.1201Y-3.2776
X3.1201Y-3.4547
X3.1201Y-3.75
X3.1201Y-3.9272
X3.1201Y-4.2224
X3.1201Y-4.3996
X3.376Y-3.2776
X3.376Y-3.4547
X3.376Y-3.75
X3.376Y-3.9272
X3.376Y-4.2224
X3.376Y-4.3996
X3.5138Y-3.2776
X3.5138Y-3.4547
X3.5138Y-3.75
X3.5138Y-3.9272
X3.5138Y-4.2224
X3.5138Y-4.3996
X3.7697Y-3.2776
X3.7697Y-3.4547
X3.7697Y-3.75
X3.7697Y-3.9272
X3.7697Y-4.2224
X3.7697Y-4.3996
X3.9075Y-3.2776
X3.9075Y-3.4547
X3.9075Y-3.75
X3.9075Y-3.9272
X3.9075Y-4.2224
X3.9075Y-4.3996
X4.1634Y-3.2776
X4.1634Y-3.4547
X4.1634Y-3.75
X4.1634Y-3.9272
X4.1634Y-4.2224
X4.1634Y-4.3996
X4.3012Y-3.2776
X4.3012Y-3.4547
X4.3012Y-3.75
X4.3012Y-3.9272
X4.3012Y-4.2224
X4.3012Y-4.3996
X4.5571Y-3.2776
X4.5571Y-3.4547
X4.5571Y-3.75
X4.5571Y-3.9272
X4.5571Y-4.2224
X4.5571Y-4.3996
X4.6949Y-3.2776
X4.6949Y-3.4547
X4.6949Y-3.75
X4.6949Y-3.9272
X4.6949Y-4.2224
X4.6949Y-4.3996
X4.9508Y-3.2776
X4.9508Y-3.4547
X4.9508Y-3.75
X4.9508Y-3.9272
X4.9508Y-4.2224
X4.9508Y-4.3996
X5.6791Y-4.2224
X5.6791Y-4.3996
X5.935Y-4.2224
X5.935Y-4.3996
X6.0728Y-4.2224
X6.0728Y-4.3996
X6.3287Y-4.2224
X6.3287Y-4.3996
X6.4665Y-4.2224
X6.4665Y-4.3996
X6.7224Y-4.2224
X6.7224Y-4.3996
X6.8602Y-4.2224
X6.8602Y-4.3996
X7.1161Y-4.2224
X7.1161Y-4.3996
T1
G00X3.2874Y-4.685
M15
G01X3.3268Y-4.685
M16
G05
G00X3.2874Y-5.0118
M15
G01X3.3268Y-5.0118
M16
G05
G00X3.2874Y-5.1339
M15
G01X3.3268Y-5.1339
M16
G05
G00X3.2874Y-5.315
M15
G01X3.3268Y-5.315
M16
G05
G00X3.2874Y-5.6417
M15
G01X3.3268Y-5.6417
M16
G05
G00X3.2874Y-5.7638
M15
G01X3.3268Y-5.7638
M16
G05
G00X3.7598Y-4.685
M15
G01X3.7992Y-4.685
M16
G05
G00X3.7598Y-5.0118
M15
G01X3.7992Y-5.0118
M16
G05
G00X3.7598Y-5.1339
M15
G01X3.7992Y-5.1339
M16
G05
G00X3.7598Y-5.315
M15
G01X3.7992Y-5.315
M16
G05
G00X3.7598Y-5.6417
M15
G01X3.7992Y-5.6417
M16
G05
G00X3.7598Y-5.7638
M15
G01X3.7992Y-5.7638
M16
G05
G00X4.2323Y-4.685
M15
G01X4.2717Y-4.685
M16
G05
G00X4.2323Y-5.0118
M15
G01X4.2717Y-5.0118
M16
G05
G00X4.2323Y-5.1339
M15
G01X4.2717Y-5.1339
M16
G05
G00X4.2323Y-5.315
M15
G01X4.2717Y-5.315
M16
G05
G00X4.2323Y-5.6417
M15
G01X4.2717Y-5.6417
M16
G05
G00X4.2323Y-5.7638
M15
G01X4.2717Y-5.7638
M16
G05
G00X4.7047Y-4.685
M15
G01X4.7441Y-4.685
M16
G05
G00X4.7047Y-5.0118
M15
G01X4.7441Y-5.0118
M16
G05
G00X4.7047Y-5.1339
M15
G01X4.7441Y-5.1339
M16
G05
G00X4.7047Y-5.315
M15
G01X4.7441Y-5.315
M16
G05
G00X4.7047Y-5.6417
M15
G01X4.7441Y-5.6417
M16
G05
G00X4.7047Y-5.7638
M15
G01X4.7441Y-5.7638
M16
G05
G00X5.1772Y-4.685
M15
G01X5.2165Y-4.685
M16
G05
G00X5.1772Y-5.0118
M15
G01X5.2165Y-5.0118
M16
G05
G00X5.1772Y-5.1339
M15
G01X5.2165Y-5.1339
M16
G05
G00X5.1772Y-5.315
M15
G01X5.2165Y-5.315
M16
G05
G00X5.1772Y-5.6417
M15
G01X5.2165Y-5.6417
M16
G05
G00X5.1772Y-5.7638
M15
G01X5.2165Y-5.7638
M16
G05
G00X5.6496Y-4.685
M15
G01X5.689Y-4.685
M16
G05
G00X5.6496Y-5.0118
M15
G01X5.689Y-5.0118
M16
G05
G00X5.6496Y-5.1339
M15
G01X5.689Y-5.1339
M16
G05
G00X5.6496Y-5.315
M15
G01X5.689Y-5.315
M16
G05
G00X5.6496Y-5.6417
M15
G01X5.689Y-5.6417
M16
G05
G00X5.6496Y-5.7638
M15
G01X5.689Y-5.7638
M16
G05
T5
G00X2.9606Y-1.8051
M15
G01X2.9606Y-1.7776
M16
G05
G00X2.9606Y-2.6713
M15
G01X2.9606Y-2.6437
M16
G05
G00X3.3386Y-1.8051
M15
G01X3.3386Y-1.7776
M16
G05
G00X3.3386Y-2.6713
M15
G01X3.3386Y-2.6437
M16
G05
G00X3.748Y-1.8051
M15
G01X3.748Y-1.7776
M16
G05
G00X3.748Y-2.6713
M15
G01X3.748Y-2.6437
M16
G05
G00X4.126Y-1.8051
M15
G01X4.126Y-1.7776
M16
G05
G00X4.126Y-2.6713
M15
G01X4.126Y-2.6437
M16
G05
G00X4.5354Y-1.8051
M15
G01X4.5354Y-1.7776
M16
G05
G00X4.5354Y-2.6713
M15
G01X4.5354Y-2.6437
M16
G05
G00X4.9134Y-1.8051
M15
G01X4.9134Y-1.7776
M16
G05
G00X4.9134Y-2.6713
M15
G01X4.9134Y-2.6437
M16
G05
G00X5.3228Y-1.8051
M15
G01X5.3228Y-1.7776
M16
G05
G00X5.3228Y-2.6713
M15
G01X5.3228Y-2.6437
M16
G05
G00X5.7008Y-1.8051
M15
G01X5.7008Y-1.7776
M16
G05
G00X5.7008Y-2.6713
M15
G01X5.7008Y-2.6437
M16
G05
G00X6.1102Y-1.8051
M15
G01X6.1102Y-1.7776
M16
G05
G00X6.1102Y-2.6713
M15
G01X6.1102Y-2.6437
M16
G05
G00X6.4882Y-1.8051
M15
G01X6.4882Y-1.7776
M16
G05
G00X6.4882Y-2.6713
M15
G01X6.4882Y-2.6437
M16
G05
G00X6.8976Y-1.8051
M15
G01X6.8976Y-1.7776
M16
G05
G00X6.8976Y-2.6713
M15
G01X6.8976Y-2.6437
M16
G05
G00X7.2756Y-1.8051
M15
G01X7.2756Y-1.7776
M16
G05
G00X7.2756Y-2.6713
M15
G01X7.2756Y-2.6437
M16
G05
M30
