%TF.GenerationSoftware,KiCad,Pcbnew,9.0.1*%
%TF.CreationDate,2025-05-16T11:54:18+01:00*%
%TF.ProjectId,dk2_05,646b325f-3035-42e6-9b69-6361645f7063,rev?*%
%TF.SameCoordinates,Original*%
%TF.FileFunction,Copper,L3,Inr*%
%TF.FilePolarity,Positive*%
%FSLAX46Y46*%
G04 Gerber Fmt 4.6, Leading zero omitted, Abs format (unit mm)*
G04 Created by KiCad (PCBNEW 9.0.1) date 2025-05-16 11:54:18*
%MOMM*%
%LPD*%
G01*
G04 APERTURE LIST*
G04 Aperture macros list*
%AMRoundRect*
0 Rectangle with rounded corners*
0 $1 Rounding radius*
0 $2 $3 $4 $5 $6 $7 $8 $9 X,Y pos of 4 corners*
0 Add a 4 corners polygon primitive as box body*
4,1,4,$2,$3,$4,$5,$6,$7,$8,$9,$2,$3,0*
0 Add four circle primitives for the rounded corners*
1,1,$1+$1,$2,$3*
1,1,$1+$1,$4,$5*
1,1,$1+$1,$6,$7*
1,1,$1+$1,$8,$9*
0 Add four rect primitives between the rounded corners*
20,1,$1+$1,$2,$3,$4,$5,0*
20,1,$1+$1,$4,$5,$6,$7,0*
20,1,$1+$1,$6,$7,$8,$9,0*
20,1,$1+$1,$8,$9,$2,$3,0*%
G04 Aperture macros list end*
%TA.AperFunction,ComponentPad*%
%ADD10C,2.000000*%
%TD*%
%TA.AperFunction,ComponentPad*%
%ADD11R,1.500000X1.500000*%
%TD*%
%TA.AperFunction,ComponentPad*%
%ADD12C,1.500000*%
%TD*%
%TA.AperFunction,ComponentPad*%
%ADD13C,1.700000*%
%TD*%
%TA.AperFunction,ComponentPad*%
%ADD14R,1.700000X1.700000*%
%TD*%
%TA.AperFunction,ComponentPad*%
%ADD15O,2.720000X3.240000*%
%TD*%
%TA.AperFunction,ComponentPad*%
%ADD16R,1.800000X1.800000*%
%TD*%
%TA.AperFunction,ComponentPad*%
%ADD17C,1.800000*%
%TD*%
%TA.AperFunction,ComponentPad*%
%ADD18O,3.100000X2.300000*%
%TD*%
%TA.AperFunction,ComponentPad*%
%ADD19RoundRect,0.650000X-0.650000X-0.650000X0.650000X-0.650000X0.650000X0.650000X-0.650000X0.650000X0*%
%TD*%
%TA.AperFunction,ComponentPad*%
%ADD20C,1.050000*%
%TD*%
%TA.AperFunction,ComponentPad*%
%ADD21R,1.350000X1.350000*%
%TD*%
%TA.AperFunction,ComponentPad*%
%ADD22RoundRect,0.250000X-0.600000X-0.600000X0.600000X-0.600000X0.600000X0.600000X-0.600000X0.600000X0*%
%TD*%
G04 APERTURE END LIST*
D10*
%TO.N,Net-(U5-D0)*%
%TO.C,SW9*%
X115750000Y-99750000D03*
X109250000Y-99750000D03*
%TO.N,+3.3V*%
X115750000Y-95250000D03*
X109250000Y-95250000D03*
%TD*%
%TO.N,Net-(U4-D0)*%
%TO.C,SW1*%
X85750000Y-87750000D03*
X79250000Y-87750000D03*
%TO.N,+3.3V*%
X85750000Y-83250000D03*
X79250000Y-83250000D03*
%TD*%
%TO.N,Net-(U4-D5)*%
%TO.C,SW6*%
X85750000Y-99750000D03*
X79250000Y-99750000D03*
%TO.N,+3.3V*%
X85750000Y-95250000D03*
X79250000Y-95250000D03*
%TD*%
%TO.N,Net-(U5-D2)*%
%TO.C,SW11*%
X85750000Y-111750000D03*
X79250000Y-111750000D03*
%TO.N,+3.3V*%
X85750000Y-107250000D03*
X79250000Y-107250000D03*
%TD*%
%TO.N,Net-(U5-D3)*%
%TO.C,SW12*%
X95750000Y-111750000D03*
X89250000Y-111750000D03*
%TO.N,+3.3V*%
X95750000Y-107250000D03*
X89250000Y-107250000D03*
%TD*%
%TO.N,Net-(U4-D1)*%
%TO.C,SW2*%
X95750000Y-87750000D03*
X89250000Y-87750000D03*
%TO.N,+3.3V*%
X95750000Y-83250000D03*
X89250000Y-83250000D03*
%TD*%
%TO.N,Net-(U5-D6)*%
%TO.C,SW15*%
X125750000Y-111750000D03*
X119250000Y-111750000D03*
%TO.N,+3.3V*%
X125750000Y-107250000D03*
X119250000Y-107250000D03*
%TD*%
%TO.N,Net-(U4-D3)*%
%TO.C,SW4*%
X115750000Y-87750000D03*
X109250000Y-87750000D03*
%TO.N,+3.3V*%
X115750000Y-83250000D03*
X109250000Y-83250000D03*
%TD*%
%TO.N,Net-(U5-D4)*%
%TO.C,SW13*%
X105750000Y-111750000D03*
X99250000Y-111750000D03*
%TO.N,+3.3V*%
X105750000Y-107250000D03*
X99250000Y-107250000D03*
%TD*%
%TO.N,Net-(U4-D6)*%
%TO.C,SW7*%
X95750000Y-99750000D03*
X89250000Y-99750000D03*
%TO.N,+3.3V*%
X95750000Y-95250000D03*
X89250000Y-95250000D03*
%TD*%
%TO.N,Net-(U4-D2)*%
%TO.C,SW3*%
X105750000Y-87750000D03*
X99250000Y-87750000D03*
%TO.N,+3.3V*%
X105750000Y-83250000D03*
X99250000Y-83250000D03*
%TD*%
%TO.N,Net-(U4-D7)*%
%TO.C,SW8*%
X105750000Y-99750000D03*
X99250000Y-99750000D03*
%TO.N,+3.3V*%
X105750000Y-95250000D03*
X99250000Y-95250000D03*
%TD*%
%TO.N,+3.3V*%
%TO.C,SW10*%
X119250000Y-95250000D03*
X125750000Y-95250000D03*
%TO.N,Net-(U5-D1)*%
X119250000Y-99750000D03*
X125750000Y-99750000D03*
%TD*%
%TO.N,Net-(U5-D5)*%
%TO.C,SW14*%
X115750000Y-111750000D03*
X109250000Y-111750000D03*
%TO.N,+3.3V*%
X115750000Y-107250000D03*
X109250000Y-107250000D03*
%TD*%
%TO.N,Net-(U4-D4)*%
%TO.C,SW5*%
X125750000Y-87750000D03*
X119250000Y-87750000D03*
%TO.N,+3.3V*%
X125750000Y-83250000D03*
X119250000Y-83250000D03*
%TD*%
D11*
%TO.N,Net-(U3-e)*%
%TO.C,U3*%
X156150000Y-97810000D03*
D12*
%TO.N,Net-(U3-d)*%
X158690000Y-97810000D03*
%TO.N,Net-(U3-DPX)*%
X161230000Y-97810000D03*
%TO.N,Net-(U3-c)*%
X163770000Y-97810000D03*
%TO.N,Net-(U3-g)*%
X166310000Y-97810000D03*
%TO.N,Net-(U2-QD)*%
X168850000Y-97810000D03*
%TO.N,Net-(U3-b)*%
X168850000Y-87650000D03*
%TO.N,Net-(U2-QC)*%
X166310000Y-87650000D03*
%TO.N,Net-(U2-QB)*%
X163770000Y-87650000D03*
%TO.N,Net-(U3-f)*%
X161230000Y-87650000D03*
%TO.N,Net-(U3-a)*%
X158690000Y-87650000D03*
%TO.N,Net-(U2-QA)*%
X156150000Y-87650000D03*
%TD*%
D10*
%TO.N,Net-(U10-D0)*%
%TO.C,SW17*%
X160750000Y-111750000D03*
X154250000Y-111750000D03*
%TO.N,+3.3V*%
X160750000Y-107250000D03*
X154250000Y-107250000D03*
%TD*%
%TO.N,Net-(U10-D1)*%
%TO.C,SW18*%
X170750000Y-111750000D03*
X164250000Y-111750000D03*
%TO.N,+3.3V*%
X170750000Y-107250000D03*
X164250000Y-107250000D03*
%TD*%
%TO.N,Net-(U10-D2)*%
%TO.C,SW19*%
X180750000Y-111750000D03*
X174250000Y-111750000D03*
%TO.N,+3.3V*%
X180750000Y-107250000D03*
X174250000Y-107250000D03*
%TD*%
%TO.N,Net-(U5-D7)*%
%TO.C,SW16*%
X150750000Y-111750000D03*
X144250000Y-111750000D03*
%TO.N,+3.3V*%
X150750000Y-107250000D03*
X144250000Y-107250000D03*
%TD*%
D13*
%TO.N,SERIAL_TX*%
%TO.C,A1*%
X181490000Y-104070000D03*
X181490000Y-101530000D03*
%TO.N,SERIAL_RX*%
X178950000Y-104070000D03*
X178950000Y-101530000D03*
%TO.N,GND*%
X176410000Y-104070000D03*
X176410000Y-101530000D03*
%TO.N,SD_CLOCK*%
X173870000Y-104070000D03*
X173870000Y-101530000D03*
%TO.N,SD_SERIAL_IN*%
X171330000Y-104070000D03*
X171330000Y-101530000D03*
%TO.N,SD_SERIAL_OUT*%
X168790000Y-104070000D03*
X168790000Y-101530000D03*
%TO.N,SD_CHIP_SELECT*%
X166250000Y-104070000D03*
X166250000Y-101530000D03*
%TO.N,GND*%
X163710000Y-104070000D03*
X163710000Y-101530000D03*
%TO.N,595_DATA*%
X161170000Y-104070000D03*
X161170000Y-101530000D03*
%TO.N,595_CLOCK*%
X158630000Y-104070000D03*
X158630000Y-101530000D03*
%TO.N,595_LATCH*%
X156090000Y-104070000D03*
X156090000Y-101530000D03*
%TO.N,DAC_DOUT*%
X153550000Y-104070000D03*
X153550000Y-101530000D03*
%TO.N,GND*%
X151010000Y-104070000D03*
X151010000Y-101530000D03*
%TO.N,DAC_BCLK*%
X148470000Y-104070000D03*
X148470000Y-101530000D03*
%TO.N,DAC_LRC*%
X145930000Y-104070000D03*
X145930000Y-101530000D03*
%TO.N,165_LOAD*%
X143390000Y-104070000D03*
X143390000Y-101530000D03*
%TO.N,165_CLOCK*%
X140850000Y-104070000D03*
X140850000Y-101530000D03*
%TO.N,GND*%
X138310000Y-104070000D03*
X138310000Y-101530000D03*
%TO.N,165_DATA*%
X135770000Y-104070000D03*
X135770000Y-101530000D03*
%TO.N,TRIGGER_OUT_1*%
X133230000Y-104070000D03*
X133230000Y-101530000D03*
%TO.N,SYNC_IN*%
X133230000Y-83750000D03*
X133230000Y-81210000D03*
%TO.N,SYNC_OUT*%
X135770000Y-83750000D03*
X135770000Y-81210000D03*
%TO.N,GND*%
X138310000Y-83750000D03*
X138310000Y-81210000D03*
%TO.N,TRIGGER_OUT_4*%
X140850000Y-83750000D03*
X140850000Y-81210000D03*
%TO.N,4051_ADDRESS_A*%
X143390000Y-83750000D03*
X143390000Y-81210000D03*
%TO.N,4051_ADDRESS_B*%
X145930000Y-83750000D03*
X145930000Y-81210000D03*
%TO.N,4051_ADDRESS_C*%
X148470000Y-83750000D03*
X148470000Y-81210000D03*
%TO.N,GND*%
X151010000Y-83750000D03*
X151010000Y-81210000D03*
%TO.N,TRIGGER_OUT_3*%
X153550000Y-83750000D03*
X153550000Y-81210000D03*
%TO.N,unconnected-(A1-RUN-Pad30)*%
X156090000Y-83750000D03*
X156090000Y-81210000D03*
%TO.N,4051_READING_0*%
X158630000Y-83750000D03*
X158630000Y-81210000D03*
%TO.N,4051_READING_1*%
X161170000Y-83750000D03*
X161170000Y-81210000D03*
%TO.N,GND*%
X163710000Y-83750000D03*
X163710000Y-81210000D03*
%TO.N,TRIGGER_OUT_2*%
X166250000Y-83750000D03*
X166250000Y-81210000D03*
%TO.N,unconnected-(A1-ADC_VREF-Pad35)*%
X168790000Y-83750000D03*
X168790000Y-81210000D03*
%TO.N,+3.3V*%
X171330000Y-83750000D03*
X171330000Y-81210000D03*
%TO.N,unconnected-(A1-3V3_EN-Pad37)*%
X173870000Y-83750000D03*
X173870000Y-81210000D03*
%TO.N,GND*%
X176410000Y-83750000D03*
X176410000Y-81210000D03*
%TO.N,+5V*%
X178950000Y-83750000D03*
X178950000Y-81210000D03*
%TO.N,unconnected-(A1-VBUS-Pad40)*%
X181490000Y-83750000D03*
X181490000Y-81210000D03*
%TD*%
D14*
%TO.N,Net-(J15-Pin_1)*%
%TO.C,J15*%
X146190000Y-58250000D03*
D13*
%TO.N,Net-(J15-Pin_2)*%
X148730000Y-58250000D03*
%TO.N,Net-(J15-Pin_3)*%
X151270000Y-58250000D03*
%TO.N,Net-(J15-Pin_4)*%
X153810000Y-58250000D03*
%TD*%
D15*
%TO.N,*%
%TO.C,RV3*%
X115200000Y-45500000D03*
X124800000Y-45500000D03*
D16*
%TO.N,+3.3V*%
X117500000Y-53000000D03*
D17*
%TO.N,Net-(U6-A2)*%
X120000000Y-53000000D03*
%TO.N,GND*%
X122500000Y-53000000D03*
%TD*%
D18*
%TO.N,GND*%
%TO.C,J1*%
X96000000Y-130400000D03*
D19*
%TO.N,TRIGGER_OUT_1_EURO*%
X96000000Y-119000000D03*
%TO.N,unconnected-(J1-PadTN)*%
X96000000Y-127300000D03*
%TD*%
D18*
%TO.N,GND*%
%TO.C,J12*%
X132000000Y-130400000D03*
D19*
%TO.N,Net-(J12-PadT)*%
X132000000Y-119000000D03*
%TO.N,GND*%
X132000000Y-127300000D03*
%TD*%
D15*
%TO.N,*%
%TO.C,RV8*%
X135200000Y-67500000D03*
X144800000Y-67500000D03*
D16*
%TO.N,+3.3V*%
X137500000Y-75000000D03*
D17*
%TO.N,Net-(U6-A7)*%
X140000000Y-75000000D03*
%TO.N,GND*%
X142500000Y-75000000D03*
%TD*%
D18*
%TO.N,GND*%
%TO.C,J11*%
X120000000Y-130400000D03*
D19*
%TO.N,Net-(J11-PadT)*%
X120000000Y-119000000D03*
%TO.N,GND*%
X120000000Y-127300000D03*
%TD*%
D18*
%TO.N,GND*%
%TO.C,J9*%
X144000000Y-146400000D03*
D19*
%TO.N,EURO_OUT_2*%
X144000000Y-135000000D03*
%TO.N,unconnected-(J9-PadTN)*%
X144000000Y-143300000D03*
%TD*%
D15*
%TO.N,*%
%TO.C,RV4*%
X135200000Y-45500000D03*
X144800000Y-45500000D03*
D16*
%TO.N,+3.3V*%
X137500000Y-53000000D03*
D17*
%TO.N,Net-(U6-A3)*%
X140000000Y-53000000D03*
%TO.N,GND*%
X142500000Y-53000000D03*
%TD*%
D15*
%TO.N,*%
%TO.C,RV1*%
X75200000Y-45500000D03*
X84800000Y-45500000D03*
D16*
%TO.N,+3.3V*%
X77500000Y-53000000D03*
D17*
%TO.N,Net-(U6-A0)*%
X80000000Y-53000000D03*
%TO.N,GND*%
X82500000Y-53000000D03*
%TD*%
D15*
%TO.N,*%
%TO.C,RV10*%
X175200000Y-45500000D03*
X184800000Y-45500000D03*
D16*
%TO.N,+3.3V*%
X177500000Y-53000000D03*
D17*
%TO.N,Net-(U9-A1)*%
X180000000Y-53000000D03*
%TO.N,GND*%
X182500000Y-53000000D03*
%TD*%
D18*
%TO.N,GND*%
%TO.C,J3*%
X84000000Y-130400000D03*
D19*
%TO.N,SYNC_IN_EURO*%
X84000000Y-119000000D03*
%TO.N,unconnected-(J3-PadTN)*%
X84000000Y-127300000D03*
%TD*%
D18*
%TO.N,GND*%
%TO.C,J13*%
X120000000Y-146400000D03*
D19*
%TO.N,Net-(J13-PadT)*%
X120000000Y-135000000D03*
%TO.N,GND*%
X120000000Y-143300000D03*
%TD*%
D18*
%TO.N,GND*%
%TO.C,J14*%
X132000000Y-146400000D03*
D19*
%TO.N,Net-(J14-PadT)*%
X132000000Y-135000000D03*
%TO.N,GND*%
X132000000Y-143300000D03*
%TD*%
D15*
%TO.N,*%
%TO.C,RV7*%
X115200000Y-67500000D03*
X124800000Y-67500000D03*
D16*
%TO.N,+3.3V*%
X117500000Y-75000000D03*
D17*
%TO.N,Net-(U6-A6)*%
X120000000Y-75000000D03*
%TO.N,GND*%
X122500000Y-75000000D03*
%TD*%
D20*
%TO.N,unconnected-(J5-DAT2-Pad1)*%
%TO.C,J5*%
X181550000Y-96550000D03*
%TO.N,SD_CHIP_SELECT*%
X180450000Y-95450000D03*
%TO.N,SD_SERIAL_IN*%
X181550000Y-94350000D03*
%TO.N,+3.3V*%
X180450000Y-93250000D03*
%TO.N,SD_CLOCK*%
X181550000Y-92150000D03*
%TO.N,GND*%
X180450000Y-91050000D03*
%TO.N,SD_SERIAL_OUT*%
X181550000Y-89950000D03*
%TO.N,unconnected-(J5-DAT1-Pad8)*%
X180450000Y-88850000D03*
D21*
%TO.N,GND*%
X184720000Y-97000000D03*
X184720000Y-88400000D03*
%TD*%
D16*
%TO.N,GND*%
%TO.C,D3*%
X155725000Y-134600000D03*
D17*
%TO.N,Net-(D3-A)*%
X158265000Y-134600000D03*
%TD*%
D15*
%TO.N,*%
%TO.C,RV11*%
X155200000Y-67500000D03*
X164800000Y-67500000D03*
D16*
%TO.N,+3.3V*%
X157500000Y-75000000D03*
D17*
%TO.N,Net-(U9-A2)*%
X160000000Y-75000000D03*
%TO.N,GND*%
X162500000Y-75000000D03*
%TD*%
D15*
%TO.N,*%
%TO.C,RV9*%
X155200000Y-45500000D03*
X164800000Y-45500000D03*
D16*
%TO.N,+3.3V*%
X157500000Y-53000000D03*
D17*
%TO.N,Net-(U9-A0)*%
X160000000Y-53000000D03*
%TO.N,GND*%
X162500000Y-53000000D03*
%TD*%
D18*
%TO.N,GND*%
%TO.C,J6*%
X96000000Y-146400000D03*
D19*
%TO.N,TRIGGER_OUT_3_EURO*%
X96000000Y-135000000D03*
%TO.N,unconnected-(J6-PadTN)*%
X96000000Y-143300000D03*
%TD*%
D16*
%TO.N,GND*%
%TO.C,D2*%
X155725000Y-129050000D03*
D17*
%TO.N,Net-(D2-A)*%
X158265000Y-129050000D03*
%TD*%
D16*
%TO.N,GND*%
%TO.C,D1*%
X155725000Y-123500000D03*
D17*
%TO.N,Net-(D1-A)*%
X158265000Y-123500000D03*
%TD*%
D18*
%TO.N,GND*%
%TO.C,J4*%
X144000000Y-130400000D03*
D19*
%TO.N,EURO_OUT_1*%
X144000000Y-119000000D03*
%TO.N,unconnected-(J4-PadTN)*%
X144000000Y-127300000D03*
%TD*%
D16*
%TO.N,GND*%
%TO.C,D4*%
X155725000Y-140150000D03*
D17*
%TO.N,Net-(D4-A)*%
X158265000Y-140150000D03*
%TD*%
D15*
%TO.N,*%
%TO.C,RV12*%
X175200000Y-67500000D03*
X184800000Y-67500000D03*
D16*
%TO.N,+3.3V*%
X177500000Y-75000000D03*
D17*
%TO.N,Net-(U9-A3)*%
X180000000Y-75000000D03*
%TO.N,GND*%
X182500000Y-75000000D03*
%TD*%
D18*
%TO.N,GND*%
%TO.C,J7*%
X108000000Y-146400000D03*
D19*
%TO.N,TRIGGER_OUT_4_EURO*%
X108000000Y-135000000D03*
%TO.N,unconnected-(J7-PadTN)*%
X108000000Y-143300000D03*
%TD*%
D15*
%TO.N,*%
%TO.C,RV6*%
X95200000Y-67500000D03*
X104800000Y-67500000D03*
D16*
%TO.N,+3.3V*%
X97500000Y-75000000D03*
D17*
%TO.N,Net-(U6-A5)*%
X100000000Y-75000000D03*
%TO.N,GND*%
X102500000Y-75000000D03*
%TD*%
D18*
%TO.N,GND*%
%TO.C,J2*%
X108000000Y-130400000D03*
D19*
%TO.N,TRIGGER_OUT_2_EURO*%
X108000000Y-119000000D03*
%TO.N,unconnected-(J2-PadTN)*%
X108000000Y-127300000D03*
%TD*%
D15*
%TO.N,*%
%TO.C,RV5*%
X75200000Y-67500000D03*
X84800000Y-67500000D03*
D16*
%TO.N,+3.3V*%
X77500000Y-75000000D03*
D17*
%TO.N,Net-(U6-A4)*%
X80000000Y-75000000D03*
%TO.N,GND*%
X82500000Y-75000000D03*
%TD*%
D15*
%TO.N,*%
%TO.C,RV2*%
X95200000Y-45500000D03*
X104800000Y-45500000D03*
D16*
%TO.N,+3.3V*%
X97500000Y-53000000D03*
D17*
%TO.N,Net-(U6-A1)*%
X100000000Y-53000000D03*
%TO.N,GND*%
X102500000Y-53000000D03*
%TD*%
D18*
%TO.N,GND*%
%TO.C,J8*%
X84000000Y-146400000D03*
D19*
%TO.N,SYNC_OUT_EURO*%
X84000000Y-135000000D03*
%TO.N,unconnected-(J8-PadTN)*%
X84000000Y-143300000D03*
%TD*%
D14*
%TO.N,SERIAL_TX*%
%TO.C,J10*%
X185000000Y-111540000D03*
D13*
%TO.N,GND*%
X185000000Y-109000000D03*
%TO.N,SERIAL_RX*%
X185000000Y-106460000D03*
%TD*%
D22*
%TO.N,-12V*%
%TO.C,J16*%
X165000000Y-129180000D03*
D13*
X167540000Y-129180000D03*
%TO.N,GND*%
X165000000Y-126640000D03*
X167540000Y-126640000D03*
X165000000Y-124100000D03*
X167540000Y-124100000D03*
X165000000Y-121560000D03*
X167540000Y-121560000D03*
%TO.N,+12V*%
X165000000Y-119020000D03*
X167540000Y-119020000D03*
%TD*%
M02*
