%TF.GenerationSoftware,KiCad,Pcbnew,7.0.2*%
%TF.CreationDate,2025-03-27T17:54:01+00:00*%
%TF.ProjectId,dk2_04b_top,646b325f-3034-4625-9f74-6f702e6b6963,rev?*%
%TF.SameCoordinates,Original*%
%TF.FileFunction,Other,Comment*%
%FSLAX46Y46*%
G04 Gerber Fmt 4.6, Leading zero omitted, Abs format (unit mm)*
G04 Created by KiCad (PCBNEW 7.0.2) date 2025-03-27 17:54:01*
%MOMM*%
%LPD*%
G01*
G04 APERTURE LIST*
%ADD10C,0.051000*%
%ADD11C,0.150000*%
G04 APERTURE END LIST*
D10*
%TO.C,J2*%
X94761904Y-124105047D02*
X94761904Y-123705047D01*
X94990475Y-124105047D02*
X94819046Y-123876476D01*
X94990475Y-123705047D02*
X94761904Y-123933619D01*
X95161904Y-123895523D02*
X95295237Y-123895523D01*
X95352380Y-124105047D02*
X95161904Y-124105047D01*
X95161904Y-124105047D02*
X95161904Y-123705047D01*
X95161904Y-123705047D02*
X95352380Y-123705047D01*
X95523809Y-123895523D02*
X95657142Y-123895523D01*
X95714285Y-124105047D02*
X95523809Y-124105047D01*
X95523809Y-124105047D02*
X95523809Y-123705047D01*
X95523809Y-123705047D02*
X95714285Y-123705047D01*
X95885714Y-124105047D02*
X95885714Y-123705047D01*
X95885714Y-123705047D02*
X96038095Y-123705047D01*
X96038095Y-123705047D02*
X96076190Y-123724095D01*
X96076190Y-123724095D02*
X96095237Y-123743142D01*
X96095237Y-123743142D02*
X96114285Y-123781238D01*
X96114285Y-123781238D02*
X96114285Y-123838380D01*
X96114285Y-123838380D02*
X96095237Y-123876476D01*
X96095237Y-123876476D02*
X96076190Y-123895523D01*
X96076190Y-123895523D02*
X96038095Y-123914571D01*
X96038095Y-123914571D02*
X95885714Y-123914571D01*
X96361904Y-123705047D02*
X96438095Y-123705047D01*
X96438095Y-123705047D02*
X96476190Y-123724095D01*
X96476190Y-123724095D02*
X96514285Y-123762190D01*
X96514285Y-123762190D02*
X96533333Y-123838380D01*
X96533333Y-123838380D02*
X96533333Y-123971714D01*
X96533333Y-123971714D02*
X96514285Y-124047904D01*
X96514285Y-124047904D02*
X96476190Y-124086000D01*
X96476190Y-124086000D02*
X96438095Y-124105047D01*
X96438095Y-124105047D02*
X96361904Y-124105047D01*
X96361904Y-124105047D02*
X96323809Y-124086000D01*
X96323809Y-124086000D02*
X96285714Y-124047904D01*
X96285714Y-124047904D02*
X96266666Y-123971714D01*
X96266666Y-123971714D02*
X96266666Y-123838380D01*
X96266666Y-123838380D02*
X96285714Y-123762190D01*
X96285714Y-123762190D02*
X96323809Y-123724095D01*
X96323809Y-123724095D02*
X96361904Y-123705047D01*
X96704762Y-123705047D02*
X96704762Y-124028857D01*
X96704762Y-124028857D02*
X96723809Y-124066952D01*
X96723809Y-124066952D02*
X96742857Y-124086000D01*
X96742857Y-124086000D02*
X96780952Y-124105047D01*
X96780952Y-124105047D02*
X96857143Y-124105047D01*
X96857143Y-124105047D02*
X96895238Y-124086000D01*
X96895238Y-124086000D02*
X96914285Y-124066952D01*
X96914285Y-124066952D02*
X96933333Y-124028857D01*
X96933333Y-124028857D02*
X96933333Y-123705047D01*
X97066667Y-123705047D02*
X97295238Y-123705047D01*
X97180952Y-124105047D02*
X97180952Y-123705047D01*
%TO.C,J13*%
X130761904Y-124105047D02*
X130761904Y-123705047D01*
X130990475Y-124105047D02*
X130819046Y-123876476D01*
X130990475Y-123705047D02*
X130761904Y-123933619D01*
X131161904Y-123895523D02*
X131295237Y-123895523D01*
X131352380Y-124105047D02*
X131161904Y-124105047D01*
X131161904Y-124105047D02*
X131161904Y-123705047D01*
X131161904Y-123705047D02*
X131352380Y-123705047D01*
X131523809Y-123895523D02*
X131657142Y-123895523D01*
X131714285Y-124105047D02*
X131523809Y-124105047D01*
X131523809Y-124105047D02*
X131523809Y-123705047D01*
X131523809Y-123705047D02*
X131714285Y-123705047D01*
X131885714Y-124105047D02*
X131885714Y-123705047D01*
X131885714Y-123705047D02*
X132038095Y-123705047D01*
X132038095Y-123705047D02*
X132076190Y-123724095D01*
X132076190Y-123724095D02*
X132095237Y-123743142D01*
X132095237Y-123743142D02*
X132114285Y-123781238D01*
X132114285Y-123781238D02*
X132114285Y-123838380D01*
X132114285Y-123838380D02*
X132095237Y-123876476D01*
X132095237Y-123876476D02*
X132076190Y-123895523D01*
X132076190Y-123895523D02*
X132038095Y-123914571D01*
X132038095Y-123914571D02*
X131885714Y-123914571D01*
X132361904Y-123705047D02*
X132438095Y-123705047D01*
X132438095Y-123705047D02*
X132476190Y-123724095D01*
X132476190Y-123724095D02*
X132514285Y-123762190D01*
X132514285Y-123762190D02*
X132533333Y-123838380D01*
X132533333Y-123838380D02*
X132533333Y-123971714D01*
X132533333Y-123971714D02*
X132514285Y-124047904D01*
X132514285Y-124047904D02*
X132476190Y-124086000D01*
X132476190Y-124086000D02*
X132438095Y-124105047D01*
X132438095Y-124105047D02*
X132361904Y-124105047D01*
X132361904Y-124105047D02*
X132323809Y-124086000D01*
X132323809Y-124086000D02*
X132285714Y-124047904D01*
X132285714Y-124047904D02*
X132266666Y-123971714D01*
X132266666Y-123971714D02*
X132266666Y-123838380D01*
X132266666Y-123838380D02*
X132285714Y-123762190D01*
X132285714Y-123762190D02*
X132323809Y-123724095D01*
X132323809Y-123724095D02*
X132361904Y-123705047D01*
X132704762Y-123705047D02*
X132704762Y-124028857D01*
X132704762Y-124028857D02*
X132723809Y-124066952D01*
X132723809Y-124066952D02*
X132742857Y-124086000D01*
X132742857Y-124086000D02*
X132780952Y-124105047D01*
X132780952Y-124105047D02*
X132857143Y-124105047D01*
X132857143Y-124105047D02*
X132895238Y-124086000D01*
X132895238Y-124086000D02*
X132914285Y-124066952D01*
X132914285Y-124066952D02*
X132933333Y-124028857D01*
X132933333Y-124028857D02*
X132933333Y-123705047D01*
X133066667Y-123705047D02*
X133295238Y-123705047D01*
X133180952Y-124105047D02*
X133180952Y-123705047D01*
%TO.C,J12*%
X118761904Y-124105047D02*
X118761904Y-123705047D01*
X118990475Y-124105047D02*
X118819046Y-123876476D01*
X118990475Y-123705047D02*
X118761904Y-123933619D01*
X119161904Y-123895523D02*
X119295237Y-123895523D01*
X119352380Y-124105047D02*
X119161904Y-124105047D01*
X119161904Y-124105047D02*
X119161904Y-123705047D01*
X119161904Y-123705047D02*
X119352380Y-123705047D01*
X119523809Y-123895523D02*
X119657142Y-123895523D01*
X119714285Y-124105047D02*
X119523809Y-124105047D01*
X119523809Y-124105047D02*
X119523809Y-123705047D01*
X119523809Y-123705047D02*
X119714285Y-123705047D01*
X119885714Y-124105047D02*
X119885714Y-123705047D01*
X119885714Y-123705047D02*
X120038095Y-123705047D01*
X120038095Y-123705047D02*
X120076190Y-123724095D01*
X120076190Y-123724095D02*
X120095237Y-123743142D01*
X120095237Y-123743142D02*
X120114285Y-123781238D01*
X120114285Y-123781238D02*
X120114285Y-123838380D01*
X120114285Y-123838380D02*
X120095237Y-123876476D01*
X120095237Y-123876476D02*
X120076190Y-123895523D01*
X120076190Y-123895523D02*
X120038095Y-123914571D01*
X120038095Y-123914571D02*
X119885714Y-123914571D01*
X120361904Y-123705047D02*
X120438095Y-123705047D01*
X120438095Y-123705047D02*
X120476190Y-123724095D01*
X120476190Y-123724095D02*
X120514285Y-123762190D01*
X120514285Y-123762190D02*
X120533333Y-123838380D01*
X120533333Y-123838380D02*
X120533333Y-123971714D01*
X120533333Y-123971714D02*
X120514285Y-124047904D01*
X120514285Y-124047904D02*
X120476190Y-124086000D01*
X120476190Y-124086000D02*
X120438095Y-124105047D01*
X120438095Y-124105047D02*
X120361904Y-124105047D01*
X120361904Y-124105047D02*
X120323809Y-124086000D01*
X120323809Y-124086000D02*
X120285714Y-124047904D01*
X120285714Y-124047904D02*
X120266666Y-123971714D01*
X120266666Y-123971714D02*
X120266666Y-123838380D01*
X120266666Y-123838380D02*
X120285714Y-123762190D01*
X120285714Y-123762190D02*
X120323809Y-123724095D01*
X120323809Y-123724095D02*
X120361904Y-123705047D01*
X120704762Y-123705047D02*
X120704762Y-124028857D01*
X120704762Y-124028857D02*
X120723809Y-124066952D01*
X120723809Y-124066952D02*
X120742857Y-124086000D01*
X120742857Y-124086000D02*
X120780952Y-124105047D01*
X120780952Y-124105047D02*
X120857143Y-124105047D01*
X120857143Y-124105047D02*
X120895238Y-124086000D01*
X120895238Y-124086000D02*
X120914285Y-124066952D01*
X120914285Y-124066952D02*
X120933333Y-124028857D01*
X120933333Y-124028857D02*
X120933333Y-123705047D01*
X121066667Y-123705047D02*
X121295238Y-123705047D01*
X121180952Y-124105047D02*
X121180952Y-123705047D01*
%TO.C,J11*%
X142761904Y-140105047D02*
X142761904Y-139705047D01*
X142990475Y-140105047D02*
X142819046Y-139876476D01*
X142990475Y-139705047D02*
X142761904Y-139933619D01*
X143161904Y-139895523D02*
X143295237Y-139895523D01*
X143352380Y-140105047D02*
X143161904Y-140105047D01*
X143161904Y-140105047D02*
X143161904Y-139705047D01*
X143161904Y-139705047D02*
X143352380Y-139705047D01*
X143523809Y-139895523D02*
X143657142Y-139895523D01*
X143714285Y-140105047D02*
X143523809Y-140105047D01*
X143523809Y-140105047D02*
X143523809Y-139705047D01*
X143523809Y-139705047D02*
X143714285Y-139705047D01*
X143885714Y-140105047D02*
X143885714Y-139705047D01*
X143885714Y-139705047D02*
X144038095Y-139705047D01*
X144038095Y-139705047D02*
X144076190Y-139724095D01*
X144076190Y-139724095D02*
X144095237Y-139743142D01*
X144095237Y-139743142D02*
X144114285Y-139781238D01*
X144114285Y-139781238D02*
X144114285Y-139838380D01*
X144114285Y-139838380D02*
X144095237Y-139876476D01*
X144095237Y-139876476D02*
X144076190Y-139895523D01*
X144076190Y-139895523D02*
X144038095Y-139914571D01*
X144038095Y-139914571D02*
X143885714Y-139914571D01*
X144361904Y-139705047D02*
X144438095Y-139705047D01*
X144438095Y-139705047D02*
X144476190Y-139724095D01*
X144476190Y-139724095D02*
X144514285Y-139762190D01*
X144514285Y-139762190D02*
X144533333Y-139838380D01*
X144533333Y-139838380D02*
X144533333Y-139971714D01*
X144533333Y-139971714D02*
X144514285Y-140047904D01*
X144514285Y-140047904D02*
X144476190Y-140086000D01*
X144476190Y-140086000D02*
X144438095Y-140105047D01*
X144438095Y-140105047D02*
X144361904Y-140105047D01*
X144361904Y-140105047D02*
X144323809Y-140086000D01*
X144323809Y-140086000D02*
X144285714Y-140047904D01*
X144285714Y-140047904D02*
X144266666Y-139971714D01*
X144266666Y-139971714D02*
X144266666Y-139838380D01*
X144266666Y-139838380D02*
X144285714Y-139762190D01*
X144285714Y-139762190D02*
X144323809Y-139724095D01*
X144323809Y-139724095D02*
X144361904Y-139705047D01*
X144704762Y-139705047D02*
X144704762Y-140028857D01*
X144704762Y-140028857D02*
X144723809Y-140066952D01*
X144723809Y-140066952D02*
X144742857Y-140086000D01*
X144742857Y-140086000D02*
X144780952Y-140105047D01*
X144780952Y-140105047D02*
X144857143Y-140105047D01*
X144857143Y-140105047D02*
X144895238Y-140086000D01*
X144895238Y-140086000D02*
X144914285Y-140066952D01*
X144914285Y-140066952D02*
X144933333Y-140028857D01*
X144933333Y-140028857D02*
X144933333Y-139705047D01*
X145066667Y-139705047D02*
X145295238Y-139705047D01*
X145180952Y-140105047D02*
X145180952Y-139705047D01*
%TO.C,J4*%
X82761904Y-124105047D02*
X82761904Y-123705047D01*
X82990475Y-124105047D02*
X82819046Y-123876476D01*
X82990475Y-123705047D02*
X82761904Y-123933619D01*
X83161904Y-123895523D02*
X83295237Y-123895523D01*
X83352380Y-124105047D02*
X83161904Y-124105047D01*
X83161904Y-124105047D02*
X83161904Y-123705047D01*
X83161904Y-123705047D02*
X83352380Y-123705047D01*
X83523809Y-123895523D02*
X83657142Y-123895523D01*
X83714285Y-124105047D02*
X83523809Y-124105047D01*
X83523809Y-124105047D02*
X83523809Y-123705047D01*
X83523809Y-123705047D02*
X83714285Y-123705047D01*
X83885714Y-124105047D02*
X83885714Y-123705047D01*
X83885714Y-123705047D02*
X84038095Y-123705047D01*
X84038095Y-123705047D02*
X84076190Y-123724095D01*
X84076190Y-123724095D02*
X84095237Y-123743142D01*
X84095237Y-123743142D02*
X84114285Y-123781238D01*
X84114285Y-123781238D02*
X84114285Y-123838380D01*
X84114285Y-123838380D02*
X84095237Y-123876476D01*
X84095237Y-123876476D02*
X84076190Y-123895523D01*
X84076190Y-123895523D02*
X84038095Y-123914571D01*
X84038095Y-123914571D02*
X83885714Y-123914571D01*
X84361904Y-123705047D02*
X84438095Y-123705047D01*
X84438095Y-123705047D02*
X84476190Y-123724095D01*
X84476190Y-123724095D02*
X84514285Y-123762190D01*
X84514285Y-123762190D02*
X84533333Y-123838380D01*
X84533333Y-123838380D02*
X84533333Y-123971714D01*
X84533333Y-123971714D02*
X84514285Y-124047904D01*
X84514285Y-124047904D02*
X84476190Y-124086000D01*
X84476190Y-124086000D02*
X84438095Y-124105047D01*
X84438095Y-124105047D02*
X84361904Y-124105047D01*
X84361904Y-124105047D02*
X84323809Y-124086000D01*
X84323809Y-124086000D02*
X84285714Y-124047904D01*
X84285714Y-124047904D02*
X84266666Y-123971714D01*
X84266666Y-123971714D02*
X84266666Y-123838380D01*
X84266666Y-123838380D02*
X84285714Y-123762190D01*
X84285714Y-123762190D02*
X84323809Y-123724095D01*
X84323809Y-123724095D02*
X84361904Y-123705047D01*
X84704762Y-123705047D02*
X84704762Y-124028857D01*
X84704762Y-124028857D02*
X84723809Y-124066952D01*
X84723809Y-124066952D02*
X84742857Y-124086000D01*
X84742857Y-124086000D02*
X84780952Y-124105047D01*
X84780952Y-124105047D02*
X84857143Y-124105047D01*
X84857143Y-124105047D02*
X84895238Y-124086000D01*
X84895238Y-124086000D02*
X84914285Y-124066952D01*
X84914285Y-124066952D02*
X84933333Y-124028857D01*
X84933333Y-124028857D02*
X84933333Y-123705047D01*
X85066667Y-123705047D02*
X85295238Y-123705047D01*
X85180952Y-124105047D02*
X85180952Y-123705047D01*
%TO.C,J14*%
X118761904Y-140105047D02*
X118761904Y-139705047D01*
X118990475Y-140105047D02*
X118819046Y-139876476D01*
X118990475Y-139705047D02*
X118761904Y-139933619D01*
X119161904Y-139895523D02*
X119295237Y-139895523D01*
X119352380Y-140105047D02*
X119161904Y-140105047D01*
X119161904Y-140105047D02*
X119161904Y-139705047D01*
X119161904Y-139705047D02*
X119352380Y-139705047D01*
X119523809Y-139895523D02*
X119657142Y-139895523D01*
X119714285Y-140105047D02*
X119523809Y-140105047D01*
X119523809Y-140105047D02*
X119523809Y-139705047D01*
X119523809Y-139705047D02*
X119714285Y-139705047D01*
X119885714Y-140105047D02*
X119885714Y-139705047D01*
X119885714Y-139705047D02*
X120038095Y-139705047D01*
X120038095Y-139705047D02*
X120076190Y-139724095D01*
X120076190Y-139724095D02*
X120095237Y-139743142D01*
X120095237Y-139743142D02*
X120114285Y-139781238D01*
X120114285Y-139781238D02*
X120114285Y-139838380D01*
X120114285Y-139838380D02*
X120095237Y-139876476D01*
X120095237Y-139876476D02*
X120076190Y-139895523D01*
X120076190Y-139895523D02*
X120038095Y-139914571D01*
X120038095Y-139914571D02*
X119885714Y-139914571D01*
X120361904Y-139705047D02*
X120438095Y-139705047D01*
X120438095Y-139705047D02*
X120476190Y-139724095D01*
X120476190Y-139724095D02*
X120514285Y-139762190D01*
X120514285Y-139762190D02*
X120533333Y-139838380D01*
X120533333Y-139838380D02*
X120533333Y-139971714D01*
X120533333Y-139971714D02*
X120514285Y-140047904D01*
X120514285Y-140047904D02*
X120476190Y-140086000D01*
X120476190Y-140086000D02*
X120438095Y-140105047D01*
X120438095Y-140105047D02*
X120361904Y-140105047D01*
X120361904Y-140105047D02*
X120323809Y-140086000D01*
X120323809Y-140086000D02*
X120285714Y-140047904D01*
X120285714Y-140047904D02*
X120266666Y-139971714D01*
X120266666Y-139971714D02*
X120266666Y-139838380D01*
X120266666Y-139838380D02*
X120285714Y-139762190D01*
X120285714Y-139762190D02*
X120323809Y-139724095D01*
X120323809Y-139724095D02*
X120361904Y-139705047D01*
X120704762Y-139705047D02*
X120704762Y-140028857D01*
X120704762Y-140028857D02*
X120723809Y-140066952D01*
X120723809Y-140066952D02*
X120742857Y-140086000D01*
X120742857Y-140086000D02*
X120780952Y-140105047D01*
X120780952Y-140105047D02*
X120857143Y-140105047D01*
X120857143Y-140105047D02*
X120895238Y-140086000D01*
X120895238Y-140086000D02*
X120914285Y-140066952D01*
X120914285Y-140066952D02*
X120933333Y-140028857D01*
X120933333Y-140028857D02*
X120933333Y-139705047D01*
X121066667Y-139705047D02*
X121295238Y-139705047D01*
X121180952Y-140105047D02*
X121180952Y-139705047D01*
%TO.C,J15*%
X130761904Y-140105047D02*
X130761904Y-139705047D01*
X130990475Y-140105047D02*
X130819046Y-139876476D01*
X130990475Y-139705047D02*
X130761904Y-139933619D01*
X131161904Y-139895523D02*
X131295237Y-139895523D01*
X131352380Y-140105047D02*
X131161904Y-140105047D01*
X131161904Y-140105047D02*
X131161904Y-139705047D01*
X131161904Y-139705047D02*
X131352380Y-139705047D01*
X131523809Y-139895523D02*
X131657142Y-139895523D01*
X131714285Y-140105047D02*
X131523809Y-140105047D01*
X131523809Y-140105047D02*
X131523809Y-139705047D01*
X131523809Y-139705047D02*
X131714285Y-139705047D01*
X131885714Y-140105047D02*
X131885714Y-139705047D01*
X131885714Y-139705047D02*
X132038095Y-139705047D01*
X132038095Y-139705047D02*
X132076190Y-139724095D01*
X132076190Y-139724095D02*
X132095237Y-139743142D01*
X132095237Y-139743142D02*
X132114285Y-139781238D01*
X132114285Y-139781238D02*
X132114285Y-139838380D01*
X132114285Y-139838380D02*
X132095237Y-139876476D01*
X132095237Y-139876476D02*
X132076190Y-139895523D01*
X132076190Y-139895523D02*
X132038095Y-139914571D01*
X132038095Y-139914571D02*
X131885714Y-139914571D01*
X132361904Y-139705047D02*
X132438095Y-139705047D01*
X132438095Y-139705047D02*
X132476190Y-139724095D01*
X132476190Y-139724095D02*
X132514285Y-139762190D01*
X132514285Y-139762190D02*
X132533333Y-139838380D01*
X132533333Y-139838380D02*
X132533333Y-139971714D01*
X132533333Y-139971714D02*
X132514285Y-140047904D01*
X132514285Y-140047904D02*
X132476190Y-140086000D01*
X132476190Y-140086000D02*
X132438095Y-140105047D01*
X132438095Y-140105047D02*
X132361904Y-140105047D01*
X132361904Y-140105047D02*
X132323809Y-140086000D01*
X132323809Y-140086000D02*
X132285714Y-140047904D01*
X132285714Y-140047904D02*
X132266666Y-139971714D01*
X132266666Y-139971714D02*
X132266666Y-139838380D01*
X132266666Y-139838380D02*
X132285714Y-139762190D01*
X132285714Y-139762190D02*
X132323809Y-139724095D01*
X132323809Y-139724095D02*
X132361904Y-139705047D01*
X132704762Y-139705047D02*
X132704762Y-140028857D01*
X132704762Y-140028857D02*
X132723809Y-140066952D01*
X132723809Y-140066952D02*
X132742857Y-140086000D01*
X132742857Y-140086000D02*
X132780952Y-140105047D01*
X132780952Y-140105047D02*
X132857143Y-140105047D01*
X132857143Y-140105047D02*
X132895238Y-140086000D01*
X132895238Y-140086000D02*
X132914285Y-140066952D01*
X132914285Y-140066952D02*
X132933333Y-140028857D01*
X132933333Y-140028857D02*
X132933333Y-139705047D01*
X133066667Y-139705047D02*
X133295238Y-139705047D01*
X133180952Y-140105047D02*
X133180952Y-139705047D01*
%TO.C,J8*%
X94761904Y-140105047D02*
X94761904Y-139705047D01*
X94990475Y-140105047D02*
X94819046Y-139876476D01*
X94990475Y-139705047D02*
X94761904Y-139933619D01*
X95161904Y-139895523D02*
X95295237Y-139895523D01*
X95352380Y-140105047D02*
X95161904Y-140105047D01*
X95161904Y-140105047D02*
X95161904Y-139705047D01*
X95161904Y-139705047D02*
X95352380Y-139705047D01*
X95523809Y-139895523D02*
X95657142Y-139895523D01*
X95714285Y-140105047D02*
X95523809Y-140105047D01*
X95523809Y-140105047D02*
X95523809Y-139705047D01*
X95523809Y-139705047D02*
X95714285Y-139705047D01*
X95885714Y-140105047D02*
X95885714Y-139705047D01*
X95885714Y-139705047D02*
X96038095Y-139705047D01*
X96038095Y-139705047D02*
X96076190Y-139724095D01*
X96076190Y-139724095D02*
X96095237Y-139743142D01*
X96095237Y-139743142D02*
X96114285Y-139781238D01*
X96114285Y-139781238D02*
X96114285Y-139838380D01*
X96114285Y-139838380D02*
X96095237Y-139876476D01*
X96095237Y-139876476D02*
X96076190Y-139895523D01*
X96076190Y-139895523D02*
X96038095Y-139914571D01*
X96038095Y-139914571D02*
X95885714Y-139914571D01*
X96361904Y-139705047D02*
X96438095Y-139705047D01*
X96438095Y-139705047D02*
X96476190Y-139724095D01*
X96476190Y-139724095D02*
X96514285Y-139762190D01*
X96514285Y-139762190D02*
X96533333Y-139838380D01*
X96533333Y-139838380D02*
X96533333Y-139971714D01*
X96533333Y-139971714D02*
X96514285Y-140047904D01*
X96514285Y-140047904D02*
X96476190Y-140086000D01*
X96476190Y-140086000D02*
X96438095Y-140105047D01*
X96438095Y-140105047D02*
X96361904Y-140105047D01*
X96361904Y-140105047D02*
X96323809Y-140086000D01*
X96323809Y-140086000D02*
X96285714Y-140047904D01*
X96285714Y-140047904D02*
X96266666Y-139971714D01*
X96266666Y-139971714D02*
X96266666Y-139838380D01*
X96266666Y-139838380D02*
X96285714Y-139762190D01*
X96285714Y-139762190D02*
X96323809Y-139724095D01*
X96323809Y-139724095D02*
X96361904Y-139705047D01*
X96704762Y-139705047D02*
X96704762Y-140028857D01*
X96704762Y-140028857D02*
X96723809Y-140066952D01*
X96723809Y-140066952D02*
X96742857Y-140086000D01*
X96742857Y-140086000D02*
X96780952Y-140105047D01*
X96780952Y-140105047D02*
X96857143Y-140105047D01*
X96857143Y-140105047D02*
X96895238Y-140086000D01*
X96895238Y-140086000D02*
X96914285Y-140066952D01*
X96914285Y-140066952D02*
X96933333Y-140028857D01*
X96933333Y-140028857D02*
X96933333Y-139705047D01*
X97066667Y-139705047D02*
X97295238Y-139705047D01*
X97180952Y-140105047D02*
X97180952Y-139705047D01*
%TO.C,J5*%
X142761904Y-124105047D02*
X142761904Y-123705047D01*
X142990475Y-124105047D02*
X142819046Y-123876476D01*
X142990475Y-123705047D02*
X142761904Y-123933619D01*
X143161904Y-123895523D02*
X143295237Y-123895523D01*
X143352380Y-124105047D02*
X143161904Y-124105047D01*
X143161904Y-124105047D02*
X143161904Y-123705047D01*
X143161904Y-123705047D02*
X143352380Y-123705047D01*
X143523809Y-123895523D02*
X143657142Y-123895523D01*
X143714285Y-124105047D02*
X143523809Y-124105047D01*
X143523809Y-124105047D02*
X143523809Y-123705047D01*
X143523809Y-123705047D02*
X143714285Y-123705047D01*
X143885714Y-124105047D02*
X143885714Y-123705047D01*
X143885714Y-123705047D02*
X144038095Y-123705047D01*
X144038095Y-123705047D02*
X144076190Y-123724095D01*
X144076190Y-123724095D02*
X144095237Y-123743142D01*
X144095237Y-123743142D02*
X144114285Y-123781238D01*
X144114285Y-123781238D02*
X144114285Y-123838380D01*
X144114285Y-123838380D02*
X144095237Y-123876476D01*
X144095237Y-123876476D02*
X144076190Y-123895523D01*
X144076190Y-123895523D02*
X144038095Y-123914571D01*
X144038095Y-123914571D02*
X143885714Y-123914571D01*
X144361904Y-123705047D02*
X144438095Y-123705047D01*
X144438095Y-123705047D02*
X144476190Y-123724095D01*
X144476190Y-123724095D02*
X144514285Y-123762190D01*
X144514285Y-123762190D02*
X144533333Y-123838380D01*
X144533333Y-123838380D02*
X144533333Y-123971714D01*
X144533333Y-123971714D02*
X144514285Y-124047904D01*
X144514285Y-124047904D02*
X144476190Y-124086000D01*
X144476190Y-124086000D02*
X144438095Y-124105047D01*
X144438095Y-124105047D02*
X144361904Y-124105047D01*
X144361904Y-124105047D02*
X144323809Y-124086000D01*
X144323809Y-124086000D02*
X144285714Y-124047904D01*
X144285714Y-124047904D02*
X144266666Y-123971714D01*
X144266666Y-123971714D02*
X144266666Y-123838380D01*
X144266666Y-123838380D02*
X144285714Y-123762190D01*
X144285714Y-123762190D02*
X144323809Y-123724095D01*
X144323809Y-123724095D02*
X144361904Y-123705047D01*
X144704762Y-123705047D02*
X144704762Y-124028857D01*
X144704762Y-124028857D02*
X144723809Y-124066952D01*
X144723809Y-124066952D02*
X144742857Y-124086000D01*
X144742857Y-124086000D02*
X144780952Y-124105047D01*
X144780952Y-124105047D02*
X144857143Y-124105047D01*
X144857143Y-124105047D02*
X144895238Y-124086000D01*
X144895238Y-124086000D02*
X144914285Y-124066952D01*
X144914285Y-124066952D02*
X144933333Y-124028857D01*
X144933333Y-124028857D02*
X144933333Y-123705047D01*
X145066667Y-123705047D02*
X145295238Y-123705047D01*
X145180952Y-124105047D02*
X145180952Y-123705047D01*
%TO.C,J9*%
X106761904Y-140105047D02*
X106761904Y-139705047D01*
X106990475Y-140105047D02*
X106819046Y-139876476D01*
X106990475Y-139705047D02*
X106761904Y-139933619D01*
X107161904Y-139895523D02*
X107295237Y-139895523D01*
X107352380Y-140105047D02*
X107161904Y-140105047D01*
X107161904Y-140105047D02*
X107161904Y-139705047D01*
X107161904Y-139705047D02*
X107352380Y-139705047D01*
X107523809Y-139895523D02*
X107657142Y-139895523D01*
X107714285Y-140105047D02*
X107523809Y-140105047D01*
X107523809Y-140105047D02*
X107523809Y-139705047D01*
X107523809Y-139705047D02*
X107714285Y-139705047D01*
X107885714Y-140105047D02*
X107885714Y-139705047D01*
X107885714Y-139705047D02*
X108038095Y-139705047D01*
X108038095Y-139705047D02*
X108076190Y-139724095D01*
X108076190Y-139724095D02*
X108095237Y-139743142D01*
X108095237Y-139743142D02*
X108114285Y-139781238D01*
X108114285Y-139781238D02*
X108114285Y-139838380D01*
X108114285Y-139838380D02*
X108095237Y-139876476D01*
X108095237Y-139876476D02*
X108076190Y-139895523D01*
X108076190Y-139895523D02*
X108038095Y-139914571D01*
X108038095Y-139914571D02*
X107885714Y-139914571D01*
X108361904Y-139705047D02*
X108438095Y-139705047D01*
X108438095Y-139705047D02*
X108476190Y-139724095D01*
X108476190Y-139724095D02*
X108514285Y-139762190D01*
X108514285Y-139762190D02*
X108533333Y-139838380D01*
X108533333Y-139838380D02*
X108533333Y-139971714D01*
X108533333Y-139971714D02*
X108514285Y-140047904D01*
X108514285Y-140047904D02*
X108476190Y-140086000D01*
X108476190Y-140086000D02*
X108438095Y-140105047D01*
X108438095Y-140105047D02*
X108361904Y-140105047D01*
X108361904Y-140105047D02*
X108323809Y-140086000D01*
X108323809Y-140086000D02*
X108285714Y-140047904D01*
X108285714Y-140047904D02*
X108266666Y-139971714D01*
X108266666Y-139971714D02*
X108266666Y-139838380D01*
X108266666Y-139838380D02*
X108285714Y-139762190D01*
X108285714Y-139762190D02*
X108323809Y-139724095D01*
X108323809Y-139724095D02*
X108361904Y-139705047D01*
X108704762Y-139705047D02*
X108704762Y-140028857D01*
X108704762Y-140028857D02*
X108723809Y-140066952D01*
X108723809Y-140066952D02*
X108742857Y-140086000D01*
X108742857Y-140086000D02*
X108780952Y-140105047D01*
X108780952Y-140105047D02*
X108857143Y-140105047D01*
X108857143Y-140105047D02*
X108895238Y-140086000D01*
X108895238Y-140086000D02*
X108914285Y-140066952D01*
X108914285Y-140066952D02*
X108933333Y-140028857D01*
X108933333Y-140028857D02*
X108933333Y-139705047D01*
X109066667Y-139705047D02*
X109295238Y-139705047D01*
X109180952Y-140105047D02*
X109180952Y-139705047D01*
%TO.C,J3*%
X106761904Y-124105047D02*
X106761904Y-123705047D01*
X106990475Y-124105047D02*
X106819046Y-123876476D01*
X106990475Y-123705047D02*
X106761904Y-123933619D01*
X107161904Y-123895523D02*
X107295237Y-123895523D01*
X107352380Y-124105047D02*
X107161904Y-124105047D01*
X107161904Y-124105047D02*
X107161904Y-123705047D01*
X107161904Y-123705047D02*
X107352380Y-123705047D01*
X107523809Y-123895523D02*
X107657142Y-123895523D01*
X107714285Y-124105047D02*
X107523809Y-124105047D01*
X107523809Y-124105047D02*
X107523809Y-123705047D01*
X107523809Y-123705047D02*
X107714285Y-123705047D01*
X107885714Y-124105047D02*
X107885714Y-123705047D01*
X107885714Y-123705047D02*
X108038095Y-123705047D01*
X108038095Y-123705047D02*
X108076190Y-123724095D01*
X108076190Y-123724095D02*
X108095237Y-123743142D01*
X108095237Y-123743142D02*
X108114285Y-123781238D01*
X108114285Y-123781238D02*
X108114285Y-123838380D01*
X108114285Y-123838380D02*
X108095237Y-123876476D01*
X108095237Y-123876476D02*
X108076190Y-123895523D01*
X108076190Y-123895523D02*
X108038095Y-123914571D01*
X108038095Y-123914571D02*
X107885714Y-123914571D01*
X108361904Y-123705047D02*
X108438095Y-123705047D01*
X108438095Y-123705047D02*
X108476190Y-123724095D01*
X108476190Y-123724095D02*
X108514285Y-123762190D01*
X108514285Y-123762190D02*
X108533333Y-123838380D01*
X108533333Y-123838380D02*
X108533333Y-123971714D01*
X108533333Y-123971714D02*
X108514285Y-124047904D01*
X108514285Y-124047904D02*
X108476190Y-124086000D01*
X108476190Y-124086000D02*
X108438095Y-124105047D01*
X108438095Y-124105047D02*
X108361904Y-124105047D01*
X108361904Y-124105047D02*
X108323809Y-124086000D01*
X108323809Y-124086000D02*
X108285714Y-124047904D01*
X108285714Y-124047904D02*
X108266666Y-123971714D01*
X108266666Y-123971714D02*
X108266666Y-123838380D01*
X108266666Y-123838380D02*
X108285714Y-123762190D01*
X108285714Y-123762190D02*
X108323809Y-123724095D01*
X108323809Y-123724095D02*
X108361904Y-123705047D01*
X108704762Y-123705047D02*
X108704762Y-124028857D01*
X108704762Y-124028857D02*
X108723809Y-124066952D01*
X108723809Y-124066952D02*
X108742857Y-124086000D01*
X108742857Y-124086000D02*
X108780952Y-124105047D01*
X108780952Y-124105047D02*
X108857143Y-124105047D01*
X108857143Y-124105047D02*
X108895238Y-124086000D01*
X108895238Y-124086000D02*
X108914285Y-124066952D01*
X108914285Y-124066952D02*
X108933333Y-124028857D01*
X108933333Y-124028857D02*
X108933333Y-123705047D01*
X109066667Y-123705047D02*
X109295238Y-123705047D01*
X109180952Y-124105047D02*
X109180952Y-123705047D01*
%TO.C,J10*%
X82761904Y-140105047D02*
X82761904Y-139705047D01*
X82990475Y-140105047D02*
X82819046Y-139876476D01*
X82990475Y-139705047D02*
X82761904Y-139933619D01*
X83161904Y-139895523D02*
X83295237Y-139895523D01*
X83352380Y-140105047D02*
X83161904Y-140105047D01*
X83161904Y-140105047D02*
X83161904Y-139705047D01*
X83161904Y-139705047D02*
X83352380Y-139705047D01*
X83523809Y-139895523D02*
X83657142Y-139895523D01*
X83714285Y-140105047D02*
X83523809Y-140105047D01*
X83523809Y-140105047D02*
X83523809Y-139705047D01*
X83523809Y-139705047D02*
X83714285Y-139705047D01*
X83885714Y-140105047D02*
X83885714Y-139705047D01*
X83885714Y-139705047D02*
X84038095Y-139705047D01*
X84038095Y-139705047D02*
X84076190Y-139724095D01*
X84076190Y-139724095D02*
X84095237Y-139743142D01*
X84095237Y-139743142D02*
X84114285Y-139781238D01*
X84114285Y-139781238D02*
X84114285Y-139838380D01*
X84114285Y-139838380D02*
X84095237Y-139876476D01*
X84095237Y-139876476D02*
X84076190Y-139895523D01*
X84076190Y-139895523D02*
X84038095Y-139914571D01*
X84038095Y-139914571D02*
X83885714Y-139914571D01*
X84361904Y-139705047D02*
X84438095Y-139705047D01*
X84438095Y-139705047D02*
X84476190Y-139724095D01*
X84476190Y-139724095D02*
X84514285Y-139762190D01*
X84514285Y-139762190D02*
X84533333Y-139838380D01*
X84533333Y-139838380D02*
X84533333Y-139971714D01*
X84533333Y-139971714D02*
X84514285Y-140047904D01*
X84514285Y-140047904D02*
X84476190Y-140086000D01*
X84476190Y-140086000D02*
X84438095Y-140105047D01*
X84438095Y-140105047D02*
X84361904Y-140105047D01*
X84361904Y-140105047D02*
X84323809Y-140086000D01*
X84323809Y-140086000D02*
X84285714Y-140047904D01*
X84285714Y-140047904D02*
X84266666Y-139971714D01*
X84266666Y-139971714D02*
X84266666Y-139838380D01*
X84266666Y-139838380D02*
X84285714Y-139762190D01*
X84285714Y-139762190D02*
X84323809Y-139724095D01*
X84323809Y-139724095D02*
X84361904Y-139705047D01*
X84704762Y-139705047D02*
X84704762Y-140028857D01*
X84704762Y-140028857D02*
X84723809Y-140066952D01*
X84723809Y-140066952D02*
X84742857Y-140086000D01*
X84742857Y-140086000D02*
X84780952Y-140105047D01*
X84780952Y-140105047D02*
X84857143Y-140105047D01*
X84857143Y-140105047D02*
X84895238Y-140086000D01*
X84895238Y-140086000D02*
X84914285Y-140066952D01*
X84914285Y-140066952D02*
X84933333Y-140028857D01*
X84933333Y-140028857D02*
X84933333Y-139705047D01*
X85066667Y-139705047D02*
X85295238Y-139705047D01*
X85180952Y-140105047D02*
X85180952Y-139705047D01*
D11*
%TO.C,H1*%
X77200000Y-56000000D02*
G75*
G03*
X77200000Y-56000000I-3200000J0D01*
G01*
%TO.C,H2*%
X189200000Y-56000000D02*
G75*
G03*
X189200000Y-56000000I-3200000J0D01*
G01*
%TO.C,H3*%
X77200000Y-128000000D02*
G75*
G03*
X77200000Y-128000000I-3200000J0D01*
G01*
%TO.C,H4*%
X189200000Y-128000000D02*
G75*
G03*
X189200000Y-128000000I-3200000J0D01*
G01*
%TD*%
M02*
