%TF.GenerationSoftware,KiCad,Pcbnew,9.0.1*%
%TF.CreationDate,2025-05-16T11:54:18+01:00*%
%TF.ProjectId,dk2_05,646b325f-3035-42e6-9b69-6361645f7063,rev?*%
%TF.SameCoordinates,Original*%
%TF.FileFunction,Copper,L4,Bot*%
%TF.FilePolarity,Positive*%
%FSLAX46Y46*%
G04 Gerber Fmt 4.6, Leading zero omitted, Abs format (unit mm)*
G04 Created by KiCad (PCBNEW 9.0.1) date 2025-05-16 11:54:18*
%MOMM*%
%LPD*%
G01*
G04 APERTURE LIST*
G04 Aperture macros list*
%AMRoundRect*
0 Rectangle with rounded corners*
0 $1 Rounding radius*
0 $2 $3 $4 $5 $6 $7 $8 $9 X,Y pos of 4 corners*
0 Add a 4 corners polygon primitive as box body*
4,1,4,$2,$3,$4,$5,$6,$7,$8,$9,$2,$3,0*
0 Add four circle primitives for the rounded corners*
1,1,$1+$1,$2,$3*
1,1,$1+$1,$4,$5*
1,1,$1+$1,$6,$7*
1,1,$1+$1,$8,$9*
0 Add four rect primitives between the rounded corners*
20,1,$1+$1,$2,$3,$4,$5,0*
20,1,$1+$1,$4,$5,$6,$7,0*
20,1,$1+$1,$6,$7,$8,$9,0*
20,1,$1+$1,$8,$9,$2,$3,0*%
G04 Aperture macros list end*
%TA.AperFunction,ComponentPad*%
%ADD10C,2.000000*%
%TD*%
%TA.AperFunction,SMDPad,CuDef*%
%ADD11RoundRect,0.200000X0.200000X0.275000X-0.200000X0.275000X-0.200000X-0.275000X0.200000X-0.275000X0*%
%TD*%
%TA.AperFunction,ComponentPad*%
%ADD12R,1.500000X1.500000*%
%TD*%
%TA.AperFunction,ComponentPad*%
%ADD13C,1.500000*%
%TD*%
%TA.AperFunction,ComponentPad*%
%ADD14C,1.700000*%
%TD*%
%TA.AperFunction,SMDPad,CuDef*%
%ADD15RoundRect,0.150000X-0.825000X-0.150000X0.825000X-0.150000X0.825000X0.150000X-0.825000X0.150000X0*%
%TD*%
%TA.AperFunction,SMDPad,CuDef*%
%ADD16RoundRect,0.150000X0.825000X0.150000X-0.825000X0.150000X-0.825000X-0.150000X0.825000X-0.150000X0*%
%TD*%
%TA.AperFunction,SMDPad,CuDef*%
%ADD17RoundRect,0.150000X0.150000X-0.825000X0.150000X0.825000X-0.150000X0.825000X-0.150000X-0.825000X0*%
%TD*%
%TA.AperFunction,SMDPad,CuDef*%
%ADD18RoundRect,0.150000X-0.150000X0.825000X-0.150000X-0.825000X0.150000X-0.825000X0.150000X0.825000X0*%
%TD*%
%TA.AperFunction,ComponentPad*%
%ADD19R,1.700000X1.700000*%
%TD*%
%TA.AperFunction,SMDPad,CuDef*%
%ADD20RoundRect,0.200000X-0.200000X-0.275000X0.200000X-0.275000X0.200000X0.275000X-0.200000X0.275000X0*%
%TD*%
%TA.AperFunction,SMDPad,CuDef*%
%ADD21RoundRect,0.225000X0.250000X-0.225000X0.250000X0.225000X-0.250000X0.225000X-0.250000X-0.225000X0*%
%TD*%
%TA.AperFunction,ComponentPad*%
%ADD22O,2.720000X3.240000*%
%TD*%
%TA.AperFunction,ComponentPad*%
%ADD23R,1.800000X1.800000*%
%TD*%
%TA.AperFunction,ComponentPad*%
%ADD24C,1.800000*%
%TD*%
%TA.AperFunction,ComponentPad*%
%ADD25O,3.100000X2.300000*%
%TD*%
%TA.AperFunction,ComponentPad*%
%ADD26RoundRect,0.650000X-0.650000X-0.650000X0.650000X-0.650000X0.650000X0.650000X-0.650000X0.650000X0*%
%TD*%
%TA.AperFunction,ComponentPad*%
%ADD27C,1.050000*%
%TD*%
%TA.AperFunction,ComponentPad*%
%ADD28R,1.350000X1.350000*%
%TD*%
%TA.AperFunction,SMDPad,CuDef*%
%ADD29RoundRect,0.150000X-0.587500X-0.150000X0.587500X-0.150000X0.587500X0.150000X-0.587500X0.150000X0*%
%TD*%
%TA.AperFunction,SMDPad,CuDef*%
%ADD30RoundRect,0.225000X0.225000X0.250000X-0.225000X0.250000X-0.225000X-0.250000X0.225000X-0.250000X0*%
%TD*%
%TA.AperFunction,SMDPad,CuDef*%
%ADD31RoundRect,0.200000X-0.275000X0.200000X-0.275000X-0.200000X0.275000X-0.200000X0.275000X0.200000X0*%
%TD*%
%TA.AperFunction,SMDPad,CuDef*%
%ADD32RoundRect,0.250000X-0.550000X1.500000X-0.550000X-1.500000X0.550000X-1.500000X0.550000X1.500000X0*%
%TD*%
%TA.AperFunction,SMDPad,CuDef*%
%ADD33RoundRect,0.225000X-0.225000X-0.250000X0.225000X-0.250000X0.225000X0.250000X-0.225000X0.250000X0*%
%TD*%
%TA.AperFunction,SMDPad,CuDef*%
%ADD34RoundRect,0.200000X0.275000X-0.200000X0.275000X0.200000X-0.275000X0.200000X-0.275000X-0.200000X0*%
%TD*%
%TA.AperFunction,SMDPad,CuDef*%
%ADD35RoundRect,0.225000X-0.250000X0.225000X-0.250000X-0.225000X0.250000X-0.225000X0.250000X0.225000X0*%
%TD*%
%TA.AperFunction,SMDPad,CuDef*%
%ADD36RoundRect,0.250000X-0.325000X-1.100000X0.325000X-1.100000X0.325000X1.100000X-0.325000X1.100000X0*%
%TD*%
%TA.AperFunction,SMDPad,CuDef*%
%ADD37RoundRect,0.250000X0.550000X-1.500000X0.550000X1.500000X-0.550000X1.500000X-0.550000X-1.500000X0*%
%TD*%
%TA.AperFunction,SMDPad,CuDef*%
%ADD38RoundRect,0.100000X-0.637500X-0.100000X0.637500X-0.100000X0.637500X0.100000X-0.637500X0.100000X0*%
%TD*%
%TA.AperFunction,SMDPad,CuDef*%
%ADD39RoundRect,0.112500X0.112500X-0.187500X0.112500X0.187500X-0.112500X0.187500X-0.112500X-0.187500X0*%
%TD*%
%TA.AperFunction,SMDPad,CuDef*%
%ADD40RoundRect,0.250000X0.250000X0.475000X-0.250000X0.475000X-0.250000X-0.475000X0.250000X-0.475000X0*%
%TD*%
%TA.AperFunction,ComponentPad*%
%ADD41RoundRect,0.250000X-0.600000X-0.600000X0.600000X-0.600000X0.600000X0.600000X-0.600000X0.600000X0*%
%TD*%
%TA.AperFunction,SMDPad,CuDef*%
%ADD42RoundRect,0.250000X1.000000X0.650000X-1.000000X0.650000X-1.000000X-0.650000X1.000000X-0.650000X0*%
%TD*%
%TA.AperFunction,SMDPad,CuDef*%
%ADD43RoundRect,0.250000X2.600000X-0.600000X2.600000X0.600000X-2.600000X0.600000X-2.600000X-0.600000X0*%
%TD*%
G04 APERTURE END LIST*
D10*
%TO.P,SW9,2,2*%
%TO.N,Net-(U5-D0)*%
X115750000Y-99750000D03*
X109250000Y-99750000D03*
%TO.P,SW9,1,1*%
%TO.N,+3.3V*%
X115750000Y-95250000D03*
X109250000Y-95250000D03*
%TD*%
%TO.P,SW1,2,2*%
%TO.N,Net-(U4-D0)*%
X85750000Y-87750000D03*
X79250000Y-87750000D03*
%TO.P,SW1,1,1*%
%TO.N,+3.3V*%
X85750000Y-83250000D03*
X79250000Y-83250000D03*
%TD*%
%TO.P,SW6,2,2*%
%TO.N,Net-(U4-D5)*%
X85750000Y-99750000D03*
X79250000Y-99750000D03*
%TO.P,SW6,1,1*%
%TO.N,+3.3V*%
X85750000Y-95250000D03*
X79250000Y-95250000D03*
%TD*%
D11*
%TO.P,R25,2*%
%TO.N,GND*%
X101600000Y-109250000D03*
%TO.P,R25,1*%
%TO.N,Net-(U5-D4)*%
X103250000Y-109250000D03*
%TD*%
%TO.P,R19,2*%
%TO.N,GND*%
X91600000Y-97250000D03*
%TO.P,R19,1*%
%TO.N,Net-(U4-D6)*%
X93250000Y-97250000D03*
%TD*%
%TO.P,R24,2*%
%TO.N,GND*%
X91600000Y-109250000D03*
%TO.P,R24,1*%
%TO.N,Net-(U5-D3)*%
X93250000Y-109250000D03*
%TD*%
D10*
%TO.P,SW11,2,2*%
%TO.N,Net-(U5-D2)*%
X85750000Y-111750000D03*
X79250000Y-111750000D03*
%TO.P,SW11,1,1*%
%TO.N,+3.3V*%
X85750000Y-107250000D03*
X79250000Y-107250000D03*
%TD*%
%TO.P,SW12,2,2*%
%TO.N,Net-(U5-D3)*%
X95750000Y-111750000D03*
X89250000Y-111750000D03*
%TO.P,SW12,1,1*%
%TO.N,+3.3V*%
X95750000Y-107250000D03*
X89250000Y-107250000D03*
%TD*%
%TO.P,SW2,2,2*%
%TO.N,Net-(U4-D1)*%
X95750000Y-87750000D03*
X89250000Y-87750000D03*
%TO.P,SW2,1,1*%
%TO.N,+3.3V*%
X95750000Y-83250000D03*
X89250000Y-83250000D03*
%TD*%
%TO.P,SW15,2,2*%
%TO.N,Net-(U5-D6)*%
X125750000Y-111750000D03*
X119250000Y-111750000D03*
%TO.P,SW15,1,1*%
%TO.N,+3.3V*%
X125750000Y-107250000D03*
X119250000Y-107250000D03*
%TD*%
%TO.P,SW4,2,2*%
%TO.N,Net-(U4-D3)*%
X115750000Y-87750000D03*
X109250000Y-87750000D03*
%TO.P,SW4,1,1*%
%TO.N,+3.3V*%
X115750000Y-83250000D03*
X109250000Y-83250000D03*
%TD*%
%TO.P,SW13,2,2*%
%TO.N,Net-(U5-D4)*%
X105750000Y-111750000D03*
X99250000Y-111750000D03*
%TO.P,SW13,1,1*%
%TO.N,+3.3V*%
X105750000Y-107250000D03*
X99250000Y-107250000D03*
%TD*%
%TO.P,SW7,2,2*%
%TO.N,Net-(U4-D6)*%
X95750000Y-99750000D03*
X89250000Y-99750000D03*
%TO.P,SW7,1,1*%
%TO.N,+3.3V*%
X95750000Y-95250000D03*
X89250000Y-95250000D03*
%TD*%
D11*
%TO.P,R26,2*%
%TO.N,GND*%
X111600000Y-109250000D03*
%TO.P,R26,1*%
%TO.N,Net-(U5-D5)*%
X113250000Y-109250000D03*
%TD*%
%TO.P,R14,2*%
%TO.N,GND*%
X91600000Y-85250000D03*
%TO.P,R14,1*%
%TO.N,Net-(U4-D1)*%
X93250000Y-85250000D03*
%TD*%
%TO.P,R15,2*%
%TO.N,GND*%
X101600000Y-85250000D03*
%TO.P,R15,1*%
%TO.N,Net-(U4-D2)*%
X103250000Y-85250000D03*
%TD*%
%TO.P,R21,2*%
%TO.N,GND*%
X111600000Y-97250000D03*
%TO.P,R21,1*%
%TO.N,Net-(U5-D0)*%
X113250000Y-97250000D03*
%TD*%
D10*
%TO.P,SW3,2,2*%
%TO.N,Net-(U4-D2)*%
X105750000Y-87750000D03*
X99250000Y-87750000D03*
%TO.P,SW3,1,1*%
%TO.N,+3.3V*%
X105750000Y-83250000D03*
X99250000Y-83250000D03*
%TD*%
%TO.P,SW8,2,2*%
%TO.N,Net-(U4-D7)*%
X105750000Y-99750000D03*
X99250000Y-99750000D03*
%TO.P,SW8,1,1*%
%TO.N,+3.3V*%
X105750000Y-95250000D03*
X99250000Y-95250000D03*
%TD*%
%TO.P,SW10,1,1*%
%TO.N,+3.3V*%
X119250000Y-95250000D03*
X125750000Y-95250000D03*
%TO.P,SW10,2,2*%
%TO.N,Net-(U5-D1)*%
X119250000Y-99750000D03*
X125750000Y-99750000D03*
%TD*%
D11*
%TO.P,R27,2*%
%TO.N,GND*%
X121600000Y-109250000D03*
%TO.P,R27,1*%
%TO.N,Net-(U5-D6)*%
X123250000Y-109250000D03*
%TD*%
D10*
%TO.P,SW14,2,2*%
%TO.N,Net-(U5-D5)*%
X115750000Y-111750000D03*
X109250000Y-111750000D03*
%TO.P,SW14,1,1*%
%TO.N,+3.3V*%
X115750000Y-107250000D03*
X109250000Y-107250000D03*
%TD*%
D11*
%TO.P,R23,2*%
%TO.N,GND*%
X81600000Y-109250000D03*
%TO.P,R23,1*%
%TO.N,Net-(U5-D2)*%
X83250000Y-109250000D03*
%TD*%
D10*
%TO.P,SW5,2,2*%
%TO.N,Net-(U4-D4)*%
X125750000Y-87750000D03*
X119250000Y-87750000D03*
%TO.P,SW5,1,1*%
%TO.N,+3.3V*%
X125750000Y-83250000D03*
X119250000Y-83250000D03*
%TD*%
D11*
%TO.P,R22,2*%
%TO.N,GND*%
X121600000Y-97250000D03*
%TO.P,R22,1*%
%TO.N,Net-(U5-D1)*%
X123250000Y-97250000D03*
%TD*%
%TO.P,R17,2*%
%TO.N,GND*%
X121600000Y-85250000D03*
%TO.P,R17,1*%
%TO.N,Net-(U4-D4)*%
X123250000Y-85250000D03*
%TD*%
%TO.P,R18,2*%
%TO.N,GND*%
X81600000Y-97250000D03*
%TO.P,R18,1*%
%TO.N,Net-(U4-D5)*%
X83250000Y-97250000D03*
%TD*%
%TO.P,R20,2*%
%TO.N,GND*%
X101600000Y-97250000D03*
%TO.P,R20,1*%
%TO.N,Net-(U4-D7)*%
X103250000Y-97250000D03*
%TD*%
%TO.P,R13,2*%
%TO.N,GND*%
X81600000Y-85250000D03*
%TO.P,R13,1*%
%TO.N,Net-(U4-D0)*%
X83250000Y-85250000D03*
%TD*%
%TO.P,R16,2*%
%TO.N,GND*%
X111600000Y-85250000D03*
%TO.P,R16,1*%
%TO.N,Net-(U4-D3)*%
X113250000Y-85250000D03*
%TD*%
D12*
%TO.P,U3,1,e*%
%TO.N,Net-(U3-e)*%
X156150000Y-97810000D03*
D13*
%TO.P,U3,2,d*%
%TO.N,Net-(U3-d)*%
X158690000Y-97810000D03*
%TO.P,U3,3,DPX*%
%TO.N,Net-(U3-DPX)*%
X161230000Y-97810000D03*
%TO.P,U3,4,c*%
%TO.N,Net-(U3-c)*%
X163770000Y-97810000D03*
%TO.P,U3,5,g*%
%TO.N,Net-(U3-g)*%
X166310000Y-97810000D03*
%TO.P,U3,6,CA4*%
%TO.N,Net-(U2-QD)*%
X168850000Y-97810000D03*
%TO.P,U3,7,b*%
%TO.N,Net-(U3-b)*%
X168850000Y-87650000D03*
%TO.P,U3,8,CA3*%
%TO.N,Net-(U2-QC)*%
X166310000Y-87650000D03*
%TO.P,U3,9,CA2*%
%TO.N,Net-(U2-QB)*%
X163770000Y-87650000D03*
%TO.P,U3,10,f*%
%TO.N,Net-(U3-f)*%
X161230000Y-87650000D03*
%TO.P,U3,11,a*%
%TO.N,Net-(U3-a)*%
X158690000Y-87650000D03*
%TO.P,U3,12,CA1*%
%TO.N,Net-(U2-QA)*%
X156150000Y-87650000D03*
%TD*%
D10*
%TO.P,SW17,2,2*%
%TO.N,Net-(U10-D0)*%
X160750000Y-111750000D03*
X154250000Y-111750000D03*
%TO.P,SW17,1,1*%
%TO.N,+3.3V*%
X160750000Y-107250000D03*
X154250000Y-107250000D03*
%TD*%
%TO.P,SW18,2,2*%
%TO.N,Net-(U10-D1)*%
X170750000Y-111750000D03*
X164250000Y-111750000D03*
%TO.P,SW18,1,1*%
%TO.N,+3.3V*%
X170750000Y-107250000D03*
X164250000Y-107250000D03*
%TD*%
%TO.P,SW19,2,2*%
%TO.N,Net-(U10-D2)*%
X180750000Y-111750000D03*
X174250000Y-111750000D03*
%TO.P,SW19,1,1*%
%TO.N,+3.3V*%
X180750000Y-107250000D03*
X174250000Y-107250000D03*
%TD*%
%TO.P,SW16,2,2*%
%TO.N,Net-(U5-D7)*%
X150750000Y-111750000D03*
X144250000Y-111750000D03*
%TO.P,SW16,1,1*%
%TO.N,+3.3V*%
X150750000Y-107250000D03*
X144250000Y-107250000D03*
%TD*%
D14*
%TO.P,A1,1,GPIO0*%
%TO.N,SERIAL_TX*%
X181490000Y-104070000D03*
X181490000Y-101530000D03*
%TO.P,A1,2,GPIO1*%
%TO.N,SERIAL_RX*%
X178950000Y-104070000D03*
X178950000Y-101530000D03*
%TO.P,A1,3,GND*%
%TO.N,GND*%
X176410000Y-104070000D03*
X176410000Y-101530000D03*
%TO.P,A1,4,GPIO2*%
%TO.N,SD_CLOCK*%
X173870000Y-104070000D03*
X173870000Y-101530000D03*
%TO.P,A1,5,GPIO3*%
%TO.N,SD_SERIAL_IN*%
X171330000Y-104070000D03*
X171330000Y-101530000D03*
%TO.P,A1,6,GPIO4*%
%TO.N,SD_SERIAL_OUT*%
X168790000Y-104070000D03*
X168790000Y-101530000D03*
%TO.P,A1,7,GPIO5*%
%TO.N,SD_CHIP_SELECT*%
X166250000Y-104070000D03*
X166250000Y-101530000D03*
%TO.P,A1,8,GND*%
%TO.N,GND*%
X163710000Y-104070000D03*
X163710000Y-101530000D03*
%TO.P,A1,9,GPIO6*%
%TO.N,595_DATA*%
X161170000Y-104070000D03*
X161170000Y-101530000D03*
%TO.P,A1,10,GPIO7*%
%TO.N,595_CLOCK*%
X158630000Y-104070000D03*
X158630000Y-101530000D03*
%TO.P,A1,11,GPIO8*%
%TO.N,595_LATCH*%
X156090000Y-104070000D03*
X156090000Y-101530000D03*
%TO.P,A1,12,GPIO9*%
%TO.N,DAC_DOUT*%
X153550000Y-104070000D03*
X153550000Y-101530000D03*
%TO.P,A1,13,GND*%
%TO.N,GND*%
X151010000Y-104070000D03*
X151010000Y-101530000D03*
%TO.P,A1,14,GPIO10*%
%TO.N,DAC_BCLK*%
X148470000Y-104070000D03*
X148470000Y-101530000D03*
%TO.P,A1,15,GPIO11*%
%TO.N,DAC_LRC*%
X145930000Y-104070000D03*
X145930000Y-101530000D03*
%TO.P,A1,16,GPIO12*%
%TO.N,165_LOAD*%
X143390000Y-104070000D03*
X143390000Y-101530000D03*
%TO.P,A1,17,GPIO13*%
%TO.N,165_CLOCK*%
X140850000Y-104070000D03*
X140850000Y-101530000D03*
%TO.P,A1,18,GND*%
%TO.N,GND*%
X138310000Y-104070000D03*
X138310000Y-101530000D03*
%TO.P,A1,19,GPIO14*%
%TO.N,165_DATA*%
X135770000Y-104070000D03*
X135770000Y-101530000D03*
%TO.P,A1,20,GPIO15*%
%TO.N,TRIGGER_OUT_1*%
X133230000Y-104070000D03*
X133230000Y-101530000D03*
%TO.P,A1,21,GPIO16*%
%TO.N,SYNC_IN*%
X133230000Y-83750000D03*
X133230000Y-81210000D03*
%TO.P,A1,22,GPIO17*%
%TO.N,SYNC_OUT*%
X135770000Y-83750000D03*
X135770000Y-81210000D03*
%TO.P,A1,23,GND*%
%TO.N,GND*%
X138310000Y-83750000D03*
X138310000Y-81210000D03*
%TO.P,A1,24,GPIO18*%
%TO.N,TRIGGER_OUT_4*%
X140850000Y-83750000D03*
X140850000Y-81210000D03*
%TO.P,A1,25,GPIO19*%
%TO.N,4051_ADDRESS_A*%
X143390000Y-83750000D03*
X143390000Y-81210000D03*
%TO.P,A1,26,GPIO20*%
%TO.N,4051_ADDRESS_B*%
X145930000Y-83750000D03*
X145930000Y-81210000D03*
%TO.P,A1,27,GPIO21*%
%TO.N,4051_ADDRESS_C*%
X148470000Y-83750000D03*
X148470000Y-81210000D03*
%TO.P,A1,28,GND*%
%TO.N,GND*%
X151010000Y-83750000D03*
X151010000Y-81210000D03*
%TO.P,A1,29,GPIO22*%
%TO.N,TRIGGER_OUT_3*%
X153550000Y-83750000D03*
X153550000Y-81210000D03*
%TO.P,A1,30,RUN*%
%TO.N,unconnected-(A1-RUN-Pad30)*%
X156090000Y-83750000D03*
X156090000Y-81210000D03*
%TO.P,A1,31,GPIO26_ADC0*%
%TO.N,4051_READING_0*%
X158630000Y-83750000D03*
X158630000Y-81210000D03*
%TO.P,A1,32,GPIO27_ADC1*%
%TO.N,4051_READING_1*%
X161170000Y-83750000D03*
X161170000Y-81210000D03*
%TO.P,A1,33,AGND*%
%TO.N,GND*%
X163710000Y-83750000D03*
X163710000Y-81210000D03*
%TO.P,A1,34,GPIO28_ADC2*%
%TO.N,TRIGGER_OUT_2*%
X166250000Y-83750000D03*
X166250000Y-81210000D03*
%TO.P,A1,35,ADC_VREF*%
%TO.N,unconnected-(A1-ADC_VREF-Pad35)*%
X168790000Y-83750000D03*
X168790000Y-81210000D03*
%TO.P,A1,36,3V3*%
%TO.N,+3.3V*%
X171330000Y-83750000D03*
X171330000Y-81210000D03*
%TO.P,A1,37,3V3_EN*%
%TO.N,unconnected-(A1-3V3_EN-Pad37)*%
X173870000Y-83750000D03*
X173870000Y-81210000D03*
%TO.P,A1,38,GND*%
%TO.N,GND*%
X176410000Y-83750000D03*
X176410000Y-81210000D03*
%TO.P,A1,39,VSYS*%
%TO.N,+5V*%
X178950000Y-83750000D03*
X178950000Y-81210000D03*
%TO.P,A1,40,VBUS*%
%TO.N,unconnected-(A1-VBUS-Pad40)*%
X181490000Y-83750000D03*
X181490000Y-81210000D03*
%TD*%
D15*
%TO.P,U6,1,A4*%
%TO.N,Net-(U6-A4)*%
X89800000Y-63020000D03*
%TO.P,U6,2,A6*%
%TO.N,Net-(U6-A6)*%
X89800000Y-61750000D03*
%TO.P,U6,3,A*%
%TO.N,4051_READING_0*%
X89800000Y-60480000D03*
%TO.P,U6,4,A7*%
%TO.N,Net-(U6-A7)*%
X89800000Y-59210000D03*
%TO.P,U6,5,A5*%
%TO.N,Net-(U6-A5)*%
X89800000Y-57940000D03*
%TO.P,U6,6,~{E}*%
%TO.N,GND*%
X89800000Y-56670000D03*
%TO.P,U6,7,VEE*%
X89800000Y-55400000D03*
%TO.P,U6,8,GND*%
X89800000Y-54130000D03*
%TO.P,U6,9,S2*%
%TO.N,4051_ADDRESS_C*%
X94750000Y-54130000D03*
%TO.P,U6,10,S1*%
%TO.N,4051_ADDRESS_B*%
X94750000Y-55400000D03*
%TO.P,U6,11,S0*%
%TO.N,4051_ADDRESS_A*%
X94750000Y-56670000D03*
%TO.P,U6,12,A3*%
%TO.N,Net-(U6-A3)*%
X94750000Y-57940000D03*
%TO.P,U6,13,A0*%
%TO.N,Net-(U6-A0)*%
X94750000Y-59210000D03*
%TO.P,U6,14,A1*%
%TO.N,Net-(U6-A1)*%
X94750000Y-60480000D03*
%TO.P,U6,15,A2*%
%TO.N,Net-(U6-A2)*%
X94750000Y-61750000D03*
%TO.P,U6,16,VCC*%
%TO.N,+3.3V*%
X94750000Y-63020000D03*
%TD*%
D16*
%TO.P,U1,1,QB*%
%TO.N,Net-(U1-QB)*%
X172725000Y-69555000D03*
%TO.P,U1,2,QC*%
%TO.N,Net-(U1-QC)*%
X172725000Y-70825000D03*
%TO.P,U1,3,QD*%
%TO.N,Net-(U1-QD)*%
X172725000Y-72095000D03*
%TO.P,U1,4,QE*%
%TO.N,Net-(U1-QE)*%
X172725000Y-73365000D03*
%TO.P,U1,5,QF*%
%TO.N,Net-(U1-QF)*%
X172725000Y-74635000D03*
%TO.P,U1,6,QG*%
%TO.N,Net-(U1-QG)*%
X172725000Y-75905000D03*
%TO.P,U1,7,QH*%
%TO.N,Net-(U1-QH)*%
X172725000Y-77175000D03*
%TO.P,U1,8,GND*%
%TO.N,GND*%
X172725000Y-78445000D03*
%TO.P,U1,9,QH'*%
%TO.N,Net-(U1-QH')*%
X167775000Y-78445000D03*
%TO.P,U1,10,~{SRCLR}*%
%TO.N,+3.3V*%
X167775000Y-77175000D03*
%TO.P,U1,11,SRCLK*%
%TO.N,595_CLOCK*%
X167775000Y-75905000D03*
%TO.P,U1,12,RCLK*%
%TO.N,595_LATCH*%
X167775000Y-74635000D03*
%TO.P,U1,13,~{OE}*%
%TO.N,GND*%
X167775000Y-73365000D03*
%TO.P,U1,14,SER*%
%TO.N,595_DATA*%
X167775000Y-72095000D03*
%TO.P,U1,15,QA*%
%TO.N,Net-(U1-QA)*%
X167775000Y-70825000D03*
%TO.P,U1,16,VCC*%
%TO.N,+3.3V*%
X167775000Y-69555000D03*
%TD*%
D17*
%TO.P,U2,1,QB*%
%TO.N,Net-(U2-QB)*%
X176695000Y-95225000D03*
%TO.P,U2,2,QC*%
%TO.N,Net-(U2-QC)*%
X175425000Y-95225000D03*
%TO.P,U2,3,QD*%
%TO.N,Net-(U2-QD)*%
X174155000Y-95225000D03*
%TO.P,U2,4,QE*%
%TO.N,Net-(U2-QE)*%
X172885000Y-95225000D03*
%TO.P,U2,5,QF*%
%TO.N,Net-(U2-QF)*%
X171615000Y-95225000D03*
%TO.P,U2,6,QG*%
%TO.N,Net-(U2-QG)*%
X170345000Y-95225000D03*
%TO.P,U2,7,QH*%
%TO.N,Net-(U2-QH)*%
X169075000Y-95225000D03*
%TO.P,U2,8,GND*%
%TO.N,GND*%
X167805000Y-95225000D03*
%TO.P,U2,9,QH'*%
%TO.N,unconnected-(U2-QH&apos;-Pad9)*%
X167805000Y-90275000D03*
%TO.P,U2,10,~{SRCLR}*%
%TO.N,+3.3V*%
X169075000Y-90275000D03*
%TO.P,U2,11,SRCLK*%
%TO.N,595_CLOCK*%
X170345000Y-90275000D03*
%TO.P,U2,12,RCLK*%
%TO.N,595_LATCH*%
X171615000Y-90275000D03*
%TO.P,U2,13,~{OE}*%
%TO.N,GND*%
X172885000Y-90275000D03*
%TO.P,U2,14,SER*%
%TO.N,Net-(U1-QH')*%
X174155000Y-90275000D03*
%TO.P,U2,15,QA*%
%TO.N,Net-(U2-QA)*%
X175425000Y-90275000D03*
%TO.P,U2,16,VCC*%
%TO.N,+3.3V*%
X176695000Y-90275000D03*
%TD*%
D16*
%TO.P,U9,1,A4*%
%TO.N,CV_IN_1*%
X113700000Y-53730000D03*
%TO.P,U9,2,A6*%
%TO.N,CV_IN_3*%
X113700000Y-55000000D03*
%TO.P,U9,3,A*%
%TO.N,4051_READING_1*%
X113700000Y-56270000D03*
%TO.P,U9,4,A7*%
%TO.N,CV_IN_4*%
X113700000Y-57540000D03*
%TO.P,U9,5,A5*%
%TO.N,CV_IN_2*%
X113700000Y-58810000D03*
%TO.P,U9,6,~{E}*%
%TO.N,GND*%
X113700000Y-60080000D03*
%TO.P,U9,7,VEE*%
X113700000Y-61350000D03*
%TO.P,U9,8,GND*%
X113700000Y-62620000D03*
%TO.P,U9,9,S2*%
%TO.N,4051_ADDRESS_C*%
X108750000Y-62620000D03*
%TO.P,U9,10,S1*%
%TO.N,4051_ADDRESS_B*%
X108750000Y-61350000D03*
%TO.P,U9,11,S0*%
%TO.N,4051_ADDRESS_A*%
X108750000Y-60080000D03*
%TO.P,U9,12,A3*%
%TO.N,Net-(U9-A3)*%
X108750000Y-58810000D03*
%TO.P,U9,13,A0*%
%TO.N,Net-(U9-A0)*%
X108750000Y-57540000D03*
%TO.P,U9,14,A1*%
%TO.N,Net-(U9-A1)*%
X108750000Y-56270000D03*
%TO.P,U9,15,A2*%
%TO.N,Net-(U9-A2)*%
X108750000Y-55000000D03*
%TO.P,U9,16,VCC*%
%TO.N,+3.3V*%
X108750000Y-53730000D03*
%TD*%
%TO.P,U5,1,~{PL}*%
%TO.N,165_LOAD*%
X113000000Y-70000000D03*
%TO.P,U5,2,CP*%
%TO.N,165_CLOCK*%
X113000000Y-71270000D03*
%TO.P,U5,3,D4*%
%TO.N,Net-(U5-D4)*%
X113000000Y-72540000D03*
%TO.P,U5,4,D5*%
%TO.N,Net-(U5-D5)*%
X113000000Y-73810000D03*
%TO.P,U5,5,D6*%
%TO.N,Net-(U5-D6)*%
X113000000Y-75080000D03*
%TO.P,U5,6,D7*%
%TO.N,Net-(U5-D7)*%
X113000000Y-76350000D03*
%TO.P,U5,7,~{Q7}*%
%TO.N,unconnected-(U5-~{Q7}-Pad7)*%
X113000000Y-77620000D03*
%TO.P,U5,8,GND*%
%TO.N,GND*%
X113000000Y-78890000D03*
%TO.P,U5,9,Q7*%
%TO.N,/Shift register in 2/DATA_OUT*%
X108050000Y-78890000D03*
%TO.P,U5,10,DS*%
%TO.N,/Shift register in 1/DATA_OUT*%
X108050000Y-77620000D03*
%TO.P,U5,11,D0*%
%TO.N,Net-(U5-D0)*%
X108050000Y-76350000D03*
%TO.P,U5,12,D1*%
%TO.N,Net-(U5-D1)*%
X108050000Y-75080000D03*
%TO.P,U5,13,D2*%
%TO.N,Net-(U5-D2)*%
X108050000Y-73810000D03*
%TO.P,U5,14,D3*%
%TO.N,Net-(U5-D3)*%
X108050000Y-72540000D03*
%TO.P,U5,15,~{CE}*%
%TO.N,GND*%
X108050000Y-71270000D03*
%TO.P,U5,16,VCC*%
%TO.N,+3.3V*%
X108050000Y-70000000D03*
%TD*%
%TO.P,U10,1,~{PL}*%
%TO.N,165_LOAD*%
X132450000Y-69880000D03*
%TO.P,U10,2,CP*%
%TO.N,165_CLOCK*%
X132450000Y-71150000D03*
%TO.P,U10,3,D4*%
%TO.N,Net-(J15-Pin_1)*%
X132450000Y-72420000D03*
%TO.P,U10,4,D5*%
%TO.N,Net-(J15-Pin_2)*%
X132450000Y-73690000D03*
%TO.P,U10,5,D6*%
%TO.N,Net-(J15-Pin_3)*%
X132450000Y-74960000D03*
%TO.P,U10,6,D7*%
%TO.N,Net-(J15-Pin_4)*%
X132450000Y-76230000D03*
%TO.P,U10,7,~{Q7}*%
%TO.N,unconnected-(U10-~{Q7}-Pad7)*%
X132450000Y-77500000D03*
%TO.P,U10,8,GND*%
%TO.N,GND*%
X132450000Y-78770000D03*
%TO.P,U10,9,Q7*%
%TO.N,165_DATA*%
X127500000Y-78770000D03*
%TO.P,U10,10,DS*%
%TO.N,/Shift register in 2/DATA_OUT*%
X127500000Y-77500000D03*
%TO.P,U10,11,D0*%
%TO.N,Net-(U10-D0)*%
X127500000Y-76230000D03*
%TO.P,U10,12,D1*%
%TO.N,Net-(U10-D1)*%
X127500000Y-74960000D03*
%TO.P,U10,13,D2*%
%TO.N,Net-(U10-D2)*%
X127500000Y-73690000D03*
%TO.P,U10,14,D3*%
%TO.N,12V DETECTION*%
X127500000Y-72420000D03*
%TO.P,U10,15,~{CE}*%
%TO.N,GND*%
X127500000Y-71150000D03*
%TO.P,U10,16,VCC*%
%TO.N,+3.3V*%
X127500000Y-69880000D03*
%TD*%
%TO.P,U4,1,~{PL}*%
%TO.N,165_LOAD*%
X94000000Y-69730000D03*
%TO.P,U4,2,CP*%
%TO.N,165_CLOCK*%
X94000000Y-71000000D03*
%TO.P,U4,3,D4*%
%TO.N,Net-(U4-D4)*%
X94000000Y-72270000D03*
%TO.P,U4,4,D5*%
%TO.N,Net-(U4-D5)*%
X94000000Y-73540000D03*
%TO.P,U4,5,D6*%
%TO.N,Net-(U4-D6)*%
X94000000Y-74810000D03*
%TO.P,U4,6,D7*%
%TO.N,Net-(U4-D7)*%
X94000000Y-76080000D03*
%TO.P,U4,7,~{Q7}*%
%TO.N,unconnected-(U4-~{Q7}-Pad7)*%
X94000000Y-77350000D03*
%TO.P,U4,8,GND*%
%TO.N,GND*%
X94000000Y-78620000D03*
%TO.P,U4,9,Q7*%
%TO.N,/Shift register in 1/DATA_OUT*%
X89050000Y-78620000D03*
%TO.P,U4,10,DS*%
%TO.N,GND*%
X89050000Y-77350000D03*
%TO.P,U4,11,D0*%
%TO.N,Net-(U4-D0)*%
X89050000Y-76080000D03*
%TO.P,U4,12,D1*%
%TO.N,Net-(U4-D1)*%
X89050000Y-74810000D03*
%TO.P,U4,13,D2*%
%TO.N,Net-(U4-D2)*%
X89050000Y-73540000D03*
%TO.P,U4,14,D3*%
%TO.N,Net-(U4-D3)*%
X89050000Y-72270000D03*
%TO.P,U4,15,~{CE}*%
%TO.N,GND*%
X89050000Y-71000000D03*
%TO.P,U4,16,VCC*%
%TO.N,+3.3V*%
X89050000Y-69730000D03*
%TD*%
D18*
%TO.P,U16,1*%
%TO.N,Net-(R73-Pad1)*%
X71845000Y-129275000D03*
%TO.P,U16,2,-*%
%TO.N,Net-(U16A--)*%
X73115000Y-129275000D03*
%TO.P,U16,3,+*%
%TO.N,TRIGGER_OUT_3*%
X74385000Y-129275000D03*
%TO.P,U16,4,V-*%
%TO.N,-12V*%
X75655000Y-129275000D03*
%TO.P,U16,5,+*%
%TO.N,TRIGGER_OUT_4*%
X75655000Y-134225000D03*
%TO.P,U16,6,-*%
%TO.N,Net-(U16B--)*%
X74385000Y-134225000D03*
%TO.P,U16,7*%
%TO.N,Net-(R72-Pad1)*%
X73115000Y-134225000D03*
%TO.P,U16,8,V+*%
%TO.N,+12V*%
X71845000Y-134225000D03*
%TD*%
%TO.P,U17,1*%
%TO.N,Net-(R77-Pad1)*%
X71845000Y-140275000D03*
%TO.P,U17,2,-*%
%TO.N,Net-(U17A--)*%
X73115000Y-140275000D03*
%TO.P,U17,3,+*%
%TO.N,SYNC_OUT*%
X74385000Y-140275000D03*
%TO.P,U17,4,V-*%
%TO.N,-12V*%
X75655000Y-140275000D03*
%TO.P,U17,5,+*%
%TO.N,GND*%
X75655000Y-145225000D03*
%TO.P,U17,6,-*%
%TO.N,Net-(U17B--)*%
X74385000Y-145225000D03*
%TO.P,U17,7*%
X73115000Y-145225000D03*
%TO.P,U17,8,V+*%
%TO.N,+12V*%
X71845000Y-145225000D03*
%TD*%
%TO.P,U15,1*%
%TO.N,Net-(R67-Pad1)*%
X71845000Y-118025000D03*
%TO.P,U15,2,-*%
%TO.N,Net-(U15A--)*%
X73115000Y-118025000D03*
%TO.P,U15,3,+*%
%TO.N,TRIGGER_OUT_1*%
X74385000Y-118025000D03*
%TO.P,U15,4,V-*%
%TO.N,-12V*%
X75655000Y-118025000D03*
%TO.P,U15,5,+*%
%TO.N,TRIGGER_OUT_2*%
X75655000Y-122975000D03*
%TO.P,U15,6,-*%
%TO.N,Net-(U15B--)*%
X74385000Y-122975000D03*
%TO.P,U15,7*%
%TO.N,Net-(R66-Pad1)*%
X73115000Y-122975000D03*
%TO.P,U15,8,V+*%
%TO.N,+12V*%
X71845000Y-122975000D03*
%TD*%
D15*
%TO.P,U13,1*%
%TO.N,Net-(C21-Pad2)*%
X133025000Y-112405000D03*
%TO.P,U13,2,-*%
%TO.N,Net-(U13A--)*%
X133025000Y-111135000D03*
%TO.P,U13,3,+*%
%TO.N,GND*%
X133025000Y-109865000D03*
%TO.P,U13,4,V-*%
%TO.N,-12V*%
X133025000Y-108595000D03*
%TO.P,U13,5,+*%
%TO.N,GND*%
X137975000Y-108595000D03*
%TO.P,U13,6,-*%
%TO.N,Net-(U13B--)*%
X137975000Y-109865000D03*
%TO.P,U13,7*%
%TO.N,Net-(C22-Pad2)*%
X137975000Y-111135000D03*
%TO.P,U13,8,V+*%
%TO.N,+12V*%
X137975000Y-112405000D03*
%TD*%
%TO.P,U12,1,BOOT*%
%TO.N,Net-(U12-BOOT)*%
X176275000Y-140405000D03*
%TO.P,U12,2,VIN*%
%TO.N,+12V*%
X176275000Y-139135000D03*
%TO.P,U12,3,EN*%
%TO.N,unconnected-(U12-EN-Pad3)*%
X176275000Y-137865000D03*
%TO.P,U12,4,SS*%
%TO.N,Net-(U12-SS)*%
X176275000Y-136595000D03*
%TO.P,U12,5,VSENSE*%
%TO.N,Net-(U12-VSENSE)*%
X181225000Y-136595000D03*
%TO.P,U12,6,COMP*%
%TO.N,Net-(U12-COMP)*%
X181225000Y-137865000D03*
%TO.P,U12,7,GND*%
%TO.N,GND*%
X181225000Y-139135000D03*
%TO.P,U12,8,PH*%
%TO.N,Net-(D5-K)*%
X181225000Y-140405000D03*
%TD*%
D16*
%TO.P,U7,1*%
%TO.N,CV_IN_1*%
X128475000Y-122095000D03*
%TO.P,U7,2,-*%
%TO.N,Net-(U7A--)*%
X128475000Y-123365000D03*
%TO.P,U7,3,+*%
%TO.N,GND*%
X128475000Y-124635000D03*
%TO.P,U7,4,V-*%
X128475000Y-125905000D03*
%TO.P,U7,5,+*%
X123525000Y-125905000D03*
%TO.P,U7,6,-*%
%TO.N,Net-(U7B--)*%
X123525000Y-124635000D03*
%TO.P,U7,7*%
%TO.N,CV_IN_2*%
X123525000Y-123365000D03*
%TO.P,U7,8,V+*%
%TO.N,+3.3V*%
X123525000Y-122095000D03*
%TD*%
%TO.P,U8,1*%
%TO.N,CV_IN_3*%
X128475000Y-137845000D03*
%TO.P,U8,2,-*%
%TO.N,Net-(U8A--)*%
X128475000Y-139115000D03*
%TO.P,U8,3,+*%
%TO.N,GND*%
X128475000Y-140385000D03*
%TO.P,U8,4,V-*%
X128475000Y-141655000D03*
%TO.P,U8,5,+*%
X123525000Y-141655000D03*
%TO.P,U8,6,-*%
%TO.N,Net-(U8B--)*%
X123525000Y-140385000D03*
%TO.P,U8,7*%
%TO.N,CV_IN_4*%
X123525000Y-139115000D03*
%TO.P,U8,8,V+*%
%TO.N,+3.3V*%
X123525000Y-137845000D03*
%TD*%
D19*
%TO.P,J15,1,Pin_1*%
%TO.N,Net-(J15-Pin_1)*%
X146190000Y-58250000D03*
D14*
%TO.P,J15,2,Pin_2*%
%TO.N,Net-(J15-Pin_2)*%
X148730000Y-58250000D03*
%TO.P,J15,3,Pin_3*%
%TO.N,Net-(J15-Pin_3)*%
X151270000Y-58250000D03*
%TO.P,J15,4,Pin_4*%
%TO.N,Net-(J15-Pin_4)*%
X153810000Y-58250000D03*
%TD*%
D20*
%TO.P,R66,2*%
%TO.N,Net-(U15B--)*%
X73325000Y-125250000D03*
%TO.P,R66,1*%
%TO.N,Net-(R66-Pad1)*%
X71675000Y-125250000D03*
%TD*%
%TO.P,R70,2*%
%TO.N,GND*%
X76575000Y-136250000D03*
%TO.P,R70,1*%
%TO.N,Net-(U16B--)*%
X74925000Y-136250000D03*
%TD*%
D21*
%TO.P,C37,2*%
%TO.N,-12V*%
X77500000Y-130975000D03*
%TO.P,C37,1*%
%TO.N,+12V*%
X77500000Y-132525000D03*
%TD*%
D20*
%TO.P,R71,2*%
%TO.N,GND*%
X76575000Y-127000000D03*
%TO.P,R71,1*%
%TO.N,Net-(U16A--)*%
X74925000Y-127000000D03*
%TD*%
%TO.P,R73,2*%
%TO.N,Net-(U16A--)*%
X73325000Y-127000000D03*
%TO.P,R73,1*%
%TO.N,Net-(R73-Pad1)*%
X71675000Y-127000000D03*
%TD*%
%TO.P,R67,2*%
%TO.N,Net-(U15A--)*%
X73325000Y-115750000D03*
%TO.P,R67,1*%
%TO.N,Net-(R67-Pad1)*%
X71675000Y-115750000D03*
%TD*%
%TO.P,R72,2*%
%TO.N,Net-(U16B--)*%
X73325000Y-136250000D03*
%TO.P,R72,1*%
%TO.N,Net-(R72-Pad1)*%
X71675000Y-136250000D03*
%TD*%
%TO.P,R65,2*%
%TO.N,GND*%
X76575000Y-115750000D03*
%TO.P,R65,1*%
%TO.N,Net-(U15A--)*%
X74925000Y-115750000D03*
%TD*%
%TO.P,R64,2*%
%TO.N,GND*%
X76575000Y-125250000D03*
%TO.P,R64,1*%
%TO.N,Net-(U15B--)*%
X74925000Y-125250000D03*
%TD*%
%TO.P,R76,2*%
%TO.N,GND*%
X79825000Y-138000000D03*
%TO.P,R76,1*%
%TO.N,Net-(U17A--)*%
X78175000Y-138000000D03*
%TD*%
D21*
%TO.P,C36,2*%
%TO.N,-12V*%
X77500000Y-119725000D03*
%TO.P,C36,1*%
%TO.N,+12V*%
X77500000Y-121275000D03*
%TD*%
%TO.P,C38,2*%
%TO.N,-12V*%
X77500000Y-141725000D03*
%TO.P,C38,1*%
%TO.N,+12V*%
X77500000Y-143275000D03*
%TD*%
D20*
%TO.P,R78,2*%
%TO.N,SYNC_OUT_EURO*%
X73325000Y-138000000D03*
%TO.P,R78,1*%
%TO.N,Net-(R77-Pad1)*%
X71675000Y-138000000D03*
%TD*%
%TO.P,R77,2*%
%TO.N,Net-(U17A--)*%
X76575000Y-138000000D03*
%TO.P,R77,1*%
%TO.N,Net-(R77-Pad1)*%
X74925000Y-138000000D03*
%TD*%
D22*
%TO.P,RV3,*%
%TO.N,*%
X115200000Y-45500000D03*
X124800000Y-45500000D03*
D23*
%TO.P,RV3,1,1*%
%TO.N,+3.3V*%
X117500000Y-53000000D03*
D24*
%TO.P,RV3,2,2*%
%TO.N,Net-(U6-A2)*%
X120000000Y-53000000D03*
%TO.P,RV3,3,3*%
%TO.N,GND*%
X122500000Y-53000000D03*
%TD*%
D25*
%TO.P,J1,S*%
%TO.N,GND*%
X96000000Y-130400000D03*
D26*
%TO.P,J1,T*%
%TO.N,TRIGGER_OUT_1_EURO*%
X96000000Y-119000000D03*
%TO.P,J1,TN*%
%TO.N,unconnected-(J1-PadTN)*%
X96000000Y-127300000D03*
%TD*%
D25*
%TO.P,J12,S*%
%TO.N,GND*%
X132000000Y-130400000D03*
D26*
%TO.P,J12,T*%
%TO.N,Net-(J12-PadT)*%
X132000000Y-119000000D03*
%TO.P,J12,TN*%
%TO.N,GND*%
X132000000Y-127300000D03*
%TD*%
D22*
%TO.P,RV8,*%
%TO.N,*%
X135200000Y-67500000D03*
X144800000Y-67500000D03*
D23*
%TO.P,RV8,1,1*%
%TO.N,+3.3V*%
X137500000Y-75000000D03*
D24*
%TO.P,RV8,2,2*%
%TO.N,Net-(U6-A7)*%
X140000000Y-75000000D03*
%TO.P,RV8,3,3*%
%TO.N,GND*%
X142500000Y-75000000D03*
%TD*%
D25*
%TO.P,J11,S*%
%TO.N,GND*%
X120000000Y-130400000D03*
D26*
%TO.P,J11,T*%
%TO.N,Net-(J11-PadT)*%
X120000000Y-119000000D03*
%TO.P,J11,TN*%
%TO.N,GND*%
X120000000Y-127300000D03*
%TD*%
D25*
%TO.P,J9,S*%
%TO.N,GND*%
X144000000Y-146400000D03*
D26*
%TO.P,J9,T*%
%TO.N,EURO_OUT_2*%
X144000000Y-135000000D03*
%TO.P,J9,TN*%
%TO.N,unconnected-(J9-PadTN)*%
X144000000Y-143300000D03*
%TD*%
D22*
%TO.P,RV4,*%
%TO.N,*%
X135200000Y-45500000D03*
X144800000Y-45500000D03*
D23*
%TO.P,RV4,1,1*%
%TO.N,+3.3V*%
X137500000Y-53000000D03*
D24*
%TO.P,RV4,2,2*%
%TO.N,Net-(U6-A3)*%
X140000000Y-53000000D03*
%TO.P,RV4,3,3*%
%TO.N,GND*%
X142500000Y-53000000D03*
%TD*%
D22*
%TO.P,RV1,*%
%TO.N,*%
X75200000Y-45500000D03*
X84800000Y-45500000D03*
D23*
%TO.P,RV1,1,1*%
%TO.N,+3.3V*%
X77500000Y-53000000D03*
D24*
%TO.P,RV1,2,2*%
%TO.N,Net-(U6-A0)*%
X80000000Y-53000000D03*
%TO.P,RV1,3,3*%
%TO.N,GND*%
X82500000Y-53000000D03*
%TD*%
D22*
%TO.P,RV10,*%
%TO.N,*%
X175200000Y-45500000D03*
X184800000Y-45500000D03*
D23*
%TO.P,RV10,1,1*%
%TO.N,+3.3V*%
X177500000Y-53000000D03*
D24*
%TO.P,RV10,2,2*%
%TO.N,Net-(U9-A1)*%
X180000000Y-53000000D03*
%TO.P,RV10,3,3*%
%TO.N,GND*%
X182500000Y-53000000D03*
%TD*%
D25*
%TO.P,J3,S*%
%TO.N,GND*%
X84000000Y-130400000D03*
D26*
%TO.P,J3,T*%
%TO.N,SYNC_IN_EURO*%
X84000000Y-119000000D03*
%TO.P,J3,TN*%
%TO.N,unconnected-(J3-PadTN)*%
X84000000Y-127300000D03*
%TD*%
D25*
%TO.P,J13,S*%
%TO.N,GND*%
X120000000Y-146400000D03*
D26*
%TO.P,J13,T*%
%TO.N,Net-(J13-PadT)*%
X120000000Y-135000000D03*
%TO.P,J13,TN*%
%TO.N,GND*%
X120000000Y-143300000D03*
%TD*%
D25*
%TO.P,J14,S*%
%TO.N,GND*%
X132000000Y-146400000D03*
D26*
%TO.P,J14,T*%
%TO.N,Net-(J14-PadT)*%
X132000000Y-135000000D03*
%TO.P,J14,TN*%
%TO.N,GND*%
X132000000Y-143300000D03*
%TD*%
D22*
%TO.P,RV7,*%
%TO.N,*%
X115200000Y-67500000D03*
X124800000Y-67500000D03*
D23*
%TO.P,RV7,1,1*%
%TO.N,+3.3V*%
X117500000Y-75000000D03*
D24*
%TO.P,RV7,2,2*%
%TO.N,Net-(U6-A6)*%
X120000000Y-75000000D03*
%TO.P,RV7,3,3*%
%TO.N,GND*%
X122500000Y-75000000D03*
%TD*%
D27*
%TO.P,J5,1,DAT2*%
%TO.N,unconnected-(J5-DAT2-Pad1)*%
X181550000Y-96550000D03*
%TO.P,J5,2,DAT3/CD*%
%TO.N,SD_CHIP_SELECT*%
X180450000Y-95450000D03*
%TO.P,J5,3,CMD*%
%TO.N,SD_SERIAL_IN*%
X181550000Y-94350000D03*
%TO.P,J5,4,VDD*%
%TO.N,+3.3V*%
X180450000Y-93250000D03*
%TO.P,J5,5,CLK*%
%TO.N,SD_CLOCK*%
X181550000Y-92150000D03*
%TO.P,J5,6,VSS*%
%TO.N,GND*%
X180450000Y-91050000D03*
%TO.P,J5,7,DAT0*%
%TO.N,SD_SERIAL_OUT*%
X181550000Y-89950000D03*
%TO.P,J5,8,DAT1*%
%TO.N,unconnected-(J5-DAT1-Pad8)*%
X180450000Y-88850000D03*
D28*
%TO.P,J5,9,SHIELD*%
%TO.N,GND*%
X184720000Y-97000000D03*
X184720000Y-88400000D03*
%TD*%
D23*
%TO.P,D3,1,K*%
%TO.N,GND*%
X155725000Y-134600000D03*
D24*
%TO.P,D3,2,A*%
%TO.N,Net-(D3-A)*%
X158265000Y-134600000D03*
%TD*%
D22*
%TO.P,RV11,*%
%TO.N,*%
X155200000Y-67500000D03*
X164800000Y-67500000D03*
D23*
%TO.P,RV11,1,1*%
%TO.N,+3.3V*%
X157500000Y-75000000D03*
D24*
%TO.P,RV11,2,2*%
%TO.N,Net-(U9-A2)*%
X160000000Y-75000000D03*
%TO.P,RV11,3,3*%
%TO.N,GND*%
X162500000Y-75000000D03*
%TD*%
D22*
%TO.P,RV9,*%
%TO.N,*%
X155200000Y-45500000D03*
X164800000Y-45500000D03*
D23*
%TO.P,RV9,1,1*%
%TO.N,+3.3V*%
X157500000Y-53000000D03*
D24*
%TO.P,RV9,2,2*%
%TO.N,Net-(U9-A0)*%
X160000000Y-53000000D03*
%TO.P,RV9,3,3*%
%TO.N,GND*%
X162500000Y-53000000D03*
%TD*%
D25*
%TO.P,J6,S*%
%TO.N,GND*%
X96000000Y-146400000D03*
D26*
%TO.P,J6,T*%
%TO.N,TRIGGER_OUT_3_EURO*%
X96000000Y-135000000D03*
%TO.P,J6,TN*%
%TO.N,unconnected-(J6-PadTN)*%
X96000000Y-143300000D03*
%TD*%
D23*
%TO.P,D2,1,K*%
%TO.N,GND*%
X155725000Y-129050000D03*
D24*
%TO.P,D2,2,A*%
%TO.N,Net-(D2-A)*%
X158265000Y-129050000D03*
%TD*%
D23*
%TO.P,D1,1,K*%
%TO.N,GND*%
X155725000Y-123500000D03*
D24*
%TO.P,D1,2,A*%
%TO.N,Net-(D1-A)*%
X158265000Y-123500000D03*
%TD*%
D25*
%TO.P,J4,S*%
%TO.N,GND*%
X144000000Y-130400000D03*
D26*
%TO.P,J4,T*%
%TO.N,EURO_OUT_1*%
X144000000Y-119000000D03*
%TO.P,J4,TN*%
%TO.N,unconnected-(J4-PadTN)*%
X144000000Y-127300000D03*
%TD*%
D23*
%TO.P,D4,1,K*%
%TO.N,GND*%
X155725000Y-140150000D03*
D24*
%TO.P,D4,2,A*%
%TO.N,Net-(D4-A)*%
X158265000Y-140150000D03*
%TD*%
D22*
%TO.P,RV12,*%
%TO.N,*%
X175200000Y-67500000D03*
X184800000Y-67500000D03*
D23*
%TO.P,RV12,1,1*%
%TO.N,+3.3V*%
X177500000Y-75000000D03*
D24*
%TO.P,RV12,2,2*%
%TO.N,Net-(U9-A3)*%
X180000000Y-75000000D03*
%TO.P,RV12,3,3*%
%TO.N,GND*%
X182500000Y-75000000D03*
%TD*%
D25*
%TO.P,J7,S*%
%TO.N,GND*%
X108000000Y-146400000D03*
D26*
%TO.P,J7,T*%
%TO.N,TRIGGER_OUT_4_EURO*%
X108000000Y-135000000D03*
%TO.P,J7,TN*%
%TO.N,unconnected-(J7-PadTN)*%
X108000000Y-143300000D03*
%TD*%
D22*
%TO.P,RV6,*%
%TO.N,*%
X95200000Y-67500000D03*
X104800000Y-67500000D03*
D23*
%TO.P,RV6,1,1*%
%TO.N,+3.3V*%
X97500000Y-75000000D03*
D24*
%TO.P,RV6,2,2*%
%TO.N,Net-(U6-A5)*%
X100000000Y-75000000D03*
%TO.P,RV6,3,3*%
%TO.N,GND*%
X102500000Y-75000000D03*
%TD*%
D25*
%TO.P,J2,S*%
%TO.N,GND*%
X108000000Y-130400000D03*
D26*
%TO.P,J2,T*%
%TO.N,TRIGGER_OUT_2_EURO*%
X108000000Y-119000000D03*
%TO.P,J2,TN*%
%TO.N,unconnected-(J2-PadTN)*%
X108000000Y-127300000D03*
%TD*%
D22*
%TO.P,RV5,*%
%TO.N,*%
X75200000Y-67500000D03*
X84800000Y-67500000D03*
D23*
%TO.P,RV5,1,1*%
%TO.N,+3.3V*%
X77500000Y-75000000D03*
D24*
%TO.P,RV5,2,2*%
%TO.N,Net-(U6-A4)*%
X80000000Y-75000000D03*
%TO.P,RV5,3,3*%
%TO.N,GND*%
X82500000Y-75000000D03*
%TD*%
D22*
%TO.P,RV2,*%
%TO.N,*%
X95200000Y-45500000D03*
X104800000Y-45500000D03*
D23*
%TO.P,RV2,1,1*%
%TO.N,+3.3V*%
X97500000Y-53000000D03*
D24*
%TO.P,RV2,2,2*%
%TO.N,Net-(U6-A1)*%
X100000000Y-53000000D03*
%TO.P,RV2,3,3*%
%TO.N,GND*%
X102500000Y-53000000D03*
%TD*%
D25*
%TO.P,J8,S*%
%TO.N,GND*%
X84000000Y-146400000D03*
D26*
%TO.P,J8,T*%
%TO.N,SYNC_OUT_EURO*%
X84000000Y-135000000D03*
%TO.P,J8,TN*%
%TO.N,unconnected-(J8-PadTN)*%
X84000000Y-143300000D03*
%TD*%
D29*
%TO.P,U11,1,VI*%
%TO.N,+5V*%
X132375000Y-98700000D03*
%TO.P,U11,2,VO*%
%TO.N,+3.3VDAC*%
X132375000Y-96800000D03*
%TO.P,U11,3,GND*%
%TO.N,GND*%
X134250000Y-97750000D03*
%TD*%
D21*
%TO.P,C31,1*%
%TO.N,Net-(U14-LDOO)*%
X149000000Y-94525000D03*
%TO.P,C31,2*%
%TO.N,GND*%
X149000000Y-92975000D03*
%TD*%
D30*
%TO.P,C7,1*%
%TO.N,Net-(D5-K)*%
X181525000Y-142250000D03*
%TO.P,C7,2*%
%TO.N,Net-(U12-BOOT)*%
X179975000Y-142250000D03*
%TD*%
D20*
%TO.P,R29,1*%
%TO.N,-12V*%
X125175000Y-127750000D03*
%TO.P,R29,2*%
%TO.N,Net-(U7A--)*%
X126825000Y-127750000D03*
%TD*%
D31*
%TO.P,R1,1*%
%TO.N,Net-(D1-A)*%
X160250000Y-122925000D03*
%TO.P,R1,2*%
%TO.N,Net-(U2-QE)*%
X160250000Y-124575000D03*
%TD*%
D11*
%TO.P,R61,1*%
%TO.N,Net-(U14-OUTR)*%
X134575000Y-93250000D03*
%TO.P,R61,2*%
%TO.N,LINE_OUT_R*%
X132925000Y-93250000D03*
%TD*%
D20*
%TO.P,R75,1*%
%TO.N,Net-(R73-Pad1)*%
X91425000Y-135000000D03*
%TO.P,R75,2*%
%TO.N,TRIGGER_OUT_3_EURO*%
X93075000Y-135000000D03*
%TD*%
D32*
%TO.P,C14,1*%
%TO.N,+5V*%
X178000000Y-125800000D03*
%TO.P,C14,2*%
%TO.N,GND*%
X178000000Y-131200000D03*
%TD*%
D30*
%TO.P,C8,1*%
%TO.N,Net-(U12-SS)*%
X173775000Y-137250000D03*
%TO.P,C8,2*%
%TO.N,GND*%
X172225000Y-137250000D03*
%TD*%
D11*
%TO.P,R43,1*%
%TO.N,Net-(U10-D0)*%
X158325000Y-109500000D03*
%TO.P,R43,2*%
%TO.N,GND*%
X156675000Y-109500000D03*
%TD*%
D33*
%TO.P,C10,1*%
%TO.N,Net-(C10-Pad1)*%
X183475000Y-141500000D03*
%TO.P,C10,2*%
%TO.N,GND*%
X185025000Y-141500000D03*
%TD*%
D34*
%TO.P,R11,1*%
%TO.N,Net-(U3-d)*%
X157750000Y-95075000D03*
%TO.P,R11,2*%
%TO.N,Net-(U1-QD)*%
X157750000Y-93425000D03*
%TD*%
D35*
%TO.P,C27,1*%
%TO.N,Net-(U14-VNEG)*%
X136500000Y-93225000D03*
%TO.P,C27,2*%
%TO.N,GND*%
X136500000Y-94775000D03*
%TD*%
D21*
%TO.P,C25,1*%
%TO.N,+3.3VDAC*%
X135750000Y-91525000D03*
%TO.P,C25,2*%
%TO.N,GND*%
X135750000Y-89975000D03*
%TD*%
D11*
%TO.P,R35,1*%
%TO.N,-12V*%
X126825000Y-143500000D03*
%TO.P,R35,2*%
%TO.N,Net-(U8A--)*%
X125175000Y-143500000D03*
%TD*%
D31*
%TO.P,R9,1*%
%TO.N,Net-(U3-b)*%
X163000000Y-90175000D03*
%TO.P,R9,2*%
%TO.N,Net-(U1-QB)*%
X163000000Y-91825000D03*
%TD*%
D30*
%TO.P,C5,1*%
%TO.N,+5V*%
X130525000Y-98500000D03*
%TO.P,C5,2*%
%TO.N,GND*%
X128975000Y-98500000D03*
%TD*%
D33*
%TO.P,C19,1*%
%TO.N,+12V*%
X140225000Y-114750000D03*
%TO.P,C19,2*%
%TO.N,GND*%
X141775000Y-114750000D03*
%TD*%
D34*
%TO.P,R5,1*%
%TO.N,Net-(U3-e)*%
X156090000Y-95075000D03*
%TO.P,R5,2*%
%TO.N,Net-(U1-QE)*%
X156090000Y-93425000D03*
%TD*%
D36*
%TO.P,C12,1*%
%TO.N,Net-(D6-A)*%
X183525000Y-135250000D03*
%TO.P,C12,2*%
%TO.N,GND*%
X186475000Y-135250000D03*
%TD*%
D11*
%TO.P,R44,1*%
%TO.N,Net-(U10-D1)*%
X168325000Y-109500000D03*
%TO.P,R44,2*%
%TO.N,GND*%
X166675000Y-109500000D03*
%TD*%
D31*
%TO.P,R8,1*%
%TO.N,Net-(U3-a)*%
X159500000Y-90175000D03*
%TO.P,R8,2*%
%TO.N,Net-(U1-QA)*%
X159500000Y-91825000D03*
%TD*%
D30*
%TO.P,C35,1*%
%TO.N,LINE_OUT_R*%
X131275000Y-93250000D03*
%TO.P,C35,2*%
%TO.N,GND*%
X129725000Y-93250000D03*
%TD*%
D31*
%TO.P,R30,1*%
%TO.N,Net-(J11-PadT)*%
X125500000Y-118675000D03*
%TO.P,R30,2*%
%TO.N,Net-(U7A--)*%
X125500000Y-120325000D03*
%TD*%
%TO.P,R36,1*%
%TO.N,Net-(J13-PadT)*%
X125250000Y-134425000D03*
%TO.P,R36,2*%
%TO.N,Net-(U8A--)*%
X125250000Y-136075000D03*
%TD*%
D37*
%TO.P,C16,1*%
%TO.N,+5V*%
X178000000Y-121700000D03*
%TO.P,C16,2*%
%TO.N,GND*%
X178000000Y-116300000D03*
%TD*%
D34*
%TO.P,R10,1*%
%TO.N,Net-(U3-c)*%
X161250000Y-95075000D03*
%TO.P,R10,2*%
%TO.N,Net-(U1-QC)*%
X161250000Y-93425000D03*
%TD*%
D30*
%TO.P,C22,1*%
%TO.N,Net-(U13B--)*%
X137275000Y-116000000D03*
%TO.P,C22,2*%
%TO.N,Net-(C22-Pad2)*%
X135725000Y-116000000D03*
%TD*%
D31*
%TO.P,R4,1*%
%TO.N,Net-(D4-A)*%
X160250000Y-139750000D03*
%TO.P,R4,2*%
%TO.N,Net-(U2-QH)*%
X160250000Y-141400000D03*
%TD*%
D38*
%TO.P,U14,1,CPVDD*%
%TO.N,+3.3VDAC*%
X141137500Y-95675000D03*
%TO.P,U14,2,CAPP*%
%TO.N,Net-(U14-CAPP)*%
X141137500Y-95025000D03*
%TO.P,U14,3,CPGND*%
%TO.N,GND*%
X141137500Y-94375000D03*
%TO.P,U14,4,CAPM*%
%TO.N,Net-(U14-CAPM)*%
X141137500Y-93725000D03*
%TO.P,U14,5,VNEG*%
%TO.N,Net-(U14-VNEG)*%
X141137500Y-93075000D03*
%TO.P,U14,6,OUTL*%
%TO.N,Net-(U14-OUTL)*%
X141137500Y-92425000D03*
%TO.P,U14,7,OUTR*%
%TO.N,Net-(U14-OUTR)*%
X141137500Y-91775000D03*
%TO.P,U14,8,AVDD*%
%TO.N,+3.3VDAC*%
X141137500Y-91125000D03*
%TO.P,U14,9,AGND*%
%TO.N,GND*%
X141137500Y-90475000D03*
%TO.P,U14,10,DEMP*%
X141137500Y-89825000D03*
%TO.P,U14,11,FLT*%
X146862500Y-89825000D03*
%TO.P,U14,12,SCK*%
X146862500Y-90475000D03*
%TO.P,U14,13,BCK*%
%TO.N,Net-(U14-BCK)*%
X146862500Y-91125000D03*
%TO.P,U14,14,DIN*%
%TO.N,Net-(U14-DIN)*%
X146862500Y-91775000D03*
%TO.P,U14,15,LRCK*%
%TO.N,Net-(U14-LRCK)*%
X146862500Y-92425000D03*
%TO.P,U14,16,FMT*%
%TO.N,GND*%
X146862500Y-93075000D03*
%TO.P,U14,17,XSMT*%
%TO.N,+3.3VDAC*%
X146862500Y-93725000D03*
%TO.P,U14,18,LDOO*%
%TO.N,Net-(U14-LDOO)*%
X146862500Y-94375000D03*
%TO.P,U14,19,DGND*%
%TO.N,GND*%
X146862500Y-95025000D03*
%TO.P,U14,20,DVDD*%
%TO.N,+3.3VDAC*%
X146862500Y-95675000D03*
%TD*%
D11*
%TO.P,R51,1*%
%TO.N,Net-(C17-Pad2)*%
X130825000Y-111250000D03*
%TO.P,R51,2*%
%TO.N,Net-(U13A--)*%
X129175000Y-111250000D03*
%TD*%
D20*
%TO.P,R68,1*%
%TO.N,Net-(R66-Pad1)*%
X103425000Y-119000000D03*
%TO.P,R68,2*%
%TO.N,TRIGGER_OUT_2_EURO*%
X105075000Y-119000000D03*
%TD*%
D21*
%TO.P,C28,1*%
%TO.N,+3.3VDAC*%
X149000000Y-97775000D03*
%TO.P,C28,2*%
%TO.N,GND*%
X149000000Y-96225000D03*
%TD*%
D34*
%TO.P,R59,1*%
%TO.N,DAC_LRC*%
X150000000Y-89325000D03*
%TO.P,R59,2*%
%TO.N,Net-(U14-LRCK)*%
X150000000Y-87675000D03*
%TD*%
D21*
%TO.P,C23,1*%
%TO.N,+3.3VDAC*%
X139250000Y-91525000D03*
%TO.P,C23,2*%
%TO.N,GND*%
X139250000Y-89975000D03*
%TD*%
%TO.P,C26,1*%
%TO.N,Net-(U14-CAPP)*%
X138250000Y-94775000D03*
%TO.P,C26,2*%
%TO.N,Net-(U14-CAPM)*%
X138250000Y-93225000D03*
%TD*%
D34*
%TO.P,R7,1*%
%TO.N,Net-(U3-DPX)*%
X159500000Y-95075000D03*
%TO.P,R7,2*%
%TO.N,Net-(U1-QH)*%
X159500000Y-93425000D03*
%TD*%
D21*
%TO.P,C4,1*%
%TO.N,Net-(U8B--)*%
X121250000Y-140525000D03*
%TO.P,C4,2*%
%TO.N,CV_IN_4*%
X121250000Y-138975000D03*
%TD*%
D33*
%TO.P,C11,1*%
%TO.N,Net-(U12-COMP)*%
X183475000Y-138000000D03*
%TO.P,C11,2*%
%TO.N,GND*%
X185025000Y-138000000D03*
%TD*%
D20*
%TO.P,R46,1*%
%TO.N,Net-(U12-COMP)*%
X183425000Y-139750000D03*
%TO.P,R46,2*%
%TO.N,Net-(C10-Pad1)*%
X185075000Y-139750000D03*
%TD*%
D11*
%TO.P,R60,1*%
%TO.N,Net-(U14-OUTL)*%
X134575000Y-95000000D03*
%TO.P,R60,2*%
%TO.N,LINE_OUT_L*%
X132925000Y-95000000D03*
%TD*%
D34*
%TO.P,R6,1*%
%TO.N,Net-(U3-g)*%
X163000000Y-95075000D03*
%TO.P,R6,2*%
%TO.N,Net-(U1-QG)*%
X163000000Y-93425000D03*
%TD*%
D39*
%TO.P,D6,1,K*%
%TO.N,+5V*%
X173500000Y-135550000D03*
%TO.P,D6,2,A*%
%TO.N,Net-(D6-A)*%
X173500000Y-133450000D03*
%TD*%
D20*
%TO.P,R69,1*%
%TO.N,Net-(R67-Pad1)*%
X91425000Y-119000000D03*
%TO.P,R69,2*%
%TO.N,TRIGGER_OUT_1_EURO*%
X93075000Y-119000000D03*
%TD*%
D30*
%TO.P,C21,1*%
%TO.N,Net-(U13A--)*%
X134025000Y-116000000D03*
%TO.P,C21,2*%
%TO.N,Net-(C21-Pad2)*%
X132475000Y-116000000D03*
%TD*%
D21*
%TO.P,C24,1*%
%TO.N,+3.3VDAC*%
X137500000Y-91525000D03*
%TO.P,C24,2*%
%TO.N,GND*%
X137500000Y-89975000D03*
%TD*%
D11*
%TO.P,R53,1*%
%TO.N,Net-(U13A--)*%
X134075000Y-114250000D03*
%TO.P,R53,2*%
%TO.N,Net-(C21-Pad2)*%
X132425000Y-114250000D03*
%TD*%
D21*
%TO.P,C29,1*%
%TO.N,Net-(U14-LDOO)*%
X150750000Y-94525000D03*
%TO.P,C29,2*%
%TO.N,GND*%
X150750000Y-92975000D03*
%TD*%
D33*
%TO.P,C17,1*%
%TO.N,LINE_OUT_L*%
X129225000Y-113000000D03*
%TO.P,C17,2*%
%TO.N,Net-(C17-Pad2)*%
X130775000Y-113000000D03*
%TD*%
D34*
%TO.P,R42,1*%
%TO.N,GND*%
X156050000Y-118575000D03*
%TO.P,R42,2*%
%TO.N,12V DETECTION*%
X156050000Y-116925000D03*
%TD*%
D21*
%TO.P,C2,1*%
%TO.N,Net-(U7B--)*%
X121250000Y-124695000D03*
%TO.P,C2,2*%
%TO.N,CV_IN_2*%
X121250000Y-123145000D03*
%TD*%
D20*
%TO.P,R56,1*%
%TO.N,Net-(C22-Pad2)*%
X139675000Y-135000000D03*
%TO.P,R56,2*%
%TO.N,EURO_OUT_2*%
X141325000Y-135000000D03*
%TD*%
D31*
%TO.P,R2,1*%
%TO.N,Net-(D2-A)*%
X160250000Y-128750000D03*
%TO.P,R2,2*%
%TO.N,Net-(U2-QF)*%
X160250000Y-130400000D03*
%TD*%
D19*
%TO.P,J10,1,Pin_1*%
%TO.N,SERIAL_TX*%
X185000000Y-111540000D03*
D14*
%TO.P,J10,2,Pin_2*%
%TO.N,GND*%
X185000000Y-109000000D03*
%TO.P,J10,3,Pin_3*%
%TO.N,SERIAL_RX*%
X185000000Y-106460000D03*
%TD*%
D29*
%TO.P,Q1,1,B*%
%TO.N,Net-(Q1-B)*%
X83125000Y-123950000D03*
%TO.P,Q1,2,E*%
%TO.N,GND*%
X83125000Y-122050000D03*
%TO.P,Q1,3,C*%
%TO.N,SYNC_IN*%
X85000000Y-123000000D03*
%TD*%
D20*
%TO.P,R52,1*%
%TO.N,Net-(C18-Pad2)*%
X140175000Y-111250000D03*
%TO.P,R52,2*%
%TO.N,Net-(U13B--)*%
X141825000Y-111250000D03*
%TD*%
D30*
%TO.P,C33,1*%
%TO.N,LINE_OUT_L*%
X131275000Y-95000000D03*
%TO.P,C33,2*%
%TO.N,GND*%
X129725000Y-95000000D03*
%TD*%
D37*
%TO.P,C15,1*%
%TO.N,+5V*%
X185500000Y-121700000D03*
%TO.P,C15,2*%
%TO.N,GND*%
X185500000Y-116300000D03*
%TD*%
D31*
%TO.P,R12,1*%
%TO.N,Net-(U3-f)*%
X161250000Y-90175000D03*
%TO.P,R12,2*%
%TO.N,Net-(U1-QF)*%
X161250000Y-91825000D03*
%TD*%
D40*
%TO.P,C6,1*%
%TO.N,+12V*%
X173950000Y-139250000D03*
%TO.P,C6,2*%
%TO.N,GND*%
X172050000Y-139250000D03*
%TD*%
D21*
%TO.P,C32,1*%
%TO.N,+3.3VDAC*%
X138250000Y-98025000D03*
%TO.P,C32,2*%
%TO.N,GND*%
X138250000Y-96475000D03*
%TD*%
D41*
%TO.P,J16,1,Pin_1*%
%TO.N,-12V*%
X165000000Y-129180000D03*
D14*
%TO.P,J16,2,Pin_2*%
X167540000Y-129180000D03*
%TO.P,J16,3,Pin_3*%
%TO.N,GND*%
X165000000Y-126640000D03*
%TO.P,J16,4,Pin_4*%
X167540000Y-126640000D03*
%TO.P,J16,5,Pin_5*%
X165000000Y-124100000D03*
%TO.P,J16,6,Pin_6*%
X167540000Y-124100000D03*
%TO.P,J16,7,Pin_7*%
X165000000Y-121560000D03*
%TO.P,J16,8,Pin_8*%
X167540000Y-121560000D03*
%TO.P,J16,9,Pin_9*%
%TO.N,+12V*%
X165000000Y-119020000D03*
%TO.P,J16,10,Pin_10*%
X167540000Y-119020000D03*
%TD*%
D21*
%TO.P,C1,1*%
%TO.N,Net-(U7A--)*%
X130750000Y-123525000D03*
%TO.P,C1,2*%
%TO.N,CV_IN_1*%
X130750000Y-121975000D03*
%TD*%
D32*
%TO.P,C13,1*%
%TO.N,+5V*%
X185500000Y-125800000D03*
%TO.P,C13,2*%
%TO.N,GND*%
X185500000Y-131200000D03*
%TD*%
D11*
%TO.P,R28,1*%
%TO.N,Net-(U5-D7)*%
X148325000Y-109500000D03*
%TO.P,R28,2*%
%TO.N,GND*%
X146675000Y-109500000D03*
%TD*%
D34*
%TO.P,R34,1*%
%TO.N,Net-(U7B--)*%
X119500000Y-124745000D03*
%TO.P,R34,2*%
%TO.N,CV_IN_2*%
X119500000Y-123095000D03*
%TD*%
%TO.P,R33,1*%
%TO.N,Net-(U7A--)*%
X132500000Y-123575000D03*
%TO.P,R33,2*%
%TO.N,CV_IN_1*%
X132500000Y-121925000D03*
%TD*%
D42*
%TO.P,D5,1,K*%
%TO.N,Net-(D5-K)*%
X180750000Y-145000000D03*
%TO.P,D5,2,A*%
%TO.N,GND*%
X176750000Y-145000000D03*
%TD*%
D31*
%TO.P,R58,1*%
%TO.N,DAC_DOUT*%
X153500000Y-87675000D03*
%TO.P,R58,2*%
%TO.N,Net-(U14-DIN)*%
X153500000Y-89325000D03*
%TD*%
D30*
%TO.P,C18,1*%
%TO.N,LINE_OUT_R*%
X141775000Y-113000000D03*
%TO.P,C18,2*%
%TO.N,Net-(C18-Pad2)*%
X140225000Y-113000000D03*
%TD*%
%TO.P,C9,1*%
%TO.N,+3.3VDAC*%
X130525000Y-96750000D03*
%TO.P,C9,2*%
%TO.N,GND*%
X128975000Y-96750000D03*
%TD*%
D20*
%TO.P,R62,1*%
%TO.N,SYNC_IN_EURO*%
X79925000Y-120250000D03*
%TO.P,R62,2*%
%TO.N,Net-(Q1-B)*%
X81575000Y-120250000D03*
%TD*%
D33*
%TO.P,C20,1*%
%TO.N,GND*%
X129225000Y-107750000D03*
%TO.P,C20,2*%
%TO.N,-12V*%
X130775000Y-107750000D03*
%TD*%
D20*
%TO.P,R49,1*%
%TO.N,Net-(C17-Pad2)*%
X129175000Y-109500000D03*
%TO.P,R49,2*%
%TO.N,GND*%
X130825000Y-109500000D03*
%TD*%
D21*
%TO.P,C3,1*%
%TO.N,Net-(U8A--)*%
X130750000Y-139275000D03*
%TO.P,C3,2*%
%TO.N,CV_IN_3*%
X130750000Y-137725000D03*
%TD*%
D34*
%TO.P,R41,1*%
%TO.N,12V DETECTION*%
X157750000Y-118575000D03*
%TO.P,R41,2*%
%TO.N,+12V*%
X157750000Y-116925000D03*
%TD*%
D20*
%TO.P,R48,1*%
%TO.N,Net-(U12-VSENSE)*%
X179500000Y-134750000D03*
%TO.P,R48,2*%
%TO.N,GND*%
X181150000Y-134750000D03*
%TD*%
D31*
%TO.P,R57,1*%
%TO.N,DAC_BCLK*%
X151750000Y-87675000D03*
%TO.P,R57,2*%
%TO.N,Net-(U14-BCK)*%
X151750000Y-89325000D03*
%TD*%
D20*
%TO.P,R74,1*%
%TO.N,Net-(R72-Pad1)*%
X103425000Y-135000000D03*
%TO.P,R74,2*%
%TO.N,TRIGGER_OUT_4_EURO*%
X105075000Y-135000000D03*
%TD*%
%TO.P,R50,1*%
%TO.N,Net-(C18-Pad2)*%
X140175000Y-109500000D03*
%TO.P,R50,2*%
%TO.N,GND*%
X141825000Y-109500000D03*
%TD*%
D21*
%TO.P,C34,1*%
%TO.N,+3.3VDAC*%
X136500000Y-98025000D03*
%TO.P,C34,2*%
%TO.N,GND*%
X136500000Y-96475000D03*
%TD*%
D20*
%TO.P,R47,1*%
%TO.N,Net-(D6-A)*%
X176250000Y-134750000D03*
%TO.P,R47,2*%
%TO.N,Net-(U12-VSENSE)*%
X177900000Y-134750000D03*
%TD*%
%TO.P,R31,1*%
%TO.N,-12V*%
X125175000Y-129500000D03*
%TO.P,R31,2*%
%TO.N,Net-(U7B--)*%
X126825000Y-129500000D03*
%TD*%
D34*
%TO.P,R39,1*%
%TO.N,Net-(U8A--)*%
X132500000Y-139325000D03*
%TO.P,R39,2*%
%TO.N,CV_IN_3*%
X132500000Y-137675000D03*
%TD*%
D31*
%TO.P,R32,1*%
%TO.N,Net-(J12-PadT)*%
X127250000Y-118675000D03*
%TO.P,R32,2*%
%TO.N,Net-(U7B--)*%
X127250000Y-120325000D03*
%TD*%
D11*
%TO.P,R45,1*%
%TO.N,Net-(U10-D2)*%
X178325000Y-109500000D03*
%TO.P,R45,2*%
%TO.N,GND*%
X176675000Y-109500000D03*
%TD*%
D31*
%TO.P,R3,1*%
%TO.N,Net-(D3-A)*%
X160250000Y-133750000D03*
%TO.P,R3,2*%
%TO.N,Net-(U2-QG)*%
X160250000Y-135400000D03*
%TD*%
D20*
%TO.P,R55,1*%
%TO.N,Net-(C21-Pad2)*%
X139675000Y-119000000D03*
%TO.P,R55,2*%
%TO.N,EURO_OUT_1*%
X141325000Y-119000000D03*
%TD*%
D11*
%TO.P,R54,1*%
%TO.N,Net-(U13B--)*%
X137325000Y-114250000D03*
%TO.P,R54,2*%
%TO.N,Net-(C22-Pad2)*%
X135675000Y-114250000D03*
%TD*%
D21*
%TO.P,C30,1*%
%TO.N,+3.3VDAC*%
X150750000Y-97775000D03*
%TO.P,C30,2*%
%TO.N,GND*%
X150750000Y-96225000D03*
%TD*%
D11*
%TO.P,R37,1*%
%TO.N,-12V*%
X126825000Y-145250000D03*
%TO.P,R37,2*%
%TO.N,Net-(U8B--)*%
X125175000Y-145250000D03*
%TD*%
D31*
%TO.P,R38,1*%
%TO.N,Net-(J14-PadT)*%
X127000000Y-134425000D03*
%TO.P,R38,2*%
%TO.N,Net-(U8B--)*%
X127000000Y-136075000D03*
%TD*%
D34*
%TO.P,R40,1*%
%TO.N,Net-(U8B--)*%
X119500000Y-140575000D03*
%TO.P,R40,2*%
%TO.N,CV_IN_4*%
X119500000Y-138925000D03*
%TD*%
%TO.P,R63,1*%
%TO.N,+3.3V*%
X88000000Y-124000000D03*
%TO.P,R63,2*%
%TO.N,SYNC_IN*%
X88000000Y-122350000D03*
%TD*%
D43*
%TO.P,L1,1,1*%
%TO.N,Net-(D5-K)*%
X171500000Y-146000000D03*
%TO.P,L1,2,2*%
%TO.N,Net-(D6-A)*%
X171500000Y-141500000D03*
%TD*%
M02*
