%TF.GenerationSoftware,KiCad,Pcbnew,7.0.2*%
%TF.CreationDate,2023-08-30T17:10:08+01:00*%
%TF.ProjectId,dk2_02_top,646b325f-3032-45f7-946f-702e6b696361,rev?*%
%TF.SameCoordinates,Original*%
%TF.FileFunction,Legend,Top*%
%TF.FilePolarity,Positive*%
%FSLAX46Y46*%
G04 Gerber Fmt 4.6, Leading zero omitted, Abs format (unit mm)*
G04 Created by KiCad (PCBNEW 7.0.2) date 2023-08-30 17:10:08*
%MOMM*%
%LPD*%
G01*
G04 APERTURE LIST*
G04 Aperture macros list*
%AMRoundRect*
0 Rectangle with rounded corners*
0 $1 Rounding radius*
0 $2 $3 $4 $5 $6 $7 $8 $9 X,Y pos of 4 corners*
0 Add a 4 corners polygon primitive as box body*
4,1,4,$2,$3,$4,$5,$6,$7,$8,$9,$2,$3,0*
0 Add four circle primitives for the rounded corners*
1,1,$1+$1,$2,$3*
1,1,$1+$1,$4,$5*
1,1,$1+$1,$6,$7*
1,1,$1+$1,$8,$9*
0 Add four rect primitives between the rounded corners*
20,1,$1+$1,$2,$3,$4,$5,0*
20,1,$1+$1,$4,$5,$6,$7,0*
20,1,$1+$1,$6,$7,$8,$9,0*
20,1,$1+$1,$8,$9,$2,$3,0*%
G04 Aperture macros list end*
%ADD10C,0.150000*%
%ADD11C,0.120000*%
%ADD12C,0.200000*%
%ADD13C,0.080000*%
%ADD14C,0.060000*%
%ADD15C,2.000000*%
%ADD16O,2.720000X3.240000*%
%ADD17R,1.800000X1.800000*%
%ADD18C,1.800000*%
%ADD19O,3.100000X2.300000*%
%ADD20RoundRect,0.650000X-0.650000X-0.650000X0.650000X-0.650000X0.650000X0.650000X-0.650000X0.650000X0*%
%ADD21C,3.200000*%
%ADD22R,1.500000X1.500000*%
%ADD23C,1.500000*%
%ADD24C,1.050000*%
%ADD25R,1.350000X1.350000*%
%ADD26O,3.048000X1.850000*%
%ADD27R,1.700000X1.700000*%
%ADD28O,1.700000X1.700000*%
G04 APERTURE END LIST*
D10*
X84714285Y-58632857D02*
X84714285Y-55632857D01*
X84714285Y-55632857D02*
X85428571Y-55632857D01*
X85428571Y-55632857D02*
X85857142Y-55775714D01*
X85857142Y-55775714D02*
X86142857Y-56061428D01*
X86142857Y-56061428D02*
X86285714Y-56347142D01*
X86285714Y-56347142D02*
X86428571Y-56918571D01*
X86428571Y-56918571D02*
X86428571Y-57347142D01*
X86428571Y-57347142D02*
X86285714Y-57918571D01*
X86285714Y-57918571D02*
X86142857Y-58204285D01*
X86142857Y-58204285D02*
X85857142Y-58490000D01*
X85857142Y-58490000D02*
X85428571Y-58632857D01*
X85428571Y-58632857D02*
X84714285Y-58632857D01*
X87714285Y-58632857D02*
X87714285Y-56632857D01*
X87714285Y-57204285D02*
X87857142Y-56918571D01*
X87857142Y-56918571D02*
X88000000Y-56775714D01*
X88000000Y-56775714D02*
X88285714Y-56632857D01*
X88285714Y-56632857D02*
X88571428Y-56632857D01*
X90857143Y-56632857D02*
X90857143Y-58632857D01*
X89571428Y-56632857D02*
X89571428Y-58204285D01*
X89571428Y-58204285D02*
X89714285Y-58490000D01*
X89714285Y-58490000D02*
X90000000Y-58632857D01*
X90000000Y-58632857D02*
X90428571Y-58632857D01*
X90428571Y-58632857D02*
X90714285Y-58490000D01*
X90714285Y-58490000D02*
X90857143Y-58347142D01*
X92285714Y-58632857D02*
X92285714Y-56632857D01*
X92285714Y-56918571D02*
X92428571Y-56775714D01*
X92428571Y-56775714D02*
X92714286Y-56632857D01*
X92714286Y-56632857D02*
X93142857Y-56632857D01*
X93142857Y-56632857D02*
X93428571Y-56775714D01*
X93428571Y-56775714D02*
X93571429Y-57061428D01*
X93571429Y-57061428D02*
X93571429Y-58632857D01*
X93571429Y-57061428D02*
X93714286Y-56775714D01*
X93714286Y-56775714D02*
X94000000Y-56632857D01*
X94000000Y-56632857D02*
X94428571Y-56632857D01*
X94428571Y-56632857D02*
X94714286Y-56775714D01*
X94714286Y-56775714D02*
X94857143Y-57061428D01*
X94857143Y-57061428D02*
X94857143Y-58632857D01*
X96285714Y-58632857D02*
X96285714Y-55632857D01*
X96571429Y-57490000D02*
X97428571Y-58632857D01*
X97428571Y-56632857D02*
X96285714Y-57775714D01*
X98714285Y-58632857D02*
X98714285Y-56632857D01*
X98714285Y-55632857D02*
X98571428Y-55775714D01*
X98571428Y-55775714D02*
X98714285Y-55918571D01*
X98714285Y-55918571D02*
X98857142Y-55775714D01*
X98857142Y-55775714D02*
X98714285Y-55632857D01*
X98714285Y-55632857D02*
X98714285Y-55918571D01*
X101428571Y-58632857D02*
X101428571Y-55632857D01*
X101428571Y-58490000D02*
X101142856Y-58632857D01*
X101142856Y-58632857D02*
X100571428Y-58632857D01*
X100571428Y-58632857D02*
X100285713Y-58490000D01*
X100285713Y-58490000D02*
X100142856Y-58347142D01*
X100142856Y-58347142D02*
X99999999Y-58061428D01*
X99999999Y-58061428D02*
X99999999Y-57204285D01*
X99999999Y-57204285D02*
X100142856Y-56918571D01*
X100142856Y-56918571D02*
X100285713Y-56775714D01*
X100285713Y-56775714D02*
X100571428Y-56632857D01*
X100571428Y-56632857D02*
X101142856Y-56632857D01*
X101142856Y-56632857D02*
X101428571Y-56775714D01*
X104999999Y-55918571D02*
X105142856Y-55775714D01*
X105142856Y-55775714D02*
X105428571Y-55632857D01*
X105428571Y-55632857D02*
X106142856Y-55632857D01*
X106142856Y-55632857D02*
X106428571Y-55775714D01*
X106428571Y-55775714D02*
X106571428Y-55918571D01*
X106571428Y-55918571D02*
X106714285Y-56204285D01*
X106714285Y-56204285D02*
X106714285Y-56490000D01*
X106714285Y-56490000D02*
X106571428Y-56918571D01*
X106571428Y-56918571D02*
X104857142Y-58632857D01*
X104857142Y-58632857D02*
X106714285Y-58632857D01*
X107999999Y-58347142D02*
X108142856Y-58490000D01*
X108142856Y-58490000D02*
X107999999Y-58632857D01*
X107999999Y-58632857D02*
X107857142Y-58490000D01*
X107857142Y-58490000D02*
X107999999Y-58347142D01*
X107999999Y-58347142D02*
X107999999Y-58632857D01*
X109999999Y-55632857D02*
X110285713Y-55632857D01*
X110285713Y-55632857D02*
X110571427Y-55775714D01*
X110571427Y-55775714D02*
X110714285Y-55918571D01*
X110714285Y-55918571D02*
X110857142Y-56204285D01*
X110857142Y-56204285D02*
X110999999Y-56775714D01*
X110999999Y-56775714D02*
X110999999Y-57490000D01*
X110999999Y-57490000D02*
X110857142Y-58061428D01*
X110857142Y-58061428D02*
X110714285Y-58347142D01*
X110714285Y-58347142D02*
X110571427Y-58490000D01*
X110571427Y-58490000D02*
X110285713Y-58632857D01*
X110285713Y-58632857D02*
X109999999Y-58632857D01*
X109999999Y-58632857D02*
X109714285Y-58490000D01*
X109714285Y-58490000D02*
X109571427Y-58347142D01*
X109571427Y-58347142D02*
X109428570Y-58061428D01*
X109428570Y-58061428D02*
X109285713Y-57490000D01*
X109285713Y-57490000D02*
X109285713Y-56775714D01*
X109285713Y-56775714D02*
X109428570Y-56204285D01*
X109428570Y-56204285D02*
X109571427Y-55918571D01*
X109571427Y-55918571D02*
X109714285Y-55775714D01*
X109714285Y-55775714D02*
X109999999Y-55632857D01*
X112142856Y-55918571D02*
X112285713Y-55775714D01*
X112285713Y-55775714D02*
X112571428Y-55632857D01*
X112571428Y-55632857D02*
X113285713Y-55632857D01*
X113285713Y-55632857D02*
X113571428Y-55775714D01*
X113571428Y-55775714D02*
X113714285Y-55918571D01*
X113714285Y-55918571D02*
X113857142Y-56204285D01*
X113857142Y-56204285D02*
X113857142Y-56490000D01*
X113857142Y-56490000D02*
X113714285Y-56918571D01*
X113714285Y-56918571D02*
X111999999Y-58632857D01*
X111999999Y-58632857D02*
X113857142Y-58632857D01*
X118285713Y-59775714D02*
X118142856Y-59632857D01*
X118142856Y-59632857D02*
X117857142Y-59204285D01*
X117857142Y-59204285D02*
X117714285Y-58918571D01*
X117714285Y-58918571D02*
X117571427Y-58490000D01*
X117571427Y-58490000D02*
X117428570Y-57775714D01*
X117428570Y-57775714D02*
X117428570Y-57204285D01*
X117428570Y-57204285D02*
X117571427Y-56490000D01*
X117571427Y-56490000D02*
X117714285Y-56061428D01*
X117714285Y-56061428D02*
X117857142Y-55775714D01*
X117857142Y-55775714D02*
X118142856Y-55347142D01*
X118142856Y-55347142D02*
X118285713Y-55204285D01*
X119428570Y-57061428D02*
X120428570Y-57061428D01*
X120857142Y-58632857D02*
X119428570Y-58632857D01*
X119428570Y-58632857D02*
X119428570Y-55632857D01*
X119428570Y-55632857D02*
X120857142Y-55632857D01*
X123428571Y-56632857D02*
X123428571Y-58632857D01*
X122142856Y-56632857D02*
X122142856Y-58204285D01*
X122142856Y-58204285D02*
X122285713Y-58490000D01*
X122285713Y-58490000D02*
X122571428Y-58632857D01*
X122571428Y-58632857D02*
X122999999Y-58632857D01*
X122999999Y-58632857D02*
X123285713Y-58490000D01*
X123285713Y-58490000D02*
X123428571Y-58347142D01*
X124857142Y-58632857D02*
X124857142Y-56632857D01*
X124857142Y-57204285D02*
X124999999Y-56918571D01*
X124999999Y-56918571D02*
X125142857Y-56775714D01*
X125142857Y-56775714D02*
X125428571Y-56632857D01*
X125428571Y-56632857D02*
X125714285Y-56632857D01*
X127142857Y-58632857D02*
X126857142Y-58490000D01*
X126857142Y-58490000D02*
X126714285Y-58347142D01*
X126714285Y-58347142D02*
X126571428Y-58061428D01*
X126571428Y-58061428D02*
X126571428Y-57204285D01*
X126571428Y-57204285D02*
X126714285Y-56918571D01*
X126714285Y-56918571D02*
X126857142Y-56775714D01*
X126857142Y-56775714D02*
X127142857Y-56632857D01*
X127142857Y-56632857D02*
X127571428Y-56632857D01*
X127571428Y-56632857D02*
X127857142Y-56775714D01*
X127857142Y-56775714D02*
X128000000Y-56918571D01*
X128000000Y-56918571D02*
X128142857Y-57204285D01*
X128142857Y-57204285D02*
X128142857Y-58061428D01*
X128142857Y-58061428D02*
X128000000Y-58347142D01*
X128000000Y-58347142D02*
X127857142Y-58490000D01*
X127857142Y-58490000D02*
X127571428Y-58632857D01*
X127571428Y-58632857D02*
X127142857Y-58632857D01*
X129428571Y-58632857D02*
X129428571Y-56632857D01*
X129428571Y-57204285D02*
X129571428Y-56918571D01*
X129571428Y-56918571D02*
X129714286Y-56775714D01*
X129714286Y-56775714D02*
X130000000Y-56632857D01*
X130000000Y-56632857D02*
X130285714Y-56632857D01*
X132571429Y-58632857D02*
X132571429Y-57061428D01*
X132571429Y-57061428D02*
X132428571Y-56775714D01*
X132428571Y-56775714D02*
X132142857Y-56632857D01*
X132142857Y-56632857D02*
X131571429Y-56632857D01*
X131571429Y-56632857D02*
X131285714Y-56775714D01*
X132571429Y-58490000D02*
X132285714Y-58632857D01*
X132285714Y-58632857D02*
X131571429Y-58632857D01*
X131571429Y-58632857D02*
X131285714Y-58490000D01*
X131285714Y-58490000D02*
X131142857Y-58204285D01*
X131142857Y-58204285D02*
X131142857Y-57918571D01*
X131142857Y-57918571D02*
X131285714Y-57632857D01*
X131285714Y-57632857D02*
X131571429Y-57490000D01*
X131571429Y-57490000D02*
X132285714Y-57490000D01*
X132285714Y-57490000D02*
X132571429Y-57347142D01*
X135285715Y-58490000D02*
X135000000Y-58632857D01*
X135000000Y-58632857D02*
X134428572Y-58632857D01*
X134428572Y-58632857D02*
X134142857Y-58490000D01*
X134142857Y-58490000D02*
X134000000Y-58347142D01*
X134000000Y-58347142D02*
X133857143Y-58061428D01*
X133857143Y-58061428D02*
X133857143Y-57204285D01*
X133857143Y-57204285D02*
X134000000Y-56918571D01*
X134000000Y-56918571D02*
X134142857Y-56775714D01*
X134142857Y-56775714D02*
X134428572Y-56632857D01*
X134428572Y-56632857D02*
X135000000Y-56632857D01*
X135000000Y-56632857D02*
X135285715Y-56775714D01*
X136571429Y-58632857D02*
X136571429Y-55632857D01*
X136857144Y-57490000D02*
X137714286Y-58632857D01*
X137714286Y-56632857D02*
X136571429Y-57775714D01*
X138714286Y-59775714D02*
X138857143Y-59632857D01*
X138857143Y-59632857D02*
X139142857Y-59204285D01*
X139142857Y-59204285D02*
X139285715Y-58918571D01*
X139285715Y-58918571D02*
X139428572Y-58490000D01*
X139428572Y-58490000D02*
X139571429Y-57775714D01*
X139571429Y-57775714D02*
X139571429Y-57204285D01*
X139571429Y-57204285D02*
X139428572Y-56490000D01*
X139428572Y-56490000D02*
X139285715Y-56061428D01*
X139285715Y-56061428D02*
X139142857Y-55775714D01*
X139142857Y-55775714D02*
X138857143Y-55347142D01*
X138857143Y-55347142D02*
X138714286Y-55204285D01*
%TO.C,SW4*%
X108916667Y-79415000D02*
X109059524Y-79462619D01*
X109059524Y-79462619D02*
X109297619Y-79462619D01*
X109297619Y-79462619D02*
X109392857Y-79415000D01*
X109392857Y-79415000D02*
X109440476Y-79367380D01*
X109440476Y-79367380D02*
X109488095Y-79272142D01*
X109488095Y-79272142D02*
X109488095Y-79176904D01*
X109488095Y-79176904D02*
X109440476Y-79081666D01*
X109440476Y-79081666D02*
X109392857Y-79034047D01*
X109392857Y-79034047D02*
X109297619Y-78986428D01*
X109297619Y-78986428D02*
X109107143Y-78938809D01*
X109107143Y-78938809D02*
X109011905Y-78891190D01*
X109011905Y-78891190D02*
X108964286Y-78843571D01*
X108964286Y-78843571D02*
X108916667Y-78748333D01*
X108916667Y-78748333D02*
X108916667Y-78653095D01*
X108916667Y-78653095D02*
X108964286Y-78557857D01*
X108964286Y-78557857D02*
X109011905Y-78510238D01*
X109011905Y-78510238D02*
X109107143Y-78462619D01*
X109107143Y-78462619D02*
X109345238Y-78462619D01*
X109345238Y-78462619D02*
X109488095Y-78510238D01*
X109821429Y-78462619D02*
X110059524Y-79462619D01*
X110059524Y-79462619D02*
X110250000Y-78748333D01*
X110250000Y-78748333D02*
X110440476Y-79462619D01*
X110440476Y-79462619D02*
X110678572Y-78462619D01*
X111488095Y-78795952D02*
X111488095Y-79462619D01*
X111250000Y-78415000D02*
X111011905Y-79129285D01*
X111011905Y-79129285D02*
X111630952Y-79129285D01*
%TO.C,SW10*%
X128440476Y-91415000D02*
X128583333Y-91462619D01*
X128583333Y-91462619D02*
X128821428Y-91462619D01*
X128821428Y-91462619D02*
X128916666Y-91415000D01*
X128916666Y-91415000D02*
X128964285Y-91367380D01*
X128964285Y-91367380D02*
X129011904Y-91272142D01*
X129011904Y-91272142D02*
X129011904Y-91176904D01*
X129011904Y-91176904D02*
X128964285Y-91081666D01*
X128964285Y-91081666D02*
X128916666Y-91034047D01*
X128916666Y-91034047D02*
X128821428Y-90986428D01*
X128821428Y-90986428D02*
X128630952Y-90938809D01*
X128630952Y-90938809D02*
X128535714Y-90891190D01*
X128535714Y-90891190D02*
X128488095Y-90843571D01*
X128488095Y-90843571D02*
X128440476Y-90748333D01*
X128440476Y-90748333D02*
X128440476Y-90653095D01*
X128440476Y-90653095D02*
X128488095Y-90557857D01*
X128488095Y-90557857D02*
X128535714Y-90510238D01*
X128535714Y-90510238D02*
X128630952Y-90462619D01*
X128630952Y-90462619D02*
X128869047Y-90462619D01*
X128869047Y-90462619D02*
X129011904Y-90510238D01*
X129345238Y-90462619D02*
X129583333Y-91462619D01*
X129583333Y-91462619D02*
X129773809Y-90748333D01*
X129773809Y-90748333D02*
X129964285Y-91462619D01*
X129964285Y-91462619D02*
X130202381Y-90462619D01*
X131107142Y-91462619D02*
X130535714Y-91462619D01*
X130821428Y-91462619D02*
X130821428Y-90462619D01*
X130821428Y-90462619D02*
X130726190Y-90605476D01*
X130726190Y-90605476D02*
X130630952Y-90700714D01*
X130630952Y-90700714D02*
X130535714Y-90748333D01*
X131726190Y-90462619D02*
X131821428Y-90462619D01*
X131821428Y-90462619D02*
X131916666Y-90510238D01*
X131916666Y-90510238D02*
X131964285Y-90557857D01*
X131964285Y-90557857D02*
X132011904Y-90653095D01*
X132011904Y-90653095D02*
X132059523Y-90843571D01*
X132059523Y-90843571D02*
X132059523Y-91081666D01*
X132059523Y-91081666D02*
X132011904Y-91272142D01*
X132011904Y-91272142D02*
X131964285Y-91367380D01*
X131964285Y-91367380D02*
X131916666Y-91415000D01*
X131916666Y-91415000D02*
X131821428Y-91462619D01*
X131821428Y-91462619D02*
X131726190Y-91462619D01*
X131726190Y-91462619D02*
X131630952Y-91415000D01*
X131630952Y-91415000D02*
X131583333Y-91367380D01*
X131583333Y-91367380D02*
X131535714Y-91272142D01*
X131535714Y-91272142D02*
X131488095Y-91081666D01*
X131488095Y-91081666D02*
X131488095Y-90843571D01*
X131488095Y-90843571D02*
X131535714Y-90653095D01*
X131535714Y-90653095D02*
X131583333Y-90557857D01*
X131583333Y-90557857D02*
X131630952Y-90510238D01*
X131630952Y-90510238D02*
X131726190Y-90462619D01*
%TO.C,RV3*%
X113822619Y-46885238D02*
X113346428Y-47218571D01*
X113822619Y-47456666D02*
X112822619Y-47456666D01*
X112822619Y-47456666D02*
X112822619Y-47075714D01*
X112822619Y-47075714D02*
X112870238Y-46980476D01*
X112870238Y-46980476D02*
X112917857Y-46932857D01*
X112917857Y-46932857D02*
X113013095Y-46885238D01*
X113013095Y-46885238D02*
X113155952Y-46885238D01*
X113155952Y-46885238D02*
X113251190Y-46932857D01*
X113251190Y-46932857D02*
X113298809Y-46980476D01*
X113298809Y-46980476D02*
X113346428Y-47075714D01*
X113346428Y-47075714D02*
X113346428Y-47456666D01*
X112822619Y-46599523D02*
X113822619Y-46266190D01*
X113822619Y-46266190D02*
X112822619Y-45932857D01*
X112822619Y-45694761D02*
X112822619Y-45075714D01*
X112822619Y-45075714D02*
X113203571Y-45409047D01*
X113203571Y-45409047D02*
X113203571Y-45266190D01*
X113203571Y-45266190D02*
X113251190Y-45170952D01*
X113251190Y-45170952D02*
X113298809Y-45123333D01*
X113298809Y-45123333D02*
X113394047Y-45075714D01*
X113394047Y-45075714D02*
X113632142Y-45075714D01*
X113632142Y-45075714D02*
X113727380Y-45123333D01*
X113727380Y-45123333D02*
X113775000Y-45170952D01*
X113775000Y-45170952D02*
X113822619Y-45266190D01*
X113822619Y-45266190D02*
X113822619Y-45551904D01*
X113822619Y-45551904D02*
X113775000Y-45647142D01*
X113775000Y-45647142D02*
X113727380Y-45694761D01*
%TO.C,J2*%
X93166666Y-116582619D02*
X93166666Y-117296904D01*
X93166666Y-117296904D02*
X93119047Y-117439761D01*
X93119047Y-117439761D02*
X93023809Y-117535000D01*
X93023809Y-117535000D02*
X92880952Y-117582619D01*
X92880952Y-117582619D02*
X92785714Y-117582619D01*
X93595238Y-116677857D02*
X93642857Y-116630238D01*
X93642857Y-116630238D02*
X93738095Y-116582619D01*
X93738095Y-116582619D02*
X93976190Y-116582619D01*
X93976190Y-116582619D02*
X94071428Y-116630238D01*
X94071428Y-116630238D02*
X94119047Y-116677857D01*
X94119047Y-116677857D02*
X94166666Y-116773095D01*
X94166666Y-116773095D02*
X94166666Y-116868333D01*
X94166666Y-116868333D02*
X94119047Y-117011190D01*
X94119047Y-117011190D02*
X93547619Y-117582619D01*
X93547619Y-117582619D02*
X94166666Y-117582619D01*
%TO.C,J13*%
X128690476Y-116582619D02*
X128690476Y-117296904D01*
X128690476Y-117296904D02*
X128642857Y-117439761D01*
X128642857Y-117439761D02*
X128547619Y-117535000D01*
X128547619Y-117535000D02*
X128404762Y-117582619D01*
X128404762Y-117582619D02*
X128309524Y-117582619D01*
X129690476Y-117582619D02*
X129119048Y-117582619D01*
X129404762Y-117582619D02*
X129404762Y-116582619D01*
X129404762Y-116582619D02*
X129309524Y-116725476D01*
X129309524Y-116725476D02*
X129214286Y-116820714D01*
X129214286Y-116820714D02*
X129119048Y-116868333D01*
X130023810Y-116582619D02*
X130642857Y-116582619D01*
X130642857Y-116582619D02*
X130309524Y-116963571D01*
X130309524Y-116963571D02*
X130452381Y-116963571D01*
X130452381Y-116963571D02*
X130547619Y-117011190D01*
X130547619Y-117011190D02*
X130595238Y-117058809D01*
X130595238Y-117058809D02*
X130642857Y-117154047D01*
X130642857Y-117154047D02*
X130642857Y-117392142D01*
X130642857Y-117392142D02*
X130595238Y-117487380D01*
X130595238Y-117487380D02*
X130547619Y-117535000D01*
X130547619Y-117535000D02*
X130452381Y-117582619D01*
X130452381Y-117582619D02*
X130166667Y-117582619D01*
X130166667Y-117582619D02*
X130071429Y-117535000D01*
X130071429Y-117535000D02*
X130023810Y-117487380D01*
%TO.C,RV8*%
X132822619Y-66885238D02*
X132346428Y-67218571D01*
X132822619Y-67456666D02*
X131822619Y-67456666D01*
X131822619Y-67456666D02*
X131822619Y-67075714D01*
X131822619Y-67075714D02*
X131870238Y-66980476D01*
X131870238Y-66980476D02*
X131917857Y-66932857D01*
X131917857Y-66932857D02*
X132013095Y-66885238D01*
X132013095Y-66885238D02*
X132155952Y-66885238D01*
X132155952Y-66885238D02*
X132251190Y-66932857D01*
X132251190Y-66932857D02*
X132298809Y-66980476D01*
X132298809Y-66980476D02*
X132346428Y-67075714D01*
X132346428Y-67075714D02*
X132346428Y-67456666D01*
X131822619Y-66599523D02*
X132822619Y-66266190D01*
X132822619Y-66266190D02*
X131822619Y-65932857D01*
X132251190Y-65456666D02*
X132203571Y-65551904D01*
X132203571Y-65551904D02*
X132155952Y-65599523D01*
X132155952Y-65599523D02*
X132060714Y-65647142D01*
X132060714Y-65647142D02*
X132013095Y-65647142D01*
X132013095Y-65647142D02*
X131917857Y-65599523D01*
X131917857Y-65599523D02*
X131870238Y-65551904D01*
X131870238Y-65551904D02*
X131822619Y-65456666D01*
X131822619Y-65456666D02*
X131822619Y-65266190D01*
X131822619Y-65266190D02*
X131870238Y-65170952D01*
X131870238Y-65170952D02*
X131917857Y-65123333D01*
X131917857Y-65123333D02*
X132013095Y-65075714D01*
X132013095Y-65075714D02*
X132060714Y-65075714D01*
X132060714Y-65075714D02*
X132155952Y-65123333D01*
X132155952Y-65123333D02*
X132203571Y-65170952D01*
X132203571Y-65170952D02*
X132251190Y-65266190D01*
X132251190Y-65266190D02*
X132251190Y-65456666D01*
X132251190Y-65456666D02*
X132298809Y-65551904D01*
X132298809Y-65551904D02*
X132346428Y-65599523D01*
X132346428Y-65599523D02*
X132441666Y-65647142D01*
X132441666Y-65647142D02*
X132632142Y-65647142D01*
X132632142Y-65647142D02*
X132727380Y-65599523D01*
X132727380Y-65599523D02*
X132775000Y-65551904D01*
X132775000Y-65551904D02*
X132822619Y-65456666D01*
X132822619Y-65456666D02*
X132822619Y-65266190D01*
X132822619Y-65266190D02*
X132775000Y-65170952D01*
X132775000Y-65170952D02*
X132727380Y-65123333D01*
X132727380Y-65123333D02*
X132632142Y-65075714D01*
X132632142Y-65075714D02*
X132441666Y-65075714D01*
X132441666Y-65075714D02*
X132346428Y-65123333D01*
X132346428Y-65123333D02*
X132298809Y-65170952D01*
X132298809Y-65170952D02*
X132251190Y-65266190D01*
%TO.C,J12*%
X116690476Y-116582619D02*
X116690476Y-117296904D01*
X116690476Y-117296904D02*
X116642857Y-117439761D01*
X116642857Y-117439761D02*
X116547619Y-117535000D01*
X116547619Y-117535000D02*
X116404762Y-117582619D01*
X116404762Y-117582619D02*
X116309524Y-117582619D01*
X117690476Y-117582619D02*
X117119048Y-117582619D01*
X117404762Y-117582619D02*
X117404762Y-116582619D01*
X117404762Y-116582619D02*
X117309524Y-116725476D01*
X117309524Y-116725476D02*
X117214286Y-116820714D01*
X117214286Y-116820714D02*
X117119048Y-116868333D01*
X118071429Y-116677857D02*
X118119048Y-116630238D01*
X118119048Y-116630238D02*
X118214286Y-116582619D01*
X118214286Y-116582619D02*
X118452381Y-116582619D01*
X118452381Y-116582619D02*
X118547619Y-116630238D01*
X118547619Y-116630238D02*
X118595238Y-116677857D01*
X118595238Y-116677857D02*
X118642857Y-116773095D01*
X118642857Y-116773095D02*
X118642857Y-116868333D01*
X118642857Y-116868333D02*
X118595238Y-117011190D01*
X118595238Y-117011190D02*
X118023810Y-117582619D01*
X118023810Y-117582619D02*
X118642857Y-117582619D01*
%TO.C,SW3*%
X98916667Y-79415000D02*
X99059524Y-79462619D01*
X99059524Y-79462619D02*
X99297619Y-79462619D01*
X99297619Y-79462619D02*
X99392857Y-79415000D01*
X99392857Y-79415000D02*
X99440476Y-79367380D01*
X99440476Y-79367380D02*
X99488095Y-79272142D01*
X99488095Y-79272142D02*
X99488095Y-79176904D01*
X99488095Y-79176904D02*
X99440476Y-79081666D01*
X99440476Y-79081666D02*
X99392857Y-79034047D01*
X99392857Y-79034047D02*
X99297619Y-78986428D01*
X99297619Y-78986428D02*
X99107143Y-78938809D01*
X99107143Y-78938809D02*
X99011905Y-78891190D01*
X99011905Y-78891190D02*
X98964286Y-78843571D01*
X98964286Y-78843571D02*
X98916667Y-78748333D01*
X98916667Y-78748333D02*
X98916667Y-78653095D01*
X98916667Y-78653095D02*
X98964286Y-78557857D01*
X98964286Y-78557857D02*
X99011905Y-78510238D01*
X99011905Y-78510238D02*
X99107143Y-78462619D01*
X99107143Y-78462619D02*
X99345238Y-78462619D01*
X99345238Y-78462619D02*
X99488095Y-78510238D01*
X99821429Y-78462619D02*
X100059524Y-79462619D01*
X100059524Y-79462619D02*
X100250000Y-78748333D01*
X100250000Y-78748333D02*
X100440476Y-79462619D01*
X100440476Y-79462619D02*
X100678572Y-78462619D01*
X100964286Y-78462619D02*
X101583333Y-78462619D01*
X101583333Y-78462619D02*
X101250000Y-78843571D01*
X101250000Y-78843571D02*
X101392857Y-78843571D01*
X101392857Y-78843571D02*
X101488095Y-78891190D01*
X101488095Y-78891190D02*
X101535714Y-78938809D01*
X101535714Y-78938809D02*
X101583333Y-79034047D01*
X101583333Y-79034047D02*
X101583333Y-79272142D01*
X101583333Y-79272142D02*
X101535714Y-79367380D01*
X101535714Y-79367380D02*
X101488095Y-79415000D01*
X101488095Y-79415000D02*
X101392857Y-79462619D01*
X101392857Y-79462619D02*
X101107143Y-79462619D01*
X101107143Y-79462619D02*
X101011905Y-79415000D01*
X101011905Y-79415000D02*
X100964286Y-79367380D01*
%TO.C,H1*%
X73238095Y-52262619D02*
X73238095Y-51262619D01*
X73238095Y-51738809D02*
X73809523Y-51738809D01*
X73809523Y-52262619D02*
X73809523Y-51262619D01*
X74809523Y-52262619D02*
X74238095Y-52262619D01*
X74523809Y-52262619D02*
X74523809Y-51262619D01*
X74523809Y-51262619D02*
X74428571Y-51405476D01*
X74428571Y-51405476D02*
X74333333Y-51500714D01*
X74333333Y-51500714D02*
X74238095Y-51548333D01*
%TO.C,J11*%
X140690476Y-132582619D02*
X140690476Y-133296904D01*
X140690476Y-133296904D02*
X140642857Y-133439761D01*
X140642857Y-133439761D02*
X140547619Y-133535000D01*
X140547619Y-133535000D02*
X140404762Y-133582619D01*
X140404762Y-133582619D02*
X140309524Y-133582619D01*
X141690476Y-133582619D02*
X141119048Y-133582619D01*
X141404762Y-133582619D02*
X141404762Y-132582619D01*
X141404762Y-132582619D02*
X141309524Y-132725476D01*
X141309524Y-132725476D02*
X141214286Y-132820714D01*
X141214286Y-132820714D02*
X141119048Y-132868333D01*
X142642857Y-133582619D02*
X142071429Y-133582619D01*
X142357143Y-133582619D02*
X142357143Y-132582619D01*
X142357143Y-132582619D02*
X142261905Y-132725476D01*
X142261905Y-132725476D02*
X142166667Y-132820714D01*
X142166667Y-132820714D02*
X142071429Y-132868333D01*
%TO.C,RV4*%
X132822619Y-46885238D02*
X132346428Y-47218571D01*
X132822619Y-47456666D02*
X131822619Y-47456666D01*
X131822619Y-47456666D02*
X131822619Y-47075714D01*
X131822619Y-47075714D02*
X131870238Y-46980476D01*
X131870238Y-46980476D02*
X131917857Y-46932857D01*
X131917857Y-46932857D02*
X132013095Y-46885238D01*
X132013095Y-46885238D02*
X132155952Y-46885238D01*
X132155952Y-46885238D02*
X132251190Y-46932857D01*
X132251190Y-46932857D02*
X132298809Y-46980476D01*
X132298809Y-46980476D02*
X132346428Y-47075714D01*
X132346428Y-47075714D02*
X132346428Y-47456666D01*
X131822619Y-46599523D02*
X132822619Y-46266190D01*
X132822619Y-46266190D02*
X131822619Y-45932857D01*
X132155952Y-45170952D02*
X132822619Y-45170952D01*
X131775000Y-45409047D02*
X132489285Y-45647142D01*
X132489285Y-45647142D02*
X132489285Y-45028095D01*
%TO.C,RV1*%
X75822619Y-46885238D02*
X75346428Y-47218571D01*
X75822619Y-47456666D02*
X74822619Y-47456666D01*
X74822619Y-47456666D02*
X74822619Y-47075714D01*
X74822619Y-47075714D02*
X74870238Y-46980476D01*
X74870238Y-46980476D02*
X74917857Y-46932857D01*
X74917857Y-46932857D02*
X75013095Y-46885238D01*
X75013095Y-46885238D02*
X75155952Y-46885238D01*
X75155952Y-46885238D02*
X75251190Y-46932857D01*
X75251190Y-46932857D02*
X75298809Y-46980476D01*
X75298809Y-46980476D02*
X75346428Y-47075714D01*
X75346428Y-47075714D02*
X75346428Y-47456666D01*
X74822619Y-46599523D02*
X75822619Y-46266190D01*
X75822619Y-46266190D02*
X74822619Y-45932857D01*
X75822619Y-45075714D02*
X75822619Y-45647142D01*
X75822619Y-45361428D02*
X74822619Y-45361428D01*
X74822619Y-45361428D02*
X74965476Y-45456666D01*
X74965476Y-45456666D02*
X75060714Y-45551904D01*
X75060714Y-45551904D02*
X75108333Y-45647142D01*
%TO.C,RV10*%
X170822619Y-47361428D02*
X170346428Y-47694761D01*
X170822619Y-47932856D02*
X169822619Y-47932856D01*
X169822619Y-47932856D02*
X169822619Y-47551904D01*
X169822619Y-47551904D02*
X169870238Y-47456666D01*
X169870238Y-47456666D02*
X169917857Y-47409047D01*
X169917857Y-47409047D02*
X170013095Y-47361428D01*
X170013095Y-47361428D02*
X170155952Y-47361428D01*
X170155952Y-47361428D02*
X170251190Y-47409047D01*
X170251190Y-47409047D02*
X170298809Y-47456666D01*
X170298809Y-47456666D02*
X170346428Y-47551904D01*
X170346428Y-47551904D02*
X170346428Y-47932856D01*
X169822619Y-47075713D02*
X170822619Y-46742380D01*
X170822619Y-46742380D02*
X169822619Y-46409047D01*
X170822619Y-45551904D02*
X170822619Y-46123332D01*
X170822619Y-45837618D02*
X169822619Y-45837618D01*
X169822619Y-45837618D02*
X169965476Y-45932856D01*
X169965476Y-45932856D02*
X170060714Y-46028094D01*
X170060714Y-46028094D02*
X170108333Y-46123332D01*
X169822619Y-44932856D02*
X169822619Y-44837618D01*
X169822619Y-44837618D02*
X169870238Y-44742380D01*
X169870238Y-44742380D02*
X169917857Y-44694761D01*
X169917857Y-44694761D02*
X170013095Y-44647142D01*
X170013095Y-44647142D02*
X170203571Y-44599523D01*
X170203571Y-44599523D02*
X170441666Y-44599523D01*
X170441666Y-44599523D02*
X170632142Y-44647142D01*
X170632142Y-44647142D02*
X170727380Y-44694761D01*
X170727380Y-44694761D02*
X170775000Y-44742380D01*
X170775000Y-44742380D02*
X170822619Y-44837618D01*
X170822619Y-44837618D02*
X170822619Y-44932856D01*
X170822619Y-44932856D02*
X170775000Y-45028094D01*
X170775000Y-45028094D02*
X170727380Y-45075713D01*
X170727380Y-45075713D02*
X170632142Y-45123332D01*
X170632142Y-45123332D02*
X170441666Y-45170951D01*
X170441666Y-45170951D02*
X170203571Y-45170951D01*
X170203571Y-45170951D02*
X170013095Y-45123332D01*
X170013095Y-45123332D02*
X169917857Y-45075713D01*
X169917857Y-45075713D02*
X169870238Y-45028094D01*
X169870238Y-45028094D02*
X169822619Y-44932856D01*
%TO.C,J4*%
X81166666Y-116582619D02*
X81166666Y-117296904D01*
X81166666Y-117296904D02*
X81119047Y-117439761D01*
X81119047Y-117439761D02*
X81023809Y-117535000D01*
X81023809Y-117535000D02*
X80880952Y-117582619D01*
X80880952Y-117582619D02*
X80785714Y-117582619D01*
X82071428Y-116915952D02*
X82071428Y-117582619D01*
X81833333Y-116535000D02*
X81595238Y-117249285D01*
X81595238Y-117249285D02*
X82214285Y-117249285D01*
%TO.C,J14*%
X116690476Y-132582619D02*
X116690476Y-133296904D01*
X116690476Y-133296904D02*
X116642857Y-133439761D01*
X116642857Y-133439761D02*
X116547619Y-133535000D01*
X116547619Y-133535000D02*
X116404762Y-133582619D01*
X116404762Y-133582619D02*
X116309524Y-133582619D01*
X117690476Y-133582619D02*
X117119048Y-133582619D01*
X117404762Y-133582619D02*
X117404762Y-132582619D01*
X117404762Y-132582619D02*
X117309524Y-132725476D01*
X117309524Y-132725476D02*
X117214286Y-132820714D01*
X117214286Y-132820714D02*
X117119048Y-132868333D01*
X118547619Y-132915952D02*
X118547619Y-133582619D01*
X118309524Y-132535000D02*
X118071429Y-133249285D01*
X118071429Y-133249285D02*
X118690476Y-133249285D01*
%TO.C,J15*%
X128690476Y-132582619D02*
X128690476Y-133296904D01*
X128690476Y-133296904D02*
X128642857Y-133439761D01*
X128642857Y-133439761D02*
X128547619Y-133535000D01*
X128547619Y-133535000D02*
X128404762Y-133582619D01*
X128404762Y-133582619D02*
X128309524Y-133582619D01*
X129690476Y-133582619D02*
X129119048Y-133582619D01*
X129404762Y-133582619D02*
X129404762Y-132582619D01*
X129404762Y-132582619D02*
X129309524Y-132725476D01*
X129309524Y-132725476D02*
X129214286Y-132820714D01*
X129214286Y-132820714D02*
X129119048Y-132868333D01*
X130595238Y-132582619D02*
X130119048Y-132582619D01*
X130119048Y-132582619D02*
X130071429Y-133058809D01*
X130071429Y-133058809D02*
X130119048Y-133011190D01*
X130119048Y-133011190D02*
X130214286Y-132963571D01*
X130214286Y-132963571D02*
X130452381Y-132963571D01*
X130452381Y-132963571D02*
X130547619Y-133011190D01*
X130547619Y-133011190D02*
X130595238Y-133058809D01*
X130595238Y-133058809D02*
X130642857Y-133154047D01*
X130642857Y-133154047D02*
X130642857Y-133392142D01*
X130642857Y-133392142D02*
X130595238Y-133487380D01*
X130595238Y-133487380D02*
X130547619Y-133535000D01*
X130547619Y-133535000D02*
X130452381Y-133582619D01*
X130452381Y-133582619D02*
X130214286Y-133582619D01*
X130214286Y-133582619D02*
X130119048Y-133535000D01*
X130119048Y-133535000D02*
X130071429Y-133487380D01*
%TO.C,SW5*%
X118916667Y-79415000D02*
X119059524Y-79462619D01*
X119059524Y-79462619D02*
X119297619Y-79462619D01*
X119297619Y-79462619D02*
X119392857Y-79415000D01*
X119392857Y-79415000D02*
X119440476Y-79367380D01*
X119440476Y-79367380D02*
X119488095Y-79272142D01*
X119488095Y-79272142D02*
X119488095Y-79176904D01*
X119488095Y-79176904D02*
X119440476Y-79081666D01*
X119440476Y-79081666D02*
X119392857Y-79034047D01*
X119392857Y-79034047D02*
X119297619Y-78986428D01*
X119297619Y-78986428D02*
X119107143Y-78938809D01*
X119107143Y-78938809D02*
X119011905Y-78891190D01*
X119011905Y-78891190D02*
X118964286Y-78843571D01*
X118964286Y-78843571D02*
X118916667Y-78748333D01*
X118916667Y-78748333D02*
X118916667Y-78653095D01*
X118916667Y-78653095D02*
X118964286Y-78557857D01*
X118964286Y-78557857D02*
X119011905Y-78510238D01*
X119011905Y-78510238D02*
X119107143Y-78462619D01*
X119107143Y-78462619D02*
X119345238Y-78462619D01*
X119345238Y-78462619D02*
X119488095Y-78510238D01*
X119821429Y-78462619D02*
X120059524Y-79462619D01*
X120059524Y-79462619D02*
X120250000Y-78748333D01*
X120250000Y-78748333D02*
X120440476Y-79462619D01*
X120440476Y-79462619D02*
X120678572Y-78462619D01*
X121535714Y-78462619D02*
X121059524Y-78462619D01*
X121059524Y-78462619D02*
X121011905Y-78938809D01*
X121011905Y-78938809D02*
X121059524Y-78891190D01*
X121059524Y-78891190D02*
X121154762Y-78843571D01*
X121154762Y-78843571D02*
X121392857Y-78843571D01*
X121392857Y-78843571D02*
X121488095Y-78891190D01*
X121488095Y-78891190D02*
X121535714Y-78938809D01*
X121535714Y-78938809D02*
X121583333Y-79034047D01*
X121583333Y-79034047D02*
X121583333Y-79272142D01*
X121583333Y-79272142D02*
X121535714Y-79367380D01*
X121535714Y-79367380D02*
X121488095Y-79415000D01*
X121488095Y-79415000D02*
X121392857Y-79462619D01*
X121392857Y-79462619D02*
X121154762Y-79462619D01*
X121154762Y-79462619D02*
X121059524Y-79415000D01*
X121059524Y-79415000D02*
X121011905Y-79367380D01*
%TO.C,SW8*%
X108916667Y-91415000D02*
X109059524Y-91462619D01*
X109059524Y-91462619D02*
X109297619Y-91462619D01*
X109297619Y-91462619D02*
X109392857Y-91415000D01*
X109392857Y-91415000D02*
X109440476Y-91367380D01*
X109440476Y-91367380D02*
X109488095Y-91272142D01*
X109488095Y-91272142D02*
X109488095Y-91176904D01*
X109488095Y-91176904D02*
X109440476Y-91081666D01*
X109440476Y-91081666D02*
X109392857Y-91034047D01*
X109392857Y-91034047D02*
X109297619Y-90986428D01*
X109297619Y-90986428D02*
X109107143Y-90938809D01*
X109107143Y-90938809D02*
X109011905Y-90891190D01*
X109011905Y-90891190D02*
X108964286Y-90843571D01*
X108964286Y-90843571D02*
X108916667Y-90748333D01*
X108916667Y-90748333D02*
X108916667Y-90653095D01*
X108916667Y-90653095D02*
X108964286Y-90557857D01*
X108964286Y-90557857D02*
X109011905Y-90510238D01*
X109011905Y-90510238D02*
X109107143Y-90462619D01*
X109107143Y-90462619D02*
X109345238Y-90462619D01*
X109345238Y-90462619D02*
X109488095Y-90510238D01*
X109821429Y-90462619D02*
X110059524Y-91462619D01*
X110059524Y-91462619D02*
X110250000Y-90748333D01*
X110250000Y-90748333D02*
X110440476Y-91462619D01*
X110440476Y-91462619D02*
X110678572Y-90462619D01*
X111202381Y-90891190D02*
X111107143Y-90843571D01*
X111107143Y-90843571D02*
X111059524Y-90795952D01*
X111059524Y-90795952D02*
X111011905Y-90700714D01*
X111011905Y-90700714D02*
X111011905Y-90653095D01*
X111011905Y-90653095D02*
X111059524Y-90557857D01*
X111059524Y-90557857D02*
X111107143Y-90510238D01*
X111107143Y-90510238D02*
X111202381Y-90462619D01*
X111202381Y-90462619D02*
X111392857Y-90462619D01*
X111392857Y-90462619D02*
X111488095Y-90510238D01*
X111488095Y-90510238D02*
X111535714Y-90557857D01*
X111535714Y-90557857D02*
X111583333Y-90653095D01*
X111583333Y-90653095D02*
X111583333Y-90700714D01*
X111583333Y-90700714D02*
X111535714Y-90795952D01*
X111535714Y-90795952D02*
X111488095Y-90843571D01*
X111488095Y-90843571D02*
X111392857Y-90891190D01*
X111392857Y-90891190D02*
X111202381Y-90891190D01*
X111202381Y-90891190D02*
X111107143Y-90938809D01*
X111107143Y-90938809D02*
X111059524Y-90986428D01*
X111059524Y-90986428D02*
X111011905Y-91081666D01*
X111011905Y-91081666D02*
X111011905Y-91272142D01*
X111011905Y-91272142D02*
X111059524Y-91367380D01*
X111059524Y-91367380D02*
X111107143Y-91415000D01*
X111107143Y-91415000D02*
X111202381Y-91462619D01*
X111202381Y-91462619D02*
X111392857Y-91462619D01*
X111392857Y-91462619D02*
X111488095Y-91415000D01*
X111488095Y-91415000D02*
X111535714Y-91367380D01*
X111535714Y-91367380D02*
X111583333Y-91272142D01*
X111583333Y-91272142D02*
X111583333Y-91081666D01*
X111583333Y-91081666D02*
X111535714Y-90986428D01*
X111535714Y-90986428D02*
X111488095Y-90938809D01*
X111488095Y-90938809D02*
X111392857Y-90891190D01*
%TO.C,RV7*%
X113822619Y-66885238D02*
X113346428Y-67218571D01*
X113822619Y-67456666D02*
X112822619Y-67456666D01*
X112822619Y-67456666D02*
X112822619Y-67075714D01*
X112822619Y-67075714D02*
X112870238Y-66980476D01*
X112870238Y-66980476D02*
X112917857Y-66932857D01*
X112917857Y-66932857D02*
X113013095Y-66885238D01*
X113013095Y-66885238D02*
X113155952Y-66885238D01*
X113155952Y-66885238D02*
X113251190Y-66932857D01*
X113251190Y-66932857D02*
X113298809Y-66980476D01*
X113298809Y-66980476D02*
X113346428Y-67075714D01*
X113346428Y-67075714D02*
X113346428Y-67456666D01*
X112822619Y-66599523D02*
X113822619Y-66266190D01*
X113822619Y-66266190D02*
X112822619Y-65932857D01*
X112822619Y-65694761D02*
X112822619Y-65028095D01*
X112822619Y-65028095D02*
X113822619Y-65456666D01*
%TO.C,U3*%
X143612619Y-93261904D02*
X144422142Y-93261904D01*
X144422142Y-93261904D02*
X144517380Y-93214285D01*
X144517380Y-93214285D02*
X144565000Y-93166666D01*
X144565000Y-93166666D02*
X144612619Y-93071428D01*
X144612619Y-93071428D02*
X144612619Y-92880952D01*
X144612619Y-92880952D02*
X144565000Y-92785714D01*
X144565000Y-92785714D02*
X144517380Y-92738095D01*
X144517380Y-92738095D02*
X144422142Y-92690476D01*
X144422142Y-92690476D02*
X143612619Y-92690476D01*
X143612619Y-92309523D02*
X143612619Y-91690476D01*
X143612619Y-91690476D02*
X143993571Y-92023809D01*
X143993571Y-92023809D02*
X143993571Y-91880952D01*
X143993571Y-91880952D02*
X144041190Y-91785714D01*
X144041190Y-91785714D02*
X144088809Y-91738095D01*
X144088809Y-91738095D02*
X144184047Y-91690476D01*
X144184047Y-91690476D02*
X144422142Y-91690476D01*
X144422142Y-91690476D02*
X144517380Y-91738095D01*
X144517380Y-91738095D02*
X144565000Y-91785714D01*
X144565000Y-91785714D02*
X144612619Y-91880952D01*
X144612619Y-91880952D02*
X144612619Y-92166666D01*
X144612619Y-92166666D02*
X144565000Y-92261904D01*
X144565000Y-92261904D02*
X144517380Y-92309523D01*
%TO.C,D3*%
X157531905Y-131602619D02*
X157531905Y-130602619D01*
X157531905Y-130602619D02*
X157770000Y-130602619D01*
X157770000Y-130602619D02*
X157912857Y-130650238D01*
X157912857Y-130650238D02*
X158008095Y-130745476D01*
X158008095Y-130745476D02*
X158055714Y-130840714D01*
X158055714Y-130840714D02*
X158103333Y-131031190D01*
X158103333Y-131031190D02*
X158103333Y-131174047D01*
X158103333Y-131174047D02*
X158055714Y-131364523D01*
X158055714Y-131364523D02*
X158008095Y-131459761D01*
X158008095Y-131459761D02*
X157912857Y-131555000D01*
X157912857Y-131555000D02*
X157770000Y-131602619D01*
X157770000Y-131602619D02*
X157531905Y-131602619D01*
X158436667Y-130602619D02*
X159055714Y-130602619D01*
X159055714Y-130602619D02*
X158722381Y-130983571D01*
X158722381Y-130983571D02*
X158865238Y-130983571D01*
X158865238Y-130983571D02*
X158960476Y-131031190D01*
X158960476Y-131031190D02*
X159008095Y-131078809D01*
X159008095Y-131078809D02*
X159055714Y-131174047D01*
X159055714Y-131174047D02*
X159055714Y-131412142D01*
X159055714Y-131412142D02*
X159008095Y-131507380D01*
X159008095Y-131507380D02*
X158960476Y-131555000D01*
X158960476Y-131555000D02*
X158865238Y-131602619D01*
X158865238Y-131602619D02*
X158579524Y-131602619D01*
X158579524Y-131602619D02*
X158484286Y-131555000D01*
X158484286Y-131555000D02*
X158436667Y-131507380D01*
%TO.C,RV11*%
X151822619Y-67361428D02*
X151346428Y-67694761D01*
X151822619Y-67932856D02*
X150822619Y-67932856D01*
X150822619Y-67932856D02*
X150822619Y-67551904D01*
X150822619Y-67551904D02*
X150870238Y-67456666D01*
X150870238Y-67456666D02*
X150917857Y-67409047D01*
X150917857Y-67409047D02*
X151013095Y-67361428D01*
X151013095Y-67361428D02*
X151155952Y-67361428D01*
X151155952Y-67361428D02*
X151251190Y-67409047D01*
X151251190Y-67409047D02*
X151298809Y-67456666D01*
X151298809Y-67456666D02*
X151346428Y-67551904D01*
X151346428Y-67551904D02*
X151346428Y-67932856D01*
X150822619Y-67075713D02*
X151822619Y-66742380D01*
X151822619Y-66742380D02*
X150822619Y-66409047D01*
X151822619Y-65551904D02*
X151822619Y-66123332D01*
X151822619Y-65837618D02*
X150822619Y-65837618D01*
X150822619Y-65837618D02*
X150965476Y-65932856D01*
X150965476Y-65932856D02*
X151060714Y-66028094D01*
X151060714Y-66028094D02*
X151108333Y-66123332D01*
X151822619Y-64599523D02*
X151822619Y-65170951D01*
X151822619Y-64885237D02*
X150822619Y-64885237D01*
X150822619Y-64885237D02*
X150965476Y-64980475D01*
X150965476Y-64980475D02*
X151060714Y-65075713D01*
X151060714Y-65075713D02*
X151108333Y-65170951D01*
%TO.C,RV9*%
X151822619Y-46885238D02*
X151346428Y-47218571D01*
X151822619Y-47456666D02*
X150822619Y-47456666D01*
X150822619Y-47456666D02*
X150822619Y-47075714D01*
X150822619Y-47075714D02*
X150870238Y-46980476D01*
X150870238Y-46980476D02*
X150917857Y-46932857D01*
X150917857Y-46932857D02*
X151013095Y-46885238D01*
X151013095Y-46885238D02*
X151155952Y-46885238D01*
X151155952Y-46885238D02*
X151251190Y-46932857D01*
X151251190Y-46932857D02*
X151298809Y-46980476D01*
X151298809Y-46980476D02*
X151346428Y-47075714D01*
X151346428Y-47075714D02*
X151346428Y-47456666D01*
X150822619Y-46599523D02*
X151822619Y-46266190D01*
X151822619Y-46266190D02*
X150822619Y-45932857D01*
X151822619Y-45551904D02*
X151822619Y-45361428D01*
X151822619Y-45361428D02*
X151775000Y-45266190D01*
X151775000Y-45266190D02*
X151727380Y-45218571D01*
X151727380Y-45218571D02*
X151584523Y-45123333D01*
X151584523Y-45123333D02*
X151394047Y-45075714D01*
X151394047Y-45075714D02*
X151013095Y-45075714D01*
X151013095Y-45075714D02*
X150917857Y-45123333D01*
X150917857Y-45123333D02*
X150870238Y-45170952D01*
X150870238Y-45170952D02*
X150822619Y-45266190D01*
X150822619Y-45266190D02*
X150822619Y-45456666D01*
X150822619Y-45456666D02*
X150870238Y-45551904D01*
X150870238Y-45551904D02*
X150917857Y-45599523D01*
X150917857Y-45599523D02*
X151013095Y-45647142D01*
X151013095Y-45647142D02*
X151251190Y-45647142D01*
X151251190Y-45647142D02*
X151346428Y-45599523D01*
X151346428Y-45599523D02*
X151394047Y-45551904D01*
X151394047Y-45551904D02*
X151441666Y-45456666D01*
X151441666Y-45456666D02*
X151441666Y-45266190D01*
X151441666Y-45266190D02*
X151394047Y-45170952D01*
X151394047Y-45170952D02*
X151346428Y-45123333D01*
X151346428Y-45123333D02*
X151251190Y-45075714D01*
%TO.C,J8*%
X93166666Y-132582619D02*
X93166666Y-133296904D01*
X93166666Y-133296904D02*
X93119047Y-133439761D01*
X93119047Y-133439761D02*
X93023809Y-133535000D01*
X93023809Y-133535000D02*
X92880952Y-133582619D01*
X92880952Y-133582619D02*
X92785714Y-133582619D01*
X93785714Y-133011190D02*
X93690476Y-132963571D01*
X93690476Y-132963571D02*
X93642857Y-132915952D01*
X93642857Y-132915952D02*
X93595238Y-132820714D01*
X93595238Y-132820714D02*
X93595238Y-132773095D01*
X93595238Y-132773095D02*
X93642857Y-132677857D01*
X93642857Y-132677857D02*
X93690476Y-132630238D01*
X93690476Y-132630238D02*
X93785714Y-132582619D01*
X93785714Y-132582619D02*
X93976190Y-132582619D01*
X93976190Y-132582619D02*
X94071428Y-132630238D01*
X94071428Y-132630238D02*
X94119047Y-132677857D01*
X94119047Y-132677857D02*
X94166666Y-132773095D01*
X94166666Y-132773095D02*
X94166666Y-132820714D01*
X94166666Y-132820714D02*
X94119047Y-132915952D01*
X94119047Y-132915952D02*
X94071428Y-132963571D01*
X94071428Y-132963571D02*
X93976190Y-133011190D01*
X93976190Y-133011190D02*
X93785714Y-133011190D01*
X93785714Y-133011190D02*
X93690476Y-133058809D01*
X93690476Y-133058809D02*
X93642857Y-133106428D01*
X93642857Y-133106428D02*
X93595238Y-133201666D01*
X93595238Y-133201666D02*
X93595238Y-133392142D01*
X93595238Y-133392142D02*
X93642857Y-133487380D01*
X93642857Y-133487380D02*
X93690476Y-133535000D01*
X93690476Y-133535000D02*
X93785714Y-133582619D01*
X93785714Y-133582619D02*
X93976190Y-133582619D01*
X93976190Y-133582619D02*
X94071428Y-133535000D01*
X94071428Y-133535000D02*
X94119047Y-133487380D01*
X94119047Y-133487380D02*
X94166666Y-133392142D01*
X94166666Y-133392142D02*
X94166666Y-133201666D01*
X94166666Y-133201666D02*
X94119047Y-133106428D01*
X94119047Y-133106428D02*
X94071428Y-133058809D01*
X94071428Y-133058809D02*
X93976190Y-133011190D01*
%TO.C,SW17*%
X163440476Y-103415000D02*
X163583333Y-103462619D01*
X163583333Y-103462619D02*
X163821428Y-103462619D01*
X163821428Y-103462619D02*
X163916666Y-103415000D01*
X163916666Y-103415000D02*
X163964285Y-103367380D01*
X163964285Y-103367380D02*
X164011904Y-103272142D01*
X164011904Y-103272142D02*
X164011904Y-103176904D01*
X164011904Y-103176904D02*
X163964285Y-103081666D01*
X163964285Y-103081666D02*
X163916666Y-103034047D01*
X163916666Y-103034047D02*
X163821428Y-102986428D01*
X163821428Y-102986428D02*
X163630952Y-102938809D01*
X163630952Y-102938809D02*
X163535714Y-102891190D01*
X163535714Y-102891190D02*
X163488095Y-102843571D01*
X163488095Y-102843571D02*
X163440476Y-102748333D01*
X163440476Y-102748333D02*
X163440476Y-102653095D01*
X163440476Y-102653095D02*
X163488095Y-102557857D01*
X163488095Y-102557857D02*
X163535714Y-102510238D01*
X163535714Y-102510238D02*
X163630952Y-102462619D01*
X163630952Y-102462619D02*
X163869047Y-102462619D01*
X163869047Y-102462619D02*
X164011904Y-102510238D01*
X164345238Y-102462619D02*
X164583333Y-103462619D01*
X164583333Y-103462619D02*
X164773809Y-102748333D01*
X164773809Y-102748333D02*
X164964285Y-103462619D01*
X164964285Y-103462619D02*
X165202381Y-102462619D01*
X166107142Y-103462619D02*
X165535714Y-103462619D01*
X165821428Y-103462619D02*
X165821428Y-102462619D01*
X165821428Y-102462619D02*
X165726190Y-102605476D01*
X165726190Y-102605476D02*
X165630952Y-102700714D01*
X165630952Y-102700714D02*
X165535714Y-102748333D01*
X166440476Y-102462619D02*
X167107142Y-102462619D01*
X167107142Y-102462619D02*
X166678571Y-103462619D01*
%TO.C,SW15*%
X143440476Y-103415000D02*
X143583333Y-103462619D01*
X143583333Y-103462619D02*
X143821428Y-103462619D01*
X143821428Y-103462619D02*
X143916666Y-103415000D01*
X143916666Y-103415000D02*
X143964285Y-103367380D01*
X143964285Y-103367380D02*
X144011904Y-103272142D01*
X144011904Y-103272142D02*
X144011904Y-103176904D01*
X144011904Y-103176904D02*
X143964285Y-103081666D01*
X143964285Y-103081666D02*
X143916666Y-103034047D01*
X143916666Y-103034047D02*
X143821428Y-102986428D01*
X143821428Y-102986428D02*
X143630952Y-102938809D01*
X143630952Y-102938809D02*
X143535714Y-102891190D01*
X143535714Y-102891190D02*
X143488095Y-102843571D01*
X143488095Y-102843571D02*
X143440476Y-102748333D01*
X143440476Y-102748333D02*
X143440476Y-102653095D01*
X143440476Y-102653095D02*
X143488095Y-102557857D01*
X143488095Y-102557857D02*
X143535714Y-102510238D01*
X143535714Y-102510238D02*
X143630952Y-102462619D01*
X143630952Y-102462619D02*
X143869047Y-102462619D01*
X143869047Y-102462619D02*
X144011904Y-102510238D01*
X144345238Y-102462619D02*
X144583333Y-103462619D01*
X144583333Y-103462619D02*
X144773809Y-102748333D01*
X144773809Y-102748333D02*
X144964285Y-103462619D01*
X144964285Y-103462619D02*
X145202381Y-102462619D01*
X146107142Y-103462619D02*
X145535714Y-103462619D01*
X145821428Y-103462619D02*
X145821428Y-102462619D01*
X145821428Y-102462619D02*
X145726190Y-102605476D01*
X145726190Y-102605476D02*
X145630952Y-102700714D01*
X145630952Y-102700714D02*
X145535714Y-102748333D01*
X147011904Y-102462619D02*
X146535714Y-102462619D01*
X146535714Y-102462619D02*
X146488095Y-102938809D01*
X146488095Y-102938809D02*
X146535714Y-102891190D01*
X146535714Y-102891190D02*
X146630952Y-102843571D01*
X146630952Y-102843571D02*
X146869047Y-102843571D01*
X146869047Y-102843571D02*
X146964285Y-102891190D01*
X146964285Y-102891190D02*
X147011904Y-102938809D01*
X147011904Y-102938809D02*
X147059523Y-103034047D01*
X147059523Y-103034047D02*
X147059523Y-103272142D01*
X147059523Y-103272142D02*
X147011904Y-103367380D01*
X147011904Y-103367380D02*
X146964285Y-103415000D01*
X146964285Y-103415000D02*
X146869047Y-103462619D01*
X146869047Y-103462619D02*
X146630952Y-103462619D01*
X146630952Y-103462619D02*
X146535714Y-103415000D01*
X146535714Y-103415000D02*
X146488095Y-103367380D01*
%TO.C,H2*%
X185238095Y-52262619D02*
X185238095Y-51262619D01*
X185238095Y-51738809D02*
X185809523Y-51738809D01*
X185809523Y-52262619D02*
X185809523Y-51262619D01*
X186238095Y-51357857D02*
X186285714Y-51310238D01*
X186285714Y-51310238D02*
X186380952Y-51262619D01*
X186380952Y-51262619D02*
X186619047Y-51262619D01*
X186619047Y-51262619D02*
X186714285Y-51310238D01*
X186714285Y-51310238D02*
X186761904Y-51357857D01*
X186761904Y-51357857D02*
X186809523Y-51453095D01*
X186809523Y-51453095D02*
X186809523Y-51548333D01*
X186809523Y-51548333D02*
X186761904Y-51691190D01*
X186761904Y-51691190D02*
X186190476Y-52262619D01*
X186190476Y-52262619D02*
X186809523Y-52262619D01*
%TO.C,SW9*%
X118916667Y-91415000D02*
X119059524Y-91462619D01*
X119059524Y-91462619D02*
X119297619Y-91462619D01*
X119297619Y-91462619D02*
X119392857Y-91415000D01*
X119392857Y-91415000D02*
X119440476Y-91367380D01*
X119440476Y-91367380D02*
X119488095Y-91272142D01*
X119488095Y-91272142D02*
X119488095Y-91176904D01*
X119488095Y-91176904D02*
X119440476Y-91081666D01*
X119440476Y-91081666D02*
X119392857Y-91034047D01*
X119392857Y-91034047D02*
X119297619Y-90986428D01*
X119297619Y-90986428D02*
X119107143Y-90938809D01*
X119107143Y-90938809D02*
X119011905Y-90891190D01*
X119011905Y-90891190D02*
X118964286Y-90843571D01*
X118964286Y-90843571D02*
X118916667Y-90748333D01*
X118916667Y-90748333D02*
X118916667Y-90653095D01*
X118916667Y-90653095D02*
X118964286Y-90557857D01*
X118964286Y-90557857D02*
X119011905Y-90510238D01*
X119011905Y-90510238D02*
X119107143Y-90462619D01*
X119107143Y-90462619D02*
X119345238Y-90462619D01*
X119345238Y-90462619D02*
X119488095Y-90510238D01*
X119821429Y-90462619D02*
X120059524Y-91462619D01*
X120059524Y-91462619D02*
X120250000Y-90748333D01*
X120250000Y-90748333D02*
X120440476Y-91462619D01*
X120440476Y-91462619D02*
X120678572Y-90462619D01*
X121107143Y-91462619D02*
X121297619Y-91462619D01*
X121297619Y-91462619D02*
X121392857Y-91415000D01*
X121392857Y-91415000D02*
X121440476Y-91367380D01*
X121440476Y-91367380D02*
X121535714Y-91224523D01*
X121535714Y-91224523D02*
X121583333Y-91034047D01*
X121583333Y-91034047D02*
X121583333Y-90653095D01*
X121583333Y-90653095D02*
X121535714Y-90557857D01*
X121535714Y-90557857D02*
X121488095Y-90510238D01*
X121488095Y-90510238D02*
X121392857Y-90462619D01*
X121392857Y-90462619D02*
X121202381Y-90462619D01*
X121202381Y-90462619D02*
X121107143Y-90510238D01*
X121107143Y-90510238D02*
X121059524Y-90557857D01*
X121059524Y-90557857D02*
X121011905Y-90653095D01*
X121011905Y-90653095D02*
X121011905Y-90891190D01*
X121011905Y-90891190D02*
X121059524Y-90986428D01*
X121059524Y-90986428D02*
X121107143Y-91034047D01*
X121107143Y-91034047D02*
X121202381Y-91081666D01*
X121202381Y-91081666D02*
X121392857Y-91081666D01*
X121392857Y-91081666D02*
X121488095Y-91034047D01*
X121488095Y-91034047D02*
X121535714Y-90986428D01*
X121535714Y-90986428D02*
X121583333Y-90891190D01*
%TO.C,D2*%
X157531905Y-126052619D02*
X157531905Y-125052619D01*
X157531905Y-125052619D02*
X157770000Y-125052619D01*
X157770000Y-125052619D02*
X157912857Y-125100238D01*
X157912857Y-125100238D02*
X158008095Y-125195476D01*
X158008095Y-125195476D02*
X158055714Y-125290714D01*
X158055714Y-125290714D02*
X158103333Y-125481190D01*
X158103333Y-125481190D02*
X158103333Y-125624047D01*
X158103333Y-125624047D02*
X158055714Y-125814523D01*
X158055714Y-125814523D02*
X158008095Y-125909761D01*
X158008095Y-125909761D02*
X157912857Y-126005000D01*
X157912857Y-126005000D02*
X157770000Y-126052619D01*
X157770000Y-126052619D02*
X157531905Y-126052619D01*
X158484286Y-125147857D02*
X158531905Y-125100238D01*
X158531905Y-125100238D02*
X158627143Y-125052619D01*
X158627143Y-125052619D02*
X158865238Y-125052619D01*
X158865238Y-125052619D02*
X158960476Y-125100238D01*
X158960476Y-125100238D02*
X159008095Y-125147857D01*
X159008095Y-125147857D02*
X159055714Y-125243095D01*
X159055714Y-125243095D02*
X159055714Y-125338333D01*
X159055714Y-125338333D02*
X159008095Y-125481190D01*
X159008095Y-125481190D02*
X158436667Y-126052619D01*
X158436667Y-126052619D02*
X159055714Y-126052619D01*
%TO.C,D1*%
X157531905Y-120502619D02*
X157531905Y-119502619D01*
X157531905Y-119502619D02*
X157770000Y-119502619D01*
X157770000Y-119502619D02*
X157912857Y-119550238D01*
X157912857Y-119550238D02*
X158008095Y-119645476D01*
X158008095Y-119645476D02*
X158055714Y-119740714D01*
X158055714Y-119740714D02*
X158103333Y-119931190D01*
X158103333Y-119931190D02*
X158103333Y-120074047D01*
X158103333Y-120074047D02*
X158055714Y-120264523D01*
X158055714Y-120264523D02*
X158008095Y-120359761D01*
X158008095Y-120359761D02*
X157912857Y-120455000D01*
X157912857Y-120455000D02*
X157770000Y-120502619D01*
X157770000Y-120502619D02*
X157531905Y-120502619D01*
X159055714Y-120502619D02*
X158484286Y-120502619D01*
X158770000Y-120502619D02*
X158770000Y-119502619D01*
X158770000Y-119502619D02*
X158674762Y-119645476D01*
X158674762Y-119645476D02*
X158579524Y-119740714D01*
X158579524Y-119740714D02*
X158484286Y-119788333D01*
%TO.C,SW12*%
X108440476Y-103415000D02*
X108583333Y-103462619D01*
X108583333Y-103462619D02*
X108821428Y-103462619D01*
X108821428Y-103462619D02*
X108916666Y-103415000D01*
X108916666Y-103415000D02*
X108964285Y-103367380D01*
X108964285Y-103367380D02*
X109011904Y-103272142D01*
X109011904Y-103272142D02*
X109011904Y-103176904D01*
X109011904Y-103176904D02*
X108964285Y-103081666D01*
X108964285Y-103081666D02*
X108916666Y-103034047D01*
X108916666Y-103034047D02*
X108821428Y-102986428D01*
X108821428Y-102986428D02*
X108630952Y-102938809D01*
X108630952Y-102938809D02*
X108535714Y-102891190D01*
X108535714Y-102891190D02*
X108488095Y-102843571D01*
X108488095Y-102843571D02*
X108440476Y-102748333D01*
X108440476Y-102748333D02*
X108440476Y-102653095D01*
X108440476Y-102653095D02*
X108488095Y-102557857D01*
X108488095Y-102557857D02*
X108535714Y-102510238D01*
X108535714Y-102510238D02*
X108630952Y-102462619D01*
X108630952Y-102462619D02*
X108869047Y-102462619D01*
X108869047Y-102462619D02*
X109011904Y-102510238D01*
X109345238Y-102462619D02*
X109583333Y-103462619D01*
X109583333Y-103462619D02*
X109773809Y-102748333D01*
X109773809Y-102748333D02*
X109964285Y-103462619D01*
X109964285Y-103462619D02*
X110202381Y-102462619D01*
X111107142Y-103462619D02*
X110535714Y-103462619D01*
X110821428Y-103462619D02*
X110821428Y-102462619D01*
X110821428Y-102462619D02*
X110726190Y-102605476D01*
X110726190Y-102605476D02*
X110630952Y-102700714D01*
X110630952Y-102700714D02*
X110535714Y-102748333D01*
X111488095Y-102557857D02*
X111535714Y-102510238D01*
X111535714Y-102510238D02*
X111630952Y-102462619D01*
X111630952Y-102462619D02*
X111869047Y-102462619D01*
X111869047Y-102462619D02*
X111964285Y-102510238D01*
X111964285Y-102510238D02*
X112011904Y-102557857D01*
X112011904Y-102557857D02*
X112059523Y-102653095D01*
X112059523Y-102653095D02*
X112059523Y-102748333D01*
X112059523Y-102748333D02*
X112011904Y-102891190D01*
X112011904Y-102891190D02*
X111440476Y-103462619D01*
X111440476Y-103462619D02*
X112059523Y-103462619D01*
%TO.C,J5*%
X141166666Y-116582619D02*
X141166666Y-117296904D01*
X141166666Y-117296904D02*
X141119047Y-117439761D01*
X141119047Y-117439761D02*
X141023809Y-117535000D01*
X141023809Y-117535000D02*
X140880952Y-117582619D01*
X140880952Y-117582619D02*
X140785714Y-117582619D01*
X142119047Y-116582619D02*
X141642857Y-116582619D01*
X141642857Y-116582619D02*
X141595238Y-117058809D01*
X141595238Y-117058809D02*
X141642857Y-117011190D01*
X141642857Y-117011190D02*
X141738095Y-116963571D01*
X141738095Y-116963571D02*
X141976190Y-116963571D01*
X141976190Y-116963571D02*
X142071428Y-117011190D01*
X142071428Y-117011190D02*
X142119047Y-117058809D01*
X142119047Y-117058809D02*
X142166666Y-117154047D01*
X142166666Y-117154047D02*
X142166666Y-117392142D01*
X142166666Y-117392142D02*
X142119047Y-117487380D01*
X142119047Y-117487380D02*
X142071428Y-117535000D01*
X142071428Y-117535000D02*
X141976190Y-117582619D01*
X141976190Y-117582619D02*
X141738095Y-117582619D01*
X141738095Y-117582619D02*
X141642857Y-117535000D01*
X141642857Y-117535000D02*
X141595238Y-117487380D01*
%TO.C,SW14*%
X128440476Y-103415000D02*
X128583333Y-103462619D01*
X128583333Y-103462619D02*
X128821428Y-103462619D01*
X128821428Y-103462619D02*
X128916666Y-103415000D01*
X128916666Y-103415000D02*
X128964285Y-103367380D01*
X128964285Y-103367380D02*
X129011904Y-103272142D01*
X129011904Y-103272142D02*
X129011904Y-103176904D01*
X129011904Y-103176904D02*
X128964285Y-103081666D01*
X128964285Y-103081666D02*
X128916666Y-103034047D01*
X128916666Y-103034047D02*
X128821428Y-102986428D01*
X128821428Y-102986428D02*
X128630952Y-102938809D01*
X128630952Y-102938809D02*
X128535714Y-102891190D01*
X128535714Y-102891190D02*
X128488095Y-102843571D01*
X128488095Y-102843571D02*
X128440476Y-102748333D01*
X128440476Y-102748333D02*
X128440476Y-102653095D01*
X128440476Y-102653095D02*
X128488095Y-102557857D01*
X128488095Y-102557857D02*
X128535714Y-102510238D01*
X128535714Y-102510238D02*
X128630952Y-102462619D01*
X128630952Y-102462619D02*
X128869047Y-102462619D01*
X128869047Y-102462619D02*
X129011904Y-102510238D01*
X129345238Y-102462619D02*
X129583333Y-103462619D01*
X129583333Y-103462619D02*
X129773809Y-102748333D01*
X129773809Y-102748333D02*
X129964285Y-103462619D01*
X129964285Y-103462619D02*
X130202381Y-102462619D01*
X131107142Y-103462619D02*
X130535714Y-103462619D01*
X130821428Y-103462619D02*
X130821428Y-102462619D01*
X130821428Y-102462619D02*
X130726190Y-102605476D01*
X130726190Y-102605476D02*
X130630952Y-102700714D01*
X130630952Y-102700714D02*
X130535714Y-102748333D01*
X131964285Y-102795952D02*
X131964285Y-103462619D01*
X131726190Y-102415000D02*
X131488095Y-103129285D01*
X131488095Y-103129285D02*
X132107142Y-103129285D01*
%TO.C,H3*%
X73238095Y-124262619D02*
X73238095Y-123262619D01*
X73238095Y-123738809D02*
X73809523Y-123738809D01*
X73809523Y-124262619D02*
X73809523Y-123262619D01*
X74190476Y-123262619D02*
X74809523Y-123262619D01*
X74809523Y-123262619D02*
X74476190Y-123643571D01*
X74476190Y-123643571D02*
X74619047Y-123643571D01*
X74619047Y-123643571D02*
X74714285Y-123691190D01*
X74714285Y-123691190D02*
X74761904Y-123738809D01*
X74761904Y-123738809D02*
X74809523Y-123834047D01*
X74809523Y-123834047D02*
X74809523Y-124072142D01*
X74809523Y-124072142D02*
X74761904Y-124167380D01*
X74761904Y-124167380D02*
X74714285Y-124215000D01*
X74714285Y-124215000D02*
X74619047Y-124262619D01*
X74619047Y-124262619D02*
X74333333Y-124262619D01*
X74333333Y-124262619D02*
X74238095Y-124215000D01*
X74238095Y-124215000D02*
X74190476Y-124167380D01*
%TO.C,D4*%
X157531905Y-137152619D02*
X157531905Y-136152619D01*
X157531905Y-136152619D02*
X157770000Y-136152619D01*
X157770000Y-136152619D02*
X157912857Y-136200238D01*
X157912857Y-136200238D02*
X158008095Y-136295476D01*
X158008095Y-136295476D02*
X158055714Y-136390714D01*
X158055714Y-136390714D02*
X158103333Y-136581190D01*
X158103333Y-136581190D02*
X158103333Y-136724047D01*
X158103333Y-136724047D02*
X158055714Y-136914523D01*
X158055714Y-136914523D02*
X158008095Y-137009761D01*
X158008095Y-137009761D02*
X157912857Y-137105000D01*
X157912857Y-137105000D02*
X157770000Y-137152619D01*
X157770000Y-137152619D02*
X157531905Y-137152619D01*
X158960476Y-136485952D02*
X158960476Y-137152619D01*
X158722381Y-136105000D02*
X158484286Y-136819285D01*
X158484286Y-136819285D02*
X159103333Y-136819285D01*
%TO.C,SW6*%
X128916667Y-79415000D02*
X129059524Y-79462619D01*
X129059524Y-79462619D02*
X129297619Y-79462619D01*
X129297619Y-79462619D02*
X129392857Y-79415000D01*
X129392857Y-79415000D02*
X129440476Y-79367380D01*
X129440476Y-79367380D02*
X129488095Y-79272142D01*
X129488095Y-79272142D02*
X129488095Y-79176904D01*
X129488095Y-79176904D02*
X129440476Y-79081666D01*
X129440476Y-79081666D02*
X129392857Y-79034047D01*
X129392857Y-79034047D02*
X129297619Y-78986428D01*
X129297619Y-78986428D02*
X129107143Y-78938809D01*
X129107143Y-78938809D02*
X129011905Y-78891190D01*
X129011905Y-78891190D02*
X128964286Y-78843571D01*
X128964286Y-78843571D02*
X128916667Y-78748333D01*
X128916667Y-78748333D02*
X128916667Y-78653095D01*
X128916667Y-78653095D02*
X128964286Y-78557857D01*
X128964286Y-78557857D02*
X129011905Y-78510238D01*
X129011905Y-78510238D02*
X129107143Y-78462619D01*
X129107143Y-78462619D02*
X129345238Y-78462619D01*
X129345238Y-78462619D02*
X129488095Y-78510238D01*
X129821429Y-78462619D02*
X130059524Y-79462619D01*
X130059524Y-79462619D02*
X130250000Y-78748333D01*
X130250000Y-78748333D02*
X130440476Y-79462619D01*
X130440476Y-79462619D02*
X130678572Y-78462619D01*
X131488095Y-78462619D02*
X131297619Y-78462619D01*
X131297619Y-78462619D02*
X131202381Y-78510238D01*
X131202381Y-78510238D02*
X131154762Y-78557857D01*
X131154762Y-78557857D02*
X131059524Y-78700714D01*
X131059524Y-78700714D02*
X131011905Y-78891190D01*
X131011905Y-78891190D02*
X131011905Y-79272142D01*
X131011905Y-79272142D02*
X131059524Y-79367380D01*
X131059524Y-79367380D02*
X131107143Y-79415000D01*
X131107143Y-79415000D02*
X131202381Y-79462619D01*
X131202381Y-79462619D02*
X131392857Y-79462619D01*
X131392857Y-79462619D02*
X131488095Y-79415000D01*
X131488095Y-79415000D02*
X131535714Y-79367380D01*
X131535714Y-79367380D02*
X131583333Y-79272142D01*
X131583333Y-79272142D02*
X131583333Y-79034047D01*
X131583333Y-79034047D02*
X131535714Y-78938809D01*
X131535714Y-78938809D02*
X131488095Y-78891190D01*
X131488095Y-78891190D02*
X131392857Y-78843571D01*
X131392857Y-78843571D02*
X131202381Y-78843571D01*
X131202381Y-78843571D02*
X131107143Y-78891190D01*
X131107143Y-78891190D02*
X131059524Y-78938809D01*
X131059524Y-78938809D02*
X131011905Y-79034047D01*
%TO.C,RV12*%
X170822619Y-67361428D02*
X170346428Y-67694761D01*
X170822619Y-67932856D02*
X169822619Y-67932856D01*
X169822619Y-67932856D02*
X169822619Y-67551904D01*
X169822619Y-67551904D02*
X169870238Y-67456666D01*
X169870238Y-67456666D02*
X169917857Y-67409047D01*
X169917857Y-67409047D02*
X170013095Y-67361428D01*
X170013095Y-67361428D02*
X170155952Y-67361428D01*
X170155952Y-67361428D02*
X170251190Y-67409047D01*
X170251190Y-67409047D02*
X170298809Y-67456666D01*
X170298809Y-67456666D02*
X170346428Y-67551904D01*
X170346428Y-67551904D02*
X170346428Y-67932856D01*
X169822619Y-67075713D02*
X170822619Y-66742380D01*
X170822619Y-66742380D02*
X169822619Y-66409047D01*
X170822619Y-65551904D02*
X170822619Y-66123332D01*
X170822619Y-65837618D02*
X169822619Y-65837618D01*
X169822619Y-65837618D02*
X169965476Y-65932856D01*
X169965476Y-65932856D02*
X170060714Y-66028094D01*
X170060714Y-66028094D02*
X170108333Y-66123332D01*
X169917857Y-65170951D02*
X169870238Y-65123332D01*
X169870238Y-65123332D02*
X169822619Y-65028094D01*
X169822619Y-65028094D02*
X169822619Y-64789999D01*
X169822619Y-64789999D02*
X169870238Y-64694761D01*
X169870238Y-64694761D02*
X169917857Y-64647142D01*
X169917857Y-64647142D02*
X170013095Y-64599523D01*
X170013095Y-64599523D02*
X170108333Y-64599523D01*
X170108333Y-64599523D02*
X170251190Y-64647142D01*
X170251190Y-64647142D02*
X170822619Y-65218570D01*
X170822619Y-65218570D02*
X170822619Y-64599523D01*
%TO.C,H4*%
X185238095Y-124262619D02*
X185238095Y-123262619D01*
X185238095Y-123738809D02*
X185809523Y-123738809D01*
X185809523Y-124262619D02*
X185809523Y-123262619D01*
X186714285Y-123595952D02*
X186714285Y-124262619D01*
X186476190Y-123215000D02*
X186238095Y-123929285D01*
X186238095Y-123929285D02*
X186857142Y-123929285D01*
%TO.C,J9*%
X105166666Y-132582619D02*
X105166666Y-133296904D01*
X105166666Y-133296904D02*
X105119047Y-133439761D01*
X105119047Y-133439761D02*
X105023809Y-133535000D01*
X105023809Y-133535000D02*
X104880952Y-133582619D01*
X104880952Y-133582619D02*
X104785714Y-133582619D01*
X105690476Y-133582619D02*
X105880952Y-133582619D01*
X105880952Y-133582619D02*
X105976190Y-133535000D01*
X105976190Y-133535000D02*
X106023809Y-133487380D01*
X106023809Y-133487380D02*
X106119047Y-133344523D01*
X106119047Y-133344523D02*
X106166666Y-133154047D01*
X106166666Y-133154047D02*
X106166666Y-132773095D01*
X106166666Y-132773095D02*
X106119047Y-132677857D01*
X106119047Y-132677857D02*
X106071428Y-132630238D01*
X106071428Y-132630238D02*
X105976190Y-132582619D01*
X105976190Y-132582619D02*
X105785714Y-132582619D01*
X105785714Y-132582619D02*
X105690476Y-132630238D01*
X105690476Y-132630238D02*
X105642857Y-132677857D01*
X105642857Y-132677857D02*
X105595238Y-132773095D01*
X105595238Y-132773095D02*
X105595238Y-133011190D01*
X105595238Y-133011190D02*
X105642857Y-133106428D01*
X105642857Y-133106428D02*
X105690476Y-133154047D01*
X105690476Y-133154047D02*
X105785714Y-133201666D01*
X105785714Y-133201666D02*
X105976190Y-133201666D01*
X105976190Y-133201666D02*
X106071428Y-133154047D01*
X106071428Y-133154047D02*
X106119047Y-133106428D01*
X106119047Y-133106428D02*
X106166666Y-133011190D01*
%TO.C,RV6*%
X94822619Y-66885238D02*
X94346428Y-67218571D01*
X94822619Y-67456666D02*
X93822619Y-67456666D01*
X93822619Y-67456666D02*
X93822619Y-67075714D01*
X93822619Y-67075714D02*
X93870238Y-66980476D01*
X93870238Y-66980476D02*
X93917857Y-66932857D01*
X93917857Y-66932857D02*
X94013095Y-66885238D01*
X94013095Y-66885238D02*
X94155952Y-66885238D01*
X94155952Y-66885238D02*
X94251190Y-66932857D01*
X94251190Y-66932857D02*
X94298809Y-66980476D01*
X94298809Y-66980476D02*
X94346428Y-67075714D01*
X94346428Y-67075714D02*
X94346428Y-67456666D01*
X93822619Y-66599523D02*
X94822619Y-66266190D01*
X94822619Y-66266190D02*
X93822619Y-65932857D01*
X93822619Y-65170952D02*
X93822619Y-65361428D01*
X93822619Y-65361428D02*
X93870238Y-65456666D01*
X93870238Y-65456666D02*
X93917857Y-65504285D01*
X93917857Y-65504285D02*
X94060714Y-65599523D01*
X94060714Y-65599523D02*
X94251190Y-65647142D01*
X94251190Y-65647142D02*
X94632142Y-65647142D01*
X94632142Y-65647142D02*
X94727380Y-65599523D01*
X94727380Y-65599523D02*
X94775000Y-65551904D01*
X94775000Y-65551904D02*
X94822619Y-65456666D01*
X94822619Y-65456666D02*
X94822619Y-65266190D01*
X94822619Y-65266190D02*
X94775000Y-65170952D01*
X94775000Y-65170952D02*
X94727380Y-65123333D01*
X94727380Y-65123333D02*
X94632142Y-65075714D01*
X94632142Y-65075714D02*
X94394047Y-65075714D01*
X94394047Y-65075714D02*
X94298809Y-65123333D01*
X94298809Y-65123333D02*
X94251190Y-65170952D01*
X94251190Y-65170952D02*
X94203571Y-65266190D01*
X94203571Y-65266190D02*
X94203571Y-65456666D01*
X94203571Y-65456666D02*
X94251190Y-65551904D01*
X94251190Y-65551904D02*
X94298809Y-65599523D01*
X94298809Y-65599523D02*
X94394047Y-65647142D01*
%TO.C,SW1*%
X84746667Y-80755000D02*
X84889524Y-80802619D01*
X84889524Y-80802619D02*
X85127619Y-80802619D01*
X85127619Y-80802619D02*
X85222857Y-80755000D01*
X85222857Y-80755000D02*
X85270476Y-80707380D01*
X85270476Y-80707380D02*
X85318095Y-80612142D01*
X85318095Y-80612142D02*
X85318095Y-80516904D01*
X85318095Y-80516904D02*
X85270476Y-80421666D01*
X85270476Y-80421666D02*
X85222857Y-80374047D01*
X85222857Y-80374047D02*
X85127619Y-80326428D01*
X85127619Y-80326428D02*
X84937143Y-80278809D01*
X84937143Y-80278809D02*
X84841905Y-80231190D01*
X84841905Y-80231190D02*
X84794286Y-80183571D01*
X84794286Y-80183571D02*
X84746667Y-80088333D01*
X84746667Y-80088333D02*
X84746667Y-79993095D01*
X84746667Y-79993095D02*
X84794286Y-79897857D01*
X84794286Y-79897857D02*
X84841905Y-79850238D01*
X84841905Y-79850238D02*
X84937143Y-79802619D01*
X84937143Y-79802619D02*
X85175238Y-79802619D01*
X85175238Y-79802619D02*
X85318095Y-79850238D01*
X85651429Y-79802619D02*
X85889524Y-80802619D01*
X85889524Y-80802619D02*
X86080000Y-80088333D01*
X86080000Y-80088333D02*
X86270476Y-80802619D01*
X86270476Y-80802619D02*
X86508572Y-79802619D01*
X87413333Y-80802619D02*
X86841905Y-80802619D01*
X87127619Y-80802619D02*
X87127619Y-79802619D01*
X87127619Y-79802619D02*
X87032381Y-79945476D01*
X87032381Y-79945476D02*
X86937143Y-80040714D01*
X86937143Y-80040714D02*
X86841905Y-80088333D01*
%TO.C,SW11*%
X98440476Y-103415000D02*
X98583333Y-103462619D01*
X98583333Y-103462619D02*
X98821428Y-103462619D01*
X98821428Y-103462619D02*
X98916666Y-103415000D01*
X98916666Y-103415000D02*
X98964285Y-103367380D01*
X98964285Y-103367380D02*
X99011904Y-103272142D01*
X99011904Y-103272142D02*
X99011904Y-103176904D01*
X99011904Y-103176904D02*
X98964285Y-103081666D01*
X98964285Y-103081666D02*
X98916666Y-103034047D01*
X98916666Y-103034047D02*
X98821428Y-102986428D01*
X98821428Y-102986428D02*
X98630952Y-102938809D01*
X98630952Y-102938809D02*
X98535714Y-102891190D01*
X98535714Y-102891190D02*
X98488095Y-102843571D01*
X98488095Y-102843571D02*
X98440476Y-102748333D01*
X98440476Y-102748333D02*
X98440476Y-102653095D01*
X98440476Y-102653095D02*
X98488095Y-102557857D01*
X98488095Y-102557857D02*
X98535714Y-102510238D01*
X98535714Y-102510238D02*
X98630952Y-102462619D01*
X98630952Y-102462619D02*
X98869047Y-102462619D01*
X98869047Y-102462619D02*
X99011904Y-102510238D01*
X99345238Y-102462619D02*
X99583333Y-103462619D01*
X99583333Y-103462619D02*
X99773809Y-102748333D01*
X99773809Y-102748333D02*
X99964285Y-103462619D01*
X99964285Y-103462619D02*
X100202381Y-102462619D01*
X101107142Y-103462619D02*
X100535714Y-103462619D01*
X100821428Y-103462619D02*
X100821428Y-102462619D01*
X100821428Y-102462619D02*
X100726190Y-102605476D01*
X100726190Y-102605476D02*
X100630952Y-102700714D01*
X100630952Y-102700714D02*
X100535714Y-102748333D01*
X102059523Y-103462619D02*
X101488095Y-103462619D01*
X101773809Y-103462619D02*
X101773809Y-102462619D01*
X101773809Y-102462619D02*
X101678571Y-102605476D01*
X101678571Y-102605476D02*
X101583333Y-102700714D01*
X101583333Y-102700714D02*
X101488095Y-102748333D01*
%TO.C,J3*%
X105166666Y-116582619D02*
X105166666Y-117296904D01*
X105166666Y-117296904D02*
X105119047Y-117439761D01*
X105119047Y-117439761D02*
X105023809Y-117535000D01*
X105023809Y-117535000D02*
X104880952Y-117582619D01*
X104880952Y-117582619D02*
X104785714Y-117582619D01*
X105547619Y-116582619D02*
X106166666Y-116582619D01*
X106166666Y-116582619D02*
X105833333Y-116963571D01*
X105833333Y-116963571D02*
X105976190Y-116963571D01*
X105976190Y-116963571D02*
X106071428Y-117011190D01*
X106071428Y-117011190D02*
X106119047Y-117058809D01*
X106119047Y-117058809D02*
X106166666Y-117154047D01*
X106166666Y-117154047D02*
X106166666Y-117392142D01*
X106166666Y-117392142D02*
X106119047Y-117487380D01*
X106119047Y-117487380D02*
X106071428Y-117535000D01*
X106071428Y-117535000D02*
X105976190Y-117582619D01*
X105976190Y-117582619D02*
X105690476Y-117582619D01*
X105690476Y-117582619D02*
X105595238Y-117535000D01*
X105595238Y-117535000D02*
X105547619Y-117487380D01*
%TO.C,RV5*%
X75822619Y-66885238D02*
X75346428Y-67218571D01*
X75822619Y-67456666D02*
X74822619Y-67456666D01*
X74822619Y-67456666D02*
X74822619Y-67075714D01*
X74822619Y-67075714D02*
X74870238Y-66980476D01*
X74870238Y-66980476D02*
X74917857Y-66932857D01*
X74917857Y-66932857D02*
X75013095Y-66885238D01*
X75013095Y-66885238D02*
X75155952Y-66885238D01*
X75155952Y-66885238D02*
X75251190Y-66932857D01*
X75251190Y-66932857D02*
X75298809Y-66980476D01*
X75298809Y-66980476D02*
X75346428Y-67075714D01*
X75346428Y-67075714D02*
X75346428Y-67456666D01*
X74822619Y-66599523D02*
X75822619Y-66266190D01*
X75822619Y-66266190D02*
X74822619Y-65932857D01*
X74822619Y-65123333D02*
X74822619Y-65599523D01*
X74822619Y-65599523D02*
X75298809Y-65647142D01*
X75298809Y-65647142D02*
X75251190Y-65599523D01*
X75251190Y-65599523D02*
X75203571Y-65504285D01*
X75203571Y-65504285D02*
X75203571Y-65266190D01*
X75203571Y-65266190D02*
X75251190Y-65170952D01*
X75251190Y-65170952D02*
X75298809Y-65123333D01*
X75298809Y-65123333D02*
X75394047Y-65075714D01*
X75394047Y-65075714D02*
X75632142Y-65075714D01*
X75632142Y-65075714D02*
X75727380Y-65123333D01*
X75727380Y-65123333D02*
X75775000Y-65170952D01*
X75775000Y-65170952D02*
X75822619Y-65266190D01*
X75822619Y-65266190D02*
X75822619Y-65504285D01*
X75822619Y-65504285D02*
X75775000Y-65599523D01*
X75775000Y-65599523D02*
X75727380Y-65647142D01*
%TO.C,SW7*%
X98916667Y-91415000D02*
X99059524Y-91462619D01*
X99059524Y-91462619D02*
X99297619Y-91462619D01*
X99297619Y-91462619D02*
X99392857Y-91415000D01*
X99392857Y-91415000D02*
X99440476Y-91367380D01*
X99440476Y-91367380D02*
X99488095Y-91272142D01*
X99488095Y-91272142D02*
X99488095Y-91176904D01*
X99488095Y-91176904D02*
X99440476Y-91081666D01*
X99440476Y-91081666D02*
X99392857Y-91034047D01*
X99392857Y-91034047D02*
X99297619Y-90986428D01*
X99297619Y-90986428D02*
X99107143Y-90938809D01*
X99107143Y-90938809D02*
X99011905Y-90891190D01*
X99011905Y-90891190D02*
X98964286Y-90843571D01*
X98964286Y-90843571D02*
X98916667Y-90748333D01*
X98916667Y-90748333D02*
X98916667Y-90653095D01*
X98916667Y-90653095D02*
X98964286Y-90557857D01*
X98964286Y-90557857D02*
X99011905Y-90510238D01*
X99011905Y-90510238D02*
X99107143Y-90462619D01*
X99107143Y-90462619D02*
X99345238Y-90462619D01*
X99345238Y-90462619D02*
X99488095Y-90510238D01*
X99821429Y-90462619D02*
X100059524Y-91462619D01*
X100059524Y-91462619D02*
X100250000Y-90748333D01*
X100250000Y-90748333D02*
X100440476Y-91462619D01*
X100440476Y-91462619D02*
X100678572Y-90462619D01*
X100964286Y-90462619D02*
X101630952Y-90462619D01*
X101630952Y-90462619D02*
X101202381Y-91462619D01*
%TO.C,RV2*%
X94822619Y-46885238D02*
X94346428Y-47218571D01*
X94822619Y-47456666D02*
X93822619Y-47456666D01*
X93822619Y-47456666D02*
X93822619Y-47075714D01*
X93822619Y-47075714D02*
X93870238Y-46980476D01*
X93870238Y-46980476D02*
X93917857Y-46932857D01*
X93917857Y-46932857D02*
X94013095Y-46885238D01*
X94013095Y-46885238D02*
X94155952Y-46885238D01*
X94155952Y-46885238D02*
X94251190Y-46932857D01*
X94251190Y-46932857D02*
X94298809Y-46980476D01*
X94298809Y-46980476D02*
X94346428Y-47075714D01*
X94346428Y-47075714D02*
X94346428Y-47456666D01*
X93822619Y-46599523D02*
X94822619Y-46266190D01*
X94822619Y-46266190D02*
X93822619Y-45932857D01*
X93917857Y-45647142D02*
X93870238Y-45599523D01*
X93870238Y-45599523D02*
X93822619Y-45504285D01*
X93822619Y-45504285D02*
X93822619Y-45266190D01*
X93822619Y-45266190D02*
X93870238Y-45170952D01*
X93870238Y-45170952D02*
X93917857Y-45123333D01*
X93917857Y-45123333D02*
X94013095Y-45075714D01*
X94013095Y-45075714D02*
X94108333Y-45075714D01*
X94108333Y-45075714D02*
X94251190Y-45123333D01*
X94251190Y-45123333D02*
X94822619Y-45694761D01*
X94822619Y-45694761D02*
X94822619Y-45075714D01*
%TO.C,SW13*%
X118440476Y-103415000D02*
X118583333Y-103462619D01*
X118583333Y-103462619D02*
X118821428Y-103462619D01*
X118821428Y-103462619D02*
X118916666Y-103415000D01*
X118916666Y-103415000D02*
X118964285Y-103367380D01*
X118964285Y-103367380D02*
X119011904Y-103272142D01*
X119011904Y-103272142D02*
X119011904Y-103176904D01*
X119011904Y-103176904D02*
X118964285Y-103081666D01*
X118964285Y-103081666D02*
X118916666Y-103034047D01*
X118916666Y-103034047D02*
X118821428Y-102986428D01*
X118821428Y-102986428D02*
X118630952Y-102938809D01*
X118630952Y-102938809D02*
X118535714Y-102891190D01*
X118535714Y-102891190D02*
X118488095Y-102843571D01*
X118488095Y-102843571D02*
X118440476Y-102748333D01*
X118440476Y-102748333D02*
X118440476Y-102653095D01*
X118440476Y-102653095D02*
X118488095Y-102557857D01*
X118488095Y-102557857D02*
X118535714Y-102510238D01*
X118535714Y-102510238D02*
X118630952Y-102462619D01*
X118630952Y-102462619D02*
X118869047Y-102462619D01*
X118869047Y-102462619D02*
X119011904Y-102510238D01*
X119345238Y-102462619D02*
X119583333Y-103462619D01*
X119583333Y-103462619D02*
X119773809Y-102748333D01*
X119773809Y-102748333D02*
X119964285Y-103462619D01*
X119964285Y-103462619D02*
X120202381Y-102462619D01*
X121107142Y-103462619D02*
X120535714Y-103462619D01*
X120821428Y-103462619D02*
X120821428Y-102462619D01*
X120821428Y-102462619D02*
X120726190Y-102605476D01*
X120726190Y-102605476D02*
X120630952Y-102700714D01*
X120630952Y-102700714D02*
X120535714Y-102748333D01*
X121440476Y-102462619D02*
X122059523Y-102462619D01*
X122059523Y-102462619D02*
X121726190Y-102843571D01*
X121726190Y-102843571D02*
X121869047Y-102843571D01*
X121869047Y-102843571D02*
X121964285Y-102891190D01*
X121964285Y-102891190D02*
X122011904Y-102938809D01*
X122011904Y-102938809D02*
X122059523Y-103034047D01*
X122059523Y-103034047D02*
X122059523Y-103272142D01*
X122059523Y-103272142D02*
X122011904Y-103367380D01*
X122011904Y-103367380D02*
X121964285Y-103415000D01*
X121964285Y-103415000D02*
X121869047Y-103462619D01*
X121869047Y-103462619D02*
X121583333Y-103462619D01*
X121583333Y-103462619D02*
X121488095Y-103415000D01*
X121488095Y-103415000D02*
X121440476Y-103367380D01*
%TO.C,SW18*%
X173440476Y-103415000D02*
X173583333Y-103462619D01*
X173583333Y-103462619D02*
X173821428Y-103462619D01*
X173821428Y-103462619D02*
X173916666Y-103415000D01*
X173916666Y-103415000D02*
X173964285Y-103367380D01*
X173964285Y-103367380D02*
X174011904Y-103272142D01*
X174011904Y-103272142D02*
X174011904Y-103176904D01*
X174011904Y-103176904D02*
X173964285Y-103081666D01*
X173964285Y-103081666D02*
X173916666Y-103034047D01*
X173916666Y-103034047D02*
X173821428Y-102986428D01*
X173821428Y-102986428D02*
X173630952Y-102938809D01*
X173630952Y-102938809D02*
X173535714Y-102891190D01*
X173535714Y-102891190D02*
X173488095Y-102843571D01*
X173488095Y-102843571D02*
X173440476Y-102748333D01*
X173440476Y-102748333D02*
X173440476Y-102653095D01*
X173440476Y-102653095D02*
X173488095Y-102557857D01*
X173488095Y-102557857D02*
X173535714Y-102510238D01*
X173535714Y-102510238D02*
X173630952Y-102462619D01*
X173630952Y-102462619D02*
X173869047Y-102462619D01*
X173869047Y-102462619D02*
X174011904Y-102510238D01*
X174345238Y-102462619D02*
X174583333Y-103462619D01*
X174583333Y-103462619D02*
X174773809Y-102748333D01*
X174773809Y-102748333D02*
X174964285Y-103462619D01*
X174964285Y-103462619D02*
X175202381Y-102462619D01*
X176107142Y-103462619D02*
X175535714Y-103462619D01*
X175821428Y-103462619D02*
X175821428Y-102462619D01*
X175821428Y-102462619D02*
X175726190Y-102605476D01*
X175726190Y-102605476D02*
X175630952Y-102700714D01*
X175630952Y-102700714D02*
X175535714Y-102748333D01*
X176678571Y-102891190D02*
X176583333Y-102843571D01*
X176583333Y-102843571D02*
X176535714Y-102795952D01*
X176535714Y-102795952D02*
X176488095Y-102700714D01*
X176488095Y-102700714D02*
X176488095Y-102653095D01*
X176488095Y-102653095D02*
X176535714Y-102557857D01*
X176535714Y-102557857D02*
X176583333Y-102510238D01*
X176583333Y-102510238D02*
X176678571Y-102462619D01*
X176678571Y-102462619D02*
X176869047Y-102462619D01*
X176869047Y-102462619D02*
X176964285Y-102510238D01*
X176964285Y-102510238D02*
X177011904Y-102557857D01*
X177011904Y-102557857D02*
X177059523Y-102653095D01*
X177059523Y-102653095D02*
X177059523Y-102700714D01*
X177059523Y-102700714D02*
X177011904Y-102795952D01*
X177011904Y-102795952D02*
X176964285Y-102843571D01*
X176964285Y-102843571D02*
X176869047Y-102891190D01*
X176869047Y-102891190D02*
X176678571Y-102891190D01*
X176678571Y-102891190D02*
X176583333Y-102938809D01*
X176583333Y-102938809D02*
X176535714Y-102986428D01*
X176535714Y-102986428D02*
X176488095Y-103081666D01*
X176488095Y-103081666D02*
X176488095Y-103272142D01*
X176488095Y-103272142D02*
X176535714Y-103367380D01*
X176535714Y-103367380D02*
X176583333Y-103415000D01*
X176583333Y-103415000D02*
X176678571Y-103462619D01*
X176678571Y-103462619D02*
X176869047Y-103462619D01*
X176869047Y-103462619D02*
X176964285Y-103415000D01*
X176964285Y-103415000D02*
X177011904Y-103367380D01*
X177011904Y-103367380D02*
X177059523Y-103272142D01*
X177059523Y-103272142D02*
X177059523Y-103081666D01*
X177059523Y-103081666D02*
X177011904Y-102986428D01*
X177011904Y-102986428D02*
X176964285Y-102938809D01*
X176964285Y-102938809D02*
X176869047Y-102891190D01*
%TO.C,J10*%
X80690476Y-132582619D02*
X80690476Y-133296904D01*
X80690476Y-133296904D02*
X80642857Y-133439761D01*
X80642857Y-133439761D02*
X80547619Y-133535000D01*
X80547619Y-133535000D02*
X80404762Y-133582619D01*
X80404762Y-133582619D02*
X80309524Y-133582619D01*
X81690476Y-133582619D02*
X81119048Y-133582619D01*
X81404762Y-133582619D02*
X81404762Y-132582619D01*
X81404762Y-132582619D02*
X81309524Y-132725476D01*
X81309524Y-132725476D02*
X81214286Y-132820714D01*
X81214286Y-132820714D02*
X81119048Y-132868333D01*
X82309524Y-132582619D02*
X82404762Y-132582619D01*
X82404762Y-132582619D02*
X82500000Y-132630238D01*
X82500000Y-132630238D02*
X82547619Y-132677857D01*
X82547619Y-132677857D02*
X82595238Y-132773095D01*
X82595238Y-132773095D02*
X82642857Y-132963571D01*
X82642857Y-132963571D02*
X82642857Y-133201666D01*
X82642857Y-133201666D02*
X82595238Y-133392142D01*
X82595238Y-133392142D02*
X82547619Y-133487380D01*
X82547619Y-133487380D02*
X82500000Y-133535000D01*
X82500000Y-133535000D02*
X82404762Y-133582619D01*
X82404762Y-133582619D02*
X82309524Y-133582619D01*
X82309524Y-133582619D02*
X82214286Y-133535000D01*
X82214286Y-133535000D02*
X82166667Y-133487380D01*
X82166667Y-133487380D02*
X82119048Y-133392142D01*
X82119048Y-133392142D02*
X82071429Y-133201666D01*
X82071429Y-133201666D02*
X82071429Y-132963571D01*
X82071429Y-132963571D02*
X82119048Y-132773095D01*
X82119048Y-132773095D02*
X82166667Y-132677857D01*
X82166667Y-132677857D02*
X82214286Y-132630238D01*
X82214286Y-132630238D02*
X82309524Y-132582619D01*
%TO.C,SW2*%
X84746667Y-96755000D02*
X84889524Y-96802619D01*
X84889524Y-96802619D02*
X85127619Y-96802619D01*
X85127619Y-96802619D02*
X85222857Y-96755000D01*
X85222857Y-96755000D02*
X85270476Y-96707380D01*
X85270476Y-96707380D02*
X85318095Y-96612142D01*
X85318095Y-96612142D02*
X85318095Y-96516904D01*
X85318095Y-96516904D02*
X85270476Y-96421666D01*
X85270476Y-96421666D02*
X85222857Y-96374047D01*
X85222857Y-96374047D02*
X85127619Y-96326428D01*
X85127619Y-96326428D02*
X84937143Y-96278809D01*
X84937143Y-96278809D02*
X84841905Y-96231190D01*
X84841905Y-96231190D02*
X84794286Y-96183571D01*
X84794286Y-96183571D02*
X84746667Y-96088333D01*
X84746667Y-96088333D02*
X84746667Y-95993095D01*
X84746667Y-95993095D02*
X84794286Y-95897857D01*
X84794286Y-95897857D02*
X84841905Y-95850238D01*
X84841905Y-95850238D02*
X84937143Y-95802619D01*
X84937143Y-95802619D02*
X85175238Y-95802619D01*
X85175238Y-95802619D02*
X85318095Y-95850238D01*
X85651429Y-95802619D02*
X85889524Y-96802619D01*
X85889524Y-96802619D02*
X86080000Y-96088333D01*
X86080000Y-96088333D02*
X86270476Y-96802619D01*
X86270476Y-96802619D02*
X86508572Y-95802619D01*
X86841905Y-95897857D02*
X86889524Y-95850238D01*
X86889524Y-95850238D02*
X86984762Y-95802619D01*
X86984762Y-95802619D02*
X87222857Y-95802619D01*
X87222857Y-95802619D02*
X87318095Y-95850238D01*
X87318095Y-95850238D02*
X87365714Y-95897857D01*
X87365714Y-95897857D02*
X87413333Y-95993095D01*
X87413333Y-95993095D02*
X87413333Y-96088333D01*
X87413333Y-96088333D02*
X87365714Y-96231190D01*
X87365714Y-96231190D02*
X86794286Y-96802619D01*
X86794286Y-96802619D02*
X87413333Y-96802619D01*
%TO.C,SW16*%
X153440476Y-103415000D02*
X153583333Y-103462619D01*
X153583333Y-103462619D02*
X153821428Y-103462619D01*
X153821428Y-103462619D02*
X153916666Y-103415000D01*
X153916666Y-103415000D02*
X153964285Y-103367380D01*
X153964285Y-103367380D02*
X154011904Y-103272142D01*
X154011904Y-103272142D02*
X154011904Y-103176904D01*
X154011904Y-103176904D02*
X153964285Y-103081666D01*
X153964285Y-103081666D02*
X153916666Y-103034047D01*
X153916666Y-103034047D02*
X153821428Y-102986428D01*
X153821428Y-102986428D02*
X153630952Y-102938809D01*
X153630952Y-102938809D02*
X153535714Y-102891190D01*
X153535714Y-102891190D02*
X153488095Y-102843571D01*
X153488095Y-102843571D02*
X153440476Y-102748333D01*
X153440476Y-102748333D02*
X153440476Y-102653095D01*
X153440476Y-102653095D02*
X153488095Y-102557857D01*
X153488095Y-102557857D02*
X153535714Y-102510238D01*
X153535714Y-102510238D02*
X153630952Y-102462619D01*
X153630952Y-102462619D02*
X153869047Y-102462619D01*
X153869047Y-102462619D02*
X154011904Y-102510238D01*
X154345238Y-102462619D02*
X154583333Y-103462619D01*
X154583333Y-103462619D02*
X154773809Y-102748333D01*
X154773809Y-102748333D02*
X154964285Y-103462619D01*
X154964285Y-103462619D02*
X155202381Y-102462619D01*
X156107142Y-103462619D02*
X155535714Y-103462619D01*
X155821428Y-103462619D02*
X155821428Y-102462619D01*
X155821428Y-102462619D02*
X155726190Y-102605476D01*
X155726190Y-102605476D02*
X155630952Y-102700714D01*
X155630952Y-102700714D02*
X155535714Y-102748333D01*
X156964285Y-102462619D02*
X156773809Y-102462619D01*
X156773809Y-102462619D02*
X156678571Y-102510238D01*
X156678571Y-102510238D02*
X156630952Y-102557857D01*
X156630952Y-102557857D02*
X156535714Y-102700714D01*
X156535714Y-102700714D02*
X156488095Y-102891190D01*
X156488095Y-102891190D02*
X156488095Y-103272142D01*
X156488095Y-103272142D02*
X156535714Y-103367380D01*
X156535714Y-103367380D02*
X156583333Y-103415000D01*
X156583333Y-103415000D02*
X156678571Y-103462619D01*
X156678571Y-103462619D02*
X156869047Y-103462619D01*
X156869047Y-103462619D02*
X156964285Y-103415000D01*
X156964285Y-103415000D02*
X157011904Y-103367380D01*
X157011904Y-103367380D02*
X157059523Y-103272142D01*
X157059523Y-103272142D02*
X157059523Y-103034047D01*
X157059523Y-103034047D02*
X157011904Y-102938809D01*
X157011904Y-102938809D02*
X156964285Y-102891190D01*
X156964285Y-102891190D02*
X156869047Y-102843571D01*
X156869047Y-102843571D02*
X156678571Y-102843571D01*
X156678571Y-102843571D02*
X156583333Y-102891190D01*
X156583333Y-102891190D02*
X156535714Y-102938809D01*
X156535714Y-102938809D02*
X156488095Y-103034047D01*
D11*
%TO.C,SW4*%
X106750000Y-82500000D02*
X106750000Y-84000000D01*
X108000000Y-86500000D02*
X112500000Y-86500000D01*
X112500000Y-80000000D02*
X108000000Y-80000000D01*
X113750000Y-84000000D02*
X113750000Y-82500000D01*
%TO.C,SW10*%
X126750000Y-94500000D02*
X126750000Y-96000000D01*
X128000000Y-98500000D02*
X132500000Y-98500000D01*
X132500000Y-92000000D02*
X128000000Y-92000000D01*
X133750000Y-96000000D02*
X133750000Y-94500000D01*
%TO.C,RV3*%
X115620000Y-52120000D02*
X115620000Y-47400000D01*
X116810000Y-52120000D02*
X115630000Y-52120000D01*
X119710000Y-52120000D02*
X119180000Y-52120000D01*
X122160000Y-52120000D02*
X121330000Y-52120000D01*
X125370000Y-52120000D02*
X123880000Y-52120000D01*
X125370000Y-52120000D02*
X125370000Y-47400000D01*
X115630000Y-43590000D02*
X115630000Y-40530000D01*
X125370000Y-43590000D02*
X125370000Y-40530000D01*
X125370000Y-40530000D02*
X115630000Y-40530000D01*
D12*
%TO.C,J2*%
X91500000Y-117920000D02*
X94400000Y-117920000D01*
X91500000Y-128420000D02*
X91500000Y-117920000D01*
X91500000Y-128420000D02*
X94500000Y-128420000D01*
X97500000Y-128420000D02*
X100500000Y-128420000D01*
X97600000Y-117920000D02*
X100500000Y-117920000D01*
X100500000Y-128420000D02*
X100500000Y-117920000D01*
D11*
X96000000Y-121025000D02*
G75*
G03*
X94703737Y-126508576I0J-2895000D01*
G01*
X97296263Y-126508576D02*
G75*
G03*
X96000000Y-121025000I-1296263J2588576D01*
G01*
X97800000Y-123920000D02*
G75*
G03*
X97800000Y-123920000I-1800000J0D01*
G01*
D12*
%TO.C,J13*%
X127500000Y-117920000D02*
X130400000Y-117920000D01*
X127500000Y-128420000D02*
X127500000Y-117920000D01*
X127500000Y-128420000D02*
X130500000Y-128420000D01*
X133500000Y-128420000D02*
X136500000Y-128420000D01*
X133600000Y-117920000D02*
X136500000Y-117920000D01*
X136500000Y-128420000D02*
X136500000Y-117920000D01*
D11*
X132000000Y-121025000D02*
G75*
G03*
X130703737Y-126508576I0J-2895000D01*
G01*
X133296263Y-126508576D02*
G75*
G03*
X132000000Y-121025000I-1296263J2588576D01*
G01*
X133800000Y-123920000D02*
G75*
G03*
X133800000Y-123920000I-1800000J0D01*
G01*
%TO.C,RV8*%
X134620000Y-72120000D02*
X134620000Y-67400000D01*
X135810000Y-72120000D02*
X134630000Y-72120000D01*
X138710000Y-72120000D02*
X138180000Y-72120000D01*
X141160000Y-72120000D02*
X140330000Y-72120000D01*
X144370000Y-72120000D02*
X142880000Y-72120000D01*
X144370000Y-72120000D02*
X144370000Y-67400000D01*
X134630000Y-63590000D02*
X134630000Y-60530000D01*
X144370000Y-63590000D02*
X144370000Y-60530000D01*
X144370000Y-60530000D02*
X134630000Y-60530000D01*
D12*
%TO.C,J12*%
X115500000Y-117920000D02*
X118400000Y-117920000D01*
X115500000Y-128420000D02*
X115500000Y-117920000D01*
X115500000Y-128420000D02*
X118500000Y-128420000D01*
X121500000Y-128420000D02*
X124500000Y-128420000D01*
X121600000Y-117920000D02*
X124500000Y-117920000D01*
X124500000Y-128420000D02*
X124500000Y-117920000D01*
D11*
X120000000Y-121025000D02*
G75*
G03*
X118703737Y-126508576I0J-2895000D01*
G01*
X121296263Y-126508576D02*
G75*
G03*
X120000000Y-121025000I-1296263J2588576D01*
G01*
X121800000Y-123920000D02*
G75*
G03*
X121800000Y-123920000I-1800000J0D01*
G01*
%TO.C,SW3*%
X96750000Y-82500000D02*
X96750000Y-84000000D01*
X98000000Y-86500000D02*
X102500000Y-86500000D01*
X102500000Y-80000000D02*
X98000000Y-80000000D01*
X103750000Y-84000000D02*
X103750000Y-82500000D01*
D12*
%TO.C,J11*%
X139500000Y-133920000D02*
X142400000Y-133920000D01*
X139500000Y-144420000D02*
X139500000Y-133920000D01*
X139500000Y-144420000D02*
X142500000Y-144420000D01*
X145500000Y-144420000D02*
X148500000Y-144420000D01*
X145600000Y-133920000D02*
X148500000Y-133920000D01*
X148500000Y-144420000D02*
X148500000Y-133920000D01*
D11*
X144000000Y-137025000D02*
G75*
G03*
X142703737Y-142508576I0J-2895000D01*
G01*
X145296263Y-142508576D02*
G75*
G03*
X144000000Y-137025000I-1296263J2588576D01*
G01*
X145800000Y-139920000D02*
G75*
G03*
X145800000Y-139920000I-1800000J0D01*
G01*
%TO.C,RV4*%
X134620000Y-52120000D02*
X134620000Y-47400000D01*
X135810000Y-52120000D02*
X134630000Y-52120000D01*
X138710000Y-52120000D02*
X138180000Y-52120000D01*
X141160000Y-52120000D02*
X140330000Y-52120000D01*
X144370000Y-52120000D02*
X142880000Y-52120000D01*
X144370000Y-52120000D02*
X144370000Y-47400000D01*
X134630000Y-43590000D02*
X134630000Y-40530000D01*
X144370000Y-43590000D02*
X144370000Y-40530000D01*
X144370000Y-40530000D02*
X134630000Y-40530000D01*
%TO.C,RV1*%
X77620000Y-52120000D02*
X77620000Y-47400000D01*
X78810000Y-52120000D02*
X77630000Y-52120000D01*
X81710000Y-52120000D02*
X81180000Y-52120000D01*
X84160000Y-52120000D02*
X83330000Y-52120000D01*
X87370000Y-52120000D02*
X85880000Y-52120000D01*
X87370000Y-52120000D02*
X87370000Y-47400000D01*
X77630000Y-43590000D02*
X77630000Y-40530000D01*
X87370000Y-43590000D02*
X87370000Y-40530000D01*
X87370000Y-40530000D02*
X77630000Y-40530000D01*
%TO.C,RV10*%
X172620000Y-52120000D02*
X172620000Y-47400000D01*
X173810000Y-52120000D02*
X172630000Y-52120000D01*
X176710000Y-52120000D02*
X176180000Y-52120000D01*
X179160000Y-52120000D02*
X178330000Y-52120000D01*
X182370000Y-52120000D02*
X180880000Y-52120000D01*
X182370000Y-52120000D02*
X182370000Y-47400000D01*
X172630000Y-43590000D02*
X172630000Y-40530000D01*
X182370000Y-43590000D02*
X182370000Y-40530000D01*
X182370000Y-40530000D02*
X172630000Y-40530000D01*
D12*
%TO.C,J4*%
X79500000Y-117920000D02*
X82400000Y-117920000D01*
X79500000Y-128420000D02*
X79500000Y-117920000D01*
X79500000Y-128420000D02*
X82500000Y-128420000D01*
X85500000Y-128420000D02*
X88500000Y-128420000D01*
X85600000Y-117920000D02*
X88500000Y-117920000D01*
X88500000Y-128420000D02*
X88500000Y-117920000D01*
D11*
X84000000Y-121025000D02*
G75*
G03*
X82703737Y-126508576I0J-2895000D01*
G01*
X85296263Y-126508576D02*
G75*
G03*
X84000000Y-121025000I-1296263J2588576D01*
G01*
X85800000Y-123920000D02*
G75*
G03*
X85800000Y-123920000I-1800000J0D01*
G01*
D12*
%TO.C,J14*%
X115500000Y-133920000D02*
X118400000Y-133920000D01*
X115500000Y-144420000D02*
X115500000Y-133920000D01*
X115500000Y-144420000D02*
X118500000Y-144420000D01*
X121500000Y-144420000D02*
X124500000Y-144420000D01*
X121600000Y-133920000D02*
X124500000Y-133920000D01*
X124500000Y-144420000D02*
X124500000Y-133920000D01*
D11*
X120000000Y-137025000D02*
G75*
G03*
X118703737Y-142508576I0J-2895000D01*
G01*
X121296263Y-142508576D02*
G75*
G03*
X120000000Y-137025000I-1296263J2588576D01*
G01*
X121800000Y-139920000D02*
G75*
G03*
X121800000Y-139920000I-1800000J0D01*
G01*
D12*
%TO.C,J15*%
X127500000Y-133920000D02*
X130400000Y-133920000D01*
X127500000Y-144420000D02*
X127500000Y-133920000D01*
X127500000Y-144420000D02*
X130500000Y-144420000D01*
X133500000Y-144420000D02*
X136500000Y-144420000D01*
X133600000Y-133920000D02*
X136500000Y-133920000D01*
X136500000Y-144420000D02*
X136500000Y-133920000D01*
D11*
X132000000Y-137025000D02*
G75*
G03*
X130703737Y-142508576I0J-2895000D01*
G01*
X133296263Y-142508576D02*
G75*
G03*
X132000000Y-137025000I-1296263J2588576D01*
G01*
X133800000Y-139920000D02*
G75*
G03*
X133800000Y-139920000I-1800000J0D01*
G01*
%TO.C,SW5*%
X116750000Y-82500000D02*
X116750000Y-84000000D01*
X118000000Y-86500000D02*
X122500000Y-86500000D01*
X122500000Y-80000000D02*
X118000000Y-80000000D01*
X123750000Y-84000000D02*
X123750000Y-82500000D01*
%TO.C,SW8*%
X106750000Y-94500000D02*
X106750000Y-96000000D01*
X108000000Y-98500000D02*
X112500000Y-98500000D01*
X112500000Y-92000000D02*
X108000000Y-92000000D01*
X113750000Y-96000000D02*
X113750000Y-94500000D01*
%TO.C,RV7*%
X115620000Y-72120000D02*
X115620000Y-67400000D01*
X116810000Y-72120000D02*
X115630000Y-72120000D01*
X119710000Y-72120000D02*
X119180000Y-72120000D01*
X122160000Y-72120000D02*
X121330000Y-72120000D01*
X125370000Y-72120000D02*
X123880000Y-72120000D01*
X125370000Y-72120000D02*
X125370000Y-67400000D01*
X115630000Y-63590000D02*
X115630000Y-60530000D01*
X125370000Y-63590000D02*
X125370000Y-60530000D01*
X125370000Y-60530000D02*
X115630000Y-60530000D01*
%TO.C,U3*%
X153000000Y-95380000D02*
X155000000Y-95380000D01*
X145350000Y-94920000D02*
X175350000Y-94920000D01*
X175350000Y-94920000D02*
X175350000Y-80920000D01*
X175350000Y-80920000D02*
X145350000Y-80920000D01*
X145350000Y-80920000D02*
X145350000Y-94920000D01*
D13*
%TO.C,J6*%
X180870000Y-94650000D02*
X180870000Y-93850000D01*
X183170000Y-94650000D02*
X180870000Y-94650000D01*
D14*
X179070000Y-93850000D02*
X179070000Y-81850000D01*
X180870000Y-93850000D02*
X179070000Y-93850000D01*
D13*
X183170000Y-93850000D02*
X183170000Y-94650000D01*
D14*
X183170000Y-93850000D02*
X183970000Y-93850000D01*
X183970000Y-93850000D02*
X183970000Y-81850000D01*
X179070000Y-81850000D02*
X180870000Y-81850000D01*
D13*
X180870000Y-81850000D02*
X183170000Y-81850000D01*
D14*
X183970000Y-81850000D02*
X183170000Y-81850000D01*
D11*
%TO.C,D3*%
X156710000Y-132864000D02*
X156710000Y-133020000D01*
X156710000Y-135180000D02*
X156710000Y-135336000D01*
X159942334Y-133021392D02*
G75*
G03*
X156710001Y-132864485I-1672334J-1078608D01*
G01*
X159311129Y-133020164D02*
G75*
G03*
X157229040Y-133020001I-1041129J-1079836D01*
G01*
X157229040Y-135179999D02*
G75*
G03*
X159311129Y-135179836I1040960J1079999D01*
G01*
X156710001Y-135335515D02*
G75*
G03*
X159942334Y-135178608I1559999J1235515D01*
G01*
%TO.C,RV11*%
X153620000Y-72120000D02*
X153620000Y-67400000D01*
X154810000Y-72120000D02*
X153630000Y-72120000D01*
X157710000Y-72120000D02*
X157180000Y-72120000D01*
X160160000Y-72120000D02*
X159330000Y-72120000D01*
X163370000Y-72120000D02*
X161880000Y-72120000D01*
X163370000Y-72120000D02*
X163370000Y-67400000D01*
X153630000Y-63590000D02*
X153630000Y-60530000D01*
X163370000Y-63590000D02*
X163370000Y-60530000D01*
X163370000Y-60530000D02*
X153630000Y-60530000D01*
%TO.C,RV9*%
X153620000Y-52120000D02*
X153620000Y-47400000D01*
X154810000Y-52120000D02*
X153630000Y-52120000D01*
X157710000Y-52120000D02*
X157180000Y-52120000D01*
X160160000Y-52120000D02*
X159330000Y-52120000D01*
X163370000Y-52120000D02*
X161880000Y-52120000D01*
X163370000Y-52120000D02*
X163370000Y-47400000D01*
X153630000Y-43590000D02*
X153630000Y-40530000D01*
X163370000Y-43590000D02*
X163370000Y-40530000D01*
X163370000Y-40530000D02*
X153630000Y-40530000D01*
D12*
%TO.C,J8*%
X91500000Y-133920000D02*
X94400000Y-133920000D01*
X91500000Y-144420000D02*
X91500000Y-133920000D01*
X91500000Y-144420000D02*
X94500000Y-144420000D01*
X97500000Y-144420000D02*
X100500000Y-144420000D01*
X97600000Y-133920000D02*
X100500000Y-133920000D01*
X100500000Y-144420000D02*
X100500000Y-133920000D01*
D11*
X96000000Y-137025000D02*
G75*
G03*
X94703737Y-142508576I0J-2895000D01*
G01*
X97296263Y-142508576D02*
G75*
G03*
X96000000Y-137025000I-1296263J2588576D01*
G01*
X97800000Y-139920000D02*
G75*
G03*
X97800000Y-139920000I-1800000J0D01*
G01*
%TO.C,SW17*%
X161750000Y-106500000D02*
X161750000Y-108000000D01*
X163000000Y-110500000D02*
X167500000Y-110500000D01*
X167500000Y-104000000D02*
X163000000Y-104000000D01*
X168750000Y-108000000D02*
X168750000Y-106500000D01*
%TO.C,SW15*%
X141750000Y-106500000D02*
X141750000Y-108000000D01*
X143000000Y-110500000D02*
X147500000Y-110500000D01*
X147500000Y-104000000D02*
X143000000Y-104000000D01*
X148750000Y-108000000D02*
X148750000Y-106500000D01*
%TO.C,SW9*%
X116750000Y-94500000D02*
X116750000Y-96000000D01*
X118000000Y-98500000D02*
X122500000Y-98500000D01*
X122500000Y-92000000D02*
X118000000Y-92000000D01*
X123750000Y-96000000D02*
X123750000Y-94500000D01*
%TO.C,D2*%
X156710000Y-127314000D02*
X156710000Y-127470000D01*
X156710000Y-129630000D02*
X156710000Y-129786000D01*
X159942334Y-127471392D02*
G75*
G03*
X156710001Y-127314485I-1672334J-1078608D01*
G01*
X159311129Y-127470164D02*
G75*
G03*
X157229040Y-127470001I-1041129J-1079836D01*
G01*
X157229040Y-129629999D02*
G75*
G03*
X159311129Y-129629836I1040960J1079999D01*
G01*
X156710001Y-129785515D02*
G75*
G03*
X159942334Y-129628608I1559999J1235515D01*
G01*
%TO.C,D1*%
X156710000Y-121764000D02*
X156710000Y-121920000D01*
X156710000Y-124080000D02*
X156710000Y-124236000D01*
X159942334Y-121921392D02*
G75*
G03*
X156710001Y-121764485I-1672334J-1078608D01*
G01*
X159311129Y-121920164D02*
G75*
G03*
X157229040Y-121920001I-1041129J-1079836D01*
G01*
X157229040Y-124079999D02*
G75*
G03*
X159311129Y-124079836I1040960J1079999D01*
G01*
X156710001Y-124235515D02*
G75*
G03*
X159942334Y-124078608I1559999J1235515D01*
G01*
%TO.C,SW12*%
X106750000Y-106500000D02*
X106750000Y-108000000D01*
X108000000Y-110500000D02*
X112500000Y-110500000D01*
X112500000Y-104000000D02*
X108000000Y-104000000D01*
X113750000Y-108000000D02*
X113750000Y-106500000D01*
D12*
%TO.C,J5*%
X139500000Y-117920000D02*
X142400000Y-117920000D01*
X139500000Y-128420000D02*
X139500000Y-117920000D01*
X139500000Y-128420000D02*
X142500000Y-128420000D01*
X145500000Y-128420000D02*
X148500000Y-128420000D01*
X145600000Y-117920000D02*
X148500000Y-117920000D01*
X148500000Y-128420000D02*
X148500000Y-117920000D01*
D11*
X144000000Y-121025000D02*
G75*
G03*
X142703737Y-126508576I0J-2895000D01*
G01*
X145296263Y-126508576D02*
G75*
G03*
X144000000Y-121025000I-1296263J2588576D01*
G01*
X145800000Y-123920000D02*
G75*
G03*
X145800000Y-123920000I-1800000J0D01*
G01*
%TO.C,SW14*%
X126750000Y-106500000D02*
X126750000Y-108000000D01*
X128000000Y-110500000D02*
X132500000Y-110500000D01*
X132500000Y-104000000D02*
X128000000Y-104000000D01*
X133750000Y-108000000D02*
X133750000Y-106500000D01*
%TO.C,D4*%
X156710000Y-138414000D02*
X156710000Y-138570000D01*
X156710000Y-140730000D02*
X156710000Y-140886000D01*
X159942334Y-138571392D02*
G75*
G03*
X156710001Y-138414485I-1672334J-1078608D01*
G01*
X159311129Y-138570164D02*
G75*
G03*
X157229040Y-138570001I-1041129J-1079836D01*
G01*
X157229040Y-140729999D02*
G75*
G03*
X159311129Y-140729836I1040960J1079999D01*
G01*
X156710001Y-140885515D02*
G75*
G03*
X159942334Y-140728608I1559999J1235515D01*
G01*
%TO.C,SW6*%
X126750000Y-82500000D02*
X126750000Y-84000000D01*
X128000000Y-86500000D02*
X132500000Y-86500000D01*
X132500000Y-80000000D02*
X128000000Y-80000000D01*
X133750000Y-84000000D02*
X133750000Y-82500000D01*
%TO.C,RV12*%
X172620000Y-72120000D02*
X172620000Y-67400000D01*
X173810000Y-72120000D02*
X172630000Y-72120000D01*
X176710000Y-72120000D02*
X176180000Y-72120000D01*
X179160000Y-72120000D02*
X178330000Y-72120000D01*
X182370000Y-72120000D02*
X180880000Y-72120000D01*
X182370000Y-72120000D02*
X182370000Y-67400000D01*
X172630000Y-63590000D02*
X172630000Y-60530000D01*
X182370000Y-63590000D02*
X182370000Y-60530000D01*
X182370000Y-60530000D02*
X172630000Y-60530000D01*
D12*
%TO.C,J9*%
X103500000Y-133920000D02*
X106400000Y-133920000D01*
X103500000Y-144420000D02*
X103500000Y-133920000D01*
X103500000Y-144420000D02*
X106500000Y-144420000D01*
X109500000Y-144420000D02*
X112500000Y-144420000D01*
X109600000Y-133920000D02*
X112500000Y-133920000D01*
X112500000Y-144420000D02*
X112500000Y-133920000D01*
D11*
X108000000Y-137025000D02*
G75*
G03*
X106703737Y-142508576I0J-2895000D01*
G01*
X109296263Y-142508576D02*
G75*
G03*
X108000000Y-137025000I-1296263J2588576D01*
G01*
X109800000Y-139920000D02*
G75*
G03*
X109800000Y-139920000I-1800000J0D01*
G01*
%TO.C,RV6*%
X96620000Y-72120000D02*
X96620000Y-67400000D01*
X97810000Y-72120000D02*
X96630000Y-72120000D01*
X100710000Y-72120000D02*
X100180000Y-72120000D01*
X103160000Y-72120000D02*
X102330000Y-72120000D01*
X106370000Y-72120000D02*
X104880000Y-72120000D01*
X106370000Y-72120000D02*
X106370000Y-67400000D01*
X96630000Y-63590000D02*
X96630000Y-60530000D01*
X106370000Y-63590000D02*
X106370000Y-60530000D01*
X106370000Y-60530000D02*
X96630000Y-60530000D01*
%TO.C,SW1*%
X80100000Y-81350000D02*
X92400000Y-81350000D01*
X80100000Y-84070000D02*
X80100000Y-81350000D01*
X80100000Y-89070000D02*
X80100000Y-85930000D01*
X80100000Y-93650000D02*
X80100000Y-90930000D01*
X92400000Y-81350000D02*
X92400000Y-84070000D01*
X92400000Y-85930000D02*
X92400000Y-89070000D01*
X92400000Y-90930000D02*
X92400000Y-93650000D01*
X92400000Y-93650000D02*
X80100000Y-93650000D01*
X90929050Y-87540000D02*
G75*
G03*
X90929050Y-87540000I-4579050J0D01*
G01*
%TO.C,SW11*%
X96750000Y-106500000D02*
X96750000Y-108000000D01*
X98000000Y-110500000D02*
X102500000Y-110500000D01*
X102500000Y-104000000D02*
X98000000Y-104000000D01*
X103750000Y-108000000D02*
X103750000Y-106500000D01*
D12*
%TO.C,J3*%
X103500000Y-117920000D02*
X106400000Y-117920000D01*
X103500000Y-128420000D02*
X103500000Y-117920000D01*
X103500000Y-128420000D02*
X106500000Y-128420000D01*
X109500000Y-128420000D02*
X112500000Y-128420000D01*
X109600000Y-117920000D02*
X112500000Y-117920000D01*
X112500000Y-128420000D02*
X112500000Y-117920000D01*
D11*
X108000000Y-121025000D02*
G75*
G03*
X106703737Y-126508576I0J-2895000D01*
G01*
X109296263Y-126508576D02*
G75*
G03*
X108000000Y-121025000I-1296263J2588576D01*
G01*
X109800000Y-123920000D02*
G75*
G03*
X109800000Y-123920000I-1800000J0D01*
G01*
%TO.C,RV5*%
X77620000Y-72120000D02*
X77620000Y-67400000D01*
X78810000Y-72120000D02*
X77630000Y-72120000D01*
X81710000Y-72120000D02*
X81180000Y-72120000D01*
X84160000Y-72120000D02*
X83330000Y-72120000D01*
X87370000Y-72120000D02*
X85880000Y-72120000D01*
X87370000Y-72120000D02*
X87370000Y-67400000D01*
X77630000Y-63590000D02*
X77630000Y-60530000D01*
X87370000Y-63590000D02*
X87370000Y-60530000D01*
X87370000Y-60530000D02*
X77630000Y-60530000D01*
%TO.C,SW7*%
X96750000Y-94500000D02*
X96750000Y-96000000D01*
X98000000Y-98500000D02*
X102500000Y-98500000D01*
X102500000Y-92000000D02*
X98000000Y-92000000D01*
X103750000Y-96000000D02*
X103750000Y-94500000D01*
%TO.C,RV2*%
X96620000Y-52120000D02*
X96620000Y-47400000D01*
X97810000Y-52120000D02*
X96630000Y-52120000D01*
X100710000Y-52120000D02*
X100180000Y-52120000D01*
X103160000Y-52120000D02*
X102330000Y-52120000D01*
X106370000Y-52120000D02*
X104880000Y-52120000D01*
X106370000Y-52120000D02*
X106370000Y-47400000D01*
X96630000Y-43590000D02*
X96630000Y-40530000D01*
X106370000Y-43590000D02*
X106370000Y-40530000D01*
X106370000Y-40530000D02*
X96630000Y-40530000D01*
%TO.C,SW13*%
X116750000Y-106500000D02*
X116750000Y-108000000D01*
X118000000Y-110500000D02*
X122500000Y-110500000D01*
X122500000Y-104000000D02*
X118000000Y-104000000D01*
X123750000Y-108000000D02*
X123750000Y-106500000D01*
%TO.C,SW18*%
X171750000Y-106500000D02*
X171750000Y-108000000D01*
X173000000Y-110500000D02*
X177500000Y-110500000D01*
X177500000Y-104000000D02*
X173000000Y-104000000D01*
X178750000Y-108000000D02*
X178750000Y-106500000D01*
D12*
%TO.C,J10*%
X79500000Y-133920000D02*
X82400000Y-133920000D01*
X79500000Y-144420000D02*
X79500000Y-133920000D01*
X79500000Y-144420000D02*
X82500000Y-144420000D01*
X85500000Y-144420000D02*
X88500000Y-144420000D01*
X85600000Y-133920000D02*
X88500000Y-133920000D01*
X88500000Y-144420000D02*
X88500000Y-133920000D01*
D11*
X84000000Y-137025000D02*
G75*
G03*
X82703737Y-142508576I0J-2895000D01*
G01*
X85296263Y-142508576D02*
G75*
G03*
X84000000Y-137025000I-1296263J2588576D01*
G01*
X85800000Y-139920000D02*
G75*
G03*
X85800000Y-139920000I-1800000J0D01*
G01*
%TO.C,SW2*%
X80100000Y-97350000D02*
X92400000Y-97350000D01*
X80100000Y-100070000D02*
X80100000Y-97350000D01*
X80100000Y-105070000D02*
X80100000Y-101930000D01*
X80100000Y-109650000D02*
X80100000Y-106930000D01*
X92400000Y-97350000D02*
X92400000Y-100070000D01*
X92400000Y-101930000D02*
X92400000Y-105070000D01*
X92400000Y-106930000D02*
X92400000Y-109650000D01*
X92400000Y-109650000D02*
X80100000Y-109650000D01*
X90929050Y-103540000D02*
G75*
G03*
X90929050Y-103540000I-4579050J0D01*
G01*
%TO.C,SW16*%
X151750000Y-106500000D02*
X151750000Y-108000000D01*
X153000000Y-110500000D02*
X157500000Y-110500000D01*
X157500000Y-104000000D02*
X153000000Y-104000000D01*
X158750000Y-108000000D02*
X158750000Y-106500000D01*
%TD*%
%LPC*%
D15*
%TO.C,SW4*%
X107000000Y-81000000D03*
X113500000Y-81000000D03*
X107000000Y-85500000D03*
X113500000Y-85500000D03*
%TD*%
%TO.C,SW10*%
X127000000Y-93000000D03*
X133500000Y-93000000D03*
X127000000Y-97500000D03*
X133500000Y-97500000D03*
%TD*%
D16*
%TO.C,RV3*%
X115700000Y-45500000D03*
X125300000Y-45500000D03*
D17*
X118000000Y-53000000D03*
D18*
X120500000Y-53000000D03*
X123000000Y-53000000D03*
%TD*%
D19*
%TO.C,J2*%
X96000000Y-130400000D03*
D20*
X96000000Y-119000000D03*
X96000000Y-127300000D03*
%TD*%
D19*
%TO.C,J13*%
X132000000Y-130400000D03*
D20*
X132000000Y-119000000D03*
X132000000Y-127300000D03*
%TD*%
D16*
%TO.C,RV8*%
X134700000Y-65500000D03*
X144300000Y-65500000D03*
D17*
X137000000Y-73000000D03*
D18*
X139500000Y-73000000D03*
X142000000Y-73000000D03*
%TD*%
D19*
%TO.C,J12*%
X120000000Y-130400000D03*
D20*
X120000000Y-119000000D03*
X120000000Y-127300000D03*
%TD*%
D15*
%TO.C,SW3*%
X97000000Y-81000000D03*
X103500000Y-81000000D03*
X97000000Y-85500000D03*
X103500000Y-85500000D03*
%TD*%
D21*
%TO.C,H1*%
X74000000Y-56000000D03*
%TD*%
D19*
%TO.C,J11*%
X144000000Y-146400000D03*
D20*
X144000000Y-135000000D03*
X144000000Y-143300000D03*
%TD*%
D16*
%TO.C,RV4*%
X134700000Y-45500000D03*
X144300000Y-45500000D03*
D17*
X137000000Y-53000000D03*
D18*
X139500000Y-53000000D03*
X142000000Y-53000000D03*
%TD*%
D16*
%TO.C,RV1*%
X77700000Y-45500000D03*
X87300000Y-45500000D03*
D17*
X80000000Y-53000000D03*
D18*
X82500000Y-53000000D03*
X85000000Y-53000000D03*
%TD*%
D16*
%TO.C,RV10*%
X172700000Y-45500000D03*
X182300000Y-45500000D03*
D17*
X175000000Y-53000000D03*
D18*
X177500000Y-53000000D03*
X180000000Y-53000000D03*
%TD*%
D19*
%TO.C,J4*%
X84000000Y-130400000D03*
D20*
X84000000Y-119000000D03*
X84000000Y-127300000D03*
%TD*%
D19*
%TO.C,J14*%
X120000000Y-146400000D03*
D20*
X120000000Y-135000000D03*
X120000000Y-143300000D03*
%TD*%
D19*
%TO.C,J15*%
X132000000Y-146400000D03*
D20*
X132000000Y-135000000D03*
X132000000Y-143300000D03*
%TD*%
D15*
%TO.C,SW5*%
X117000000Y-81000000D03*
X123500000Y-81000000D03*
X117000000Y-85500000D03*
X123500000Y-85500000D03*
%TD*%
%TO.C,SW8*%
X107000000Y-93000000D03*
X113500000Y-93000000D03*
X107000000Y-97500000D03*
X113500000Y-97500000D03*
%TD*%
D16*
%TO.C,RV7*%
X115700000Y-65500000D03*
X125300000Y-65500000D03*
D17*
X118000000Y-73000000D03*
D18*
X120500000Y-73000000D03*
X123000000Y-73000000D03*
%TD*%
D22*
%TO.C,U3*%
X154000000Y-93000000D03*
D23*
X156540000Y-93000000D03*
X159080000Y-93000000D03*
X161620000Y-93000000D03*
X164160000Y-93000000D03*
X166700000Y-93000000D03*
X166700000Y-82840000D03*
X164160000Y-82840000D03*
X161620000Y-82840000D03*
X159080000Y-82840000D03*
X156540000Y-82840000D03*
X154000000Y-82840000D03*
%TD*%
D24*
%TO.C,J6*%
X180400000Y-91700000D03*
X179300000Y-90600000D03*
X180400000Y-89500000D03*
X179300000Y-88400000D03*
X180400000Y-87300000D03*
X179300000Y-86200000D03*
X180400000Y-85100000D03*
X179300000Y-84000000D03*
D25*
X183570000Y-92150000D03*
X183570000Y-83550000D03*
%TD*%
D17*
%TO.C,D3*%
X157000000Y-134100000D03*
D18*
X159540000Y-134100000D03*
%TD*%
D16*
%TO.C,RV11*%
X153700000Y-65500000D03*
X163300000Y-65500000D03*
D17*
X156000000Y-73000000D03*
D18*
X158500000Y-73000000D03*
X161000000Y-73000000D03*
%TD*%
D16*
%TO.C,RV9*%
X153700000Y-45500000D03*
X163300000Y-45500000D03*
D17*
X156000000Y-53000000D03*
D18*
X158500000Y-53000000D03*
X161000000Y-53000000D03*
%TD*%
D19*
%TO.C,J8*%
X96000000Y-146400000D03*
D20*
X96000000Y-135000000D03*
X96000000Y-143300000D03*
%TD*%
D15*
%TO.C,SW17*%
X162000000Y-105000000D03*
X168500000Y-105000000D03*
X162000000Y-109500000D03*
X168500000Y-109500000D03*
%TD*%
%TO.C,SW15*%
X142000000Y-105000000D03*
X148500000Y-105000000D03*
X142000000Y-109500000D03*
X148500000Y-109500000D03*
%TD*%
D21*
%TO.C,H2*%
X186000000Y-56000000D03*
%TD*%
D15*
%TO.C,SW9*%
X117000000Y-93000000D03*
X123500000Y-93000000D03*
X117000000Y-97500000D03*
X123500000Y-97500000D03*
%TD*%
D17*
%TO.C,D2*%
X157000000Y-128550000D03*
D18*
X159540000Y-128550000D03*
%TD*%
D17*
%TO.C,D1*%
X157000000Y-123000000D03*
D18*
X159540000Y-123000000D03*
%TD*%
D15*
%TO.C,SW12*%
X107000000Y-105000000D03*
X113500000Y-105000000D03*
X107000000Y-109500000D03*
X113500000Y-109500000D03*
%TD*%
D19*
%TO.C,J5*%
X144000000Y-130400000D03*
D20*
X144000000Y-119000000D03*
X144000000Y-127300000D03*
%TD*%
D15*
%TO.C,SW14*%
X127000000Y-105000000D03*
X133500000Y-105000000D03*
X127000000Y-109500000D03*
X133500000Y-109500000D03*
%TD*%
D21*
%TO.C,H3*%
X74000000Y-128000000D03*
%TD*%
D17*
%TO.C,D4*%
X157000000Y-139650000D03*
D18*
X159540000Y-139650000D03*
%TD*%
D15*
%TO.C,SW6*%
X127000000Y-81000000D03*
X133500000Y-81000000D03*
X127000000Y-85500000D03*
X133500000Y-85500000D03*
%TD*%
D16*
%TO.C,RV12*%
X172700000Y-65500000D03*
X182300000Y-65500000D03*
D17*
X175000000Y-73000000D03*
D18*
X177500000Y-73000000D03*
X180000000Y-73000000D03*
%TD*%
D21*
%TO.C,H4*%
X186000000Y-128000000D03*
%TD*%
D19*
%TO.C,J9*%
X108000000Y-146400000D03*
D20*
X108000000Y-135000000D03*
X108000000Y-143300000D03*
%TD*%
D16*
%TO.C,RV6*%
X96700000Y-65500000D03*
X106300000Y-65500000D03*
D17*
X99000000Y-73000000D03*
D18*
X101500000Y-73000000D03*
X104000000Y-73000000D03*
%TD*%
D26*
%TO.C,SW1*%
X80000000Y-85000000D03*
X92500000Y-85000000D03*
X80000000Y-90000000D03*
X92500000Y-90000000D03*
%TD*%
D15*
%TO.C,SW11*%
X97000000Y-105000000D03*
X103500000Y-105000000D03*
X97000000Y-109500000D03*
X103500000Y-109500000D03*
%TD*%
D19*
%TO.C,J3*%
X108000000Y-130400000D03*
D20*
X108000000Y-119000000D03*
X108000000Y-127300000D03*
%TD*%
D16*
%TO.C,RV5*%
X77700000Y-65500000D03*
X87300000Y-65500000D03*
D17*
X80000000Y-73000000D03*
D18*
X82500000Y-73000000D03*
X85000000Y-73000000D03*
%TD*%
D15*
%TO.C,SW7*%
X97000000Y-93000000D03*
X103500000Y-93000000D03*
X97000000Y-97500000D03*
X103500000Y-97500000D03*
%TD*%
D16*
%TO.C,RV2*%
X96700000Y-45500000D03*
X106300000Y-45500000D03*
D17*
X99000000Y-53000000D03*
D18*
X101500000Y-53000000D03*
X104000000Y-53000000D03*
%TD*%
D15*
%TO.C,SW13*%
X117000000Y-105000000D03*
X123500000Y-105000000D03*
X117000000Y-109500000D03*
X123500000Y-109500000D03*
%TD*%
%TO.C,SW18*%
X172000000Y-105000000D03*
X178500000Y-105000000D03*
X172000000Y-109500000D03*
X178500000Y-109500000D03*
%TD*%
D19*
%TO.C,J10*%
X84000000Y-146400000D03*
D20*
X84000000Y-135000000D03*
X84000000Y-143300000D03*
%TD*%
D26*
%TO.C,SW2*%
X80000000Y-101000000D03*
X92500000Y-101000000D03*
X80000000Y-106000000D03*
X92500000Y-106000000D03*
%TD*%
D15*
%TO.C,SW16*%
X152000000Y-105000000D03*
X158500000Y-105000000D03*
X152000000Y-109500000D03*
X158500000Y-109500000D03*
%TD*%
D27*
%TO.C,J1*%
X74000000Y-77820000D03*
D28*
X74000000Y-80360000D03*
X74000000Y-82900000D03*
X74000000Y-85440000D03*
X74000000Y-87980000D03*
X74000000Y-90520000D03*
X74000000Y-93060000D03*
X74000000Y-95600000D03*
X74000000Y-98140000D03*
X74000000Y-100680000D03*
X74000000Y-103220000D03*
X74000000Y-105760000D03*
X74000000Y-108300000D03*
X74000000Y-110840000D03*
X74000000Y-113380000D03*
X74000000Y-115920000D03*
X74000000Y-118460000D03*
X74000000Y-121000000D03*
%TD*%
D27*
%TO.C,J7*%
X186000000Y-78820000D03*
D28*
X186000000Y-81360000D03*
X186000000Y-83900000D03*
X186000000Y-86440000D03*
X186000000Y-88980000D03*
X186000000Y-91520000D03*
X186000000Y-94060000D03*
X186000000Y-96600000D03*
X186000000Y-99140000D03*
X186000000Y-101680000D03*
X186000000Y-104220000D03*
X186000000Y-106760000D03*
X186000000Y-109300000D03*
X186000000Y-111840000D03*
X186000000Y-114380000D03*
X186000000Y-116920000D03*
X186000000Y-119460000D03*
X186000000Y-122000000D03*
%TD*%
%LPD*%
M02*
