%TF.GenerationSoftware,KiCad,Pcbnew,7.0.2*%
%TF.CreationDate,2023-08-30T17:10:08+01:00*%
%TF.ProjectId,dk2_02_top,646b325f-3032-45f7-946f-702e6b696361,rev?*%
%TF.SameCoordinates,Original*%
%TF.FileFunction,Copper,L2,Bot*%
%TF.FilePolarity,Positive*%
%FSLAX46Y46*%
G04 Gerber Fmt 4.6, Leading zero omitted, Abs format (unit mm)*
G04 Created by KiCad (PCBNEW 7.0.2) date 2023-08-30 17:10:08*
%MOMM*%
%LPD*%
G01*
G04 APERTURE LIST*
G04 Aperture macros list*
%AMRoundRect*
0 Rectangle with rounded corners*
0 $1 Rounding radius*
0 $2 $3 $4 $5 $6 $7 $8 $9 X,Y pos of 4 corners*
0 Add a 4 corners polygon primitive as box body*
4,1,4,$2,$3,$4,$5,$6,$7,$8,$9,$2,$3,0*
0 Add four circle primitives for the rounded corners*
1,1,$1+$1,$2,$3*
1,1,$1+$1,$4,$5*
1,1,$1+$1,$6,$7*
1,1,$1+$1,$8,$9*
0 Add four rect primitives between the rounded corners*
20,1,$1+$1,$2,$3,$4,$5,0*
20,1,$1+$1,$4,$5,$6,$7,0*
20,1,$1+$1,$6,$7,$8,$9,0*
20,1,$1+$1,$8,$9,$2,$3,0*%
G04 Aperture macros list end*
%TA.AperFunction,ComponentPad*%
%ADD10C,2.000000*%
%TD*%
%TA.AperFunction,ComponentPad*%
%ADD11O,2.720000X3.240000*%
%TD*%
%TA.AperFunction,ComponentPad*%
%ADD12R,1.800000X1.800000*%
%TD*%
%TA.AperFunction,ComponentPad*%
%ADD13C,1.800000*%
%TD*%
%TA.AperFunction,ComponentPad*%
%ADD14O,3.100000X2.300000*%
%TD*%
%TA.AperFunction,ComponentPad*%
%ADD15RoundRect,0.650000X-0.650000X-0.650000X0.650000X-0.650000X0.650000X0.650000X-0.650000X0.650000X0*%
%TD*%
%TA.AperFunction,ComponentPad*%
%ADD16R,1.500000X1.500000*%
%TD*%
%TA.AperFunction,ComponentPad*%
%ADD17C,1.500000*%
%TD*%
%TA.AperFunction,ComponentPad*%
%ADD18C,1.050000*%
%TD*%
%TA.AperFunction,ComponentPad*%
%ADD19R,1.350000X1.350000*%
%TD*%
%TA.AperFunction,ComponentPad*%
%ADD20O,3.048000X1.850000*%
%TD*%
%TA.AperFunction,SMDPad,CuDef*%
%ADD21RoundRect,0.200000X0.200000X0.275000X-0.200000X0.275000X-0.200000X-0.275000X0.200000X-0.275000X0*%
%TD*%
%TA.AperFunction,SMDPad,CuDef*%
%ADD22RoundRect,0.200000X-0.275000X0.200000X-0.275000X-0.200000X0.275000X-0.200000X0.275000X0.200000X0*%
%TD*%
%TA.AperFunction,ComponentPad*%
%ADD23R,1.700000X1.700000*%
%TD*%
%TA.AperFunction,ComponentPad*%
%ADD24O,1.700000X1.700000*%
%TD*%
%TA.AperFunction,SMDPad,CuDef*%
%ADD25RoundRect,0.200000X0.275000X-0.200000X0.275000X0.200000X-0.275000X0.200000X-0.275000X-0.200000X0*%
%TD*%
%TA.AperFunction,SMDPad,CuDef*%
%ADD26RoundRect,0.150000X0.825000X0.150000X-0.825000X0.150000X-0.825000X-0.150000X0.825000X-0.150000X0*%
%TD*%
%TA.AperFunction,SMDPad,CuDef*%
%ADD27RoundRect,0.200000X-0.200000X-0.275000X0.200000X-0.275000X0.200000X0.275000X-0.200000X0.275000X0*%
%TD*%
%TA.AperFunction,SMDPad,CuDef*%
%ADD28RoundRect,0.225000X0.225000X0.250000X-0.225000X0.250000X-0.225000X-0.250000X0.225000X-0.250000X0*%
%TD*%
%TA.AperFunction,SMDPad,CuDef*%
%ADD29RoundRect,0.150000X-0.150000X0.825000X-0.150000X-0.825000X0.150000X-0.825000X0.150000X0.825000X0*%
%TD*%
%TA.AperFunction,ViaPad*%
%ADD30C,0.800000*%
%TD*%
%TA.AperFunction,Conductor*%
%ADD31C,0.250000*%
%TD*%
%TA.AperFunction,Conductor*%
%ADD32C,0.500000*%
%TD*%
G04 APERTURE END LIST*
D10*
%TO.P,SW4,1,1*%
%TO.N,+3.3V*%
X107000000Y-81000000D03*
X113500000Y-81000000D03*
%TO.P,SW4,2,2*%
%TO.N,Net-(U4-D1)*%
X107000000Y-85500000D03*
X113500000Y-85500000D03*
%TD*%
%TO.P,SW10,1,1*%
%TO.N,+3.3V*%
X127000000Y-93000000D03*
X133500000Y-93000000D03*
%TO.P,SW10,2,2*%
%TO.N,Net-(U4-D7)*%
X127000000Y-97500000D03*
X133500000Y-97500000D03*
%TD*%
D11*
%TO.P,RV3,*%
%TO.N,*%
X115700000Y-45500000D03*
X125300000Y-45500000D03*
D12*
%TO.P,RV3,1,1*%
%TO.N,+3.3V*%
X118000000Y-53000000D03*
D13*
%TO.P,RV3,2,2*%
%TO.N,Net-(U6-A2)*%
X120500000Y-53000000D03*
%TO.P,RV3,3,3*%
%TO.N,GND*%
X123000000Y-53000000D03*
%TD*%
D14*
%TO.P,J2,S*%
%TO.N,GND*%
X96000000Y-130400000D03*
D15*
%TO.P,J2,T*%
%TO.N,TRIGGER_OUT_1_EURO*%
X96000000Y-119000000D03*
%TO.P,J2,TN*%
%TO.N,unconnected-(J2-PadTN)*%
X96000000Y-127300000D03*
%TD*%
D14*
%TO.P,J13,S*%
%TO.N,GND*%
X132000000Y-130400000D03*
D15*
%TO.P,J13,T*%
%TO.N,Net-(J13-PadT)*%
X132000000Y-119000000D03*
%TO.P,J13,TN*%
%TO.N,GND*%
X132000000Y-127300000D03*
%TD*%
D11*
%TO.P,RV8,*%
%TO.N,*%
X134700000Y-65500000D03*
X144300000Y-65500000D03*
D12*
%TO.P,RV8,1,1*%
%TO.N,+3.3V*%
X137000000Y-73000000D03*
D13*
%TO.P,RV8,2,2*%
%TO.N,Net-(U6-A7)*%
X139500000Y-73000000D03*
%TO.P,RV8,3,3*%
%TO.N,GND*%
X142000000Y-73000000D03*
%TD*%
D14*
%TO.P,J12,S*%
%TO.N,GND*%
X120000000Y-130400000D03*
D15*
%TO.P,J12,T*%
%TO.N,Net-(J12-PadT)*%
X120000000Y-119000000D03*
%TO.P,J12,TN*%
%TO.N,GND*%
X120000000Y-127300000D03*
%TD*%
D10*
%TO.P,SW3,1,1*%
%TO.N,+3.3V*%
X97000000Y-81000000D03*
X103500000Y-81000000D03*
%TO.P,SW3,2,2*%
%TO.N,Net-(U4-D0)*%
X97000000Y-85500000D03*
X103500000Y-85500000D03*
%TD*%
D14*
%TO.P,J11,S*%
%TO.N,GND*%
X144000000Y-146400000D03*
D15*
%TO.P,J11,T*%
%TO.N,EURO_OUT_2*%
X144000000Y-135000000D03*
%TO.P,J11,TN*%
%TO.N,unconnected-(J11-PadTN)*%
X144000000Y-143300000D03*
%TD*%
D11*
%TO.P,RV4,*%
%TO.N,*%
X134700000Y-45500000D03*
X144300000Y-45500000D03*
D12*
%TO.P,RV4,1,1*%
%TO.N,+3.3V*%
X137000000Y-53000000D03*
D13*
%TO.P,RV4,2,2*%
%TO.N,Net-(U6-A3)*%
X139500000Y-53000000D03*
%TO.P,RV4,3,3*%
%TO.N,GND*%
X142000000Y-53000000D03*
%TD*%
D11*
%TO.P,RV1,*%
%TO.N,*%
X77700000Y-45500000D03*
X87300000Y-45500000D03*
D12*
%TO.P,RV1,1,1*%
%TO.N,+3.3V*%
X80000000Y-53000000D03*
D13*
%TO.P,RV1,2,2*%
%TO.N,Net-(U6-A0)*%
X82500000Y-53000000D03*
%TO.P,RV1,3,3*%
%TO.N,GND*%
X85000000Y-53000000D03*
%TD*%
D11*
%TO.P,RV10,*%
%TO.N,*%
X172700000Y-45500000D03*
X182300000Y-45500000D03*
D12*
%TO.P,RV10,1,1*%
%TO.N,+3.3V*%
X175000000Y-53000000D03*
D13*
%TO.P,RV10,2,2*%
%TO.N,Net-(U9-A1)*%
X177500000Y-53000000D03*
%TO.P,RV10,3,3*%
%TO.N,GND*%
X180000000Y-53000000D03*
%TD*%
D14*
%TO.P,J4,S*%
%TO.N,GND*%
X84000000Y-130400000D03*
D15*
%TO.P,J4,T*%
%TO.N,SYNC_IN_EURO*%
X84000000Y-119000000D03*
%TO.P,J4,TN*%
%TO.N,unconnected-(J4-PadTN)*%
X84000000Y-127300000D03*
%TD*%
D14*
%TO.P,J14,S*%
%TO.N,GND*%
X120000000Y-146400000D03*
D15*
%TO.P,J14,T*%
%TO.N,Net-(J14-PadT)*%
X120000000Y-135000000D03*
%TO.P,J14,TN*%
%TO.N,GND*%
X120000000Y-143300000D03*
%TD*%
D14*
%TO.P,J15,S*%
%TO.N,GND*%
X132000000Y-146400000D03*
D15*
%TO.P,J15,T*%
%TO.N,Net-(J15-PadT)*%
X132000000Y-135000000D03*
%TO.P,J15,TN*%
%TO.N,GND*%
X132000000Y-143300000D03*
%TD*%
D10*
%TO.P,SW5,1,1*%
%TO.N,+3.3V*%
X117000000Y-81000000D03*
X123500000Y-81000000D03*
%TO.P,SW5,2,2*%
%TO.N,Net-(U4-D2)*%
X117000000Y-85500000D03*
X123500000Y-85500000D03*
%TD*%
%TO.P,SW8,1,1*%
%TO.N,+3.3V*%
X107000000Y-93000000D03*
X113500000Y-93000000D03*
%TO.P,SW8,2,2*%
%TO.N,Net-(U4-D5)*%
X107000000Y-97500000D03*
X113500000Y-97500000D03*
%TD*%
D11*
%TO.P,RV7,*%
%TO.N,*%
X115700000Y-65500000D03*
X125300000Y-65500000D03*
D12*
%TO.P,RV7,1,1*%
%TO.N,+3.3V*%
X118000000Y-73000000D03*
D13*
%TO.P,RV7,2,2*%
%TO.N,Net-(U6-A6)*%
X120500000Y-73000000D03*
%TO.P,RV7,3,3*%
%TO.N,GND*%
X123000000Y-73000000D03*
%TD*%
D16*
%TO.P,U3,1,e*%
%TO.N,Net-(U3-e)*%
X154000000Y-93000000D03*
D17*
%TO.P,U3,2,d*%
%TO.N,Net-(U3-d)*%
X156540000Y-93000000D03*
%TO.P,U3,3,DPX*%
%TO.N,Net-(U3-DPX)*%
X159080000Y-93000000D03*
%TO.P,U3,4,c*%
%TO.N,Net-(U3-c)*%
X161620000Y-93000000D03*
%TO.P,U3,5,g*%
%TO.N,Net-(U3-g)*%
X164160000Y-93000000D03*
%TO.P,U3,6,CA4*%
%TO.N,Net-(U2-QD)*%
X166700000Y-93000000D03*
%TO.P,U3,7,b*%
%TO.N,Net-(U3-b)*%
X166700000Y-82840000D03*
%TO.P,U3,8,CA3*%
%TO.N,Net-(U2-QC)*%
X164160000Y-82840000D03*
%TO.P,U3,9,CA2*%
%TO.N,Net-(U2-QB)*%
X161620000Y-82840000D03*
%TO.P,U3,10,f*%
%TO.N,Net-(U3-f)*%
X159080000Y-82840000D03*
%TO.P,U3,11,a*%
%TO.N,Net-(U3-a)*%
X156540000Y-82840000D03*
%TO.P,U3,12,CA1*%
%TO.N,Net-(U2-QA)*%
X154000000Y-82840000D03*
%TD*%
D18*
%TO.P,J6,1,DAT2*%
%TO.N,unconnected-(J6-DAT2-Pad1)*%
X180400000Y-91700000D03*
%TO.P,J6,2,DAT3/CD*%
%TO.N,SD_CHIP_SELECT*%
X179300000Y-90600000D03*
%TO.P,J6,3,CMD*%
%TO.N,SD_SERIAL_IN*%
X180400000Y-89500000D03*
%TO.P,J6,4,VDD*%
%TO.N,+3.3V*%
X179300000Y-88400000D03*
%TO.P,J6,5,CLK*%
%TO.N,SD_CLOCK*%
X180400000Y-87300000D03*
%TO.P,J6,6,VSS*%
%TO.N,GND*%
X179300000Y-86200000D03*
%TO.P,J6,7,DAT0*%
%TO.N,SD_SERIAL_OUT*%
X180400000Y-85100000D03*
%TO.P,J6,8,DAT1*%
%TO.N,unconnected-(J6-DAT1-Pad8)*%
X179300000Y-84000000D03*
D19*
%TO.P,J6,9,SHIELD*%
%TO.N,GND*%
X183570000Y-92150000D03*
X183570000Y-83550000D03*
%TD*%
D12*
%TO.P,D3,1,K*%
%TO.N,GND*%
X157000000Y-134100000D03*
D13*
%TO.P,D3,2,A*%
%TO.N,Net-(D3-A)*%
X159540000Y-134100000D03*
%TD*%
D11*
%TO.P,RV11,*%
%TO.N,*%
X153700000Y-65500000D03*
X163300000Y-65500000D03*
D12*
%TO.P,RV11,1,1*%
%TO.N,+3.3V*%
X156000000Y-73000000D03*
D13*
%TO.P,RV11,2,2*%
%TO.N,Net-(U9-A2)*%
X158500000Y-73000000D03*
%TO.P,RV11,3,3*%
%TO.N,GND*%
X161000000Y-73000000D03*
%TD*%
D11*
%TO.P,RV9,*%
%TO.N,*%
X153700000Y-45500000D03*
X163300000Y-45500000D03*
D12*
%TO.P,RV9,1,1*%
%TO.N,+3.3V*%
X156000000Y-53000000D03*
D13*
%TO.P,RV9,2,2*%
%TO.N,Net-(U9-A0)*%
X158500000Y-53000000D03*
%TO.P,RV9,3,3*%
%TO.N,GND*%
X161000000Y-53000000D03*
%TD*%
D14*
%TO.P,J8,S*%
%TO.N,GND*%
X96000000Y-146400000D03*
D15*
%TO.P,J8,T*%
%TO.N,TRIGGER_OUT_3_EURO*%
X96000000Y-135000000D03*
%TO.P,J8,TN*%
%TO.N,unconnected-(J8-PadTN)*%
X96000000Y-143300000D03*
%TD*%
D10*
%TO.P,SW17,1,1*%
%TO.N,+3.3V*%
X162000000Y-105000000D03*
X168500000Y-105000000D03*
%TO.P,SW17,2,2*%
%TO.N,Net-(U5-D6)*%
X162000000Y-109500000D03*
X168500000Y-109500000D03*
%TD*%
%TO.P,SW15,1,1*%
%TO.N,+3.3V*%
X142000000Y-105000000D03*
X148500000Y-105000000D03*
%TO.P,SW15,2,2*%
%TO.N,Net-(U5-D4)*%
X142000000Y-109500000D03*
X148500000Y-109500000D03*
%TD*%
%TO.P,SW9,1,1*%
%TO.N,+3.3V*%
X117000000Y-93000000D03*
X123500000Y-93000000D03*
%TO.P,SW9,2,2*%
%TO.N,Net-(U4-D6)*%
X117000000Y-97500000D03*
X123500000Y-97500000D03*
%TD*%
D12*
%TO.P,D2,1,K*%
%TO.N,GND*%
X157000000Y-128550000D03*
D13*
%TO.P,D2,2,A*%
%TO.N,Net-(D2-A)*%
X159540000Y-128550000D03*
%TD*%
D12*
%TO.P,D1,1,K*%
%TO.N,GND*%
X157000000Y-123000000D03*
D13*
%TO.P,D1,2,A*%
%TO.N,Net-(D1-A)*%
X159540000Y-123000000D03*
%TD*%
D10*
%TO.P,SW12,1,1*%
%TO.N,+3.3V*%
X107000000Y-105000000D03*
X113500000Y-105000000D03*
%TO.P,SW12,2,2*%
%TO.N,Net-(U5-D1)*%
X107000000Y-109500000D03*
X113500000Y-109500000D03*
%TD*%
D14*
%TO.P,J5,S*%
%TO.N,GND*%
X144000000Y-130400000D03*
D15*
%TO.P,J5,T*%
%TO.N,EURO_OUT_1*%
X144000000Y-119000000D03*
%TO.P,J5,TN*%
%TO.N,unconnected-(J5-PadTN)*%
X144000000Y-127300000D03*
%TD*%
D10*
%TO.P,SW14,1,1*%
%TO.N,+3.3V*%
X127000000Y-105000000D03*
X133500000Y-105000000D03*
%TO.P,SW14,2,2*%
%TO.N,Net-(U5-D3)*%
X127000000Y-109500000D03*
X133500000Y-109500000D03*
%TD*%
D12*
%TO.P,D4,1,K*%
%TO.N,GND*%
X157000000Y-139650000D03*
D13*
%TO.P,D4,2,A*%
%TO.N,Net-(D4-A)*%
X159540000Y-139650000D03*
%TD*%
D10*
%TO.P,SW6,1,1*%
%TO.N,+3.3V*%
X127000000Y-81000000D03*
X133500000Y-81000000D03*
%TO.P,SW6,2,2*%
%TO.N,Net-(U4-D3)*%
X127000000Y-85500000D03*
X133500000Y-85500000D03*
%TD*%
D11*
%TO.P,RV12,*%
%TO.N,*%
X172700000Y-65500000D03*
X182300000Y-65500000D03*
D12*
%TO.P,RV12,1,1*%
%TO.N,+3.3V*%
X175000000Y-73000000D03*
D13*
%TO.P,RV12,2,2*%
%TO.N,Net-(U9-A3)*%
X177500000Y-73000000D03*
%TO.P,RV12,3,3*%
%TO.N,GND*%
X180000000Y-73000000D03*
%TD*%
D14*
%TO.P,J9,S*%
%TO.N,GND*%
X108000000Y-146400000D03*
D15*
%TO.P,J9,T*%
%TO.N,TRIGGER_OUT_4_EURO*%
X108000000Y-135000000D03*
%TO.P,J9,TN*%
%TO.N,unconnected-(J9-PadTN)*%
X108000000Y-143300000D03*
%TD*%
D11*
%TO.P,RV6,*%
%TO.N,*%
X96700000Y-65500000D03*
X106300000Y-65500000D03*
D12*
%TO.P,RV6,1,1*%
%TO.N,+3.3V*%
X99000000Y-73000000D03*
D13*
%TO.P,RV6,2,2*%
%TO.N,Net-(U6-A5)*%
X101500000Y-73000000D03*
%TO.P,RV6,3,3*%
%TO.N,GND*%
X104000000Y-73000000D03*
%TD*%
D20*
%TO.P,SW1,1,1*%
%TO.N,GND*%
X80000000Y-85000000D03*
X92500000Y-85000000D03*
%TO.P,SW1,2,2*%
%TO.N,START_STOP_BUTTON*%
X80000000Y-90000000D03*
X92500000Y-90000000D03*
%TD*%
D10*
%TO.P,SW11,1,1*%
%TO.N,+3.3V*%
X97000000Y-105000000D03*
X103500000Y-105000000D03*
%TO.P,SW11,2,2*%
%TO.N,Net-(U5-D0)*%
X97000000Y-109500000D03*
X103500000Y-109500000D03*
%TD*%
D14*
%TO.P,J3,S*%
%TO.N,GND*%
X108000000Y-130400000D03*
D15*
%TO.P,J3,T*%
%TO.N,TRIGGER_OUT_2_EURO*%
X108000000Y-119000000D03*
%TO.P,J3,TN*%
%TO.N,unconnected-(J3-PadTN)*%
X108000000Y-127300000D03*
%TD*%
D11*
%TO.P,RV5,*%
%TO.N,*%
X77700000Y-65500000D03*
X87300000Y-65500000D03*
D12*
%TO.P,RV5,1,1*%
%TO.N,+3.3V*%
X80000000Y-73000000D03*
D13*
%TO.P,RV5,2,2*%
%TO.N,Net-(U6-A4)*%
X82500000Y-73000000D03*
%TO.P,RV5,3,3*%
%TO.N,GND*%
X85000000Y-73000000D03*
%TD*%
D10*
%TO.P,SW7,1,1*%
%TO.N,+3.3V*%
X97000000Y-93000000D03*
X103500000Y-93000000D03*
%TO.P,SW7,2,2*%
%TO.N,Net-(U4-D4)*%
X97000000Y-97500000D03*
X103500000Y-97500000D03*
%TD*%
D11*
%TO.P,RV2,*%
%TO.N,*%
X96700000Y-45500000D03*
X106300000Y-45500000D03*
D12*
%TO.P,RV2,1,1*%
%TO.N,+3.3V*%
X99000000Y-53000000D03*
D13*
%TO.P,RV2,2,2*%
%TO.N,Net-(U6-A1)*%
X101500000Y-53000000D03*
%TO.P,RV2,3,3*%
%TO.N,GND*%
X104000000Y-53000000D03*
%TD*%
D10*
%TO.P,SW13,1,1*%
%TO.N,+3.3V*%
X117000000Y-105000000D03*
X123500000Y-105000000D03*
%TO.P,SW13,2,2*%
%TO.N,Net-(U5-D2)*%
X117000000Y-109500000D03*
X123500000Y-109500000D03*
%TD*%
%TO.P,SW18,1,1*%
%TO.N,+3.3V*%
X172000000Y-105000000D03*
X178500000Y-105000000D03*
%TO.P,SW18,2,2*%
%TO.N,Net-(U5-D7)*%
X172000000Y-109500000D03*
X178500000Y-109500000D03*
%TD*%
D14*
%TO.P,J10,S*%
%TO.N,GND*%
X84000000Y-146400000D03*
D15*
%TO.P,J10,T*%
%TO.N,SYNC_OUT_EURO*%
X84000000Y-135000000D03*
%TO.P,J10,TN*%
%TO.N,unconnected-(J10-PadTN)*%
X84000000Y-143300000D03*
%TD*%
D20*
%TO.P,SW2,1,1*%
%TO.N,GND*%
X80000000Y-101000000D03*
X92500000Y-101000000D03*
%TO.P,SW2,2,2*%
%TO.N,TAP_TEMPO_BUTTON*%
X80000000Y-106000000D03*
X92500000Y-106000000D03*
%TD*%
D10*
%TO.P,SW16,1,1*%
%TO.N,+3.3V*%
X152000000Y-105000000D03*
X158500000Y-105000000D03*
%TO.P,SW16,2,2*%
%TO.N,Net-(U5-D5)*%
X152000000Y-109500000D03*
X158500000Y-109500000D03*
%TD*%
D21*
%TO.P,R27,1*%
%TO.N,Net-(U5-D6)*%
X163350000Y-107500000D03*
%TO.P,R27,2*%
%TO.N,GND*%
X161700000Y-107500000D03*
%TD*%
%TO.P,R29,1*%
%TO.N,-12V*%
X177100000Y-138400000D03*
%TO.P,R29,2*%
%TO.N,Net-(U7A--)*%
X175450000Y-138400000D03*
%TD*%
D22*
%TO.P,R1,1*%
%TO.N,Net-(D1-A)*%
X162000000Y-122175000D03*
%TO.P,R1,2*%
%TO.N,Net-(U2-QE)*%
X162000000Y-123825000D03*
%TD*%
D21*
%TO.P,R17,1*%
%TO.N,Net-(U4-D4)*%
X101000000Y-97000000D03*
%TO.P,R17,2*%
%TO.N,GND*%
X99350000Y-97000000D03*
%TD*%
%TO.P,R18,1*%
%TO.N,Net-(U4-D5)*%
X111000000Y-97000000D03*
%TO.P,R18,2*%
%TO.N,GND*%
X109350000Y-97000000D03*
%TD*%
D23*
%TO.P,J1,1,Pin_1*%
%TO.N,unconnected-(J1-Pin_1-Pad1)*%
X74000000Y-77820000D03*
D24*
%TO.P,J1,2,Pin_2*%
%TO.N,unconnected-(J1-Pin_2-Pad2)*%
X74000000Y-80360000D03*
%TO.P,J1,3,Pin_3*%
%TO.N,unconnected-(J1-Pin_3-Pad3)*%
X74000000Y-82900000D03*
%TO.P,J1,4,Pin_4*%
%TO.N,START_STOP_BUTTON*%
X74000000Y-85440000D03*
%TO.P,J1,5,Pin_5*%
%TO.N,TAP_TEMPO_BUTTON*%
X74000000Y-87980000D03*
%TO.P,J1,6,Pin_6*%
%TO.N,165_LOAD*%
X74000000Y-90520000D03*
%TO.P,J1,7,Pin_7*%
%TO.N,165_CLOCK*%
X74000000Y-93060000D03*
%TO.P,J1,8,Pin_8*%
%TO.N,165_DATA*%
X74000000Y-95600000D03*
%TO.P,J1,9,Pin_9*%
%TO.N,TRIGGER_OUT_1_EURO*%
X74000000Y-98140000D03*
%TO.P,J1,10,Pin_10*%
%TO.N,TRIGGER_OUT_2_EURO*%
X74000000Y-100680000D03*
%TO.P,J1,11,Pin_11*%
%TO.N,TRIGGER_OUT_3_EURO*%
X74000000Y-103220000D03*
%TO.P,J1,12,Pin_12*%
%TO.N,TRIGGER_OUT_4_EURO*%
X74000000Y-105760000D03*
%TO.P,J1,13,Pin_13*%
%TO.N,SYNC_IN_EURO*%
X74000000Y-108300000D03*
%TO.P,J1,14,Pin_14*%
%TO.N,SYNC_OUT_EURO*%
X74000000Y-110840000D03*
%TO.P,J1,15,Pin_15*%
%TO.N,unconnected-(J1-Pin_15-Pad15)*%
X74000000Y-113380000D03*
%TO.P,J1,16,Pin_16*%
%TO.N,+3.3V*%
X74000000Y-115920000D03*
%TO.P,J1,17,Pin_17*%
%TO.N,GND*%
X74000000Y-118460000D03*
%TO.P,J1,18,Pin_18*%
%TO.N,unconnected-(J1-Pin_18-Pad18)*%
X74000000Y-121000000D03*
%TD*%
D22*
%TO.P,R8,1*%
%TO.N,Net-(U3-d)*%
X156210000Y-95250000D03*
%TO.P,R8,2*%
%TO.N,Net-(U1-QD)*%
X156210000Y-96900000D03*
%TD*%
D21*
%TO.P,R13,1*%
%TO.N,Net-(U4-D0)*%
X101000000Y-85000000D03*
%TO.P,R13,2*%
%TO.N,GND*%
X99350000Y-85000000D03*
%TD*%
%TO.P,R35,1*%
%TO.N,-12V*%
X177200000Y-122200000D03*
%TO.P,R35,2*%
%TO.N,Net-(U8A--)*%
X175550000Y-122200000D03*
%TD*%
D25*
%TO.P,R6,1*%
%TO.N,Net-(U3-b)*%
X166370000Y-80010000D03*
%TO.P,R6,2*%
%TO.N,Net-(U1-QB)*%
X166370000Y-78360000D03*
%TD*%
D23*
%TO.P,J7,1,Pin_1*%
%TO.N,4051_ADDRESS_A*%
X186000000Y-78820000D03*
D24*
%TO.P,J7,2,Pin_2*%
%TO.N,4051_ADDRESS_B*%
X186000000Y-81360000D03*
%TO.P,J7,3,Pin_3*%
%TO.N,4051_ADDRESS_C*%
X186000000Y-83900000D03*
%TO.P,J7,4,Pin_4*%
%TO.N,4051_READING_1*%
X186000000Y-86440000D03*
%TO.P,J7,5,Pin_5*%
%TO.N,4051_READING_0*%
X186000000Y-88980000D03*
%TO.P,J7,6,Pin_6*%
%TO.N,SD_CLOCK*%
X186000000Y-91520000D03*
%TO.P,J7,7,Pin_7*%
%TO.N,SD_SERIAL_IN*%
X186000000Y-94060000D03*
%TO.P,J7,8,Pin_8*%
%TO.N,SD_SERIAL_OUT*%
X186000000Y-96600000D03*
%TO.P,J7,9,Pin_9*%
%TO.N,SD_CHIP_SELECT*%
X186000000Y-99140000D03*
%TO.P,J7,10,Pin_10*%
%TO.N,595_DATA*%
X186000000Y-101680000D03*
%TO.P,J7,11,Pin_11*%
%TO.N,595_CLOCK*%
X186000000Y-104220000D03*
%TO.P,J7,12,Pin_12*%
%TO.N,595_LATCH*%
X186000000Y-106760000D03*
%TO.P,J7,13,Pin_13*%
%TO.N,EURO_OUT_1*%
X186000000Y-109300000D03*
%TO.P,J7,14,Pin_14*%
%TO.N,EURO_OUT_2*%
X186000000Y-111840000D03*
%TO.P,J7,15,Pin_15*%
%TO.N,unconnected-(J7-Pin_15-Pad15)*%
X186000000Y-114380000D03*
%TO.P,J7,16,Pin_16*%
%TO.N,+3.3V*%
X186000000Y-116920000D03*
%TO.P,J7,17,Pin_17*%
%TO.N,GND*%
X186000000Y-119460000D03*
%TO.P,J7,18,Pin_18*%
%TO.N,-12V*%
X186000000Y-122000000D03*
%TD*%
D22*
%TO.P,R9,1*%
%TO.N,Net-(U3-e)*%
X153670000Y-95250000D03*
%TO.P,R9,2*%
%TO.N,Net-(U1-QE)*%
X153670000Y-96900000D03*
%TD*%
D21*
%TO.P,R26,1*%
%TO.N,Net-(U5-D5)*%
X153350000Y-107500000D03*
%TO.P,R26,2*%
%TO.N,GND*%
X151700000Y-107500000D03*
%TD*%
D26*
%TO.P,U6,1,A4*%
%TO.N,Net-(U6-A4)*%
X151950000Y-53110000D03*
%TO.P,U6,2,A6*%
%TO.N,Net-(U6-A6)*%
X151950000Y-54380000D03*
%TO.P,U6,3,A*%
%TO.N,4051_READING_0*%
X151950000Y-55650000D03*
%TO.P,U6,4,A7*%
%TO.N,Net-(U6-A7)*%
X151950000Y-56920000D03*
%TO.P,U6,5,A5*%
%TO.N,Net-(U6-A5)*%
X151950000Y-58190000D03*
%TO.P,U6,6,~{E}*%
%TO.N,GND*%
X151950000Y-59460000D03*
%TO.P,U6,7,VEE*%
X151950000Y-60730000D03*
%TO.P,U6,8,GND*%
X151950000Y-62000000D03*
%TO.P,U6,9,S2*%
%TO.N,4051_ADDRESS_C*%
X147000000Y-62000000D03*
%TO.P,U6,10,S1*%
%TO.N,4051_ADDRESS_B*%
X147000000Y-60730000D03*
%TO.P,U6,11,S0*%
%TO.N,4051_ADDRESS_A*%
X147000000Y-59460000D03*
%TO.P,U6,12,A3*%
%TO.N,Net-(U6-A3)*%
X147000000Y-58190000D03*
%TO.P,U6,13,A0*%
%TO.N,Net-(U6-A0)*%
X147000000Y-56920000D03*
%TO.P,U6,14,A1*%
%TO.N,Net-(U6-A1)*%
X147000000Y-55650000D03*
%TO.P,U6,15,A2*%
%TO.N,Net-(U6-A2)*%
X147000000Y-54380000D03*
%TO.P,U6,16,VCC*%
%TO.N,+3.3V*%
X147000000Y-53110000D03*
%TD*%
D25*
%TO.P,R5,1*%
%TO.N,Net-(U3-a)*%
X156210000Y-80010000D03*
%TO.P,R5,2*%
%TO.N,Net-(U1-QA)*%
X156210000Y-78360000D03*
%TD*%
D26*
%TO.P,U1,1,QB*%
%TO.N,Net-(U1-QB)*%
X147950000Y-76650000D03*
%TO.P,U1,2,QC*%
%TO.N,Net-(U1-QC)*%
X147950000Y-77920000D03*
%TO.P,U1,3,QD*%
%TO.N,Net-(U1-QD)*%
X147950000Y-79190000D03*
%TO.P,U1,4,QE*%
%TO.N,Net-(U1-QE)*%
X147950000Y-80460000D03*
%TO.P,U1,5,QF*%
%TO.N,Net-(U1-QF)*%
X147950000Y-81730000D03*
%TO.P,U1,6,QG*%
%TO.N,Net-(U1-QG)*%
X147950000Y-83000000D03*
%TO.P,U1,7,QH*%
%TO.N,Net-(U1-QH)*%
X147950000Y-84270000D03*
%TO.P,U1,8,GND*%
%TO.N,GND*%
X147950000Y-85540000D03*
%TO.P,U1,9,QH'*%
%TO.N,Net-(U1-QH')*%
X143000000Y-85540000D03*
%TO.P,U1,10,~{SRCLR}*%
%TO.N,+3.3V*%
X143000000Y-84270000D03*
%TO.P,U1,11,SRCLK*%
%TO.N,595_CLOCK*%
X143000000Y-83000000D03*
%TO.P,U1,12,RCLK*%
%TO.N,595_LATCH*%
X143000000Y-81730000D03*
%TO.P,U1,13,~{OE}*%
%TO.N,GND*%
X143000000Y-80460000D03*
%TO.P,U1,14,SER*%
%TO.N,595_DATA*%
X143000000Y-79190000D03*
%TO.P,U1,15,QA*%
%TO.N,Net-(U1-QA)*%
X143000000Y-77920000D03*
%TO.P,U1,16,VCC*%
%TO.N,+3.3V*%
X143000000Y-76650000D03*
%TD*%
D27*
%TO.P,R30,1*%
%TO.N,Net-(J12-PadT)*%
X122350000Y-119000000D03*
%TO.P,R30,2*%
%TO.N,Net-(U7A--)*%
X124000000Y-119000000D03*
%TD*%
%TO.P,R36,1*%
%TO.N,Net-(J14-PadT)*%
X122350000Y-135000000D03*
%TO.P,R36,2*%
%TO.N,Net-(U8A--)*%
X124000000Y-135000000D03*
%TD*%
D21*
%TO.P,R20,1*%
%TO.N,Net-(U4-D7)*%
X131000000Y-97000000D03*
%TO.P,R20,2*%
%TO.N,GND*%
X129350000Y-97000000D03*
%TD*%
D22*
%TO.P,R7,1*%
%TO.N,Net-(U3-c)*%
X161290000Y-95250000D03*
%TO.P,R7,2*%
%TO.N,Net-(U1-QC)*%
X161290000Y-96900000D03*
%TD*%
%TO.P,R4,1*%
%TO.N,Net-(D4-A)*%
X162000000Y-139000000D03*
%TO.P,R4,2*%
%TO.N,Net-(U2-QH)*%
X162000000Y-140650000D03*
%TD*%
%TO.P,R12,1*%
%TO.N,Net-(U3-DPX)*%
X158750000Y-95250000D03*
%TO.P,R12,2*%
%TO.N,Net-(U1-QH)*%
X158750000Y-96900000D03*
%TD*%
D28*
%TO.P,C4,1*%
%TO.N,Net-(U8B--)*%
X172700000Y-127800000D03*
%TO.P,C4,2*%
%TO.N,CV_IN_4*%
X171150000Y-127800000D03*
%TD*%
D21*
%TO.P,R16,1*%
%TO.N,Net-(U4-D3)*%
X131000000Y-85000000D03*
%TO.P,R16,2*%
%TO.N,GND*%
X129350000Y-85000000D03*
%TD*%
D26*
%TO.P,U4,1,~{PL}*%
%TO.N,165_LOAD*%
X88950000Y-82730000D03*
%TO.P,U4,2,CP*%
%TO.N,165_CLOCK*%
X88950000Y-84000000D03*
%TO.P,U4,3,D4*%
%TO.N,Net-(U4-D4)*%
X88950000Y-85270000D03*
%TO.P,U4,4,D5*%
%TO.N,Net-(U4-D5)*%
X88950000Y-86540000D03*
%TO.P,U4,5,D6*%
%TO.N,Net-(U4-D6)*%
X88950000Y-87810000D03*
%TO.P,U4,6,D7*%
%TO.N,Net-(U4-D7)*%
X88950000Y-89080000D03*
%TO.P,U4,7,~{Q7}*%
%TO.N,unconnected-(U4-~{Q7}-Pad7)*%
X88950000Y-90350000D03*
%TO.P,U4,8,GND*%
%TO.N,GND*%
X88950000Y-91620000D03*
%TO.P,U4,9,Q7*%
%TO.N,/Shift register in 1/DATA_OUT*%
X84000000Y-91620000D03*
%TO.P,U4,10,DS*%
%TO.N,GND*%
X84000000Y-90350000D03*
%TO.P,U4,11,D0*%
%TO.N,Net-(U4-D0)*%
X84000000Y-89080000D03*
%TO.P,U4,12,D1*%
%TO.N,Net-(U4-D1)*%
X84000000Y-87810000D03*
%TO.P,U4,13,D2*%
%TO.N,Net-(U4-D2)*%
X84000000Y-86540000D03*
%TO.P,U4,14,D3*%
%TO.N,Net-(U4-D3)*%
X84000000Y-85270000D03*
%TO.P,U4,15,~{CE}*%
%TO.N,GND*%
X84000000Y-84000000D03*
%TO.P,U4,16,VCC*%
%TO.N,+3.3V*%
X84000000Y-82730000D03*
%TD*%
D22*
%TO.P,R11,1*%
%TO.N,Net-(U3-g)*%
X163830000Y-95250000D03*
%TO.P,R11,2*%
%TO.N,Net-(U1-QG)*%
X163830000Y-96900000D03*
%TD*%
D21*
%TO.P,R22,1*%
%TO.N,Net-(U5-D1)*%
X111000000Y-109000000D03*
%TO.P,R22,2*%
%TO.N,GND*%
X109350000Y-109000000D03*
%TD*%
D26*
%TO.P,U2,1,QB*%
%TO.N,Net-(U2-QB)*%
X148000000Y-88460000D03*
%TO.P,U2,2,QC*%
%TO.N,Net-(U2-QC)*%
X148000000Y-89730000D03*
%TO.P,U2,3,QD*%
%TO.N,Net-(U2-QD)*%
X148000000Y-91000000D03*
%TO.P,U2,4,QE*%
%TO.N,Net-(U2-QE)*%
X148000000Y-92270000D03*
%TO.P,U2,5,QF*%
%TO.N,Net-(U2-QF)*%
X148000000Y-93540000D03*
%TO.P,U2,6,QG*%
%TO.N,Net-(U2-QG)*%
X148000000Y-94810000D03*
%TO.P,U2,7,QH*%
%TO.N,Net-(U2-QH)*%
X148000000Y-96080000D03*
%TO.P,U2,8,GND*%
%TO.N,GND*%
X148000000Y-97350000D03*
%TO.P,U2,9,QH'*%
%TO.N,unconnected-(U2-QH'-Pad9)*%
X143050000Y-97350000D03*
%TO.P,U2,10,~{SRCLR}*%
%TO.N,+3.3V*%
X143050000Y-96080000D03*
%TO.P,U2,11,SRCLK*%
%TO.N,595_CLOCK*%
X143050000Y-94810000D03*
%TO.P,U2,12,RCLK*%
%TO.N,595_LATCH*%
X143050000Y-93540000D03*
%TO.P,U2,13,~{OE}*%
%TO.N,GND*%
X143050000Y-92270000D03*
%TO.P,U2,14,SER*%
%TO.N,Net-(U1-QH')*%
X143050000Y-91000000D03*
%TO.P,U2,15,QA*%
%TO.N,Net-(U2-QA)*%
X143050000Y-89730000D03*
%TO.P,U2,16,VCC*%
%TO.N,+3.3V*%
X143050000Y-88460000D03*
%TD*%
%TO.P,U9,1,A4*%
%TO.N,CV_IN_1*%
X170950000Y-53000000D03*
%TO.P,U9,2,A6*%
%TO.N,CV_IN_3*%
X170950000Y-54270000D03*
%TO.P,U9,3,A*%
%TO.N,4051_READING_1*%
X170950000Y-55540000D03*
%TO.P,U9,4,A7*%
%TO.N,CV_IN_4*%
X170950000Y-56810000D03*
%TO.P,U9,5,A5*%
%TO.N,CV_IN_2*%
X170950000Y-58080000D03*
%TO.P,U9,6,~{E}*%
%TO.N,GND*%
X170950000Y-59350000D03*
%TO.P,U9,7,VEE*%
X170950000Y-60620000D03*
%TO.P,U9,8,GND*%
X170950000Y-61890000D03*
%TO.P,U9,9,S2*%
%TO.N,4051_ADDRESS_C*%
X166000000Y-61890000D03*
%TO.P,U9,10,S1*%
%TO.N,4051_ADDRESS_B*%
X166000000Y-60620000D03*
%TO.P,U9,11,S0*%
%TO.N,4051_ADDRESS_A*%
X166000000Y-59350000D03*
%TO.P,U9,12,A3*%
%TO.N,Net-(U9-A3)*%
X166000000Y-58080000D03*
%TO.P,U9,13,A0*%
%TO.N,Net-(U9-A0)*%
X166000000Y-56810000D03*
%TO.P,U9,14,A1*%
%TO.N,Net-(U9-A1)*%
X166000000Y-55540000D03*
%TO.P,U9,15,A2*%
%TO.N,Net-(U9-A2)*%
X166000000Y-54270000D03*
%TO.P,U9,16,VCC*%
%TO.N,+3.3V*%
X166000000Y-53000000D03*
%TD*%
D21*
%TO.P,R15,1*%
%TO.N,Net-(U4-D2)*%
X121000000Y-85000000D03*
%TO.P,R15,2*%
%TO.N,GND*%
X119350000Y-85000000D03*
%TD*%
D28*
%TO.P,C2,1*%
%TO.N,Net-(U7B--)*%
X172800000Y-143800000D03*
%TO.P,C2,2*%
%TO.N,CV_IN_2*%
X171250000Y-143800000D03*
%TD*%
D22*
%TO.P,R2,1*%
%TO.N,Net-(D2-A)*%
X162000000Y-128000000D03*
%TO.P,R2,2*%
%TO.N,Net-(U2-QF)*%
X162000000Y-129650000D03*
%TD*%
D25*
%TO.P,R10,1*%
%TO.N,Net-(U3-f)*%
X158750000Y-80010000D03*
%TO.P,R10,2*%
%TO.N,Net-(U1-QF)*%
X158750000Y-78360000D03*
%TD*%
D28*
%TO.P,C1,1*%
%TO.N,Net-(U7A--)*%
X171500000Y-134500000D03*
%TO.P,C1,2*%
%TO.N,CV_IN_1*%
X169950000Y-134500000D03*
%TD*%
D21*
%TO.P,R28,1*%
%TO.N,Net-(U5-D7)*%
X173350000Y-107500000D03*
%TO.P,R28,2*%
%TO.N,GND*%
X171700000Y-107500000D03*
%TD*%
%TO.P,R34,1*%
%TO.N,Net-(U7B--)*%
X172850000Y-145400000D03*
%TO.P,R34,2*%
%TO.N,CV_IN_2*%
X171200000Y-145400000D03*
%TD*%
%TO.P,R33,1*%
%TO.N,Net-(U7A--)*%
X171550000Y-132900000D03*
%TO.P,R33,2*%
%TO.N,CV_IN_1*%
X169900000Y-132900000D03*
%TD*%
%TO.P,R21,1*%
%TO.N,Net-(U5-D0)*%
X101000000Y-109000000D03*
%TO.P,R21,2*%
%TO.N,GND*%
X99350000Y-109000000D03*
%TD*%
D29*
%TO.P,U7,1*%
%TO.N,CV_IN_1*%
X170045000Y-136725000D03*
%TO.P,U7,2,-*%
%TO.N,Net-(U7A--)*%
X171315000Y-136725000D03*
%TO.P,U7,3,+*%
%TO.N,GND*%
X172585000Y-136725000D03*
%TO.P,U7,4,V-*%
X173855000Y-136725000D03*
%TO.P,U7,5,+*%
X173855000Y-141675000D03*
%TO.P,U7,6,-*%
%TO.N,Net-(U7B--)*%
X172585000Y-141675000D03*
%TO.P,U7,7*%
%TO.N,CV_IN_2*%
X171315000Y-141675000D03*
%TO.P,U7,8,V+*%
%TO.N,+3.3V*%
X170045000Y-141675000D03*
%TD*%
D28*
%TO.P,C3,1*%
%TO.N,Net-(U8A--)*%
X171600000Y-118600000D03*
%TO.P,C3,2*%
%TO.N,CV_IN_3*%
X170050000Y-118600000D03*
%TD*%
D21*
%TO.P,R25,1*%
%TO.N,Net-(U5-D4)*%
X143350000Y-107500000D03*
%TO.P,R25,2*%
%TO.N,GND*%
X141700000Y-107500000D03*
%TD*%
%TO.P,R14,1*%
%TO.N,Net-(U4-D1)*%
X111000000Y-85000000D03*
%TO.P,R14,2*%
%TO.N,GND*%
X109350000Y-85000000D03*
%TD*%
%TO.P,R23,1*%
%TO.N,Net-(U5-D2)*%
X121000000Y-109000000D03*
%TO.P,R23,2*%
%TO.N,GND*%
X119350000Y-109000000D03*
%TD*%
D29*
%TO.P,U8,1*%
%TO.N,CV_IN_3*%
X170080000Y-120725000D03*
%TO.P,U8,2,-*%
%TO.N,Net-(U8A--)*%
X171350000Y-120725000D03*
%TO.P,U8,3,+*%
%TO.N,GND*%
X172620000Y-120725000D03*
%TO.P,U8,4,V-*%
X173890000Y-120725000D03*
%TO.P,U8,5,+*%
X173890000Y-125675000D03*
%TO.P,U8,6,-*%
%TO.N,Net-(U8B--)*%
X172620000Y-125675000D03*
%TO.P,U8,7*%
%TO.N,CV_IN_4*%
X171350000Y-125675000D03*
%TO.P,U8,8,V+*%
%TO.N,+3.3V*%
X170080000Y-125675000D03*
%TD*%
D26*
%TO.P,U5,1,~{PL}*%
%TO.N,165_LOAD*%
X88950000Y-99000000D03*
%TO.P,U5,2,CP*%
%TO.N,165_CLOCK*%
X88950000Y-100270000D03*
%TO.P,U5,3,D4*%
%TO.N,Net-(U5-D4)*%
X88950000Y-101540000D03*
%TO.P,U5,4,D5*%
%TO.N,Net-(U5-D5)*%
X88950000Y-102810000D03*
%TO.P,U5,5,D6*%
%TO.N,Net-(U5-D6)*%
X88950000Y-104080000D03*
%TO.P,U5,6,D7*%
%TO.N,Net-(U5-D7)*%
X88950000Y-105350000D03*
%TO.P,U5,7,~{Q7}*%
%TO.N,unconnected-(U5-~{Q7}-Pad7)*%
X88950000Y-106620000D03*
%TO.P,U5,8,GND*%
%TO.N,GND*%
X88950000Y-107890000D03*
%TO.P,U5,9,Q7*%
%TO.N,165_DATA*%
X84000000Y-107890000D03*
%TO.P,U5,10,DS*%
%TO.N,/Shift register in 1/DATA_OUT*%
X84000000Y-106620000D03*
%TO.P,U5,11,D0*%
%TO.N,Net-(U5-D0)*%
X84000000Y-105350000D03*
%TO.P,U5,12,D1*%
%TO.N,Net-(U5-D1)*%
X84000000Y-104080000D03*
%TO.P,U5,13,D2*%
%TO.N,Net-(U5-D2)*%
X84000000Y-102810000D03*
%TO.P,U5,14,D3*%
%TO.N,Net-(U5-D3)*%
X84000000Y-101540000D03*
%TO.P,U5,15,~{CE}*%
%TO.N,GND*%
X84000000Y-100270000D03*
%TO.P,U5,16,VCC*%
%TO.N,+3.3V*%
X84000000Y-99000000D03*
%TD*%
D21*
%TO.P,R31,1*%
%TO.N,-12V*%
X177100000Y-140000000D03*
%TO.P,R31,2*%
%TO.N,Net-(U7B--)*%
X175450000Y-140000000D03*
%TD*%
%TO.P,R39,1*%
%TO.N,Net-(U8A--)*%
X171650000Y-117000000D03*
%TO.P,R39,2*%
%TO.N,CV_IN_3*%
X170000000Y-117000000D03*
%TD*%
D27*
%TO.P,R32,1*%
%TO.N,Net-(J13-PadT)*%
X134350000Y-119000000D03*
%TO.P,R32,2*%
%TO.N,Net-(U7B--)*%
X136000000Y-119000000D03*
%TD*%
D22*
%TO.P,R3,1*%
%TO.N,Net-(D3-A)*%
X162000000Y-133000000D03*
%TO.P,R3,2*%
%TO.N,Net-(U2-QG)*%
X162000000Y-134650000D03*
%TD*%
D21*
%TO.P,R37,1*%
%TO.N,-12V*%
X177200000Y-123800000D03*
%TO.P,R37,2*%
%TO.N,Net-(U8B--)*%
X175550000Y-123800000D03*
%TD*%
D27*
%TO.P,R38,1*%
%TO.N,Net-(J15-PadT)*%
X134350000Y-135000000D03*
%TO.P,R38,2*%
%TO.N,Net-(U8B--)*%
X136000000Y-135000000D03*
%TD*%
D21*
%TO.P,R40,1*%
%TO.N,Net-(U8B--)*%
X172750000Y-129400000D03*
%TO.P,R40,2*%
%TO.N,CV_IN_4*%
X171100000Y-129400000D03*
%TD*%
%TO.P,R19,1*%
%TO.N,Net-(U4-D6)*%
X121000000Y-97000000D03*
%TO.P,R19,2*%
%TO.N,GND*%
X119350000Y-97000000D03*
%TD*%
%TO.P,R24,1*%
%TO.N,Net-(U5-D3)*%
X131000000Y-109000000D03*
%TO.P,R24,2*%
%TO.N,GND*%
X129350000Y-109000000D03*
%TD*%
D30*
%TO.N,GND*%
X108300000Y-84100000D03*
X98400000Y-84474500D03*
X118200000Y-96000000D03*
X175300000Y-141500000D03*
X140900000Y-81000000D03*
X172000000Y-124000000D03*
X175500000Y-135900000D03*
X173300000Y-59700000D03*
X151300000Y-100600000D03*
X139500000Y-107100000D03*
X144800000Y-91000000D03*
X98200000Y-95900000D03*
X130100000Y-108000000D03*
%TO.N,CV_IN_4*%
X172200000Y-130800000D03*
X180100000Y-133600000D03*
%TO.N,TRIGGER_OUT_4_EURO*%
X82800000Y-115100000D03*
%TO.N,595_CLOCK*%
X144700000Y-94800000D03*
X153500000Y-98799500D03*
%TO.N,595_LATCH*%
X154500000Y-99524000D03*
X144700000Y-93600000D03*
%TO.N,165_LOAD*%
X83400000Y-96300000D03*
X86824500Y-97900000D03*
%TO.N,165_CLOCK*%
X86100000Y-97100000D03*
X84575500Y-96100000D03*
%TO.N,4051_READING_0*%
X181800000Y-57200000D03*
%TO.N,4051_READING_1*%
X180800000Y-57200000D03*
%TO.N,Net-(U2-QB)*%
X149700000Y-88500000D03*
%TO.N,Net-(U2-QC)*%
X149725500Y-89700000D03*
%TO.N,Net-(U2-QA)*%
X145700000Y-89800000D03*
%TO.N,Net-(U8A--)*%
X178900000Y-129500000D03*
X176300000Y-119900000D03*
%TO.N,CV_IN_1*%
X169900000Y-131600000D03*
X180900000Y-56000000D03*
%TO.N,Net-(U8B--)*%
X178300000Y-130600000D03*
X174100000Y-129400000D03*
%TO.N,CV_IN_2*%
X170200000Y-143300000D03*
X179800000Y-139800000D03*
%TO.N,Net-(U1-QH)*%
X149600000Y-87200000D03*
X155600000Y-91100000D03*
%TO.N,Net-(U4-D2)*%
X86000000Y-86600000D03*
%TO.N,Net-(U4-D3)*%
X106300000Y-87500000D03*
X86400000Y-85600000D03*
%TO.N,Net-(U4-D4)*%
X105300000Y-91500000D03*
%TO.N,Net-(U6-A5)*%
X143400000Y-68000000D03*
X149424500Y-59100000D03*
%TO.N,Net-(U6-A6)*%
X149700000Y-56000000D03*
X142500000Y-68800000D03*
%TO.N,Net-(U6-A7)*%
X149800000Y-57100000D03*
X148700000Y-64800000D03*
%TO.N,+3.3V*%
X82200000Y-82500000D03*
X148900000Y-52600000D03*
X166700000Y-116500000D03*
X140100000Y-86300000D03*
X142600000Y-87000000D03*
X163700000Y-52600000D03*
X83100000Y-78200000D03*
X81600000Y-98600000D03*
%TO.N,Net-(U9-A2)*%
X163500000Y-54700000D03*
X159200000Y-62800000D03*
%TO.N,Net-(U5-D0)*%
X91700000Y-110500000D03*
%TO.N,Net-(U5-D1)*%
X82200000Y-105100000D03*
X97600000Y-111400000D03*
%TO.N,Net-(U5-D2)*%
X82200000Y-103700000D03*
X116800000Y-107450500D03*
X96400000Y-107600000D03*
%TO.N,Net-(U5-D3)*%
X81100000Y-103600000D03*
%TD*%
D31*
%TO.N,Net-(U7A--)*%
X176175000Y-139125000D02*
X175450000Y-138400000D01*
X176175000Y-143325000D02*
X176175000Y-139125000D01*
X171500000Y-134500000D02*
X171500000Y-132950000D01*
X159004416Y-146650000D02*
X172850000Y-146650000D01*
X175450000Y-138400000D02*
X172613249Y-138400000D01*
X171315000Y-134685000D02*
X171500000Y-134500000D01*
X151750000Y-139395584D02*
X159004416Y-146650000D01*
X124000000Y-119000000D02*
X129550000Y-124550000D01*
X151750000Y-130786396D02*
X151750000Y-139395584D01*
X171500000Y-132950000D02*
X171550000Y-132900000D01*
X172850000Y-146650000D02*
X176175000Y-143325000D01*
X145513604Y-124550000D02*
X151750000Y-130786396D01*
X171315000Y-137101751D02*
X171315000Y-136725000D01*
X172613249Y-138400000D02*
X171315000Y-137101751D01*
X171315000Y-136725000D02*
X171315000Y-134685000D01*
X129550000Y-124550000D02*
X145513604Y-124550000D01*
%TO.N,CV_IN_3*%
X171663604Y-123000000D02*
X175967462Y-123000000D01*
X170700000Y-63300000D02*
X169200000Y-61800000D01*
X170050000Y-118600000D02*
X170050000Y-117050000D01*
X182800000Y-112906828D02*
X182800000Y-112072792D01*
X169200000Y-55643249D02*
X170573249Y-54270000D01*
X186486701Y-115745000D02*
X185638172Y-115745000D01*
X185638172Y-115745000D02*
X182800000Y-112906828D01*
X170080000Y-120725000D02*
X170080000Y-118630000D01*
X188600000Y-64100000D02*
X187800000Y-63300000D01*
X169200000Y-61800000D02*
X169200000Y-55643249D01*
X188200000Y-117458299D02*
X186486701Y-115745000D01*
X188200000Y-120000000D02*
X188200000Y-117458299D01*
X176300000Y-121882538D02*
X177482538Y-120700000D01*
X186486701Y-110665000D02*
X188600000Y-108551701D01*
X170080000Y-118630000D02*
X170050000Y-118600000D01*
X187800000Y-63300000D02*
X170700000Y-63300000D01*
X176300000Y-122667462D02*
X176300000Y-121882538D01*
X170050000Y-117050000D02*
X170000000Y-117000000D01*
X170080000Y-121416396D02*
X171663604Y-123000000D01*
X170573249Y-54270000D02*
X170950000Y-54270000D01*
X182800000Y-112072792D02*
X184207792Y-110665000D01*
X175967462Y-123000000D02*
X176300000Y-122667462D01*
X170080000Y-120725000D02*
X170080000Y-121416396D01*
X184207792Y-110665000D02*
X186486701Y-110665000D01*
X188600000Y-108551701D02*
X188600000Y-64100000D01*
X177482538Y-120700000D02*
X187500000Y-120700000D01*
X187500000Y-120700000D02*
X188200000Y-120000000D01*
%TO.N,Net-(U7B--)*%
X172585000Y-141298249D02*
X173883249Y-140000000D01*
X145700000Y-124100000D02*
X152200000Y-130600000D01*
X141100000Y-124100000D02*
X145700000Y-124100000D01*
X136000000Y-119000000D02*
X141100000Y-124100000D01*
X172800000Y-143800000D02*
X172800000Y-141890000D01*
X172850000Y-145400000D02*
X172850000Y-143850000D01*
X152200000Y-139209188D02*
X159190812Y-146200000D01*
X152200000Y-130600000D02*
X152200000Y-139209188D01*
X172585000Y-141675000D02*
X172585000Y-141298249D01*
X173883249Y-140000000D02*
X175450000Y-140000000D01*
X172050000Y-146200000D02*
X172850000Y-145400000D01*
X172850000Y-143850000D02*
X172800000Y-143800000D01*
X159190812Y-146200000D02*
X172050000Y-146200000D01*
X172800000Y-141890000D02*
X172585000Y-141675000D01*
%TO.N,GND*%
X170950000Y-59350000D02*
X172950000Y-59350000D01*
X161700000Y-107500000D02*
X162500000Y-106700000D01*
X148000000Y-97350000D02*
X148050000Y-97350000D01*
X172950000Y-59350000D02*
X173300000Y-59700000D01*
X173855000Y-141675000D02*
X175125000Y-141675000D01*
X119350000Y-109000000D02*
X120175000Y-108175000D01*
X143640000Y-81100000D02*
X143000000Y-80460000D01*
X142500000Y-106700000D02*
X150900000Y-106700000D01*
X120175000Y-108175000D02*
X128525000Y-108175000D01*
X172591751Y-124000000D02*
X172000000Y-124000000D01*
X99782538Y-109000000D02*
X100607538Y-108175000D01*
X118525000Y-108175000D02*
X119350000Y-109000000D01*
X146200000Y-81100000D02*
X143640000Y-81100000D01*
X120175000Y-96175000D02*
X128525000Y-96175000D01*
X84645000Y-90995000D02*
X84000000Y-90350000D01*
X141700000Y-107500000D02*
X142500000Y-106700000D01*
X143050000Y-92270000D02*
X143530000Y-92270000D01*
X99350000Y-85000000D02*
X98925500Y-85000000D01*
X170950000Y-61890000D02*
X170950000Y-60620000D01*
X162500000Y-106700000D02*
X170900000Y-106700000D01*
X128525000Y-96175000D02*
X129350000Y-97000000D01*
X119200000Y-97000000D02*
X118200000Y-96000000D01*
X120175000Y-84175000D02*
X128525000Y-84175000D01*
X119350000Y-97000000D02*
X119200000Y-97000000D01*
X185150000Y-118610000D02*
X176005000Y-118610000D01*
X80000000Y-86726751D02*
X80000000Y-85000000D01*
X99350000Y-109000000D02*
X99782538Y-109000000D01*
X129350000Y-108750000D02*
X130100000Y-108000000D01*
X143000000Y-80460000D02*
X141440000Y-80460000D01*
X139900000Y-107500000D02*
X139500000Y-107100000D01*
X109350000Y-85000000D02*
X109200000Y-85000000D01*
X110175000Y-84175000D02*
X109350000Y-85000000D01*
X151700000Y-107500000D02*
X152500000Y-106700000D01*
X109200000Y-85000000D02*
X108300000Y-84100000D01*
X128525000Y-84175000D02*
X129350000Y-85000000D01*
X151950000Y-60730000D02*
X151950000Y-59460000D01*
X110175000Y-108175000D02*
X118525000Y-108175000D01*
X99350000Y-97000000D02*
X99300000Y-97000000D01*
X172585000Y-136725000D02*
X173855000Y-136725000D01*
X83623249Y-90350000D02*
X80000000Y-86726751D01*
X100607538Y-108175000D02*
X108525000Y-108175000D01*
X152500000Y-106700000D02*
X160900000Y-106700000D01*
X88950000Y-91620000D02*
X88325000Y-90995000D01*
X143530000Y-92270000D02*
X144800000Y-91000000D01*
X154925000Y-51775000D02*
X159775000Y-51775000D01*
X108373833Y-97000000D02*
X107548833Y-96175000D01*
X173890000Y-125675000D02*
X173890000Y-125298249D01*
X173855000Y-136725000D02*
X174675000Y-136725000D01*
X98925500Y-85000000D02*
X98400000Y-84474500D01*
X92415000Y-100915000D02*
X92500000Y-101000000D01*
X148050000Y-97350000D02*
X151300000Y-100600000D01*
X87650000Y-101193249D02*
X87928249Y-100915000D01*
X84000000Y-90350000D02*
X83623249Y-90350000D01*
X119350000Y-97000000D02*
X120175000Y-96175000D01*
X81000000Y-84000000D02*
X80000000Y-85000000D01*
X154775000Y-57011751D02*
X154775000Y-51925000D01*
X173890000Y-125298249D02*
X172591751Y-124000000D01*
X129350000Y-109000000D02*
X129350000Y-108750000D01*
X108525000Y-108175000D02*
X109350000Y-109000000D01*
X88325000Y-90995000D02*
X84645000Y-90995000D01*
X99300000Y-97000000D02*
X98200000Y-95900000D01*
X151950000Y-59460000D02*
X152326751Y-59460000D01*
X170950000Y-60620000D02*
X170950000Y-59350000D01*
X159775000Y-51775000D02*
X161000000Y-53000000D01*
X170900000Y-106700000D02*
X171700000Y-107500000D01*
X128525000Y-108175000D02*
X129350000Y-109000000D01*
X88573249Y-107890000D02*
X87650000Y-106966751D01*
X175125000Y-141675000D02*
X175300000Y-141500000D01*
X84000000Y-84000000D02*
X81000000Y-84000000D01*
X152326751Y-59460000D02*
X154775000Y-57011751D01*
X119350000Y-85000000D02*
X118525000Y-84175000D01*
X100175000Y-96175000D02*
X99350000Y-97000000D01*
X118525000Y-84175000D02*
X110175000Y-84175000D01*
X119350000Y-85000000D02*
X120175000Y-84175000D01*
X186000000Y-119460000D02*
X185150000Y-118610000D01*
X154775000Y-51925000D02*
X154925000Y-51775000D01*
X88950000Y-107890000D02*
X88573249Y-107890000D01*
X150900000Y-106700000D02*
X151700000Y-107500000D01*
X172620000Y-120725000D02*
X173890000Y-120725000D01*
X160900000Y-106700000D02*
X161700000Y-107500000D01*
X87928249Y-100915000D02*
X92415000Y-100915000D01*
X146200000Y-84166751D02*
X146200000Y-81100000D01*
X109350000Y-109000000D02*
X110175000Y-108175000D01*
X176005000Y-118610000D02*
X173890000Y-120725000D01*
X84000000Y-100270000D02*
X80730000Y-100270000D01*
X141700000Y-107500000D02*
X139900000Y-107500000D01*
X87650000Y-106966751D02*
X87650000Y-101193249D01*
X80730000Y-100270000D02*
X80000000Y-101000000D01*
X147573249Y-85540000D02*
X146200000Y-84166751D01*
X147950000Y-85540000D02*
X147573249Y-85540000D01*
X107548833Y-96175000D02*
X100175000Y-96175000D01*
X109350000Y-97000000D02*
X108373833Y-97000000D01*
X141440000Y-80460000D02*
X140900000Y-81000000D01*
X174675000Y-136725000D02*
X175500000Y-135900000D01*
X151950000Y-62000000D02*
X151950000Y-60730000D01*
%TO.N,Net-(D1-A)*%
X159540000Y-123000000D02*
X161175000Y-123000000D01*
X161175000Y-123000000D02*
X162000000Y-122175000D01*
%TO.N,CV_IN_4*%
X171150000Y-127800000D02*
X171150000Y-125875000D01*
X188000000Y-133600000D02*
X180100000Y-133600000D01*
X171100000Y-127850000D02*
X171150000Y-127800000D01*
X171150000Y-125875000D02*
X171350000Y-125675000D01*
X169650000Y-57733249D02*
X169650000Y-58426751D01*
X171100000Y-129400000D02*
X171100000Y-127850000D01*
X169650000Y-58426751D02*
X169928249Y-58705000D01*
X172200000Y-130500000D02*
X171100000Y-129400000D01*
X184168604Y-58705000D02*
X189050000Y-63586396D01*
X170573249Y-56810000D02*
X169650000Y-57733249D01*
X184155000Y-58705000D02*
X184168604Y-58705000D01*
X189050000Y-63586396D02*
X189050000Y-106100000D01*
X169928249Y-58705000D02*
X184155000Y-58705000D01*
X170950000Y-56810000D02*
X170573249Y-56810000D01*
X189050000Y-132550000D02*
X188000000Y-133600000D01*
X172200000Y-130800000D02*
X172200000Y-130500000D01*
X189050000Y-106100000D02*
X189050000Y-132550000D01*
%TO.N,TRIGGER_OUT_1_EURO*%
X91281802Y-114281802D02*
X80618198Y-114281802D01*
X80618198Y-114281802D02*
X76700000Y-110363604D01*
X76700000Y-100840000D02*
X74000000Y-98140000D01*
X76700000Y-110363604D02*
X76700000Y-100840000D01*
X96000000Y-119000000D02*
X91281802Y-114281802D01*
%TO.N,TRIGGER_OUT_2_EURO*%
X73435000Y-96965000D02*
X72825000Y-97575000D01*
X91468198Y-113831802D02*
X80804594Y-113831802D01*
X77150000Y-99628299D02*
X74486701Y-96965000D01*
X72825000Y-97575000D02*
X72825000Y-99505000D01*
X108000000Y-119000000D02*
X105100000Y-116100000D01*
X74486701Y-96965000D02*
X73435000Y-96965000D01*
X105100000Y-116100000D02*
X93736396Y-116100000D01*
X80804594Y-113831802D02*
X77150000Y-110177208D01*
X72825000Y-99505000D02*
X74000000Y-100680000D01*
X77150000Y-110177208D02*
X77150000Y-99628299D01*
X93736396Y-116100000D02*
X91468198Y-113831802D01*
%TO.N,TRIGGER_OUT_3_EURO*%
X82925000Y-136625000D02*
X79750000Y-133450000D01*
X75200000Y-104420000D02*
X74000000Y-103220000D01*
X94375000Y-136625000D02*
X82925000Y-136625000D01*
X96000000Y-135000000D02*
X94375000Y-136625000D01*
X73638299Y-107000000D02*
X74421701Y-107000000D01*
X74381701Y-112100000D02*
X73598299Y-112100000D01*
X72800000Y-111301701D02*
X72800000Y-107838299D01*
X74421701Y-107000000D02*
X75200000Y-106221701D01*
X79750000Y-117468299D02*
X74381701Y-112100000D01*
X73598299Y-112100000D02*
X72800000Y-111301701D01*
X75200000Y-106221701D02*
X75200000Y-104420000D01*
X72800000Y-107838299D02*
X73638299Y-107000000D01*
X79750000Y-133450000D02*
X79750000Y-117468299D01*
%TO.N,TRIGGER_OUT_4_EURO*%
X88100000Y-115100000D02*
X82800000Y-115100000D01*
X108000000Y-135000000D02*
X88100000Y-115100000D01*
%TO.N,SYNC_IN_EURO*%
X84000000Y-118300000D02*
X74000000Y-108300000D01*
X84000000Y-119000000D02*
X84000000Y-118300000D01*
%TO.N,SYNC_OUT_EURO*%
X74000000Y-110840000D02*
X80200000Y-117040000D01*
X80200000Y-131200000D02*
X84000000Y-135000000D01*
X80200000Y-117040000D02*
X80200000Y-131200000D01*
%TO.N,SD_CLOCK*%
X181780000Y-87300000D02*
X180400000Y-87300000D01*
X186000000Y-91520000D02*
X181780000Y-87300000D01*
%TO.N,SD_SERIAL_OUT*%
X186000000Y-96600000D02*
X187175000Y-95425000D01*
X186486701Y-90155000D02*
X185455000Y-90155000D01*
X187175000Y-95425000D02*
X187175000Y-90843299D01*
X185455000Y-90155000D02*
X180400000Y-85100000D01*
X187175000Y-90843299D02*
X186486701Y-90155000D01*
%TO.N,SD_SERIAL_IN*%
X182770000Y-89500000D02*
X180400000Y-89500000D01*
X184570000Y-92630000D02*
X184570000Y-91300000D01*
X184570000Y-91300000D02*
X182770000Y-89500000D01*
X186000000Y-94060000D02*
X184570000Y-92630000D01*
%TO.N,SD_CHIP_SELECT*%
X182730000Y-95870000D02*
X186000000Y-99140000D01*
X180502082Y-90600000D02*
X182570000Y-92667918D01*
X182570000Y-92667918D02*
X182570000Y-95870000D01*
X182570000Y-95870000D02*
X182730000Y-95870000D01*
X179300000Y-90600000D02*
X180502082Y-90600000D01*
%TO.N,595_DATA*%
X144405457Y-77275000D02*
X146580457Y-75100000D01*
X172513604Y-87050000D02*
X181720000Y-96256396D01*
X141700000Y-78266751D02*
X141700000Y-77573249D01*
X146580457Y-75100000D02*
X166736396Y-75100000D01*
X143000000Y-79190000D02*
X142623249Y-79190000D01*
X181720000Y-96256396D02*
X181720000Y-97400000D01*
X142623249Y-79190000D02*
X141700000Y-78266751D01*
X141998249Y-77275000D02*
X144405457Y-77275000D01*
X181720000Y-97400000D02*
X186000000Y-101680000D01*
X172513604Y-80877208D02*
X172513604Y-87050000D01*
X166736396Y-75100000D02*
X172513604Y-80877208D01*
X141700000Y-77573249D02*
X141998249Y-77275000D01*
%TO.N,595_CLOCK*%
X142410000Y-94810000D02*
X143050000Y-94810000D01*
X144300000Y-83923249D02*
X144300000Y-84700000D01*
X186000000Y-104220000D02*
X180579500Y-98799500D01*
X143000000Y-83000000D02*
X143376751Y-83000000D01*
X144085000Y-84915000D02*
X141978249Y-84915000D01*
X143060000Y-94800000D02*
X143050000Y-94810000D01*
X141300000Y-85593249D02*
X141300000Y-93700000D01*
X141978249Y-84915000D02*
X141300000Y-85593249D01*
X143376751Y-83000000D02*
X144300000Y-83923249D01*
X141300000Y-93700000D02*
X142410000Y-94810000D01*
X144300000Y-84700000D02*
X144085000Y-84915000D01*
X144700000Y-94800000D02*
X143060000Y-94800000D01*
X180579500Y-98799500D02*
X153500000Y-98799500D01*
%TO.N,595_LATCH*%
X184825000Y-105585000D02*
X184825000Y-103925000D01*
X186000000Y-106760000D02*
X184825000Y-105585000D01*
X146425000Y-85411853D02*
X144430000Y-83416853D01*
X146425000Y-90541751D02*
X146425000Y-85411853D01*
X180424000Y-99524000D02*
X154500000Y-99524000D01*
X143426751Y-93540000D02*
X146425000Y-90541751D01*
X144700000Y-93600000D02*
X143110000Y-93600000D01*
X144430000Y-81730000D02*
X143000000Y-81730000D01*
X144430000Y-83416853D02*
X144430000Y-81730000D01*
X184825000Y-103925000D02*
X180424000Y-99524000D01*
X143110000Y-93600000D02*
X143050000Y-93540000D01*
X143050000Y-93540000D02*
X143426751Y-93540000D01*
%TO.N,165_LOAD*%
X87420000Y-81200000D02*
X88950000Y-82730000D01*
X83400000Y-96300000D02*
X81335000Y-94235000D01*
X79200000Y-81200000D02*
X87420000Y-81200000D01*
X87924500Y-99000000D02*
X86824500Y-97900000D01*
X81335000Y-94235000D02*
X73513299Y-94235000D01*
X73513299Y-94235000D02*
X72825000Y-93546701D01*
X76800000Y-83600000D02*
X79200000Y-81200000D01*
X88950000Y-99000000D02*
X87924500Y-99000000D01*
X72825000Y-91695000D02*
X74000000Y-90520000D01*
X72825000Y-93546701D02*
X72825000Y-91695000D01*
X76800000Y-87720000D02*
X76800000Y-83600000D01*
X74000000Y-90520000D02*
X76800000Y-87720000D01*
%TO.N,165_CLOCK*%
X74000000Y-93060000D02*
X81535500Y-93060000D01*
X77300000Y-83950000D02*
X79600000Y-81650000D01*
X86100000Y-97100000D02*
X86100000Y-98500000D01*
X87870000Y-100270000D02*
X88950000Y-100270000D01*
X77300000Y-89760000D02*
X77300000Y-83950000D01*
X86500000Y-81926751D02*
X88573249Y-84000000D01*
X86100000Y-98500000D02*
X87870000Y-100270000D01*
X86500000Y-81650000D02*
X86500000Y-81926751D01*
X74000000Y-93060000D02*
X77300000Y-89760000D01*
X81535500Y-93060000D02*
X84575500Y-96100000D01*
X79600000Y-81650000D02*
X86500000Y-81650000D01*
X88573249Y-84000000D02*
X88950000Y-84000000D01*
%TO.N,165_DATA*%
X79523233Y-107890000D02*
X79523233Y-109023233D01*
X78151000Y-106517767D02*
X79523233Y-107890000D01*
X79523233Y-109023233D02*
X80500000Y-110000000D01*
X74000000Y-95600000D02*
X78151000Y-99751000D01*
X81890000Y-110000000D02*
X84000000Y-107890000D01*
X78151000Y-99751000D02*
X78151000Y-106517767D01*
X80500000Y-110000000D02*
X81890000Y-110000000D01*
%TO.N,4051_ADDRESS_A*%
X166376751Y-59350000D02*
X168150000Y-61123249D01*
X150928249Y-62625000D02*
X153275000Y-62625000D01*
X153275000Y-62625000D02*
X156550000Y-59350000D01*
X166000000Y-59350000D02*
X166376751Y-59350000D01*
X147000000Y-59460000D02*
X147625000Y-60085000D01*
X178520000Y-78820000D02*
X186000000Y-78820000D01*
X156550000Y-59350000D02*
X166000000Y-59350000D01*
X148388249Y-60085000D02*
X150928249Y-62625000D01*
X168150000Y-61123249D02*
X168150000Y-68450000D01*
X147625000Y-60085000D02*
X148388249Y-60085000D01*
X168150000Y-68450000D02*
X178520000Y-78820000D01*
%TO.N,4051_ADDRESS_B*%
X166000000Y-60620000D02*
X166376751Y-60620000D01*
X179380000Y-81360000D02*
X186000000Y-81360000D01*
X150741853Y-63075000D02*
X153461396Y-63075000D01*
X166376751Y-60620000D02*
X167700000Y-61943249D01*
X167700000Y-69680000D02*
X179380000Y-81360000D01*
X148396853Y-60730000D02*
X150741853Y-63075000D01*
X153461396Y-63075000D02*
X155916396Y-60620000D01*
X155916396Y-60620000D02*
X166000000Y-60620000D01*
X147000000Y-60730000D02*
X148396853Y-60730000D01*
X167700000Y-61943249D02*
X167700000Y-69680000D01*
%TO.N,4051_ADDRESS_C*%
X166000000Y-68700000D02*
X166000000Y-61890000D01*
X179110000Y-81810000D02*
X166000000Y-68700000D01*
X166000000Y-61890000D02*
X155282792Y-61890000D01*
X186000000Y-83900000D02*
X183910000Y-81810000D01*
X149030457Y-62000000D02*
X147000000Y-62000000D01*
X183910000Y-81810000D02*
X179110000Y-81810000D01*
X150555457Y-63525000D02*
X149030457Y-62000000D01*
X153647792Y-63525000D02*
X150555457Y-63525000D01*
X155282792Y-61890000D02*
X153647792Y-63525000D01*
%TO.N,4051_READING_0*%
X151950000Y-55650000D02*
X152326751Y-55650000D01*
X178900000Y-50100000D02*
X181800000Y-53000000D01*
X152326751Y-55650000D02*
X154300000Y-53676751D01*
X155963604Y-50100000D02*
X178900000Y-50100000D01*
X154300000Y-53676751D02*
X154300000Y-51763604D01*
X154300000Y-51763604D02*
X155963604Y-50100000D01*
X181800000Y-53000000D02*
X181800000Y-57200000D01*
%TO.N,4051_READING_1*%
X179140000Y-55540000D02*
X180800000Y-57200000D01*
X170950000Y-55540000D02*
X179140000Y-55540000D01*
%TO.N,Net-(J14-PadT)*%
X120000000Y-135000000D02*
X122350000Y-135000000D01*
%TO.N,Net-(J15-PadT)*%
X132000000Y-135000000D02*
X134350000Y-135000000D01*
%TO.N,Net-(U3-a)*%
X156540000Y-80340000D02*
X156540000Y-82840000D01*
X156210000Y-80010000D02*
X156540000Y-80340000D01*
%TO.N,Net-(U1-QA)*%
X159600000Y-78727462D02*
X159600000Y-77992538D01*
X144396853Y-77920000D02*
X143000000Y-77920000D01*
X156210000Y-78360000D02*
X156935000Y-79085000D01*
X159600000Y-77992538D02*
X157157462Y-75550000D01*
X146766853Y-75550000D02*
X144396853Y-77920000D01*
X156935000Y-79085000D02*
X159242462Y-79085000D01*
X159242462Y-79085000D02*
X159600000Y-78727462D01*
X157157462Y-75550000D02*
X146766853Y-75550000D01*
%TO.N,Net-(U2-QB)*%
X149700000Y-88500000D02*
X148040000Y-88500000D01*
X148040000Y-88500000D02*
X148000000Y-88460000D01*
%TO.N,Net-(U2-QC)*%
X148030000Y-89700000D02*
X148000000Y-89730000D01*
X149725500Y-89700000D02*
X148030000Y-89700000D01*
%TO.N,Net-(U2-QD)*%
X152975000Y-98075000D02*
X149750000Y-94850000D01*
X149750000Y-94850000D02*
X149750000Y-92373249D01*
X148376751Y-91000000D02*
X148000000Y-91000000D01*
X166700000Y-93000000D02*
X166700000Y-95247462D01*
X149750000Y-92373249D02*
X148376751Y-91000000D01*
X163872462Y-98075000D02*
X152975000Y-98075000D01*
X166700000Y-95247462D02*
X163872462Y-98075000D01*
%TO.N,Net-(U2-QE)*%
X149300000Y-92800000D02*
X148770000Y-92270000D01*
X165850000Y-115150000D02*
X179086396Y-115150000D01*
X179086396Y-115150000D02*
X182350000Y-111886396D01*
X182350000Y-111886396D02*
X182350000Y-102113604D01*
X163500000Y-117500000D02*
X165850000Y-115150000D01*
X149300000Y-96000000D02*
X149300000Y-92800000D01*
X155100000Y-101800000D02*
X149300000Y-96000000D01*
X182350000Y-102113604D02*
X182036396Y-101800000D01*
X162000000Y-123825000D02*
X163500000Y-122325000D01*
X148770000Y-92270000D02*
X148000000Y-92270000D01*
X182036396Y-101800000D02*
X155100000Y-101800000D01*
X163500000Y-122325000D02*
X163500000Y-117500000D01*
%TO.N,Net-(U2-QF)*%
X180950000Y-103650000D02*
X152016853Y-103650000D01*
X146250000Y-94850000D02*
X147560000Y-93540000D01*
X155477208Y-141850000D02*
X154750000Y-141122792D01*
X146250000Y-97883147D02*
X146250000Y-94850000D01*
X162127208Y-113800000D02*
X178500000Y-113800000D01*
X152016853Y-103650000D02*
X146250000Y-97883147D01*
X162000000Y-129650000D02*
X163250000Y-130900000D01*
X163250000Y-130900000D02*
X163250000Y-141425000D01*
X147560000Y-93540000D02*
X148000000Y-93540000D01*
X154750000Y-121177208D02*
X162127208Y-113800000D01*
X154750000Y-141122792D02*
X154750000Y-121177208D01*
X162825000Y-141850000D02*
X155477208Y-141850000D01*
X180950000Y-111350000D02*
X180950000Y-103650000D01*
X163250000Y-141425000D02*
X162825000Y-141850000D01*
X178500000Y-113800000D02*
X180950000Y-111350000D01*
%TO.N,Net-(U2-QG)*%
X155663604Y-141400000D02*
X155200000Y-140936396D01*
X181250000Y-102750000D02*
X151753249Y-102750000D01*
X151753249Y-102750000D02*
X146700000Y-97696751D01*
X147190000Y-94810000D02*
X148000000Y-94810000D01*
X162800000Y-135450000D02*
X162800000Y-141067462D01*
X162800000Y-141067462D02*
X162467462Y-141400000D01*
X178713604Y-114250000D02*
X181450000Y-111513604D01*
X155200000Y-140936396D02*
X155200000Y-121363604D01*
X162313604Y-114250000D02*
X178713604Y-114250000D01*
X181450000Y-111513604D02*
X181400000Y-111463604D01*
X162000000Y-134650000D02*
X162800000Y-135450000D01*
X146700000Y-95300000D02*
X147190000Y-94810000D01*
X155200000Y-121363604D02*
X162313604Y-114250000D01*
X181400000Y-102900000D02*
X181250000Y-102750000D01*
X162467462Y-141400000D02*
X155663604Y-141400000D01*
X181400000Y-111463604D02*
X181400000Y-102900000D01*
X146700000Y-97696751D02*
X146700000Y-95300000D01*
%TO.N,Net-(U2-QH)*%
X155700000Y-121500000D02*
X162500000Y-114700000D01*
X162000000Y-140650000D02*
X161775000Y-140875000D01*
X181900000Y-111700000D02*
X181900000Y-102300000D01*
X161775000Y-140875000D02*
X155775000Y-140875000D01*
X155775000Y-140875000D02*
X155700000Y-140800000D01*
X154596751Y-102300000D02*
X148376751Y-96080000D01*
X162500000Y-114700000D02*
X178900000Y-114700000D01*
X155700000Y-140800000D02*
X155700000Y-121500000D01*
X148376751Y-96080000D02*
X148000000Y-96080000D01*
X178900000Y-114700000D02*
X181900000Y-111700000D01*
X181900000Y-102300000D02*
X154596751Y-102300000D01*
%TO.N,Net-(U3-b)*%
X166700000Y-80340000D02*
X166700000Y-82840000D01*
X166370000Y-80010000D02*
X166700000Y-80340000D01*
%TO.N,Net-(U2-QA)*%
X143120000Y-89800000D02*
X143050000Y-89730000D01*
X145700000Y-89800000D02*
X143120000Y-89800000D01*
%TO.N,Net-(U1-QB)*%
X169360000Y-78360000D02*
X166370000Y-78360000D01*
X171800000Y-86600000D02*
X171800000Y-80800000D01*
X148326751Y-76650000D02*
X152300000Y-80623249D01*
X152300000Y-80623249D02*
X152300000Y-86200000D01*
X154500000Y-88400000D02*
X170000000Y-88400000D01*
X147950000Y-76650000D02*
X148326751Y-76650000D01*
X170000000Y-88400000D02*
X171800000Y-86600000D01*
X152300000Y-86200000D02*
X154500000Y-88400000D01*
X171800000Y-80800000D02*
X169360000Y-78360000D01*
%TO.N,Net-(U3-c)*%
X161290000Y-95250000D02*
X161290000Y-93330000D01*
X161290000Y-93330000D02*
X161620000Y-93000000D01*
%TO.N,Net-(U1-QC)*%
X160155000Y-95765000D02*
X160155000Y-92554720D01*
X155300000Y-90100000D02*
X151800000Y-86600000D01*
X151800000Y-81393249D02*
X148326751Y-77920000D01*
X151800000Y-86600000D02*
X151800000Y-81393249D01*
X148326751Y-77920000D02*
X147950000Y-77920000D01*
X161290000Y-96900000D02*
X160155000Y-95765000D01*
X157700280Y-90100000D02*
X155300000Y-90100000D01*
X160155000Y-92554720D02*
X157700280Y-90100000D01*
%TO.N,Net-(U3-d)*%
X156210000Y-93330000D02*
X156540000Y-93000000D01*
X156210000Y-95250000D02*
X156210000Y-93330000D01*
%TO.N,Net-(U1-QD)*%
X151350000Y-82213604D02*
X148326396Y-79190000D01*
X151350000Y-88200000D02*
X151350000Y-82213604D01*
X156210000Y-96900000D02*
X155075000Y-95765000D01*
X155075000Y-91925000D02*
X151350000Y-88200000D01*
X148326396Y-79190000D02*
X147950000Y-79190000D01*
X155075000Y-95765000D02*
X155075000Y-91925000D01*
%TO.N,Net-(U3-e)*%
X153670000Y-93330000D02*
X154000000Y-93000000D01*
X153670000Y-95250000D02*
X153670000Y-93330000D01*
D32*
%TO.N,-12V*%
X177200000Y-123800000D02*
X184200000Y-123800000D01*
X177100000Y-140000000D02*
X177100000Y-138400000D01*
X184200000Y-123800000D02*
X186000000Y-122000000D01*
X177200000Y-123800000D02*
X177200000Y-122200000D01*
X177100000Y-138400000D02*
X177100000Y-123900000D01*
X177100000Y-123900000D02*
X177200000Y-123800000D01*
D31*
%TO.N,Net-(U1-QE)*%
X150900000Y-82400000D02*
X148960000Y-80460000D01*
X148960000Y-80460000D02*
X147950000Y-80460000D01*
X150900000Y-94130000D02*
X150900000Y-82400000D01*
X153670000Y-96900000D02*
X150900000Y-94130000D01*
%TO.N,Net-(U3-f)*%
X159080000Y-80340000D02*
X159080000Y-82840000D01*
X158750000Y-80010000D02*
X159080000Y-80340000D01*
%TO.N,Net-(U1-QF)*%
X158750000Y-78360000D02*
X156390000Y-76000000D01*
X156390000Y-76000000D02*
X146953249Y-76000000D01*
X146600000Y-80756751D02*
X147573249Y-81730000D01*
X147573249Y-81730000D02*
X147950000Y-81730000D01*
X146600000Y-76353249D02*
X146600000Y-80756751D01*
X146953249Y-76000000D02*
X146600000Y-76353249D01*
%TO.N,Net-(U3-g)*%
X163830000Y-93330000D02*
X164160000Y-93000000D01*
X163830000Y-95250000D02*
X163830000Y-93330000D01*
%TO.N,Net-(U1-QG)*%
X150450000Y-94897462D02*
X150450000Y-84100000D01*
X163830000Y-96900000D02*
X163105000Y-97625000D01*
X153177538Y-97625000D02*
X150450000Y-94897462D01*
X150450000Y-84100000D02*
X149350000Y-83000000D01*
X149350000Y-83000000D02*
X147950000Y-83000000D01*
X163105000Y-97625000D02*
X153177538Y-97625000D01*
%TO.N,Net-(U8A--)*%
X147838604Y-137075000D02*
X158313604Y-147550000D01*
X179025000Y-141811396D02*
X179025000Y-129625000D01*
X173286396Y-147550000D02*
X179025000Y-141811396D01*
X175550000Y-120650000D02*
X176300000Y-119900000D01*
X158313604Y-147550000D02*
X173286396Y-147550000D01*
X171600000Y-117050000D02*
X171650000Y-117000000D01*
X175550000Y-122200000D02*
X171500000Y-122200000D01*
X179025000Y-129625000D02*
X178900000Y-129500000D01*
X175550000Y-122200000D02*
X175550000Y-120650000D01*
X171350000Y-118850000D02*
X171600000Y-118600000D01*
X171500000Y-122200000D02*
X171350000Y-122050000D01*
X171350000Y-120725000D02*
X171350000Y-118850000D01*
X171600000Y-118600000D02*
X171600000Y-117050000D01*
X171350000Y-122050000D02*
X171350000Y-120725000D01*
X124000000Y-135000000D02*
X126075000Y-137075000D01*
X126075000Y-137075000D02*
X147838604Y-137075000D01*
%TO.N,CV_IN_1*%
X172500000Y-53000000D02*
X174590000Y-55090000D01*
X169950000Y-134500000D02*
X169950000Y-132950000D01*
X169900000Y-131600000D02*
X169900000Y-132900000D01*
X174590000Y-55090000D02*
X179990000Y-55090000D01*
X169950000Y-132950000D02*
X169900000Y-132900000D01*
X170045000Y-136725000D02*
X170045000Y-134595000D01*
X170950000Y-53000000D02*
X172500000Y-53000000D01*
X179990000Y-55090000D02*
X180900000Y-56000000D01*
X170045000Y-134595000D02*
X169950000Y-134500000D01*
%TO.N,Net-(U8B--)*%
X136000000Y-135000000D02*
X137625000Y-136625000D01*
X173100000Y-147100000D02*
X178300000Y-141900000D01*
X172750000Y-127850000D02*
X172700000Y-127800000D01*
X158500000Y-147100000D02*
X173100000Y-147100000D01*
X174325000Y-126975000D02*
X175550000Y-125750000D01*
X172700000Y-127800000D02*
X172700000Y-125755000D01*
X172620000Y-126051751D02*
X173543249Y-126975000D01*
X172620000Y-125675000D02*
X172620000Y-126051751D01*
X137625000Y-136625000D02*
X148025000Y-136625000D01*
X174100000Y-129400000D02*
X172750000Y-129400000D01*
X173543249Y-126975000D02*
X174325000Y-126975000D01*
X175550000Y-125750000D02*
X175550000Y-123800000D01*
X172750000Y-129400000D02*
X172750000Y-127850000D01*
X178300000Y-141900000D02*
X178300000Y-130600000D01*
X148025000Y-136625000D02*
X158500000Y-147100000D01*
X172700000Y-125755000D02*
X172620000Y-125675000D01*
%TO.N,CV_IN_2*%
X189500000Y-63400000D02*
X189500000Y-133000000D01*
X184180000Y-58080000D02*
X189500000Y-63400000D01*
X171200000Y-145400000D02*
X171200000Y-143850000D01*
X170750000Y-143300000D02*
X171250000Y-143800000D01*
X189500000Y-133000000D02*
X182700000Y-139800000D01*
X171250000Y-143800000D02*
X171250000Y-141740000D01*
X170950000Y-58080000D02*
X184180000Y-58080000D01*
X182700000Y-139800000D02*
X179800000Y-139800000D01*
X171200000Y-143850000D02*
X171250000Y-143800000D01*
X171250000Y-141740000D02*
X171315000Y-141675000D01*
X170200000Y-143300000D02*
X170750000Y-143300000D01*
%TO.N,Net-(U3-DPX)*%
X158750000Y-95250000D02*
X158750000Y-93330000D01*
X158750000Y-93330000D02*
X159080000Y-93000000D01*
%TO.N,Net-(U1-QH)*%
X156200000Y-91100000D02*
X155600000Y-91100000D01*
X157615000Y-92515000D02*
X156200000Y-91100000D01*
X158750000Y-96900000D02*
X157615000Y-95765000D01*
X149600000Y-85543249D02*
X148326751Y-84270000D01*
X157615000Y-95765000D02*
X157615000Y-92515000D01*
X149600000Y-87200000D02*
X149600000Y-85543249D01*
X148326751Y-84270000D02*
X147950000Y-84270000D01*
%TO.N,Net-(U4-D0)*%
X96000000Y-86500000D02*
X90700001Y-86500000D01*
X90700001Y-86500000D02*
X90115001Y-85915000D01*
X84763249Y-89080000D02*
X84000000Y-89080000D01*
X90115001Y-85915000D02*
X87928249Y-85915000D01*
X98000000Y-86500000D02*
X97000000Y-85500000D01*
X103500000Y-85500000D02*
X102500000Y-86500000D01*
X87928249Y-85915000D02*
X84763249Y-89080000D01*
X102500000Y-86500000D02*
X98000000Y-86500000D01*
X103500000Y-85500000D02*
X101500000Y-85500000D01*
X97000000Y-85500000D02*
X96000000Y-86500000D01*
X101500000Y-85500000D02*
X101000000Y-85000000D01*
%TO.N,Net-(U4-D1)*%
X82700000Y-84923249D02*
X82978249Y-84645000D01*
X89951751Y-84645000D02*
X90300000Y-84296751D01*
X108000000Y-86500000D02*
X107000000Y-85500000D01*
X82978249Y-84645000D02*
X89951751Y-84645000D01*
X90300000Y-83800000D02*
X90800000Y-83300000D01*
X82700000Y-86886751D02*
X82700000Y-84923249D01*
X113500000Y-85500000D02*
X112500000Y-86500000D01*
X104800000Y-83300000D02*
X107000000Y-85500000D01*
X90800000Y-83300000D02*
X104800000Y-83300000D01*
X111500000Y-85500000D02*
X111000000Y-85000000D01*
X112500000Y-86500000D02*
X108000000Y-86500000D01*
X83623249Y-87810000D02*
X82700000Y-86886751D01*
X113500000Y-85500000D02*
X111500000Y-85500000D01*
X90300000Y-84296751D02*
X90300000Y-83800000D01*
X84000000Y-87810000D02*
X83623249Y-87810000D01*
%TO.N,Net-(U4-D2)*%
X123500000Y-85500000D02*
X122500000Y-86500000D01*
X84000000Y-86540000D02*
X85940000Y-86540000D01*
X123500000Y-85500000D02*
X121500000Y-85500000D01*
X118000000Y-86500000D02*
X117000000Y-85500000D01*
X121500000Y-85500000D02*
X121000000Y-85000000D01*
X85940000Y-86540000D02*
X86000000Y-86600000D01*
X122500000Y-86500000D02*
X118000000Y-86500000D01*
%TO.N,Net-(U4-D3)*%
X84000000Y-85270000D02*
X86070000Y-85270000D01*
X128000000Y-86500000D02*
X132500000Y-86500000D01*
X131500000Y-85500000D02*
X131000000Y-85000000D01*
X132500000Y-86500000D02*
X133500000Y-85500000D01*
X127000000Y-85500000D02*
X128000000Y-86500000D01*
X86070000Y-85270000D02*
X86400000Y-85600000D01*
X125000000Y-87500000D02*
X127000000Y-85500000D01*
X106300000Y-87500000D02*
X125000000Y-87500000D01*
X133500000Y-85500000D02*
X131500000Y-85500000D01*
%TO.N,Net-(U4-D4)*%
X98000000Y-98500000D02*
X102500000Y-98500000D01*
X97000000Y-97500000D02*
X98000000Y-98500000D01*
X91383233Y-83750000D02*
X103650000Y-83750000D01*
X105300000Y-85400000D02*
X105300000Y-91500000D01*
X101500000Y-97500000D02*
X101000000Y-97000000D01*
X90750000Y-84483147D02*
X89963147Y-85270000D01*
X102500000Y-98500000D02*
X103500000Y-97500000D01*
X90750000Y-84383233D02*
X90750000Y-84483147D01*
X103650000Y-83750000D02*
X105300000Y-85400000D01*
X89963147Y-85270000D02*
X88950000Y-85270000D01*
X91383233Y-83750000D02*
X90750000Y-84383233D01*
X103500000Y-97500000D02*
X101500000Y-97500000D01*
%TO.N,Net-(U4-D5)*%
X107000000Y-97500000D02*
X108000000Y-98500000D01*
X113500000Y-97500000D02*
X111500000Y-97500000D01*
X105675000Y-93548833D02*
X108326167Y-96200000D01*
X108326167Y-96200000D02*
X110200000Y-96200000D01*
X108000000Y-98500000D02*
X112500000Y-98500000D01*
X110200000Y-96200000D02*
X111000000Y-97000000D01*
X112500000Y-98500000D02*
X113500000Y-97500000D01*
X88950000Y-86540000D02*
X89360000Y-86950000D01*
X99323833Y-86950000D02*
X105675000Y-93301167D01*
X105675000Y-93301167D02*
X105675000Y-93548833D01*
X111500000Y-97500000D02*
X111000000Y-97000000D01*
X89360000Y-86950000D02*
X99323833Y-86950000D01*
%TO.N,Net-(U4-D6)*%
X95675000Y-90808233D02*
X95675000Y-98175000D01*
X88950000Y-87810000D02*
X92676767Y-87810000D01*
X96450000Y-98950000D02*
X115550000Y-98950000D01*
X115550000Y-98950000D02*
X117000000Y-97500000D01*
X92676767Y-87810000D02*
X95675000Y-90808233D01*
X121500000Y-97500000D02*
X121000000Y-97000000D01*
X118000000Y-98500000D02*
X122500000Y-98500000D01*
X95675000Y-98175000D02*
X96450000Y-98950000D01*
X117000000Y-97500000D02*
X118000000Y-98500000D01*
X123500000Y-97500000D02*
X121500000Y-97500000D01*
X122500000Y-98500000D02*
X123500000Y-97500000D01*
%TO.N,Net-(U4-D7)*%
X88950000Y-89080000D02*
X89580000Y-89080000D01*
X131500000Y-97500000D02*
X131000000Y-97000000D01*
X125100000Y-99400000D02*
X127000000Y-97500000D01*
X128000000Y-98500000D02*
X132500000Y-98500000D01*
X90651000Y-90151000D02*
X90651000Y-93787396D01*
X132500000Y-98500000D02*
X133500000Y-97500000D01*
X89580000Y-89080000D02*
X90651000Y-90151000D01*
X127000000Y-97500000D02*
X128000000Y-98500000D01*
X90651000Y-93787396D02*
X96263604Y-99400000D01*
X133500000Y-97500000D02*
X131500000Y-97500000D01*
X96263604Y-99400000D02*
X125100000Y-99400000D01*
%TO.N,Net-(U6-A0)*%
X148085000Y-58815000D02*
X148300000Y-58600000D01*
X82500000Y-53000000D02*
X88315000Y-58815000D01*
X148300000Y-58600000D02*
X148300000Y-57400000D01*
X88315000Y-58815000D02*
X148085000Y-58815000D01*
X148300000Y-57400000D02*
X147820000Y-56920000D01*
X147820000Y-56920000D02*
X147000000Y-56920000D01*
%TO.N,Net-(U6-A1)*%
X138992588Y-51775000D02*
X140007412Y-51775000D01*
X142850000Y-55650000D02*
X147000000Y-55650000D01*
X138225000Y-54225000D02*
X138225000Y-52542588D01*
X136450000Y-56000000D02*
X138225000Y-54225000D01*
X101500000Y-53000000D02*
X104500000Y-56000000D01*
X140775000Y-52542588D02*
X140775000Y-53575000D01*
X104500000Y-56000000D02*
X136450000Y-56000000D01*
X140007412Y-51775000D02*
X140775000Y-52542588D01*
X138225000Y-52542588D02*
X138992588Y-51775000D01*
X140775000Y-53575000D02*
X142850000Y-55650000D01*
%TO.N,Net-(D2-A)*%
X159540000Y-128550000D02*
X161450000Y-128550000D01*
X161450000Y-128550000D02*
X162000000Y-128000000D01*
%TO.N,Net-(D3-A)*%
X160900000Y-134100000D02*
X162000000Y-133000000D01*
X159540000Y-134100000D02*
X160900000Y-134100000D01*
%TO.N,Net-(D4-A)*%
X161350000Y-139650000D02*
X162000000Y-139000000D01*
X159540000Y-139650000D02*
X161350000Y-139650000D01*
%TO.N,Net-(U6-A2)*%
X146623249Y-54380000D02*
X147000000Y-54380000D01*
X123400000Y-50100000D02*
X142343249Y-50100000D01*
X120500000Y-53000000D02*
X123400000Y-50100000D01*
X142343249Y-50100000D02*
X146623249Y-54380000D01*
%TO.N,Net-(U6-A3)*%
X139500000Y-53000000D02*
X144690000Y-58190000D01*
X144690000Y-58190000D02*
X147000000Y-58190000D01*
%TO.N,Net-(U6-A4)*%
X78775000Y-51925000D02*
X81050000Y-49650000D01*
X82500000Y-57950000D02*
X78775000Y-54225000D01*
X81050000Y-49650000D02*
X148490000Y-49650000D01*
X78775000Y-54225000D02*
X78775000Y-51925000D01*
X82500000Y-73000000D02*
X82500000Y-57950000D01*
X148490000Y-49650000D02*
X151950000Y-53110000D01*
%TO.N,Net-(U6-A5)*%
X106500000Y-68000000D02*
X101500000Y-73000000D01*
X150334500Y-58190000D02*
X149424500Y-59100000D01*
X151950000Y-58190000D02*
X150334500Y-58190000D01*
X143400000Y-68000000D02*
X106500000Y-68000000D01*
%TO.N,Net-(U6-A6)*%
X151320000Y-54380000D02*
X151950000Y-54380000D01*
X124700000Y-68800000D02*
X142500000Y-68800000D01*
X149700000Y-56000000D02*
X151320000Y-54380000D01*
X120500000Y-73000000D02*
X124700000Y-68800000D01*
%TO.N,Net-(U6-A7)*%
X151573249Y-56920000D02*
X151950000Y-56920000D01*
X149800000Y-57100000D02*
X151770000Y-57100000D01*
X147700000Y-64800000D02*
X148700000Y-64800000D01*
X151770000Y-57100000D02*
X151950000Y-56920000D01*
X139500000Y-73000000D02*
X147700000Y-64800000D01*
D32*
%TO.N,+3.3V*%
X166700000Y-116900000D02*
X167700000Y-117900000D01*
X117000000Y-105000000D02*
X123500000Y-105000000D01*
X113500000Y-105000000D02*
X117000000Y-105000000D01*
X133500000Y-76500000D02*
X137000000Y-73000000D01*
X169530000Y-116070000D02*
X167700000Y-117900000D01*
X97000000Y-93000000D02*
X103500000Y-93000000D01*
X158500000Y-105000000D02*
X162000000Y-105000000D01*
X71100000Y-75000000D02*
X71100000Y-112318478D01*
X127000000Y-105000000D02*
X133500000Y-105000000D01*
X152000000Y-105000000D02*
X158500000Y-105000000D01*
X166700000Y-116500000D02*
X166700000Y-116900000D01*
X118000000Y-53000000D02*
X119350000Y-54350000D01*
X117000000Y-74000000D02*
X118000000Y-73000000D01*
X142000000Y-105000000D02*
X148500000Y-105000000D01*
X80000000Y-53000000D02*
X81350000Y-51650000D01*
X136580000Y-96080000D02*
X135400000Y-94900000D01*
X117000000Y-81000000D02*
X117000000Y-74000000D01*
X143000000Y-76650000D02*
X146650000Y-73000000D01*
X170075000Y-125675000D02*
X167700000Y-123300000D01*
X147000000Y-53110000D02*
X148390000Y-53110000D01*
X167700000Y-117900000D02*
X167700000Y-123300000D01*
X94100000Y-78100000D02*
X85100000Y-78100000D01*
X167700000Y-123300000D02*
X167700000Y-139330000D01*
X133500000Y-105000000D02*
X142000000Y-105000000D01*
X117000000Y-93000000D02*
X123500000Y-93000000D01*
X143000000Y-84270000D02*
X138800000Y-84270000D01*
X134950000Y-91550000D02*
X134950000Y-86900000D01*
X84000000Y-82730000D02*
X82430000Y-82730000D01*
X97650000Y-51650000D02*
X99000000Y-53000000D01*
X167700000Y-139330000D02*
X170045000Y-141675000D01*
X123500000Y-93000000D02*
X127000000Y-93000000D01*
X82000000Y-99000000D02*
X81600000Y-98600000D01*
X172000000Y-105000000D02*
X178500000Y-105000000D01*
X100350000Y-51650000D02*
X116650000Y-51650000D01*
X135650000Y-54350000D02*
X137000000Y-53000000D01*
X119350000Y-54350000D02*
X135650000Y-54350000D01*
X143050000Y-96080000D02*
X136580000Y-96080000D01*
X170080000Y-125675000D02*
X170075000Y-125675000D01*
X185150000Y-116070000D02*
X169530000Y-116070000D01*
X81350000Y-51650000D02*
X97650000Y-51650000D01*
X74000000Y-115218478D02*
X74000000Y-115920000D01*
X140100000Y-86300000D02*
X140100000Y-85570000D01*
X85000000Y-78200000D02*
X85100000Y-78100000D01*
X140100000Y-85570000D02*
X138800000Y-84270000D01*
X97000000Y-75000000D02*
X99000000Y-73000000D01*
X127000000Y-93000000D02*
X133500000Y-93000000D01*
X162000000Y-105000000D02*
X168500000Y-105000000D01*
X71100000Y-112318478D02*
X74000000Y-115218478D01*
X140650000Y-76650000D02*
X137000000Y-73000000D01*
X103500000Y-105000000D02*
X107000000Y-105000000D01*
X113500000Y-81000000D02*
X107000000Y-81000000D01*
X164100000Y-53000000D02*
X163700000Y-52600000D01*
X127000000Y-81000000D02*
X123500000Y-81000000D01*
X148390000Y-53110000D02*
X148900000Y-52600000D01*
X143050000Y-87450000D02*
X142600000Y-87000000D01*
X84000000Y-99000000D02*
X82000000Y-99000000D01*
X73100000Y-73000000D02*
X71100000Y-75000000D01*
X85100000Y-78100000D02*
X80000000Y-73000000D01*
X113500000Y-93000000D02*
X117000000Y-93000000D01*
X133500000Y-105000000D02*
X135400000Y-103100000D01*
X168500000Y-105000000D02*
X172000000Y-105000000D01*
X123500000Y-105000000D02*
X127000000Y-105000000D01*
X146650000Y-73000000D02*
X156000000Y-73000000D01*
X135400000Y-103100000D02*
X135400000Y-94900000D01*
X134950000Y-82450000D02*
X133500000Y-81000000D01*
X133500000Y-81000000D02*
X127000000Y-81000000D01*
X103500000Y-81000000D02*
X97000000Y-81000000D01*
X166000000Y-53000000D02*
X164100000Y-53000000D01*
X134950000Y-86900000D02*
X134950000Y-82450000D01*
X135400000Y-94900000D02*
X133500000Y-93000000D01*
X138800000Y-84270000D02*
X137580000Y-84270000D01*
X143050000Y-88460000D02*
X143050000Y-87450000D01*
X80000000Y-73000000D02*
X73100000Y-73000000D01*
X83100000Y-78200000D02*
X85000000Y-78200000D01*
X143000000Y-76650000D02*
X140650000Y-76650000D01*
X117000000Y-81000000D02*
X113500000Y-81000000D01*
X133500000Y-81000000D02*
X133500000Y-76500000D01*
X107000000Y-105000000D02*
X113500000Y-105000000D01*
X133500000Y-93000000D02*
X134950000Y-91550000D01*
X186000000Y-116920000D02*
X185150000Y-116070000D01*
X107000000Y-93000000D02*
X113500000Y-93000000D01*
X82430000Y-82730000D02*
X82200000Y-82500000D01*
X116650000Y-51650000D02*
X118000000Y-53000000D01*
X99000000Y-53000000D02*
X100350000Y-51650000D01*
X107000000Y-81000000D02*
X103500000Y-81000000D01*
X148500000Y-105000000D02*
X152000000Y-105000000D01*
X137580000Y-84270000D02*
X134950000Y-86900000D01*
X97000000Y-105000000D02*
X103500000Y-105000000D01*
X97000000Y-81000000D02*
X94100000Y-78100000D01*
X97000000Y-81000000D02*
X97000000Y-75000000D01*
X123500000Y-81000000D02*
X117000000Y-81000000D01*
D31*
%TO.N,Net-(U9-A0)*%
X158500000Y-53000000D02*
X162310000Y-56810000D01*
X162310000Y-56810000D02*
X166000000Y-56810000D01*
%TO.N,Net-(U9-A1)*%
X166376751Y-55540000D02*
X166000000Y-55540000D01*
X177500000Y-53000000D02*
X175100000Y-50600000D01*
X175100000Y-50600000D02*
X170100000Y-50600000D01*
X170100000Y-50600000D02*
X170100000Y-51816751D01*
X170100000Y-51816751D02*
X166376751Y-55540000D01*
%TO.N,Net-(U9-A2)*%
X163500000Y-54700000D02*
X163930000Y-54270000D01*
X158500000Y-63500000D02*
X159200000Y-62800000D01*
X158500000Y-73000000D02*
X158500000Y-63500000D01*
X163930000Y-54270000D02*
X166000000Y-54270000D01*
%TO.N,Net-(U9-A3)*%
X177500000Y-73000000D02*
X173700000Y-69200000D01*
X171800000Y-69200000D02*
X168600000Y-66000000D01*
X168600000Y-66000000D02*
X168600000Y-60303249D01*
X168600000Y-60303249D02*
X166376751Y-58080000D01*
X173700000Y-69200000D02*
X171800000Y-69200000D01*
X166376751Y-58080000D02*
X166000000Y-58080000D01*
%TO.N,Net-(U5-D0)*%
X84000000Y-105350000D02*
X83623249Y-105350000D01*
X103500000Y-109500000D02*
X101500000Y-109500000D01*
X97000000Y-109500000D02*
X98000000Y-110500000D01*
X82765001Y-107265000D02*
X86665000Y-107265000D01*
X102500000Y-110500000D02*
X103500000Y-109500000D01*
X86665000Y-107265000D02*
X89900000Y-110500000D01*
X82700000Y-107199999D02*
X82765001Y-107265000D01*
X98000000Y-110500000D02*
X102500000Y-110500000D01*
X83623249Y-105350000D02*
X82700000Y-106273249D01*
X82700000Y-106273249D02*
X82700000Y-107199999D01*
X101500000Y-109500000D02*
X101000000Y-109000000D01*
X89900000Y-110500000D02*
X91700000Y-110500000D01*
%TO.N,Net-(U1-QH')*%
X141750000Y-89383249D02*
X142048249Y-89085000D01*
X142000000Y-91000000D02*
X143050000Y-91000000D01*
X144350000Y-86890000D02*
X143000000Y-85540000D01*
X144071751Y-89085000D02*
X144350000Y-88806751D01*
X142048249Y-89085000D02*
X144071751Y-89085000D01*
X141750000Y-90750000D02*
X142000000Y-91000000D01*
X141750000Y-90750000D02*
X141750000Y-89383249D01*
X144350000Y-88806751D02*
X144350000Y-86890000D01*
%TO.N,Net-(J12-PadT)*%
X120000000Y-119000000D02*
X122350000Y-119000000D01*
%TO.N,Net-(J13-PadT)*%
X132000000Y-119000000D02*
X134350000Y-119000000D01*
%TO.N,Net-(U5-D1)*%
X83220000Y-104080000D02*
X84000000Y-104080000D01*
X113500000Y-109500000D02*
X111500000Y-109500000D01*
X108000000Y-110500000D02*
X112500000Y-110500000D01*
X105100000Y-111400000D02*
X97600000Y-111400000D01*
X107000000Y-109500000D02*
X105100000Y-111400000D01*
X111500000Y-109500000D02*
X111000000Y-109000000D01*
X82200000Y-105100000D02*
X83220000Y-104080000D01*
X107000000Y-109500000D02*
X108000000Y-110500000D01*
X112500000Y-110500000D02*
X113500000Y-109500000D01*
%TO.N,Net-(U5-D2)*%
X116650500Y-107600000D02*
X116800000Y-107450500D01*
X121500000Y-109500000D02*
X121000000Y-109000000D01*
X84000000Y-102810000D02*
X83090000Y-102810000D01*
X118000000Y-110500000D02*
X122500000Y-110500000D01*
X83090000Y-102810000D02*
X82200000Y-103700000D01*
X122500000Y-110500000D02*
X123500000Y-109500000D01*
X117000000Y-109500000D02*
X118000000Y-110500000D01*
X123500000Y-109500000D02*
X121500000Y-109500000D01*
X96400000Y-107600000D02*
X116650500Y-107600000D01*
%TO.N,Net-(U5-D3)*%
X128000000Y-110500000D02*
X132500000Y-110500000D01*
X132500000Y-110500000D02*
X133500000Y-109500000D01*
X81100000Y-103600000D02*
X83160000Y-101540000D01*
X133500000Y-109500000D02*
X131500000Y-109500000D01*
X83160000Y-101540000D02*
X84000000Y-101540000D01*
X131500000Y-109500000D02*
X131000000Y-109000000D01*
X127000000Y-109500000D02*
X128000000Y-110500000D01*
%TO.N,Net-(U5-D4)*%
X97000000Y-112200000D02*
X95600000Y-110800000D01*
X95600000Y-104200000D02*
X94100000Y-102700000D01*
X142000000Y-109500000D02*
X139300000Y-112200000D01*
X90486751Y-102700000D02*
X89326751Y-101540000D01*
X95600000Y-110800000D02*
X95600000Y-104200000D01*
X143350000Y-108150000D02*
X143350000Y-107500000D01*
X142000000Y-109500000D02*
X148500000Y-109500000D01*
X142000000Y-109500000D02*
X143350000Y-108150000D01*
X94100000Y-102700000D02*
X90486751Y-102700000D01*
X89326751Y-101540000D02*
X88950000Y-101540000D01*
X139300000Y-112200000D02*
X97000000Y-112200000D01*
%TO.N,Net-(U5-D5)*%
X95150000Y-104386396D02*
X93913604Y-103150000D01*
X93913604Y-103150000D02*
X89290000Y-103150000D01*
X153350000Y-108150000D02*
X153350000Y-107500000D01*
X152000000Y-109500000D02*
X153350000Y-108150000D01*
X152000000Y-109500000D02*
X158500000Y-109500000D01*
X89290000Y-103150000D02*
X88950000Y-102810000D01*
X152000000Y-109500000D02*
X148850000Y-112650000D01*
X95150000Y-110986396D02*
X95150000Y-104386396D01*
X96813604Y-112650000D02*
X95150000Y-110986396D01*
X148850000Y-112650000D02*
X96813604Y-112650000D01*
%TO.N,Net-(U5-D6)*%
X158400000Y-113100000D02*
X96627208Y-113100000D01*
X162000000Y-109500000D02*
X168500000Y-109500000D01*
X163350000Y-108150000D02*
X163350000Y-107500000D01*
X162000000Y-109500000D02*
X163350000Y-108150000D01*
X96627208Y-113100000D02*
X94700000Y-111172792D01*
X162000000Y-109500000D02*
X158400000Y-113100000D01*
X94127208Y-104000000D02*
X89030000Y-104000000D01*
X89030000Y-104000000D02*
X88950000Y-104080000D01*
X94700000Y-104572792D02*
X94127208Y-104000000D01*
X94700000Y-111172792D02*
X94700000Y-104572792D01*
%TO.N,Net-(U5-D7)*%
X89550000Y-105350000D02*
X88950000Y-105350000D01*
X161311396Y-110825000D02*
X158586396Y-113550000D01*
X172000000Y-109500000D02*
X173350000Y-108150000D01*
X90651000Y-106451000D02*
X89550000Y-105350000D01*
X172000000Y-109500000D02*
X178500000Y-109500000D01*
X173350000Y-108150000D02*
X173350000Y-107500000D01*
X158586396Y-113550000D02*
X96440812Y-113550000D01*
X96440812Y-113550000D02*
X90651000Y-107760188D01*
X170675000Y-110825000D02*
X161311396Y-110825000D01*
X90651000Y-107760188D02*
X90651000Y-106451000D01*
X172000000Y-109500000D02*
X170675000Y-110825000D01*
%TO.N,/Shift register in 1/DATA_OUT*%
X84000000Y-106620000D02*
X84376751Y-106620000D01*
X85300000Y-105696751D02*
X85300000Y-92920000D01*
X84376751Y-106620000D02*
X85300000Y-105696751D01*
X85300000Y-92920000D02*
X84000000Y-91620000D01*
%TD*%
M02*
