M48
; DRILL file {KiCad 7.0.2} date Wed Aug 30 17:10:09 2023
; FORMAT={-:-/ absolute / inch / decimal}
; #@! TF.CreationDate,2023-08-30T17:10:09+01:00
; #@! TF.GenerationSoftware,Kicad,Pcbnew,7.0.2
; #@! TF.FileFunction,Plated,1,2,PTH
FMAT,2
INCH
; #@! TA.AperFunction,Plated,PTH,ViaDrill
T1C0.0157
; #@! TA.AperFunction,Plated,PTH,ComponentDrill
T2C0.0236
; #@! TA.AperFunction,Plated,PTH,ComponentDrill
T3C0.0276
; #@! TA.AperFunction,Plated,PTH,ComponentDrill
T4C0.0354
; #@! TA.AperFunction,Plated,PTH,ComponentDrill
T5C0.0394
; #@! TA.AperFunction,Plated,PTH,ComponentDrill
T6C0.0433
; #@! TA.AperFunction,Plated,PTH,ComponentDrill
T7C0.0512
; #@! TA.AperFunction,Plated,PTH,ComponentDrill
T8C0.0591
%
G90
G05
T1
X3.1929Y-4.0787
X3.2126Y-3.8819
X3.2362Y-3.248
X3.2362Y-4.0827
X3.2362Y-4.1378
X3.2598Y-4.5315
X3.2717Y-3.0787
X3.2835Y-3.7913
X3.3297Y-3.7835
X3.3858Y-3.4094
X3.3898Y-3.8228
X3.4016Y-3.3701
X3.4183Y-3.8543
X3.6102Y-4.3504
X3.7953Y-4.2362
X3.8425Y-4.3858
X3.8661Y-3.7756
X3.874Y-3.3258
X4.1457Y-3.6024
X4.185Y-3.4449
X4.2638Y-3.311
X4.5984Y-4.2303
X4.6535Y-3.7795
X5.122Y-4.252
X5.4921Y-4.2165
X5.5157Y-3.3976
X5.5472Y-3.189
X5.6102Y-2.7087
X5.6142Y-3.4252
X5.6457Y-2.6772
X5.6969Y-3.685
X5.6969Y-3.7323
X5.7008Y-3.5827
X5.7362Y-3.5354
X5.8543Y-2.5512
X5.8622Y-2.0709
X5.8829Y-2.3268
X5.8898Y-3.4331
X5.8937Y-2.2047
X5.8937Y-3.4843
X5.8947Y-3.5315
X5.8976Y-2.248
X5.9567Y-3.9606
X6.0433Y-3.8897
X6.0827Y-3.9183
X6.126Y-3.5866
X6.2677Y-2.4724
X6.437Y-2.1535
X6.4449Y-2.0709
X6.563Y-4.5866
X6.689Y-5.1811
X6.7008Y-5.6417
X6.7717Y-4.8819
X6.7795Y-5.1496
X6.8228Y-2.3504
X6.8543Y-5.0945
X6.9016Y-5.5709
X6.9094Y-5.3504
X6.9409Y-4.7205
X7.0197Y-5.1417
X7.0433Y-5.0984
X7.0787Y-5.5039
X7.0906Y-5.2598
X7.1181Y-2.252
X7.122Y-2.2047
X7.1575Y-2.252
T3
X7.0591Y-3.3071
X7.0591Y-3.3937
X7.0591Y-3.4803
X7.0591Y-3.5669
X7.1024Y-3.3504
X7.1024Y-3.437
X7.1024Y-3.5236
X7.1024Y-3.6102
T4
X6.1811Y-4.8425
X6.1811Y-5.061
X6.1811Y-5.2795
X6.1811Y-5.498
X6.2811Y-4.8425
X6.2811Y-5.061
X6.2811Y-5.2795
X6.2811Y-5.498
X7.2272Y-3.2894
X7.2272Y-3.628
T5
X2.9134Y-3.0638
X2.9134Y-3.1638
X2.9134Y-3.2638
X2.9134Y-3.3638
X2.9134Y-3.4638
X2.9134Y-3.5638
X2.9134Y-3.6638
X2.9134Y-3.7638
X2.9134Y-3.8638
X2.9134Y-3.9638
X2.9134Y-4.0638
X2.9134Y-4.1638
X2.9134Y-4.2638
X2.9134Y-4.3638
X2.9134Y-4.4638
X2.9134Y-4.5638
X2.9134Y-4.6638
X2.9134Y-4.7638
X3.1496Y-2.0866
X3.1496Y-2.874
X3.248Y-2.0866
X3.248Y-2.874
X3.3465Y-2.0866
X3.3465Y-2.874
X3.8976Y-2.0866
X3.8976Y-2.874
X3.9961Y-2.0866
X3.9961Y-2.874
X4.0945Y-2.0866
X4.0945Y-2.874
X4.6457Y-2.0866
X4.6457Y-2.874
X4.7441Y-2.0866
X4.7441Y-2.874
X4.8425Y-2.0866
X4.8425Y-2.874
X5.3937Y-2.0866
X5.3937Y-2.874
X5.4921Y-2.0866
X5.4921Y-2.874
X5.5906Y-2.0866
X5.5906Y-2.874
X6.063Y-3.2614
X6.063Y-3.6614
X6.1417Y-2.0866
X6.1417Y-2.874
X6.163Y-3.2614
X6.163Y-3.6614
X6.2402Y-2.0866
X6.2402Y-2.874
X6.263Y-3.2614
X6.263Y-3.6614
X6.3386Y-2.0866
X6.3386Y-2.874
X6.363Y-3.2614
X6.363Y-3.6614
X6.463Y-3.2614
X6.463Y-3.6614
X6.563Y-3.2614
X6.563Y-3.6614
X6.8898Y-2.0866
X6.8898Y-2.874
X6.9882Y-2.0866
X6.9882Y-2.874
X7.0866Y-2.0866
X7.0866Y-2.874
X7.3228Y-3.1031
X7.3228Y-3.2031
X7.3228Y-3.3031
X7.3228Y-3.4031
X7.3228Y-3.5031
X7.3228Y-3.6031
X7.3228Y-3.7031
X7.3228Y-3.8031
X7.3228Y-3.9031
X7.3228Y-4.0031
X7.3228Y-4.1031
X7.3228Y-4.2031
X7.3228Y-4.3031
X7.3228Y-4.4031
X7.3228Y-4.5031
X7.3228Y-4.6031
X7.3228Y-4.7031
X7.3228Y-4.8031
T6
X3.8189Y-3.189
X3.8189Y-3.3661
X3.8189Y-3.6614
X3.8189Y-3.8386
X3.8189Y-4.1339
X3.8189Y-4.311
X4.0748Y-3.189
X4.0748Y-3.3661
X4.0748Y-3.6614
X4.0748Y-3.8386
X4.0748Y-4.1339
X4.0748Y-4.311
X4.2126Y-3.189
X4.2126Y-3.3661
X4.2126Y-3.6614
X4.2126Y-3.8386
X4.2126Y-4.1339
X4.2126Y-4.311
X4.4685Y-3.189
X4.4685Y-3.3661
X4.4685Y-3.6614
X4.4685Y-3.8386
X4.4685Y-4.1339
X4.4685Y-4.311
X4.6063Y-3.189
X4.6063Y-3.3661
X4.6063Y-3.6614
X4.6063Y-3.8386
X4.6063Y-4.1339
X4.6063Y-4.311
X4.8622Y-3.189
X4.8622Y-3.3661
X4.8622Y-3.6614
X4.8622Y-3.8386
X4.8622Y-4.1339
X4.8622Y-4.311
X5.0Y-3.189
X5.0Y-3.3661
X5.0Y-3.6614
X5.0Y-3.8386
X5.0Y-4.1339
X5.0Y-4.311
X5.2559Y-3.189
X5.2559Y-3.3661
X5.2559Y-3.6614
X5.2559Y-3.8386
X5.2559Y-4.1339
X5.2559Y-4.311
X5.5906Y-4.1339
X5.5906Y-4.311
X5.8465Y-4.1339
X5.8465Y-4.311
X5.9843Y-4.1339
X5.9843Y-4.311
X6.2402Y-4.1339
X6.2402Y-4.311
X6.378Y-4.1339
X6.378Y-4.311
X6.6339Y-4.1339
X6.6339Y-4.311
X6.7717Y-4.1339
X6.7717Y-4.311
X7.0276Y-4.1339
X7.0276Y-4.311
T7
X3.1496Y-3.3465
X3.1496Y-3.5433
X3.1496Y-3.9764
X3.1496Y-4.1732
X3.6417Y-3.3465
X3.6417Y-3.5433
X3.6417Y-3.9764
X3.6417Y-4.1732
T2
G00X3.2874Y-4.685
M15
G01X3.3268Y-4.685
M16
G05
G00X3.2874Y-5.0118
M15
G01X3.3268Y-5.0118
M16
G05
G00X3.2874Y-5.1339
M15
G01X3.3268Y-5.1339
M16
G05
G00X3.2874Y-5.315
M15
G01X3.3268Y-5.315
M16
G05
G00X3.2874Y-5.6417
M15
G01X3.3268Y-5.6417
M16
G05
G00X3.2874Y-5.7638
M15
G01X3.3268Y-5.7638
M16
G05
G00X3.7598Y-4.685
M15
G01X3.7992Y-4.685
M16
G05
G00X3.7598Y-5.0118
M15
G01X3.7992Y-5.0118
M16
G05
G00X3.7598Y-5.1339
M15
G01X3.7992Y-5.1339
M16
G05
G00X3.7598Y-5.315
M15
G01X3.7992Y-5.315
M16
G05
G00X3.7598Y-5.6417
M15
G01X3.7992Y-5.6417
M16
G05
G00X3.7598Y-5.7638
M15
G01X3.7992Y-5.7638
M16
G05
G00X4.2323Y-4.685
M15
G01X4.2717Y-4.685
M16
G05
G00X4.2323Y-5.0118
M15
G01X4.2717Y-5.0118
M16
G05
G00X4.2323Y-5.1339
M15
G01X4.2717Y-5.1339
M16
G05
G00X4.2323Y-5.315
M15
G01X4.2717Y-5.315
M16
G05
G00X4.2323Y-5.6417
M15
G01X4.2717Y-5.6417
M16
G05
G00X4.2323Y-5.7638
M15
G01X4.2717Y-5.7638
M16
G05
G00X4.7047Y-4.685
M15
G01X4.7441Y-4.685
M16
G05
G00X4.7047Y-5.0118
M15
G01X4.7441Y-5.0118
M16
G05
G00X4.7047Y-5.1339
M15
G01X4.7441Y-5.1339
M16
G05
G00X4.7047Y-5.315
M15
G01X4.7441Y-5.315
M16
G05
G00X4.7047Y-5.6417
M15
G01X4.7441Y-5.6417
M16
G05
G00X4.7047Y-5.7638
M15
G01X4.7441Y-5.7638
M16
G05
G00X5.1772Y-4.685
M15
G01X5.2165Y-4.685
M16
G05
G00X5.1772Y-5.0118
M15
G01X5.2165Y-5.0118
M16
G05
G00X5.1772Y-5.1339
M15
G01X5.2165Y-5.1339
M16
G05
G00X5.1772Y-5.315
M15
G01X5.2165Y-5.315
M16
G05
G00X5.1772Y-5.6417
M15
G01X5.2165Y-5.6417
M16
G05
G00X5.1772Y-5.7638
M15
G01X5.2165Y-5.7638
M16
G05
G00X5.6496Y-4.685
M15
G01X5.689Y-4.685
M16
G05
G00X5.6496Y-5.0118
M15
G01X5.689Y-5.0118
M16
G05
G00X5.6496Y-5.1339
M15
G01X5.689Y-5.1339
M16
G05
G00X5.6496Y-5.315
M15
G01X5.689Y-5.315
M16
G05
G00X5.6496Y-5.6417
M15
G01X5.689Y-5.6417
M16
G05
G00X5.6496Y-5.7638
M15
G01X5.689Y-5.7638
M16
G05
T8
G00X3.0591Y-1.811
M15
G01X3.0591Y-1.7717
M16
G05
G00X3.0591Y-2.5984
M15
G01X3.0591Y-2.5591
M16
G05
G00X3.437Y-1.811
M15
G01X3.437Y-1.7717
M16
G05
G00X3.437Y-2.5984
M15
G01X3.437Y-2.5591
M16
G05
G00X3.8071Y-1.811
M15
G01X3.8071Y-1.7717
M16
G05
G00X3.8071Y-2.5984
M15
G01X3.8071Y-2.5591
M16
G05
G00X4.185Y-1.811
M15
G01X4.185Y-1.7717
M16
G05
G00X4.185Y-2.5984
M15
G01X4.185Y-2.5591
M16
G05
G00X4.5551Y-1.811
M15
G01X4.5551Y-1.7717
M16
G05
G00X4.5551Y-2.5984
M15
G01X4.5551Y-2.5591
M16
G05
G00X4.9331Y-1.811
M15
G01X4.9331Y-1.7717
M16
G05
G00X4.9331Y-2.5984
M15
G01X4.9331Y-2.5591
M16
G05
G00X5.3031Y-1.811
M15
G01X5.3031Y-1.7717
M16
G05
G00X5.3031Y-2.5984
M15
G01X5.3031Y-2.5591
M16
G05
G00X5.6811Y-1.811
M15
G01X5.6811Y-1.7717
M16
G05
G00X5.6811Y-2.5984
M15
G01X5.6811Y-2.5591
M16
G05
G00X6.0512Y-1.811
M15
G01X6.0512Y-1.7717
M16
G05
G00X6.0512Y-2.5984
M15
G01X6.0512Y-2.5591
M16
G05
G00X6.4291Y-1.811
M15
G01X6.4291Y-1.7717
M16
G05
G00X6.4291Y-2.5984
M15
G01X6.4291Y-2.5591
M16
G05
G00X6.7992Y-1.811
M15
G01X6.7992Y-1.7717
M16
G05
G00X6.7992Y-2.5984
M15
G01X6.7992Y-2.5591
M16
G05
G00X7.1772Y-1.811
M15
G01X7.1772Y-1.7717
M16
G05
G00X7.1772Y-2.5984
M15
G01X7.1772Y-2.5591
M16
G05
T0
M30
