%TF.GenerationSoftware,KiCad,Pcbnew,7.0.2*%
%TF.CreationDate,2023-09-05T13:57:42+01:00*%
%TF.ProjectId,dk2_02_panel,646b325f-3032-45f7-9061-6e656c2e6b69,rev?*%
%TF.SameCoordinates,Original*%
%TF.FileFunction,Legend,Bot*%
%TF.FilePolarity,Positive*%
%FSLAX46Y46*%
G04 Gerber Fmt 4.6, Leading zero omitted, Abs format (unit mm)*
G04 Created by KiCad (PCBNEW 7.0.2) date 2023-09-05 13:57:42*
%MOMM*%
%LPD*%
G01*
G04 APERTURE LIST*
%ADD10C,3.200000*%
%ADD11C,6.400000*%
%ADD12C,4.300000*%
G04 APERTURE END LIST*
%LPC*%
D10*
%TO.C,H4*%
X133450000Y-147250000D03*
%TD*%
D11*
%TO.C,H14*%
X94000000Y-116000000D03*
%TD*%
D12*
%TO.C,H35*%
X115250000Y-99250000D03*
%TD*%
D11*
%TO.C,H42*%
X127500000Y-37500000D03*
%TD*%
%TO.C,H38*%
X51500000Y-37500000D03*
%TD*%
%TO.C,H12*%
X70000000Y-116000000D03*
%TD*%
%TO.C,H20*%
X82000000Y-132000000D03*
%TD*%
%TO.C,H16*%
X94000000Y-132000000D03*
%TD*%
D12*
%TO.C,H23*%
X70250000Y-75250000D03*
%TD*%
D10*
%TO.C,H6*%
X136000000Y-48000000D03*
%TD*%
D11*
%TO.C,H18*%
X58000000Y-132000000D03*
%TD*%
%TO.C,H39*%
X70500000Y-37500000D03*
%TD*%
D10*
%TO.C,H51*%
X108250000Y-126100000D03*
%TD*%
%TO.C,H49*%
X108250000Y-115000000D03*
%TD*%
D11*
%TO.C,H9*%
X34000000Y-116000000D03*
%TD*%
%TO.C,H17*%
X46000000Y-132000000D03*
%TD*%
%TO.C,H43*%
X32500000Y-57500000D03*
%TD*%
%TO.C,H44*%
X51500000Y-57500000D03*
%TD*%
D10*
%TO.C,H3*%
X26550000Y-147250000D03*
%TD*%
D11*
%TO.C,H11*%
X58000000Y-116000000D03*
%TD*%
D12*
%TO.C,H33*%
X95250000Y-99250000D03*
%TD*%
D11*
%TO.C,H19*%
X70000000Y-132000000D03*
%TD*%
D12*
%TO.C,H31*%
X70250000Y-99250000D03*
%TD*%
D10*
%TO.C,H5*%
X24000000Y-48000000D03*
%TD*%
D11*
%TO.C,H15*%
X34000000Y-132000000D03*
%TD*%
D12*
%TO.C,H24*%
X80250000Y-75250000D03*
%TD*%
D11*
%TO.C,H45*%
X70500000Y-57500000D03*
%TD*%
%TO.C,H37*%
X32500000Y-37500000D03*
%TD*%
D10*
%TO.C,H7*%
X24000000Y-120000000D03*
%TD*%
D12*
%TO.C,H34*%
X105250000Y-99250000D03*
%TD*%
%TO.C,H28*%
X80250000Y-87250000D03*
%TD*%
D10*
%TO.C,H2*%
X133450000Y-24750000D03*
%TD*%
D11*
%TO.C,H48*%
X127500000Y-57500000D03*
%TD*%
D12*
%TO.C,H27*%
X70250000Y-87250000D03*
%TD*%
D11*
%TO.C,H40*%
X89500000Y-37500000D03*
%TD*%
%TO.C,H47*%
X108500000Y-57500000D03*
%TD*%
D12*
%TO.C,H25*%
X50250000Y-87250000D03*
%TD*%
D10*
%TO.C,H50*%
X108250000Y-120550000D03*
%TD*%
%TO.C,H8*%
X136000000Y-120000000D03*
%TD*%
D11*
%TO.C,H10*%
X46000000Y-116000000D03*
%TD*%
D12*
%TO.C,H32*%
X80250000Y-99250000D03*
%TD*%
%TO.C,H26*%
X60250000Y-87250000D03*
%TD*%
D11*
%TO.C,H13*%
X82000000Y-116000000D03*
%TD*%
D12*
%TO.C,H21*%
X50250000Y-75250000D03*
%TD*%
%TO.C,H30*%
X60250000Y-99250000D03*
%TD*%
D10*
%TO.C,H1*%
X26550000Y-24750000D03*
%TD*%
D12*
%TO.C,H22*%
X60250000Y-75250000D03*
%TD*%
D10*
%TO.C,H52*%
X108250000Y-131650000D03*
%TD*%
D12*
%TO.C,H36*%
X125250000Y-99250000D03*
%TD*%
D11*
%TO.C,H46*%
X89500000Y-57500000D03*
%TD*%
%TO.C,H41*%
X108500000Y-37500000D03*
%TD*%
D12*
%TO.C,H29*%
X50250000Y-99250000D03*
%TD*%
%LPD*%
M02*
