%TF.GenerationSoftware,KiCad,Pcbnew,7.0.2*%
%TF.CreationDate,2023-09-05T13:57:42+01:00*%
%TF.ProjectId,dk2_02_panel,646b325f-3032-45f7-9061-6e656c2e6b69,rev?*%
%TF.SameCoordinates,Original*%
%TF.FileFunction,Legend,Top*%
%TF.FilePolarity,Positive*%
%FSLAX46Y46*%
G04 Gerber Fmt 4.6, Leading zero omitted, Abs format (unit mm)*
G04 Created by KiCad (PCBNEW 7.0.2) date 2023-09-05 13:57:42*
%MOMM*%
%LPD*%
G01*
G04 APERTURE LIST*
%ADD10C,0.150000*%
%ADD11C,3.200000*%
%ADD12C,6.400000*%
%ADD13C,4.300000*%
G04 APERTURE END LIST*
D10*
X44499998Y-150632857D02*
X44499998Y-147632857D01*
X44499998Y-147632857D02*
X45214284Y-147632857D01*
X45214284Y-147632857D02*
X45642855Y-147775714D01*
X45642855Y-147775714D02*
X45928570Y-148061428D01*
X45928570Y-148061428D02*
X46071427Y-148347142D01*
X46071427Y-148347142D02*
X46214284Y-148918571D01*
X46214284Y-148918571D02*
X46214284Y-149347142D01*
X46214284Y-149347142D02*
X46071427Y-149918571D01*
X46071427Y-149918571D02*
X45928570Y-150204285D01*
X45928570Y-150204285D02*
X45642855Y-150490000D01*
X45642855Y-150490000D02*
X45214284Y-150632857D01*
X45214284Y-150632857D02*
X44499998Y-150632857D01*
X47499998Y-150632857D02*
X47499998Y-148632857D01*
X47499998Y-149204285D02*
X47642855Y-148918571D01*
X47642855Y-148918571D02*
X47785713Y-148775714D01*
X47785713Y-148775714D02*
X48071427Y-148632857D01*
X48071427Y-148632857D02*
X48357141Y-148632857D01*
X50642856Y-148632857D02*
X50642856Y-150632857D01*
X49357141Y-148632857D02*
X49357141Y-150204285D01*
X49357141Y-150204285D02*
X49499998Y-150490000D01*
X49499998Y-150490000D02*
X49785713Y-150632857D01*
X49785713Y-150632857D02*
X50214284Y-150632857D01*
X50214284Y-150632857D02*
X50499998Y-150490000D01*
X50499998Y-150490000D02*
X50642856Y-150347142D01*
X52071427Y-150632857D02*
X52071427Y-148632857D01*
X52071427Y-148918571D02*
X52214284Y-148775714D01*
X52214284Y-148775714D02*
X52499999Y-148632857D01*
X52499999Y-148632857D02*
X52928570Y-148632857D01*
X52928570Y-148632857D02*
X53214284Y-148775714D01*
X53214284Y-148775714D02*
X53357142Y-149061428D01*
X53357142Y-149061428D02*
X53357142Y-150632857D01*
X53357142Y-149061428D02*
X53499999Y-148775714D01*
X53499999Y-148775714D02*
X53785713Y-148632857D01*
X53785713Y-148632857D02*
X54214284Y-148632857D01*
X54214284Y-148632857D02*
X54499999Y-148775714D01*
X54499999Y-148775714D02*
X54642856Y-149061428D01*
X54642856Y-149061428D02*
X54642856Y-150632857D01*
X56071427Y-150632857D02*
X56071427Y-147632857D01*
X56357142Y-149490000D02*
X57214284Y-150632857D01*
X57214284Y-148632857D02*
X56071427Y-149775714D01*
X58499998Y-150632857D02*
X58499998Y-148632857D01*
X58499998Y-147632857D02*
X58357141Y-147775714D01*
X58357141Y-147775714D02*
X58499998Y-147918571D01*
X58499998Y-147918571D02*
X58642855Y-147775714D01*
X58642855Y-147775714D02*
X58499998Y-147632857D01*
X58499998Y-147632857D02*
X58499998Y-147918571D01*
X61214284Y-150632857D02*
X61214284Y-147632857D01*
X61214284Y-150490000D02*
X60928569Y-150632857D01*
X60928569Y-150632857D02*
X60357141Y-150632857D01*
X60357141Y-150632857D02*
X60071426Y-150490000D01*
X60071426Y-150490000D02*
X59928569Y-150347142D01*
X59928569Y-150347142D02*
X59785712Y-150061428D01*
X59785712Y-150061428D02*
X59785712Y-149204285D01*
X59785712Y-149204285D02*
X59928569Y-148918571D01*
X59928569Y-148918571D02*
X60071426Y-148775714D01*
X60071426Y-148775714D02*
X60357141Y-148632857D01*
X60357141Y-148632857D02*
X60928569Y-148632857D01*
X60928569Y-148632857D02*
X61214284Y-148775714D01*
X64785712Y-147918571D02*
X64928569Y-147775714D01*
X64928569Y-147775714D02*
X65214284Y-147632857D01*
X65214284Y-147632857D02*
X65928569Y-147632857D01*
X65928569Y-147632857D02*
X66214284Y-147775714D01*
X66214284Y-147775714D02*
X66357141Y-147918571D01*
X66357141Y-147918571D02*
X66499998Y-148204285D01*
X66499998Y-148204285D02*
X66499998Y-148490000D01*
X66499998Y-148490000D02*
X66357141Y-148918571D01*
X66357141Y-148918571D02*
X64642855Y-150632857D01*
X64642855Y-150632857D02*
X66499998Y-150632857D01*
X70928569Y-151775714D02*
X70785712Y-151632857D01*
X70785712Y-151632857D02*
X70499998Y-151204285D01*
X70499998Y-151204285D02*
X70357141Y-150918571D01*
X70357141Y-150918571D02*
X70214283Y-150490000D01*
X70214283Y-150490000D02*
X70071426Y-149775714D01*
X70071426Y-149775714D02*
X70071426Y-149204285D01*
X70071426Y-149204285D02*
X70214283Y-148490000D01*
X70214283Y-148490000D02*
X70357141Y-148061428D01*
X70357141Y-148061428D02*
X70499998Y-147775714D01*
X70499998Y-147775714D02*
X70785712Y-147347142D01*
X70785712Y-147347142D02*
X70928569Y-147204285D01*
X72071426Y-149061428D02*
X73071426Y-149061428D01*
X73499998Y-150632857D02*
X72071426Y-150632857D01*
X72071426Y-150632857D02*
X72071426Y-147632857D01*
X72071426Y-147632857D02*
X73499998Y-147632857D01*
X76071427Y-148632857D02*
X76071427Y-150632857D01*
X74785712Y-148632857D02*
X74785712Y-150204285D01*
X74785712Y-150204285D02*
X74928569Y-150490000D01*
X74928569Y-150490000D02*
X75214284Y-150632857D01*
X75214284Y-150632857D02*
X75642855Y-150632857D01*
X75642855Y-150632857D02*
X75928569Y-150490000D01*
X75928569Y-150490000D02*
X76071427Y-150347142D01*
X77499998Y-150632857D02*
X77499998Y-148632857D01*
X77499998Y-149204285D02*
X77642855Y-148918571D01*
X77642855Y-148918571D02*
X77785713Y-148775714D01*
X77785713Y-148775714D02*
X78071427Y-148632857D01*
X78071427Y-148632857D02*
X78357141Y-148632857D01*
X79785713Y-150632857D02*
X79499998Y-150490000D01*
X79499998Y-150490000D02*
X79357141Y-150347142D01*
X79357141Y-150347142D02*
X79214284Y-150061428D01*
X79214284Y-150061428D02*
X79214284Y-149204285D01*
X79214284Y-149204285D02*
X79357141Y-148918571D01*
X79357141Y-148918571D02*
X79499998Y-148775714D01*
X79499998Y-148775714D02*
X79785713Y-148632857D01*
X79785713Y-148632857D02*
X80214284Y-148632857D01*
X80214284Y-148632857D02*
X80499998Y-148775714D01*
X80499998Y-148775714D02*
X80642856Y-148918571D01*
X80642856Y-148918571D02*
X80785713Y-149204285D01*
X80785713Y-149204285D02*
X80785713Y-150061428D01*
X80785713Y-150061428D02*
X80642856Y-150347142D01*
X80642856Y-150347142D02*
X80499998Y-150490000D01*
X80499998Y-150490000D02*
X80214284Y-150632857D01*
X80214284Y-150632857D02*
X79785713Y-150632857D01*
X82071427Y-150632857D02*
X82071427Y-148632857D01*
X82071427Y-149204285D02*
X82214284Y-148918571D01*
X82214284Y-148918571D02*
X82357142Y-148775714D01*
X82357142Y-148775714D02*
X82642856Y-148632857D01*
X82642856Y-148632857D02*
X82928570Y-148632857D01*
X85214285Y-150632857D02*
X85214285Y-149061428D01*
X85214285Y-149061428D02*
X85071427Y-148775714D01*
X85071427Y-148775714D02*
X84785713Y-148632857D01*
X84785713Y-148632857D02*
X84214285Y-148632857D01*
X84214285Y-148632857D02*
X83928570Y-148775714D01*
X85214285Y-150490000D02*
X84928570Y-150632857D01*
X84928570Y-150632857D02*
X84214285Y-150632857D01*
X84214285Y-150632857D02*
X83928570Y-150490000D01*
X83928570Y-150490000D02*
X83785713Y-150204285D01*
X83785713Y-150204285D02*
X83785713Y-149918571D01*
X83785713Y-149918571D02*
X83928570Y-149632857D01*
X83928570Y-149632857D02*
X84214285Y-149490000D01*
X84214285Y-149490000D02*
X84928570Y-149490000D01*
X84928570Y-149490000D02*
X85214285Y-149347142D01*
X87928571Y-150490000D02*
X87642856Y-150632857D01*
X87642856Y-150632857D02*
X87071428Y-150632857D01*
X87071428Y-150632857D02*
X86785713Y-150490000D01*
X86785713Y-150490000D02*
X86642856Y-150347142D01*
X86642856Y-150347142D02*
X86499999Y-150061428D01*
X86499999Y-150061428D02*
X86499999Y-149204285D01*
X86499999Y-149204285D02*
X86642856Y-148918571D01*
X86642856Y-148918571D02*
X86785713Y-148775714D01*
X86785713Y-148775714D02*
X87071428Y-148632857D01*
X87071428Y-148632857D02*
X87642856Y-148632857D01*
X87642856Y-148632857D02*
X87928571Y-148775714D01*
X89214285Y-150632857D02*
X89214285Y-147632857D01*
X89500000Y-149490000D02*
X90357142Y-150632857D01*
X90357142Y-148632857D02*
X89214285Y-149775714D01*
X91357142Y-151775714D02*
X91499999Y-151632857D01*
X91499999Y-151632857D02*
X91785713Y-151204285D01*
X91785713Y-151204285D02*
X91928571Y-150918571D01*
X91928571Y-150918571D02*
X92071428Y-150490000D01*
X92071428Y-150490000D02*
X92214285Y-149775714D01*
X92214285Y-149775714D02*
X92214285Y-149204285D01*
X92214285Y-149204285D02*
X92071428Y-148490000D01*
X92071428Y-148490000D02*
X91928571Y-148061428D01*
X91928571Y-148061428D02*
X91785713Y-147775714D01*
X91785713Y-147775714D02*
X91499999Y-147347142D01*
X91499999Y-147347142D02*
X91357142Y-147204285D01*
X95928570Y-148632857D02*
X95928570Y-151632857D01*
X95928570Y-148775714D02*
X96214285Y-148632857D01*
X96214285Y-148632857D02*
X96785713Y-148632857D01*
X96785713Y-148632857D02*
X97071427Y-148775714D01*
X97071427Y-148775714D02*
X97214285Y-148918571D01*
X97214285Y-148918571D02*
X97357142Y-149204285D01*
X97357142Y-149204285D02*
X97357142Y-150061428D01*
X97357142Y-150061428D02*
X97214285Y-150347142D01*
X97214285Y-150347142D02*
X97071427Y-150490000D01*
X97071427Y-150490000D02*
X96785713Y-150632857D01*
X96785713Y-150632857D02*
X96214285Y-150632857D01*
X96214285Y-150632857D02*
X95928570Y-150490000D01*
X98642856Y-150632857D02*
X98642856Y-148632857D01*
X98642856Y-149204285D02*
X98785713Y-148918571D01*
X98785713Y-148918571D02*
X98928571Y-148775714D01*
X98928571Y-148775714D02*
X99214285Y-148632857D01*
X99214285Y-148632857D02*
X99499999Y-148632857D01*
X100928571Y-150632857D02*
X100642856Y-150490000D01*
X100642856Y-150490000D02*
X100499999Y-150347142D01*
X100499999Y-150347142D02*
X100357142Y-150061428D01*
X100357142Y-150061428D02*
X100357142Y-149204285D01*
X100357142Y-149204285D02*
X100499999Y-148918571D01*
X100499999Y-148918571D02*
X100642856Y-148775714D01*
X100642856Y-148775714D02*
X100928571Y-148632857D01*
X100928571Y-148632857D02*
X101357142Y-148632857D01*
X101357142Y-148632857D02*
X101642856Y-148775714D01*
X101642856Y-148775714D02*
X101785714Y-148918571D01*
X101785714Y-148918571D02*
X101928571Y-149204285D01*
X101928571Y-149204285D02*
X101928571Y-150061428D01*
X101928571Y-150061428D02*
X101785714Y-150347142D01*
X101785714Y-150347142D02*
X101642856Y-150490000D01*
X101642856Y-150490000D02*
X101357142Y-150632857D01*
X101357142Y-150632857D02*
X100928571Y-150632857D01*
X102785714Y-148632857D02*
X103928571Y-148632857D01*
X103214285Y-147632857D02*
X103214285Y-150204285D01*
X103214285Y-150204285D02*
X103357142Y-150490000D01*
X103357142Y-150490000D02*
X103642857Y-150632857D01*
X103642857Y-150632857D02*
X103928571Y-150632857D01*
X105357143Y-150632857D02*
X105071428Y-150490000D01*
X105071428Y-150490000D02*
X104928571Y-150347142D01*
X104928571Y-150347142D02*
X104785714Y-150061428D01*
X104785714Y-150061428D02*
X104785714Y-149204285D01*
X104785714Y-149204285D02*
X104928571Y-148918571D01*
X104928571Y-148918571D02*
X105071428Y-148775714D01*
X105071428Y-148775714D02*
X105357143Y-148632857D01*
X105357143Y-148632857D02*
X105785714Y-148632857D01*
X105785714Y-148632857D02*
X106071428Y-148775714D01*
X106071428Y-148775714D02*
X106214286Y-148918571D01*
X106214286Y-148918571D02*
X106357143Y-149204285D01*
X106357143Y-149204285D02*
X106357143Y-150061428D01*
X106357143Y-150061428D02*
X106214286Y-150347142D01*
X106214286Y-150347142D02*
X106071428Y-150490000D01*
X106071428Y-150490000D02*
X105785714Y-150632857D01*
X105785714Y-150632857D02*
X105357143Y-150632857D01*
X107214286Y-148632857D02*
X108357143Y-148632857D01*
X107642857Y-147632857D02*
X107642857Y-150204285D01*
X107642857Y-150204285D02*
X107785714Y-150490000D01*
X107785714Y-150490000D02*
X108071429Y-150632857D01*
X108071429Y-150632857D02*
X108357143Y-150632857D01*
X109071429Y-148632857D02*
X109785715Y-150632857D01*
X110500000Y-148632857D02*
X109785715Y-150632857D01*
X109785715Y-150632857D02*
X109500000Y-151347142D01*
X109500000Y-151347142D02*
X109357143Y-151490000D01*
X109357143Y-151490000D02*
X109071429Y-151632857D01*
X111642857Y-148632857D02*
X111642857Y-151632857D01*
X111642857Y-148775714D02*
X111928572Y-148632857D01*
X111928572Y-148632857D02*
X112500000Y-148632857D01*
X112500000Y-148632857D02*
X112785714Y-148775714D01*
X112785714Y-148775714D02*
X112928572Y-148918571D01*
X112928572Y-148918571D02*
X113071429Y-149204285D01*
X113071429Y-149204285D02*
X113071429Y-150061428D01*
X113071429Y-150061428D02*
X112928572Y-150347142D01*
X112928572Y-150347142D02*
X112785714Y-150490000D01*
X112785714Y-150490000D02*
X112500000Y-150632857D01*
X112500000Y-150632857D02*
X111928572Y-150632857D01*
X111928572Y-150632857D02*
X111642857Y-150490000D01*
X115500000Y-150490000D02*
X115214286Y-150632857D01*
X115214286Y-150632857D02*
X114642858Y-150632857D01*
X114642858Y-150632857D02*
X114357143Y-150490000D01*
X114357143Y-150490000D02*
X114214286Y-150204285D01*
X114214286Y-150204285D02*
X114214286Y-149061428D01*
X114214286Y-149061428D02*
X114357143Y-148775714D01*
X114357143Y-148775714D02*
X114642858Y-148632857D01*
X114642858Y-148632857D02*
X115214286Y-148632857D01*
X115214286Y-148632857D02*
X115500000Y-148775714D01*
X115500000Y-148775714D02*
X115642858Y-149061428D01*
X115642858Y-149061428D02*
X115642858Y-149347142D01*
X115642858Y-149347142D02*
X114214286Y-149632857D01*
%LPC*%
D11*
%TO.C,H4*%
X133450000Y-147250000D03*
%TD*%
D12*
%TO.C,H14*%
X94000000Y-116000000D03*
%TD*%
D13*
%TO.C,H35*%
X115250000Y-99250000D03*
%TD*%
D12*
%TO.C,H42*%
X127500000Y-37500000D03*
%TD*%
%TO.C,H38*%
X51500000Y-37500000D03*
%TD*%
%TO.C,H12*%
X70000000Y-116000000D03*
%TD*%
%TO.C,H20*%
X82000000Y-132000000D03*
%TD*%
%TO.C,H16*%
X94000000Y-132000000D03*
%TD*%
D13*
%TO.C,H23*%
X70250000Y-75250000D03*
%TD*%
D11*
%TO.C,H6*%
X136000000Y-48000000D03*
%TD*%
D12*
%TO.C,H18*%
X58000000Y-132000000D03*
%TD*%
%TO.C,H39*%
X70500000Y-37500000D03*
%TD*%
D11*
%TO.C,H51*%
X108250000Y-126100000D03*
%TD*%
%TO.C,H49*%
X108250000Y-115000000D03*
%TD*%
D12*
%TO.C,H9*%
X34000000Y-116000000D03*
%TD*%
%TO.C,H17*%
X46000000Y-132000000D03*
%TD*%
%TO.C,H43*%
X32500000Y-57500000D03*
%TD*%
%TO.C,H44*%
X51500000Y-57500000D03*
%TD*%
D11*
%TO.C,H3*%
X26550000Y-147250000D03*
%TD*%
D12*
%TO.C,H11*%
X58000000Y-116000000D03*
%TD*%
D13*
%TO.C,H33*%
X95250000Y-99250000D03*
%TD*%
D12*
%TO.C,H19*%
X70000000Y-132000000D03*
%TD*%
D13*
%TO.C,H31*%
X70250000Y-99250000D03*
%TD*%
D11*
%TO.C,H5*%
X24000000Y-48000000D03*
%TD*%
D12*
%TO.C,H15*%
X34000000Y-132000000D03*
%TD*%
D13*
%TO.C,H24*%
X80250000Y-75250000D03*
%TD*%
D12*
%TO.C,H45*%
X70500000Y-57500000D03*
%TD*%
%TO.C,H37*%
X32500000Y-37500000D03*
%TD*%
D11*
%TO.C,H7*%
X24000000Y-120000000D03*
%TD*%
D13*
%TO.C,H34*%
X105250000Y-99250000D03*
%TD*%
%TO.C,H28*%
X80250000Y-87250000D03*
%TD*%
D11*
%TO.C,H2*%
X133450000Y-24750000D03*
%TD*%
D12*
%TO.C,H48*%
X127500000Y-57500000D03*
%TD*%
D13*
%TO.C,H27*%
X70250000Y-87250000D03*
%TD*%
D12*
%TO.C,H40*%
X89500000Y-37500000D03*
%TD*%
%TO.C,H47*%
X108500000Y-57500000D03*
%TD*%
D13*
%TO.C,H25*%
X50250000Y-87250000D03*
%TD*%
D11*
%TO.C,H50*%
X108250000Y-120550000D03*
%TD*%
%TO.C,H8*%
X136000000Y-120000000D03*
%TD*%
D12*
%TO.C,H10*%
X46000000Y-116000000D03*
%TD*%
D13*
%TO.C,H32*%
X80250000Y-99250000D03*
%TD*%
%TO.C,H26*%
X60250000Y-87250000D03*
%TD*%
D12*
%TO.C,H13*%
X82000000Y-116000000D03*
%TD*%
D13*
%TO.C,H21*%
X50250000Y-75250000D03*
%TD*%
%TO.C,H30*%
X60250000Y-99250000D03*
%TD*%
D11*
%TO.C,H1*%
X26550000Y-24750000D03*
%TD*%
D13*
%TO.C,H22*%
X60250000Y-75250000D03*
%TD*%
D11*
%TO.C,H52*%
X108250000Y-131650000D03*
%TD*%
D13*
%TO.C,H36*%
X125250000Y-99250000D03*
%TD*%
D12*
%TO.C,H46*%
X89500000Y-57500000D03*
%TD*%
%TO.C,H41*%
X108500000Y-37500000D03*
%TD*%
D13*
%TO.C,H29*%
X50250000Y-99250000D03*
%TD*%
%LPD*%
M02*
