%TF.GenerationSoftware,KiCad,Pcbnew,7.0.2*%
%TF.CreationDate,2024-07-09T14:29:17+01:00*%
%TF.ProjectId,dk2_03_panel,646b325f-3033-45f7-9061-6e656c2e6b69,rev?*%
%TF.SameCoordinates,Original*%
%TF.FileFunction,Soldermask,Top*%
%TF.FilePolarity,Negative*%
%FSLAX46Y46*%
G04 Gerber Fmt 4.6, Leading zero omitted, Abs format (unit mm)*
G04 Created by KiCad (PCBNEW 7.0.2) date 2024-07-09 14:29:17*
%MOMM*%
%LPD*%
G01*
G04 APERTURE LIST*
%ADD10C,0.187500*%
%ADD11C,4.300000*%
%ADD12C,3.200000*%
%ADD13C,6.400000*%
G04 APERTURE END LIST*
D10*
G36*
X102028405Y-24317321D02*
G01*
X102066894Y-24318265D01*
X102104757Y-24319839D01*
X102141993Y-24322043D01*
X102178603Y-24324877D01*
X102214585Y-24328340D01*
X102249941Y-24332433D01*
X102284669Y-24337156D01*
X102318771Y-24342508D01*
X102352246Y-24348490D01*
X102385095Y-24355102D01*
X102417316Y-24362343D01*
X102448911Y-24370214D01*
X102479878Y-24378715D01*
X102510219Y-24387846D01*
X102539934Y-24397606D01*
X102569021Y-24407996D01*
X102597481Y-24419015D01*
X102625315Y-24430665D01*
X102652522Y-24442943D01*
X102679102Y-24455852D01*
X102730381Y-24483558D01*
X102779154Y-24513783D01*
X102825419Y-24546527D01*
X102869176Y-24581790D01*
X102910427Y-24619571D01*
X102930112Y-24639406D01*
X102967733Y-24680949D01*
X103002926Y-24725158D01*
X103035693Y-24772036D01*
X103066033Y-24821581D01*
X103080292Y-24847354D01*
X103093945Y-24873794D01*
X103106991Y-24900900D01*
X103119430Y-24928674D01*
X103131263Y-24957114D01*
X103142488Y-24986222D01*
X103153107Y-25015996D01*
X103163119Y-25046437D01*
X103172524Y-25077545D01*
X103181323Y-25109320D01*
X103189515Y-25141762D01*
X103197100Y-25174871D01*
X103204078Y-25208646D01*
X103210449Y-25243089D01*
X103216213Y-25278198D01*
X103221371Y-25313975D01*
X103225922Y-25350418D01*
X103229866Y-25387528D01*
X103233204Y-25425305D01*
X103235934Y-25463749D01*
X103238058Y-25502860D01*
X103239575Y-25542637D01*
X103240485Y-25583082D01*
X103240788Y-25624193D01*
X103240524Y-25660047D01*
X103239732Y-25695617D01*
X103238412Y-25730904D01*
X103236564Y-25765908D01*
X103234187Y-25800628D01*
X103231283Y-25835065D01*
X103227850Y-25869218D01*
X103223890Y-25903088D01*
X103219401Y-25936675D01*
X103214384Y-25969978D01*
X103210747Y-25992023D01*
X103204798Y-26024783D01*
X103198219Y-26057119D01*
X103191008Y-26089029D01*
X103183166Y-26120514D01*
X103174693Y-26151574D01*
X103165589Y-26182209D01*
X103155854Y-26212419D01*
X103145488Y-26242204D01*
X103134491Y-26271564D01*
X103122862Y-26300499D01*
X103114759Y-26319553D01*
X103102047Y-26347616D01*
X103088639Y-26375203D01*
X103074535Y-26402313D01*
X103059736Y-26428947D01*
X103044241Y-26455104D01*
X103028051Y-26480785D01*
X103011165Y-26505989D01*
X102993584Y-26530716D01*
X102975307Y-26554967D01*
X102956335Y-26578741D01*
X102943301Y-26594326D01*
X102923236Y-26617229D01*
X102902334Y-26639501D01*
X102880594Y-26661141D01*
X102858018Y-26682150D01*
X102834604Y-26702529D01*
X102810353Y-26722276D01*
X102785265Y-26741392D01*
X102759340Y-26759877D01*
X102732578Y-26777731D01*
X102704978Y-26794953D01*
X102686113Y-26806085D01*
X102657099Y-26822223D01*
X102627208Y-26837666D01*
X102596442Y-26852414D01*
X102564801Y-26866466D01*
X102532283Y-26879823D01*
X102498889Y-26892484D01*
X102464620Y-26904449D01*
X102429475Y-26915719D01*
X102393454Y-26926294D01*
X102356557Y-26936173D01*
X102331472Y-26942372D01*
X102293195Y-26950884D01*
X102253926Y-26958558D01*
X102213665Y-26965395D01*
X102172413Y-26971395D01*
X102130169Y-26976558D01*
X102086933Y-26980883D01*
X102057558Y-26983302D01*
X102027742Y-26985348D01*
X101997485Y-26987023D01*
X101966788Y-26988325D01*
X101935650Y-26989255D01*
X101904071Y-26989813D01*
X101872052Y-26990000D01*
X101295394Y-26990000D01*
X101295394Y-24621821D01*
X101661758Y-24621821D01*
X101661758Y-26673461D01*
X101935799Y-26673461D01*
X101992374Y-26672460D01*
X102047154Y-26669457D01*
X102100137Y-26664451D01*
X102151324Y-26657444D01*
X102200715Y-26648434D01*
X102248310Y-26637423D01*
X102294110Y-26624409D01*
X102338113Y-26609393D01*
X102380320Y-26592375D01*
X102420731Y-26573355D01*
X102459346Y-26552332D01*
X102496165Y-26529308D01*
X102531187Y-26504281D01*
X102564414Y-26477253D01*
X102595845Y-26448222D01*
X102625480Y-26417189D01*
X102653318Y-26384154D01*
X102679361Y-26349117D01*
X102703608Y-26312077D01*
X102726058Y-26273036D01*
X102746713Y-26231993D01*
X102765571Y-26188947D01*
X102782633Y-26143899D01*
X102797900Y-26096849D01*
X102811370Y-26047797D01*
X102823044Y-25996743D01*
X102832923Y-25943687D01*
X102841005Y-25888628D01*
X102847291Y-25831568D01*
X102851781Y-25772505D01*
X102854475Y-25711440D01*
X102855373Y-25648374D01*
X102855161Y-25613180D01*
X102854526Y-25578673D01*
X102853467Y-25544853D01*
X102851984Y-25511720D01*
X102850078Y-25479274D01*
X102847748Y-25447514D01*
X102844995Y-25416442D01*
X102841818Y-25386057D01*
X102838217Y-25356358D01*
X102832022Y-25313099D01*
X102824873Y-25271385D01*
X102816772Y-25231216D01*
X102807717Y-25192593D01*
X102801151Y-25167704D01*
X102790633Y-25131554D01*
X102779135Y-25096743D01*
X102766659Y-25063273D01*
X102753203Y-25031141D01*
X102738769Y-25000350D01*
X102723356Y-24970897D01*
X102706964Y-24942785D01*
X102689593Y-24916011D01*
X102671244Y-24890578D01*
X102651915Y-24866483D01*
X102638486Y-24851165D01*
X102617526Y-24829082D01*
X102595587Y-24808171D01*
X102572669Y-24788433D01*
X102548772Y-24769866D01*
X102523897Y-24752472D01*
X102498042Y-24736250D01*
X102471209Y-24721199D01*
X102443397Y-24707321D01*
X102414606Y-24694615D01*
X102384836Y-24683081D01*
X102364445Y-24676043D01*
X102333031Y-24666353D01*
X102300612Y-24657616D01*
X102267188Y-24649832D01*
X102232760Y-24643001D01*
X102197327Y-24637124D01*
X102160890Y-24632199D01*
X102123448Y-24628228D01*
X102085001Y-24625210D01*
X102045549Y-24623145D01*
X102005093Y-24622033D01*
X101977564Y-24621821D01*
X101661758Y-24621821D01*
X101295394Y-24621821D01*
X101295394Y-24317006D01*
X101989288Y-24317006D01*
X102028405Y-24317321D01*
G37*
G36*
X103791068Y-24926636D02*
G01*
X104119330Y-24926636D01*
X104129588Y-25312051D01*
X104152466Y-25284059D01*
X104175304Y-25257051D01*
X104198101Y-25231027D01*
X104220859Y-25205989D01*
X104243576Y-25181935D01*
X104266253Y-25158865D01*
X104288891Y-25136780D01*
X104311488Y-25115680D01*
X104334045Y-25095564D01*
X104356562Y-25076433D01*
X104390263Y-25049583D01*
X104423873Y-25024947D01*
X104457393Y-25002528D01*
X104490823Y-24982323D01*
X104524240Y-24963991D01*
X104557722Y-24947461D01*
X104591268Y-24932735D01*
X104624878Y-24919812D01*
X104658553Y-24908693D01*
X104692292Y-24899376D01*
X104726096Y-24891863D01*
X104759964Y-24886153D01*
X104793896Y-24882246D01*
X104827893Y-24880142D01*
X104850593Y-24879741D01*
X104890192Y-24880571D01*
X104928571Y-24883061D01*
X104965732Y-24887212D01*
X105001673Y-24893022D01*
X105036394Y-24900492D01*
X105069896Y-24909623D01*
X105102179Y-24920413D01*
X105133243Y-24932864D01*
X105163087Y-24946975D01*
X105191713Y-24962746D01*
X105219118Y-24980177D01*
X105245305Y-24999268D01*
X105270272Y-25020019D01*
X105294020Y-25042430D01*
X105316548Y-25066501D01*
X105337858Y-25092233D01*
X105357950Y-25119601D01*
X105376646Y-25148584D01*
X105393946Y-25179181D01*
X105409848Y-25211393D01*
X105424354Y-25245218D01*
X105437463Y-25280658D01*
X105449175Y-25317713D01*
X105459490Y-25356381D01*
X105468409Y-25396664D01*
X105475931Y-25438561D01*
X105482056Y-25482073D01*
X105486785Y-25527199D01*
X105490116Y-25573939D01*
X105492051Y-25622293D01*
X105492589Y-25672262D01*
X105491731Y-25723845D01*
X105129030Y-25723845D01*
X105129405Y-25689008D01*
X105129064Y-25655392D01*
X105128008Y-25622994D01*
X105126236Y-25591816D01*
X105123749Y-25561857D01*
X105118677Y-25519205D01*
X105111994Y-25479296D01*
X105103701Y-25442131D01*
X105093799Y-25407709D01*
X105082286Y-25376031D01*
X105069164Y-25347096D01*
X105054431Y-25320905D01*
X105049162Y-25312784D01*
X105026665Y-25282731D01*
X105001673Y-25256684D01*
X104974184Y-25234645D01*
X104944199Y-25216613D01*
X104911719Y-25202588D01*
X104876742Y-25192571D01*
X104839270Y-25186560D01*
X104809528Y-25184682D01*
X104799302Y-25184556D01*
X104767531Y-25185854D01*
X104735689Y-25189746D01*
X104703778Y-25196232D01*
X104671796Y-25205313D01*
X104653489Y-25211667D01*
X104626106Y-25222967D01*
X104598363Y-25236534D01*
X104570259Y-25252368D01*
X104541794Y-25270469D01*
X104512968Y-25290836D01*
X104503280Y-25298129D01*
X104478987Y-25317288D01*
X104454193Y-25338129D01*
X104428898Y-25360651D01*
X104403102Y-25384855D01*
X104382105Y-25405428D01*
X104360787Y-25427078D01*
X104339149Y-25449804D01*
X104317338Y-25473503D01*
X104295139Y-25498439D01*
X104272550Y-25524611D01*
X104249572Y-25552020D01*
X104226205Y-25580665D01*
X104202449Y-25610546D01*
X104184376Y-25633769D01*
X104166084Y-25657687D01*
X104153768Y-25674019D01*
X104153768Y-26990000D01*
X103791068Y-26990000D01*
X103791068Y-24926636D01*
G37*
G36*
X107676727Y-26990000D02*
G01*
X107355059Y-26990000D01*
X107342603Y-26657341D01*
X107319659Y-26684234D01*
X107296990Y-26709960D01*
X107274596Y-26734518D01*
X107252477Y-26757908D01*
X107230633Y-26780130D01*
X107209063Y-26801185D01*
X107182487Y-26825860D01*
X107166748Y-26839790D01*
X107140662Y-26861779D01*
X107114613Y-26882409D01*
X107088599Y-26901679D01*
X107062620Y-26919589D01*
X107036678Y-26936140D01*
X107010771Y-26951331D01*
X107000419Y-26957027D01*
X106969592Y-26972586D01*
X106938663Y-26986290D01*
X106907631Y-26998140D01*
X106876496Y-27008135D01*
X106845258Y-27016275D01*
X106834822Y-27018576D01*
X106803163Y-27024801D01*
X106770834Y-27029739D01*
X106737836Y-27033388D01*
X106704167Y-27035749D01*
X106669829Y-27036823D01*
X106658234Y-27036894D01*
X106618913Y-27036161D01*
X106580817Y-27033963D01*
X106543946Y-27030300D01*
X106508300Y-27025170D01*
X106473879Y-27018576D01*
X106440683Y-27010516D01*
X106408712Y-27000990D01*
X106377966Y-26990000D01*
X106348445Y-26977543D01*
X106320149Y-26963621D01*
X106293078Y-26948234D01*
X106267232Y-26931381D01*
X106242611Y-26913063D01*
X106219215Y-26893279D01*
X106197045Y-26872030D01*
X106176099Y-26849316D01*
X106156401Y-26825030D01*
X106137974Y-26799250D01*
X106120818Y-26771976D01*
X106104933Y-26743207D01*
X106090318Y-26712945D01*
X106076975Y-26681189D01*
X106064902Y-26647938D01*
X106054100Y-26613194D01*
X106044568Y-26576955D01*
X106036308Y-26539223D01*
X106029319Y-26499996D01*
X106023600Y-26459275D01*
X106019152Y-26417060D01*
X106015975Y-26373351D01*
X106014069Y-26328148D01*
X106013433Y-26281451D01*
X106013433Y-24926636D01*
X106371737Y-24926636D01*
X106371737Y-26254340D01*
X106372088Y-26283732D01*
X106374893Y-26339717D01*
X106380503Y-26391970D01*
X106388918Y-26440490D01*
X106400138Y-26485278D01*
X106414163Y-26526334D01*
X106430993Y-26563657D01*
X106450627Y-26597248D01*
X106473067Y-26627107D01*
X106498312Y-26653233D01*
X106526362Y-26675627D01*
X106557217Y-26694289D01*
X106590876Y-26709218D01*
X106627341Y-26720416D01*
X106666611Y-26727880D01*
X106708685Y-26731613D01*
X106730774Y-26732079D01*
X106763518Y-26730843D01*
X106795804Y-26727133D01*
X106827632Y-26720951D01*
X106859002Y-26712295D01*
X106886851Y-26702273D01*
X106915262Y-26689515D01*
X106944233Y-26674022D01*
X106969512Y-26658566D01*
X106990893Y-26644152D01*
X107017331Y-26624806D01*
X107044440Y-26603039D01*
X107067541Y-26583050D01*
X107091108Y-26561379D01*
X107115140Y-26538027D01*
X107139637Y-26512993D01*
X107159730Y-26491618D01*
X107180441Y-26468892D01*
X107201770Y-26444815D01*
X107223718Y-26419387D01*
X107246283Y-26392608D01*
X107269467Y-26364478D01*
X107293270Y-26334997D01*
X107311527Y-26312000D01*
X107317690Y-26304166D01*
X107317690Y-24926636D01*
X107676727Y-24926636D01*
X107676727Y-26990000D01*
G37*
G36*
X109795778Y-26990000D02*
G01*
X109795778Y-25505491D01*
X109795599Y-25476125D01*
X109794912Y-25443152D01*
X109793710Y-25412652D01*
X109791656Y-25380195D01*
X109788451Y-25347222D01*
X109784283Y-25318050D01*
X109778391Y-25289064D01*
X109769457Y-25259146D01*
X109765736Y-25249769D01*
X109751783Y-25223751D01*
X109730625Y-25202021D01*
X109726169Y-25199211D01*
X109697947Y-25187776D01*
X109667550Y-25184556D01*
X109637600Y-25188060D01*
X109609299Y-25198570D01*
X109591347Y-25209469D01*
X109566978Y-25229816D01*
X109546009Y-25252002D01*
X109526592Y-25275907D01*
X109516608Y-25289337D01*
X109498591Y-25315418D01*
X109482534Y-25340508D01*
X109465911Y-25368123D01*
X109448720Y-25398262D01*
X109433962Y-25425306D01*
X109427948Y-25436615D01*
X109412406Y-25466275D01*
X109396006Y-25498010D01*
X109382267Y-25524892D01*
X109367979Y-25553102D01*
X109353141Y-25582640D01*
X109337754Y-25613506D01*
X109321817Y-25645700D01*
X109313643Y-25662295D01*
X109313643Y-26990000D01*
X108985380Y-26990000D01*
X108985380Y-25545059D01*
X108985201Y-25510641D01*
X108984665Y-25478369D01*
X108983770Y-25448244D01*
X108982225Y-25414928D01*
X108980164Y-25384703D01*
X108978053Y-25361877D01*
X108974747Y-25332610D01*
X108969939Y-25302854D01*
X108963215Y-25274087D01*
X108956071Y-25252700D01*
X108941997Y-25224784D01*
X108921850Y-25203092D01*
X108915771Y-25199211D01*
X108888294Y-25188220D01*
X108857875Y-25184571D01*
X108855687Y-25184556D01*
X108826525Y-25187942D01*
X108798572Y-25198100D01*
X108786078Y-25205073D01*
X108762543Y-25223074D01*
X108739646Y-25246201D01*
X108720297Y-25269339D01*
X108712805Y-25279078D01*
X108694718Y-25304373D01*
X108678489Y-25329068D01*
X108661591Y-25356546D01*
X108644022Y-25386805D01*
X108628871Y-25414147D01*
X108622680Y-25425624D01*
X108606873Y-25455745D01*
X108590136Y-25488407D01*
X108576077Y-25516365D01*
X108561422Y-25545949D01*
X108546172Y-25577159D01*
X108530327Y-25609994D01*
X108513887Y-25644455D01*
X108505443Y-25662295D01*
X108505443Y-26990000D01*
X108175715Y-26990000D01*
X108175715Y-24926636D01*
X108449756Y-24926636D01*
X108466608Y-25319378D01*
X108479935Y-25289909D01*
X108493170Y-25261584D01*
X108506313Y-25234405D01*
X108522613Y-25202040D01*
X108538771Y-25171465D01*
X108554785Y-25142678D01*
X108570656Y-25115680D01*
X108586527Y-25090152D01*
X108605761Y-25061645D01*
X108625201Y-25035455D01*
X108644847Y-25011584D01*
X108668029Y-24986665D01*
X108674703Y-24980125D01*
X108698455Y-24958697D01*
X108722909Y-24939934D01*
X108748063Y-24923835D01*
X108777670Y-24908700D01*
X108789009Y-24903921D01*
X108820242Y-24893343D01*
X108848922Y-24886566D01*
X108878866Y-24882103D01*
X108910071Y-24879954D01*
X108923831Y-24879741D01*
X108954447Y-24880720D01*
X108983646Y-24883657D01*
X109020374Y-24890618D01*
X109054583Y-24901059D01*
X109086273Y-24914981D01*
X109115445Y-24932383D01*
X109142098Y-24953266D01*
X109166232Y-24977629D01*
X109177355Y-24991116D01*
X109197620Y-25020860D01*
X109215182Y-25054405D01*
X109226581Y-25082059D01*
X109236460Y-25111850D01*
X109244819Y-25143780D01*
X109251658Y-25177847D01*
X109256978Y-25214053D01*
X109260777Y-25252397D01*
X109263057Y-25292879D01*
X109263817Y-25335498D01*
X109276228Y-25308582D01*
X109291612Y-25275999D01*
X109306853Y-25244597D01*
X109321952Y-25214376D01*
X109336907Y-25185335D01*
X109351719Y-25157475D01*
X109360537Y-25141325D01*
X109375582Y-25115426D01*
X109394060Y-25086094D01*
X109413002Y-25058668D01*
X109432408Y-25033148D01*
X109452278Y-25009535D01*
X109462386Y-24998443D01*
X109483381Y-24977715D01*
X109508851Y-24956007D01*
X109535373Y-24936963D01*
X109562947Y-24920584D01*
X109583287Y-24910516D01*
X109613120Y-24898525D01*
X109644916Y-24889479D01*
X109673733Y-24884069D01*
X109703992Y-24880823D01*
X109735694Y-24879741D01*
X109782898Y-24882088D01*
X109827056Y-24889129D01*
X109868169Y-24900864D01*
X109906237Y-24917294D01*
X109941259Y-24938417D01*
X109973236Y-24964234D01*
X110002167Y-24994745D01*
X110028053Y-25029951D01*
X110050893Y-25069850D01*
X110070689Y-25114443D01*
X110087438Y-25163731D01*
X110101143Y-25217712D01*
X110106853Y-25246463D01*
X110111802Y-25276388D01*
X110115989Y-25307486D01*
X110119415Y-25339757D01*
X110122080Y-25373202D01*
X110123983Y-25407821D01*
X110125125Y-25443613D01*
X110125506Y-25480579D01*
X110125506Y-26990000D01*
X109795778Y-26990000D01*
G37*
G36*
X112487823Y-26990000D02*
G01*
X111995429Y-26990000D01*
X111030426Y-25882847D01*
X111030426Y-26990000D01*
X110672121Y-26990000D01*
X110672121Y-24082533D01*
X111030426Y-24082533D01*
X111030426Y-25868925D01*
X111960258Y-24926636D01*
X112434333Y-24926636D01*
X111463468Y-25876985D01*
X112487823Y-26990000D01*
G37*
G36*
X113638206Y-25219727D02*
G01*
X113026378Y-25219727D01*
X113026378Y-24926636D01*
X114000907Y-24926636D01*
X114000907Y-26685184D01*
X114617132Y-26685184D01*
X114617132Y-26990000D01*
X112958234Y-26990000D01*
X112958234Y-26685184D01*
X113638206Y-26685184D01*
X113638206Y-25219727D01*
G37*
G36*
X113763503Y-24082533D02*
G01*
X113792995Y-24083907D01*
X113824860Y-24088737D01*
X113855335Y-24097044D01*
X113874878Y-24104515D01*
X113903040Y-24117858D01*
X113928999Y-24133984D01*
X113952757Y-24152892D01*
X113965003Y-24164598D01*
X113985103Y-24187370D01*
X114002536Y-24211997D01*
X114017303Y-24238478D01*
X114024354Y-24253991D01*
X114034980Y-24283126D01*
X114042129Y-24313651D01*
X114045800Y-24345568D01*
X114046336Y-24363900D01*
X114044597Y-24395643D01*
X114039381Y-24426574D01*
X114030687Y-24456694D01*
X114024354Y-24473077D01*
X114011069Y-24500943D01*
X113995117Y-24526838D01*
X113976499Y-24550763D01*
X113965003Y-24563203D01*
X113942470Y-24583714D01*
X113917734Y-24601559D01*
X113890795Y-24616738D01*
X113874878Y-24624019D01*
X113845331Y-24634291D01*
X113814393Y-24641201D01*
X113782065Y-24644749D01*
X113763503Y-24645268D01*
X113730698Y-24643587D01*
X113699052Y-24638545D01*
X113668565Y-24630141D01*
X113652128Y-24624019D01*
X113624320Y-24610321D01*
X113598599Y-24593957D01*
X113574964Y-24574927D01*
X113562735Y-24563203D01*
X113542578Y-24540373D01*
X113524971Y-24515572D01*
X113509915Y-24488801D01*
X113502652Y-24473077D01*
X113492380Y-24443408D01*
X113485470Y-24412927D01*
X113481921Y-24381635D01*
X113481403Y-24363900D01*
X113483083Y-24331211D01*
X113488126Y-24299913D01*
X113496530Y-24270005D01*
X113502652Y-24253991D01*
X113516292Y-24226479D01*
X113532482Y-24200823D01*
X113551222Y-24177020D01*
X113562735Y-24164598D01*
X113585211Y-24144145D01*
X113609773Y-24126473D01*
X113636422Y-24111584D01*
X113652128Y-24104515D01*
X113681971Y-24093889D01*
X113712973Y-24086740D01*
X113745135Y-24083069D01*
X113763503Y-24082533D01*
G37*
G36*
X116890788Y-26990000D02*
G01*
X116569121Y-26990000D01*
X116556664Y-26603119D01*
X116537791Y-26630330D01*
X116518723Y-26656642D01*
X116499460Y-26682056D01*
X116480003Y-26706571D01*
X116460350Y-26730187D01*
X116440504Y-26752905D01*
X116420463Y-26774723D01*
X116390036Y-26805766D01*
X116359171Y-26834787D01*
X116327868Y-26861786D01*
X116296128Y-26886762D01*
X116263949Y-26909716D01*
X116231333Y-26930648D01*
X116198240Y-26949636D01*
X116164632Y-26966755D01*
X116130508Y-26982007D01*
X116095870Y-26995392D01*
X116060716Y-27006909D01*
X116025047Y-27016558D01*
X115988863Y-27024340D01*
X115952163Y-27030254D01*
X115914949Y-27034300D01*
X115877219Y-27036479D01*
X115851779Y-27036894D01*
X115818905Y-27036237D01*
X115786778Y-27034267D01*
X115755398Y-27030982D01*
X115724765Y-27026384D01*
X115694880Y-27020472D01*
X115665741Y-27013246D01*
X115637349Y-27004707D01*
X115609704Y-26994854D01*
X115574007Y-26979673D01*
X115539637Y-26962156D01*
X115506630Y-26942338D01*
X115475020Y-26920619D01*
X115444806Y-26897000D01*
X115415989Y-26871481D01*
X115388569Y-26844061D01*
X115368921Y-26822248D01*
X115350058Y-26799367D01*
X115331981Y-26775417D01*
X115314689Y-26750397D01*
X115298315Y-26724223D01*
X115282713Y-26697083D01*
X115267883Y-26668976D01*
X115253827Y-26639904D01*
X115240544Y-26609866D01*
X115228033Y-26578862D01*
X115216295Y-26546891D01*
X115205330Y-26513955D01*
X115195137Y-26480053D01*
X115185718Y-26445184D01*
X115179867Y-26421402D01*
X115171880Y-26385040D01*
X115164677Y-26347943D01*
X115158261Y-26310113D01*
X115152630Y-26271548D01*
X115147785Y-26232249D01*
X115143726Y-26192216D01*
X115140452Y-26151448D01*
X115137964Y-26109947D01*
X115136262Y-26067711D01*
X115135345Y-26024741D01*
X115135171Y-25995687D01*
X115135369Y-25972240D01*
X115501535Y-25972240D01*
X115501964Y-26019380D01*
X115503252Y-26064998D01*
X115505399Y-26109094D01*
X115508404Y-26151666D01*
X115512268Y-26192716D01*
X115516991Y-26232244D01*
X115522572Y-26270248D01*
X115529012Y-26306730D01*
X115536311Y-26341689D01*
X115544468Y-26375126D01*
X115553484Y-26407040D01*
X115563359Y-26437431D01*
X115574092Y-26466299D01*
X115585684Y-26493645D01*
X115604682Y-26531808D01*
X115611444Y-26543768D01*
X115632995Y-26577421D01*
X115656155Y-26607764D01*
X115680926Y-26634797D01*
X115707306Y-26658520D01*
X115735296Y-26678933D01*
X115764897Y-26696035D01*
X115796107Y-26709827D01*
X115828927Y-26720310D01*
X115863358Y-26727482D01*
X115899398Y-26731343D01*
X115924319Y-26732079D01*
X115958460Y-26730144D01*
X115993104Y-26724340D01*
X116028252Y-26714665D01*
X116063904Y-26701121D01*
X116090974Y-26688424D01*
X116118327Y-26673549D01*
X116145963Y-26656499D01*
X116173882Y-26637271D01*
X116202085Y-26615866D01*
X116211549Y-26608248D01*
X116240123Y-26583842D01*
X116268968Y-26557338D01*
X116298083Y-26528733D01*
X116327469Y-26498030D01*
X116357125Y-26465226D01*
X116377046Y-26442191D01*
X116397088Y-26418223D01*
X116417249Y-26393322D01*
X116437531Y-26367487D01*
X116457933Y-26340720D01*
X116478455Y-26313019D01*
X116499097Y-26284385D01*
X116519860Y-26254819D01*
X116530286Y-26239685D01*
X116530286Y-25259295D01*
X116502115Y-25246515D01*
X116473013Y-25234737D01*
X116442981Y-25223961D01*
X116412019Y-25214186D01*
X116380127Y-25205413D01*
X116347304Y-25197642D01*
X116333915Y-25194815D01*
X116300538Y-25188482D01*
X116267268Y-25183223D01*
X116234106Y-25179037D01*
X116201050Y-25175924D01*
X116168103Y-25173885D01*
X116135262Y-25172919D01*
X116122156Y-25172833D01*
X116086024Y-25173588D01*
X116050898Y-25175855D01*
X116016781Y-25179633D01*
X115983671Y-25184923D01*
X115951568Y-25191723D01*
X115920473Y-25200035D01*
X115890385Y-25209858D01*
X115861305Y-25221193D01*
X115833232Y-25234038D01*
X115806167Y-25248395D01*
X115780109Y-25264264D01*
X115755059Y-25281643D01*
X115731017Y-25300534D01*
X115707981Y-25320935D01*
X115685954Y-25342849D01*
X115664934Y-25366273D01*
X115645147Y-25391309D01*
X115626637Y-25418056D01*
X115609404Y-25446515D01*
X115593447Y-25476686D01*
X115578766Y-25508568D01*
X115565363Y-25542162D01*
X115553235Y-25577468D01*
X115542385Y-25614485D01*
X115532811Y-25653214D01*
X115524513Y-25693654D01*
X115517492Y-25735806D01*
X115511748Y-25779669D01*
X115507280Y-25825244D01*
X115504088Y-25872531D01*
X115502173Y-25921530D01*
X115501535Y-25972240D01*
X115135369Y-25972240D01*
X115135451Y-25962580D01*
X115136293Y-25929936D01*
X115137695Y-25897756D01*
X115139659Y-25866040D01*
X115142183Y-25834787D01*
X115145269Y-25803998D01*
X115148915Y-25773673D01*
X115153123Y-25743811D01*
X115157891Y-25714414D01*
X115163221Y-25685479D01*
X115172267Y-25642947D01*
X115182575Y-25601459D01*
X115194145Y-25561014D01*
X115206978Y-25521612D01*
X115220977Y-25483167D01*
X115236044Y-25445869D01*
X115252181Y-25409717D01*
X115269386Y-25374711D01*
X115287661Y-25340852D01*
X115307004Y-25308138D01*
X115327417Y-25276572D01*
X115348899Y-25246151D01*
X115371449Y-25216877D01*
X115395069Y-25188750D01*
X115411410Y-25170635D01*
X115436878Y-25144450D01*
X115463273Y-25119475D01*
X115490596Y-25095712D01*
X115518846Y-25073159D01*
X115548023Y-25051817D01*
X115578128Y-25031685D01*
X115609160Y-25012764D01*
X115641120Y-24995054D01*
X115674007Y-24978555D01*
X115707821Y-24963267D01*
X115730879Y-24953747D01*
X115766286Y-24940521D01*
X115802440Y-24928597D01*
X115839342Y-24917973D01*
X115876990Y-24908650D01*
X115915385Y-24900628D01*
X115954527Y-24893906D01*
X115994417Y-24888486D01*
X116035053Y-24884367D01*
X116076437Y-24881548D01*
X116118567Y-24880030D01*
X116147069Y-24879741D01*
X116177892Y-24880045D01*
X116208535Y-24880958D01*
X116239000Y-24882478D01*
X116269286Y-24884607D01*
X116299393Y-24887344D01*
X116329321Y-24890689D01*
X116341242Y-24892198D01*
X116371167Y-24896448D01*
X116400948Y-24901414D01*
X116430586Y-24907096D01*
X116460081Y-24913493D01*
X116489434Y-24920605D01*
X116518642Y-24928433D01*
X116530286Y-24931765D01*
X116530286Y-24082533D01*
X116890788Y-24082533D01*
X116890788Y-26990000D01*
G37*
G36*
X121600768Y-26990000D02*
G01*
X119826099Y-26990000D01*
X119826099Y-26670530D01*
X120522924Y-25980300D01*
X120544104Y-25959411D01*
X120574930Y-25928744D01*
X120604623Y-25898875D01*
X120633182Y-25869805D01*
X120660608Y-25841533D01*
X120686900Y-25814060D01*
X120712059Y-25787386D01*
X120736085Y-25761510D01*
X120758977Y-25736433D01*
X120780736Y-25712154D01*
X120801361Y-25688674D01*
X120821001Y-25665779D01*
X120839803Y-25643259D01*
X120863571Y-25613812D01*
X120885851Y-25585030D01*
X120906642Y-25556911D01*
X120925945Y-25529457D01*
X120943759Y-25502666D01*
X120960085Y-25476540D01*
X120967690Y-25463726D01*
X120985500Y-25432184D01*
X121001378Y-25401215D01*
X121015325Y-25370818D01*
X121027339Y-25340994D01*
X121037421Y-25311742D01*
X121045571Y-25283063D01*
X121048290Y-25271751D01*
X121055263Y-25237439D01*
X121059971Y-25208058D01*
X121063677Y-25177962D01*
X121066382Y-25147150D01*
X121068085Y-25115623D01*
X121068787Y-25083380D01*
X121068807Y-25076845D01*
X121068145Y-25046377D01*
X121066159Y-25016338D01*
X121062850Y-24986728D01*
X121058216Y-24957548D01*
X121052259Y-24928797D01*
X121043364Y-24894862D01*
X121041696Y-24889267D01*
X121030773Y-24856517D01*
X121017790Y-24825313D01*
X121002747Y-24795655D01*
X120985642Y-24767542D01*
X120966476Y-24740975D01*
X120959630Y-24732463D01*
X120937588Y-24707939D01*
X120913228Y-24685477D01*
X120886549Y-24665075D01*
X120857552Y-24646734D01*
X120831616Y-24633024D01*
X120815283Y-24625484D01*
X120786929Y-24614297D01*
X120756822Y-24605005D01*
X120724962Y-24597610D01*
X120691348Y-24592111D01*
X120655982Y-24588508D01*
X120626427Y-24586991D01*
X120603524Y-24586650D01*
X120571652Y-24587339D01*
X120540335Y-24589406D01*
X120509571Y-24592852D01*
X120479361Y-24597675D01*
X120449705Y-24603877D01*
X120420602Y-24611457D01*
X120392054Y-24620415D01*
X120364059Y-24630751D01*
X120336618Y-24642465D01*
X120309731Y-24655558D01*
X120292114Y-24665052D01*
X120266073Y-24680158D01*
X120240431Y-24696075D01*
X120215189Y-24712804D01*
X120190345Y-24730345D01*
X120165901Y-24748697D01*
X120141856Y-24767860D01*
X120118211Y-24787835D01*
X120094965Y-24808621D01*
X120072118Y-24830218D01*
X120049670Y-24852627D01*
X120034927Y-24868018D01*
X119837090Y-24628415D01*
X119866072Y-24598489D01*
X119895866Y-24569708D01*
X119926471Y-24542074D01*
X119957887Y-24515587D01*
X119990115Y-24490245D01*
X120023154Y-24466050D01*
X120057005Y-24443001D01*
X120091667Y-24421099D01*
X120127141Y-24400343D01*
X120163426Y-24380733D01*
X120188067Y-24368297D01*
X120225872Y-24350750D01*
X120264823Y-24334929D01*
X120304921Y-24320834D01*
X120346165Y-24308465D01*
X120388555Y-24297822D01*
X120417452Y-24291685D01*
X120446858Y-24286316D01*
X120476774Y-24281713D01*
X120507199Y-24277878D01*
X120538134Y-24274809D01*
X120569579Y-24272508D01*
X120601533Y-24270974D01*
X120633996Y-24270207D01*
X120650419Y-24270111D01*
X120683795Y-24270581D01*
X120716605Y-24271992D01*
X120748847Y-24274342D01*
X120780524Y-24277633D01*
X120811633Y-24281864D01*
X120842176Y-24287035D01*
X120872152Y-24293147D01*
X120901561Y-24300199D01*
X120930404Y-24308191D01*
X120958680Y-24317123D01*
X120977216Y-24323600D01*
X121013405Y-24337705D01*
X121048336Y-24353276D01*
X121082007Y-24370312D01*
X121114419Y-24388813D01*
X121145571Y-24408780D01*
X121175464Y-24430212D01*
X121204098Y-24453110D01*
X121231472Y-24477473D01*
X121257633Y-24503279D01*
X121282260Y-24530505D01*
X121305352Y-24559150D01*
X121326910Y-24589214D01*
X121346934Y-24620699D01*
X121365424Y-24653603D01*
X121382380Y-24687927D01*
X121397802Y-24723670D01*
X121408277Y-24751338D01*
X121417723Y-24779664D01*
X121426138Y-24808646D01*
X121433522Y-24838285D01*
X121439876Y-24868581D01*
X121445200Y-24899534D01*
X121449493Y-24931143D01*
X121452756Y-24963410D01*
X121454989Y-24996333D01*
X121456191Y-25029913D01*
X121456420Y-25052665D01*
X121455779Y-25090790D01*
X121453855Y-25128228D01*
X121450650Y-25164979D01*
X121446162Y-25201043D01*
X121440392Y-25236420D01*
X121433339Y-25271110D01*
X121425004Y-25305113D01*
X121415387Y-25338429D01*
X121404465Y-25371208D01*
X121392215Y-25403963D01*
X121378636Y-25436695D01*
X121363730Y-25469405D01*
X121347495Y-25502091D01*
X121329933Y-25534755D01*
X121311042Y-25567396D01*
X121290823Y-25600013D01*
X121274781Y-25624552D01*
X121257979Y-25649258D01*
X121240417Y-25674131D01*
X121222096Y-25699172D01*
X121203014Y-25724381D01*
X121183172Y-25749756D01*
X121162571Y-25775299D01*
X121141209Y-25801010D01*
X121119088Y-25826888D01*
X121096207Y-25852934D01*
X121080530Y-25870390D01*
X121056357Y-25896732D01*
X121031372Y-25923550D01*
X121005575Y-25950845D01*
X120978967Y-25978617D01*
X120951548Y-26006865D01*
X120923317Y-26035589D01*
X120894275Y-26064790D01*
X120864421Y-26094468D01*
X120833756Y-26124622D01*
X120802279Y-26155253D01*
X120780844Y-26175938D01*
X120292114Y-26650013D01*
X121600768Y-26650013D01*
X121600768Y-26990000D01*
G37*
G36*
X122973901Y-26345198D02*
G01*
X123004290Y-26346496D01*
X123033907Y-26350388D01*
X123062753Y-26356874D01*
X123090828Y-26365955D01*
X123106525Y-26372309D01*
X123133287Y-26385152D01*
X123161898Y-26402234D01*
X123188402Y-26421880D01*
X123212800Y-26444091D01*
X123215701Y-26447048D01*
X123237866Y-26471869D01*
X123257467Y-26498705D01*
X123274503Y-26527556D01*
X123287305Y-26554454D01*
X123288974Y-26558422D01*
X123299538Y-26586447D01*
X123307507Y-26615383D01*
X123312881Y-26645231D01*
X123315661Y-26675991D01*
X123316085Y-26693977D01*
X123314788Y-26724652D01*
X123310896Y-26754485D01*
X123304409Y-26783476D01*
X123295328Y-26811626D01*
X123288974Y-26827334D01*
X123276452Y-26853846D01*
X123259736Y-26882342D01*
X123240457Y-26908915D01*
X123218612Y-26933564D01*
X123215701Y-26936510D01*
X123191567Y-26958401D01*
X123165326Y-26977909D01*
X123136979Y-26995037D01*
X123110447Y-27008070D01*
X123106525Y-27009783D01*
X123078891Y-27020347D01*
X123050485Y-27028316D01*
X123021308Y-27033691D01*
X122991360Y-27036471D01*
X122973901Y-27036894D01*
X122942941Y-27035597D01*
X122912893Y-27031705D01*
X122883756Y-27025218D01*
X122855531Y-27016137D01*
X122839811Y-27009783D01*
X122809953Y-26995037D01*
X122781926Y-26977909D01*
X122755731Y-26958401D01*
X122731368Y-26936510D01*
X122709477Y-26912101D01*
X122689968Y-26885769D01*
X122672841Y-26857513D01*
X122659808Y-26831211D01*
X122658095Y-26827334D01*
X122647817Y-26799665D01*
X122640063Y-26771154D01*
X122634834Y-26741802D01*
X122632129Y-26711608D01*
X122631717Y-26693977D01*
X122632979Y-26662697D01*
X122636766Y-26632328D01*
X122643077Y-26602871D01*
X122651912Y-26574325D01*
X122658095Y-26558422D01*
X122670867Y-26531304D01*
X122685463Y-26505729D01*
X122704377Y-26478389D01*
X122725672Y-26453064D01*
X122731368Y-26447048D01*
X122755731Y-26424516D01*
X122781926Y-26404549D01*
X122809953Y-26387147D01*
X122839811Y-26372309D01*
X122867516Y-26361746D01*
X122896131Y-26353776D01*
X122925659Y-26348402D01*
X122956098Y-26345622D01*
X122973901Y-26345198D01*
G37*
G36*
X125358087Y-24270826D02*
G01*
X125397592Y-24272971D01*
X125436415Y-24276545D01*
X125474554Y-24281549D01*
X125512012Y-24287982D01*
X125548786Y-24295845D01*
X125584878Y-24305138D01*
X125620287Y-24315861D01*
X125655014Y-24328013D01*
X125689058Y-24341595D01*
X125711375Y-24351444D01*
X125744165Y-24367473D01*
X125776041Y-24385061D01*
X125807002Y-24404207D01*
X125837049Y-24424912D01*
X125866181Y-24447175D01*
X125894399Y-24470996D01*
X125921703Y-24496376D01*
X125948092Y-24523315D01*
X125973566Y-24551812D01*
X125998126Y-24581867D01*
X126013992Y-24602770D01*
X126037107Y-24635449D01*
X126059192Y-24669737D01*
X126080246Y-24705636D01*
X126100270Y-24743145D01*
X126119264Y-24782263D01*
X126131354Y-24809237D01*
X126142986Y-24836926D01*
X126154160Y-24865331D01*
X126164876Y-24894451D01*
X126175135Y-24924287D01*
X126184935Y-24954838D01*
X126194277Y-24986105D01*
X126203161Y-25018087D01*
X126207432Y-25034347D01*
X126215684Y-25067423D01*
X126223403Y-25101254D01*
X126230590Y-25135841D01*
X126237245Y-25171184D01*
X126243367Y-25207282D01*
X126248957Y-25244136D01*
X126254014Y-25281746D01*
X126258540Y-25320111D01*
X126262532Y-25359232D01*
X126265993Y-25399108D01*
X126268921Y-25439741D01*
X126271317Y-25481128D01*
X126273180Y-25523272D01*
X126274511Y-25566171D01*
X126275309Y-25609825D01*
X126275576Y-25654235D01*
X126275335Y-25692675D01*
X126274614Y-25730691D01*
X126273412Y-25768283D01*
X126271729Y-25805452D01*
X126269565Y-25842197D01*
X126266920Y-25878519D01*
X126263795Y-25914417D01*
X126260188Y-25949891D01*
X126256101Y-25984942D01*
X126251533Y-26019569D01*
X126246484Y-26053773D01*
X126240954Y-26087553D01*
X126234944Y-26120909D01*
X126228452Y-26153842D01*
X126221480Y-26186351D01*
X126214026Y-26218436D01*
X126206081Y-26249938D01*
X126197632Y-26280879D01*
X126188679Y-26311258D01*
X126179222Y-26341077D01*
X126169261Y-26370334D01*
X126158797Y-26399031D01*
X126147829Y-26427167D01*
X126136357Y-26454741D01*
X126124382Y-26481755D01*
X126105474Y-26521224D01*
X126085433Y-26559430D01*
X126064258Y-26596374D01*
X126041950Y-26632056D01*
X126026448Y-26655143D01*
X126002414Y-26688500D01*
X125977298Y-26720427D01*
X125951100Y-26750925D01*
X125923820Y-26779993D01*
X125895458Y-26807631D01*
X125866015Y-26833840D01*
X125835489Y-26858619D01*
X125803882Y-26881968D01*
X125771192Y-26903887D01*
X125737421Y-26924377D01*
X125714306Y-26937243D01*
X125678705Y-26955052D01*
X125641971Y-26971109D01*
X125604104Y-26985414D01*
X125565104Y-26997968D01*
X125524970Y-27008770D01*
X125483702Y-27017820D01*
X125441301Y-27025119D01*
X125397767Y-27030666D01*
X125368114Y-27033391D01*
X125337958Y-27035337D01*
X125307298Y-27036505D01*
X125276134Y-27036894D01*
X125235946Y-27036179D01*
X125196441Y-27034035D01*
X125157619Y-27030461D01*
X125119479Y-27025457D01*
X125082022Y-27019023D01*
X125045247Y-27011160D01*
X125009155Y-27001867D01*
X124973746Y-26991144D01*
X124939019Y-26978992D01*
X124904975Y-26965410D01*
X124882659Y-26955561D01*
X124849862Y-26939545D01*
X124817967Y-26921996D01*
X124786973Y-26902914D01*
X124756881Y-26882300D01*
X124727691Y-26860153D01*
X124699402Y-26836473D01*
X124672015Y-26811260D01*
X124645529Y-26784515D01*
X124619945Y-26756237D01*
X124595263Y-26726426D01*
X124579309Y-26705701D01*
X124556318Y-26673153D01*
X124534332Y-26638982D01*
X124513351Y-26603189D01*
X124493374Y-26565773D01*
X124474401Y-26526733D01*
X124462311Y-26499806D01*
X124450668Y-26472156D01*
X124439471Y-26443786D01*
X124428720Y-26414695D01*
X124418416Y-26384882D01*
X124408559Y-26354347D01*
X124399148Y-26323092D01*
X124390183Y-26291115D01*
X124385869Y-26274856D01*
X124377706Y-26241778D01*
X124377234Y-26239685D01*
X124757362Y-26239685D01*
X124767373Y-26272934D01*
X124778170Y-26305359D01*
X124789755Y-26336962D01*
X124802127Y-26367741D01*
X124815286Y-26397698D01*
X124829232Y-26426832D01*
X124835031Y-26438255D01*
X124850380Y-26466022D01*
X124866659Y-26492537D01*
X124883868Y-26517800D01*
X124902007Y-26541810D01*
X124921077Y-26564568D01*
X124941077Y-26586074D01*
X124949337Y-26594326D01*
X124975234Y-26617776D01*
X125002368Y-26639217D01*
X125030739Y-26658649D01*
X125060345Y-26676071D01*
X125091189Y-26691484D01*
X125101744Y-26696175D01*
X125134717Y-26708377D01*
X125163454Y-26716617D01*
X125193336Y-26723103D01*
X125224362Y-26727837D01*
X125256533Y-26730817D01*
X125289850Y-26732044D01*
X125296650Y-26732079D01*
X125331409Y-26731026D01*
X125365344Y-26727866D01*
X125398454Y-26722599D01*
X125430740Y-26715226D01*
X125462201Y-26705747D01*
X125492838Y-26694160D01*
X125522651Y-26680467D01*
X125551640Y-26664668D01*
X125579678Y-26646625D01*
X125606640Y-26626566D01*
X125632526Y-26604493D01*
X125657336Y-26580404D01*
X125681069Y-26554301D01*
X125703727Y-26526182D01*
X125725308Y-26496049D01*
X125745813Y-26463900D01*
X125760597Y-26438329D01*
X125774724Y-26411625D01*
X125788194Y-26383787D01*
X125801008Y-26354815D01*
X125813164Y-26324711D01*
X125824664Y-26293472D01*
X125835507Y-26261101D01*
X125845693Y-26227595D01*
X125855222Y-26192957D01*
X125864094Y-26157185D01*
X125869644Y-26132707D01*
X125877370Y-26095065D01*
X125884336Y-26056329D01*
X125890542Y-26016497D01*
X125895988Y-25975571D01*
X125900674Y-25933550D01*
X125904600Y-25890434D01*
X125906796Y-25861082D01*
X125908653Y-25831244D01*
X125910173Y-25800918D01*
X125911355Y-25770107D01*
X125912199Y-25738808D01*
X125912706Y-25707023D01*
X125912875Y-25674752D01*
X125912630Y-25644974D01*
X125911893Y-25615266D01*
X125910666Y-25585629D01*
X125908948Y-25556061D01*
X125907746Y-25539197D01*
X125905467Y-25509845D01*
X125902776Y-25476643D01*
X125899994Y-25443808D01*
X125897121Y-25411339D01*
X125896755Y-25407306D01*
X124757362Y-26239685D01*
X124377234Y-26239685D01*
X124370069Y-26207938D01*
X124362959Y-26173336D01*
X124356376Y-26137974D01*
X124350320Y-26101850D01*
X124344790Y-26064964D01*
X124339787Y-26027317D01*
X124335310Y-25988909D01*
X124331361Y-25949740D01*
X124327937Y-25909809D01*
X124325041Y-25869117D01*
X124322671Y-25827663D01*
X124320828Y-25785448D01*
X124319511Y-25742472D01*
X124318721Y-25698734D01*
X124318458Y-25654235D01*
X124318481Y-25650572D01*
X124681158Y-25650572D01*
X124681204Y-25680659D01*
X124681341Y-25710839D01*
X124681570Y-25741109D01*
X124681891Y-25771472D01*
X124682624Y-25801285D01*
X124684089Y-25830640D01*
X124686614Y-25863117D01*
X124689218Y-25887976D01*
X125828611Y-25067320D01*
X125818583Y-25033685D01*
X125807731Y-25001016D01*
X125796057Y-24969314D01*
X125783560Y-24938577D01*
X125770240Y-24908806D01*
X125756097Y-24880002D01*
X125750209Y-24868750D01*
X125735090Y-24841194D01*
X125719040Y-24814855D01*
X125702060Y-24789732D01*
X125684149Y-24765825D01*
X125665309Y-24743135D01*
X125641472Y-24717512D01*
X125637369Y-24713412D01*
X125611970Y-24689738D01*
X125585231Y-24668177D01*
X125557152Y-24648729D01*
X125527735Y-24631392D01*
X125496977Y-24616168D01*
X125486427Y-24611563D01*
X125454081Y-24599112D01*
X125425985Y-24590704D01*
X125396851Y-24584085D01*
X125366680Y-24579255D01*
X125335471Y-24576214D01*
X125303224Y-24574962D01*
X125296650Y-24574926D01*
X125262063Y-24576002D01*
X125228278Y-24579231D01*
X125195293Y-24584612D01*
X125163110Y-24592145D01*
X125131729Y-24601831D01*
X125101149Y-24613669D01*
X125071371Y-24627660D01*
X125042393Y-24643803D01*
X125014344Y-24661903D01*
X124987347Y-24682134D01*
X124961404Y-24704493D01*
X124936514Y-24728982D01*
X124912678Y-24755601D01*
X124889894Y-24784349D01*
X124868164Y-24815227D01*
X124847488Y-24848234D01*
X124832835Y-24874355D01*
X124818825Y-24901609D01*
X124805460Y-24929996D01*
X124792739Y-24959517D01*
X124780662Y-24990172D01*
X124769229Y-25021959D01*
X124758440Y-25054881D01*
X124748295Y-25088935D01*
X124738793Y-25124123D01*
X124729936Y-25160445D01*
X124724389Y-25185289D01*
X124716663Y-25223493D01*
X124709697Y-25262818D01*
X124703491Y-25303263D01*
X124698045Y-25344829D01*
X124693359Y-25387516D01*
X124689433Y-25431323D01*
X124687238Y-25461150D01*
X124685380Y-25491475D01*
X124683860Y-25522298D01*
X124682678Y-25553620D01*
X124681834Y-25585439D01*
X124681327Y-25617756D01*
X124681158Y-25650572D01*
X124318481Y-25650572D01*
X124318701Y-25615882D01*
X124319431Y-25577940D01*
X124320647Y-25540411D01*
X124322350Y-25503293D01*
X124324540Y-25466588D01*
X124327216Y-25430295D01*
X124330379Y-25394414D01*
X124334028Y-25358946D01*
X124338164Y-25323889D01*
X124342787Y-25289245D01*
X124347896Y-25255013D01*
X124353491Y-25221193D01*
X124359573Y-25187785D01*
X124366142Y-25154789D01*
X124373198Y-25122206D01*
X124380740Y-25090034D01*
X124388857Y-25058358D01*
X124397455Y-25027260D01*
X124406534Y-24996740D01*
X124416094Y-24966799D01*
X124426134Y-24937435D01*
X124436656Y-24908650D01*
X124447658Y-24880443D01*
X124459142Y-24852814D01*
X124471106Y-24825763D01*
X124489953Y-24786270D01*
X124509883Y-24748079D01*
X124530895Y-24711189D01*
X124552988Y-24675599D01*
X124568318Y-24652595D01*
X124592228Y-24619114D01*
X124617245Y-24587088D01*
X124643370Y-24556517D01*
X124670602Y-24527402D01*
X124698943Y-24499742D01*
X124728391Y-24473538D01*
X124758946Y-24448789D01*
X124790610Y-24425495D01*
X124823381Y-24403657D01*
X124857259Y-24383275D01*
X124880460Y-24370495D01*
X124916179Y-24352555D01*
X124952992Y-24336380D01*
X124990900Y-24321970D01*
X125029903Y-24309324D01*
X125070000Y-24298442D01*
X125111193Y-24289325D01*
X125153480Y-24281973D01*
X125196862Y-24276385D01*
X125226391Y-24273640D01*
X125256407Y-24271680D01*
X125286910Y-24270503D01*
X125317899Y-24270111D01*
X125358087Y-24270826D01*
G37*
G36*
X128469365Y-26189127D02*
G01*
X128468727Y-26221913D01*
X128466815Y-26254326D01*
X128463627Y-26286365D01*
X128459164Y-26318030D01*
X128453426Y-26349322D01*
X128446413Y-26380241D01*
X128438124Y-26410785D01*
X128428561Y-26440957D01*
X128417723Y-26470755D01*
X128405609Y-26500179D01*
X128396825Y-26519588D01*
X128382723Y-26548104D01*
X128367347Y-26575951D01*
X128350695Y-26603127D01*
X128332768Y-26629634D01*
X128313566Y-26655472D01*
X128293089Y-26680639D01*
X128271337Y-26705137D01*
X128248310Y-26728965D01*
X128224007Y-26752123D01*
X128198430Y-26774612D01*
X128180670Y-26789232D01*
X128152954Y-26810377D01*
X128123938Y-26830671D01*
X128093620Y-26850116D01*
X128062002Y-26868710D01*
X128029083Y-26886454D01*
X127994863Y-26903349D01*
X127959342Y-26919393D01*
X127922520Y-26934587D01*
X127884398Y-26948931D01*
X127844974Y-26962425D01*
X127817969Y-26970949D01*
X127776390Y-26982734D01*
X127747963Y-26989947D01*
X127718969Y-26996644D01*
X127689408Y-27002827D01*
X127659280Y-27008494D01*
X127628585Y-27013646D01*
X127597324Y-27018283D01*
X127565496Y-27022404D01*
X127533102Y-27026011D01*
X127500140Y-27029102D01*
X127466612Y-27031678D01*
X127432517Y-27033739D01*
X127397856Y-27035284D01*
X127362628Y-27036315D01*
X127326833Y-27036830D01*
X127308723Y-27036894D01*
X127278919Y-27036778D01*
X127240061Y-27036263D01*
X127202211Y-27035336D01*
X127165369Y-27033996D01*
X127129534Y-27032244D01*
X127094706Y-27030081D01*
X127060886Y-27027505D01*
X127028074Y-27024516D01*
X127020028Y-27023705D01*
X126988406Y-27020293D01*
X126957288Y-27016653D01*
X126926674Y-27012783D01*
X126896563Y-27008684D01*
X126866956Y-27004356D01*
X126837853Y-26999800D01*
X126802183Y-26993782D01*
X126781158Y-26990000D01*
X126781158Y-26673461D01*
X126813433Y-26678979D01*
X126846142Y-26684177D01*
X126879287Y-26689054D01*
X126912866Y-26693611D01*
X126946881Y-26697847D01*
X126981331Y-26701762D01*
X127016215Y-26705357D01*
X127051535Y-26708632D01*
X127087164Y-26711379D01*
X127122976Y-26713761D01*
X127158971Y-26715776D01*
X127195150Y-26717424D01*
X127231512Y-26718707D01*
X127268056Y-26719623D01*
X127304784Y-26720172D01*
X127341696Y-26720355D01*
X127379093Y-26720046D01*
X127415446Y-26719119D01*
X127450757Y-26717573D01*
X127485024Y-26715409D01*
X127518248Y-26712627D01*
X127550429Y-26709227D01*
X127581566Y-26705209D01*
X127611660Y-26700572D01*
X127640711Y-26695317D01*
X127677823Y-26687348D01*
X127686811Y-26685184D01*
X127721879Y-26675728D01*
X127755275Y-26665309D01*
X127787000Y-26653929D01*
X127817053Y-26641587D01*
X127845435Y-26628283D01*
X127872145Y-26614018D01*
X127903183Y-26594834D01*
X127920551Y-26582602D01*
X127947728Y-26561068D01*
X127972472Y-26538138D01*
X127994783Y-26513813D01*
X128014661Y-26488092D01*
X128032106Y-26460976D01*
X128047119Y-26432465D01*
X128052442Y-26420669D01*
X128064474Y-26390312D01*
X128074467Y-26358774D01*
X128082420Y-26326055D01*
X128088335Y-26292156D01*
X128092209Y-26257076D01*
X128094045Y-26220815D01*
X128094208Y-26205980D01*
X128092991Y-26172560D01*
X128089342Y-26140535D01*
X128083260Y-26109906D01*
X128074745Y-26080672D01*
X128063797Y-26052833D01*
X128050416Y-26026390D01*
X128044382Y-26016203D01*
X128028039Y-25991449D01*
X128009692Y-25968018D01*
X127989342Y-25945911D01*
X127966988Y-25925127D01*
X127942630Y-25905668D01*
X127916269Y-25887532D01*
X127905164Y-25880648D01*
X127876370Y-25864155D01*
X127845859Y-25849021D01*
X127813630Y-25835247D01*
X127779684Y-25822832D01*
X127751291Y-25813879D01*
X127721799Y-25805796D01*
X127691207Y-25798583D01*
X127659688Y-25792057D01*
X127627414Y-25786401D01*
X127594384Y-25781616D01*
X127560598Y-25777700D01*
X127526057Y-25774655D01*
X127490760Y-25772479D01*
X127454708Y-25771174D01*
X127417899Y-25770739D01*
X127110886Y-25770739D01*
X127110886Y-25477648D01*
X127422296Y-25477648D01*
X127452361Y-25477144D01*
X127481738Y-25475633D01*
X127517495Y-25472327D01*
X127552178Y-25467447D01*
X127585787Y-25460993D01*
X127618324Y-25452964D01*
X127643580Y-25445408D01*
X127674234Y-25434653D01*
X127703457Y-25422539D01*
X127731250Y-25409065D01*
X127757611Y-25394231D01*
X127782541Y-25378038D01*
X127806039Y-25360486D01*
X127815038Y-25353084D01*
X127840532Y-25329574D01*
X127863707Y-25304106D01*
X127884564Y-25276680D01*
X127903103Y-25247296D01*
X127916781Y-25221314D01*
X127924215Y-25205073D01*
X127935191Y-25176794D01*
X127944308Y-25147370D01*
X127951563Y-25116802D01*
X127956959Y-25085088D01*
X127960493Y-25052230D01*
X127962168Y-25018227D01*
X127962317Y-25004305D01*
X127961158Y-24964407D01*
X127957680Y-24926596D01*
X127951884Y-24890871D01*
X127943770Y-24857233D01*
X127933337Y-24825681D01*
X127920586Y-24796216D01*
X127905516Y-24768837D01*
X127888128Y-24743545D01*
X127868422Y-24720340D01*
X127846397Y-24699221D01*
X127830426Y-24686301D01*
X127804608Y-24668492D01*
X127776613Y-24652435D01*
X127746442Y-24638130D01*
X127714093Y-24625576D01*
X127679569Y-24614774D01*
X127642867Y-24605724D01*
X127603989Y-24598425D01*
X127562934Y-24592878D01*
X127519702Y-24589083D01*
X127489672Y-24587526D01*
X127458674Y-24586747D01*
X127442812Y-24586650D01*
X127408614Y-24587016D01*
X127374165Y-24588115D01*
X127339463Y-24589947D01*
X127304510Y-24592512D01*
X127269304Y-24595809D01*
X127233847Y-24599839D01*
X127198138Y-24604602D01*
X127162177Y-24610097D01*
X127125941Y-24616325D01*
X127089042Y-24623286D01*
X127051478Y-24630980D01*
X127013250Y-24639406D01*
X126984143Y-24646207D01*
X126954663Y-24653420D01*
X126924810Y-24661045D01*
X126894582Y-24669082D01*
X126863982Y-24677531D01*
X126853698Y-24680439D01*
X126853698Y-24363900D01*
X126884608Y-24354494D01*
X126916430Y-24345508D01*
X126949163Y-24336943D01*
X126977945Y-24329936D01*
X127002442Y-24324333D01*
X127032367Y-24317945D01*
X127062240Y-24311968D01*
X127092061Y-24306404D01*
X127121831Y-24301252D01*
X127151550Y-24296512D01*
X127161444Y-24295024D01*
X127191094Y-24290808D01*
X127220692Y-24286952D01*
X127250239Y-24283458D01*
X127279734Y-24280324D01*
X127309178Y-24277550D01*
X127318981Y-24276706D01*
X127353001Y-24274136D01*
X127386461Y-24272198D01*
X127419359Y-24270890D01*
X127451697Y-24270214D01*
X127469923Y-24270111D01*
X127509589Y-24270523D01*
X127548354Y-24271760D01*
X127586217Y-24273821D01*
X127623178Y-24276706D01*
X127659238Y-24280415D01*
X127694396Y-24284949D01*
X127728652Y-24290307D01*
X127762007Y-24296489D01*
X127794460Y-24303496D01*
X127826012Y-24311327D01*
X127846546Y-24317006D01*
X127876706Y-24326153D01*
X127905914Y-24336008D01*
X127934168Y-24346572D01*
X127961469Y-24357844D01*
X127996389Y-24373975D01*
X128029613Y-24391366D01*
X128061143Y-24410017D01*
X128090979Y-24429926D01*
X128119121Y-24451095D01*
X128145579Y-24473478D01*
X128170366Y-24497028D01*
X128193481Y-24521746D01*
X128214925Y-24547632D01*
X128234697Y-24574686D01*
X128252798Y-24602907D01*
X128269227Y-24632297D01*
X128283985Y-24662854D01*
X128297036Y-24694487D01*
X128308348Y-24727105D01*
X128317919Y-24760707D01*
X128325750Y-24795294D01*
X128331841Y-24830866D01*
X128336191Y-24867422D01*
X128338802Y-24904963D01*
X128339672Y-24943489D01*
X128338629Y-24986521D01*
X128335499Y-25028239D01*
X128330282Y-25068644D01*
X128322979Y-25107734D01*
X128313590Y-25145511D01*
X128302114Y-25181975D01*
X128288551Y-25217124D01*
X128272902Y-25250960D01*
X128255166Y-25283482D01*
X128235344Y-25314690D01*
X128220970Y-25334766D01*
X128197947Y-25363744D01*
X128173391Y-25391601D01*
X128147303Y-25418338D01*
X128119682Y-25443954D01*
X128090528Y-25468449D01*
X128059841Y-25491824D01*
X128027622Y-25514079D01*
X127993870Y-25535213D01*
X127958585Y-25555226D01*
X127921768Y-25574119D01*
X127896371Y-25586092D01*
X127929043Y-25591934D01*
X127961573Y-25599387D01*
X127993959Y-25608449D01*
X128026201Y-25619122D01*
X128058301Y-25631404D01*
X128090258Y-25645297D01*
X128103001Y-25651304D01*
X128134539Y-25667326D01*
X128165039Y-25684707D01*
X128194502Y-25703447D01*
X128222928Y-25723547D01*
X128250316Y-25745006D01*
X128276666Y-25767825D01*
X128286915Y-25777334D01*
X128311581Y-25801845D01*
X128334743Y-25827752D01*
X128356403Y-25855054D01*
X128376560Y-25883751D01*
X128395215Y-25913844D01*
X128412367Y-25945332D01*
X128418807Y-25958318D01*
X128433372Y-25991387D01*
X128445468Y-26025566D01*
X128455096Y-26060853D01*
X128461021Y-26089882D01*
X128465366Y-26119620D01*
X128468131Y-26150069D01*
X128469315Y-26181227D01*
X128469365Y-26189127D01*
G37*
G36*
X32401565Y-24317644D02*
G01*
X32455209Y-24319559D01*
X32507095Y-24322750D01*
X32557222Y-24327218D01*
X32605590Y-24332963D01*
X32652199Y-24339984D01*
X32697049Y-24348281D01*
X32740140Y-24357855D01*
X32781473Y-24368706D01*
X32821047Y-24380833D01*
X32858862Y-24394237D01*
X32894918Y-24408917D01*
X32929215Y-24424874D01*
X32961754Y-24442108D01*
X32992533Y-24460618D01*
X33021554Y-24480404D01*
X33048816Y-24501467D01*
X33074319Y-24523807D01*
X33098063Y-24547423D01*
X33120049Y-24572316D01*
X33140275Y-24598485D01*
X33158743Y-24625931D01*
X33175452Y-24654653D01*
X33190402Y-24684652D01*
X33203593Y-24715928D01*
X33215026Y-24748480D01*
X33224699Y-24782308D01*
X33232614Y-24817414D01*
X33238770Y-24853795D01*
X33243167Y-24891454D01*
X33245805Y-24930388D01*
X33246685Y-24970600D01*
X33245770Y-25010993D01*
X33243027Y-25050292D01*
X33238454Y-25088497D01*
X33232053Y-25125606D01*
X33223823Y-25161621D01*
X33213764Y-25196540D01*
X33201875Y-25230366D01*
X33188158Y-25263096D01*
X33172612Y-25294731D01*
X33155237Y-25325272D01*
X33142637Y-25345024D01*
X33121982Y-25373585D01*
X33099034Y-25400743D01*
X33073794Y-25426496D01*
X33046261Y-25450846D01*
X33016435Y-25473792D01*
X32984316Y-25495333D01*
X32949905Y-25515471D01*
X32913202Y-25534205D01*
X32874205Y-25551535D01*
X32846934Y-25562309D01*
X32818644Y-25572458D01*
X32804117Y-25577299D01*
X32837948Y-25584408D01*
X32871207Y-25592912D01*
X32903894Y-25602812D01*
X32936008Y-25614107D01*
X32967550Y-25626797D01*
X32998519Y-25640883D01*
X33010746Y-25646908D01*
X33040839Y-25662736D01*
X33069751Y-25679995D01*
X33097482Y-25698686D01*
X33124033Y-25718807D01*
X33149403Y-25740360D01*
X33173592Y-25763343D01*
X33182937Y-25772937D01*
X33205313Y-25797696D01*
X33226186Y-25823885D01*
X33245556Y-25851505D01*
X33263423Y-25880557D01*
X33279788Y-25911040D01*
X33294650Y-25942953D01*
X33300174Y-25956120D01*
X33312839Y-25989754D01*
X33323358Y-26024713D01*
X33330227Y-26053633D01*
X33335723Y-26083400D01*
X33339844Y-26114014D01*
X33342592Y-26145475D01*
X33343966Y-26177784D01*
X33344138Y-26194256D01*
X33343474Y-26229734D01*
X33341484Y-26264452D01*
X33338168Y-26298410D01*
X33333525Y-26331609D01*
X33327555Y-26364047D01*
X33320258Y-26395725D01*
X33311635Y-26426644D01*
X33301685Y-26456802D01*
X33290409Y-26486201D01*
X33277806Y-26514839D01*
X33268667Y-26533510D01*
X33253956Y-26560725D01*
X33238124Y-26587142D01*
X33221172Y-26612760D01*
X33203099Y-26637580D01*
X33183906Y-26661601D01*
X33163592Y-26684824D01*
X33142157Y-26707248D01*
X33119602Y-26728873D01*
X33095927Y-26749700D01*
X33071130Y-26769729D01*
X33053977Y-26782637D01*
X33027496Y-26801303D01*
X32999984Y-26819105D01*
X32971442Y-26836044D01*
X32941870Y-26852121D01*
X32911267Y-26867334D01*
X32879634Y-26881684D01*
X32846970Y-26895172D01*
X32813276Y-26907797D01*
X32778551Y-26919558D01*
X32742797Y-26930457D01*
X32718387Y-26937243D01*
X32681044Y-26946671D01*
X32642928Y-26955172D01*
X32604039Y-26962745D01*
X32564377Y-26969392D01*
X32523943Y-26975110D01*
X32482735Y-26979902D01*
X32440755Y-26983766D01*
X32398002Y-26986702D01*
X32354476Y-26988712D01*
X32325030Y-26989536D01*
X32295240Y-26989948D01*
X32280216Y-26990000D01*
X31575331Y-26990000D01*
X31575331Y-25770739D01*
X31942428Y-25770739D01*
X31942428Y-26685184D01*
X32330041Y-26685184D01*
X32368799Y-26684732D01*
X32406302Y-26683376D01*
X32442552Y-26681114D01*
X32477549Y-26677949D01*
X32511292Y-26673879D01*
X32543781Y-26668904D01*
X32575016Y-26663025D01*
X32604998Y-26656242D01*
X32633726Y-26648554D01*
X32674467Y-26635326D01*
X32712388Y-26620063D01*
X32747488Y-26602765D01*
X32779768Y-26583432D01*
X32799720Y-26569413D01*
X32827350Y-26546560D01*
X32852262Y-26521414D01*
X32874457Y-26493975D01*
X32893933Y-26464244D01*
X32910692Y-26432220D01*
X32924734Y-26397903D01*
X32936057Y-26361294D01*
X32944663Y-26322392D01*
X32950552Y-26281198D01*
X32953722Y-26237711D01*
X32954326Y-26207445D01*
X32953271Y-26176329D01*
X32950104Y-26146180D01*
X32944827Y-26116996D01*
X32935708Y-26083250D01*
X32923549Y-26050896D01*
X32911095Y-26024996D01*
X32893492Y-25995398D01*
X32873108Y-25967603D01*
X32849941Y-25941611D01*
X32828510Y-25921329D01*
X32805147Y-25902298D01*
X32785066Y-25887976D01*
X32758526Y-25870988D01*
X32730197Y-25855289D01*
X32700079Y-25840878D01*
X32668173Y-25827755D01*
X32634477Y-25815919D01*
X32606233Y-25807378D01*
X32584298Y-25801514D01*
X32554165Y-25794301D01*
X32523115Y-25788050D01*
X32491150Y-25782761D01*
X32458269Y-25778433D01*
X32424472Y-25775067D01*
X32389759Y-25772663D01*
X32354130Y-25771220D01*
X32317585Y-25770739D01*
X31942428Y-25770739D01*
X31575331Y-25770739D01*
X31575331Y-24621821D01*
X31942428Y-24621821D01*
X31942428Y-25465924D01*
X32309525Y-25465924D01*
X32340483Y-25465512D01*
X32370708Y-25464275D01*
X32400200Y-25462215D01*
X32436035Y-25458479D01*
X32470725Y-25453456D01*
X32504270Y-25447145D01*
X32536671Y-25439546D01*
X32567994Y-25430376D01*
X32597851Y-25419811D01*
X32626240Y-25407850D01*
X32653163Y-25394495D01*
X32678619Y-25379743D01*
X32707230Y-25360200D01*
X32711793Y-25356748D01*
X32738111Y-25334886D01*
X32762111Y-25311067D01*
X32783792Y-25285289D01*
X32803155Y-25257554D01*
X32820200Y-25227862D01*
X32825366Y-25217529D01*
X32839062Y-25185072D01*
X32848310Y-25156292D01*
X32855591Y-25125938D01*
X32860904Y-25094010D01*
X32864249Y-25060508D01*
X32865627Y-25025431D01*
X32865666Y-25018227D01*
X32864790Y-24987513D01*
X32862163Y-24957468D01*
X32857783Y-24928093D01*
X32851653Y-24899388D01*
X32842286Y-24866745D01*
X32840753Y-24862156D01*
X32828351Y-24831116D01*
X32812303Y-24802109D01*
X32792608Y-24775136D01*
X32769266Y-24750197D01*
X32754291Y-24736859D01*
X32729665Y-24717848D01*
X32701947Y-24700383D01*
X32671138Y-24684463D01*
X32643103Y-24672378D01*
X32612920Y-24661365D01*
X32587229Y-24653328D01*
X32553126Y-24644251D01*
X32523885Y-24638098D01*
X32492905Y-24632928D01*
X32460184Y-24628744D01*
X32425723Y-24625544D01*
X32389521Y-24623329D01*
X32351580Y-24622098D01*
X32321981Y-24621821D01*
X31942428Y-24621821D01*
X31575331Y-24621821D01*
X31575331Y-24317006D01*
X32346161Y-24317006D01*
X32401565Y-24317644D01*
G37*
G36*
X33970621Y-24926636D02*
G01*
X34298883Y-24926636D01*
X34309141Y-25312051D01*
X34332019Y-25284059D01*
X34354857Y-25257051D01*
X34377654Y-25231027D01*
X34400412Y-25205989D01*
X34423129Y-25181935D01*
X34445806Y-25158865D01*
X34468444Y-25136780D01*
X34491041Y-25115680D01*
X34513598Y-25095564D01*
X34536115Y-25076433D01*
X34569816Y-25049583D01*
X34603426Y-25024947D01*
X34636946Y-25002528D01*
X34670376Y-24982323D01*
X34703793Y-24963991D01*
X34737275Y-24947461D01*
X34770821Y-24932735D01*
X34804431Y-24919812D01*
X34838106Y-24908693D01*
X34871845Y-24899376D01*
X34905649Y-24891863D01*
X34939517Y-24886153D01*
X34973449Y-24882246D01*
X35007446Y-24880142D01*
X35030146Y-24879741D01*
X35069745Y-24880571D01*
X35108124Y-24883061D01*
X35145285Y-24887212D01*
X35181226Y-24893022D01*
X35215947Y-24900492D01*
X35249449Y-24909623D01*
X35281732Y-24920413D01*
X35312796Y-24932864D01*
X35342640Y-24946975D01*
X35371266Y-24962746D01*
X35398671Y-24980177D01*
X35424858Y-24999268D01*
X35449825Y-25020019D01*
X35473573Y-25042430D01*
X35496101Y-25066501D01*
X35517411Y-25092233D01*
X35537503Y-25119601D01*
X35556199Y-25148584D01*
X35573499Y-25179181D01*
X35589401Y-25211393D01*
X35603907Y-25245218D01*
X35617016Y-25280658D01*
X35628728Y-25317713D01*
X35639043Y-25356381D01*
X35647962Y-25396664D01*
X35655484Y-25438561D01*
X35661609Y-25482073D01*
X35666338Y-25527199D01*
X35669669Y-25573939D01*
X35671604Y-25622293D01*
X35672142Y-25672262D01*
X35671284Y-25723845D01*
X35308583Y-25723845D01*
X35308958Y-25689008D01*
X35308617Y-25655392D01*
X35307561Y-25622994D01*
X35305789Y-25591816D01*
X35303302Y-25561857D01*
X35298230Y-25519205D01*
X35291547Y-25479296D01*
X35283254Y-25442131D01*
X35273352Y-25407709D01*
X35261839Y-25376031D01*
X35248717Y-25347096D01*
X35233984Y-25320905D01*
X35228715Y-25312784D01*
X35206218Y-25282731D01*
X35181226Y-25256684D01*
X35153737Y-25234645D01*
X35123752Y-25216613D01*
X35091272Y-25202588D01*
X35056295Y-25192571D01*
X35018823Y-25186560D01*
X34989081Y-25184682D01*
X34978855Y-25184556D01*
X34947084Y-25185854D01*
X34915242Y-25189746D01*
X34883331Y-25196232D01*
X34851349Y-25205313D01*
X34833042Y-25211667D01*
X34805659Y-25222967D01*
X34777916Y-25236534D01*
X34749812Y-25252368D01*
X34721347Y-25270469D01*
X34692521Y-25290836D01*
X34682833Y-25298129D01*
X34658540Y-25317288D01*
X34633746Y-25338129D01*
X34608451Y-25360651D01*
X34582655Y-25384855D01*
X34561658Y-25405428D01*
X34540340Y-25427078D01*
X34518702Y-25449804D01*
X34496891Y-25473503D01*
X34474692Y-25498439D01*
X34452103Y-25524611D01*
X34429125Y-25552020D01*
X34405758Y-25580665D01*
X34382002Y-25610546D01*
X34363929Y-25633769D01*
X34345637Y-25657687D01*
X34333321Y-25674019D01*
X34333321Y-26990000D01*
X33970621Y-26990000D01*
X33970621Y-24926636D01*
G37*
G36*
X37070467Y-24880108D02*
G01*
X37104652Y-24881210D01*
X37138181Y-24883045D01*
X37171053Y-24885615D01*
X37203268Y-24888918D01*
X37234826Y-24892956D01*
X37265727Y-24897728D01*
X37295972Y-24903234D01*
X37325559Y-24909475D01*
X37354490Y-24916449D01*
X37373412Y-24921507D01*
X37410415Y-24932452D01*
X37445952Y-24944771D01*
X37480024Y-24958464D01*
X37512630Y-24973531D01*
X37543771Y-24989971D01*
X37573447Y-25007786D01*
X37601657Y-25026974D01*
X37628401Y-25047536D01*
X37653658Y-25069289D01*
X37677403Y-25092416D01*
X37699636Y-25116916D01*
X37720359Y-25142791D01*
X37739570Y-25170039D01*
X37757270Y-25198661D01*
X37773459Y-25228657D01*
X37788136Y-25260027D01*
X37801188Y-25292622D01*
X37812500Y-25326660D01*
X37822071Y-25362140D01*
X37829902Y-25399063D01*
X37835993Y-25437428D01*
X37839419Y-25467148D01*
X37841866Y-25497680D01*
X37843334Y-25529024D01*
X37843824Y-25561179D01*
X37843824Y-26990000D01*
X37522156Y-26990000D01*
X37514096Y-26713028D01*
X37492918Y-26734088D01*
X37471701Y-26754404D01*
X37439799Y-26783483D01*
X37407807Y-26810887D01*
X37375725Y-26836617D01*
X37343553Y-26860673D01*
X37311291Y-26883054D01*
X37278939Y-26903761D01*
X37246496Y-26922793D01*
X37213963Y-26940151D01*
X37181340Y-26955835D01*
X37170446Y-26960690D01*
X37137724Y-26974309D01*
X37104681Y-26986588D01*
X37071315Y-26997527D01*
X37037628Y-27007127D01*
X37003618Y-27015387D01*
X36969286Y-27022308D01*
X36934633Y-27027890D01*
X36899657Y-27032131D01*
X36864360Y-27035034D01*
X36828740Y-27036596D01*
X36804815Y-27036894D01*
X36772018Y-27036495D01*
X36740123Y-27035297D01*
X36709129Y-27033301D01*
X36679037Y-27030506D01*
X36649847Y-27026912D01*
X36612329Y-27020879D01*
X36576414Y-27013425D01*
X36542101Y-27004552D01*
X36509392Y-26994260D01*
X36501465Y-26991465D01*
X36470828Y-26979581D01*
X36441564Y-26966644D01*
X36413675Y-26952653D01*
X36387159Y-26937609D01*
X36362018Y-26921512D01*
X36338250Y-26904362D01*
X36310472Y-26881443D01*
X36294836Y-26866901D01*
X36270474Y-26841281D01*
X36248224Y-26814336D01*
X36228085Y-26786068D01*
X36210057Y-26756477D01*
X36194139Y-26725561D01*
X36180332Y-26693322D01*
X36175401Y-26680055D01*
X36164424Y-26645966D01*
X36155308Y-26611019D01*
X36148052Y-26575212D01*
X36143587Y-26545949D01*
X36140313Y-26516136D01*
X36138229Y-26485773D01*
X36137336Y-26454862D01*
X36137299Y-26447048D01*
X36137712Y-26429462D01*
X36516852Y-26429462D01*
X36517997Y-26458863D01*
X36522022Y-26491282D01*
X36528945Y-26523005D01*
X36535170Y-26543768D01*
X36547271Y-26573340D01*
X36562965Y-26601058D01*
X36582253Y-26626921D01*
X36594521Y-26640488D01*
X36616915Y-26660638D01*
X36642332Y-26678590D01*
X36670771Y-26694344D01*
X36698135Y-26706325D01*
X36702233Y-26707899D01*
X36732451Y-26717321D01*
X36765405Y-26724428D01*
X36795827Y-26728679D01*
X36828259Y-26731229D01*
X36862700Y-26732079D01*
X36894219Y-26730911D01*
X36926860Y-26727408D01*
X36960622Y-26721569D01*
X36995507Y-26713394D01*
X37031514Y-26702884D01*
X37068643Y-26690039D01*
X37097225Y-26678872D01*
X37126439Y-26666391D01*
X37146266Y-26657341D01*
X37176371Y-26642424D01*
X37206785Y-26625974D01*
X37237508Y-26607991D01*
X37268540Y-26588476D01*
X37299881Y-26567428D01*
X37331532Y-26544847D01*
X37363491Y-26520733D01*
X37395760Y-26495087D01*
X37428338Y-26467908D01*
X37461225Y-26439197D01*
X37483321Y-26419204D01*
X37483321Y-26052107D01*
X37027564Y-26052107D01*
X36994626Y-26052531D01*
X36962855Y-26053801D01*
X36932252Y-26055919D01*
X36902817Y-26058885D01*
X36867665Y-26063783D01*
X36834338Y-26070004D01*
X36802836Y-26077550D01*
X36796755Y-26079218D01*
X36767370Y-26088034D01*
X36739668Y-26097994D01*
X36708644Y-26111458D01*
X36680042Y-26126571D01*
X36653861Y-26143332D01*
X36637752Y-26155422D01*
X36612332Y-26177882D01*
X36589928Y-26202305D01*
X36570538Y-26228692D01*
X36554164Y-26257042D01*
X36546161Y-26274124D01*
X36534741Y-26305099D01*
X36526126Y-26337757D01*
X36520974Y-26367089D01*
X36517883Y-26397657D01*
X36516852Y-26429462D01*
X36137712Y-26429462D01*
X36138203Y-26408562D01*
X36140917Y-26371142D01*
X36145439Y-26334786D01*
X36151770Y-26299494D01*
X36159910Y-26265268D01*
X36169859Y-26232106D01*
X36181617Y-26200009D01*
X36195184Y-26168977D01*
X36210560Y-26139010D01*
X36227745Y-26110107D01*
X36246739Y-26082269D01*
X36267541Y-26055496D01*
X36290153Y-26029787D01*
X36314573Y-26005144D01*
X36340803Y-25981565D01*
X36368841Y-25959050D01*
X36398740Y-25937667D01*
X36430367Y-25917663D01*
X36463724Y-25899038D01*
X36498809Y-25881793D01*
X36535623Y-25865928D01*
X36574165Y-25851442D01*
X36614437Y-25838336D01*
X36656437Y-25826610D01*
X36700166Y-25816263D01*
X36745624Y-25807295D01*
X36792810Y-25799708D01*
X36841726Y-25793500D01*
X36892370Y-25788671D01*
X36944743Y-25785222D01*
X36998845Y-25783153D01*
X37054675Y-25782463D01*
X37483321Y-25782463D01*
X37483321Y-25597083D01*
X37482284Y-25562575D01*
X37479174Y-25529394D01*
X37473990Y-25497540D01*
X37466732Y-25467012D01*
X37457400Y-25437811D01*
X37445995Y-25409936D01*
X37432516Y-25383388D01*
X37416963Y-25358167D01*
X37399337Y-25334273D01*
X37379637Y-25311705D01*
X37365352Y-25297397D01*
X37342282Y-25277231D01*
X37317035Y-25259049D01*
X37289611Y-25242850D01*
X37260011Y-25228635D01*
X37228234Y-25216403D01*
X37194280Y-25206155D01*
X37158149Y-25197890D01*
X37119842Y-25191609D01*
X37079358Y-25187311D01*
X37036697Y-25184997D01*
X37007048Y-25184556D01*
X36974257Y-25184878D01*
X36941557Y-25185844D01*
X36908947Y-25187454D01*
X36876427Y-25189708D01*
X36843998Y-25192606D01*
X36811658Y-25196148D01*
X36779409Y-25200334D01*
X36747250Y-25205164D01*
X36715181Y-25210638D01*
X36683202Y-25216756D01*
X36661933Y-25221193D01*
X36629956Y-25228333D01*
X36597773Y-25236013D01*
X36565384Y-25244235D01*
X36532789Y-25252998D01*
X36499988Y-25262301D01*
X36466981Y-25272146D01*
X36433768Y-25282532D01*
X36400348Y-25293458D01*
X36366723Y-25304926D01*
X36332892Y-25316934D01*
X36310223Y-25325240D01*
X36310223Y-24996978D01*
X36340772Y-24987396D01*
X36372794Y-24977884D01*
X36401413Y-24969787D01*
X36431114Y-24961741D01*
X36461898Y-24953747D01*
X36493531Y-24945959D01*
X36525782Y-24938531D01*
X36558652Y-24931464D01*
X36592140Y-24924758D01*
X36626246Y-24918413D01*
X36637752Y-24916378D01*
X36667029Y-24911290D01*
X36696700Y-24906560D01*
X36726764Y-24902188D01*
X36757222Y-24898174D01*
X36788073Y-24894518D01*
X36819317Y-24891219D01*
X36831926Y-24890000D01*
X36863560Y-24887044D01*
X36895266Y-24884590D01*
X36927044Y-24882636D01*
X36958894Y-24881184D01*
X36990815Y-24880232D01*
X37022807Y-24879781D01*
X37035624Y-24879741D01*
X37070467Y-24880108D01*
G37*
G36*
X40150453Y-26990000D02*
G01*
X39828785Y-26990000D01*
X39816329Y-26603119D01*
X39797455Y-26630330D01*
X39778387Y-26656642D01*
X39759125Y-26682056D01*
X39739667Y-26706571D01*
X39720015Y-26730187D01*
X39700169Y-26752905D01*
X39680127Y-26774723D01*
X39649700Y-26805766D01*
X39618836Y-26834787D01*
X39587533Y-26861786D01*
X39555792Y-26886762D01*
X39523614Y-26909716D01*
X39490997Y-26930648D01*
X39457904Y-26949636D01*
X39424296Y-26966755D01*
X39390173Y-26982007D01*
X39355534Y-26995392D01*
X39320380Y-27006909D01*
X39284711Y-27016558D01*
X39248527Y-27024340D01*
X39211828Y-27030254D01*
X39174613Y-27034300D01*
X39136883Y-27036479D01*
X39111444Y-27036894D01*
X39078570Y-27036237D01*
X39046443Y-27034267D01*
X39015063Y-27030982D01*
X38984430Y-27026384D01*
X38954544Y-27020472D01*
X38925405Y-27013246D01*
X38897014Y-27004707D01*
X38869369Y-26994854D01*
X38833671Y-26979673D01*
X38799302Y-26962156D01*
X38766295Y-26942338D01*
X38734684Y-26920619D01*
X38704471Y-26897000D01*
X38675654Y-26871481D01*
X38648234Y-26844061D01*
X38628585Y-26822248D01*
X38609722Y-26799367D01*
X38591645Y-26775417D01*
X38574354Y-26750397D01*
X38557979Y-26724223D01*
X38542377Y-26697083D01*
X38527548Y-26668976D01*
X38513492Y-26639904D01*
X38500208Y-26609866D01*
X38487697Y-26578862D01*
X38475959Y-26546891D01*
X38464994Y-26513955D01*
X38454802Y-26480053D01*
X38445382Y-26445184D01*
X38439532Y-26421402D01*
X38431544Y-26385040D01*
X38424342Y-26347943D01*
X38417926Y-26310113D01*
X38412295Y-26271548D01*
X38407450Y-26232249D01*
X38403391Y-26192216D01*
X38400117Y-26151448D01*
X38397629Y-26109947D01*
X38395927Y-26067711D01*
X38395010Y-26024741D01*
X38394836Y-25995687D01*
X38395034Y-25972240D01*
X38761200Y-25972240D01*
X38761629Y-26019380D01*
X38762917Y-26064998D01*
X38765064Y-26109094D01*
X38768069Y-26151666D01*
X38771933Y-26192716D01*
X38776656Y-26232244D01*
X38782237Y-26270248D01*
X38788677Y-26306730D01*
X38795976Y-26341689D01*
X38804133Y-26375126D01*
X38813149Y-26407040D01*
X38823024Y-26437431D01*
X38833757Y-26466299D01*
X38845349Y-26493645D01*
X38864347Y-26531808D01*
X38871109Y-26543768D01*
X38892659Y-26577421D01*
X38915820Y-26607764D01*
X38940590Y-26634797D01*
X38966971Y-26658520D01*
X38994961Y-26678933D01*
X39024561Y-26696035D01*
X39055772Y-26709827D01*
X39088592Y-26720310D01*
X39123022Y-26727482D01*
X39159063Y-26731343D01*
X39183984Y-26732079D01*
X39218125Y-26730144D01*
X39252769Y-26724340D01*
X39287917Y-26714665D01*
X39323569Y-26701121D01*
X39350638Y-26688424D01*
X39377991Y-26673549D01*
X39405627Y-26656499D01*
X39433547Y-26637271D01*
X39461750Y-26615866D01*
X39471214Y-26608248D01*
X39499788Y-26583842D01*
X39528633Y-26557338D01*
X39557748Y-26528733D01*
X39587134Y-26498030D01*
X39616790Y-26465226D01*
X39636711Y-26442191D01*
X39656752Y-26418223D01*
X39676914Y-26393322D01*
X39697195Y-26367487D01*
X39717597Y-26340720D01*
X39738119Y-26313019D01*
X39758762Y-26284385D01*
X39779524Y-26254819D01*
X39789951Y-26239685D01*
X39789951Y-25259295D01*
X39761779Y-25246515D01*
X39732678Y-25234737D01*
X39702646Y-25223961D01*
X39671684Y-25214186D01*
X39639791Y-25205413D01*
X39606969Y-25197642D01*
X39593579Y-25194815D01*
X39560202Y-25188482D01*
X39526933Y-25183223D01*
X39493770Y-25179037D01*
X39460715Y-25175924D01*
X39427767Y-25173885D01*
X39394927Y-25172919D01*
X39381821Y-25172833D01*
X39345688Y-25173588D01*
X39310563Y-25175855D01*
X39276445Y-25179633D01*
X39243335Y-25184923D01*
X39211232Y-25191723D01*
X39180137Y-25200035D01*
X39150050Y-25209858D01*
X39120969Y-25221193D01*
X39092897Y-25234038D01*
X39065832Y-25248395D01*
X39039774Y-25264264D01*
X39014724Y-25281643D01*
X38990681Y-25300534D01*
X38967646Y-25320935D01*
X38945618Y-25342849D01*
X38924598Y-25366273D01*
X38904812Y-25391309D01*
X38886302Y-25418056D01*
X38869068Y-25446515D01*
X38853111Y-25476686D01*
X38838431Y-25508568D01*
X38825027Y-25542162D01*
X38812900Y-25577468D01*
X38802049Y-25614485D01*
X38792475Y-25653214D01*
X38784178Y-25693654D01*
X38777157Y-25735806D01*
X38771412Y-25779669D01*
X38766944Y-25825244D01*
X38763753Y-25872531D01*
X38761838Y-25921530D01*
X38761200Y-25972240D01*
X38395034Y-25972240D01*
X38395116Y-25962580D01*
X38395957Y-25929936D01*
X38397360Y-25897756D01*
X38399323Y-25866040D01*
X38401848Y-25834787D01*
X38404933Y-25803998D01*
X38408580Y-25773673D01*
X38412787Y-25743811D01*
X38417556Y-25714414D01*
X38422885Y-25685479D01*
X38431931Y-25642947D01*
X38442240Y-25601459D01*
X38453810Y-25561014D01*
X38466643Y-25521612D01*
X38480641Y-25483167D01*
X38495709Y-25445869D01*
X38511845Y-25409717D01*
X38529051Y-25374711D01*
X38547325Y-25340852D01*
X38566669Y-25308138D01*
X38587082Y-25276572D01*
X38608563Y-25246151D01*
X38631114Y-25216877D01*
X38654734Y-25188750D01*
X38671074Y-25170635D01*
X38696542Y-25144450D01*
X38722938Y-25119475D01*
X38750260Y-25095712D01*
X38778510Y-25073159D01*
X38807688Y-25051817D01*
X38837793Y-25031685D01*
X38868825Y-25012764D01*
X38900785Y-24995054D01*
X38933671Y-24978555D01*
X38967486Y-24963267D01*
X38990544Y-24953747D01*
X39025951Y-24940521D01*
X39062105Y-24928597D01*
X39099006Y-24917973D01*
X39136654Y-24908650D01*
X39175050Y-24900628D01*
X39214192Y-24893906D01*
X39254081Y-24888486D01*
X39294718Y-24884367D01*
X39336101Y-24881548D01*
X39378232Y-24880030D01*
X39406734Y-24879741D01*
X39437556Y-24880045D01*
X39468200Y-24880958D01*
X39498665Y-24882478D01*
X39528950Y-24884607D01*
X39559057Y-24887344D01*
X39588986Y-24890689D01*
X39600907Y-24892198D01*
X39630831Y-24896448D01*
X39660613Y-24901414D01*
X39690251Y-24907096D01*
X39719746Y-24913493D01*
X39749098Y-24920605D01*
X39778307Y-24928433D01*
X39789951Y-24931765D01*
X39789951Y-24082533D01*
X40150453Y-24082533D01*
X40150453Y-26990000D01*
G37*
G36*
X42444626Y-26431660D02*
G01*
X42443714Y-26465452D01*
X42440977Y-26498135D01*
X42436415Y-26529709D01*
X42430029Y-26560174D01*
X42421818Y-26589530D01*
X42411782Y-26617776D01*
X42407257Y-26628764D01*
X42392539Y-26660518D01*
X42375864Y-26690932D01*
X42357231Y-26720006D01*
X42336640Y-26747741D01*
X42314092Y-26774137D01*
X42306140Y-26782637D01*
X42281514Y-26807221D01*
X42255445Y-26830414D01*
X42227933Y-26852215D01*
X42203905Y-26869320D01*
X42178875Y-26885460D01*
X42158129Y-26897676D01*
X42131511Y-26912166D01*
X42104320Y-26925869D01*
X42076556Y-26938784D01*
X42048220Y-26950913D01*
X42019312Y-26962255D01*
X41989831Y-26972809D01*
X41977878Y-26976810D01*
X41947757Y-26986034D01*
X41917385Y-26994470D01*
X41886763Y-27002120D01*
X41855890Y-27008982D01*
X41824767Y-27015057D01*
X41793394Y-27020345D01*
X41780774Y-27022240D01*
X41749476Y-27026461D01*
X41718320Y-27029968D01*
X41687308Y-27032758D01*
X41656439Y-27034833D01*
X41625713Y-27036193D01*
X41595130Y-27036837D01*
X41582937Y-27036894D01*
X41543810Y-27036727D01*
X41505288Y-27036224D01*
X41467372Y-27035387D01*
X41430060Y-27034215D01*
X41393355Y-27032708D01*
X41357254Y-27030866D01*
X41321759Y-27028690D01*
X41286869Y-27026178D01*
X41252585Y-27023331D01*
X41218906Y-27020150D01*
X41196789Y-27017843D01*
X41163875Y-27014202D01*
X41131076Y-27010150D01*
X41098393Y-27005684D01*
X41065826Y-27000807D01*
X41033375Y-26995518D01*
X41001039Y-26989816D01*
X40968820Y-26983703D01*
X40936717Y-26977177D01*
X40904729Y-26970239D01*
X40872858Y-26962889D01*
X40851674Y-26957759D01*
X40851674Y-26627299D01*
X40885596Y-26636703D01*
X40919492Y-26645683D01*
X40953362Y-26654237D01*
X40987206Y-26662367D01*
X41021025Y-26670071D01*
X41054818Y-26677351D01*
X41088585Y-26684205D01*
X41122326Y-26690634D01*
X41156041Y-26696638D01*
X41189731Y-26702218D01*
X41212177Y-26705701D01*
X41245817Y-26710415D01*
X41279419Y-26714665D01*
X41312982Y-26718452D01*
X41346507Y-26721775D01*
X41379992Y-26724634D01*
X41413440Y-26727030D01*
X41446848Y-26728962D01*
X41480218Y-26730430D01*
X41513549Y-26731435D01*
X41546842Y-26731976D01*
X41569016Y-26732079D01*
X41600643Y-26731804D01*
X41631229Y-26730980D01*
X41660773Y-26729606D01*
X41703135Y-26726515D01*
X41743153Y-26722187D01*
X41780827Y-26716623D01*
X41816157Y-26709822D01*
X41849143Y-26701785D01*
X41879784Y-26692512D01*
X41908081Y-26682002D01*
X41942165Y-26666065D01*
X41950034Y-26661737D01*
X41979057Y-26643041D01*
X42004211Y-26622490D01*
X42025494Y-26600085D01*
X42042908Y-26575825D01*
X42056452Y-26549710D01*
X42066126Y-26521740D01*
X42071931Y-26491916D01*
X42073866Y-26460237D01*
X42072301Y-26429782D01*
X42066891Y-26397983D01*
X42057617Y-26368330D01*
X42054082Y-26359853D01*
X42038640Y-26332347D01*
X42019481Y-26308326D01*
X41998266Y-26287558D01*
X41983007Y-26274856D01*
X41957833Y-26256799D01*
X41931901Y-26241155D01*
X41901951Y-26225355D01*
X41873922Y-26212071D01*
X41843103Y-26198679D01*
X41823272Y-26190593D01*
X41794925Y-26179579D01*
X41764105Y-26168153D01*
X41730811Y-26156315D01*
X41695045Y-26144064D01*
X41666597Y-26134606D01*
X41636759Y-26124916D01*
X41605529Y-26114994D01*
X41572908Y-26104841D01*
X41538896Y-26094455D01*
X41527250Y-26090942D01*
X41492594Y-26080500D01*
X41458603Y-26069692D01*
X41425275Y-26058518D01*
X41392611Y-26046978D01*
X41360612Y-26035071D01*
X41329276Y-26022798D01*
X41298604Y-26010158D01*
X41268597Y-25997152D01*
X41239585Y-25983482D01*
X41211536Y-25969217D01*
X41184448Y-25954356D01*
X41158321Y-25938900D01*
X41133157Y-25922849D01*
X41108954Y-25906202D01*
X41080052Y-25884557D01*
X41063433Y-25871123D01*
X41037308Y-25847846D01*
X41012972Y-25823353D01*
X40990425Y-25797643D01*
X40969667Y-25770716D01*
X40950697Y-25742574D01*
X40933517Y-25713214D01*
X40927145Y-25701130D01*
X40913002Y-25669817D01*
X40901257Y-25636787D01*
X40891908Y-25602040D01*
X40886155Y-25573006D01*
X40881936Y-25542872D01*
X40879251Y-25511640D01*
X40878100Y-25479308D01*
X40878053Y-25471053D01*
X40879469Y-25437789D01*
X40883720Y-25403390D01*
X40889426Y-25373859D01*
X40897101Y-25343541D01*
X40906743Y-25312436D01*
X40918353Y-25280544D01*
X40932324Y-25248387D01*
X40949050Y-25216945D01*
X40968531Y-25186219D01*
X40986099Y-25162154D01*
X41005431Y-25138546D01*
X41026525Y-25115397D01*
X41049383Y-25092705D01*
X41055373Y-25087103D01*
X41080789Y-25065236D01*
X41108312Y-25044330D01*
X41137942Y-25024386D01*
X41169678Y-25005404D01*
X41203521Y-24987384D01*
X41230286Y-24974499D01*
X41258236Y-24962156D01*
X41287370Y-24950354D01*
X41317690Y-24939092D01*
X41349323Y-24928486D01*
X41382399Y-24918922D01*
X41416917Y-24910402D01*
X41452878Y-24902925D01*
X41490282Y-24896492D01*
X41529128Y-24891101D01*
X41569416Y-24886754D01*
X41611147Y-24883451D01*
X41654321Y-24881190D01*
X41683905Y-24880263D01*
X41714130Y-24879799D01*
X41729483Y-24879741D01*
X41760303Y-24879959D01*
X41791948Y-24880611D01*
X41824417Y-24881699D01*
X41857711Y-24883222D01*
X41891828Y-24885180D01*
X41926770Y-24887572D01*
X41962537Y-24890400D01*
X41999127Y-24893663D01*
X42036496Y-24897281D01*
X42074232Y-24901540D01*
X42112334Y-24906440D01*
X42150802Y-24911981D01*
X42179894Y-24916558D01*
X42209191Y-24921495D01*
X42238695Y-24926793D01*
X42268405Y-24932452D01*
X42298321Y-24938471D01*
X42308339Y-24940558D01*
X42308339Y-25265157D01*
X42276888Y-25257650D01*
X42245733Y-25250516D01*
X42214875Y-25243756D01*
X42184313Y-25237370D01*
X42154047Y-25231357D01*
X42124077Y-25225718D01*
X42094404Y-25220452D01*
X42065027Y-25215560D01*
X42035946Y-25211041D01*
X41997632Y-25205597D01*
X41988136Y-25204340D01*
X41950847Y-25199703D01*
X41914818Y-25195685D01*
X41880047Y-25192284D01*
X41846536Y-25189502D01*
X41814285Y-25187338D01*
X41783293Y-25185793D01*
X41753560Y-25184865D01*
X41725087Y-25184556D01*
X41692389Y-25184877D01*
X41660973Y-25185839D01*
X41630840Y-25187441D01*
X41594976Y-25190347D01*
X41561116Y-25194254D01*
X41529259Y-25199162D01*
X41499406Y-25205073D01*
X41466296Y-25213307D01*
X41435659Y-25222624D01*
X41407495Y-25233022D01*
X41377762Y-25246521D01*
X41351395Y-25261493D01*
X41325154Y-25279903D01*
X41302852Y-25299961D01*
X41282469Y-25324498D01*
X41270062Y-25345024D01*
X41258020Y-25372748D01*
X41249918Y-25401516D01*
X41245758Y-25431326D01*
X41245150Y-25448339D01*
X41246830Y-25478909D01*
X41251873Y-25507973D01*
X41261418Y-25538499D01*
X41266399Y-25550188D01*
X41281661Y-25575510D01*
X41302720Y-25600368D01*
X41326305Y-25622075D01*
X41346999Y-25638115D01*
X41374853Y-25656708D01*
X41402245Y-25672645D01*
X41432882Y-25688582D01*
X41460892Y-25701863D01*
X41491157Y-25715143D01*
X41510397Y-25723112D01*
X41537772Y-25733851D01*
X41567138Y-25744819D01*
X41598496Y-25756016D01*
X41631847Y-25767442D01*
X41667190Y-25779097D01*
X41704525Y-25790981D01*
X41733833Y-25800044D01*
X41764262Y-25809236D01*
X41785170Y-25815436D01*
X41819008Y-25825647D01*
X41851829Y-25835949D01*
X41883632Y-25846341D01*
X41914417Y-25856823D01*
X41944185Y-25867396D01*
X41972935Y-25878058D01*
X42000668Y-25888811D01*
X42036062Y-25903288D01*
X42069647Y-25917925D01*
X42093649Y-25929009D01*
X42124412Y-25943881D01*
X42153687Y-25959188D01*
X42181474Y-25974930D01*
X42207772Y-25991107D01*
X42232581Y-26007720D01*
X42261501Y-26029097D01*
X42288094Y-26051154D01*
X42298080Y-26060167D01*
X42321490Y-26083301D01*
X42342717Y-26107365D01*
X42361761Y-26132359D01*
X42378623Y-26158284D01*
X42393303Y-26185139D01*
X42405800Y-26212924D01*
X42410188Y-26224298D01*
X42420109Y-26253318D01*
X42428349Y-26283589D01*
X42434907Y-26315113D01*
X42439783Y-26347889D01*
X42442978Y-26381917D01*
X42444492Y-26417198D01*
X42444626Y-26431660D01*
G37*
G36*
X44776168Y-26990000D02*
G01*
X44417131Y-26990000D01*
X44417131Y-25663028D01*
X44416782Y-25633461D01*
X44414949Y-25590893D01*
X44411544Y-25550463D01*
X44406568Y-25512170D01*
X44400021Y-25476016D01*
X44391902Y-25442000D01*
X44382212Y-25410122D01*
X44370951Y-25380382D01*
X44358118Y-25352781D01*
X44338563Y-25319304D01*
X44327739Y-25303991D01*
X44304177Y-25275999D01*
X44278188Y-25251738D01*
X44249772Y-25231211D01*
X44218928Y-25214415D01*
X44185658Y-25201352D01*
X44149960Y-25192021D01*
X44111835Y-25186423D01*
X44081649Y-25184673D01*
X44071284Y-25184556D01*
X44040003Y-25185503D01*
X44009634Y-25188343D01*
X43980177Y-25193076D01*
X43947628Y-25200804D01*
X43935729Y-25204340D01*
X43904221Y-25216018D01*
X43876051Y-25229166D01*
X43847320Y-25245049D01*
X43822247Y-25260840D01*
X43805303Y-25272484D01*
X43779311Y-25291855D01*
X43752444Y-25313700D01*
X43729385Y-25333793D01*
X43705718Y-25355603D01*
X43681443Y-25379130D01*
X43656559Y-25404375D01*
X43636192Y-25425716D01*
X43615023Y-25448339D01*
X43593052Y-25472244D01*
X43570280Y-25497431D01*
X43546707Y-25523901D01*
X43522332Y-25551653D01*
X43497156Y-25580688D01*
X43477748Y-25603305D01*
X43471179Y-25611004D01*
X43471179Y-26990000D01*
X43112875Y-26990000D01*
X43112875Y-24082533D01*
X43471179Y-24082533D01*
X43471179Y-24920041D01*
X43459455Y-25243175D01*
X43480475Y-25218399D01*
X43501404Y-25194631D01*
X43522241Y-25171871D01*
X43542986Y-25150118D01*
X43568789Y-25124344D01*
X43594449Y-25100144D01*
X43619966Y-25077518D01*
X43625052Y-25073182D01*
X43650468Y-25052073D01*
X43675885Y-25032252D01*
X43701301Y-25013719D01*
X43726718Y-24996474D01*
X43752134Y-24980517D01*
X43777551Y-24965848D01*
X43787718Y-24960341D01*
X43818320Y-24945006D01*
X43849129Y-24931422D01*
X43880144Y-24919589D01*
X43911366Y-24909508D01*
X43942793Y-24901179D01*
X43953314Y-24898792D01*
X43985394Y-24892318D01*
X44017886Y-24887183D01*
X44050790Y-24883388D01*
X44084106Y-24880932D01*
X44117835Y-24879816D01*
X44129169Y-24879741D01*
X44167185Y-24880480D01*
X44204113Y-24882695D01*
X44239954Y-24886387D01*
X44274707Y-24891557D01*
X44308373Y-24898203D01*
X44340951Y-24906326D01*
X44372441Y-24915925D01*
X44402843Y-24927002D01*
X44432158Y-24939556D01*
X44460385Y-24953587D01*
X44487525Y-24969094D01*
X44513577Y-24986079D01*
X44538541Y-25004540D01*
X44562418Y-25024478D01*
X44585207Y-25045893D01*
X44606908Y-25068785D01*
X44627404Y-25093160D01*
X44646578Y-25119023D01*
X44664430Y-25146374D01*
X44680959Y-25175214D01*
X44696166Y-25205542D01*
X44710051Y-25237359D01*
X44722613Y-25270663D01*
X44733853Y-25305457D01*
X44743771Y-25341738D01*
X44752366Y-25379508D01*
X44759639Y-25418766D01*
X44765590Y-25459513D01*
X44770218Y-25501748D01*
X44773524Y-25545471D01*
X44775507Y-25590683D01*
X44776168Y-25637383D01*
X44776168Y-26990000D01*
G37*
G36*
X46296984Y-24880108D02*
G01*
X46331170Y-24881210D01*
X46364699Y-24883045D01*
X46397571Y-24885615D01*
X46429786Y-24888918D01*
X46461344Y-24892956D01*
X46492245Y-24897728D01*
X46522489Y-24903234D01*
X46552077Y-24909475D01*
X46581008Y-24916449D01*
X46599930Y-24921507D01*
X46636933Y-24932452D01*
X46672470Y-24944771D01*
X46706542Y-24958464D01*
X46739148Y-24973531D01*
X46770289Y-24989971D01*
X46799965Y-25007786D01*
X46828175Y-25026974D01*
X46854919Y-25047536D01*
X46880175Y-25069289D01*
X46903920Y-25092416D01*
X46926154Y-25116916D01*
X46946877Y-25142791D01*
X46966088Y-25170039D01*
X46983788Y-25198661D01*
X46999977Y-25228657D01*
X47014654Y-25260027D01*
X47027706Y-25292622D01*
X47039017Y-25326660D01*
X47048589Y-25362140D01*
X47056420Y-25399063D01*
X47062510Y-25437428D01*
X47065936Y-25467148D01*
X47068384Y-25497680D01*
X47069852Y-25529024D01*
X47070341Y-25561179D01*
X47070341Y-26990000D01*
X46748674Y-26990000D01*
X46740614Y-26713028D01*
X46719436Y-26734088D01*
X46698218Y-26754404D01*
X46666317Y-26783483D01*
X46634325Y-26810887D01*
X46602243Y-26836617D01*
X46570071Y-26860673D01*
X46537809Y-26883054D01*
X46505456Y-26903761D01*
X46473014Y-26922793D01*
X46440481Y-26940151D01*
X46407858Y-26955835D01*
X46396964Y-26960690D01*
X46364242Y-26974309D01*
X46331199Y-26986588D01*
X46297833Y-26997527D01*
X46264145Y-27007127D01*
X46230136Y-27015387D01*
X46195804Y-27022308D01*
X46161151Y-27027890D01*
X46126175Y-27032131D01*
X46090877Y-27035034D01*
X46055258Y-27036596D01*
X46031332Y-27036894D01*
X45998536Y-27036495D01*
X45966640Y-27035297D01*
X45935647Y-27033301D01*
X45905555Y-27030506D01*
X45876365Y-27026912D01*
X45838847Y-27020879D01*
X45802931Y-27013425D01*
X45768619Y-27004552D01*
X45735910Y-26994260D01*
X45727983Y-26991465D01*
X45697346Y-26979581D01*
X45668082Y-26966644D01*
X45640193Y-26952653D01*
X45613677Y-26937609D01*
X45588535Y-26921512D01*
X45564767Y-26904362D01*
X45536990Y-26881443D01*
X45521353Y-26866901D01*
X45496992Y-26841281D01*
X45474742Y-26814336D01*
X45454603Y-26786068D01*
X45436574Y-26756477D01*
X45420657Y-26725561D01*
X45406850Y-26693322D01*
X45401919Y-26680055D01*
X45390942Y-26645966D01*
X45381826Y-26611019D01*
X45374570Y-26575212D01*
X45370105Y-26545949D01*
X45366831Y-26516136D01*
X45364747Y-26485773D01*
X45363854Y-26454862D01*
X45363817Y-26447048D01*
X45364230Y-26429462D01*
X45743370Y-26429462D01*
X45744515Y-26458863D01*
X45748540Y-26491282D01*
X45755463Y-26523005D01*
X45761688Y-26543768D01*
X45773789Y-26573340D01*
X45789483Y-26601058D01*
X45808771Y-26626921D01*
X45821039Y-26640488D01*
X45843433Y-26660638D01*
X45868850Y-26678590D01*
X45897289Y-26694344D01*
X45924652Y-26706325D01*
X45928750Y-26707899D01*
X45958969Y-26717321D01*
X45991922Y-26724428D01*
X46022345Y-26728679D01*
X46054777Y-26731229D01*
X46089218Y-26732079D01*
X46120737Y-26730911D01*
X46153377Y-26727408D01*
X46187140Y-26721569D01*
X46222025Y-26713394D01*
X46258032Y-26702884D01*
X46295160Y-26690039D01*
X46323743Y-26678872D01*
X46352957Y-26666391D01*
X46372784Y-26657341D01*
X46402889Y-26642424D01*
X46433303Y-26625974D01*
X46464026Y-26607991D01*
X46495058Y-26588476D01*
X46526399Y-26567428D01*
X46558050Y-26544847D01*
X46590009Y-26520733D01*
X46622278Y-26495087D01*
X46654856Y-26467908D01*
X46687743Y-26439197D01*
X46709839Y-26419204D01*
X46709839Y-26052107D01*
X46254082Y-26052107D01*
X46221143Y-26052531D01*
X46189373Y-26053801D01*
X46158770Y-26055919D01*
X46129335Y-26058885D01*
X46094183Y-26063783D01*
X46060856Y-26070004D01*
X46029354Y-26077550D01*
X46023272Y-26079218D01*
X45993888Y-26088034D01*
X45966185Y-26097994D01*
X45935162Y-26111458D01*
X45906560Y-26126571D01*
X45880379Y-26143332D01*
X45864270Y-26155422D01*
X45838850Y-26177882D01*
X45816445Y-26202305D01*
X45797056Y-26228692D01*
X45780682Y-26257042D01*
X45772679Y-26274124D01*
X45761259Y-26305099D01*
X45752644Y-26337757D01*
X45747492Y-26367089D01*
X45744400Y-26397657D01*
X45743370Y-26429462D01*
X45364230Y-26429462D01*
X45364721Y-26408562D01*
X45367435Y-26371142D01*
X45371957Y-26334786D01*
X45378288Y-26299494D01*
X45386428Y-26265268D01*
X45396377Y-26232106D01*
X45408135Y-26200009D01*
X45421702Y-26168977D01*
X45437078Y-26139010D01*
X45454263Y-26110107D01*
X45473257Y-26082269D01*
X45494059Y-26055496D01*
X45516671Y-26029787D01*
X45541091Y-26005144D01*
X45567321Y-25981565D01*
X45595359Y-25959050D01*
X45625258Y-25937667D01*
X45656885Y-25917663D01*
X45690242Y-25899038D01*
X45725327Y-25881793D01*
X45762140Y-25865928D01*
X45800683Y-25851442D01*
X45840955Y-25838336D01*
X45882955Y-25826610D01*
X45926684Y-25816263D01*
X45972142Y-25807295D01*
X46019328Y-25799708D01*
X46068244Y-25793500D01*
X46118888Y-25788671D01*
X46171261Y-25785222D01*
X46225362Y-25783153D01*
X46281193Y-25782463D01*
X46709839Y-25782463D01*
X46709839Y-25597083D01*
X46708802Y-25562575D01*
X46705692Y-25529394D01*
X46700507Y-25497540D01*
X46693250Y-25467012D01*
X46683918Y-25437811D01*
X46672513Y-25409936D01*
X46659034Y-25383388D01*
X46643481Y-25358167D01*
X46625855Y-25334273D01*
X46606155Y-25311705D01*
X46591870Y-25297397D01*
X46568799Y-25277231D01*
X46543553Y-25259049D01*
X46516129Y-25242850D01*
X46486529Y-25228635D01*
X46454751Y-25216403D01*
X46420798Y-25206155D01*
X46384667Y-25197890D01*
X46346360Y-25191609D01*
X46305876Y-25187311D01*
X46263215Y-25184997D01*
X46233565Y-25184556D01*
X46200775Y-25184878D01*
X46168075Y-25185844D01*
X46135465Y-25187454D01*
X46102945Y-25189708D01*
X46070515Y-25192606D01*
X46038176Y-25196148D01*
X46005927Y-25200334D01*
X45973767Y-25205164D01*
X45941698Y-25210638D01*
X45909719Y-25216756D01*
X45888450Y-25221193D01*
X45856474Y-25228333D01*
X45824291Y-25236013D01*
X45791902Y-25244235D01*
X45759307Y-25252998D01*
X45726506Y-25262301D01*
X45693499Y-25272146D01*
X45660286Y-25282532D01*
X45626866Y-25293458D01*
X45593241Y-25304926D01*
X45559409Y-25316934D01*
X45536741Y-25325240D01*
X45536741Y-24996978D01*
X45567290Y-24987396D01*
X45599312Y-24977884D01*
X45627931Y-24969787D01*
X45657632Y-24961741D01*
X45688415Y-24953747D01*
X45720049Y-24945959D01*
X45752300Y-24938531D01*
X45785170Y-24931464D01*
X45818658Y-24924758D01*
X45852764Y-24918413D01*
X45864270Y-24916378D01*
X45893547Y-24911290D01*
X45923218Y-24906560D01*
X45953282Y-24902188D01*
X45983739Y-24898174D01*
X46014591Y-24894518D01*
X46045835Y-24891219D01*
X46058443Y-24890000D01*
X46090078Y-24887044D01*
X46121784Y-24884590D01*
X46153562Y-24882636D01*
X46185411Y-24881184D01*
X46217332Y-24880232D01*
X46249325Y-24879781D01*
X46262142Y-24879741D01*
X46296984Y-24880108D01*
G37*
G36*
X49642951Y-24926636D02*
G01*
X49341800Y-26990000D01*
X48907292Y-26990000D01*
X48608339Y-26128311D01*
X48548255Y-25918750D01*
X48480111Y-26140034D01*
X48193614Y-26990000D01*
X47771563Y-26990000D01*
X47472609Y-24926636D01*
X47822854Y-24926636D01*
X47995778Y-26329078D01*
X48033147Y-26641221D01*
X48121807Y-26367913D01*
X48422958Y-25442477D01*
X48680146Y-25442477D01*
X49004012Y-26355457D01*
X49096336Y-26628764D01*
X49127843Y-26339337D01*
X49288311Y-24926636D01*
X49642951Y-24926636D01*
G37*
G36*
X52984193Y-24621821D02*
G01*
X52364305Y-24621821D01*
X52364305Y-24317006D01*
X53975575Y-24317006D01*
X53975575Y-24621821D01*
X53355687Y-24621821D01*
X53355687Y-26673461D01*
X53975575Y-26673461D01*
X53975575Y-26990000D01*
X52364305Y-26990000D01*
X52364305Y-26673461D01*
X52984193Y-26673461D01*
X52984193Y-24621821D01*
G37*
G36*
X54646022Y-24926636D02*
G01*
X54965491Y-24926636D01*
X54980146Y-25259295D01*
X55002586Y-25232401D01*
X55024842Y-25206676D01*
X55046916Y-25182118D01*
X55068806Y-25158728D01*
X55090513Y-25136505D01*
X55112037Y-25115451D01*
X55138684Y-25090775D01*
X55154535Y-25076845D01*
X55181007Y-25054874D01*
X55207300Y-25034298D01*
X55233415Y-25015118D01*
X55259350Y-24997333D01*
X55285106Y-24980943D01*
X55310684Y-24965949D01*
X55320865Y-24960341D01*
X55351468Y-24944533D01*
X55382277Y-24930632D01*
X55413292Y-24918636D01*
X55444513Y-24908547D01*
X55475940Y-24900364D01*
X55486461Y-24898060D01*
X55518541Y-24891834D01*
X55551033Y-24886897D01*
X55583937Y-24883248D01*
X55617254Y-24880886D01*
X55650982Y-24879813D01*
X55662316Y-24879741D01*
X55701640Y-24880480D01*
X55739745Y-24882695D01*
X55776631Y-24886387D01*
X55812297Y-24891557D01*
X55846744Y-24898203D01*
X55879971Y-24906326D01*
X55911979Y-24915925D01*
X55942768Y-24927002D01*
X55972338Y-24939556D01*
X56000688Y-24953587D01*
X56027819Y-24969094D01*
X56053731Y-24986079D01*
X56078423Y-25004540D01*
X56101896Y-25024478D01*
X56124150Y-25045893D01*
X56145184Y-25068785D01*
X56165060Y-25093160D01*
X56183653Y-25119023D01*
X56200963Y-25146374D01*
X56216992Y-25175214D01*
X56231738Y-25205542D01*
X56245202Y-25237359D01*
X56257383Y-25270663D01*
X56268283Y-25305457D01*
X56277900Y-25341738D01*
X56286235Y-25379508D01*
X56293287Y-25418766D01*
X56299057Y-25459513D01*
X56303545Y-25501748D01*
X56306751Y-25545471D01*
X56308674Y-25590683D01*
X56309316Y-25637383D01*
X56309316Y-26990000D01*
X55950279Y-26990000D01*
X55950279Y-25663028D01*
X55949924Y-25632938D01*
X55948060Y-25589680D01*
X55944600Y-25548677D01*
X55939542Y-25509927D01*
X55932888Y-25473432D01*
X55924636Y-25439190D01*
X55914787Y-25407203D01*
X55903341Y-25377469D01*
X55890298Y-25349990D01*
X55870423Y-25316857D01*
X55859420Y-25301793D01*
X55835492Y-25274316D01*
X55808770Y-25250502D01*
X55779255Y-25230352D01*
X55746946Y-25213866D01*
X55711844Y-25201043D01*
X55673948Y-25191884D01*
X55643693Y-25187419D01*
X55611867Y-25185014D01*
X55589776Y-25184556D01*
X55556987Y-25185793D01*
X55524563Y-25189502D01*
X55492506Y-25195685D01*
X55460816Y-25204340D01*
X55429309Y-25216018D01*
X55401139Y-25229166D01*
X55372408Y-25245049D01*
X55347335Y-25260840D01*
X55330390Y-25272484D01*
X55304424Y-25291855D01*
X55277634Y-25313700D01*
X55254679Y-25333793D01*
X55231151Y-25355603D01*
X55207051Y-25379130D01*
X55182379Y-25404375D01*
X55162286Y-25425716D01*
X55141575Y-25448339D01*
X55120246Y-25472244D01*
X55098299Y-25497431D01*
X55075733Y-25523901D01*
X55052549Y-25551653D01*
X55028747Y-25580688D01*
X55004326Y-25611004D01*
X55004326Y-26990000D01*
X54646022Y-26990000D01*
X54646022Y-24926636D01*
G37*
G36*
X58591032Y-26431660D02*
G01*
X58590120Y-26465452D01*
X58587383Y-26498135D01*
X58582821Y-26529709D01*
X58576435Y-26560174D01*
X58568224Y-26589530D01*
X58558188Y-26617776D01*
X58553663Y-26628764D01*
X58538946Y-26660518D01*
X58522270Y-26690932D01*
X58503637Y-26720006D01*
X58483046Y-26747741D01*
X58460498Y-26774137D01*
X58452547Y-26782637D01*
X58427920Y-26807221D01*
X58401851Y-26830414D01*
X58374339Y-26852215D01*
X58350311Y-26869320D01*
X58325281Y-26885460D01*
X58304535Y-26897676D01*
X58277917Y-26912166D01*
X58250726Y-26925869D01*
X58222962Y-26938784D01*
X58194626Y-26950913D01*
X58165718Y-26962255D01*
X58136237Y-26972809D01*
X58124284Y-26976810D01*
X58094163Y-26986034D01*
X58063791Y-26994470D01*
X58033169Y-27002120D01*
X58002296Y-27008982D01*
X57971173Y-27015057D01*
X57939800Y-27020345D01*
X57927180Y-27022240D01*
X57895882Y-27026461D01*
X57864727Y-27029968D01*
X57833714Y-27032758D01*
X57802845Y-27034833D01*
X57772119Y-27036193D01*
X57741537Y-27036837D01*
X57729344Y-27036894D01*
X57690216Y-27036727D01*
X57651694Y-27036224D01*
X57613778Y-27035387D01*
X57576467Y-27034215D01*
X57539761Y-27032708D01*
X57503660Y-27030866D01*
X57468165Y-27028690D01*
X57433275Y-27026178D01*
X57398991Y-27023331D01*
X57365312Y-27020150D01*
X57343196Y-27017843D01*
X57310281Y-27014202D01*
X57277482Y-27010150D01*
X57244799Y-27005684D01*
X57212232Y-27000807D01*
X57179781Y-26995518D01*
X57147445Y-26989816D01*
X57115226Y-26983703D01*
X57083123Y-26977177D01*
X57051135Y-26970239D01*
X57019264Y-26962889D01*
X56998080Y-26957759D01*
X56998080Y-26627299D01*
X57032002Y-26636703D01*
X57065898Y-26645683D01*
X57099768Y-26654237D01*
X57133612Y-26662367D01*
X57167431Y-26670071D01*
X57201224Y-26677351D01*
X57234991Y-26684205D01*
X57268732Y-26690634D01*
X57302448Y-26696638D01*
X57336137Y-26702218D01*
X57358583Y-26705701D01*
X57392223Y-26710415D01*
X57425825Y-26714665D01*
X57459388Y-26718452D01*
X57492913Y-26721775D01*
X57526398Y-26724634D01*
X57559846Y-26727030D01*
X57593254Y-26728962D01*
X57626624Y-26730430D01*
X57659955Y-26731435D01*
X57693248Y-26731976D01*
X57715422Y-26732079D01*
X57747049Y-26731804D01*
X57777635Y-26730980D01*
X57807179Y-26729606D01*
X57849541Y-26726515D01*
X57889559Y-26722187D01*
X57927233Y-26716623D01*
X57962563Y-26709822D01*
X57995549Y-26701785D01*
X58026190Y-26692512D01*
X58054488Y-26682002D01*
X58088571Y-26666065D01*
X58096441Y-26661737D01*
X58125463Y-26643041D01*
X58150617Y-26622490D01*
X58171900Y-26600085D01*
X58189314Y-26575825D01*
X58202858Y-26549710D01*
X58212532Y-26521740D01*
X58218337Y-26491916D01*
X58220272Y-26460237D01*
X58218707Y-26429782D01*
X58213297Y-26397983D01*
X58204024Y-26368330D01*
X58200488Y-26359853D01*
X58185046Y-26332347D01*
X58165887Y-26308326D01*
X58144673Y-26287558D01*
X58129413Y-26274856D01*
X58104239Y-26256799D01*
X58078307Y-26241155D01*
X58048357Y-26225355D01*
X58020328Y-26212071D01*
X57989509Y-26198679D01*
X57969678Y-26190593D01*
X57941331Y-26179579D01*
X57910511Y-26168153D01*
X57877217Y-26156315D01*
X57841451Y-26144064D01*
X57813003Y-26134606D01*
X57783165Y-26124916D01*
X57751935Y-26114994D01*
X57719314Y-26104841D01*
X57685303Y-26094455D01*
X57673656Y-26090942D01*
X57639000Y-26080500D01*
X57605009Y-26069692D01*
X57571681Y-26058518D01*
X57539017Y-26046978D01*
X57507018Y-26035071D01*
X57475682Y-26022798D01*
X57445011Y-26010158D01*
X57415003Y-25997152D01*
X57385992Y-25983482D01*
X57357942Y-25969217D01*
X57330854Y-25954356D01*
X57304727Y-25938900D01*
X57279563Y-25922849D01*
X57255360Y-25906202D01*
X57226458Y-25884557D01*
X57209839Y-25871123D01*
X57183714Y-25847846D01*
X57159378Y-25823353D01*
X57136831Y-25797643D01*
X57116073Y-25770716D01*
X57097103Y-25742574D01*
X57079923Y-25713214D01*
X57073551Y-25701130D01*
X57059409Y-25669817D01*
X57047663Y-25636787D01*
X57038314Y-25602040D01*
X57032561Y-25573006D01*
X57028342Y-25542872D01*
X57025657Y-25511640D01*
X57024507Y-25479308D01*
X57024459Y-25471053D01*
X57025875Y-25437789D01*
X57030126Y-25403390D01*
X57035832Y-25373859D01*
X57043507Y-25343541D01*
X57053149Y-25312436D01*
X57064759Y-25280544D01*
X57078730Y-25248387D01*
X57095456Y-25216945D01*
X57114937Y-25186219D01*
X57132505Y-25162154D01*
X57151837Y-25138546D01*
X57172931Y-25115397D01*
X57195789Y-25092705D01*
X57201779Y-25087103D01*
X57227196Y-25065236D01*
X57254719Y-25044330D01*
X57284348Y-25024386D01*
X57316085Y-25005404D01*
X57349928Y-24987384D01*
X57376692Y-24974499D01*
X57404642Y-24962156D01*
X57433776Y-24950354D01*
X57464096Y-24939092D01*
X57495729Y-24928486D01*
X57528805Y-24918922D01*
X57563323Y-24910402D01*
X57599284Y-24902925D01*
X57636688Y-24896492D01*
X57675534Y-24891101D01*
X57715822Y-24886754D01*
X57757554Y-24883451D01*
X57800727Y-24881190D01*
X57830311Y-24880263D01*
X57860536Y-24879799D01*
X57875889Y-24879741D01*
X57906710Y-24879959D01*
X57938354Y-24880611D01*
X57970823Y-24881699D01*
X58004117Y-24883222D01*
X58038234Y-24885180D01*
X58073176Y-24887572D01*
X58108943Y-24890400D01*
X58145533Y-24893663D01*
X58182903Y-24897281D01*
X58220638Y-24901540D01*
X58258740Y-24906440D01*
X58297208Y-24911981D01*
X58326300Y-24916558D01*
X58355597Y-24921495D01*
X58385101Y-24926793D01*
X58414811Y-24932452D01*
X58444727Y-24938471D01*
X58454745Y-24940558D01*
X58454745Y-25265157D01*
X58423294Y-25257650D01*
X58392139Y-25250516D01*
X58361281Y-25243756D01*
X58330719Y-25237370D01*
X58300453Y-25231357D01*
X58270484Y-25225718D01*
X58240810Y-25220452D01*
X58211433Y-25215560D01*
X58182352Y-25211041D01*
X58144039Y-25205597D01*
X58134542Y-25204340D01*
X58097253Y-25199703D01*
X58061224Y-25195685D01*
X58026454Y-25192284D01*
X57992943Y-25189502D01*
X57960691Y-25187338D01*
X57929699Y-25185793D01*
X57899966Y-25184865D01*
X57871493Y-25184556D01*
X57838795Y-25184877D01*
X57807379Y-25185839D01*
X57777246Y-25187441D01*
X57741382Y-25190347D01*
X57707522Y-25194254D01*
X57675665Y-25199162D01*
X57645812Y-25205073D01*
X57612702Y-25213307D01*
X57582065Y-25222624D01*
X57553901Y-25233022D01*
X57524168Y-25246521D01*
X57497801Y-25261493D01*
X57471560Y-25279903D01*
X57449258Y-25299961D01*
X57428875Y-25324498D01*
X57416468Y-25345024D01*
X57404426Y-25372748D01*
X57396324Y-25401516D01*
X57392164Y-25431326D01*
X57391556Y-25448339D01*
X57393237Y-25478909D01*
X57398279Y-25507973D01*
X57407825Y-25538499D01*
X57412805Y-25550188D01*
X57428068Y-25575510D01*
X57449126Y-25600368D01*
X57472711Y-25622075D01*
X57493405Y-25638115D01*
X57521259Y-25656708D01*
X57548651Y-25672645D01*
X57579288Y-25688582D01*
X57607298Y-25701863D01*
X57637563Y-25715143D01*
X57656803Y-25723112D01*
X57684178Y-25733851D01*
X57713544Y-25744819D01*
X57744903Y-25756016D01*
X57778253Y-25767442D01*
X57813596Y-25779097D01*
X57850931Y-25790981D01*
X57880239Y-25800044D01*
X57910668Y-25809236D01*
X57931577Y-25815436D01*
X57965415Y-25825647D01*
X57998235Y-25835949D01*
X58030038Y-25846341D01*
X58060823Y-25856823D01*
X58090591Y-25867396D01*
X58119341Y-25878058D01*
X58147074Y-25888811D01*
X58182468Y-25903288D01*
X58216053Y-25917925D01*
X58240055Y-25929009D01*
X58270818Y-25943881D01*
X58300093Y-25959188D01*
X58327880Y-25974930D01*
X58354178Y-25991107D01*
X58378988Y-26007720D01*
X58407907Y-26029097D01*
X58434500Y-26051154D01*
X58444487Y-26060167D01*
X58467896Y-26083301D01*
X58489123Y-26107365D01*
X58508167Y-26132359D01*
X58525029Y-26158284D01*
X58539709Y-26185139D01*
X58552206Y-26212924D01*
X58556594Y-26224298D01*
X58566515Y-26253318D01*
X58574755Y-26283589D01*
X58581313Y-26315113D01*
X58586189Y-26347889D01*
X58589384Y-26381917D01*
X58590898Y-26417198D01*
X58591032Y-26431660D01*
G37*
G36*
X60926238Y-26990000D02*
G01*
X60895704Y-26996010D01*
X60864918Y-27001586D01*
X60833880Y-27006726D01*
X60802590Y-27011432D01*
X60771049Y-27015702D01*
X60739255Y-27019538D01*
X60707210Y-27022938D01*
X60674912Y-27025903D01*
X60642420Y-27028479D01*
X60609791Y-27030712D01*
X60577024Y-27032601D01*
X60544120Y-27034146D01*
X60511079Y-27035349D01*
X60477900Y-27036207D01*
X60444584Y-27036722D01*
X60411130Y-27036894D01*
X60363265Y-27036204D01*
X60316940Y-27034135D01*
X60272155Y-27030686D01*
X60228910Y-27025857D01*
X60187204Y-27019649D01*
X60147039Y-27012061D01*
X60108413Y-27003094D01*
X60071327Y-26992747D01*
X60035781Y-26981021D01*
X60001775Y-26967915D01*
X59969309Y-26953429D01*
X59938383Y-26937564D01*
X59908996Y-26920319D01*
X59881150Y-26901694D01*
X59854843Y-26881690D01*
X59830076Y-26860307D01*
X59806918Y-26837403D01*
X59785254Y-26813023D01*
X59765084Y-26787165D01*
X59746408Y-26759831D01*
X59729226Y-26731020D01*
X59713538Y-26700732D01*
X59699344Y-26668967D01*
X59686645Y-26635725D01*
X59675439Y-26601007D01*
X59665728Y-26564811D01*
X59657510Y-26527138D01*
X59650787Y-26487989D01*
X59645557Y-26447362D01*
X59641822Y-26405259D01*
X59639581Y-26361679D01*
X59638834Y-26316622D01*
X59638834Y-25231451D01*
X59059246Y-25231451D01*
X59059246Y-24926636D01*
X59638834Y-24926636D01*
X59638834Y-24362435D01*
X59997138Y-24270111D01*
X59997138Y-24926636D01*
X60926238Y-24926636D01*
X60926238Y-25231451D01*
X59997138Y-25231451D01*
X59997138Y-26287313D01*
X59998175Y-26328224D01*
X60001286Y-26367152D01*
X60006470Y-26404096D01*
X60013728Y-26439056D01*
X60023059Y-26472033D01*
X60034465Y-26503027D01*
X60047944Y-26532037D01*
X60063496Y-26559064D01*
X60081122Y-26584107D01*
X60100822Y-26607166D01*
X60115108Y-26621437D01*
X60138350Y-26641210D01*
X60163562Y-26659038D01*
X60190745Y-26674921D01*
X60219899Y-26688860D01*
X60251024Y-26700853D01*
X60284119Y-26710901D01*
X60319185Y-26719005D01*
X60356221Y-26725164D01*
X60395228Y-26729378D01*
X60436206Y-26731647D01*
X60464619Y-26732079D01*
X60495978Y-26731811D01*
X60528232Y-26731006D01*
X60561380Y-26729664D01*
X60595423Y-26727786D01*
X60630360Y-26725371D01*
X60666191Y-26722419D01*
X60680774Y-26721088D01*
X60710415Y-26717963D01*
X60740354Y-26714448D01*
X60770591Y-26710544D01*
X60801125Y-26706250D01*
X60831957Y-26701568D01*
X60863086Y-26696496D01*
X60894513Y-26691035D01*
X60926238Y-26685184D01*
X60926238Y-26990000D01*
G37*
G36*
X61650174Y-24926636D02*
G01*
X61978436Y-24926636D01*
X61988695Y-25312051D01*
X62011572Y-25284059D01*
X62034410Y-25257051D01*
X62057208Y-25231027D01*
X62079965Y-25205989D01*
X62102682Y-25181935D01*
X62125360Y-25158865D01*
X62147997Y-25136780D01*
X62170594Y-25115680D01*
X62193152Y-25095564D01*
X62215669Y-25076433D01*
X62249369Y-25049583D01*
X62282980Y-25024947D01*
X62316500Y-25002528D01*
X62349930Y-24982323D01*
X62383347Y-24963991D01*
X62416828Y-24947461D01*
X62450374Y-24932735D01*
X62483985Y-24919812D01*
X62517659Y-24908693D01*
X62551399Y-24899376D01*
X62585202Y-24891863D01*
X62619070Y-24886153D01*
X62653002Y-24882246D01*
X62686999Y-24880142D01*
X62709699Y-24879741D01*
X62749298Y-24880571D01*
X62787678Y-24883061D01*
X62824838Y-24887212D01*
X62860779Y-24893022D01*
X62895500Y-24900492D01*
X62929003Y-24909623D01*
X62961286Y-24920413D01*
X62992349Y-24932864D01*
X63022194Y-24946975D01*
X63050819Y-24962746D01*
X63078225Y-24980177D01*
X63104411Y-24999268D01*
X63129378Y-25020019D01*
X63153126Y-25042430D01*
X63175655Y-25066501D01*
X63196964Y-25092233D01*
X63217057Y-25119601D01*
X63235753Y-25148584D01*
X63253052Y-25179181D01*
X63268954Y-25211393D01*
X63283460Y-25245218D01*
X63296569Y-25280658D01*
X63308281Y-25317713D01*
X63318597Y-25356381D01*
X63327516Y-25396664D01*
X63335037Y-25438561D01*
X63341163Y-25482073D01*
X63345891Y-25527199D01*
X63349223Y-25573939D01*
X63351157Y-25622293D01*
X63351696Y-25672262D01*
X63350837Y-25723845D01*
X62988136Y-25723845D01*
X62988511Y-25689008D01*
X62988171Y-25655392D01*
X62987114Y-25622994D01*
X62985343Y-25591816D01*
X62982855Y-25561857D01*
X62977783Y-25519205D01*
X62971100Y-25479296D01*
X62962808Y-25442131D01*
X62952905Y-25407709D01*
X62941393Y-25376031D01*
X62928270Y-25347096D01*
X62913537Y-25320905D01*
X62908269Y-25312784D01*
X62885772Y-25282731D01*
X62860779Y-25256684D01*
X62833290Y-25234645D01*
X62803306Y-25216613D01*
X62770825Y-25202588D01*
X62735849Y-25192571D01*
X62698376Y-25186560D01*
X62668634Y-25184682D01*
X62658408Y-25184556D01*
X62626637Y-25185854D01*
X62594796Y-25189746D01*
X62562884Y-25196232D01*
X62530902Y-25205313D01*
X62512595Y-25211667D01*
X62485213Y-25222967D01*
X62457469Y-25236534D01*
X62429365Y-25252368D01*
X62400900Y-25270469D01*
X62372075Y-25290836D01*
X62362386Y-25298129D01*
X62338093Y-25317288D01*
X62313299Y-25338129D01*
X62288004Y-25360651D01*
X62262208Y-25384855D01*
X62241211Y-25405428D01*
X62219893Y-25427078D01*
X62198255Y-25449804D01*
X62176445Y-25473503D01*
X62154245Y-25498439D01*
X62131657Y-25524611D01*
X62108679Y-25552020D01*
X62085312Y-25580665D01*
X62061555Y-25610546D01*
X62043482Y-25633769D01*
X62025191Y-25657687D01*
X62012875Y-25674019D01*
X62012875Y-26990000D01*
X61650174Y-26990000D01*
X61650174Y-24926636D01*
G37*
G36*
X65535833Y-26990000D02*
G01*
X65214166Y-26990000D01*
X65201709Y-26657341D01*
X65178766Y-26684234D01*
X65156097Y-26709960D01*
X65133703Y-26734518D01*
X65111584Y-26757908D01*
X65089739Y-26780130D01*
X65068169Y-26801185D01*
X65041594Y-26825860D01*
X65025854Y-26839790D01*
X64999769Y-26861779D01*
X64973719Y-26882409D01*
X64947705Y-26901679D01*
X64921727Y-26919589D01*
X64895784Y-26936140D01*
X64869878Y-26951331D01*
X64859525Y-26957027D01*
X64828699Y-26972586D01*
X64797770Y-26986290D01*
X64766737Y-26998140D01*
X64735602Y-27008135D01*
X64704364Y-27016275D01*
X64693928Y-27018576D01*
X64662269Y-27024801D01*
X64629941Y-27029739D01*
X64596942Y-27033388D01*
X64563274Y-27035749D01*
X64528936Y-27036823D01*
X64517341Y-27036894D01*
X64478020Y-27036161D01*
X64439923Y-27033963D01*
X64403052Y-27030300D01*
X64367406Y-27025170D01*
X64332985Y-27018576D01*
X64299789Y-27010516D01*
X64267818Y-27000990D01*
X64237072Y-26990000D01*
X64207551Y-26977543D01*
X64179255Y-26963621D01*
X64152184Y-26948234D01*
X64126338Y-26931381D01*
X64101718Y-26913063D01*
X64078322Y-26893279D01*
X64056151Y-26872030D01*
X64035205Y-26849316D01*
X64015508Y-26825030D01*
X63997081Y-26799250D01*
X63979924Y-26771976D01*
X63964039Y-26743207D01*
X63949425Y-26712945D01*
X63936081Y-26681189D01*
X63924008Y-26647938D01*
X63913206Y-26613194D01*
X63903675Y-26576955D01*
X63895414Y-26539223D01*
X63888425Y-26499996D01*
X63882706Y-26459275D01*
X63878258Y-26417060D01*
X63875081Y-26373351D01*
X63873175Y-26328148D01*
X63872540Y-26281451D01*
X63872540Y-24926636D01*
X64230844Y-24926636D01*
X64230844Y-26254340D01*
X64231195Y-26283732D01*
X64233999Y-26339717D01*
X64239609Y-26391970D01*
X64248024Y-26440490D01*
X64259244Y-26485278D01*
X64273269Y-26526334D01*
X64290099Y-26563657D01*
X64309734Y-26597248D01*
X64332174Y-26627107D01*
X64357418Y-26653233D01*
X64385468Y-26675627D01*
X64416323Y-26694289D01*
X64449983Y-26709218D01*
X64486447Y-26720416D01*
X64525717Y-26727880D01*
X64567792Y-26731613D01*
X64589881Y-26732079D01*
X64622625Y-26730843D01*
X64654911Y-26727133D01*
X64686738Y-26720951D01*
X64718108Y-26712295D01*
X64745958Y-26702273D01*
X64774368Y-26689515D01*
X64803340Y-26674022D01*
X64828619Y-26658566D01*
X64849999Y-26644152D01*
X64876438Y-26624806D01*
X64903546Y-26603039D01*
X64926648Y-26583050D01*
X64950214Y-26561379D01*
X64974246Y-26538027D01*
X64998743Y-26512993D01*
X65018836Y-26491618D01*
X65039547Y-26468892D01*
X65060876Y-26444815D01*
X65082824Y-26419387D01*
X65105390Y-26392608D01*
X65128574Y-26364478D01*
X65152376Y-26334997D01*
X65170633Y-26312000D01*
X65176796Y-26304166D01*
X65176796Y-24926636D01*
X65535833Y-24926636D01*
X65535833Y-26990000D01*
G37*
G36*
X67654884Y-26990000D02*
G01*
X67654884Y-25505491D01*
X67654705Y-25476125D01*
X67654019Y-25443152D01*
X67652816Y-25412652D01*
X67650763Y-25380195D01*
X67647557Y-25347222D01*
X67643390Y-25318050D01*
X67637497Y-25289064D01*
X67628563Y-25259146D01*
X67624842Y-25249769D01*
X67610889Y-25223751D01*
X67589732Y-25202021D01*
X67585275Y-25199211D01*
X67557054Y-25187776D01*
X67526657Y-25184556D01*
X67496707Y-25188060D01*
X67468405Y-25198570D01*
X67450453Y-25209469D01*
X67426084Y-25229816D01*
X67405116Y-25252002D01*
X67385698Y-25275907D01*
X67375715Y-25289337D01*
X67357698Y-25315418D01*
X67341641Y-25340508D01*
X67325017Y-25368123D01*
X67307826Y-25398262D01*
X67293068Y-25425306D01*
X67287055Y-25436615D01*
X67271513Y-25466275D01*
X67255112Y-25498010D01*
X67241374Y-25524892D01*
X67227085Y-25553102D01*
X67212248Y-25582640D01*
X67196860Y-25613506D01*
X67180923Y-25645700D01*
X67172749Y-25662295D01*
X67172749Y-26990000D01*
X66844487Y-26990000D01*
X66844487Y-25545059D01*
X66844308Y-25510641D01*
X66843771Y-25478369D01*
X66842877Y-25448244D01*
X66841331Y-25414928D01*
X66839270Y-25384703D01*
X66837159Y-25361877D01*
X66833853Y-25332610D01*
X66829045Y-25302854D01*
X66822322Y-25274087D01*
X66815177Y-25252700D01*
X66801103Y-25224784D01*
X66780957Y-25203092D01*
X66774877Y-25199211D01*
X66747400Y-25188220D01*
X66716982Y-25184571D01*
X66714794Y-25184556D01*
X66685631Y-25187942D01*
X66657678Y-25198100D01*
X66645184Y-25205073D01*
X66621650Y-25223074D01*
X66598752Y-25246201D01*
X66579403Y-25269339D01*
X66571912Y-25279078D01*
X66553824Y-25304373D01*
X66537596Y-25329068D01*
X66520697Y-25356546D01*
X66503129Y-25386805D01*
X66487977Y-25414147D01*
X66481786Y-25425624D01*
X66465979Y-25455745D01*
X66449243Y-25488407D01*
X66435183Y-25516365D01*
X66420529Y-25545949D01*
X66405279Y-25577159D01*
X66389434Y-25609994D01*
X66372993Y-25644455D01*
X66364549Y-25662295D01*
X66364549Y-26990000D01*
X66034822Y-26990000D01*
X66034822Y-24926636D01*
X66308862Y-24926636D01*
X66325715Y-25319378D01*
X66339041Y-25289909D01*
X66352276Y-25261584D01*
X66365420Y-25234405D01*
X66381720Y-25202040D01*
X66397877Y-25171465D01*
X66413891Y-25142678D01*
X66429762Y-25115680D01*
X66445633Y-25090152D01*
X66464867Y-25061645D01*
X66484308Y-25035455D01*
X66503954Y-25011584D01*
X66527135Y-24986665D01*
X66533810Y-24980125D01*
X66557562Y-24958697D01*
X66582015Y-24939934D01*
X66607170Y-24923835D01*
X66636777Y-24908700D01*
X66648115Y-24903921D01*
X66679348Y-24893343D01*
X66708029Y-24886566D01*
X66737972Y-24882103D01*
X66769177Y-24879954D01*
X66782937Y-24879741D01*
X66813553Y-24880720D01*
X66842752Y-24883657D01*
X66879480Y-24890618D01*
X66913689Y-24901059D01*
X66945380Y-24914981D01*
X66974552Y-24932383D01*
X67001205Y-24953266D01*
X67025339Y-24977629D01*
X67036461Y-24991116D01*
X67056726Y-25020860D01*
X67074289Y-25054405D01*
X67085687Y-25082059D01*
X67095566Y-25111850D01*
X67103925Y-25143780D01*
X67110765Y-25177847D01*
X67116084Y-25214053D01*
X67119884Y-25252397D01*
X67122164Y-25292879D01*
X67122923Y-25335498D01*
X67135334Y-25308582D01*
X67150718Y-25275999D01*
X67165960Y-25244597D01*
X67181058Y-25214376D01*
X67196013Y-25185335D01*
X67210825Y-25157475D01*
X67219644Y-25141325D01*
X67234688Y-25115426D01*
X67253167Y-25086094D01*
X67272109Y-25058668D01*
X67291515Y-25033148D01*
X67311384Y-25009535D01*
X67321493Y-24998443D01*
X67342487Y-24977715D01*
X67367957Y-24956007D01*
X67394480Y-24936963D01*
X67422053Y-24920584D01*
X67442393Y-24910516D01*
X67472226Y-24898525D01*
X67504022Y-24889479D01*
X67532839Y-24884069D01*
X67563099Y-24880823D01*
X67594801Y-24879741D01*
X67642004Y-24882088D01*
X67686163Y-24889129D01*
X67727276Y-24900864D01*
X67765343Y-24917294D01*
X67800365Y-24938417D01*
X67832342Y-24964234D01*
X67861273Y-24994745D01*
X67887159Y-25029951D01*
X67910000Y-25069850D01*
X67929795Y-25114443D01*
X67946545Y-25163731D01*
X67960249Y-25217712D01*
X67965959Y-25246463D01*
X67970908Y-25276388D01*
X67975095Y-25307486D01*
X67978521Y-25339757D01*
X67981186Y-25373202D01*
X67983089Y-25407821D01*
X67984232Y-25443613D01*
X67984612Y-25480579D01*
X67984612Y-26990000D01*
X67654884Y-26990000D01*
G37*
G36*
X69377327Y-24880334D02*
G01*
X69416561Y-24882111D01*
X69454933Y-24885074D01*
X69492442Y-24889221D01*
X69529087Y-24894553D01*
X69564870Y-24901071D01*
X69599790Y-24908773D01*
X69633847Y-24917660D01*
X69667041Y-24927732D01*
X69699372Y-24938989D01*
X69720446Y-24947152D01*
X69751307Y-24960150D01*
X69781240Y-24974140D01*
X69810245Y-24989122D01*
X69838324Y-25005095D01*
X69865475Y-25022060D01*
X69891699Y-25040017D01*
X69916995Y-25058966D01*
X69941364Y-25078906D01*
X69964805Y-25099838D01*
X69987320Y-25121762D01*
X70001814Y-25136929D01*
X70022757Y-25160480D01*
X70042721Y-25184971D01*
X70061706Y-25210403D01*
X70079712Y-25236775D01*
X70096739Y-25264087D01*
X70112788Y-25292339D01*
X70127857Y-25321532D01*
X70141948Y-25351664D01*
X70155060Y-25382737D01*
X70167193Y-25414750D01*
X70174738Y-25436615D01*
X70185214Y-25469955D01*
X70194659Y-25504029D01*
X70203074Y-25538837D01*
X70210458Y-25574379D01*
X70216812Y-25610656D01*
X70222136Y-25647667D01*
X70226430Y-25685411D01*
X70229692Y-25723890D01*
X70231925Y-25763104D01*
X70233127Y-25803051D01*
X70233356Y-25830090D01*
X70233251Y-25861952D01*
X70232935Y-25891499D01*
X70232317Y-25922434D01*
X70231293Y-25953623D01*
X70231158Y-25956852D01*
X70229641Y-25987879D01*
X70227838Y-26017760D01*
X70225524Y-26049308D01*
X70225296Y-26052107D01*
X68772295Y-26052107D01*
X68772988Y-26092544D01*
X68775066Y-26131791D01*
X68778529Y-26169847D01*
X68783378Y-26206713D01*
X68789612Y-26242387D01*
X68797231Y-26276871D01*
X68806236Y-26310165D01*
X68816625Y-26342267D01*
X68828401Y-26373179D01*
X68841561Y-26402901D01*
X68856107Y-26431431D01*
X68872038Y-26458771D01*
X68889354Y-26484921D01*
X68908056Y-26509879D01*
X68928143Y-26533647D01*
X68949616Y-26556224D01*
X68972390Y-26577519D01*
X68996384Y-26597440D01*
X69021598Y-26615987D01*
X69048030Y-26633161D01*
X69075682Y-26648960D01*
X69104553Y-26663386D01*
X69134644Y-26676437D01*
X69165954Y-26688115D01*
X69198483Y-26698419D01*
X69232231Y-26707349D01*
X69267199Y-26714906D01*
X69303386Y-26721088D01*
X69340793Y-26725897D01*
X69379418Y-26729331D01*
X69419263Y-26731392D01*
X69460327Y-26732079D01*
X69494399Y-26731821D01*
X69528471Y-26731049D01*
X69562543Y-26729761D01*
X69596615Y-26727957D01*
X69630687Y-26725639D01*
X69642044Y-26724752D01*
X69675884Y-26721549D01*
X69709261Y-26717985D01*
X69742173Y-26714061D01*
X69774622Y-26709777D01*
X69806608Y-26705131D01*
X69817166Y-26703503D01*
X69848508Y-26698454D01*
X69879334Y-26693199D01*
X69909645Y-26687738D01*
X69939440Y-26682070D01*
X69968721Y-26676197D01*
X69978367Y-26674193D01*
X70007080Y-26668020D01*
X70039538Y-26660491D01*
X70070874Y-26652612D01*
X70101087Y-26644383D01*
X70121981Y-26638290D01*
X70121981Y-26931381D01*
X70084750Y-26942830D01*
X70056044Y-26951056D01*
X70026669Y-26958973D01*
X69996625Y-26966581D01*
X69965910Y-26973879D01*
X69934526Y-26980869D01*
X69902472Y-26987549D01*
X69869748Y-26993921D01*
X69836355Y-26999983D01*
X69802291Y-27005736D01*
X69790788Y-27007585D01*
X69756182Y-27012823D01*
X69721331Y-27017546D01*
X69686235Y-27021753D01*
X69650894Y-27025445D01*
X69615309Y-27028622D01*
X69579479Y-27031284D01*
X69543404Y-27033431D01*
X69507085Y-27035062D01*
X69470521Y-27036179D01*
X69433712Y-27036780D01*
X69409036Y-27036894D01*
X69376078Y-27036611D01*
X69343698Y-27035761D01*
X69311896Y-27034344D01*
X69280672Y-27032360D01*
X69250026Y-27029810D01*
X69219958Y-27026693D01*
X69190469Y-27023009D01*
X69147319Y-27016421D01*
X69105469Y-27008558D01*
X69064921Y-26999420D01*
X69025673Y-26989006D01*
X68987727Y-26977318D01*
X68951081Y-26964354D01*
X68915822Y-26950180D01*
X68881761Y-26934859D01*
X68848898Y-26918392D01*
X68817232Y-26900778D01*
X68786765Y-26882019D01*
X68757495Y-26862113D01*
X68729423Y-26841060D01*
X68702549Y-26818862D01*
X68676873Y-26795517D01*
X68652394Y-26771025D01*
X68636741Y-26754061D01*
X68614357Y-26727554D01*
X68593095Y-26699965D01*
X68572952Y-26671294D01*
X68553931Y-26641541D01*
X68536030Y-26610707D01*
X68519249Y-26578790D01*
X68503589Y-26545791D01*
X68489050Y-26511711D01*
X68475631Y-26476549D01*
X68463333Y-26440304D01*
X68455757Y-26415540D01*
X68445281Y-26377570D01*
X68435836Y-26338673D01*
X68427421Y-26298848D01*
X68420036Y-26258095D01*
X68413682Y-26216416D01*
X68408358Y-26173809D01*
X68404065Y-26130274D01*
X68401775Y-26100736D01*
X68399943Y-26070786D01*
X68398569Y-26040423D01*
X68397654Y-26009649D01*
X68397196Y-25978462D01*
X68397138Y-25962714D01*
X68397692Y-25921711D01*
X68399354Y-25881132D01*
X68402123Y-25840979D01*
X68406000Y-25801250D01*
X68409869Y-25770739D01*
X68772295Y-25770739D01*
X69860397Y-25770739D01*
X69861256Y-25737400D01*
X69860901Y-25704794D01*
X69859333Y-25672920D01*
X69856550Y-25641779D01*
X69852555Y-25611371D01*
X69847346Y-25581695D01*
X69840923Y-25552752D01*
X69833286Y-25524542D01*
X69822106Y-25490296D01*
X69809172Y-25457624D01*
X69794485Y-25426526D01*
X69778045Y-25397002D01*
X69759852Y-25369052D01*
X69739906Y-25342677D01*
X69731437Y-25332568D01*
X69709072Y-25308239D01*
X69685026Y-25285627D01*
X69659298Y-25264733D01*
X69631889Y-25245556D01*
X69602798Y-25228096D01*
X69572026Y-25212354D01*
X69559246Y-25206538D01*
X69526366Y-25193451D01*
X69491841Y-25182581D01*
X69463035Y-25175483D01*
X69433176Y-25169804D01*
X69402264Y-25165546D01*
X69370299Y-25162706D01*
X69337281Y-25161287D01*
X69320376Y-25161109D01*
X69284223Y-25162200D01*
X69249035Y-25165474D01*
X69214814Y-25170930D01*
X69181559Y-25178569D01*
X69149269Y-25188390D01*
X69117946Y-25200393D01*
X69105687Y-25205806D01*
X69076106Y-25220439D01*
X69047813Y-25236861D01*
X69020808Y-25255071D01*
X68995091Y-25275071D01*
X68970662Y-25296860D01*
X68947521Y-25320437D01*
X68938625Y-25330369D01*
X68917516Y-25356133D01*
X68897695Y-25383506D01*
X68879162Y-25412490D01*
X68861917Y-25443084D01*
X68845960Y-25475287D01*
X68834122Y-25502209D01*
X68825785Y-25523077D01*
X68815492Y-25551630D01*
X68806230Y-25580871D01*
X68797998Y-25610798D01*
X68790797Y-25641413D01*
X68784626Y-25672714D01*
X68779485Y-25704702D01*
X68775375Y-25737377D01*
X68772295Y-25770739D01*
X68409869Y-25770739D01*
X68410984Y-25761947D01*
X68417077Y-25723069D01*
X68424277Y-25684616D01*
X68432584Y-25646588D01*
X68441999Y-25608984D01*
X68452522Y-25571806D01*
X68460153Y-25547257D01*
X68472471Y-25510862D01*
X68485793Y-25475318D01*
X68500120Y-25440624D01*
X68515451Y-25406779D01*
X68531787Y-25373785D01*
X68549128Y-25341641D01*
X68567473Y-25310347D01*
X68586823Y-25279903D01*
X68607178Y-25250309D01*
X68628537Y-25221565D01*
X68643335Y-25202875D01*
X68666481Y-25175526D01*
X68690579Y-25149259D01*
X68715631Y-25124075D01*
X68741635Y-25099972D01*
X68768593Y-25076951D01*
X68796504Y-25055012D01*
X68825368Y-25034155D01*
X68855185Y-25014380D01*
X68885956Y-24995687D01*
X68917679Y-24978076D01*
X68939357Y-24966936D01*
X68972611Y-24951353D01*
X69006703Y-24937303D01*
X69041631Y-24924786D01*
X69077397Y-24913802D01*
X69113999Y-24904350D01*
X69151439Y-24896431D01*
X69189717Y-24890045D01*
X69228831Y-24885191D01*
X69268783Y-24881870D01*
X69309571Y-24880082D01*
X69337229Y-24879741D01*
X69377327Y-24880334D01*
G37*
G36*
X70792428Y-24926636D02*
G01*
X71111898Y-24926636D01*
X71126552Y-25259295D01*
X71148992Y-25232401D01*
X71171249Y-25206676D01*
X71193322Y-25182118D01*
X71215212Y-25158728D01*
X71236919Y-25136505D01*
X71258443Y-25115451D01*
X71285091Y-25090775D01*
X71300942Y-25076845D01*
X71327414Y-25054874D01*
X71353707Y-25034298D01*
X71379821Y-25015118D01*
X71405756Y-24997333D01*
X71431513Y-24980943D01*
X71457090Y-24965949D01*
X71467271Y-24960341D01*
X71497874Y-24944533D01*
X71528683Y-24930632D01*
X71559698Y-24918636D01*
X71590919Y-24908547D01*
X71622346Y-24900364D01*
X71632868Y-24898060D01*
X71664947Y-24891834D01*
X71697439Y-24886897D01*
X71730343Y-24883248D01*
X71763660Y-24880886D01*
X71797388Y-24879813D01*
X71808722Y-24879741D01*
X71848047Y-24880480D01*
X71886151Y-24882695D01*
X71923037Y-24886387D01*
X71958703Y-24891557D01*
X71993150Y-24898203D01*
X72026377Y-24906326D01*
X72058385Y-24915925D01*
X72089174Y-24927002D01*
X72118744Y-24939556D01*
X72147094Y-24953587D01*
X72174225Y-24969094D01*
X72200137Y-24986079D01*
X72224829Y-25004540D01*
X72248302Y-25024478D01*
X72270556Y-25045893D01*
X72291591Y-25068785D01*
X72311466Y-25093160D01*
X72330059Y-25119023D01*
X72347370Y-25146374D01*
X72363398Y-25175214D01*
X72378144Y-25205542D01*
X72391608Y-25237359D01*
X72403790Y-25270663D01*
X72414689Y-25305457D01*
X72424306Y-25341738D01*
X72432641Y-25379508D01*
X72439693Y-25418766D01*
X72445464Y-25459513D01*
X72449952Y-25501748D01*
X72453157Y-25545471D01*
X72455081Y-25590683D01*
X72455722Y-25637383D01*
X72455722Y-26990000D01*
X72096685Y-26990000D01*
X72096685Y-25663028D01*
X72096330Y-25632938D01*
X72094467Y-25589680D01*
X72091006Y-25548677D01*
X72085949Y-25509927D01*
X72079294Y-25473432D01*
X72071042Y-25439190D01*
X72061193Y-25407203D01*
X72049747Y-25377469D01*
X72036704Y-25349990D01*
X72016829Y-25316857D01*
X72005826Y-25301793D01*
X71981898Y-25274316D01*
X71955177Y-25250502D01*
X71925661Y-25230352D01*
X71893353Y-25213866D01*
X71858250Y-25201043D01*
X71820355Y-25191884D01*
X71790099Y-25187419D01*
X71758273Y-25185014D01*
X71736182Y-25184556D01*
X71703393Y-25185793D01*
X71670969Y-25189502D01*
X71638913Y-25195685D01*
X71607222Y-25204340D01*
X71575715Y-25216018D01*
X71547545Y-25229166D01*
X71518814Y-25245049D01*
X71493741Y-25260840D01*
X71476796Y-25272484D01*
X71450830Y-25291855D01*
X71424040Y-25313700D01*
X71401085Y-25333793D01*
X71377558Y-25355603D01*
X71353458Y-25379130D01*
X71328785Y-25404375D01*
X71308692Y-25425716D01*
X71287981Y-25448339D01*
X71266652Y-25472244D01*
X71244705Y-25497431D01*
X71222139Y-25523901D01*
X71198955Y-25551653D01*
X71175153Y-25580688D01*
X71150732Y-25611004D01*
X71150732Y-26990000D01*
X70792428Y-26990000D01*
X70792428Y-24926636D01*
G37*
G36*
X74766015Y-26990000D02*
G01*
X74735481Y-26996010D01*
X74704695Y-27001586D01*
X74673657Y-27006726D01*
X74642367Y-27011432D01*
X74610825Y-27015702D01*
X74579032Y-27019538D01*
X74546986Y-27022938D01*
X74514689Y-27025903D01*
X74482197Y-27028479D01*
X74449568Y-27030712D01*
X74416801Y-27032601D01*
X74383897Y-27034146D01*
X74350855Y-27035349D01*
X74317677Y-27036207D01*
X74284360Y-27036722D01*
X74250907Y-27036894D01*
X74203042Y-27036204D01*
X74156717Y-27034135D01*
X74111932Y-27030686D01*
X74068686Y-27025857D01*
X74026981Y-27019649D01*
X73986815Y-27012061D01*
X73948190Y-27003094D01*
X73911104Y-26992747D01*
X73875558Y-26981021D01*
X73841552Y-26967915D01*
X73809086Y-26953429D01*
X73778159Y-26937564D01*
X73748773Y-26920319D01*
X73720926Y-26901694D01*
X73694620Y-26881690D01*
X73669853Y-26860307D01*
X73646695Y-26837403D01*
X73625031Y-26813023D01*
X73604861Y-26787165D01*
X73586185Y-26759831D01*
X73569003Y-26731020D01*
X73553315Y-26700732D01*
X73539121Y-26668967D01*
X73526421Y-26635725D01*
X73515216Y-26601007D01*
X73505504Y-26564811D01*
X73497287Y-26527138D01*
X73490563Y-26487989D01*
X73485334Y-26447362D01*
X73481599Y-26405259D01*
X73479358Y-26361679D01*
X73478611Y-26316622D01*
X73478611Y-25231451D01*
X72899023Y-25231451D01*
X72899023Y-24926636D01*
X73478611Y-24926636D01*
X73478611Y-24362435D01*
X73836915Y-24270111D01*
X73836915Y-24926636D01*
X74766015Y-24926636D01*
X74766015Y-25231451D01*
X73836915Y-25231451D01*
X73836915Y-26287313D01*
X73837952Y-26328224D01*
X73841062Y-26367152D01*
X73846247Y-26404096D01*
X73853504Y-26439056D01*
X73862836Y-26472033D01*
X73874241Y-26503027D01*
X73887720Y-26532037D01*
X73903273Y-26559064D01*
X73920899Y-26584107D01*
X73940599Y-26607166D01*
X73954884Y-26621437D01*
X73978126Y-26641210D01*
X74003339Y-26659038D01*
X74030522Y-26674921D01*
X74059676Y-26688860D01*
X74090800Y-26700853D01*
X74123896Y-26710901D01*
X74158961Y-26719005D01*
X74195998Y-26725164D01*
X74235005Y-26729378D01*
X74275983Y-26731647D01*
X74304396Y-26732079D01*
X74335755Y-26731811D01*
X74368009Y-26731006D01*
X74401157Y-26729664D01*
X74435199Y-26727786D01*
X74470136Y-26725371D01*
X74505968Y-26722419D01*
X74520551Y-26721088D01*
X74550192Y-26717963D01*
X74580131Y-26714448D01*
X74610367Y-26710544D01*
X74640901Y-26706250D01*
X74671733Y-26701568D01*
X74702863Y-26696496D01*
X74734290Y-26691035D01*
X74766015Y-26685184D01*
X74766015Y-26990000D01*
G37*
G36*
X77044068Y-26431660D02*
G01*
X77043156Y-26465452D01*
X77040419Y-26498135D01*
X77035857Y-26529709D01*
X77029471Y-26560174D01*
X77021260Y-26589530D01*
X77011224Y-26617776D01*
X77006699Y-26628764D01*
X76991981Y-26660518D01*
X76975306Y-26690932D01*
X76956673Y-26720006D01*
X76936082Y-26747741D01*
X76913533Y-26774137D01*
X76905582Y-26782637D01*
X76880956Y-26807221D01*
X76854887Y-26830414D01*
X76827375Y-26852215D01*
X76803347Y-26869320D01*
X76778316Y-26885460D01*
X76757571Y-26897676D01*
X76730952Y-26912166D01*
X76703761Y-26925869D01*
X76675998Y-26938784D01*
X76647662Y-26950913D01*
X76618753Y-26962255D01*
X76589272Y-26972809D01*
X76577320Y-26976810D01*
X76547199Y-26986034D01*
X76516827Y-26994470D01*
X76486205Y-27002120D01*
X76455332Y-27008982D01*
X76424209Y-27015057D01*
X76392835Y-27020345D01*
X76380216Y-27022240D01*
X76348917Y-27026461D01*
X76317762Y-27029968D01*
X76286750Y-27032758D01*
X76255881Y-27034833D01*
X76225155Y-27036193D01*
X76194572Y-27036837D01*
X76182379Y-27036894D01*
X76143252Y-27036727D01*
X76104730Y-27036224D01*
X76066813Y-27035387D01*
X76029502Y-27034215D01*
X75992796Y-27032708D01*
X75956696Y-27030866D01*
X75921201Y-27028690D01*
X75886311Y-27026178D01*
X75852027Y-27023331D01*
X75818348Y-27020150D01*
X75796231Y-27017843D01*
X75763316Y-27014202D01*
X75730517Y-27010150D01*
X75697834Y-27005684D01*
X75665267Y-27000807D01*
X75632816Y-26995518D01*
X75600481Y-26989816D01*
X75568262Y-26983703D01*
X75536158Y-26977177D01*
X75504171Y-26970239D01*
X75472299Y-26962889D01*
X75451116Y-26957759D01*
X75451116Y-26627299D01*
X75485038Y-26636703D01*
X75518933Y-26645683D01*
X75552804Y-26654237D01*
X75586648Y-26662367D01*
X75620466Y-26670071D01*
X75654259Y-26677351D01*
X75688026Y-26684205D01*
X75721768Y-26690634D01*
X75755483Y-26696638D01*
X75789173Y-26702218D01*
X75811618Y-26705701D01*
X75845259Y-26710415D01*
X75878861Y-26714665D01*
X75912424Y-26718452D01*
X75945948Y-26721775D01*
X75979434Y-26724634D01*
X76012881Y-26727030D01*
X76046290Y-26728962D01*
X76079660Y-26730430D01*
X76112991Y-26731435D01*
X76146284Y-26731976D01*
X76168457Y-26732079D01*
X76200085Y-26731804D01*
X76230671Y-26730980D01*
X76260214Y-26729606D01*
X76302577Y-26726515D01*
X76342595Y-26722187D01*
X76380269Y-26716623D01*
X76415599Y-26709822D01*
X76448584Y-26701785D01*
X76479226Y-26692512D01*
X76507523Y-26682002D01*
X76541606Y-26666065D01*
X76549476Y-26661737D01*
X76578499Y-26643041D01*
X76603652Y-26622490D01*
X76624936Y-26600085D01*
X76642349Y-26575825D01*
X76655893Y-26549710D01*
X76665568Y-26521740D01*
X76671372Y-26491916D01*
X76673307Y-26460237D01*
X76671742Y-26429782D01*
X76666333Y-26397983D01*
X76657059Y-26368330D01*
X76653524Y-26359853D01*
X76638082Y-26332347D01*
X76618923Y-26308326D01*
X76597708Y-26287558D01*
X76582449Y-26274856D01*
X76557274Y-26256799D01*
X76531343Y-26241155D01*
X76501392Y-26225355D01*
X76473364Y-26212071D01*
X76442545Y-26198679D01*
X76422714Y-26190593D01*
X76394367Y-26179579D01*
X76363546Y-26168153D01*
X76330253Y-26156315D01*
X76294487Y-26144064D01*
X76266039Y-26134606D01*
X76236200Y-26124916D01*
X76204971Y-26114994D01*
X76172350Y-26104841D01*
X76138338Y-26094455D01*
X76126692Y-26090942D01*
X76092036Y-26080500D01*
X76058044Y-26069692D01*
X76024717Y-26058518D01*
X75992053Y-26046978D01*
X75960053Y-26035071D01*
X75928718Y-26022798D01*
X75898046Y-26010158D01*
X75868039Y-25997152D01*
X75839027Y-25983482D01*
X75810977Y-25969217D01*
X75783889Y-25954356D01*
X75757763Y-25938900D01*
X75732598Y-25922849D01*
X75708395Y-25906202D01*
X75679494Y-25884557D01*
X75662875Y-25871123D01*
X75636750Y-25847846D01*
X75612414Y-25823353D01*
X75589866Y-25797643D01*
X75569108Y-25770716D01*
X75550139Y-25742574D01*
X75532958Y-25713214D01*
X75526587Y-25701130D01*
X75512444Y-25669817D01*
X75500698Y-25636787D01*
X75491350Y-25602040D01*
X75485596Y-25573006D01*
X75481378Y-25542872D01*
X75478693Y-25511640D01*
X75477542Y-25479308D01*
X75477494Y-25471053D01*
X75478911Y-25437789D01*
X75483161Y-25403390D01*
X75488868Y-25373859D01*
X75496542Y-25343541D01*
X75506184Y-25312436D01*
X75517794Y-25280544D01*
X75531766Y-25248387D01*
X75548492Y-25216945D01*
X75567973Y-25186219D01*
X75585541Y-25162154D01*
X75604872Y-25138546D01*
X75625967Y-25115397D01*
X75648825Y-25092705D01*
X75654815Y-25087103D01*
X75680231Y-25065236D01*
X75707754Y-25044330D01*
X75737384Y-25024386D01*
X75769120Y-25005404D01*
X75802963Y-24987384D01*
X75829728Y-24974499D01*
X75857677Y-24962156D01*
X75886812Y-24950354D01*
X75917131Y-24939092D01*
X75948765Y-24928486D01*
X75981840Y-24918922D01*
X76016359Y-24910402D01*
X76052320Y-24902925D01*
X76089723Y-24896492D01*
X76128569Y-24891101D01*
X76168858Y-24886754D01*
X76210589Y-24883451D01*
X76253763Y-24881190D01*
X76283347Y-24880263D01*
X76313572Y-24879799D01*
X76328925Y-24879741D01*
X76359745Y-24879959D01*
X76391390Y-24880611D01*
X76423859Y-24881699D01*
X76457152Y-24883222D01*
X76491270Y-24885180D01*
X76526212Y-24887572D01*
X76561978Y-24890400D01*
X76598569Y-24893663D01*
X76635938Y-24897281D01*
X76673674Y-24901540D01*
X76711775Y-24906440D01*
X76750244Y-24911981D01*
X76779335Y-24916558D01*
X76808633Y-24921495D01*
X76838137Y-24926793D01*
X76867847Y-24932452D01*
X76897763Y-24938471D01*
X76907780Y-24940558D01*
X76907780Y-25265157D01*
X76876330Y-25257650D01*
X76845175Y-25250516D01*
X76814317Y-25243756D01*
X76783755Y-25237370D01*
X76753489Y-25231357D01*
X76723519Y-25225718D01*
X76693846Y-25220452D01*
X76664469Y-25215560D01*
X76635388Y-25211041D01*
X76597074Y-25205597D01*
X76587578Y-25204340D01*
X76550289Y-25199703D01*
X76514259Y-25195685D01*
X76479489Y-25192284D01*
X76445978Y-25189502D01*
X76413727Y-25187338D01*
X76382735Y-25185793D01*
X76353002Y-25184865D01*
X76324528Y-25184556D01*
X76291830Y-25184877D01*
X76260415Y-25185839D01*
X76230281Y-25187441D01*
X76194418Y-25190347D01*
X76160558Y-25194254D01*
X76128701Y-25199162D01*
X76098848Y-25205073D01*
X76065738Y-25213307D01*
X76035101Y-25222624D01*
X76006936Y-25233022D01*
X75977204Y-25246521D01*
X75950837Y-25261493D01*
X75924596Y-25279903D01*
X75902294Y-25299961D01*
X75881911Y-25324498D01*
X75869504Y-25345024D01*
X75857461Y-25372748D01*
X75849360Y-25401516D01*
X75845199Y-25431326D01*
X75844591Y-25448339D01*
X75846272Y-25478909D01*
X75851315Y-25507973D01*
X75860860Y-25538499D01*
X75865840Y-25550188D01*
X75881103Y-25575510D01*
X75902162Y-25600368D01*
X75925747Y-25622075D01*
X75946441Y-25638115D01*
X75974295Y-25656708D01*
X76001686Y-25672645D01*
X76032324Y-25688582D01*
X76060334Y-25701863D01*
X76090598Y-25715143D01*
X76109839Y-25723112D01*
X76137213Y-25733851D01*
X76166580Y-25744819D01*
X76197938Y-25756016D01*
X76231289Y-25767442D01*
X76266631Y-25779097D01*
X76303966Y-25790981D01*
X76333275Y-25800044D01*
X76363704Y-25809236D01*
X76384612Y-25815436D01*
X76418450Y-25825647D01*
X76451270Y-25835949D01*
X76483073Y-25846341D01*
X76513859Y-25856823D01*
X76543626Y-25867396D01*
X76572377Y-25878058D01*
X76600110Y-25888811D01*
X76635504Y-25903288D01*
X76669089Y-25917925D01*
X76693091Y-25929009D01*
X76723854Y-25943881D01*
X76753129Y-25959188D01*
X76780915Y-25974930D01*
X76807213Y-25991107D01*
X76832023Y-26007720D01*
X76860942Y-26029097D01*
X76887536Y-26051154D01*
X76897522Y-26060167D01*
X76920932Y-26083301D01*
X76942159Y-26107365D01*
X76961203Y-26132359D01*
X76978065Y-26158284D01*
X76992745Y-26185139D01*
X77005242Y-26212924D01*
X77009630Y-26224298D01*
X77019551Y-26253318D01*
X77027790Y-26283589D01*
X77034349Y-26315113D01*
X77039225Y-26347889D01*
X77042420Y-26381917D01*
X77043933Y-26417198D01*
X77044068Y-26431660D01*
G37*
D11*
%TO.C,H37*%
X105250000Y-99250000D03*
%TD*%
D12*
%TO.C,H4*%
X133450000Y-147250000D03*
%TD*%
D13*
%TO.C,H14*%
X94000000Y-116000000D03*
%TD*%
D11*
%TO.C,H35*%
X80250000Y-99250000D03*
%TD*%
D13*
%TO.C,H45*%
X127500000Y-38500000D03*
%TD*%
%TO.C,H41*%
X51500000Y-38500000D03*
%TD*%
%TO.C,H12*%
X70000000Y-116000000D03*
%TD*%
%TO.C,H20*%
X94000000Y-132000000D03*
%TD*%
%TO.C,H16*%
X46000000Y-132000000D03*
%TD*%
D11*
%TO.C,H23*%
X60250000Y-75250000D03*
%TD*%
D12*
%TO.C,H6*%
X136000000Y-48000000D03*
%TD*%
D13*
%TO.C,H18*%
X70000000Y-132000000D03*
%TD*%
%TO.C,H42*%
X70500000Y-38500000D03*
%TD*%
D12*
%TO.C,H54*%
X108250000Y-126100000D03*
%TD*%
%TO.C,H52*%
X108250000Y-115000000D03*
%TD*%
D13*
%TO.C,H9*%
X34000000Y-116000000D03*
%TD*%
D11*
%TO.C,H39*%
X125250000Y-99250000D03*
%TD*%
D13*
%TO.C,H17*%
X58000000Y-132000000D03*
%TD*%
%TO.C,H46*%
X32500000Y-58500000D03*
%TD*%
%TO.C,H47*%
X51500000Y-58500000D03*
%TD*%
D12*
%TO.C,H3*%
X26550000Y-147250000D03*
%TD*%
D13*
%TO.C,H11*%
X58000000Y-116000000D03*
%TD*%
D11*
%TO.C,H38*%
X115250000Y-99250000D03*
%TD*%
%TO.C,H33*%
X60250000Y-99250000D03*
%TD*%
D13*
%TO.C,H19*%
X82000000Y-132000000D03*
%TD*%
D11*
%TO.C,H31*%
X40250000Y-99250000D03*
%TD*%
D12*
%TO.C,H5*%
X24000000Y-48000000D03*
%TD*%
D13*
%TO.C,H15*%
X34000000Y-132000000D03*
%TD*%
D11*
%TO.C,H24*%
X70250000Y-75250000D03*
%TD*%
D13*
%TO.C,H48*%
X70500000Y-58500000D03*
%TD*%
%TO.C,H40*%
X32500000Y-38500000D03*
%TD*%
D12*
%TO.C,H7*%
X24000000Y-120000000D03*
%TD*%
D11*
%TO.C,H34*%
X70250000Y-99250000D03*
%TD*%
%TO.C,H28*%
X60250000Y-87250000D03*
%TD*%
D12*
%TO.C,H2*%
X133450000Y-24750000D03*
%TD*%
D13*
%TO.C,H51*%
X127500000Y-58500000D03*
%TD*%
D11*
%TO.C,H27*%
X50250000Y-87250000D03*
%TD*%
D13*
%TO.C,H43*%
X89500000Y-38500000D03*
%TD*%
%TO.C,H50*%
X108500000Y-58500000D03*
%TD*%
D11*
%TO.C,H25*%
X80250000Y-75250000D03*
%TD*%
D12*
%TO.C,H53*%
X108250000Y-120550000D03*
%TD*%
%TO.C,H8*%
X136000000Y-120000000D03*
%TD*%
D13*
%TO.C,H10*%
X46000000Y-116000000D03*
%TD*%
D11*
%TO.C,H32*%
X50250000Y-99250000D03*
%TD*%
%TO.C,H26*%
X40250000Y-87250000D03*
%TD*%
D13*
%TO.C,H13*%
X82000000Y-116000000D03*
%TD*%
D11*
%TO.C,H21*%
X40250000Y-75250000D03*
%TD*%
%TO.C,H30*%
X80250000Y-87250000D03*
%TD*%
D12*
%TO.C,H1*%
X26550000Y-24750000D03*
%TD*%
D11*
%TO.C,H22*%
X50250000Y-75250000D03*
%TD*%
D12*
%TO.C,H55*%
X108250000Y-131650000D03*
%TD*%
D11*
%TO.C,H36*%
X95250000Y-99250000D03*
%TD*%
D13*
%TO.C,H49*%
X89500000Y-58500000D03*
%TD*%
%TO.C,H44*%
X108500000Y-38500000D03*
%TD*%
D11*
%TO.C,H29*%
X70250000Y-87250000D03*
%TD*%
M02*
