%TF.GenerationSoftware,KiCad,Pcbnew,9.0.1*%
%TF.CreationDate,2025-08-18T10:47:35+01:00*%
%TF.ProjectId,dk2_06,646b325f-3036-42e6-9b69-6361645f7063,rev?*%
%TF.SameCoordinates,Original*%
%TF.FileFunction,Copper,L4,Bot*%
%TF.FilePolarity,Positive*%
%FSLAX46Y46*%
G04 Gerber Fmt 4.6, Leading zero omitted, Abs format (unit mm)*
G04 Created by KiCad (PCBNEW 9.0.1) date 2025-08-18 10:47:35*
%MOMM*%
%LPD*%
G01*
G04 APERTURE LIST*
G04 Aperture macros list*
%AMRoundRect*
0 Rectangle with rounded corners*
0 $1 Rounding radius*
0 $2 $3 $4 $5 $6 $7 $8 $9 X,Y pos of 4 corners*
0 Add a 4 corners polygon primitive as box body*
4,1,4,$2,$3,$4,$5,$6,$7,$8,$9,$2,$3,0*
0 Add four circle primitives for the rounded corners*
1,1,$1+$1,$2,$3*
1,1,$1+$1,$4,$5*
1,1,$1+$1,$6,$7*
1,1,$1+$1,$8,$9*
0 Add four rect primitives between the rounded corners*
20,1,$1+$1,$2,$3,$4,$5,0*
20,1,$1+$1,$4,$5,$6,$7,0*
20,1,$1+$1,$6,$7,$8,$9,0*
20,1,$1+$1,$8,$9,$2,$3,0*%
G04 Aperture macros list end*
%TA.AperFunction,ComponentPad*%
%ADD10C,2.000000*%
%TD*%
%TA.AperFunction,ComponentPad*%
%ADD11O,2.720000X3.240000*%
%TD*%
%TA.AperFunction,ComponentPad*%
%ADD12R,1.800000X1.800000*%
%TD*%
%TA.AperFunction,ComponentPad*%
%ADD13C,1.800000*%
%TD*%
%TA.AperFunction,ComponentPad*%
%ADD14O,3.100000X2.300000*%
%TD*%
%TA.AperFunction,ComponentPad*%
%ADD15RoundRect,0.650000X-0.650000X-0.650000X0.650000X-0.650000X0.650000X0.650000X-0.650000X0.650000X0*%
%TD*%
%TA.AperFunction,ComponentPad*%
%ADD16R,1.500000X1.500000*%
%TD*%
%TA.AperFunction,ComponentPad*%
%ADD17C,1.500000*%
%TD*%
%TA.AperFunction,ComponentPad*%
%ADD18C,1.050000*%
%TD*%
%TA.AperFunction,ComponentPad*%
%ADD19R,1.350000X1.350000*%
%TD*%
%TA.AperFunction,SMDPad,CuDef*%
%ADD20RoundRect,0.200000X0.200000X0.275000X-0.200000X0.275000X-0.200000X-0.275000X0.200000X-0.275000X0*%
%TD*%
%TA.AperFunction,SMDPad,CuDef*%
%ADD21RoundRect,0.150000X-0.587500X-0.150000X0.587500X-0.150000X0.587500X0.150000X-0.587500X0.150000X0*%
%TD*%
%TA.AperFunction,SMDPad,CuDef*%
%ADD22RoundRect,0.225000X0.250000X-0.225000X0.250000X0.225000X-0.250000X0.225000X-0.250000X-0.225000X0*%
%TD*%
%TA.AperFunction,SMDPad,CuDef*%
%ADD23RoundRect,0.225000X0.225000X0.250000X-0.225000X0.250000X-0.225000X-0.250000X0.225000X-0.250000X0*%
%TD*%
%TA.AperFunction,SMDPad,CuDef*%
%ADD24RoundRect,0.200000X-0.200000X-0.275000X0.200000X-0.275000X0.200000X0.275000X-0.200000X0.275000X0*%
%TD*%
%TA.AperFunction,SMDPad,CuDef*%
%ADD25RoundRect,0.200000X-0.275000X0.200000X-0.275000X-0.200000X0.275000X-0.200000X0.275000X0.200000X0*%
%TD*%
%TA.AperFunction,SMDPad,CuDef*%
%ADD26RoundRect,0.250000X-0.550000X1.500000X-0.550000X-1.500000X0.550000X-1.500000X0.550000X1.500000X0*%
%TD*%
%TA.AperFunction,SMDPad,CuDef*%
%ADD27RoundRect,0.150000X-0.150000X0.825000X-0.150000X-0.825000X0.150000X-0.825000X0.150000X0.825000X0*%
%TD*%
%TA.AperFunction,SMDPad,CuDef*%
%ADD28RoundRect,0.225000X-0.225000X-0.250000X0.225000X-0.250000X0.225000X0.250000X-0.225000X0.250000X0*%
%TD*%
%TA.AperFunction,SMDPad,CuDef*%
%ADD29RoundRect,0.200000X0.275000X-0.200000X0.275000X0.200000X-0.275000X0.200000X-0.275000X-0.200000X0*%
%TD*%
%TA.AperFunction,SMDPad,CuDef*%
%ADD30RoundRect,0.225000X-0.250000X0.225000X-0.250000X-0.225000X0.250000X-0.225000X0.250000X0.225000X0*%
%TD*%
%TA.AperFunction,SMDPad,CuDef*%
%ADD31RoundRect,0.250000X-0.325000X-1.100000X0.325000X-1.100000X0.325000X1.100000X-0.325000X1.100000X0*%
%TD*%
%TA.AperFunction,SMDPad,CuDef*%
%ADD32RoundRect,0.150000X0.825000X0.150000X-0.825000X0.150000X-0.825000X-0.150000X0.825000X-0.150000X0*%
%TD*%
%TA.AperFunction,SMDPad,CuDef*%
%ADD33RoundRect,0.250000X0.550000X-1.500000X0.550000X1.500000X-0.550000X1.500000X-0.550000X-1.500000X0*%
%TD*%
%TA.AperFunction,SMDPad,CuDef*%
%ADD34RoundRect,0.100000X-0.637500X-0.100000X0.637500X-0.100000X0.637500X0.100000X-0.637500X0.100000X0*%
%TD*%
%TA.AperFunction,SMDPad,CuDef*%
%ADD35RoundRect,0.112500X0.112500X-0.187500X0.112500X0.187500X-0.112500X0.187500X-0.112500X-0.187500X0*%
%TD*%
%TA.AperFunction,SMDPad,CuDef*%
%ADD36RoundRect,0.150000X0.150000X-0.825000X0.150000X0.825000X-0.150000X0.825000X-0.150000X-0.825000X0*%
%TD*%
%TA.AperFunction,SMDPad,CuDef*%
%ADD37RoundRect,0.150000X-0.825000X-0.150000X0.825000X-0.150000X0.825000X0.150000X-0.825000X0.150000X0*%
%TD*%
%TA.AperFunction,ComponentPad*%
%ADD38R,1.700000X1.700000*%
%TD*%
%TA.AperFunction,ComponentPad*%
%ADD39C,1.700000*%
%TD*%
%TA.AperFunction,SMDPad,CuDef*%
%ADD40RoundRect,0.250000X0.250000X0.475000X-0.250000X0.475000X-0.250000X-0.475000X0.250000X-0.475000X0*%
%TD*%
%TA.AperFunction,ComponentPad*%
%ADD41RoundRect,0.250000X-0.600000X-0.600000X0.600000X-0.600000X0.600000X0.600000X-0.600000X0.600000X0*%
%TD*%
%TA.AperFunction,SMDPad,CuDef*%
%ADD42RoundRect,0.250000X1.000000X0.650000X-1.000000X0.650000X-1.000000X-0.650000X1.000000X-0.650000X0*%
%TD*%
%TA.AperFunction,SMDPad,CuDef*%
%ADD43RoundRect,0.250000X2.600000X-0.600000X2.600000X0.600000X-2.600000X0.600000X-2.600000X-0.600000X0*%
%TD*%
%TA.AperFunction,ViaPad*%
%ADD44C,0.800000*%
%TD*%
%TA.AperFunction,Conductor*%
%ADD45C,0.250000*%
%TD*%
%TA.AperFunction,Conductor*%
%ADD46C,0.500000*%
%TD*%
G04 APERTURE END LIST*
D10*
%TO.P,SW10,1,1*%
%TO.N,+3.3V*%
X119250000Y-95250000D03*
X125750000Y-95250000D03*
%TO.P,SW10,2,2*%
%TO.N,Net-(U5-D1)*%
X119250000Y-99750000D03*
X125750000Y-99750000D03*
%TD*%
%TO.P,SW8,1,1*%
%TO.N,+3.3V*%
X99250000Y-95250000D03*
X105750000Y-95250000D03*
%TO.P,SW8,2,2*%
%TO.N,Net-(U4-D7)*%
X99250000Y-99750000D03*
X105750000Y-99750000D03*
%TD*%
D11*
%TO.P,RV3,*%
%TO.N,*%
X115200000Y-45500000D03*
X124800000Y-45500000D03*
D12*
%TO.P,RV3,1,1*%
%TO.N,+3.3V*%
X117500000Y-53000000D03*
D13*
%TO.P,RV3,2,2*%
%TO.N,Net-(U6-A2)*%
X120000000Y-53000000D03*
%TO.P,RV3,3,3*%
%TO.N,GND*%
X122500000Y-53000000D03*
%TD*%
D14*
%TO.P,J1,S*%
%TO.N,GND*%
X96000000Y-130400000D03*
D15*
%TO.P,J1,T*%
%TO.N,TRIGGER_OUT_1_EURO*%
X96000000Y-119000000D03*
%TO.P,J1,TN*%
%TO.N,unconnected-(J1-PadTN)*%
X96000000Y-127300000D03*
%TD*%
D14*
%TO.P,J12,S*%
%TO.N,GND*%
X132000000Y-130400000D03*
D15*
%TO.P,J12,T*%
%TO.N,Net-(J12-PadT)*%
X132000000Y-119000000D03*
%TO.P,J12,TN*%
%TO.N,GND*%
X132000000Y-127300000D03*
%TD*%
D11*
%TO.P,RV8,*%
%TO.N,*%
X135200000Y-67500000D03*
X144800000Y-67500000D03*
D12*
%TO.P,RV8,1,1*%
%TO.N,+3.3V*%
X137500000Y-75000000D03*
D13*
%TO.P,RV8,2,2*%
%TO.N,Net-(U6-A7)*%
X140000000Y-75000000D03*
%TO.P,RV8,3,3*%
%TO.N,GND*%
X142500000Y-75000000D03*
%TD*%
D14*
%TO.P,J11,S*%
%TO.N,GND*%
X120000000Y-130400000D03*
D15*
%TO.P,J11,T*%
%TO.N,Net-(J11-PadT)*%
X120000000Y-119000000D03*
%TO.P,J11,TN*%
%TO.N,GND*%
X120000000Y-127300000D03*
%TD*%
D10*
%TO.P,SW19,1,1*%
%TO.N,+3.3V*%
X174250000Y-107250000D03*
X180750000Y-107250000D03*
%TO.P,SW19,2,2*%
%TO.N,Net-(U10-D2)*%
X174250000Y-111750000D03*
X180750000Y-111750000D03*
%TD*%
D14*
%TO.P,J9,S*%
%TO.N,GND*%
X144000000Y-146400000D03*
D15*
%TO.P,J9,T*%
%TO.N,EURO_OUT_2*%
X144000000Y-135000000D03*
%TO.P,J9,TN*%
%TO.N,unconnected-(J9-PadTN)*%
X144000000Y-143300000D03*
%TD*%
D11*
%TO.P,RV4,*%
%TO.N,*%
X135200000Y-45500000D03*
X144800000Y-45500000D03*
D12*
%TO.P,RV4,1,1*%
%TO.N,+3.3V*%
X137500000Y-53000000D03*
D13*
%TO.P,RV4,2,2*%
%TO.N,Net-(U6-A3)*%
X140000000Y-53000000D03*
%TO.P,RV4,3,3*%
%TO.N,GND*%
X142500000Y-53000000D03*
%TD*%
D10*
%TO.P,SW3,1,1*%
%TO.N,+3.3V*%
X99250000Y-83250000D03*
X105750000Y-83250000D03*
%TO.P,SW3,2,2*%
%TO.N,Net-(U4-D2)*%
X99250000Y-87750000D03*
X105750000Y-87750000D03*
%TD*%
D11*
%TO.P,RV1,*%
%TO.N,*%
X75200000Y-45500000D03*
X84800000Y-45500000D03*
D12*
%TO.P,RV1,1,1*%
%TO.N,+3.3V*%
X77500000Y-53000000D03*
D13*
%TO.P,RV1,2,2*%
%TO.N,Net-(U6-A0)*%
X80000000Y-53000000D03*
%TO.P,RV1,3,3*%
%TO.N,GND*%
X82500000Y-53000000D03*
%TD*%
D11*
%TO.P,RV10,*%
%TO.N,*%
X175200000Y-45500000D03*
X184800000Y-45500000D03*
D12*
%TO.P,RV10,1,1*%
%TO.N,+3.3V*%
X177500000Y-53000000D03*
D13*
%TO.P,RV10,2,2*%
%TO.N,Net-(U9-A1)*%
X180000000Y-53000000D03*
%TO.P,RV10,3,3*%
%TO.N,GND*%
X182500000Y-53000000D03*
%TD*%
D14*
%TO.P,J3,S*%
%TO.N,GND*%
X84000000Y-130400000D03*
D15*
%TO.P,J3,T*%
%TO.N,SYNC_IN_EURO*%
X84000000Y-119000000D03*
%TO.P,J3,TN*%
%TO.N,unconnected-(J3-PadTN)*%
X84000000Y-127300000D03*
%TD*%
D10*
%TO.P,SW9,1,1*%
%TO.N,+3.3V*%
X109250000Y-95250000D03*
X115750000Y-95250000D03*
%TO.P,SW9,2,2*%
%TO.N,Net-(U5-D0)*%
X109250000Y-99750000D03*
X115750000Y-99750000D03*
%TD*%
D14*
%TO.P,J13,S*%
%TO.N,GND*%
X120000000Y-146400000D03*
D15*
%TO.P,J13,T*%
%TO.N,Net-(J13-PadT)*%
X120000000Y-135000000D03*
%TO.P,J13,TN*%
%TO.N,GND*%
X120000000Y-143300000D03*
%TD*%
D14*
%TO.P,J14,S*%
%TO.N,GND*%
X132000000Y-146400000D03*
D15*
%TO.P,J14,T*%
%TO.N,Net-(J14-PadT)*%
X132000000Y-135000000D03*
%TO.P,J14,TN*%
%TO.N,GND*%
X132000000Y-143300000D03*
%TD*%
D10*
%TO.P,SW6,1,1*%
%TO.N,+3.3V*%
X79250000Y-95250000D03*
X85750000Y-95250000D03*
%TO.P,SW6,2,2*%
%TO.N,Net-(U4-D5)*%
X79250000Y-99750000D03*
X85750000Y-99750000D03*
%TD*%
D11*
%TO.P,RV7,*%
%TO.N,*%
X115200000Y-67500000D03*
X124800000Y-67500000D03*
D12*
%TO.P,RV7,1,1*%
%TO.N,+3.3V*%
X117500000Y-75000000D03*
D13*
%TO.P,RV7,2,2*%
%TO.N,Net-(U6-A6)*%
X120000000Y-75000000D03*
%TO.P,RV7,3,3*%
%TO.N,GND*%
X122500000Y-75000000D03*
%TD*%
D10*
%TO.P,SW17,1,1*%
%TO.N,+3.3V*%
X154250000Y-107250000D03*
X160750000Y-107250000D03*
%TO.P,SW17,2,2*%
%TO.N,Net-(U10-D0)*%
X154250000Y-111750000D03*
X160750000Y-111750000D03*
%TD*%
%TO.P,SW1,1,1*%
%TO.N,+3.3V*%
X79250000Y-83250000D03*
X85750000Y-83250000D03*
%TO.P,SW1,2,2*%
%TO.N,Net-(U4-D0)*%
X79250000Y-87750000D03*
X85750000Y-87750000D03*
%TD*%
D16*
%TO.P,U3,1,e*%
%TO.N,Net-(U3-e)*%
X156150000Y-97810000D03*
D17*
%TO.P,U3,2,d*%
%TO.N,Net-(U3-d)*%
X158690000Y-97810000D03*
%TO.P,U3,3,DPX*%
%TO.N,Net-(U3-DPX)*%
X161230000Y-97810000D03*
%TO.P,U3,4,c*%
%TO.N,Net-(U3-c)*%
X163770000Y-97810000D03*
%TO.P,U3,5,g*%
%TO.N,Net-(U3-g)*%
X166310000Y-97810000D03*
%TO.P,U3,6,CA4*%
%TO.N,Net-(U2-QD)*%
X168850000Y-97810000D03*
%TO.P,U3,7,b*%
%TO.N,Net-(U3-b)*%
X168850000Y-87650000D03*
%TO.P,U3,8,CA3*%
%TO.N,Net-(U2-QC)*%
X166310000Y-87650000D03*
%TO.P,U3,9,CA2*%
%TO.N,Net-(U2-QB)*%
X163770000Y-87650000D03*
%TO.P,U3,10,f*%
%TO.N,Net-(U3-f)*%
X161230000Y-87650000D03*
%TO.P,U3,11,a*%
%TO.N,Net-(U3-a)*%
X158690000Y-87650000D03*
%TO.P,U3,12,CA1*%
%TO.N,Net-(U2-QA)*%
X156150000Y-87650000D03*
%TD*%
D18*
%TO.P,J5,1,DAT2*%
%TO.N,unconnected-(J5-DAT2-Pad1)*%
X181550000Y-96550000D03*
%TO.P,J5,2,DAT3/CD*%
%TO.N,SD_CHIP_SELECT*%
X180450000Y-95450000D03*
%TO.P,J5,3,CMD*%
%TO.N,SD_SERIAL_IN*%
X181550000Y-94350000D03*
%TO.P,J5,4,VDD*%
%TO.N,+3.3V*%
X180450000Y-93250000D03*
%TO.P,J5,5,CLK*%
%TO.N,SD_CLOCK*%
X181550000Y-92150000D03*
%TO.P,J5,6,VSS*%
%TO.N,GND*%
X180450000Y-91050000D03*
%TO.P,J5,7,DAT0*%
%TO.N,SD_SERIAL_OUT*%
X181550000Y-89950000D03*
%TO.P,J5,8,DAT1*%
%TO.N,unconnected-(J5-DAT1-Pad8)*%
X180450000Y-88850000D03*
D19*
%TO.P,J5,9,SHIELD*%
%TO.N,GND*%
X184720000Y-97000000D03*
X184720000Y-88400000D03*
%TD*%
D12*
%TO.P,D3,1,K*%
%TO.N,GND*%
X155725000Y-134600000D03*
D13*
%TO.P,D3,2,A*%
%TO.N,Net-(D3-A)*%
X158265000Y-134600000D03*
%TD*%
D11*
%TO.P,RV11,*%
%TO.N,*%
X155200000Y-67500000D03*
X164800000Y-67500000D03*
D12*
%TO.P,RV11,1,1*%
%TO.N,+3.3V*%
X157500000Y-75000000D03*
D13*
%TO.P,RV11,2,2*%
%TO.N,Net-(U9-A2)*%
X160000000Y-75000000D03*
%TO.P,RV11,3,3*%
%TO.N,GND*%
X162500000Y-75000000D03*
%TD*%
D11*
%TO.P,RV9,*%
%TO.N,*%
X155200000Y-45500000D03*
X164800000Y-45500000D03*
D12*
%TO.P,RV9,1,1*%
%TO.N,+3.3V*%
X157500000Y-53000000D03*
D13*
%TO.P,RV9,2,2*%
%TO.N,Net-(U9-A0)*%
X160000000Y-53000000D03*
%TO.P,RV9,3,3*%
%TO.N,GND*%
X162500000Y-53000000D03*
%TD*%
D14*
%TO.P,J6,S*%
%TO.N,GND*%
X96000000Y-146400000D03*
D15*
%TO.P,J6,T*%
%TO.N,TRIGGER_OUT_3_EURO*%
X96000000Y-135000000D03*
%TO.P,J6,TN*%
%TO.N,unconnected-(J6-PadTN)*%
X96000000Y-143300000D03*
%TD*%
D10*
%TO.P,SW15,1,1*%
%TO.N,+3.3V*%
X119250000Y-107250000D03*
X125750000Y-107250000D03*
%TO.P,SW15,2,2*%
%TO.N,Net-(U5-D6)*%
X119250000Y-111750000D03*
X125750000Y-111750000D03*
%TD*%
%TO.P,SW13,1,1*%
%TO.N,+3.3V*%
X99250000Y-107250000D03*
X105750000Y-107250000D03*
%TO.P,SW13,2,2*%
%TO.N,Net-(U5-D4)*%
X99250000Y-111750000D03*
X105750000Y-111750000D03*
%TD*%
%TO.P,SW18,1,1*%
%TO.N,+3.3V*%
X164250000Y-107250000D03*
X170750000Y-107250000D03*
%TO.P,SW18,2,2*%
%TO.N,Net-(U10-D1)*%
X164250000Y-111750000D03*
X170750000Y-111750000D03*
%TD*%
%TO.P,SW11,1,1*%
%TO.N,+3.3V*%
X79250000Y-107250000D03*
X85750000Y-107250000D03*
%TO.P,SW11,2,2*%
%TO.N,Net-(U5-D2)*%
X79250000Y-111750000D03*
X85750000Y-111750000D03*
%TD*%
%TO.P,SW2,1,1*%
%TO.N,+3.3V*%
X89250000Y-83250000D03*
X95750000Y-83250000D03*
%TO.P,SW2,2,2*%
%TO.N,Net-(U4-D1)*%
X89250000Y-87750000D03*
X95750000Y-87750000D03*
%TD*%
%TO.P,SW7,1,1*%
%TO.N,+3.3V*%
X89250000Y-95250000D03*
X95750000Y-95250000D03*
%TO.P,SW7,2,2*%
%TO.N,Net-(U4-D6)*%
X89250000Y-99750000D03*
X95750000Y-99750000D03*
%TD*%
D12*
%TO.P,D2,1,K*%
%TO.N,GND*%
X155725000Y-129050000D03*
D13*
%TO.P,D2,2,A*%
%TO.N,Net-(D2-A)*%
X158265000Y-129050000D03*
%TD*%
D12*
%TO.P,D1,1,K*%
%TO.N,GND*%
X155725000Y-123500000D03*
D13*
%TO.P,D1,2,A*%
%TO.N,Net-(D1-A)*%
X158265000Y-123500000D03*
%TD*%
D14*
%TO.P,J4,S*%
%TO.N,GND*%
X144000000Y-130400000D03*
D15*
%TO.P,J4,T*%
%TO.N,EURO_OUT_1*%
X144000000Y-119000000D03*
%TO.P,J4,TN*%
%TO.N,unconnected-(J4-PadTN)*%
X144000000Y-127300000D03*
%TD*%
D10*
%TO.P,SW12,1,1*%
%TO.N,+3.3V*%
X89250000Y-107250000D03*
X95750000Y-107250000D03*
%TO.P,SW12,2,2*%
%TO.N,Net-(U5-D3)*%
X89250000Y-111750000D03*
X95750000Y-111750000D03*
%TD*%
D12*
%TO.P,D4,1,K*%
%TO.N,GND*%
X155725000Y-140150000D03*
D13*
%TO.P,D4,2,A*%
%TO.N,Net-(D4-A)*%
X158265000Y-140150000D03*
%TD*%
D10*
%TO.P,SW4,1,1*%
%TO.N,+3.3V*%
X109250000Y-83250000D03*
X115750000Y-83250000D03*
%TO.P,SW4,2,2*%
%TO.N,Net-(U4-D3)*%
X109250000Y-87750000D03*
X115750000Y-87750000D03*
%TD*%
D11*
%TO.P,RV12,*%
%TO.N,*%
X175200000Y-67500000D03*
X184800000Y-67500000D03*
D12*
%TO.P,RV12,1,1*%
%TO.N,+3.3V*%
X177500000Y-75000000D03*
D13*
%TO.P,RV12,2,2*%
%TO.N,Net-(U9-A3)*%
X180000000Y-75000000D03*
%TO.P,RV12,3,3*%
%TO.N,GND*%
X182500000Y-75000000D03*
%TD*%
D14*
%TO.P,J7,S*%
%TO.N,GND*%
X108000000Y-146400000D03*
D15*
%TO.P,J7,T*%
%TO.N,TRIGGER_OUT_4_EURO*%
X108000000Y-135000000D03*
%TO.P,J7,TN*%
%TO.N,unconnected-(J7-PadTN)*%
X108000000Y-143300000D03*
%TD*%
D11*
%TO.P,RV6,*%
%TO.N,*%
X95200000Y-67500000D03*
X104800000Y-67500000D03*
D12*
%TO.P,RV6,1,1*%
%TO.N,+3.3V*%
X97500000Y-75000000D03*
D13*
%TO.P,RV6,2,2*%
%TO.N,Net-(U6-A5)*%
X100000000Y-75000000D03*
%TO.P,RV6,3,3*%
%TO.N,GND*%
X102500000Y-75000000D03*
%TD*%
D14*
%TO.P,J2,S*%
%TO.N,GND*%
X108000000Y-130400000D03*
D15*
%TO.P,J2,T*%
%TO.N,TRIGGER_OUT_2_EURO*%
X108000000Y-119000000D03*
%TO.P,J2,TN*%
%TO.N,unconnected-(J2-PadTN)*%
X108000000Y-127300000D03*
%TD*%
D11*
%TO.P,RV5,*%
%TO.N,*%
X75200000Y-67500000D03*
X84800000Y-67500000D03*
D12*
%TO.P,RV5,1,1*%
%TO.N,+3.3V*%
X77500000Y-75000000D03*
D13*
%TO.P,RV5,2,2*%
%TO.N,Net-(U6-A4)*%
X80000000Y-75000000D03*
%TO.P,RV5,3,3*%
%TO.N,GND*%
X82500000Y-75000000D03*
%TD*%
D10*
%TO.P,SW5,1,1*%
%TO.N,+3.3V*%
X119250000Y-83250000D03*
X125750000Y-83250000D03*
%TO.P,SW5,2,2*%
%TO.N,Net-(U4-D4)*%
X119250000Y-87750000D03*
X125750000Y-87750000D03*
%TD*%
D11*
%TO.P,RV2,*%
%TO.N,*%
X95200000Y-45500000D03*
X104800000Y-45500000D03*
D12*
%TO.P,RV2,1,1*%
%TO.N,+3.3V*%
X97500000Y-53000000D03*
D13*
%TO.P,RV2,2,2*%
%TO.N,Net-(U6-A1)*%
X100000000Y-53000000D03*
%TO.P,RV2,3,3*%
%TO.N,GND*%
X102500000Y-53000000D03*
%TD*%
D10*
%TO.P,SW16,1,1*%
%TO.N,+3.3V*%
X144250000Y-107250000D03*
X150750000Y-107250000D03*
%TO.P,SW16,2,2*%
%TO.N,Net-(U5-D7)*%
X144250000Y-111750000D03*
X150750000Y-111750000D03*
%TD*%
D14*
%TO.P,J8,S*%
%TO.N,GND*%
X84000000Y-146400000D03*
D15*
%TO.P,J8,T*%
%TO.N,SYNC_OUT_EURO*%
X84000000Y-135000000D03*
%TO.P,J8,TN*%
%TO.N,unconnected-(J8-PadTN)*%
X84000000Y-143300000D03*
%TD*%
D10*
%TO.P,SW14,1,1*%
%TO.N,+3.3V*%
X109250000Y-107250000D03*
X115750000Y-107250000D03*
%TO.P,SW14,2,2*%
%TO.N,Net-(U5-D5)*%
X109250000Y-111750000D03*
X115750000Y-111750000D03*
%TD*%
D20*
%TO.P,R23,1*%
%TO.N,Net-(U5-D2)*%
X83250000Y-109250000D03*
%TO.P,R23,2*%
%TO.N,GND*%
X81600000Y-109250000D03*
%TD*%
%TO.P,R27,1*%
%TO.N,Net-(U5-D6)*%
X123250000Y-109250000D03*
%TO.P,R27,2*%
%TO.N,GND*%
X121600000Y-109250000D03*
%TD*%
D21*
%TO.P,U11,1,VI*%
%TO.N,+5V*%
X132375000Y-98700000D03*
%TO.P,U11,2,VO*%
%TO.N,+3.3VDAC*%
X132375000Y-96800000D03*
%TO.P,U11,3,GND*%
%TO.N,GND*%
X134250000Y-97750000D03*
%TD*%
D22*
%TO.P,C31,1*%
%TO.N,Net-(U14-LDOO)*%
X149000000Y-94525000D03*
%TO.P,C31,2*%
%TO.N,GND*%
X149000000Y-92975000D03*
%TD*%
D23*
%TO.P,C7,1*%
%TO.N,Net-(D5-K)*%
X181525000Y-142250000D03*
%TO.P,C7,2*%
%TO.N,Net-(U12-BOOT)*%
X179975000Y-142250000D03*
%TD*%
D24*
%TO.P,R29,1*%
%TO.N,-12V*%
X125175000Y-127750000D03*
%TO.P,R29,2*%
%TO.N,Net-(U7A--)*%
X126825000Y-127750000D03*
%TD*%
%TO.P,R72,1*%
%TO.N,Net-(R72-Pad1)*%
X71675000Y-136250000D03*
%TO.P,R72,2*%
%TO.N,Net-(U16B--)*%
X73325000Y-136250000D03*
%TD*%
D25*
%TO.P,R1,1*%
%TO.N,Net-(D1-A)*%
X160250000Y-122925000D03*
%TO.P,R1,2*%
%TO.N,Net-(U2-QE)*%
X160250000Y-124575000D03*
%TD*%
D20*
%TO.P,R22,1*%
%TO.N,Net-(U5-D1)*%
X123250000Y-97250000D03*
%TO.P,R22,2*%
%TO.N,GND*%
X121600000Y-97250000D03*
%TD*%
D22*
%TO.P,C36,1*%
%TO.N,+12V*%
X77500000Y-121275000D03*
%TO.P,C36,2*%
%TO.N,-12V*%
X77500000Y-119725000D03*
%TD*%
D20*
%TO.P,R61,1*%
%TO.N,Net-(U14-OUTR)*%
X134575000Y-93250000D03*
%TO.P,R61,2*%
%TO.N,LINE_OUT_R*%
X132925000Y-93250000D03*
%TD*%
%TO.P,R17,1*%
%TO.N,Net-(U4-D4)*%
X123250000Y-85250000D03*
%TO.P,R17,2*%
%TO.N,GND*%
X121600000Y-85250000D03*
%TD*%
D24*
%TO.P,R64,1*%
%TO.N,Net-(U15B--)*%
X74925000Y-125250000D03*
%TO.P,R64,2*%
%TO.N,GND*%
X76575000Y-125250000D03*
%TD*%
D20*
%TO.P,R18,1*%
%TO.N,Net-(U4-D5)*%
X83250000Y-97250000D03*
%TO.P,R18,2*%
%TO.N,GND*%
X81600000Y-97250000D03*
%TD*%
D24*
%TO.P,R75,1*%
%TO.N,Net-(R73-Pad1)*%
X91425000Y-135000000D03*
%TO.P,R75,2*%
%TO.N,TRIGGER_OUT_3_EURO*%
X93075000Y-135000000D03*
%TD*%
D26*
%TO.P,C14,1*%
%TO.N,+5V*%
X178000000Y-125800000D03*
%TO.P,C14,2*%
%TO.N,GND*%
X178000000Y-131200000D03*
%TD*%
D24*
%TO.P,R76,1*%
%TO.N,Net-(U17A--)*%
X78175000Y-138000000D03*
%TO.P,R76,2*%
%TO.N,GND*%
X79825000Y-138000000D03*
%TD*%
D23*
%TO.P,C8,1*%
%TO.N,Net-(U12-SS)*%
X173775000Y-137250000D03*
%TO.P,C8,2*%
%TO.N,GND*%
X172225000Y-137250000D03*
%TD*%
D27*
%TO.P,U17,1*%
%TO.N,Net-(R77-Pad1)*%
X71845000Y-140275000D03*
%TO.P,U17,2,-*%
%TO.N,Net-(U17A--)*%
X73115000Y-140275000D03*
%TO.P,U17,3,+*%
%TO.N,SYNC_OUT*%
X74385000Y-140275000D03*
%TO.P,U17,4,V-*%
%TO.N,-12V*%
X75655000Y-140275000D03*
%TO.P,U17,5,+*%
%TO.N,GND*%
X75655000Y-145225000D03*
%TO.P,U17,6,-*%
%TO.N,Net-(U17B--)*%
X74385000Y-145225000D03*
%TO.P,U17,7*%
X73115000Y-145225000D03*
%TO.P,U17,8,V+*%
%TO.N,+12V*%
X71845000Y-145225000D03*
%TD*%
D24*
%TO.P,R65,1*%
%TO.N,Net-(U15A--)*%
X74925000Y-115750000D03*
%TO.P,R65,2*%
%TO.N,GND*%
X76575000Y-115750000D03*
%TD*%
D20*
%TO.P,R43,1*%
%TO.N,Net-(U10-D0)*%
X158325000Y-109500000D03*
%TO.P,R43,2*%
%TO.N,GND*%
X156675000Y-109500000D03*
%TD*%
D28*
%TO.P,C10,1*%
%TO.N,Net-(C10-Pad1)*%
X183475000Y-141500000D03*
%TO.P,C10,2*%
%TO.N,GND*%
X185025000Y-141500000D03*
%TD*%
D29*
%TO.P,R11,1*%
%TO.N,Net-(U3-d)*%
X157750000Y-95075000D03*
%TO.P,R11,2*%
%TO.N,Net-(U1-QD)*%
X157750000Y-93425000D03*
%TD*%
D30*
%TO.P,C27,1*%
%TO.N,Net-(U14-VNEG)*%
X136500000Y-93225000D03*
%TO.P,C27,2*%
%TO.N,GND*%
X136500000Y-94775000D03*
%TD*%
D22*
%TO.P,C25,1*%
%TO.N,+3.3VDAC*%
X135750000Y-91525000D03*
%TO.P,C25,2*%
%TO.N,GND*%
X135750000Y-89975000D03*
%TD*%
D20*
%TO.P,R35,1*%
%TO.N,-12V*%
X126825000Y-143500000D03*
%TO.P,R35,2*%
%TO.N,Net-(U8A--)*%
X125175000Y-143500000D03*
%TD*%
D25*
%TO.P,R9,1*%
%TO.N,Net-(U3-b)*%
X163000000Y-90175000D03*
%TO.P,R9,2*%
%TO.N,Net-(U1-QB)*%
X163000000Y-91825000D03*
%TD*%
D23*
%TO.P,C5,1*%
%TO.N,+5V*%
X130525000Y-98500000D03*
%TO.P,C5,2*%
%TO.N,GND*%
X128975000Y-98500000D03*
%TD*%
D28*
%TO.P,C19,1*%
%TO.N,+12V*%
X140225000Y-114750000D03*
%TO.P,C19,2*%
%TO.N,GND*%
X141775000Y-114750000D03*
%TD*%
D29*
%TO.P,R5,1*%
%TO.N,Net-(U3-e)*%
X156090000Y-95075000D03*
%TO.P,R5,2*%
%TO.N,Net-(U1-QE)*%
X156090000Y-93425000D03*
%TD*%
D31*
%TO.P,C12,1*%
%TO.N,Net-(D6-A)*%
X183525000Y-135250000D03*
%TO.P,C12,2*%
%TO.N,GND*%
X186475000Y-135250000D03*
%TD*%
D20*
%TO.P,R26,1*%
%TO.N,Net-(U5-D5)*%
X113250000Y-109250000D03*
%TO.P,R26,2*%
%TO.N,GND*%
X111600000Y-109250000D03*
%TD*%
%TO.P,R44,1*%
%TO.N,Net-(U10-D1)*%
X168325000Y-109500000D03*
%TO.P,R44,2*%
%TO.N,GND*%
X166675000Y-109500000D03*
%TD*%
D32*
%TO.P,U6,1,A4*%
%TO.N,Net-(U6-A4)*%
X92375000Y-54255000D03*
%TO.P,U6,2,A6*%
%TO.N,Net-(U6-A6)*%
X92375000Y-55525000D03*
%TO.P,U6,3,A*%
%TO.N,4051_READING_0*%
X92375000Y-56795000D03*
%TO.P,U6,4,A7*%
%TO.N,Net-(U6-A7)*%
X92375000Y-58065000D03*
%TO.P,U6,5,A5*%
%TO.N,Net-(U6-A5)*%
X92375000Y-59335000D03*
%TO.P,U6,6,~{E}*%
%TO.N,GND*%
X92375000Y-60605000D03*
%TO.P,U6,7,VEE*%
X92375000Y-61875000D03*
%TO.P,U6,8,GND*%
X92375000Y-63145000D03*
%TO.P,U6,9,S2*%
%TO.N,4051_ADDRESS_C*%
X87425000Y-63145000D03*
%TO.P,U6,10,S1*%
%TO.N,4051_ADDRESS_B*%
X87425000Y-61875000D03*
%TO.P,U6,11,S0*%
%TO.N,4051_ADDRESS_A*%
X87425000Y-60605000D03*
%TO.P,U6,12,A3*%
%TO.N,Net-(U6-A3)*%
X87425000Y-59335000D03*
%TO.P,U6,13,A0*%
%TO.N,Net-(U6-A0)*%
X87425000Y-58065000D03*
%TO.P,U6,14,A1*%
%TO.N,Net-(U6-A1)*%
X87425000Y-56795000D03*
%TO.P,U6,15,A2*%
%TO.N,Net-(U6-A2)*%
X87425000Y-55525000D03*
%TO.P,U6,16,VCC*%
%TO.N,+3.3V*%
X87425000Y-54255000D03*
%TD*%
D20*
%TO.P,R14,1*%
%TO.N,Net-(U4-D1)*%
X93250000Y-85250000D03*
%TO.P,R14,2*%
%TO.N,GND*%
X91600000Y-85250000D03*
%TD*%
D25*
%TO.P,R8,1*%
%TO.N,Net-(U3-a)*%
X159500000Y-90175000D03*
%TO.P,R8,2*%
%TO.N,Net-(U1-QA)*%
X159500000Y-91825000D03*
%TD*%
D32*
%TO.P,U1,1,QB*%
%TO.N,Net-(U1-QB)*%
X172725000Y-69555000D03*
%TO.P,U1,2,QC*%
%TO.N,Net-(U1-QC)*%
X172725000Y-70825000D03*
%TO.P,U1,3,QD*%
%TO.N,Net-(U1-QD)*%
X172725000Y-72095000D03*
%TO.P,U1,4,QE*%
%TO.N,Net-(U1-QE)*%
X172725000Y-73365000D03*
%TO.P,U1,5,QF*%
%TO.N,Net-(U1-QF)*%
X172725000Y-74635000D03*
%TO.P,U1,6,QG*%
%TO.N,Net-(U1-QG)*%
X172725000Y-75905000D03*
%TO.P,U1,7,QH*%
%TO.N,Net-(U1-QH)*%
X172725000Y-77175000D03*
%TO.P,U1,8,GND*%
%TO.N,GND*%
X172725000Y-78445000D03*
%TO.P,U1,9,QH'*%
%TO.N,Net-(U1-QH')*%
X167775000Y-78445000D03*
%TO.P,U1,10,~{SRCLR}*%
%TO.N,+3.3V*%
X167775000Y-77175000D03*
%TO.P,U1,11,SRCLK*%
%TO.N,595_CLOCK*%
X167775000Y-75905000D03*
%TO.P,U1,12,RCLK*%
%TO.N,595_LATCH*%
X167775000Y-74635000D03*
%TO.P,U1,13,~{OE}*%
%TO.N,GND*%
X167775000Y-73365000D03*
%TO.P,U1,14,SER*%
%TO.N,595_DATA*%
X167775000Y-72095000D03*
%TO.P,U1,15,QA*%
%TO.N,Net-(U1-QA)*%
X167775000Y-70825000D03*
%TO.P,U1,16,VCC*%
%TO.N,+3.3V*%
X167775000Y-69555000D03*
%TD*%
D23*
%TO.P,C35,1*%
%TO.N,LINE_OUT_R*%
X131275000Y-93250000D03*
%TO.P,C35,2*%
%TO.N,GND*%
X129725000Y-93250000D03*
%TD*%
D24*
%TO.P,R67,1*%
%TO.N,Net-(R67-Pad1)*%
X71675000Y-115750000D03*
%TO.P,R67,2*%
%TO.N,Net-(U15A--)*%
X73325000Y-115750000D03*
%TD*%
D25*
%TO.P,R30,1*%
%TO.N,Net-(J11-PadT)*%
X126800000Y-118675000D03*
%TO.P,R30,2*%
%TO.N,Net-(U7A--)*%
X126800000Y-120325000D03*
%TD*%
D20*
%TO.P,R15,1*%
%TO.N,Net-(U4-D2)*%
X103250000Y-85250000D03*
%TO.P,R15,2*%
%TO.N,GND*%
X101600000Y-85250000D03*
%TD*%
D25*
%TO.P,R36,1*%
%TO.N,Net-(J13-PadT)*%
X126850000Y-134475000D03*
%TO.P,R36,2*%
%TO.N,Net-(U8A--)*%
X126850000Y-136125000D03*
%TD*%
D20*
%TO.P,R21,1*%
%TO.N,Net-(U5-D0)*%
X113250000Y-97250000D03*
%TO.P,R21,2*%
%TO.N,GND*%
X111600000Y-97250000D03*
%TD*%
D33*
%TO.P,C16,1*%
%TO.N,+5V*%
X178000000Y-121700000D03*
%TO.P,C16,2*%
%TO.N,GND*%
X178000000Y-116300000D03*
%TD*%
D20*
%TO.P,R20,1*%
%TO.N,Net-(U4-D7)*%
X103250000Y-97250000D03*
%TO.P,R20,2*%
%TO.N,GND*%
X101600000Y-97250000D03*
%TD*%
D29*
%TO.P,R10,1*%
%TO.N,Net-(U3-c)*%
X161250000Y-95075000D03*
%TO.P,R10,2*%
%TO.N,Net-(U1-QC)*%
X161250000Y-93425000D03*
%TD*%
D20*
%TO.P,R13,1*%
%TO.N,Net-(U4-D0)*%
X83250000Y-85250000D03*
%TO.P,R13,2*%
%TO.N,GND*%
X81600000Y-85250000D03*
%TD*%
D27*
%TO.P,U15,1*%
%TO.N,Net-(R67-Pad1)*%
X71845000Y-118025000D03*
%TO.P,U15,2,-*%
%TO.N,Net-(U15A--)*%
X73115000Y-118025000D03*
%TO.P,U15,3,+*%
%TO.N,TRIGGER_OUT_1*%
X74385000Y-118025000D03*
%TO.P,U15,4,V-*%
%TO.N,-12V*%
X75655000Y-118025000D03*
%TO.P,U15,5,+*%
%TO.N,TRIGGER_OUT_2*%
X75655000Y-122975000D03*
%TO.P,U15,6,-*%
%TO.N,Net-(U15B--)*%
X74385000Y-122975000D03*
%TO.P,U15,7*%
%TO.N,Net-(R66-Pad1)*%
X73115000Y-122975000D03*
%TO.P,U15,8,V+*%
%TO.N,+12V*%
X71845000Y-122975000D03*
%TD*%
D23*
%TO.P,C22,1*%
%TO.N,Net-(U13B--)*%
X137275000Y-116000000D03*
%TO.P,C22,2*%
%TO.N,Net-(C22-Pad2)*%
X135725000Y-116000000D03*
%TD*%
D22*
%TO.P,C38,1*%
%TO.N,+12V*%
X77500000Y-143275000D03*
%TO.P,C38,2*%
%TO.N,-12V*%
X77500000Y-141725000D03*
%TD*%
D25*
%TO.P,R4,1*%
%TO.N,Net-(D4-A)*%
X160250000Y-139750000D03*
%TO.P,R4,2*%
%TO.N,Net-(U2-QH)*%
X160250000Y-141400000D03*
%TD*%
D34*
%TO.P,U14,1,CPVDD*%
%TO.N,+3.3VDAC*%
X141137500Y-95675000D03*
%TO.P,U14,2,CAPP*%
%TO.N,Net-(U14-CAPP)*%
X141137500Y-95025000D03*
%TO.P,U14,3,CPGND*%
%TO.N,GND*%
X141137500Y-94375000D03*
%TO.P,U14,4,CAPM*%
%TO.N,Net-(U14-CAPM)*%
X141137500Y-93725000D03*
%TO.P,U14,5,VNEG*%
%TO.N,Net-(U14-VNEG)*%
X141137500Y-93075000D03*
%TO.P,U14,6,OUTL*%
%TO.N,Net-(U14-OUTL)*%
X141137500Y-92425000D03*
%TO.P,U14,7,OUTR*%
%TO.N,Net-(U14-OUTR)*%
X141137500Y-91775000D03*
%TO.P,U14,8,AVDD*%
%TO.N,+3.3VDAC*%
X141137500Y-91125000D03*
%TO.P,U14,9,AGND*%
%TO.N,GND*%
X141137500Y-90475000D03*
%TO.P,U14,10,DEMP*%
X141137500Y-89825000D03*
%TO.P,U14,11,FLT*%
X146862500Y-89825000D03*
%TO.P,U14,12,SCK*%
X146862500Y-90475000D03*
%TO.P,U14,13,BCK*%
%TO.N,Net-(U14-BCK)*%
X146862500Y-91125000D03*
%TO.P,U14,14,DIN*%
%TO.N,Net-(U14-DIN)*%
X146862500Y-91775000D03*
%TO.P,U14,15,LRCK*%
%TO.N,Net-(U14-LRCK)*%
X146862500Y-92425000D03*
%TO.P,U14,16,FMT*%
%TO.N,GND*%
X146862500Y-93075000D03*
%TO.P,U14,17,XSMT*%
%TO.N,+3.3VDAC*%
X146862500Y-93725000D03*
%TO.P,U14,18,LDOO*%
%TO.N,Net-(U14-LDOO)*%
X146862500Y-94375000D03*
%TO.P,U14,19,DGND*%
%TO.N,GND*%
X146862500Y-95025000D03*
%TO.P,U14,20,DVDD*%
%TO.N,+3.3VDAC*%
X146862500Y-95675000D03*
%TD*%
D20*
%TO.P,R51,1*%
%TO.N,Net-(C17-Pad2)*%
X130825000Y-111250000D03*
%TO.P,R51,2*%
%TO.N,Net-(U13A--)*%
X129175000Y-111250000D03*
%TD*%
D24*
%TO.P,R68,1*%
%TO.N,Net-(R66-Pad1)*%
X103425000Y-119000000D03*
%TO.P,R68,2*%
%TO.N,TRIGGER_OUT_2_EURO*%
X105075000Y-119000000D03*
%TD*%
D22*
%TO.P,C28,1*%
%TO.N,+3.3VDAC*%
X149000000Y-97775000D03*
%TO.P,C28,2*%
%TO.N,GND*%
X149000000Y-96225000D03*
%TD*%
D29*
%TO.P,R59,1*%
%TO.N,DAC_LRC*%
X150000000Y-89325000D03*
%TO.P,R59,2*%
%TO.N,Net-(U14-LRCK)*%
X150000000Y-87675000D03*
%TD*%
D22*
%TO.P,C23,1*%
%TO.N,+3.3VDAC*%
X139250000Y-91525000D03*
%TO.P,C23,2*%
%TO.N,GND*%
X139250000Y-89975000D03*
%TD*%
%TO.P,C26,1*%
%TO.N,Net-(U14-CAPP)*%
X138250000Y-94775000D03*
%TO.P,C26,2*%
%TO.N,Net-(U14-CAPM)*%
X138250000Y-93225000D03*
%TD*%
D29*
%TO.P,R7,1*%
%TO.N,Net-(U3-DPX)*%
X159500000Y-95075000D03*
%TO.P,R7,2*%
%TO.N,Net-(U1-QH)*%
X159500000Y-93425000D03*
%TD*%
D22*
%TO.P,C4,1*%
%TO.N,Net-(U8B--)*%
X121250000Y-140525000D03*
%TO.P,C4,2*%
%TO.N,CV_IN_4*%
X121250000Y-138975000D03*
%TD*%
D20*
%TO.P,R16,1*%
%TO.N,Net-(U4-D3)*%
X113250000Y-85250000D03*
%TO.P,R16,2*%
%TO.N,GND*%
X111600000Y-85250000D03*
%TD*%
D28*
%TO.P,C11,1*%
%TO.N,Net-(U12-COMP)*%
X183475000Y-138000000D03*
%TO.P,C11,2*%
%TO.N,GND*%
X185025000Y-138000000D03*
%TD*%
D24*
%TO.P,R46,1*%
%TO.N,Net-(U12-COMP)*%
X183425000Y-139750000D03*
%TO.P,R46,2*%
%TO.N,Net-(C10-Pad1)*%
X185075000Y-139750000D03*
%TD*%
D20*
%TO.P,R60,1*%
%TO.N,Net-(U14-OUTL)*%
X134575000Y-95000000D03*
%TO.P,R60,2*%
%TO.N,LINE_OUT_L*%
X132925000Y-95000000D03*
%TD*%
D29*
%TO.P,R6,1*%
%TO.N,Net-(U3-g)*%
X163000000Y-95075000D03*
%TO.P,R6,2*%
%TO.N,Net-(U1-QG)*%
X163000000Y-93425000D03*
%TD*%
D24*
%TO.P,R78,1*%
%TO.N,Net-(R77-Pad1)*%
X71675000Y-138000000D03*
%TO.P,R78,2*%
%TO.N,SYNC_OUT_EURO*%
X73325000Y-138000000D03*
%TD*%
D35*
%TO.P,D6,1,K*%
%TO.N,+5V*%
X173500000Y-135550000D03*
%TO.P,D6,2,A*%
%TO.N,Net-(D6-A)*%
X173500000Y-133450000D03*
%TD*%
D24*
%TO.P,R69,1*%
%TO.N,Net-(R67-Pad1)*%
X91425000Y-119000000D03*
%TO.P,R69,2*%
%TO.N,TRIGGER_OUT_1_EURO*%
X93075000Y-119000000D03*
%TD*%
D23*
%TO.P,C21,1*%
%TO.N,Net-(U13A--)*%
X134025000Y-116000000D03*
%TO.P,C21,2*%
%TO.N,Net-(C21-Pad2)*%
X132475000Y-116000000D03*
%TD*%
D22*
%TO.P,C24,1*%
%TO.N,+3.3VDAC*%
X137500000Y-91525000D03*
%TO.P,C24,2*%
%TO.N,GND*%
X137500000Y-89975000D03*
%TD*%
D20*
%TO.P,R53,1*%
%TO.N,Net-(U13A--)*%
X134075000Y-114250000D03*
%TO.P,R53,2*%
%TO.N,Net-(C21-Pad2)*%
X132425000Y-114250000D03*
%TD*%
D36*
%TO.P,U2,1,QB*%
%TO.N,Net-(U2-QB)*%
X176695000Y-95225000D03*
%TO.P,U2,2,QC*%
%TO.N,Net-(U2-QC)*%
X175425000Y-95225000D03*
%TO.P,U2,3,QD*%
%TO.N,Net-(U2-QD)*%
X174155000Y-95225000D03*
%TO.P,U2,4,QE*%
%TO.N,Net-(U2-QE)*%
X172885000Y-95225000D03*
%TO.P,U2,5,QF*%
%TO.N,Net-(U2-QF)*%
X171615000Y-95225000D03*
%TO.P,U2,6,QG*%
%TO.N,Net-(U2-QG)*%
X170345000Y-95225000D03*
%TO.P,U2,7,QH*%
%TO.N,Net-(U2-QH)*%
X169075000Y-95225000D03*
%TO.P,U2,8,GND*%
%TO.N,GND*%
X167805000Y-95225000D03*
%TO.P,U2,9,QH'*%
%TO.N,unconnected-(U2-QH&apos;-Pad9)*%
X167805000Y-90275000D03*
%TO.P,U2,10,~{SRCLR}*%
%TO.N,+3.3V*%
X169075000Y-90275000D03*
%TO.P,U2,11,SRCLK*%
%TO.N,595_CLOCK*%
X170345000Y-90275000D03*
%TO.P,U2,12,RCLK*%
%TO.N,595_LATCH*%
X171615000Y-90275000D03*
%TO.P,U2,13,~{OE}*%
%TO.N,GND*%
X172885000Y-90275000D03*
%TO.P,U2,14,SER*%
%TO.N,Net-(U1-QH')*%
X174155000Y-90275000D03*
%TO.P,U2,15,QA*%
%TO.N,Net-(U2-QA)*%
X175425000Y-90275000D03*
%TO.P,U2,16,VCC*%
%TO.N,+3.3V*%
X176695000Y-90275000D03*
%TD*%
D22*
%TO.P,C29,1*%
%TO.N,Net-(U14-LDOO)*%
X150750000Y-94525000D03*
%TO.P,C29,2*%
%TO.N,GND*%
X150750000Y-92975000D03*
%TD*%
D28*
%TO.P,C17,1*%
%TO.N,LINE_OUT_L*%
X129225000Y-113000000D03*
%TO.P,C17,2*%
%TO.N,Net-(C17-Pad2)*%
X130775000Y-113000000D03*
%TD*%
D29*
%TO.P,R42,1*%
%TO.N,GND*%
X156050000Y-118575000D03*
%TO.P,R42,2*%
%TO.N,12V DETECTION*%
X156050000Y-116925000D03*
%TD*%
D32*
%TO.P,U9,1,A4*%
%TO.N,CV_IN_1*%
X112500000Y-54080000D03*
%TO.P,U9,2,A6*%
%TO.N,CV_IN_3*%
X112500000Y-55350000D03*
%TO.P,U9,3,A*%
%TO.N,4051_READING_1*%
X112500000Y-56620000D03*
%TO.P,U9,4,A7*%
%TO.N,CV_IN_4*%
X112500000Y-57890000D03*
%TO.P,U9,5,A5*%
%TO.N,CV_IN_2*%
X112500000Y-59160000D03*
%TO.P,U9,6,~{E}*%
%TO.N,GND*%
X112500000Y-60430000D03*
%TO.P,U9,7,VEE*%
X112500000Y-61700000D03*
%TO.P,U9,8,GND*%
X112500000Y-62970000D03*
%TO.P,U9,9,S2*%
%TO.N,4051_ADDRESS_C*%
X107550000Y-62970000D03*
%TO.P,U9,10,S1*%
%TO.N,4051_ADDRESS_B*%
X107550000Y-61700000D03*
%TO.P,U9,11,S0*%
%TO.N,4051_ADDRESS_A*%
X107550000Y-60430000D03*
%TO.P,U9,12,A3*%
%TO.N,Net-(U9-A3)*%
X107550000Y-59160000D03*
%TO.P,U9,13,A0*%
%TO.N,Net-(U9-A0)*%
X107550000Y-57890000D03*
%TO.P,U9,14,A1*%
%TO.N,Net-(U9-A1)*%
X107550000Y-56620000D03*
%TO.P,U9,15,A2*%
%TO.N,Net-(U9-A2)*%
X107550000Y-55350000D03*
%TO.P,U9,16,VCC*%
%TO.N,+3.3V*%
X107550000Y-54080000D03*
%TD*%
D22*
%TO.P,C2,1*%
%TO.N,Net-(U7B--)*%
X121250000Y-124695000D03*
%TO.P,C2,2*%
%TO.N,CV_IN_2*%
X121250000Y-123145000D03*
%TD*%
D37*
%TO.P,U13,1*%
%TO.N,Net-(C21-Pad2)*%
X133025000Y-112405000D03*
%TO.P,U13,2,-*%
%TO.N,Net-(U13A--)*%
X133025000Y-111135000D03*
%TO.P,U13,3,+*%
%TO.N,GND*%
X133025000Y-109865000D03*
%TO.P,U13,4,V-*%
%TO.N,-12V*%
X133025000Y-108595000D03*
%TO.P,U13,5,+*%
%TO.N,GND*%
X137975000Y-108595000D03*
%TO.P,U13,6,-*%
%TO.N,Net-(U13B--)*%
X137975000Y-109865000D03*
%TO.P,U13,7*%
%TO.N,Net-(C22-Pad2)*%
X137975000Y-111135000D03*
%TO.P,U13,8,V+*%
%TO.N,+12V*%
X137975000Y-112405000D03*
%TD*%
D24*
%TO.P,R56,1*%
%TO.N,Net-(C22-Pad2)*%
X139675000Y-135000000D03*
%TO.P,R56,2*%
%TO.N,EURO_OUT_2*%
X141325000Y-135000000D03*
%TD*%
D25*
%TO.P,R2,1*%
%TO.N,Net-(D2-A)*%
X160250000Y-128750000D03*
%TO.P,R2,2*%
%TO.N,Net-(U2-QF)*%
X160250000Y-130400000D03*
%TD*%
D38*
%TO.P,J10,1,Pin_1*%
%TO.N,SERIAL_TX*%
X185000000Y-111540000D03*
D39*
%TO.P,J10,2,Pin_2*%
%TO.N,GND*%
X185000000Y-109000000D03*
%TO.P,J10,3,Pin_3*%
%TO.N,SERIAL_RX*%
X185000000Y-106460000D03*
%TD*%
D24*
%TO.P,R77,1*%
%TO.N,Net-(R77-Pad1)*%
X74925000Y-138000000D03*
%TO.P,R77,2*%
%TO.N,Net-(U17A--)*%
X76575000Y-138000000D03*
%TD*%
D21*
%TO.P,Q1,1,B*%
%TO.N,Net-(Q1-B)*%
X83125000Y-123950000D03*
%TO.P,Q1,2,E*%
%TO.N,GND*%
X83125000Y-122050000D03*
%TO.P,Q1,3,C*%
%TO.N,SYNC_IN*%
X85000000Y-123000000D03*
%TD*%
D24*
%TO.P,R52,1*%
%TO.N,Net-(C18-Pad2)*%
X140175000Y-111250000D03*
%TO.P,R52,2*%
%TO.N,Net-(U13B--)*%
X141825000Y-111250000D03*
%TD*%
D23*
%TO.P,C33,1*%
%TO.N,LINE_OUT_L*%
X131275000Y-95000000D03*
%TO.P,C33,2*%
%TO.N,GND*%
X129725000Y-95000000D03*
%TD*%
D33*
%TO.P,C15,1*%
%TO.N,+5V*%
X185500000Y-121700000D03*
%TO.P,C15,2*%
%TO.N,GND*%
X185500000Y-116300000D03*
%TD*%
D25*
%TO.P,R12,1*%
%TO.N,Net-(U3-f)*%
X161250000Y-90175000D03*
%TO.P,R12,2*%
%TO.N,Net-(U1-QF)*%
X161250000Y-91825000D03*
%TD*%
D40*
%TO.P,C6,1*%
%TO.N,+12V*%
X173950000Y-139250000D03*
%TO.P,C6,2*%
%TO.N,GND*%
X172050000Y-139250000D03*
%TD*%
D22*
%TO.P,C32,1*%
%TO.N,+3.3VDAC*%
X138250000Y-98025000D03*
%TO.P,C32,2*%
%TO.N,GND*%
X138250000Y-96475000D03*
%TD*%
D41*
%TO.P,J16,1,Pin_1*%
%TO.N,-12V*%
X165000000Y-129180000D03*
D39*
%TO.P,J16,2,Pin_2*%
X167540000Y-129180000D03*
%TO.P,J16,3,Pin_3*%
%TO.N,GND*%
X165000000Y-126640000D03*
%TO.P,J16,4,Pin_4*%
X167540000Y-126640000D03*
%TO.P,J16,5,Pin_5*%
X165000000Y-124100000D03*
%TO.P,J16,6,Pin_6*%
X167540000Y-124100000D03*
%TO.P,J16,7,Pin_7*%
X165000000Y-121560000D03*
%TO.P,J16,8,Pin_8*%
X167540000Y-121560000D03*
%TO.P,J16,9,Pin_9*%
%TO.N,+12V*%
X165000000Y-119020000D03*
%TO.P,J16,10,Pin_10*%
X167540000Y-119020000D03*
%TD*%
D32*
%TO.P,U5,1,~{PL}*%
%TO.N,165_LOAD*%
X112575000Y-70555000D03*
%TO.P,U5,2,CP*%
%TO.N,165_CLOCK*%
X112575000Y-71825000D03*
%TO.P,U5,3,D4*%
%TO.N,Net-(U5-D4)*%
X112575000Y-73095000D03*
%TO.P,U5,4,D5*%
%TO.N,Net-(U5-D5)*%
X112575000Y-74365000D03*
%TO.P,U5,5,D6*%
%TO.N,Net-(U5-D6)*%
X112575000Y-75635000D03*
%TO.P,U5,6,D7*%
%TO.N,Net-(U5-D7)*%
X112575000Y-76905000D03*
%TO.P,U5,7,~{Q7}*%
%TO.N,unconnected-(U5-~{Q7}-Pad7)*%
X112575000Y-78175000D03*
%TO.P,U5,8,GND*%
%TO.N,GND*%
X112575000Y-79445000D03*
%TO.P,U5,9,Q7*%
%TO.N,/Shift register in 2/DATA_OUT*%
X107625000Y-79445000D03*
%TO.P,U5,10,DS*%
%TO.N,/Shift register in 1/DATA_OUT*%
X107625000Y-78175000D03*
%TO.P,U5,11,D0*%
%TO.N,Net-(U5-D0)*%
X107625000Y-76905000D03*
%TO.P,U5,12,D1*%
%TO.N,Net-(U5-D1)*%
X107625000Y-75635000D03*
%TO.P,U5,13,D2*%
%TO.N,Net-(U5-D2)*%
X107625000Y-74365000D03*
%TO.P,U5,14,D3*%
%TO.N,Net-(U5-D3)*%
X107625000Y-73095000D03*
%TO.P,U5,15,~{CE}*%
%TO.N,GND*%
X107625000Y-71825000D03*
%TO.P,U5,16,VCC*%
%TO.N,+3.3V*%
X107625000Y-70555000D03*
%TD*%
D22*
%TO.P,C1,1*%
%TO.N,Net-(U7A--)*%
X130750000Y-123525000D03*
%TO.P,C1,2*%
%TO.N,CV_IN_1*%
X130750000Y-121975000D03*
%TD*%
D26*
%TO.P,C13,1*%
%TO.N,+5V*%
X185500000Y-125800000D03*
%TO.P,C13,2*%
%TO.N,GND*%
X185500000Y-131200000D03*
%TD*%
D20*
%TO.P,R28,1*%
%TO.N,Net-(U5-D7)*%
X148325000Y-109500000D03*
%TO.P,R28,2*%
%TO.N,GND*%
X146675000Y-109500000D03*
%TD*%
D29*
%TO.P,R34,1*%
%TO.N,Net-(U7B--)*%
X119500000Y-124745000D03*
%TO.P,R34,2*%
%TO.N,CV_IN_2*%
X119500000Y-123095000D03*
%TD*%
%TO.P,R33,1*%
%TO.N,Net-(U7A--)*%
X132500000Y-123575000D03*
%TO.P,R33,2*%
%TO.N,CV_IN_1*%
X132500000Y-121925000D03*
%TD*%
D37*
%TO.P,U12,1,BOOT*%
%TO.N,Net-(U12-BOOT)*%
X176275000Y-140405000D03*
%TO.P,U12,2,VIN*%
%TO.N,+12V*%
X176275000Y-139135000D03*
%TO.P,U12,3,EN*%
%TO.N,unconnected-(U12-EN-Pad3)*%
X176275000Y-137865000D03*
%TO.P,U12,4,SS*%
%TO.N,Net-(U12-SS)*%
X176275000Y-136595000D03*
%TO.P,U12,5,VSENSE*%
%TO.N,Net-(U12-VSENSE)*%
X181225000Y-136595000D03*
%TO.P,U12,6,COMP*%
%TO.N,Net-(U12-COMP)*%
X181225000Y-137865000D03*
%TO.P,U12,7,GND*%
%TO.N,GND*%
X181225000Y-139135000D03*
%TO.P,U12,8,PH*%
%TO.N,Net-(D5-K)*%
X181225000Y-140405000D03*
%TD*%
D42*
%TO.P,D5,1,K*%
%TO.N,Net-(D5-K)*%
X180750000Y-145000000D03*
%TO.P,D5,2,A*%
%TO.N,GND*%
X176750000Y-145000000D03*
%TD*%
D25*
%TO.P,R58,1*%
%TO.N,DAC_DOUT*%
X153500000Y-87675000D03*
%TO.P,R58,2*%
%TO.N,Net-(U14-DIN)*%
X153500000Y-89325000D03*
%TD*%
D23*
%TO.P,C18,1*%
%TO.N,LINE_OUT_R*%
X141775000Y-113000000D03*
%TO.P,C18,2*%
%TO.N,Net-(C18-Pad2)*%
X140225000Y-113000000D03*
%TD*%
D24*
%TO.P,R66,1*%
%TO.N,Net-(R66-Pad1)*%
X71675000Y-125250000D03*
%TO.P,R66,2*%
%TO.N,Net-(U15B--)*%
X73325000Y-125250000D03*
%TD*%
D32*
%TO.P,U10,1,~{PL}*%
%TO.N,165_LOAD*%
X132450000Y-69880000D03*
%TO.P,U10,2,CP*%
%TO.N,165_CLOCK*%
X132450000Y-71150000D03*
%TO.P,U10,3,D4*%
%TO.N,Net-(J15-Pin_1)*%
X132450000Y-72420000D03*
%TO.P,U10,4,D5*%
%TO.N,Net-(J15-Pin_2)*%
X132450000Y-73690000D03*
%TO.P,U10,5,D6*%
%TO.N,Net-(J15-Pin_3)*%
X132450000Y-74960000D03*
%TO.P,U10,6,D7*%
%TO.N,Net-(J15-Pin_4)*%
X132450000Y-76230000D03*
%TO.P,U10,7,~{Q7}*%
%TO.N,unconnected-(U10-~{Q7}-Pad7)*%
X132450000Y-77500000D03*
%TO.P,U10,8,GND*%
%TO.N,GND*%
X132450000Y-78770000D03*
%TO.P,U10,9,Q7*%
%TO.N,165_DATA*%
X127500000Y-78770000D03*
%TO.P,U10,10,DS*%
%TO.N,/Shift register in 2/DATA_OUT*%
X127500000Y-77500000D03*
%TO.P,U10,11,D0*%
%TO.N,Net-(U10-D0)*%
X127500000Y-76230000D03*
%TO.P,U10,12,D1*%
%TO.N,Net-(U10-D1)*%
X127500000Y-74960000D03*
%TO.P,U10,13,D2*%
%TO.N,Net-(U10-D2)*%
X127500000Y-73690000D03*
%TO.P,U10,14,D3*%
%TO.N,12V DETECTION*%
X127500000Y-72420000D03*
%TO.P,U10,15,~{CE}*%
%TO.N,GND*%
X127500000Y-71150000D03*
%TO.P,U10,16,VCC*%
%TO.N,+3.3V*%
X127500000Y-69880000D03*
%TD*%
D23*
%TO.P,C9,1*%
%TO.N,+3.3VDAC*%
X130525000Y-96750000D03*
%TO.P,C9,2*%
%TO.N,GND*%
X128975000Y-96750000D03*
%TD*%
D20*
%TO.P,R62,1*%
%TO.N,SYNC_IN_EURO*%
X81625000Y-118800000D03*
%TO.P,R62,2*%
%TO.N,Net-(Q1-B)*%
X79975000Y-118800000D03*
%TD*%
D28*
%TO.P,C20,1*%
%TO.N,GND*%
X129225000Y-107750000D03*
%TO.P,C20,2*%
%TO.N,-12V*%
X130775000Y-107750000D03*
%TD*%
D24*
%TO.P,R49,1*%
%TO.N,Net-(C17-Pad2)*%
X129175000Y-109500000D03*
%TO.P,R49,2*%
%TO.N,GND*%
X130825000Y-109500000D03*
%TD*%
D32*
%TO.P,U7,1*%
%TO.N,CV_IN_1*%
X128475000Y-122095000D03*
%TO.P,U7,2,-*%
%TO.N,Net-(U7A--)*%
X128475000Y-123365000D03*
%TO.P,U7,3,+*%
%TO.N,GND*%
X128475000Y-124635000D03*
%TO.P,U7,4,V-*%
X128475000Y-125905000D03*
%TO.P,U7,5,+*%
X123525000Y-125905000D03*
%TO.P,U7,6,-*%
%TO.N,Net-(U7B--)*%
X123525000Y-124635000D03*
%TO.P,U7,7*%
%TO.N,CV_IN_2*%
X123525000Y-123365000D03*
%TO.P,U7,8,V+*%
%TO.N,+3.3V*%
X123525000Y-122095000D03*
%TD*%
D22*
%TO.P,C3,1*%
%TO.N,Net-(U8A--)*%
X130750000Y-139275000D03*
%TO.P,C3,2*%
%TO.N,CV_IN_3*%
X130750000Y-137725000D03*
%TD*%
D29*
%TO.P,R41,1*%
%TO.N,12V DETECTION*%
X157750000Y-118575000D03*
%TO.P,R41,2*%
%TO.N,+12V*%
X157750000Y-116925000D03*
%TD*%
D24*
%TO.P,R48,1*%
%TO.N,Net-(U12-VSENSE)*%
X179500000Y-134750000D03*
%TO.P,R48,2*%
%TO.N,GND*%
X181150000Y-134750000D03*
%TD*%
D22*
%TO.P,C37,1*%
%TO.N,+12V*%
X77500000Y-132525000D03*
%TO.P,C37,2*%
%TO.N,-12V*%
X77500000Y-130975000D03*
%TD*%
D25*
%TO.P,R57,1*%
%TO.N,DAC_BCLK*%
X151750000Y-87675000D03*
%TO.P,R57,2*%
%TO.N,Net-(U14-BCK)*%
X151750000Y-89325000D03*
%TD*%
D20*
%TO.P,R25,1*%
%TO.N,Net-(U5-D4)*%
X103250000Y-109250000D03*
%TO.P,R25,2*%
%TO.N,GND*%
X101600000Y-109250000D03*
%TD*%
D24*
%TO.P,R74,1*%
%TO.N,Net-(R72-Pad1)*%
X103425000Y-135000000D03*
%TO.P,R74,2*%
%TO.N,TRIGGER_OUT_4_EURO*%
X105075000Y-135000000D03*
%TD*%
%TO.P,R50,1*%
%TO.N,Net-(C18-Pad2)*%
X140175000Y-109500000D03*
%TO.P,R50,2*%
%TO.N,GND*%
X141825000Y-109500000D03*
%TD*%
D22*
%TO.P,C34,1*%
%TO.N,+3.3VDAC*%
X136500000Y-98025000D03*
%TO.P,C34,2*%
%TO.N,GND*%
X136500000Y-96475000D03*
%TD*%
D24*
%TO.P,R47,1*%
%TO.N,Net-(D6-A)*%
X176250000Y-134750000D03*
%TO.P,R47,2*%
%TO.N,Net-(U12-VSENSE)*%
X177900000Y-134750000D03*
%TD*%
%TO.P,R70,1*%
%TO.N,Net-(U16B--)*%
X74925000Y-136250000D03*
%TO.P,R70,2*%
%TO.N,GND*%
X76575000Y-136250000D03*
%TD*%
D32*
%TO.P,U8,1*%
%TO.N,CV_IN_3*%
X128475000Y-137845000D03*
%TO.P,U8,2,-*%
%TO.N,Net-(U8A--)*%
X128475000Y-139115000D03*
%TO.P,U8,3,+*%
%TO.N,GND*%
X128475000Y-140385000D03*
%TO.P,U8,4,V-*%
X128475000Y-141655000D03*
%TO.P,U8,5,+*%
X123525000Y-141655000D03*
%TO.P,U8,6,-*%
%TO.N,Net-(U8B--)*%
X123525000Y-140385000D03*
%TO.P,U8,7*%
%TO.N,CV_IN_4*%
X123525000Y-139115000D03*
%TO.P,U8,8,V+*%
%TO.N,+3.3V*%
X123525000Y-137845000D03*
%TD*%
D38*
%TO.P,J15,1,Pin_1*%
%TO.N,Net-(J15-Pin_1)*%
X146190000Y-58250000D03*
D39*
%TO.P,J15,2,Pin_2*%
%TO.N,Net-(J15-Pin_2)*%
X148730000Y-58250000D03*
%TO.P,J15,3,Pin_3*%
%TO.N,Net-(J15-Pin_3)*%
X151270000Y-58250000D03*
%TO.P,J15,4,Pin_4*%
%TO.N,Net-(J15-Pin_4)*%
X153810000Y-58250000D03*
%TD*%
D24*
%TO.P,R31,1*%
%TO.N,-12V*%
X125175000Y-129500000D03*
%TO.P,R31,2*%
%TO.N,Net-(U7B--)*%
X126825000Y-129500000D03*
%TD*%
D29*
%TO.P,R39,1*%
%TO.N,Net-(U8A--)*%
X132500000Y-139325000D03*
%TO.P,R39,2*%
%TO.N,CV_IN_3*%
X132500000Y-137675000D03*
%TD*%
D25*
%TO.P,R32,1*%
%TO.N,Net-(J12-PadT)*%
X125200000Y-118675000D03*
%TO.P,R32,2*%
%TO.N,Net-(U7B--)*%
X125200000Y-120325000D03*
%TD*%
D20*
%TO.P,R45,1*%
%TO.N,Net-(U10-D2)*%
X178325000Y-109500000D03*
%TO.P,R45,2*%
%TO.N,GND*%
X176675000Y-109500000D03*
%TD*%
D25*
%TO.P,R3,1*%
%TO.N,Net-(D3-A)*%
X160250000Y-133750000D03*
%TO.P,R3,2*%
%TO.N,Net-(U2-QG)*%
X160250000Y-135400000D03*
%TD*%
D24*
%TO.P,R55,1*%
%TO.N,Net-(C21-Pad2)*%
X139675000Y-119000000D03*
%TO.P,R55,2*%
%TO.N,EURO_OUT_1*%
X141325000Y-119000000D03*
%TD*%
D20*
%TO.P,R54,1*%
%TO.N,Net-(U13B--)*%
X137325000Y-114250000D03*
%TO.P,R54,2*%
%TO.N,Net-(C22-Pad2)*%
X135675000Y-114250000D03*
%TD*%
D22*
%TO.P,C30,1*%
%TO.N,+3.3VDAC*%
X150750000Y-97775000D03*
%TO.P,C30,2*%
%TO.N,GND*%
X150750000Y-96225000D03*
%TD*%
D20*
%TO.P,R37,1*%
%TO.N,-12V*%
X126825000Y-145250000D03*
%TO.P,R37,2*%
%TO.N,Net-(U8B--)*%
X125175000Y-145250000D03*
%TD*%
D25*
%TO.P,R38,1*%
%TO.N,Net-(J14-PadT)*%
X125200000Y-134475000D03*
%TO.P,R38,2*%
%TO.N,Net-(U8B--)*%
X125200000Y-136125000D03*
%TD*%
D29*
%TO.P,R40,1*%
%TO.N,Net-(U8B--)*%
X119500000Y-140575000D03*
%TO.P,R40,2*%
%TO.N,CV_IN_4*%
X119500000Y-138925000D03*
%TD*%
D39*
%TO.P,A1,1,GPIO0*%
%TO.N,SERIAL_TX*%
X181490000Y-104070000D03*
X181490000Y-101530000D03*
%TO.P,A1,2,GPIO1*%
%TO.N,SERIAL_RX*%
X178950000Y-104070000D03*
X178950000Y-101530000D03*
%TO.P,A1,3,GND*%
%TO.N,GND*%
X176410000Y-104070000D03*
X176410000Y-101530000D03*
%TO.P,A1,4,GPIO2*%
%TO.N,SD_CLOCK*%
X173870000Y-104070000D03*
X173870000Y-101530000D03*
%TO.P,A1,5,GPIO3*%
%TO.N,SD_SERIAL_IN*%
X171330000Y-104070000D03*
X171330000Y-101530000D03*
%TO.P,A1,6,GPIO4*%
%TO.N,SD_SERIAL_OUT*%
X168790000Y-104070000D03*
X168790000Y-101530000D03*
%TO.P,A1,7,GPIO5*%
%TO.N,SD_CHIP_SELECT*%
X166250000Y-104070000D03*
X166250000Y-101530000D03*
%TO.P,A1,8,GND*%
%TO.N,GND*%
X163710000Y-104070000D03*
X163710000Y-101530000D03*
%TO.P,A1,9,GPIO6*%
%TO.N,595_DATA*%
X161170000Y-104070000D03*
X161170000Y-101530000D03*
%TO.P,A1,10,GPIO7*%
%TO.N,595_CLOCK*%
X158630000Y-104070000D03*
X158630000Y-101530000D03*
%TO.P,A1,11,GPIO8*%
%TO.N,595_LATCH*%
X156090000Y-104070000D03*
X156090000Y-101530000D03*
%TO.P,A1,12,GPIO9*%
%TO.N,DAC_DOUT*%
X153550000Y-104070000D03*
X153550000Y-101530000D03*
%TO.P,A1,13,GND*%
%TO.N,GND*%
X151010000Y-104070000D03*
X151010000Y-101530000D03*
%TO.P,A1,14,GPIO10*%
%TO.N,DAC_BCLK*%
X148470000Y-104070000D03*
X148470000Y-101530000D03*
%TO.P,A1,15,GPIO11*%
%TO.N,DAC_LRC*%
X145930000Y-104070000D03*
X145930000Y-101530000D03*
%TO.P,A1,16,GPIO12*%
%TO.N,165_LOAD*%
X143390000Y-104070000D03*
X143390000Y-101530000D03*
%TO.P,A1,17,GPIO13*%
%TO.N,165_CLOCK*%
X140850000Y-104070000D03*
X140850000Y-101530000D03*
%TO.P,A1,18,GND*%
%TO.N,GND*%
X138310000Y-104070000D03*
X138310000Y-101530000D03*
%TO.P,A1,19,GPIO14*%
%TO.N,165_DATA*%
X135770000Y-104070000D03*
X135770000Y-101530000D03*
%TO.P,A1,20,GPIO15*%
%TO.N,TRIGGER_OUT_1*%
X133230000Y-104070000D03*
X133230000Y-101530000D03*
%TO.P,A1,21,GPIO16*%
%TO.N,SYNC_IN*%
X133230000Y-83750000D03*
X133230000Y-81210000D03*
%TO.P,A1,22,GPIO17*%
%TO.N,SYNC_OUT*%
X135770000Y-83750000D03*
X135770000Y-81210000D03*
%TO.P,A1,23,GND*%
%TO.N,GND*%
X138310000Y-83750000D03*
X138310000Y-81210000D03*
%TO.P,A1,24,GPIO18*%
%TO.N,TRIGGER_OUT_4*%
X140850000Y-83750000D03*
X140850000Y-81210000D03*
%TO.P,A1,25,GPIO19*%
%TO.N,4051_ADDRESS_A*%
X143390000Y-83750000D03*
X143390000Y-81210000D03*
%TO.P,A1,26,GPIO20*%
%TO.N,4051_ADDRESS_B*%
X145930000Y-83750000D03*
X145930000Y-81210000D03*
%TO.P,A1,27,GPIO21*%
%TO.N,4051_ADDRESS_C*%
X148470000Y-83750000D03*
X148470000Y-81210000D03*
%TO.P,A1,28,GND*%
%TO.N,GND*%
X151010000Y-83750000D03*
X151010000Y-81210000D03*
%TO.P,A1,29,GPIO22*%
%TO.N,TRIGGER_OUT_3*%
X153550000Y-83750000D03*
X153550000Y-81210000D03*
%TO.P,A1,30,RUN*%
%TO.N,unconnected-(A1-RUN-Pad30)_1*%
X156090000Y-83750000D03*
%TO.N,unconnected-(A1-RUN-Pad30)*%
X156090000Y-81210000D03*
%TO.P,A1,31,GPIO26_ADC0*%
%TO.N,4051_READING_0*%
X158630000Y-83750000D03*
X158630000Y-81210000D03*
%TO.P,A1,32,GPIO27_ADC1*%
%TO.N,4051_READING_1*%
X161170000Y-83750000D03*
X161170000Y-81210000D03*
%TO.P,A1,33,AGND*%
%TO.N,GND*%
X163710000Y-83750000D03*
X163710000Y-81210000D03*
%TO.P,A1,34,GPIO28_ADC2*%
%TO.N,TRIGGER_OUT_2*%
X166250000Y-83750000D03*
X166250000Y-81210000D03*
%TO.P,A1,35,ADC_VREF*%
%TO.N,unconnected-(A1-ADC_VREF-Pad35)_1*%
X168790000Y-83750000D03*
%TO.N,unconnected-(A1-ADC_VREF-Pad35)*%
X168790000Y-81210000D03*
%TO.P,A1,36,3V3*%
%TO.N,+3.3V*%
X171330000Y-83750000D03*
X171330000Y-81210000D03*
%TO.P,A1,37,3V3_EN*%
%TO.N,unconnected-(A1-3V3_EN-Pad37)_1*%
X173870000Y-83750000D03*
%TO.N,unconnected-(A1-3V3_EN-Pad37)*%
X173870000Y-81210000D03*
%TO.P,A1,38,GND*%
%TO.N,GND*%
X176410000Y-83750000D03*
X176410000Y-81210000D03*
%TO.P,A1,39,VSYS*%
%TO.N,+5V*%
X178950000Y-83750000D03*
X178950000Y-81210000D03*
%TO.P,A1,40,VBUS*%
%TO.N,unconnected-(A1-VBUS-Pad40)*%
X181490000Y-83750000D03*
%TO.N,unconnected-(A1-VBUS-Pad40)_1*%
X181490000Y-81210000D03*
%TD*%
D24*
%TO.P,R71,1*%
%TO.N,Net-(U16A--)*%
X74925000Y-127000000D03*
%TO.P,R71,2*%
%TO.N,GND*%
X76575000Y-127000000D03*
%TD*%
D20*
%TO.P,R19,1*%
%TO.N,Net-(U4-D6)*%
X93250000Y-97250000D03*
%TO.P,R19,2*%
%TO.N,GND*%
X91600000Y-97250000D03*
%TD*%
%TO.P,R24,1*%
%TO.N,Net-(U5-D3)*%
X93250000Y-109250000D03*
%TO.P,R24,2*%
%TO.N,GND*%
X91600000Y-109250000D03*
%TD*%
D27*
%TO.P,U16,1*%
%TO.N,Net-(R73-Pad1)*%
X71845000Y-129275000D03*
%TO.P,U16,2,-*%
%TO.N,Net-(U16A--)*%
X73115000Y-129275000D03*
%TO.P,U16,3,+*%
%TO.N,TRIGGER_OUT_3*%
X74385000Y-129275000D03*
%TO.P,U16,4,V-*%
%TO.N,-12V*%
X75655000Y-129275000D03*
%TO.P,U16,5,+*%
%TO.N,TRIGGER_OUT_4*%
X75655000Y-134225000D03*
%TO.P,U16,6,-*%
%TO.N,Net-(U16B--)*%
X74385000Y-134225000D03*
%TO.P,U16,7*%
%TO.N,Net-(R72-Pad1)*%
X73115000Y-134225000D03*
%TO.P,U16,8,V+*%
%TO.N,+12V*%
X71845000Y-134225000D03*
%TD*%
D24*
%TO.P,R73,1*%
%TO.N,Net-(R73-Pad1)*%
X71675000Y-127000000D03*
%TO.P,R73,2*%
%TO.N,Net-(U16A--)*%
X73325000Y-127000000D03*
%TD*%
D32*
%TO.P,U4,1,~{PL}*%
%TO.N,165_LOAD*%
X92475000Y-70255000D03*
%TO.P,U4,2,CP*%
%TO.N,165_CLOCK*%
X92475000Y-71525000D03*
%TO.P,U4,3,D4*%
%TO.N,Net-(U4-D4)*%
X92475000Y-72795000D03*
%TO.P,U4,4,D5*%
%TO.N,Net-(U4-D5)*%
X92475000Y-74065000D03*
%TO.P,U4,5,D6*%
%TO.N,Net-(U4-D6)*%
X92475000Y-75335000D03*
%TO.P,U4,6,D7*%
%TO.N,Net-(U4-D7)*%
X92475000Y-76605000D03*
%TO.P,U4,7,~{Q7}*%
%TO.N,unconnected-(U4-~{Q7}-Pad7)*%
X92475000Y-77875000D03*
%TO.P,U4,8,GND*%
%TO.N,GND*%
X92475000Y-79145000D03*
%TO.P,U4,9,Q7*%
%TO.N,/Shift register in 1/DATA_OUT*%
X87525000Y-79145000D03*
%TO.P,U4,10,DS*%
%TO.N,GND*%
X87525000Y-77875000D03*
%TO.P,U4,11,D0*%
%TO.N,Net-(U4-D0)*%
X87525000Y-76605000D03*
%TO.P,U4,12,D1*%
%TO.N,Net-(U4-D1)*%
X87525000Y-75335000D03*
%TO.P,U4,13,D2*%
%TO.N,Net-(U4-D2)*%
X87525000Y-74065000D03*
%TO.P,U4,14,D3*%
%TO.N,Net-(U4-D3)*%
X87525000Y-72795000D03*
%TO.P,U4,15,~{CE}*%
%TO.N,GND*%
X87525000Y-71525000D03*
%TO.P,U4,16,VCC*%
%TO.N,+3.3V*%
X87525000Y-70255000D03*
%TD*%
D29*
%TO.P,R63,1*%
%TO.N,+3.3V*%
X88000000Y-124000000D03*
%TO.P,R63,2*%
%TO.N,SYNC_IN*%
X88000000Y-122350000D03*
%TD*%
D43*
%TO.P,L1,1,1*%
%TO.N,Net-(D5-K)*%
X171500000Y-146000000D03*
%TO.P,L1,2,2*%
%TO.N,Net-(D6-A)*%
X171500000Y-141500000D03*
%TD*%
D44*
%TO.N,CV_IN_3*%
X131100000Y-67100000D03*
X131400000Y-61800000D03*
X128700000Y-135200000D03*
X126100000Y-92900000D03*
%TO.N,GND*%
X90500000Y-85300000D03*
X110400000Y-97500000D03*
X179500000Y-139900000D03*
X142540619Y-110359594D03*
X119875000Y-97600000D03*
X181800000Y-117700000D03*
X136100000Y-109500000D03*
X125600000Y-69900000D03*
X181800000Y-129500000D03*
X181900000Y-135600000D03*
X145600000Y-92900000D03*
X114300000Y-79900000D03*
X120500000Y-85300000D03*
X86025000Y-78500000D03*
X119700000Y-109500000D03*
X184300000Y-138900000D03*
X184300000Y-142400000D03*
X90500000Y-97400000D03*
X80600000Y-85300000D03*
X90200000Y-109400000D03*
X155500000Y-109700000D03*
X149800000Y-95500000D03*
X84700000Y-122000000D03*
X100200000Y-109300000D03*
X80200000Y-109600000D03*
X172000000Y-88000000D03*
X175600000Y-109500000D03*
X139300000Y-96000000D03*
X169600000Y-73700000D03*
X176300000Y-143200000D03*
X77900000Y-125900000D03*
X145500000Y-109400000D03*
X166100000Y-94100000D03*
X170700000Y-139000000D03*
X109800000Y-109500000D03*
X114100000Y-61600000D03*
X100500000Y-97300000D03*
X100100000Y-85400000D03*
X134300000Y-98500000D03*
X105400000Y-72300000D03*
X166796991Y-108398002D03*
X90900000Y-64700000D03*
X80500000Y-97600000D03*
X129400000Y-99700000D03*
X110300000Y-85500000D03*
X77100000Y-117000000D03*
X148300000Y-90400000D03*
X79400000Y-139300000D03*
%TO.N,CV_IN_4*%
X129649000Y-62200000D03*
X121600000Y-137800000D03*
X129500000Y-67300000D03*
X122975000Y-92000000D03*
%TO.N,+12V*%
X80400000Y-135000000D03*
X76800000Y-122100000D03*
X78800000Y-143200000D03*
X161600000Y-118200000D03*
%TO.N,595_DATA*%
X166100000Y-72000000D03*
%TO.N,595_CLOCK*%
X170400000Y-87900000D03*
X170050000Y-76650000D03*
X170300000Y-91700000D03*
%TO.N,595_LATCH*%
X171700000Y-91824000D03*
%TO.N,165_LOAD*%
X94500000Y-70000000D03*
X114600000Y-70700000D03*
X141000000Y-78400000D03*
X134100000Y-70300000D03*
%TO.N,165_CLOCK*%
X139900000Y-78500000D03*
X134500000Y-71400000D03*
X94200000Y-71400000D03*
X115100000Y-71600000D03*
%TO.N,165_DATA*%
X129000000Y-82400000D03*
%TO.N,+5V*%
X123400000Y-101200000D03*
X165400000Y-115800000D03*
%TO.N,4051_ADDRESS_A*%
X85500000Y-61000000D03*
X105800000Y-60800000D03*
%TO.N,4051_ADDRESS_B*%
X85500000Y-62200000D03*
X109200000Y-61100000D03*
%TO.N,4051_ADDRESS_C*%
X85600000Y-63700000D03*
X109300000Y-62600000D03*
%TO.N,4051_READING_0*%
X116200000Y-80900000D03*
%TO.N,4051_READING_1*%
X161000000Y-78400000D03*
X125000000Y-75900000D03*
%TO.N,+3.3VDAC*%
X143400000Y-95100000D03*
X142587347Y-90812653D03*
%TO.N,Net-(U2-QF)*%
X171600000Y-96900000D03*
X170000000Y-99800000D03*
%TO.N,Net-(U2-QG)*%
X167600000Y-100300000D03*
X170400000Y-96800000D03*
%TO.N,Net-(U2-QH)*%
X169422826Y-96587553D03*
X171600000Y-99800000D03*
%TO.N,Net-(U2-QA)*%
X175400000Y-91900000D03*
X156900000Y-92200000D03*
%TO.N,LINE_OUT_L*%
X129700000Y-114000000D03*
X131675000Y-95900000D03*
%TO.N,LINE_OUT_R*%
X135600000Y-95600000D03*
X141103436Y-112243249D03*
%TO.N,-12V*%
X75900000Y-119700000D03*
X116900000Y-139600000D03*
X126300000Y-142000000D03*
X133975000Y-131500000D03*
X78400000Y-140800000D03*
X71600000Y-132000000D03*
X133500000Y-107700000D03*
%TO.N,CV_IN_1*%
X127900000Y-120700000D03*
X125200000Y-92100000D03*
X131000000Y-60200000D03*
X130375000Y-68300000D03*
%TO.N,CV_IN_2*%
X128500000Y-62700000D03*
X123700000Y-90600000D03*
X128700000Y-68300000D03*
X121700000Y-121800000D03*
%TO.N,DAC_BCLK*%
X151800000Y-86700000D03*
%TO.N,TRIGGER_OUT_1*%
X118175999Y-103601304D03*
X74900000Y-113613347D03*
X119800000Y-102100000D03*
X75200000Y-110700000D03*
%TO.N,DAC_DOUT*%
X153500000Y-86700000D03*
%TO.N,TRIGGER_OUT_2*%
X165400000Y-73100000D03*
X73100000Y-73300000D03*
%TO.N,TRIGGER_OUT_3*%
X139100000Y-121000000D03*
X81100000Y-105200000D03*
X74117920Y-127817493D03*
%TO.N,TRIGGER_OUT_4*%
X81900000Y-134900000D03*
X92500000Y-108200000D03*
X129400000Y-91300000D03*
X126500000Y-113300000D03*
%TO.N,SYNC_OUT*%
X74804114Y-141375001D03*
X134700000Y-140300000D03*
X135800000Y-87700000D03*
X134700000Y-121200000D03*
X132400000Y-90400000D03*
%TO.N,+3.3V*%
X170980667Y-92518670D03*
X122700000Y-136800000D03*
X105900000Y-71200000D03*
X127500000Y-68700000D03*
X87800000Y-53200000D03*
X105600000Y-53600000D03*
X86800000Y-124900000D03*
X122900000Y-120500000D03*
X85700000Y-70800000D03*
%TO.N,SYNC_IN*%
X132100000Y-87100000D03*
X129900000Y-117100000D03*
%TO.N,Net-(U5-D0)*%
X110200000Y-78000000D03*
%TO.N,Net-(J15-Pin_1)*%
X135200000Y-72200000D03*
%TO.N,Net-(U5-D1)*%
X118700000Y-92600000D03*
X110300000Y-76900000D03*
%TO.N,Net-(U5-D2)*%
X106100000Y-74500000D03*
%TO.N,Net-(U5-D3)*%
X105300000Y-73825000D03*
%TO.N,Net-(U5-D4)*%
X110300000Y-73825000D03*
%TO.N,Net-(U5-D5)*%
X110300000Y-74825003D03*
%TO.N,Net-(U5-D6)*%
X110300000Y-75825006D03*
X113900000Y-106900000D03*
%TO.N,/Shift register in 1/DATA_OUT*%
X99400000Y-80800000D03*
X102537347Y-77037347D03*
%TO.N,Net-(J15-Pin_3)*%
X134400000Y-75300000D03*
X150400000Y-73900000D03*
%TO.N,Net-(J15-Pin_2)*%
X135200000Y-74000000D03*
X149300000Y-73825000D03*
%TO.N,/Shift register in 2/DATA_OUT*%
X118700000Y-81500000D03*
X115600000Y-80100000D03*
%TO.N,Net-(J15-Pin_4)*%
X151500000Y-74000000D03*
X134400000Y-76424000D03*
%TO.N,Net-(U1-QG)*%
X175100000Y-76500000D03*
X165500000Y-90500000D03*
%TO.N,12V DETECTION*%
X141000000Y-117000000D03*
X134400000Y-78500000D03*
X125400000Y-73825000D03*
X135549001Y-74937125D03*
%TO.N,Net-(U1-QH)*%
X163400000Y-72300000D03*
X178300000Y-77200000D03*
%TO.N,Net-(U1-QB)*%
X165000000Y-89000000D03*
X175300000Y-75200000D03*
%TO.N,Net-(U1-QC)*%
X174500000Y-70900000D03*
X165500000Y-92100000D03*
%TO.N,Net-(U1-QD)*%
X160900000Y-96300000D03*
X171100000Y-69449000D03*
%TO.N,Net-(U1-QF)*%
X174300000Y-74700000D03*
X161969000Y-89000000D03*
%TO.N,Net-(U4-D0)*%
X83700000Y-77400000D03*
%TO.N,Net-(U4-D1)*%
X85300000Y-75400000D03*
%TO.N,Net-(U4-D2)*%
X95500000Y-74500000D03*
%TO.N,Net-(U4-D4)*%
X113800000Y-87025000D03*
%TO.N,Net-(U4-D5)*%
X94200000Y-74100000D03*
%TO.N,Net-(U4-D6)*%
X95000000Y-75400000D03*
%TO.N,Net-(U4-D7)*%
X90800000Y-76506000D03*
X92400000Y-93300000D03*
%TO.N,Net-(U10-D1)*%
X127500000Y-104400000D03*
X127300000Y-80200000D03*
X161600000Y-110200000D03*
%TO.N,Net-(R66-Pad1)*%
X103300000Y-117800000D03*
X75300000Y-107200000D03*
X102300000Y-103750000D03*
X72600000Y-111900000D03*
%TO.N,Net-(R67-Pad1)*%
X71800000Y-114700000D03*
X78761653Y-114338347D03*
%TO.N,Net-(R72-Pad1)*%
X79300000Y-133300000D03*
X73569258Y-133050000D03*
%TO.N,Net-(U10-D2)*%
X128025000Y-81500000D03*
X128500000Y-104300000D03*
X161621000Y-105900000D03*
%TO.N,Net-(U14-OUTL)*%
X142716931Y-92876189D03*
X135316566Y-94118741D03*
%TO.N,Net-(U14-OUTR)*%
X142500000Y-91900000D03*
X135400000Y-92700000D03*
%TO.N,Net-(U6-A7)*%
X94200000Y-58100000D03*
X137600000Y-65400000D03*
%TO.N,Net-(U9-A2)*%
X162300000Y-72100000D03*
X109113481Y-53798225D03*
%TO.N,Net-(U9-A3)*%
X129000000Y-56100000D03*
X109100000Y-59061000D03*
%TD*%
D45*
%TO.N,unconnected-(A1-VBUS-Pad40)*%
X181490000Y-83750000D02*
X181490000Y-81210000D01*
%TO.N,CV_IN_3*%
X128475000Y-137845000D02*
X130630000Y-137845000D01*
X130630000Y-137845000D02*
X130750000Y-137725000D01*
X126100000Y-92900000D02*
X131100000Y-87900000D01*
X128475000Y-135425000D02*
X128700000Y-135200000D01*
X130750000Y-137725000D02*
X132450000Y-137725000D01*
X128475000Y-137845000D02*
X128475000Y-135425000D01*
X112850000Y-55700000D02*
X125300000Y-55700000D01*
X131100000Y-87900000D02*
X131100000Y-67100000D01*
X112500000Y-55350000D02*
X112850000Y-55700000D01*
X125300000Y-55700000D02*
X131400000Y-61800000D01*
X132450000Y-137725000D02*
X132500000Y-137675000D01*
%TO.N,unconnected-(A1-RUN-Pad30)*%
X156090000Y-83750000D02*
X156090000Y-81210000D01*
%TO.N,GND*%
X112575000Y-79445000D02*
X113845000Y-79445000D01*
X151010000Y-101530000D02*
X151010000Y-104070000D01*
X112500000Y-62970000D02*
X112500000Y-60430000D01*
X121600000Y-85250000D02*
X120550000Y-85250000D01*
D46*
X178000000Y-116300000D02*
X180400000Y-116300000D01*
D45*
X156675000Y-109500000D02*
X155700000Y-109500000D01*
X137005000Y-108595000D02*
X136100000Y-109500000D01*
X128475000Y-125905000D02*
X128475000Y-124635000D01*
X76575000Y-115750000D02*
X76575000Y-116475000D01*
X166675000Y-109500000D02*
X166675000Y-108519993D01*
X81600000Y-85250000D02*
X80650000Y-85250000D01*
X100550000Y-97250000D02*
X100500000Y-97300000D01*
X156050000Y-123175000D02*
X155725000Y-123500000D01*
X138825000Y-96475000D02*
X139300000Y-96000000D01*
X145600000Y-92900000D02*
X144200000Y-92900000D01*
X83125000Y-122050000D02*
X84650000Y-122050000D01*
X141137500Y-90475000D02*
X141137500Y-89825000D01*
X146862500Y-93075000D02*
X148900000Y-93075000D01*
X146862500Y-89825000D02*
X146862500Y-90475000D01*
X133999999Y-109865000D02*
X135269999Y-108595000D01*
X145600000Y-109500000D02*
X145500000Y-109400000D01*
X138250000Y-96475000D02*
X136500000Y-96475000D01*
X120550000Y-85250000D02*
X120500000Y-85300000D01*
X133025000Y-109865000D02*
X133999999Y-109865000D01*
D46*
X183500000Y-131200000D02*
X181800000Y-129500000D01*
D45*
X129725000Y-95000000D02*
X129725000Y-93250000D01*
X145775000Y-93075000D02*
X145600000Y-92900000D01*
X128475000Y-141655000D02*
X130355000Y-141655000D01*
X185025000Y-138175000D02*
X184300000Y-138900000D01*
X111600000Y-97250000D02*
X110650000Y-97250000D01*
X130825000Y-109500000D02*
X132660000Y-109500000D01*
X172050000Y-139250000D02*
X170950000Y-139250000D01*
X78075000Y-136250000D02*
X76575000Y-136250000D01*
X135750000Y-89975000D02*
X137500000Y-89975000D01*
X138310000Y-104070000D02*
X138310000Y-101530000D01*
X172885000Y-88885000D02*
X172000000Y-88000000D01*
X141825000Y-109643975D02*
X142540619Y-110359594D01*
X87525000Y-71525000D02*
X85975000Y-71525000D01*
X143800000Y-92500000D02*
X143800000Y-92819840D01*
X146862500Y-93075000D02*
X145775000Y-93075000D01*
X134250000Y-98450000D02*
X134300000Y-98500000D01*
X87525000Y-77875000D02*
X88499999Y-77875000D01*
X143800000Y-91000000D02*
X143800000Y-92500000D01*
X110550000Y-85250000D02*
X110300000Y-85500000D01*
X89769999Y-79145000D02*
X92475000Y-79145000D01*
X128975000Y-98500000D02*
X128975000Y-99275000D01*
X176750000Y-145000000D02*
X176750000Y-143650000D01*
X173645000Y-78445000D02*
X176410000Y-81210000D01*
X144200000Y-92900000D02*
X143800000Y-92500000D01*
X172050000Y-137425000D02*
X172225000Y-137250000D01*
X121600000Y-97250000D02*
X120225000Y-97250000D01*
X132660000Y-109500000D02*
X133025000Y-109865000D01*
X141825000Y-109500000D02*
X141825000Y-109643975D01*
X128475000Y-140385000D02*
X128475000Y-141655000D01*
X86650000Y-77875000D02*
X86025000Y-78500000D01*
X181225000Y-139135000D02*
X180265000Y-139135000D01*
X149000000Y-96225000D02*
X150750000Y-96225000D01*
X140987500Y-89975000D02*
X141137500Y-89825000D01*
X92375000Y-63145000D02*
X92375000Y-60605000D01*
X92375000Y-63225000D02*
X90900000Y-64700000D01*
X141137500Y-89825000D02*
X142625000Y-89825000D01*
X107150000Y-72300000D02*
X105400000Y-72300000D01*
X80650000Y-85250000D02*
X80600000Y-85300000D01*
X121600000Y-109250000D02*
X119950000Y-109250000D01*
X147800000Y-95025000D02*
X146862500Y-95025000D01*
X128475000Y-125905000D02*
X130605000Y-125905000D01*
X142600000Y-113925000D02*
X142600000Y-110418975D01*
X80550000Y-109250000D02*
X80200000Y-109600000D01*
X139250000Y-89975000D02*
X140987500Y-89975000D01*
X143800000Y-92819840D02*
X142244840Y-94375000D01*
X172725000Y-78445000D02*
X173645000Y-78445000D01*
X81600000Y-97250000D02*
X80850000Y-97250000D01*
X137975000Y-108595000D02*
X137005000Y-108595000D01*
X151010000Y-81210000D02*
X151010000Y-83750000D01*
X135269999Y-108595000D02*
X137975000Y-108595000D01*
X128975000Y-98500000D02*
X128975000Y-96750000D01*
X142244840Y-94375000D02*
X141137500Y-94375000D01*
X81600000Y-109250000D02*
X80550000Y-109250000D01*
X123525000Y-141655000D02*
X121645000Y-141655000D01*
X128975000Y-95750000D02*
X129725000Y-95000000D01*
X91600000Y-85250000D02*
X90550000Y-85250000D01*
X111600000Y-85250000D02*
X110550000Y-85250000D01*
X136500000Y-96475000D02*
X136500000Y-94775000D01*
X126850000Y-71150000D02*
X125600000Y-69900000D01*
D46*
X185500000Y-134275000D02*
X186475000Y-135250000D01*
D45*
X123525000Y-125905000D02*
X121395000Y-125905000D01*
X185025000Y-141500000D02*
X185025000Y-141675000D01*
X169265000Y-73365000D02*
X169600000Y-73700000D01*
X185025000Y-138000000D02*
X185025000Y-138175000D01*
X101600000Y-85250000D02*
X100250000Y-85250000D01*
X79825000Y-138000000D02*
X78075000Y-136250000D01*
X176410000Y-104070000D02*
X176410000Y-101530000D01*
D46*
X185500000Y-116300000D02*
X183200000Y-116300000D01*
D45*
X167775000Y-73365000D02*
X169265000Y-73365000D01*
X130605000Y-125905000D02*
X132000000Y-127300000D01*
X132450000Y-78770000D02*
X132906000Y-79226000D01*
X129225000Y-107900000D02*
X130825000Y-109500000D01*
X91600000Y-109250000D02*
X90350000Y-109250000D01*
X181150000Y-134850000D02*
X181900000Y-135600000D01*
X180265000Y-139135000D02*
X179500000Y-139900000D01*
X85975000Y-71525000D02*
X82500000Y-75000000D01*
X163710000Y-104070000D02*
X163710000Y-101530000D01*
X76830000Y-146400000D02*
X84000000Y-146400000D01*
X172050000Y-139250000D02*
X172050000Y-137425000D01*
X129225000Y-107750000D02*
X129225000Y-107900000D01*
X100250000Y-109250000D02*
X100200000Y-109300000D01*
X114000000Y-61700000D02*
X114100000Y-61600000D01*
X149075000Y-96225000D02*
X149800000Y-95500000D01*
X148225000Y-90475000D02*
X148300000Y-90400000D01*
X76575000Y-116475000D02*
X77100000Y-117000000D01*
X136326000Y-79226000D02*
X138310000Y-81210000D01*
X128975000Y-96750000D02*
X128975000Y-95750000D01*
X90650000Y-97250000D02*
X90500000Y-97400000D01*
D46*
X185500000Y-131200000D02*
X183500000Y-131200000D01*
D45*
X92375000Y-63145000D02*
X92375000Y-63225000D01*
X149000000Y-96225000D02*
X147800000Y-95025000D01*
X110050000Y-109250000D02*
X109800000Y-109500000D01*
X127500000Y-71150000D02*
X126850000Y-71150000D01*
D46*
X183200000Y-116300000D02*
X181800000Y-117700000D01*
D45*
X107625000Y-71825000D02*
X107150000Y-72300000D01*
X172885000Y-90275000D02*
X172885000Y-88885000D01*
D46*
X185500000Y-131200000D02*
X185500000Y-134275000D01*
D45*
X128975000Y-99275000D02*
X129400000Y-99700000D01*
X121645000Y-141655000D02*
X120000000Y-143300000D01*
X142625000Y-89825000D02*
X143800000Y-91000000D01*
X149000000Y-96225000D02*
X149075000Y-96225000D01*
X101600000Y-97250000D02*
X100550000Y-97250000D01*
X149000000Y-92975000D02*
X150750000Y-92975000D01*
X146862500Y-90475000D02*
X148225000Y-90475000D01*
X167805000Y-95225000D02*
X167225000Y-95225000D01*
X142600000Y-110418975D02*
X142540619Y-110359594D01*
D46*
X178000000Y-131200000D02*
X180100000Y-131200000D01*
D45*
X141775000Y-114750000D02*
X142600000Y-113925000D01*
X76575000Y-125250000D02*
X77250000Y-125250000D01*
X112500000Y-61700000D02*
X114000000Y-61700000D01*
X75655000Y-145225000D02*
X76830000Y-146400000D01*
X134250000Y-97750000D02*
X134250000Y-98450000D01*
X176410000Y-83750000D02*
X176410000Y-81210000D01*
X166675000Y-108519993D02*
X166796991Y-108398002D01*
X90350000Y-109250000D02*
X90200000Y-109400000D01*
X155700000Y-109500000D02*
X155500000Y-109700000D01*
X79825000Y-138000000D02*
X79825000Y-138875000D01*
X120225000Y-97250000D02*
X119875000Y-97600000D01*
X138310000Y-83750000D02*
X138310000Y-81210000D01*
X77250000Y-125250000D02*
X77900000Y-125900000D01*
D46*
X180400000Y-116300000D02*
X181800000Y-117700000D01*
D45*
X88499999Y-77875000D02*
X89769999Y-79145000D01*
X176675000Y-109500000D02*
X175600000Y-109500000D01*
X170950000Y-139250000D02*
X170700000Y-139000000D01*
X163710000Y-83750000D02*
X163710000Y-81210000D01*
X137500000Y-89975000D02*
X139250000Y-89975000D01*
X113845000Y-79445000D02*
X114300000Y-79900000D01*
X130355000Y-141655000D02*
X132000000Y-143300000D01*
X80850000Y-97250000D02*
X80500000Y-97600000D01*
X76575000Y-127000000D02*
X76575000Y-125250000D01*
X167225000Y-95225000D02*
X166100000Y-94100000D01*
X132906000Y-79226000D02*
X136326000Y-79226000D01*
X176750000Y-143650000D02*
X176300000Y-143200000D01*
X111600000Y-109250000D02*
X110050000Y-109250000D01*
X185025000Y-141675000D02*
X184300000Y-142400000D01*
X84650000Y-122050000D02*
X84700000Y-122000000D01*
X181150000Y-134750000D02*
X181150000Y-134850000D01*
X148900000Y-93075000D02*
X149000000Y-92975000D01*
X90550000Y-85250000D02*
X90500000Y-85300000D01*
X138250000Y-96475000D02*
X138825000Y-96475000D01*
X156050000Y-118575000D02*
X156050000Y-123175000D01*
D46*
X180100000Y-131200000D02*
X181800000Y-129500000D01*
D45*
X79825000Y-138875000D02*
X79400000Y-139300000D01*
X91600000Y-97250000D02*
X90650000Y-97250000D01*
X110650000Y-97250000D02*
X110400000Y-97500000D01*
X101600000Y-109250000D02*
X100250000Y-109250000D01*
X100250000Y-85250000D02*
X100100000Y-85400000D01*
X121395000Y-125905000D02*
X120000000Y-127300000D01*
X146675000Y-109500000D02*
X145600000Y-109500000D01*
X87525000Y-77875000D02*
X86650000Y-77875000D01*
X119950000Y-109250000D02*
X119700000Y-109500000D01*
%TO.N,Net-(D1-A)*%
X158265000Y-123500000D02*
X159675000Y-123500000D01*
X159675000Y-123500000D02*
X160250000Y-122925000D01*
%TO.N,CV_IN_4*%
X124237810Y-92000000D02*
X122975000Y-92000000D01*
X122915000Y-139115000D02*
X123525000Y-139115000D01*
X129500000Y-67300000D02*
X129500000Y-68902000D01*
X121200000Y-138925000D02*
X121250000Y-138975000D01*
X130198000Y-86039810D02*
X124237810Y-92000000D01*
X130198000Y-69498000D02*
X130198000Y-80600000D01*
X121250000Y-138975000D02*
X123385000Y-138975000D01*
X129602000Y-68902000D02*
X130198000Y-69498000D01*
X121600000Y-137800000D02*
X122915000Y-139115000D01*
X125339000Y-57890000D02*
X129649000Y-62200000D01*
X129500000Y-68902000D02*
X129602000Y-68902000D01*
X119500000Y-138925000D02*
X121200000Y-138925000D01*
X112500000Y-57890000D02*
X125339000Y-57890000D01*
X123385000Y-138975000D02*
X123525000Y-139115000D01*
X130198000Y-80600000D02*
X130198000Y-86039810D01*
D46*
%TO.N,+12V*%
X177353100Y-135844000D02*
X174306026Y-135844000D01*
X80400000Y-135000000D02*
X79300000Y-135000000D01*
X77500000Y-133200000D02*
X77500000Y-132525000D01*
X77575000Y-143200000D02*
X77500000Y-143275000D01*
X77500000Y-121275000D02*
X77500000Y-121400000D01*
X77075000Y-121275000D02*
X76500000Y-120700000D01*
X177701000Y-138699000D02*
X177701000Y-136191900D01*
X173950000Y-139250000D02*
X177150000Y-139250000D01*
X140225000Y-114750000D02*
X140225000Y-115525000D01*
X171400000Y-134550026D02*
X171400000Y-122880000D01*
X76900000Y-132200000D02*
X72895001Y-132200000D01*
X173950000Y-139250000D02*
X176160000Y-139250000D01*
X76500000Y-120700000D02*
X72800000Y-120700000D01*
X140774000Y-116074000D02*
X156899000Y-116074000D01*
X160325000Y-116925000D02*
X161600000Y-118200000D01*
X165000000Y-119020000D02*
X167540000Y-119020000D01*
X78800000Y-143200000D02*
X77575000Y-143200000D01*
X173849026Y-136301000D02*
X173150974Y-136301000D01*
X71845000Y-133250001D02*
X71845000Y-134225000D01*
X76875000Y-143275000D02*
X76300000Y-142700000D01*
X76300000Y-142700000D02*
X73395001Y-142700000D01*
X177701000Y-136191900D02*
X177353100Y-135844000D01*
X71845000Y-121655000D02*
X71845000Y-122975000D01*
X137975000Y-112405000D02*
X137975000Y-112500000D01*
X77500000Y-143275000D02*
X76875000Y-143275000D01*
X77500000Y-132525000D02*
X77225000Y-132525000D01*
X171400000Y-122880000D02*
X167540000Y-119020000D01*
X79300000Y-135000000D02*
X77500000Y-133200000D01*
X137975000Y-112500000D02*
X140225000Y-114750000D01*
X77500000Y-121275000D02*
X77075000Y-121275000D01*
X176160000Y-139250000D02*
X176275000Y-139135000D01*
X173150974Y-136301000D02*
X171400000Y-134550026D01*
X177150000Y-139250000D02*
X177701000Y-138699000D01*
X72800000Y-120700000D02*
X71845000Y-121655000D01*
X140225000Y-115525000D02*
X140774000Y-116074000D01*
X156899000Y-116074000D02*
X157750000Y-116925000D01*
X174306026Y-135844000D02*
X173849026Y-136301000D01*
X72895001Y-132200000D02*
X71845000Y-133250001D01*
X71845000Y-144250001D02*
X71845000Y-145225000D01*
X77225000Y-132525000D02*
X76900000Y-132200000D01*
X77500000Y-121400000D02*
X76800000Y-122100000D01*
X157750000Y-116925000D02*
X160325000Y-116925000D01*
X73395001Y-142700000D02*
X71845000Y-144250001D01*
D45*
%TO.N,TRIGGER_OUT_1_EURO*%
X93075000Y-119000000D02*
X96000000Y-119000000D01*
%TO.N,TRIGGER_OUT_2_EURO*%
X105075000Y-119000000D02*
X108000000Y-119000000D01*
%TO.N,TRIGGER_OUT_3_EURO*%
X93075000Y-135000000D02*
X96000000Y-135000000D01*
%TO.N,TRIGGER_OUT_4_EURO*%
X105075000Y-135000000D02*
X108000000Y-135000000D01*
%TO.N,SYNC_IN_EURO*%
X83800000Y-118800000D02*
X84000000Y-119000000D01*
X81625000Y-118800000D02*
X83800000Y-118800000D01*
%TO.N,SYNC_OUT_EURO*%
X73287678Y-142100000D02*
X76614534Y-142100000D01*
X84000000Y-136485466D02*
X84000000Y-135000000D01*
X77014534Y-142500000D02*
X77985466Y-142500000D01*
X72489000Y-141301322D02*
X73287678Y-142100000D01*
X77985466Y-142500000D02*
X84000000Y-136485466D01*
X73325000Y-138000000D02*
X72489000Y-138836000D01*
X76614534Y-142100000D02*
X77014534Y-142500000D01*
X72489000Y-138836000D02*
X72489000Y-141301322D01*
%TO.N,SD_CLOCK*%
X173870000Y-104070000D02*
X173870000Y-101530000D01*
%TO.N,SD_SERIAL_OUT*%
X168790000Y-104070000D02*
X168790000Y-101530000D01*
%TO.N,SD_SERIAL_IN*%
X171330000Y-104070000D02*
X171330000Y-101530000D01*
X179222322Y-94350000D02*
X175472322Y-98100000D01*
X174760000Y-98100000D02*
X171330000Y-101530000D01*
X175472322Y-98100000D02*
X174760000Y-98100000D01*
X181550000Y-94350000D02*
X179222322Y-94350000D01*
%TO.N,SD_CHIP_SELECT*%
X166250000Y-104070000D02*
X166250000Y-101530000D01*
%TO.N,595_DATA*%
X161170000Y-104070000D02*
X161170000Y-101530000D01*
X167680000Y-72000000D02*
X167775000Y-72095000D01*
X166100000Y-72000000D02*
X167680000Y-72000000D01*
%TO.N,595_CLOCK*%
X170400000Y-90220000D02*
X170345000Y-90275000D01*
X170050000Y-76650000D02*
X169305000Y-75905000D01*
X158630000Y-104070000D02*
X158630000Y-101530000D01*
X169305000Y-75905000D02*
X167775000Y-75905000D01*
X170300000Y-90320000D02*
X170345000Y-90275000D01*
X170400000Y-87900000D02*
X170400000Y-90220000D01*
X170300000Y-91700000D02*
X170300000Y-90320000D01*
%TO.N,595_LATCH*%
X168876884Y-85500000D02*
X167426000Y-84049116D01*
X166474000Y-78796322D02*
X166474000Y-74961001D01*
X171274000Y-86574000D02*
X170200000Y-85500000D01*
X167426000Y-79748322D02*
X166474000Y-78796322D01*
X166800001Y-74635000D02*
X167775000Y-74635000D01*
X170200000Y-85500000D02*
X168876884Y-85500000D01*
X171700000Y-90360000D02*
X171615000Y-90275000D01*
X171700000Y-91824000D02*
X171700000Y-90360000D01*
X156090000Y-104070000D02*
X156090000Y-101530000D01*
X167426000Y-84049116D02*
X167426000Y-79748322D01*
X166474000Y-74961001D02*
X166800001Y-74635000D01*
X171615000Y-90275000D02*
X171274000Y-89934000D01*
X171274000Y-89934000D02*
X171274000Y-86574000D01*
%TO.N,EURO_OUT_1*%
X141325000Y-119000000D02*
X144000000Y-119000000D01*
%TO.N,165_LOAD*%
X114455000Y-70555000D02*
X114600000Y-70700000D01*
X134100000Y-70300000D02*
X132870000Y-70300000D01*
X132450000Y-69880000D02*
X134832000Y-69880000D01*
X134832000Y-69880000D02*
X138774000Y-73822000D01*
X112575000Y-70555000D02*
X114455000Y-70555000D01*
X138774000Y-73822000D02*
X138774000Y-76174000D01*
X143390000Y-104070000D02*
X143390000Y-101530000D01*
X92475000Y-70255000D02*
X94245000Y-70255000D01*
X138774000Y-76174000D02*
X141000000Y-78400000D01*
X94245000Y-70255000D02*
X94500000Y-70000000D01*
X132870000Y-70300000D02*
X132450000Y-69880000D01*
%TO.N,165_CLOCK*%
X138726000Y-76826000D02*
X138126000Y-76226000D01*
X114875000Y-71825000D02*
X115100000Y-71600000D01*
X136274000Y-76226000D02*
X136274000Y-71959810D01*
X136274000Y-71959810D02*
X135464190Y-71150000D01*
X135464190Y-71150000D02*
X132450000Y-71150000D01*
X134500000Y-71400000D02*
X132700000Y-71400000D01*
X140850000Y-101530000D02*
X140850000Y-104070000D01*
X92475000Y-71525000D02*
X94075000Y-71525000D01*
X132700000Y-71400000D02*
X132450000Y-71150000D01*
X94075000Y-71525000D02*
X94200000Y-71400000D01*
X112575000Y-71825000D02*
X114875000Y-71825000D01*
X139900000Y-78500000D02*
X138726000Y-77326000D01*
X138726000Y-77326000D02*
X138726000Y-76826000D01*
X138126000Y-76226000D02*
X136274000Y-76226000D01*
%TO.N,165_DATA*%
X126574000Y-79696000D02*
X126574000Y-81075720D01*
X126574000Y-81075720D02*
X127898280Y-82400000D01*
X127898280Y-82400000D02*
X129000000Y-82400000D01*
X135770000Y-101530000D02*
X135770000Y-104070000D01*
X127500000Y-78770000D02*
X126574000Y-79696000D01*
D46*
%TO.N,+5V*%
X130525000Y-99778496D02*
X129103496Y-101200000D01*
X129103496Y-101200000D02*
X123400000Y-101200000D01*
X186751000Y-120449000D02*
X185500000Y-121700000D01*
X186751000Y-114502708D02*
X186751000Y-120449000D01*
X172600000Y-131200000D02*
X178000000Y-125800000D01*
X178950000Y-83750000D02*
X182791000Y-87591000D01*
X173500000Y-135550000D02*
X172600000Y-134650000D01*
X132175000Y-98500000D02*
X132375000Y-98700000D01*
X178000000Y-125800000D02*
X185500000Y-125800000D01*
X172600000Y-134650000D02*
X172600000Y-131200000D01*
X130525000Y-98500000D02*
X132175000Y-98500000D01*
X178000000Y-125800000D02*
X168000000Y-115800000D01*
X178000000Y-125800000D02*
X178000000Y-121700000D01*
X186347292Y-114099000D02*
X186751000Y-114502708D01*
X182791000Y-111933000D02*
X184957000Y-114099000D01*
X184957000Y-114099000D02*
X186347292Y-114099000D01*
X178950000Y-83750000D02*
X178950000Y-81210000D01*
X185500000Y-121700000D02*
X185500000Y-125800000D01*
X168000000Y-115800000D02*
X165400000Y-115800000D01*
X182791000Y-87591000D02*
X182791000Y-111933000D01*
X130525000Y-98500000D02*
X130525000Y-99778496D01*
D45*
%TO.N,4051_ADDRESS_A*%
X144240000Y-80360000D02*
X143390000Y-81210000D01*
X107550000Y-60430000D02*
X107167678Y-60430000D01*
X107180000Y-60800000D02*
X107550000Y-60430000D01*
X105798000Y-61799678D02*
X105798000Y-63508132D01*
X107167678Y-60430000D02*
X105798000Y-61799678D01*
X105798000Y-63508132D02*
X106787868Y-64498000D01*
X144240000Y-70859984D02*
X144240000Y-80360000D01*
X87425000Y-60605000D02*
X85895000Y-60605000D01*
X105800000Y-60800000D02*
X107180000Y-60800000D01*
X85895000Y-60605000D02*
X85500000Y-61000000D01*
X143390000Y-83750000D02*
X143390000Y-81210000D01*
X106787868Y-64498000D02*
X137878016Y-64498000D01*
X137878016Y-64498000D02*
X144240000Y-70859984D01*
%TO.N,4051_ADDRESS_B*%
X87425000Y-61875000D02*
X85825000Y-61875000D01*
X106249000Y-62618678D02*
X106249000Y-63321322D01*
X107550000Y-61700000D02*
X107167678Y-61700000D01*
X109200000Y-61100000D02*
X108150000Y-61100000D01*
X106249000Y-63321322D02*
X106974678Y-64047000D01*
X145930000Y-81210000D02*
X145930000Y-83750000D01*
X108150000Y-61100000D02*
X107550000Y-61700000D01*
X138064826Y-64047000D02*
X145930000Y-71912174D01*
X145930000Y-71912174D02*
X145930000Y-81210000D01*
X85825000Y-61875000D02*
X85500000Y-62200000D01*
X107167678Y-61700000D02*
X106249000Y-62618678D01*
X106974678Y-64047000D02*
X138064826Y-64047000D01*
%TO.N,4051_ADDRESS_C*%
X138251636Y-63596000D02*
X148470000Y-73814364D01*
X108176000Y-63596000D02*
X138251636Y-63596000D01*
X107550000Y-62970000D02*
X108176000Y-63596000D01*
X148470000Y-73814364D02*
X148470000Y-81210000D01*
X109300000Y-62600000D02*
X107920000Y-62600000D01*
X86155000Y-63145000D02*
X85600000Y-63700000D01*
X148470000Y-83750000D02*
X148470000Y-81210000D01*
X87425000Y-63145000D02*
X86155000Y-63145000D01*
X107920000Y-62600000D02*
X107550000Y-62970000D01*
%TO.N,unconnected-(A1-ADC_VREF-Pad35)*%
X168790000Y-83750000D02*
X168790000Y-81210000D01*
%TO.N,4051_READING_0*%
X158630000Y-83750000D02*
X158630000Y-81210000D01*
X98195000Y-56795000D02*
X92375000Y-56795000D01*
X105200000Y-80900000D02*
X101274000Y-76974000D01*
X116200000Y-80900000D02*
X105200000Y-80900000D01*
X101274000Y-76974000D02*
X101274000Y-59874000D01*
X101274000Y-59874000D02*
X98195000Y-56795000D01*
%TO.N,4051_READING_1*%
X161170000Y-81210000D02*
X161170000Y-78570000D01*
X125000000Y-74655636D02*
X115293364Y-64949000D01*
X111480000Y-56620000D02*
X112500000Y-56620000D01*
X110200000Y-57900000D02*
X111480000Y-56620000D01*
X115293364Y-64949000D02*
X106601058Y-64949000D01*
X105074000Y-60499280D02*
X105787280Y-59786000D01*
X110200000Y-59000000D02*
X110200000Y-57900000D01*
X161170000Y-78570000D02*
X161000000Y-78400000D01*
X125000000Y-75900000D02*
X125000000Y-74655636D01*
X105074000Y-63421942D02*
X105074000Y-60499280D01*
X106601058Y-64949000D02*
X105074000Y-63421942D01*
X109414000Y-59786000D02*
X110200000Y-59000000D01*
X161170000Y-83750000D02*
X161170000Y-81210000D01*
X105787280Y-59786000D02*
X109414000Y-59786000D01*
D46*
%TO.N,Net-(D5-K)*%
X181525000Y-140705000D02*
X181225000Y-140405000D01*
X180750000Y-143025000D02*
X181525000Y-142250000D01*
X172350000Y-146850000D02*
X178900000Y-146850000D01*
X181525000Y-142250000D02*
X181525000Y-140705000D01*
X171500000Y-146000000D02*
X172350000Y-146850000D01*
X178900000Y-146850000D02*
X180750000Y-145000000D01*
X180750000Y-145000000D02*
X180750000Y-143025000D01*
D45*
%TO.N,EURO_OUT_2*%
X141325000Y-135000000D02*
X144000000Y-135000000D01*
%TO.N,Net-(J14-PadT)*%
X125926000Y-133749000D02*
X130749000Y-133749000D01*
X130749000Y-133749000D02*
X132000000Y-135000000D01*
X125200000Y-134475000D02*
X125926000Y-133749000D01*
%TO.N,unconnected-(A1-3V3_EN-Pad37)*%
X173870000Y-83750000D02*
X173870000Y-81210000D01*
%TO.N,Net-(U7A--)*%
X126800000Y-122664999D02*
X127500001Y-123365000D01*
X126825000Y-124040001D02*
X127500001Y-123365000D01*
X126800000Y-120325000D02*
X126800000Y-122664999D01*
X132450000Y-123525000D02*
X132500000Y-123575000D01*
X130590000Y-123365000D02*
X130750000Y-123525000D01*
X128475000Y-123365000D02*
X130590000Y-123365000D01*
X127500001Y-123365000D02*
X128475000Y-123365000D01*
X130750000Y-123525000D02*
X132450000Y-123525000D01*
X126825000Y-127750000D02*
X126825000Y-124040001D01*
D46*
%TO.N,+3.3VDAC*%
X141137500Y-95675000D02*
X143100000Y-95675000D01*
D45*
X142275000Y-91125000D02*
X142587347Y-90812653D01*
X139650000Y-91125000D02*
X139250000Y-91525000D01*
D46*
X145000000Y-95675000D02*
X146862500Y-95675000D01*
X150750000Y-97775000D02*
X149000000Y-97775000D01*
X135275000Y-96800000D02*
X134176196Y-96800000D01*
D45*
X146125001Y-93725000D02*
X145000000Y-94850001D01*
D46*
X138787500Y-98025000D02*
X141137500Y-95675000D01*
D45*
X141137500Y-91125000D02*
X139650000Y-91125000D01*
D46*
X136500000Y-98025000D02*
X135275000Y-96800000D01*
X135750000Y-91525000D02*
X139250000Y-91525000D01*
D45*
X143400000Y-95100000D02*
X143400000Y-95375000D01*
D46*
X132375000Y-96800000D02*
X134176196Y-96800000D01*
D45*
X145000000Y-94850001D02*
X145000000Y-95675000D01*
D46*
X132325000Y-96750000D02*
X132375000Y-96800000D01*
D45*
X146862500Y-93725000D02*
X146125001Y-93725000D01*
D46*
X148962500Y-97775000D02*
X146862500Y-95675000D01*
X130525000Y-96750000D02*
X132325000Y-96750000D01*
X138250000Y-98025000D02*
X138787500Y-98025000D01*
X136500000Y-98025000D02*
X138250000Y-98025000D01*
D45*
X141137500Y-91125000D02*
X142275000Y-91125000D01*
D46*
X143100000Y-95675000D02*
X145000000Y-95675000D01*
X149000000Y-97775000D02*
X148962500Y-97775000D01*
D45*
X143400000Y-95375000D02*
X143100000Y-95675000D01*
%TO.N,Net-(U2-QB)*%
X174879942Y-93022000D02*
X172837381Y-93022000D01*
X168249000Y-93249000D02*
X167000000Y-92000000D01*
X176695000Y-94250001D02*
X175744999Y-93300000D01*
X167000000Y-88481694D02*
X167386000Y-88095694D01*
X172610381Y-93249000D02*
X168249000Y-93249000D01*
X164846000Y-86574000D02*
X163770000Y-87650000D01*
X172837381Y-93022000D02*
X172610381Y-93249000D01*
X175744999Y-93300000D02*
X175157942Y-93300000D01*
X167386000Y-87204306D02*
X166755694Y-86574000D01*
X167386000Y-88095694D02*
X167386000Y-87204306D01*
X175157942Y-93300000D02*
X174879942Y-93022000D01*
X167000000Y-92000000D02*
X167000000Y-88481694D01*
X176695000Y-95225000D02*
X176695000Y-94250001D01*
X166755694Y-86574000D02*
X164846000Y-86574000D01*
%TO.N,Net-(U2-QC)*%
X167700000Y-93700000D02*
X166310000Y-92310000D01*
X172797191Y-93700000D02*
X167700000Y-93700000D01*
X174693132Y-93473000D02*
X173024191Y-93473000D01*
X166310000Y-92310000D02*
X166310000Y-87650000D01*
X175425000Y-95225000D02*
X175425000Y-94204868D01*
X173024191Y-93473000D02*
X172797191Y-93700000D01*
X175425000Y-94204868D02*
X174693132Y-93473000D01*
%TO.N,Net-(U2-QD)*%
X174155000Y-96199999D02*
X174155000Y-95225000D01*
X168850000Y-97810000D02*
X172544999Y-97810000D01*
X172544999Y-97810000D02*
X174155000Y-96199999D01*
%TO.N,Net-(U2-QE)*%
X162346000Y-100654000D02*
X162346000Y-122479000D01*
X174781000Y-94198678D02*
X174781000Y-96251322D01*
X173211001Y-93924000D02*
X174506322Y-93924000D01*
X172032322Y-99000000D02*
X164000000Y-99000000D01*
X174781000Y-96251322D02*
X172032322Y-99000000D01*
X172885000Y-94250001D02*
X173211001Y-93924000D01*
X172885000Y-95225000D02*
X172885000Y-94250001D01*
X162346000Y-122479000D02*
X160250000Y-124575000D01*
X164000000Y-99000000D02*
X162346000Y-100654000D01*
X174506322Y-93924000D02*
X174781000Y-94198678D01*
%TO.N,Net-(U2-QF)*%
X171600000Y-96900000D02*
X171600000Y-95240000D01*
X162797000Y-127853000D02*
X162797000Y-106203000D01*
X171615000Y-94250001D02*
X171615000Y-95225000D01*
X165549000Y-99451000D02*
X169651000Y-99451000D01*
X160250000Y-130400000D02*
X162797000Y-127853000D01*
X165000000Y-104443116D02*
X165000000Y-100000000D01*
X171600000Y-95240000D02*
X171615000Y-95225000D01*
X165000000Y-100000000D02*
X165549000Y-99451000D01*
X169651000Y-99451000D02*
X170000000Y-99800000D01*
X163240116Y-106203000D02*
X165000000Y-104443116D01*
X162797000Y-106203000D02*
X163240116Y-106203000D01*
%TO.N,Net-(U2-QG)*%
X165576000Y-112524000D02*
X165576000Y-108376000D01*
X165576000Y-108376000D02*
X167600000Y-106352000D01*
X160250000Y-135400000D02*
X163248000Y-132402000D01*
X167600000Y-106352000D02*
X167600000Y-100300000D01*
X163248000Y-114852000D02*
X165576000Y-112524000D01*
X170400000Y-96800000D02*
X170400000Y-95280000D01*
X170400000Y-95280000D02*
X170345000Y-95225000D01*
X163248000Y-132402000D02*
X163248000Y-114852000D01*
%TO.N,Net-(U2-QH)*%
X167401000Y-108799000D02*
X167401000Y-112199000D01*
X167401000Y-112199000D02*
X163824000Y-115776000D01*
X163824000Y-137826000D02*
X163824000Y-115776000D01*
X169422826Y-96587553D02*
X169422826Y-95572826D01*
X169051000Y-105472116D02*
X170154000Y-104369116D01*
X169422826Y-95572826D02*
X169075000Y-95225000D01*
X170154000Y-104369116D02*
X170154000Y-100946000D01*
X169051000Y-107149000D02*
X167401000Y-108799000D01*
X171300000Y-99800000D02*
X171600000Y-99800000D01*
X170154000Y-100946000D02*
X171300000Y-99800000D01*
X169051000Y-105472116D02*
X169051000Y-107149000D01*
X160250000Y-141400000D02*
X163824000Y-137826000D01*
%TO.N,Net-(C10-Pad1)*%
X185075000Y-139750000D02*
X185075000Y-139900000D01*
X185075000Y-139900000D02*
X183475000Y-141500000D01*
%TO.N,Net-(U2-QA)*%
X175400000Y-90300000D02*
X175425000Y-90275000D01*
X156150000Y-87650000D02*
X156150000Y-91450000D01*
X156150000Y-91450000D02*
X156900000Y-92200000D01*
X175400000Y-91900000D02*
X175400000Y-90300000D01*
%TO.N,Net-(U7B--)*%
X124499999Y-124635000D02*
X125200000Y-123934999D01*
X126099000Y-128774000D02*
X126825000Y-129500000D01*
X123525000Y-124635000D02*
X124499999Y-124635000D01*
X123907322Y-124635000D02*
X126099000Y-126826678D01*
X121250000Y-124695000D02*
X123465000Y-124695000D01*
X123465000Y-124695000D02*
X123525000Y-124635000D01*
X123525000Y-124635000D02*
X123907322Y-124635000D01*
X125200000Y-123934999D02*
X125200000Y-120325000D01*
X121250000Y-124695000D02*
X119550000Y-124695000D01*
X119550000Y-124695000D02*
X119500000Y-124745000D01*
X126099000Y-126826678D02*
X126099000Y-128774000D01*
D46*
%TO.N,Net-(D6-A)*%
X180798292Y-147600000D02*
X185926000Y-142472292D01*
X177176000Y-133824000D02*
X182099000Y-133824000D01*
X185926000Y-142472292D02*
X185926000Y-137463758D01*
X182099000Y-133824000D02*
X183525000Y-135250000D01*
X168851000Y-147600000D02*
X180798292Y-147600000D01*
X168199000Y-146948000D02*
X168851000Y-147600000D01*
X171500000Y-141500000D02*
X168199000Y-144801000D01*
X176250000Y-134750000D02*
X174800000Y-134750000D01*
X174800000Y-134750000D02*
X173500000Y-133450000D01*
X183712242Y-135250000D02*
X183525000Y-135250000D01*
X185926000Y-137463758D02*
X183712242Y-135250000D01*
X168199000Y-144801000D02*
X168199000Y-146948000D01*
X176250000Y-134750000D02*
X177176000Y-133824000D01*
D45*
%TO.N,LINE_OUT_L*%
X131275000Y-95000000D02*
X131275000Y-95500000D01*
X132925000Y-95000000D02*
X131275000Y-95000000D01*
X129700000Y-114000000D02*
X129700000Y-113475000D01*
X129700000Y-113475000D02*
X129225000Y-113000000D01*
X131275000Y-95500000D02*
X131675000Y-95900000D01*
D46*
%TO.N,Net-(U12-BOOT)*%
X179975000Y-142250000D02*
X178120000Y-142250000D01*
X178120000Y-142250000D02*
X176275000Y-140405000D01*
D45*
%TO.N,LINE_OUT_R*%
X135600000Y-95600000D02*
X135200000Y-96000000D01*
X133651000Y-95300418D02*
X133651000Y-93976000D01*
X131275000Y-93250000D02*
X132925000Y-93250000D01*
X135200000Y-96000000D02*
X134350582Y-96000000D01*
X141775000Y-112914813D02*
X141103436Y-112243249D01*
X133651000Y-93976000D02*
X132925000Y-93250000D01*
X141775000Y-113000000D02*
X141775000Y-112914813D01*
X134350582Y-96000000D02*
X133651000Y-95300418D01*
%TO.N,Net-(U12-SS)*%
X174430000Y-136595000D02*
X173775000Y-137250000D01*
X176275000Y-136595000D02*
X174430000Y-136595000D01*
D46*
%TO.N,-12V*%
X165000000Y-129180000D02*
X167540000Y-129180000D01*
X77355000Y-119725000D02*
X75655000Y-118025000D01*
X126825000Y-143500000D02*
X126825000Y-142525000D01*
X72300000Y-131300000D02*
X71600000Y-132000000D01*
X130775000Y-107750000D02*
X132180000Y-107750000D01*
X126825000Y-143500000D02*
X126825000Y-145250000D01*
X77355000Y-130975000D02*
X75655000Y-129275000D01*
D45*
X125175000Y-129500000D02*
X125175000Y-127750000D01*
D46*
X133025000Y-108175000D02*
X133500000Y-107700000D01*
X78400000Y-140825000D02*
X77500000Y-141725000D01*
X116900000Y-135242950D02*
X120141950Y-132001000D01*
X133975000Y-131500000D02*
X132875000Y-132600000D01*
X132875000Y-132600000D02*
X123273000Y-132600000D01*
X77500000Y-130975000D02*
X77175000Y-131300000D01*
X120141950Y-132001000D02*
X122674000Y-132001000D01*
X75925000Y-119725000D02*
X75900000Y-119700000D01*
X123273000Y-132600000D02*
X122674000Y-132001000D01*
X77500000Y-119725000D02*
X77355000Y-119725000D01*
X77500000Y-119725000D02*
X75925000Y-119725000D01*
X77105000Y-141725000D02*
X75655000Y-140275000D01*
X132180000Y-107750000D02*
X133025000Y-108595000D01*
X133025000Y-108595000D02*
X133025000Y-108175000D01*
X116900000Y-139600000D02*
X116900000Y-135242950D01*
X78400000Y-140800000D02*
X78400000Y-140825000D01*
X126825000Y-142525000D02*
X126300000Y-142000000D01*
X122674000Y-132001000D02*
X125175000Y-129500000D01*
X77500000Y-130975000D02*
X77355000Y-130975000D01*
X77500000Y-141725000D02*
X77105000Y-141725000D01*
X77175000Y-131300000D02*
X72300000Y-131300000D01*
D45*
%TO.N,Net-(U12-COMP)*%
X181225000Y-137865000D02*
X183340000Y-137865000D01*
X183340000Y-137865000D02*
X183475000Y-138000000D01*
X183475000Y-138000000D02*
X183475000Y-139700000D01*
X183475000Y-139700000D02*
X183425000Y-139750000D01*
%TO.N,Net-(C18-Pad2)*%
X140225000Y-113000000D02*
X140225000Y-111300000D01*
X140225000Y-111300000D02*
X140175000Y-111250000D01*
X140175000Y-111250000D02*
X140175000Y-109500000D01*
%TO.N,Net-(C17-Pad2)*%
X129175000Y-109600000D02*
X130825000Y-111250000D01*
X130825000Y-112950000D02*
X130775000Y-113000000D01*
X129175000Y-109500000D02*
X129175000Y-109600000D01*
X130825000Y-111250000D02*
X130825000Y-112950000D01*
%TO.N,Net-(U13A--)*%
X134025000Y-114300000D02*
X134075000Y-114250000D01*
X130200000Y-115200000D02*
X131724000Y-113676000D01*
X131724000Y-111461001D02*
X132050001Y-111135000D01*
X129175000Y-111250000D02*
X128300000Y-112125000D01*
X134025000Y-116000000D02*
X134025000Y-114300000D01*
X128300000Y-112125000D02*
X128300000Y-114700000D01*
X134326000Y-111461001D02*
X133999999Y-111135000D01*
X133999999Y-111135000D02*
X133025000Y-111135000D01*
X134075000Y-114250000D02*
X134326000Y-113999000D01*
X131724000Y-113676000D02*
X131724000Y-111461001D01*
X128300000Y-114700000D02*
X128800000Y-115200000D01*
X128800000Y-115200000D02*
X130200000Y-115200000D01*
X132050001Y-111135000D02*
X133025000Y-111135000D01*
X134326000Y-113999000D02*
X134326000Y-111461001D01*
%TO.N,Net-(C21-Pad2)*%
X132475000Y-116000000D02*
X132475000Y-114300000D01*
X132475000Y-114300000D02*
X132425000Y-114250000D01*
X132425000Y-113005000D02*
X133025000Y-112405000D01*
X135475000Y-119000000D02*
X132475000Y-116000000D01*
X139675000Y-119000000D02*
X135475000Y-119000000D01*
X132425000Y-114250000D02*
X132425000Y-113005000D01*
%TO.N,Net-(C22-Pad2)*%
X137975000Y-111135000D02*
X137000001Y-111135000D01*
X138700418Y-116801000D02*
X136526000Y-116801000D01*
X137748418Y-113449000D02*
X136476000Y-113449000D01*
X140401000Y-118501582D02*
X138700418Y-116801000D01*
X138051000Y-116484466D02*
X138051000Y-113751582D01*
X136526000Y-116801000D02*
X137734466Y-116801000D01*
X140401000Y-134274000D02*
X140401000Y-118501582D01*
X135675000Y-112460001D02*
X135675000Y-114250000D01*
X138051000Y-113751582D02*
X137748418Y-113449000D01*
X136526000Y-116801000D02*
X135725000Y-116000000D01*
X136476000Y-113449000D02*
X135675000Y-114250000D01*
X139675000Y-135000000D02*
X140401000Y-134274000D01*
X137000001Y-111135000D02*
X135675000Y-112460001D01*
X137734466Y-116801000D02*
X138051000Y-116484466D01*
%TO.N,Net-(U13B--)*%
X137000001Y-109865000D02*
X137975000Y-109865000D01*
X138357322Y-109865000D02*
X137975000Y-109865000D01*
X137275000Y-116000000D02*
X137275000Y-114300000D01*
X137275000Y-114300000D02*
X137325000Y-114250000D01*
X140901000Y-110326000D02*
X140901000Y-109001582D01*
X139523322Y-108699000D02*
X138357322Y-109865000D01*
X140598418Y-108699000D02*
X139523322Y-108699000D01*
X140901000Y-109001582D02*
X140598418Y-108699000D01*
X135251582Y-115051000D02*
X134949000Y-114748418D01*
X134949000Y-114748418D02*
X134949000Y-111916001D01*
X137325000Y-114250000D02*
X136524000Y-115051000D01*
X134949000Y-111916001D02*
X137000001Y-109865000D01*
X136524000Y-115051000D02*
X135251582Y-115051000D01*
X141825000Y-111250000D02*
X140901000Y-110326000D01*
%TO.N,Net-(U8A--)*%
X126850000Y-136125000D02*
X126850000Y-137872322D01*
X130750000Y-139275000D02*
X132450000Y-139275000D01*
X125277000Y-141423000D02*
X127585000Y-139115000D01*
X128092678Y-139115000D02*
X128475000Y-139115000D01*
X130590000Y-139115000D02*
X130750000Y-139275000D01*
X128475000Y-139115000D02*
X130590000Y-139115000D01*
X125175000Y-143500000D02*
X125277000Y-143398000D01*
X125277000Y-143398000D02*
X125277000Y-141423000D01*
X127585000Y-139115000D02*
X128475000Y-139115000D01*
X126850000Y-137872322D02*
X128092678Y-139115000D01*
X132450000Y-139275000D02*
X132500000Y-139325000D01*
%TO.N,CV_IN_1*%
X125200000Y-92100000D02*
X130649000Y-86651000D01*
X130800000Y-121925000D02*
X130750000Y-121975000D01*
X130750000Y-121975000D02*
X128595000Y-121975000D01*
X113474999Y-54080000D02*
X114643999Y-55249000D01*
X127900000Y-120700000D02*
X127900000Y-120850000D01*
X128475000Y-121425000D02*
X128475000Y-122095000D01*
X132500000Y-121925000D02*
X130800000Y-121925000D01*
X128595000Y-121975000D02*
X128475000Y-122095000D01*
X130375000Y-68875000D02*
X130375000Y-68300000D01*
X127900000Y-120850000D02*
X128475000Y-121425000D01*
X126049000Y-55249000D02*
X131000000Y-60200000D01*
X130649000Y-86651000D02*
X130649000Y-69149000D01*
X112500000Y-54080000D02*
X113474999Y-54080000D01*
X114643999Y-55249000D02*
X126049000Y-55249000D01*
X130649000Y-69149000D02*
X130375000Y-68875000D01*
%TO.N,Net-(U8B--)*%
X121200000Y-140575000D02*
X121250000Y-140525000D01*
X124826000Y-142006322D02*
X124826000Y-140711001D01*
X124826000Y-140711001D02*
X124499999Y-140385000D01*
X125200000Y-136125000D02*
X125200000Y-139684999D01*
X125175000Y-145250000D02*
X124449000Y-144524000D01*
X124499999Y-140385000D02*
X123525000Y-140385000D01*
X119500000Y-140575000D02*
X121200000Y-140575000D01*
X124449000Y-144524000D02*
X124449000Y-142383322D01*
X121250000Y-140525000D02*
X123385000Y-140525000D01*
X124449000Y-142383322D02*
X124826000Y-142006322D01*
X123385000Y-140525000D02*
X123525000Y-140385000D01*
X125200000Y-139684999D02*
X124499999Y-140385000D01*
%TO.N,CV_IN_2*%
X124960000Y-59160000D02*
X128500000Y-62700000D01*
X121250000Y-123145000D02*
X121250000Y-122250000D01*
X121200000Y-123095000D02*
X121250000Y-123145000D01*
X129747000Y-85853000D02*
X129747000Y-70047000D01*
X112500000Y-59160000D02*
X124960000Y-59160000D01*
X123305000Y-123145000D02*
X123525000Y-123365000D01*
X125000000Y-90600000D02*
X129747000Y-85853000D01*
X129747000Y-70047000D02*
X128700000Y-69000000D01*
X121250000Y-122250000D02*
X121700000Y-121800000D01*
X128700000Y-69000000D02*
X128700000Y-68300000D01*
X119500000Y-123095000D02*
X121200000Y-123095000D01*
X123700000Y-90600000D02*
X125000000Y-90600000D01*
X121250000Y-123145000D02*
X123305000Y-123145000D01*
%TO.N,Net-(U14-CAPM)*%
X138250000Y-93225000D02*
X138750000Y-93725000D01*
X138750000Y-93725000D02*
X141137500Y-93725000D01*
%TO.N,Net-(U14-CAPP)*%
X138250000Y-94775000D02*
X138500000Y-95025000D01*
X138500000Y-95025000D02*
X141137500Y-95025000D01*
%TO.N,SERIAL_RX*%
X178950000Y-104070000D02*
X178950000Y-101530000D01*
%TO.N,DAC_LRC*%
X154301000Y-88901582D02*
X154301000Y-95484466D01*
X151185466Y-98600000D02*
X147100000Y-98600000D01*
X154301000Y-95484466D02*
X151185466Y-98600000D01*
X150000000Y-89325000D02*
X150726000Y-88599000D01*
X153998418Y-88599000D02*
X154301000Y-88901582D01*
X145930000Y-99770000D02*
X145930000Y-101530000D01*
X150726000Y-88599000D02*
X153998418Y-88599000D01*
X147100000Y-98600000D02*
X145930000Y-99770000D01*
X145930000Y-101530000D02*
X145930000Y-104070000D01*
%TO.N,DAC_BCLK*%
X151800000Y-87625000D02*
X151750000Y-87675000D01*
X148470000Y-104070000D02*
X148470000Y-101530000D01*
X151800000Y-86700000D02*
X151800000Y-87625000D01*
%TO.N,TRIGGER_OUT_1*%
X75200000Y-109000000D02*
X75200000Y-110700000D01*
X117302303Y-104475000D02*
X79725000Y-104475000D01*
X79725000Y-104475000D02*
X75200000Y-109000000D01*
X75849000Y-114562347D02*
X75849000Y-116178678D01*
X75849000Y-116178678D02*
X74385000Y-117642678D01*
X131260000Y-102100000D02*
X119800000Y-102100000D01*
X74900000Y-113613347D02*
X75849000Y-114562347D01*
X118175999Y-103601304D02*
X117302303Y-104475000D01*
X133230000Y-104070000D02*
X133230000Y-101530000D01*
X133230000Y-104070000D02*
X131260000Y-102100000D01*
X74385000Y-117642678D02*
X74385000Y-118025000D01*
%TO.N,DAC_DOUT*%
X153550000Y-104070000D02*
X153550000Y-101530000D01*
X153500000Y-87675000D02*
X153500000Y-86700000D01*
%TO.N,SERIAL_TX*%
X181490000Y-104070000D02*
X181490000Y-101530000D01*
%TO.N,Net-(D2-A)*%
X158265000Y-129050000D02*
X159950000Y-129050000D01*
X159950000Y-129050000D02*
X160250000Y-128750000D01*
%TO.N,Net-(D3-A)*%
X159400000Y-134600000D02*
X160250000Y-133750000D01*
X158265000Y-134600000D02*
X159400000Y-134600000D01*
%TO.N,Net-(D4-A)*%
X158265000Y-140150000D02*
X159850000Y-140150000D01*
X159850000Y-140150000D02*
X160250000Y-139750000D01*
%TO.N,TRIGGER_OUT_2*%
X166250000Y-81210000D02*
X165400000Y-80360000D01*
X73100000Y-73300000D02*
X74000000Y-74200000D01*
X75655000Y-122975000D02*
X77060466Y-122975000D01*
X74000000Y-110602000D02*
X74000000Y-74200000D01*
X77060466Y-122975000D02*
X78301000Y-121734466D01*
X166250000Y-83750000D02*
X166250000Y-81210000D01*
X78301000Y-121734466D02*
X78301000Y-114903000D01*
X78301000Y-114903000D02*
X74000000Y-110602000D01*
X165400000Y-80360000D02*
X165400000Y-73100000D01*
%TO.N,TRIGGER_OUT_3*%
X74385000Y-128084573D02*
X74117920Y-127817493D01*
X125073752Y-108449000D02*
X126224752Y-109600000D01*
X126900000Y-109600000D02*
X127300000Y-110000000D01*
X74385000Y-129275000D02*
X74385000Y-128084573D01*
X153550000Y-83750000D02*
X153550000Y-81210000D01*
X123086810Y-108449000D02*
X125073752Y-108449000D01*
X127300000Y-110000000D02*
X127300000Y-114337810D01*
X131014534Y-115800000D02*
X132588534Y-117374000D01*
X81200000Y-105300000D02*
X110600000Y-105300000D01*
X81100000Y-105200000D02*
X81200000Y-105300000D01*
X133074000Y-117374000D02*
X136700000Y-121000000D01*
X126224752Y-109600000D02*
X126900000Y-109600000D01*
X119837810Y-105200000D02*
X123086810Y-108449000D01*
X110600000Y-105300000D02*
X110700000Y-105200000D01*
X136700000Y-121000000D02*
X139100000Y-121000000D01*
X132588534Y-117374000D02*
X133074000Y-117374000D01*
X127300000Y-114337810D02*
X128762190Y-115800000D01*
X128762190Y-115800000D02*
X131014534Y-115800000D01*
X110700000Y-105200000D02*
X119837810Y-105200000D01*
%TO.N,TRIGGER_OUT_4*%
X105073752Y-108449000D02*
X100024280Y-108449000D01*
X94824752Y-108200000D02*
X92500000Y-108200000D01*
X99873280Y-108600000D02*
X95224752Y-108600000D01*
X115624000Y-110424000D02*
X113976000Y-108776000D01*
X113673418Y-108449000D02*
X111176582Y-108449000D01*
X100024280Y-108449000D02*
X99873280Y-108600000D01*
X111176582Y-108449000D02*
X110851582Y-108774000D01*
X126299248Y-113076000D02*
X118700752Y-113076000D01*
X113976000Y-108776000D02*
X113976000Y-108751582D01*
X126500000Y-113300000D02*
X126500000Y-113276752D01*
X140850000Y-81210000D02*
X140850000Y-83750000D01*
X117147248Y-111522496D02*
X117076000Y-111522496D01*
X81074000Y-135726000D02*
X81900000Y-134900000D01*
X126500000Y-113276752D02*
X126299248Y-113076000D01*
X117076000Y-111522496D02*
X117076000Y-111200752D01*
X76687810Y-134225000D02*
X78188810Y-135726000D01*
X118700752Y-113076000D02*
X117147248Y-111522496D01*
X129400000Y-91300000D02*
X134000000Y-86700000D01*
X134000000Y-86700000D02*
X137900000Y-86700000D01*
X105398752Y-108774000D02*
X105073752Y-108449000D01*
X78188810Y-135726000D02*
X81074000Y-135726000D01*
X116299248Y-110424000D02*
X115624000Y-110424000D01*
X137900000Y-86700000D02*
X140850000Y-83750000D01*
X113976000Y-108751582D02*
X113673418Y-108449000D01*
X117076000Y-111200752D02*
X116299248Y-110424000D01*
X75655000Y-134225000D02*
X76687810Y-134225000D01*
X110851582Y-108774000D02*
X105398752Y-108774000D01*
X95224752Y-108600000D02*
X94824752Y-108200000D01*
%TO.N,SYNC_OUT*%
X133100000Y-90400000D02*
X135800000Y-87700000D01*
X74385000Y-140955887D02*
X74804114Y-141375001D01*
X134700000Y-121200000D02*
X134700000Y-140300000D01*
X74385000Y-140275000D02*
X74385000Y-140955887D01*
X132400000Y-90400000D02*
X133100000Y-90400000D01*
X135770000Y-81210000D02*
X135770000Y-83750000D01*
D46*
%TO.N,+3.3V*%
X176695000Y-90275000D02*
X176695000Y-89115000D01*
X123525000Y-122095000D02*
X123525000Y-121125000D01*
X167775000Y-69555000D02*
X167759000Y-69571000D01*
X169201000Y-78701000D02*
X171330000Y-80830000D01*
X170948337Y-92551000D02*
X170980667Y-92518670D01*
X171330000Y-83750000D02*
X171330000Y-81210000D01*
X169201000Y-78041900D02*
X169201000Y-78701000D01*
D45*
X87525000Y-70255000D02*
X86245000Y-70255000D01*
D46*
X106545000Y-70555000D02*
X105900000Y-71200000D01*
X168853100Y-77694000D02*
X169201000Y-78041900D01*
X106080000Y-54080000D02*
X105600000Y-53600000D01*
X167775000Y-77275000D02*
X168194000Y-77694000D01*
X123525000Y-137845000D02*
X123525000Y-137625000D01*
X167759000Y-69571000D02*
X161529000Y-69571000D01*
X167775000Y-77175000D02*
X167775000Y-77275000D01*
X157500000Y-73600000D02*
X157500000Y-75000000D01*
X171330000Y-80830000D02*
X171330000Y-81210000D01*
X88000000Y-124000000D02*
X87700000Y-124000000D01*
X87425000Y-53575000D02*
X87800000Y-53200000D01*
X107550000Y-54080000D02*
X106080000Y-54080000D01*
X127500000Y-69880000D02*
X127500000Y-68700000D01*
X168194000Y-77694000D02*
X168853100Y-77694000D01*
X176695000Y-89115000D02*
X171330000Y-83750000D01*
X169075000Y-90275000D02*
X169075000Y-91678496D01*
D45*
X86245000Y-70255000D02*
X85700000Y-70800000D01*
D46*
X123525000Y-121125000D02*
X122900000Y-120500000D01*
X87425000Y-54255000D02*
X87425000Y-53575000D01*
X169947504Y-92551000D02*
X170948337Y-92551000D01*
X161529000Y-69571000D02*
X157500000Y-73600000D01*
X107625000Y-70555000D02*
X106545000Y-70555000D01*
X87700000Y-124000000D02*
X86800000Y-124900000D01*
X169075000Y-91678496D02*
X169947504Y-92551000D01*
X123525000Y-137625000D02*
X122700000Y-136800000D01*
D45*
%TO.N,SYNC_IN*%
X132100000Y-87100000D02*
X132100000Y-84880000D01*
X129100000Y-116300000D02*
X120019726Y-116300000D01*
X113969726Y-122350000D02*
X88000000Y-122350000D01*
X87350000Y-123000000D02*
X88000000Y-122350000D01*
X132100000Y-84880000D02*
X133230000Y-83750000D01*
X129900000Y-117100000D02*
X129100000Y-116300000D01*
X85000000Y-123000000D02*
X87350000Y-123000000D01*
X120019726Y-116300000D02*
X113969726Y-122350000D01*
X133230000Y-83750000D02*
X133230000Y-81210000D01*
%TO.N,Net-(U14-VNEG)*%
X139360466Y-93075000D02*
X141137500Y-93075000D01*
X136500000Y-93225000D02*
X137276000Y-92449000D01*
X137276000Y-92449000D02*
X138734466Y-92449000D01*
X138734466Y-92449000D02*
X139360466Y-93075000D01*
%TO.N,Net-(U14-LDOO)*%
X148850000Y-94375000D02*
X149000000Y-94525000D01*
X149000000Y-94525000D02*
X150750000Y-94525000D01*
X146862500Y-94375000D02*
X148850000Y-94375000D01*
%TO.N,Net-(U5-D0)*%
X113250000Y-97250000D02*
X115750000Y-99750000D01*
X110200000Y-78000000D02*
X109105000Y-76905000D01*
X115750000Y-99750000D02*
X109250000Y-99750000D01*
X109105000Y-76905000D02*
X107625000Y-76905000D01*
%TO.N,Net-(J11-PadT)*%
X126800000Y-118675000D02*
X126074000Y-117949000D01*
X126074000Y-117949000D02*
X121051000Y-117949000D01*
X121051000Y-117949000D02*
X120000000Y-119000000D01*
%TO.N,Net-(J12-PadT)*%
X131401000Y-119599000D02*
X132000000Y-119000000D01*
X125200000Y-118675000D02*
X126124000Y-119599000D01*
X126124000Y-119599000D02*
X131401000Y-119599000D01*
%TO.N,Net-(J15-Pin_1)*%
X134980000Y-72420000D02*
X135200000Y-72200000D01*
X132450000Y-72420000D02*
X134980000Y-72420000D01*
%TO.N,Net-(J13-PadT)*%
X126850000Y-134475000D02*
X125926000Y-135399000D01*
X125926000Y-135399000D02*
X120399000Y-135399000D01*
X120399000Y-135399000D02*
X120000000Y-135000000D01*
%TO.N,Net-(U5-D1)*%
X110300000Y-76900000D02*
X109035000Y-75635000D01*
X109035000Y-75635000D02*
X107625000Y-75635000D01*
X118700000Y-92700000D02*
X118700000Y-92600000D01*
X125750000Y-99750000D02*
X119250000Y-99750000D01*
X123250000Y-97250000D02*
X118700000Y-92700000D01*
X123250000Y-97250000D02*
X125750000Y-99750000D01*
%TO.N,Net-(U5-D2)*%
X107490000Y-74500000D02*
X107625000Y-74365000D01*
X106100000Y-74500000D02*
X107490000Y-74500000D01*
X85750000Y-111750000D02*
X83250000Y-109250000D01*
X79250000Y-111750000D02*
X85750000Y-111750000D01*
%TO.N,Net-(U5-D3)*%
X106030000Y-73095000D02*
X107625000Y-73095000D01*
X93250000Y-109250000D02*
X95750000Y-111750000D01*
X95750000Y-111750000D02*
X89250000Y-111750000D01*
X105300000Y-73825000D02*
X106030000Y-73095000D01*
%TO.N,Net-(U5-D4)*%
X99250000Y-111750000D02*
X105750000Y-111750000D01*
X111030000Y-73095000D02*
X112575000Y-73095000D01*
X110300000Y-73825000D02*
X111030000Y-73095000D01*
X105750000Y-111750000D02*
X103250000Y-109250000D01*
%TO.N,Net-(U5-D5)*%
X109250000Y-111750000D02*
X115750000Y-111750000D01*
X110300000Y-74825003D02*
X112114997Y-74825003D01*
X115750000Y-111750000D02*
X113250000Y-109250000D01*
X112114997Y-74825003D02*
X112575000Y-74365000D01*
%TO.N,Net-(U5-D6)*%
X119700000Y-105700000D02*
X123250000Y-109250000D01*
X112384994Y-75825006D02*
X112575000Y-75635000D01*
X113900000Y-106900000D02*
X115100000Y-105700000D01*
X119250000Y-111750000D02*
X125750000Y-111750000D01*
X125750000Y-111750000D02*
X123250000Y-109250000D01*
X115100000Y-105700000D02*
X119700000Y-105700000D01*
X110300000Y-75825006D02*
X112384994Y-75825006D01*
%TO.N,Net-(U5-D7)*%
X113549999Y-76905000D02*
X117400000Y-80755001D01*
X148325000Y-109500000D02*
X148500000Y-109500000D01*
X112575000Y-76905000D02*
X113549999Y-76905000D01*
X124524752Y-106600000D02*
X125200752Y-105924000D01*
X126299248Y-105924000D02*
X127275248Y-106900000D01*
X144250000Y-110700582D02*
X144250000Y-111750000D01*
X127275248Y-106900000D02*
X140449418Y-106900000D01*
X148500000Y-109500000D02*
X150750000Y-111750000D01*
X117400000Y-101800000D02*
X122200000Y-106600000D01*
X125200752Y-105924000D02*
X126299248Y-105924000D01*
X117400000Y-80755001D02*
X117400000Y-101800000D01*
X140449418Y-106900000D02*
X144250000Y-110700582D01*
X122200000Y-106600000D02*
X124524752Y-106600000D01*
X144250000Y-111750000D02*
X150750000Y-111750000D01*
%TO.N,Net-(Q1-B)*%
X79975000Y-120800000D02*
X79975000Y-118800000D01*
X83125000Y-123950000D02*
X79975000Y-120800000D01*
%TO.N,/Shift register in 1/DATA_OUT*%
X89180000Y-80800000D02*
X99400000Y-80800000D01*
X87525000Y-79145000D02*
X89180000Y-80800000D01*
X103675000Y-78175000D02*
X107625000Y-78175000D01*
X102537347Y-77037347D02*
X103675000Y-78175000D01*
%TO.N,Net-(J15-Pin_3)*%
X134060000Y-74960000D02*
X134400000Y-75300000D01*
X132450000Y-74960000D02*
X134060000Y-74960000D01*
X150400000Y-59120000D02*
X151270000Y-58250000D01*
X150400000Y-73900000D02*
X150400000Y-59120000D01*
%TO.N,Net-(J15-Pin_2)*%
X134590000Y-73390000D02*
X135200000Y-74000000D01*
X132450000Y-73690000D02*
X132750000Y-73390000D01*
X132750000Y-73390000D02*
X134590000Y-73390000D01*
X148730000Y-73255000D02*
X148730000Y-58250000D01*
X149300000Y-73825000D02*
X148730000Y-73255000D01*
%TO.N,/Shift register in 2/DATA_OUT*%
X114319000Y-78819000D02*
X115600000Y-80100000D01*
X118700000Y-81500000D02*
X122525001Y-81500000D01*
X126525001Y-77500000D02*
X127500000Y-77500000D01*
X122525001Y-81500000D02*
X126525001Y-77500000D01*
X108251000Y-78819000D02*
X114319000Y-78819000D01*
X107625000Y-79445000D02*
X108251000Y-78819000D01*
%TO.N,Net-(J15-Pin_4)*%
X134206000Y-76230000D02*
X134400000Y-76424000D01*
X132450000Y-76230000D02*
X134206000Y-76230000D01*
X151500000Y-60560000D02*
X153810000Y-58250000D01*
X151500000Y-74000000D02*
X151500000Y-60560000D01*
%TO.N,Net-(U1-QE)*%
X168801322Y-70199000D02*
X171967322Y-73365000D01*
X157454000Y-84049116D02*
X157454000Y-77406000D01*
X171967322Y-73365000D02*
X172725000Y-73365000D01*
X158774000Y-74492174D02*
X163067174Y-70199000D01*
X158774000Y-76086000D02*
X158774000Y-74492174D01*
X155074000Y-92409000D02*
X155074000Y-86429116D01*
X157454000Y-77406000D02*
X158774000Y-76086000D01*
X156090000Y-93425000D02*
X155074000Y-92409000D01*
X163067174Y-70199000D02*
X168801322Y-70199000D01*
X155074000Y-86429116D02*
X157454000Y-84049116D01*
%TO.N,Net-(U3-e)*%
X156090000Y-97750000D02*
X156150000Y-97810000D01*
X156090000Y-95075000D02*
X156090000Y-97750000D01*
%TO.N,Net-(U1-QG)*%
X165500000Y-90925000D02*
X165500000Y-90500000D01*
X174505000Y-75905000D02*
X172725000Y-75905000D01*
X175100000Y-76500000D02*
X174505000Y-75905000D01*
X163000000Y-93425000D02*
X165500000Y-90925000D01*
%TO.N,Net-(U3-g)*%
X163575000Y-95075000D02*
X166310000Y-97810000D01*
X163000000Y-95075000D02*
X163575000Y-95075000D01*
%TO.N,12V DETECTION*%
X135823000Y-75211124D02*
X135823000Y-76412810D01*
X143394726Y-116925000D02*
X156050000Y-116925000D01*
X135823000Y-76412810D02*
X135900000Y-76489810D01*
X135549001Y-74937125D02*
X135823000Y-75211124D01*
X141000000Y-117000000D02*
X141700000Y-117700000D01*
X135900000Y-76489810D02*
X135900000Y-77000000D01*
X142619726Y-117700000D02*
X143394726Y-116925000D01*
X156100000Y-116925000D02*
X157750000Y-118575000D01*
X141700000Y-117700000D02*
X142619726Y-117700000D01*
X135900000Y-77000000D02*
X134400000Y-78500000D01*
X125400000Y-73825000D02*
X126805000Y-72420000D01*
X126805000Y-72420000D02*
X127500000Y-72420000D01*
X156050000Y-116925000D02*
X156100000Y-116925000D01*
%TO.N,Net-(U3-DPX)*%
X159500000Y-96080000D02*
X161230000Y-97810000D01*
X159500000Y-95075000D02*
X159500000Y-96080000D01*
%TO.N,Net-(U1-QH)*%
X159994000Y-84824306D02*
X159994000Y-76787826D01*
X178000000Y-77500000D02*
X173050000Y-77500000D01*
X157614000Y-87204306D02*
X159994000Y-84824306D01*
X178300000Y-77200000D02*
X178000000Y-77500000D01*
X159994000Y-76787826D02*
X161274000Y-75507826D01*
X161274000Y-75507826D02*
X161274000Y-74426000D01*
X173050000Y-77500000D02*
X172725000Y-77175000D01*
X161274000Y-74426000D02*
X163400000Y-72300000D01*
X159500000Y-93425000D02*
X157614000Y-91539000D01*
X157614000Y-91539000D02*
X157614000Y-87204306D01*
%TO.N,Net-(U1-QA)*%
X164600000Y-71700000D02*
X165475000Y-70825000D01*
X160449000Y-88390694D02*
X160154000Y-88095694D01*
X162534000Y-80566000D02*
X164600000Y-78500000D01*
X160449000Y-90876000D02*
X160449000Y-88390694D01*
X159500000Y-91825000D02*
X160449000Y-90876000D01*
X164600000Y-78500000D02*
X164600000Y-71700000D01*
X165475000Y-70825000D02*
X167775000Y-70825000D01*
X162534000Y-84049116D02*
X162534000Y-80566000D01*
X160154000Y-88095694D02*
X160154000Y-86429116D01*
X160154000Y-86429116D02*
X162534000Y-84049116D01*
%TO.N,Net-(U3-a)*%
X158690000Y-87650000D02*
X158690000Y-89365000D01*
X158690000Y-89365000D02*
X159500000Y-90175000D01*
%TO.N,Net-(U3-b)*%
X167323000Y-86123000D02*
X163775306Y-86123000D01*
X162694000Y-87204306D02*
X162694000Y-89869000D01*
X168850000Y-87650000D02*
X167323000Y-86123000D01*
X163775306Y-86123000D02*
X162694000Y-87204306D01*
X162694000Y-89869000D02*
X163000000Y-90175000D01*
%TO.N,Net-(U1-QB)*%
X163000000Y-91825000D02*
X165000000Y-89825000D01*
X175300000Y-75200000D02*
X175300000Y-69900000D01*
X174955000Y-69555000D02*
X172725000Y-69555000D01*
X165000000Y-89825000D02*
X165000000Y-89000000D01*
X175300000Y-69900000D02*
X174955000Y-69555000D01*
%TO.N,Net-(U3-c)*%
X161250000Y-95290000D02*
X163770000Y-97810000D01*
X161250000Y-95075000D02*
X161250000Y-95290000D01*
%TO.N,Net-(U1-QC)*%
X174500000Y-70900000D02*
X172800000Y-70900000D01*
X165500000Y-92149418D02*
X165500000Y-92100000D01*
X161976000Y-94151000D02*
X163498418Y-94151000D01*
X163498418Y-94151000D02*
X165500000Y-92149418D01*
X161250000Y-93425000D02*
X161976000Y-94151000D01*
X172800000Y-70900000D02*
X172725000Y-70825000D01*
%TO.N,Net-(U1-QD)*%
X158975291Y-94375291D02*
X158852712Y-94252712D01*
X159998418Y-94349000D02*
X159001582Y-94349000D01*
X171495000Y-72095000D02*
X172725000Y-72095000D01*
X171100000Y-69449000D02*
X171100000Y-71700000D01*
X160199709Y-95599709D02*
X160301000Y-95498418D01*
X160301000Y-95498418D02*
X160301000Y-94651582D01*
X160301000Y-94651582D02*
X159998418Y-94349000D01*
X159001582Y-94349000D02*
X158975291Y-94375291D01*
X160900000Y-96300000D02*
X160199709Y-95599709D01*
X158577712Y-94252712D02*
X157750000Y-93425000D01*
X171100000Y-71700000D02*
X171495000Y-72095000D01*
X158852712Y-94252712D02*
X158577712Y-94252712D01*
%TO.N,Net-(U3-d)*%
X157750000Y-95075000D02*
X157750000Y-96870000D01*
X157750000Y-96870000D02*
X158690000Y-97810000D01*
%TO.N,Net-(U3-f)*%
X161230000Y-90155000D02*
X161250000Y-90175000D01*
X161230000Y-87650000D02*
X161230000Y-90155000D01*
%TO.N,Net-(U1-QF)*%
X174300000Y-74700000D02*
X172790000Y-74700000D01*
X172790000Y-74700000D02*
X172725000Y-74635000D01*
X162100847Y-89131847D02*
X161969000Y-89000000D01*
X161250000Y-91825000D02*
X162100847Y-90974153D01*
X162100847Y-90974153D02*
X162100847Y-89131847D01*
%TO.N,Net-(U4-D0)*%
X84505000Y-76605000D02*
X87525000Y-76605000D01*
X83710000Y-77400000D02*
X84505000Y-76605000D01*
X85750000Y-87750000D02*
X79250000Y-87750000D01*
X83700000Y-77400000D02*
X83710000Y-77400000D01*
X83250000Y-85250000D02*
X85750000Y-87750000D01*
%TO.N,Net-(U4-D1)*%
X85300000Y-75400000D02*
X87460000Y-75400000D01*
X89250000Y-87750000D02*
X95750000Y-87750000D01*
X95750000Y-87750000D02*
X93250000Y-85250000D01*
X87460000Y-75400000D02*
X87525000Y-75335000D01*
%TO.N,Net-(U4-D2)*%
X99250000Y-87750000D02*
X105750000Y-87750000D01*
X93483322Y-74691000D02*
X88151000Y-74691000D01*
X105750000Y-87750000D02*
X103250000Y-85250000D01*
X94826720Y-74500000D02*
X94472881Y-74853839D01*
X94472881Y-74853839D02*
X93646161Y-74853839D01*
X88151000Y-74691000D02*
X87525000Y-74065000D01*
X93646161Y-74853839D02*
X93483322Y-74691000D01*
X95500000Y-74500000D02*
X94826720Y-74500000D01*
%TO.N,Net-(U4-D3)*%
X107650000Y-87750000D02*
X109250000Y-87750000D01*
X97131000Y-77231000D02*
X107650000Y-87750000D01*
X86221000Y-75979000D02*
X88551322Y-75979000D01*
X89803322Y-77231000D02*
X97131000Y-77231000D01*
X86550001Y-72795000D02*
X84574000Y-74771001D01*
X84999280Y-76126000D02*
X86074000Y-76126000D01*
X86074000Y-76126000D02*
X86221000Y-75979000D01*
X87525000Y-72795000D02*
X86550001Y-72795000D01*
X88551322Y-75979000D02*
X89803322Y-77231000D01*
X109250000Y-87750000D02*
X115750000Y-87750000D01*
X84574000Y-75700720D02*
X84999280Y-76126000D01*
X84574000Y-74771001D02*
X84574000Y-75700720D01*
X115750000Y-87750000D02*
X113250000Y-85250000D01*
%TO.N,Net-(U4-D4)*%
X94821720Y-72795000D02*
X92475000Y-72795000D01*
X109873280Y-86100000D02*
X106724752Y-86100000D01*
X104424000Y-83497280D02*
X97706720Y-76780000D01*
X110600720Y-86226000D02*
X109999280Y-86226000D01*
X112875000Y-86100000D02*
X110726720Y-86100000D01*
X97706720Y-76780000D02*
X96828000Y-76780000D01*
X113800000Y-87025000D02*
X112875000Y-86100000D01*
X110726720Y-86100000D02*
X110600720Y-86226000D01*
X96226000Y-74199280D02*
X94821720Y-72795000D01*
X106724752Y-86100000D02*
X104424000Y-83799248D01*
X96226000Y-76178000D02*
X96226000Y-74199280D01*
X125750000Y-87750000D02*
X123250000Y-85250000D01*
X96828000Y-76780000D02*
X96226000Y-76178000D01*
X104424000Y-83799248D02*
X104424000Y-83497280D01*
X119250000Y-87750000D02*
X125750000Y-87750000D01*
X109999280Y-86226000D02*
X109873280Y-86100000D01*
%TO.N,Net-(U4-D5)*%
X94200000Y-74100000D02*
X92510000Y-74100000D01*
X85750000Y-99750000D02*
X83250000Y-97250000D01*
X92510000Y-74100000D02*
X92475000Y-74065000D01*
X79250000Y-99750000D02*
X85750000Y-99750000D01*
%TO.N,Net-(U4-D6)*%
X95750000Y-99750000D02*
X89250000Y-99750000D01*
X93250000Y-97250000D02*
X95750000Y-99750000D01*
X95000000Y-75400000D02*
X92540000Y-75400000D01*
X92540000Y-75400000D02*
X92475000Y-75335000D01*
%TO.N,Net-(U4-D7)*%
X99250000Y-99750000D02*
X105750000Y-99750000D01*
X92376000Y-76506000D02*
X92475000Y-76605000D01*
X99300000Y-93300000D02*
X92400000Y-93300000D01*
X90800000Y-76506000D02*
X92376000Y-76506000D01*
X103250000Y-97250000D02*
X99300000Y-93300000D01*
X105750000Y-99750000D02*
X103250000Y-97250000D01*
%TO.N,Net-(U10-D0)*%
X124337942Y-106149000D02*
X122649000Y-106149000D01*
X122477720Y-79449000D02*
X125696720Y-76230000D01*
X154250000Y-111750000D02*
X160750000Y-111750000D01*
X151100000Y-108600000D02*
X142787228Y-108600000D01*
X158500000Y-109500000D02*
X158325000Y-109500000D01*
X122649000Y-106149000D02*
X117851000Y-101351000D01*
X125696720Y-76230000D02*
X127500000Y-76230000D01*
X126486058Y-105473000D02*
X125013942Y-105473000D01*
X142787228Y-108600000D02*
X140636228Y-106449000D01*
X125013942Y-105473000D02*
X124337942Y-106149000D01*
X140636228Y-106449000D02*
X127462058Y-106449000D01*
X160750000Y-111750000D02*
X158500000Y-109500000D01*
X117851000Y-79449000D02*
X122477720Y-79449000D01*
X154250000Y-111750000D02*
X151100000Y-108600000D01*
X117851000Y-101351000D02*
X117851000Y-79449000D01*
X127462058Y-106449000D02*
X126486058Y-105473000D01*
%TO.N,Net-(U10-D1)*%
X129024000Y-105924000D02*
X157324000Y-105924000D01*
X127300000Y-80200000D02*
X127900000Y-80200000D01*
X127900000Y-80200000D02*
X128801000Y-79299000D01*
X168500000Y-109500000D02*
X170750000Y-111750000D01*
X128801000Y-79299000D02*
X128801000Y-75001000D01*
X168325000Y-109500000D02*
X168500000Y-109500000D01*
X127500000Y-104400000D02*
X129024000Y-105924000D01*
X128760000Y-74960000D02*
X127500000Y-74960000D01*
X128801000Y-75001000D02*
X128760000Y-74960000D01*
X157324000Y-105924000D02*
X161600000Y-110200000D01*
%TO.N,Net-(U16B--)*%
X74385000Y-135190000D02*
X74385000Y-134225000D01*
X73325000Y-136250000D02*
X74925000Y-136250000D01*
X73325000Y-136250000D02*
X74385000Y-135190000D01*
%TO.N,Net-(U16A--)*%
X73325000Y-129065000D02*
X73115000Y-129275000D01*
X73325000Y-127000000D02*
X73325000Y-129065000D01*
X73325000Y-127000000D02*
X74925000Y-127000000D01*
%TO.N,Net-(R66-Pad1)*%
X70949000Y-124524000D02*
X70949000Y-113551000D01*
X103300000Y-118875000D02*
X103425000Y-119000000D01*
X71675000Y-125250000D02*
X73115000Y-123810000D01*
X75300000Y-107200000D02*
X78750000Y-103750000D01*
X70949000Y-113551000D02*
X72600000Y-111900000D01*
X73115000Y-123810000D02*
X73115000Y-122975000D01*
X103300000Y-117800000D02*
X103300000Y-118875000D01*
X78750000Y-103750000D02*
X102300000Y-103750000D01*
X71675000Y-125250000D02*
X70949000Y-124524000D01*
%TO.N,Net-(R67-Pad1)*%
X71675000Y-117855000D02*
X71845000Y-118025000D01*
X90100000Y-119000000D02*
X85438347Y-114338347D01*
X71800000Y-115625000D02*
X71675000Y-115750000D01*
X71800000Y-114700000D02*
X71800000Y-115625000D01*
X85438347Y-114338347D02*
X78761653Y-114338347D01*
X71675000Y-115750000D02*
X71675000Y-117855000D01*
X91425000Y-119000000D02*
X90100000Y-119000000D01*
%TO.N,Net-(U17B--)*%
X74385000Y-145225000D02*
X73115000Y-145225000D01*
%TO.N,Net-(U17A--)*%
X78175000Y-138000000D02*
X76575000Y-138000000D01*
X73115000Y-139300001D02*
X73614001Y-138801000D01*
X75774000Y-138801000D02*
X76575000Y-138000000D01*
X73115000Y-140275000D02*
X73115000Y-139300001D01*
X73614001Y-138801000D02*
X75774000Y-138801000D01*
%TO.N,Net-(R72-Pad1)*%
X103425000Y-135000000D02*
X101799000Y-136626000D01*
X91826582Y-136626000D02*
X88500582Y-133300000D01*
X88500582Y-133300000D02*
X79300000Y-133300000D01*
X101799000Y-136626000D02*
X91826582Y-136626000D01*
X73115000Y-134810000D02*
X71675000Y-136250000D01*
X73569258Y-133050000D02*
X73569258Y-133770742D01*
X73115000Y-134225000D02*
X73115000Y-134810000D01*
X73569258Y-133770742D02*
X73115000Y-134225000D01*
%TO.N,Net-(R73-Pad1)*%
X71845000Y-130249999D02*
X71845000Y-129275000D01*
X88307267Y-131882267D02*
X79914589Y-131882267D01*
X71675000Y-129105000D02*
X71845000Y-129275000D01*
X91425000Y-135000000D02*
X88307267Y-131882267D01*
X75011000Y-128248678D02*
X75011000Y-130301322D01*
X75011000Y-130301322D02*
X74736322Y-130576000D01*
X76006322Y-127974000D02*
X75285678Y-127974000D01*
X75285678Y-127974000D02*
X75011000Y-128248678D01*
X71675000Y-127000000D02*
X71675000Y-129105000D01*
X72171001Y-130576000D02*
X71845000Y-130249999D01*
X74736322Y-130576000D02*
X72171001Y-130576000D01*
X79914589Y-131882267D02*
X76006322Y-127974000D01*
%TO.N,Net-(U10-D2)*%
X178500000Y-109500000D02*
X180750000Y-111750000D01*
X180750000Y-111750000D02*
X174250000Y-111750000D01*
X178325000Y-109500000D02*
X178500000Y-109500000D01*
X129673000Y-105473000D02*
X161194000Y-105473000D01*
X129252000Y-74467001D02*
X128474999Y-73690000D01*
X129252000Y-80273000D02*
X129252000Y-74467001D01*
X161194000Y-105473000D02*
X161621000Y-105900000D01*
X128474999Y-73690000D02*
X127500000Y-73690000D01*
X128500000Y-104300000D02*
X129673000Y-105473000D01*
X128025000Y-81500000D02*
X129252000Y-80273000D01*
%TO.N,Net-(R77-Pad1)*%
X74124000Y-137199000D02*
X72476000Y-137199000D01*
X74925000Y-138000000D02*
X74124000Y-137199000D01*
X72476000Y-137199000D02*
X71675000Y-138000000D01*
X71845000Y-140275000D02*
X71845000Y-138170000D01*
X71845000Y-138170000D02*
X71675000Y-138000000D01*
%TO.N,Net-(U12-VSENSE)*%
X179500000Y-134750000D02*
X179500000Y-134870000D01*
X179500000Y-134870000D02*
X181225000Y-136595000D01*
X177900000Y-134750000D02*
X179500000Y-134750000D01*
%TO.N,Net-(U14-BCK)*%
X150875000Y-91125000D02*
X146862500Y-91125000D01*
X151750000Y-89325000D02*
X151750000Y-90250000D01*
X151750000Y-90250000D02*
X150875000Y-91125000D01*
%TO.N,Net-(U14-DIN)*%
X151525000Y-91775000D02*
X146862500Y-91775000D01*
X153500000Y-89325000D02*
X153500000Y-89800000D01*
X153500000Y-89800000D02*
X151525000Y-91775000D01*
%TO.N,Net-(U14-LRCK)*%
X145799000Y-92054226D02*
X146169774Y-92425000D01*
X150000000Y-87675000D02*
X147669774Y-87675000D01*
X147669774Y-87675000D02*
X145799000Y-89545774D01*
X145799000Y-89545774D02*
X145799000Y-92054226D01*
X146169774Y-92425000D02*
X146862500Y-92425000D01*
%TO.N,Net-(U14-OUTL)*%
X134575000Y-95000000D02*
X134575000Y-94860307D01*
X142716931Y-92876189D02*
X142376189Y-92876189D01*
X141925000Y-92425000D02*
X141137500Y-92425000D01*
X142376189Y-92876189D02*
X141925000Y-92425000D01*
X134575000Y-94860307D02*
X135316566Y-94118741D01*
%TO.N,Net-(U14-OUTR)*%
X134850000Y-93250000D02*
X135400000Y-92700000D01*
X141262500Y-91900000D02*
X141137500Y-91775000D01*
X134575000Y-93250000D02*
X134850000Y-93250000D01*
X142500000Y-91900000D02*
X141262500Y-91900000D01*
%TO.N,Net-(U15B--)*%
X74385000Y-124190000D02*
X74385000Y-122975000D01*
X73325000Y-125250000D02*
X74925000Y-125250000D01*
X73325000Y-125250000D02*
X74385000Y-124190000D01*
%TO.N,Net-(U15A--)*%
X74925000Y-115750000D02*
X73325000Y-115750000D01*
X73115000Y-115960000D02*
X73325000Y-115750000D01*
X73115000Y-118025000D02*
X73115000Y-115960000D01*
%TO.N,Net-(U6-A0)*%
X85065000Y-58065000D02*
X87425000Y-58065000D01*
X80000000Y-53000000D02*
X85065000Y-58065000D01*
%TO.N,Net-(U6-A1)*%
X84800000Y-55144999D02*
X86450001Y-56795000D01*
X100000000Y-53000000D02*
X98400000Y-51400000D01*
X86700000Y-51400000D02*
X84800000Y-53300000D01*
X98400000Y-51400000D02*
X86700000Y-51400000D01*
X84800000Y-53300000D02*
X84800000Y-55144999D01*
X86450001Y-56795000D02*
X87425000Y-56795000D01*
%TO.N,Net-(U6-A2)*%
X91249000Y-51851000D02*
X93899000Y-51851000D01*
X89800000Y-54124999D02*
X89800000Y-53300000D01*
X100507826Y-54226000D02*
X101226000Y-53507826D01*
X96274000Y-54226000D02*
X100507826Y-54226000D01*
X88399999Y-55525000D02*
X89800000Y-54124999D01*
X93899000Y-51851000D02*
X96274000Y-54226000D01*
X87425000Y-55525000D02*
X88399999Y-55525000D01*
X103466174Y-50300000D02*
X117300000Y-50300000D01*
X101226000Y-53507826D02*
X101226000Y-52540174D01*
X101226000Y-52540174D02*
X103466174Y-50300000D01*
X117300000Y-50300000D02*
X120000000Y-53000000D01*
X89800000Y-53300000D02*
X91249000Y-51851000D01*
%TO.N,Net-(U6-A3)*%
X136849000Y-49849000D02*
X140000000Y-53000000D01*
X87425000Y-59335000D02*
X84601174Y-59335000D01*
X78774000Y-53507826D02*
X78774000Y-52426000D01*
X81351000Y-49849000D02*
X136849000Y-49849000D01*
X78774000Y-52426000D02*
X81351000Y-49849000D01*
X84601174Y-59335000D02*
X78774000Y-53507826D01*
%TO.N,Net-(U6-A4)*%
X91400001Y-54255000D02*
X92375000Y-54255000D01*
X88800000Y-64700000D02*
X89800000Y-63700000D01*
X80000000Y-75000000D02*
X80000000Y-69655636D01*
X84955636Y-64700000D02*
X88800000Y-64700000D01*
X89800000Y-55855001D02*
X91400001Y-54255000D01*
X80000000Y-69655636D02*
X84955636Y-64700000D01*
X89800000Y-63700000D02*
X89800000Y-55855001D01*
%TO.N,Net-(U6-A5)*%
X97035000Y-59335000D02*
X92375000Y-59335000D01*
X100000000Y-62300000D02*
X97035000Y-59335000D01*
X100000000Y-75000000D02*
X100000000Y-62300000D01*
%TO.N,Net-(U6-A6)*%
X104623000Y-63608752D02*
X104623000Y-62585190D01*
X120000000Y-75000000D02*
X112000000Y-67000000D01*
X104623000Y-62585190D02*
X97562810Y-55525000D01*
X108014248Y-67000000D02*
X104623000Y-63608752D01*
X112000000Y-67000000D02*
X108014248Y-67000000D01*
X97562810Y-55525000D02*
X92375000Y-55525000D01*
%TO.N,Net-(U6-A7)*%
X92410000Y-58100000D02*
X92375000Y-58065000D01*
X140000000Y-67800000D02*
X137600000Y-65400000D01*
X94200000Y-58100000D02*
X92410000Y-58100000D01*
X140000000Y-75000000D02*
X140000000Y-67800000D01*
%TO.N,Net-(U9-A0)*%
X108524999Y-57890000D02*
X107550000Y-57890000D01*
X115226000Y-54226000D02*
X113500000Y-52500000D01*
X113500000Y-52500000D02*
X111500000Y-52500000D01*
X109600000Y-54400000D02*
X109600000Y-56814999D01*
X111500000Y-52500000D02*
X109600000Y-54400000D01*
X158774000Y-54226000D02*
X115226000Y-54226000D01*
X160000000Y-53000000D02*
X158774000Y-54226000D01*
X109600000Y-56814999D02*
X108524999Y-57890000D01*
%TO.N,Net-(U9-A1)*%
X106249000Y-58241322D02*
X106523678Y-58516000D01*
X115062190Y-54700000D02*
X178300000Y-54700000D01*
X108576322Y-58516000D02*
X110051000Y-57041322D01*
X110051000Y-54586810D02*
X111686810Y-52951000D01*
X113313190Y-52951000D02*
X115062190Y-54700000D01*
X111686810Y-52951000D02*
X113313190Y-52951000D01*
X110051000Y-57041322D02*
X110051000Y-54586810D01*
X107550000Y-56620000D02*
X107167678Y-56620000D01*
X106523678Y-58516000D02*
X108576322Y-58516000D01*
X107167678Y-56620000D02*
X106249000Y-57538678D01*
X178300000Y-54700000D02*
X180000000Y-53000000D01*
X106249000Y-57538678D02*
X106249000Y-58241322D01*
%TO.N,Net-(U9-A2)*%
X160000000Y-75000000D02*
X162300000Y-72700000D01*
X109113481Y-54286519D02*
X108050000Y-55350000D01*
X109113481Y-53798225D02*
X109113481Y-54286519D01*
X162300000Y-72700000D02*
X162300000Y-72100000D01*
X108050000Y-55350000D02*
X107550000Y-55350000D01*
%TO.N,Net-(U9-A3)*%
X107649000Y-59061000D02*
X107550000Y-59160000D01*
X180000000Y-69655636D02*
X165544364Y-55200000D01*
X109100000Y-59061000D02*
X107649000Y-59061000D01*
X165544364Y-55200000D02*
X129900000Y-55200000D01*
X129900000Y-55200000D02*
X129000000Y-56100000D01*
X180000000Y-75000000D02*
X180000000Y-69655636D01*
%TO.N,Net-(U1-QH')*%
X174155000Y-90275000D02*
X174155000Y-88238116D01*
X169966000Y-80636000D02*
X167775000Y-78445000D01*
X169966000Y-84049116D02*
X169966000Y-80636000D01*
X174155000Y-88238116D02*
X169966000Y-84049116D01*
%TD*%
M02*
