M48
; DRILL file {KiCad 9.0.1} date 2025-05-20T15:03:03+0100
; FORMAT={-:-/ absolute / inch / decimal}
; #@! TF.CreationDate,2025-05-20T15:03:03+01:00
; #@! TF.GenerationSoftware,Kicad,Pcbnew,9.0.1
; #@! TF.FileFunction,NonPlated,1,2,NPTH
FMAT,2
INCH
; #@! TA.AperFunction,NonPlated,NPTH,ComponentDrill
T1C0.1260
; #@! TA.AperFunction,NonPlated,NPTH,ComponentDrill
T2C0.1693
; #@! TA.AperFunction,NonPlated,NPTH,ComponentDrill
T3C0.2520
%
G90
G05
T1
X3.0138Y-1.2894
X3.0138Y-6.1122
X6.1811Y-4.8622
X6.1811Y-5.0807
X6.1811Y-5.2992
X6.1811Y-5.5177
X7.2224Y-1.2894
X7.2224Y-6.1122
T2
X3.248Y-3.3661
X3.248Y-3.8386
X3.248Y-4.311
X3.6417Y-3.3661
X3.6417Y-3.8386
X3.6417Y-4.311
X4.0354Y-3.3661
X4.0354Y-3.8386
X4.0354Y-4.311
X4.4291Y-3.3661
X4.4291Y-3.8386
X4.4291Y-4.311
X4.8228Y-3.3661
X4.8228Y-3.8386
X4.8228Y-4.311
X5.8071Y-4.311
X6.2008Y-4.311
X6.5945Y-4.311
X6.9882Y-4.311
T3
X3.1496Y-1.7913
X3.1496Y-2.6575
X3.3071Y-4.8819
X3.3071Y-5.5118
X3.7795Y-4.8819
X3.7795Y-5.5118
X3.937Y-1.7913
X3.937Y-2.6575
X4.252Y-4.8819
X4.252Y-5.5118
X4.7244Y-1.7913
X4.7244Y-2.6575
X4.7244Y-4.8819
X4.7244Y-5.5118
X5.1969Y-4.8819
X5.1969Y-5.5118
X5.5118Y-1.7913
X5.5118Y-2.6575
X5.6693Y-4.8819
X5.6693Y-5.5118
X6.2992Y-1.7913
X6.2992Y-2.6575
X7.0866Y-1.7913
X7.0866Y-2.6575
M30
