%TF.GenerationSoftware,KiCad,Pcbnew,9.0.1*%
%TF.CreationDate,2025-05-16T12:10:17+01:00*%
%TF.ProjectId,dk2_05_panel,646b325f-3035-45f7-9061-6e656c2e6b69,rev?*%
%TF.SameCoordinates,Original*%
%TF.FileFunction,Copper,L1,Top*%
%TF.FilePolarity,Positive*%
%FSLAX46Y46*%
G04 Gerber Fmt 4.6, Leading zero omitted, Abs format (unit mm)*
G04 Created by KiCad (PCBNEW 9.0.1) date 2025-05-16 12:10:17*
%MOMM*%
%LPD*%
G01*
G04 APERTURE LIST*
G04 APERTURE END LIST*
%TA.AperFunction,NonConductor*%
G36*
X190892539Y-29770185D02*
G01*
X190938294Y-29822989D01*
X190949500Y-29874500D01*
X190949500Y-158125500D01*
X190929815Y-158192539D01*
X190877011Y-158238294D01*
X190825500Y-158249500D01*
X69174500Y-158249500D01*
X69107461Y-158229815D01*
X69061706Y-158177011D01*
X69050500Y-158125500D01*
X69050500Y-155128711D01*
X74699500Y-155128711D01*
X74699500Y-155371288D01*
X74731161Y-155611785D01*
X74793947Y-155846104D01*
X74886773Y-156070205D01*
X74886776Y-156070212D01*
X75008064Y-156280289D01*
X75008066Y-156280292D01*
X75008067Y-156280293D01*
X75155733Y-156472736D01*
X75155739Y-156472743D01*
X75327256Y-156644260D01*
X75327262Y-156644265D01*
X75519711Y-156791936D01*
X75729788Y-156913224D01*
X75953900Y-157006054D01*
X76188211Y-157068838D01*
X76368586Y-157092584D01*
X76428711Y-157100500D01*
X76428712Y-157100500D01*
X76671289Y-157100500D01*
X76719388Y-157094167D01*
X76911789Y-157068838D01*
X77146100Y-157006054D01*
X77370212Y-156913224D01*
X77580289Y-156791936D01*
X77772738Y-156644265D01*
X77944265Y-156472738D01*
X78091936Y-156280289D01*
X78213224Y-156070212D01*
X78306054Y-155846100D01*
X78368838Y-155611789D01*
X78400500Y-155371288D01*
X78400500Y-155128712D01*
X78400500Y-155128711D01*
X181599500Y-155128711D01*
X181599500Y-155371288D01*
X181631161Y-155611785D01*
X181693947Y-155846104D01*
X181786773Y-156070205D01*
X181786776Y-156070212D01*
X181908064Y-156280289D01*
X181908066Y-156280292D01*
X181908067Y-156280293D01*
X182055733Y-156472736D01*
X182055739Y-156472743D01*
X182227256Y-156644260D01*
X182227262Y-156644265D01*
X182419711Y-156791936D01*
X182629788Y-156913224D01*
X182853900Y-157006054D01*
X183088211Y-157068838D01*
X183268586Y-157092584D01*
X183328711Y-157100500D01*
X183328712Y-157100500D01*
X183571289Y-157100500D01*
X183619388Y-157094167D01*
X183811789Y-157068838D01*
X184046100Y-157006054D01*
X184270212Y-156913224D01*
X184480289Y-156791936D01*
X184672738Y-156644265D01*
X184844265Y-156472738D01*
X184991936Y-156280289D01*
X185113224Y-156070212D01*
X185206054Y-155846100D01*
X185268838Y-155611789D01*
X185300500Y-155371288D01*
X185300500Y-155128712D01*
X185268838Y-154888211D01*
X185206054Y-154653900D01*
X185113224Y-154429788D01*
X184991936Y-154219711D01*
X184844265Y-154027262D01*
X184844260Y-154027256D01*
X184672743Y-153855739D01*
X184672736Y-153855733D01*
X184480293Y-153708067D01*
X184480292Y-153708066D01*
X184480289Y-153708064D01*
X184270212Y-153586776D01*
X184270205Y-153586773D01*
X184046104Y-153493947D01*
X183811785Y-153431161D01*
X183571289Y-153399500D01*
X183571288Y-153399500D01*
X183328712Y-153399500D01*
X183328711Y-153399500D01*
X183088214Y-153431161D01*
X182853895Y-153493947D01*
X182629794Y-153586773D01*
X182629785Y-153586777D01*
X182419706Y-153708067D01*
X182227263Y-153855733D01*
X182227256Y-153855739D01*
X182055739Y-154027256D01*
X182055733Y-154027263D01*
X181908067Y-154219706D01*
X181786777Y-154429785D01*
X181786773Y-154429794D01*
X181693947Y-154653895D01*
X181631161Y-154888214D01*
X181599500Y-155128711D01*
X78400500Y-155128711D01*
X78368838Y-154888211D01*
X78306054Y-154653900D01*
X78213224Y-154429788D01*
X78091936Y-154219711D01*
X77944265Y-154027262D01*
X77944260Y-154027256D01*
X77772743Y-153855739D01*
X77772736Y-153855733D01*
X77580293Y-153708067D01*
X77580292Y-153708066D01*
X77580289Y-153708064D01*
X77370212Y-153586776D01*
X77370205Y-153586773D01*
X77146104Y-153493947D01*
X76911785Y-153431161D01*
X76671289Y-153399500D01*
X76671288Y-153399500D01*
X76428712Y-153399500D01*
X76428711Y-153399500D01*
X76188214Y-153431161D01*
X75953895Y-153493947D01*
X75729794Y-153586773D01*
X75729785Y-153586777D01*
X75519706Y-153708067D01*
X75327263Y-153855733D01*
X75327256Y-153855739D01*
X75155739Y-154027256D01*
X75155733Y-154027263D01*
X75008067Y-154219706D01*
X74886777Y-154429785D01*
X74886773Y-154429794D01*
X74793947Y-154653895D01*
X74731161Y-154888214D01*
X74699500Y-155128711D01*
X69050500Y-155128711D01*
X69050500Y-139830491D01*
X80549500Y-139830491D01*
X80549500Y-140169508D01*
X80582729Y-140506901D01*
X80648870Y-140839410D01*
X80747284Y-141163841D01*
X80877024Y-141477060D01*
X80877026Y-141477065D01*
X81036831Y-141776039D01*
X81036842Y-141776057D01*
X81225184Y-142057930D01*
X81225194Y-142057944D01*
X81440269Y-142320014D01*
X81679985Y-142559730D01*
X81679990Y-142559734D01*
X81679991Y-142559735D01*
X81942061Y-142774810D01*
X82223949Y-142963162D01*
X82223958Y-142963167D01*
X82223960Y-142963168D01*
X82522934Y-143122973D01*
X82522936Y-143122973D01*
X82522942Y-143122977D01*
X82836160Y-143252716D01*
X83160586Y-143351129D01*
X83493096Y-143417270D01*
X83830488Y-143450500D01*
X83830491Y-143450500D01*
X84169509Y-143450500D01*
X84169512Y-143450500D01*
X84506904Y-143417270D01*
X84839414Y-143351129D01*
X85163840Y-143252716D01*
X85477058Y-143122977D01*
X85776051Y-142963162D01*
X86057939Y-142774810D01*
X86320009Y-142559735D01*
X86559735Y-142320009D01*
X86774810Y-142057939D01*
X86963162Y-141776051D01*
X87122977Y-141477058D01*
X87252716Y-141163840D01*
X87351129Y-140839414D01*
X87417270Y-140506904D01*
X87450500Y-140169512D01*
X87450500Y-139830491D01*
X92549500Y-139830491D01*
X92549500Y-140169508D01*
X92582729Y-140506901D01*
X92648870Y-140839410D01*
X92747284Y-141163841D01*
X92877024Y-141477060D01*
X92877026Y-141477065D01*
X93036831Y-141776039D01*
X93036842Y-141776057D01*
X93225184Y-142057930D01*
X93225194Y-142057944D01*
X93440269Y-142320014D01*
X93679985Y-142559730D01*
X93679990Y-142559734D01*
X93679991Y-142559735D01*
X93942061Y-142774810D01*
X94223949Y-142963162D01*
X94223958Y-142963167D01*
X94223960Y-142963168D01*
X94522934Y-143122973D01*
X94522936Y-143122973D01*
X94522942Y-143122977D01*
X94836160Y-143252716D01*
X95160586Y-143351129D01*
X95493096Y-143417270D01*
X95830488Y-143450500D01*
X95830491Y-143450500D01*
X96169509Y-143450500D01*
X96169512Y-143450500D01*
X96506904Y-143417270D01*
X96839414Y-143351129D01*
X97163840Y-143252716D01*
X97477058Y-143122977D01*
X97776051Y-142963162D01*
X98057939Y-142774810D01*
X98320009Y-142559735D01*
X98559735Y-142320009D01*
X98774810Y-142057939D01*
X98963162Y-141776051D01*
X99122977Y-141477058D01*
X99252716Y-141163840D01*
X99351129Y-140839414D01*
X99417270Y-140506904D01*
X99450500Y-140169512D01*
X99450500Y-139830491D01*
X104549500Y-139830491D01*
X104549500Y-140169508D01*
X104582729Y-140506901D01*
X104648870Y-140839410D01*
X104747284Y-141163841D01*
X104877024Y-141477060D01*
X104877026Y-141477065D01*
X105036831Y-141776039D01*
X105036842Y-141776057D01*
X105225184Y-142057930D01*
X105225194Y-142057944D01*
X105440269Y-142320014D01*
X105679985Y-142559730D01*
X105679990Y-142559734D01*
X105679991Y-142559735D01*
X105942061Y-142774810D01*
X106223949Y-142963162D01*
X106223958Y-142963167D01*
X106223960Y-142963168D01*
X106522934Y-143122973D01*
X106522936Y-143122973D01*
X106522942Y-143122977D01*
X106836160Y-143252716D01*
X107160586Y-143351129D01*
X107493096Y-143417270D01*
X107830488Y-143450500D01*
X107830491Y-143450500D01*
X108169509Y-143450500D01*
X108169512Y-143450500D01*
X108506904Y-143417270D01*
X108839414Y-143351129D01*
X109163840Y-143252716D01*
X109477058Y-143122977D01*
X109776051Y-142963162D01*
X110057939Y-142774810D01*
X110320009Y-142559735D01*
X110559735Y-142320009D01*
X110774810Y-142057939D01*
X110963162Y-141776051D01*
X111122977Y-141477058D01*
X111252716Y-141163840D01*
X111351129Y-140839414D01*
X111417270Y-140506904D01*
X111450500Y-140169512D01*
X111450500Y-139830491D01*
X116549500Y-139830491D01*
X116549500Y-140169508D01*
X116582729Y-140506901D01*
X116648870Y-140839410D01*
X116747284Y-141163841D01*
X116877024Y-141477060D01*
X116877026Y-141477065D01*
X117036831Y-141776039D01*
X117036842Y-141776057D01*
X117225184Y-142057930D01*
X117225194Y-142057944D01*
X117440269Y-142320014D01*
X117679985Y-142559730D01*
X117679990Y-142559734D01*
X117679991Y-142559735D01*
X117942061Y-142774810D01*
X118223949Y-142963162D01*
X118223958Y-142963167D01*
X118223960Y-142963168D01*
X118522934Y-143122973D01*
X118522936Y-143122973D01*
X118522942Y-143122977D01*
X118836160Y-143252716D01*
X119160586Y-143351129D01*
X119493096Y-143417270D01*
X119830488Y-143450500D01*
X119830491Y-143450500D01*
X120169509Y-143450500D01*
X120169512Y-143450500D01*
X120506904Y-143417270D01*
X120839414Y-143351129D01*
X121163840Y-143252716D01*
X121477058Y-143122977D01*
X121776051Y-142963162D01*
X122057939Y-142774810D01*
X122320009Y-142559735D01*
X122559735Y-142320009D01*
X122774810Y-142057939D01*
X122963162Y-141776051D01*
X123122977Y-141477058D01*
X123252716Y-141163840D01*
X123351129Y-140839414D01*
X123417270Y-140506904D01*
X123450500Y-140169512D01*
X123450500Y-139830491D01*
X128549500Y-139830491D01*
X128549500Y-140169508D01*
X128582729Y-140506901D01*
X128648870Y-140839410D01*
X128747284Y-141163841D01*
X128877024Y-141477060D01*
X128877026Y-141477065D01*
X129036831Y-141776039D01*
X129036842Y-141776057D01*
X129225184Y-142057930D01*
X129225194Y-142057944D01*
X129440269Y-142320014D01*
X129679985Y-142559730D01*
X129679990Y-142559734D01*
X129679991Y-142559735D01*
X129942061Y-142774810D01*
X130223949Y-142963162D01*
X130223958Y-142963167D01*
X130223960Y-142963168D01*
X130522934Y-143122973D01*
X130522936Y-143122973D01*
X130522942Y-143122977D01*
X130836160Y-143252716D01*
X131160586Y-143351129D01*
X131493096Y-143417270D01*
X131830488Y-143450500D01*
X131830491Y-143450500D01*
X132169509Y-143450500D01*
X132169512Y-143450500D01*
X132506904Y-143417270D01*
X132839414Y-143351129D01*
X133163840Y-143252716D01*
X133477058Y-143122977D01*
X133776051Y-142963162D01*
X134057939Y-142774810D01*
X134320009Y-142559735D01*
X134559735Y-142320009D01*
X134774810Y-142057939D01*
X134963162Y-141776051D01*
X135122977Y-141477058D01*
X135252716Y-141163840D01*
X135351129Y-140839414D01*
X135417270Y-140506904D01*
X135450500Y-140169512D01*
X135450500Y-139830491D01*
X140549500Y-139830491D01*
X140549500Y-140169508D01*
X140582729Y-140506901D01*
X140648870Y-140839410D01*
X140747284Y-141163841D01*
X140877024Y-141477060D01*
X140877026Y-141477065D01*
X141036831Y-141776039D01*
X141036842Y-141776057D01*
X141225184Y-142057930D01*
X141225194Y-142057944D01*
X141440269Y-142320014D01*
X141679985Y-142559730D01*
X141679990Y-142559734D01*
X141679991Y-142559735D01*
X141942061Y-142774810D01*
X142223949Y-142963162D01*
X142223958Y-142963167D01*
X142223960Y-142963168D01*
X142522934Y-143122973D01*
X142522936Y-143122973D01*
X142522942Y-143122977D01*
X142836160Y-143252716D01*
X143160586Y-143351129D01*
X143493096Y-143417270D01*
X143830488Y-143450500D01*
X143830491Y-143450500D01*
X144169509Y-143450500D01*
X144169512Y-143450500D01*
X144506904Y-143417270D01*
X144839414Y-143351129D01*
X145163840Y-143252716D01*
X145477058Y-143122977D01*
X145776051Y-142963162D01*
X146057939Y-142774810D01*
X146320009Y-142559735D01*
X146559735Y-142320009D01*
X146774810Y-142057939D01*
X146963162Y-141776051D01*
X147122977Y-141477058D01*
X147252716Y-141163840D01*
X147351129Y-140839414D01*
X147417270Y-140506904D01*
X147450500Y-140169512D01*
X147450500Y-140028711D01*
X155149500Y-140028711D01*
X155149500Y-140271288D01*
X155181161Y-140511785D01*
X155243947Y-140746104D01*
X155336773Y-140970205D01*
X155336776Y-140970212D01*
X155458064Y-141180289D01*
X155458066Y-141180292D01*
X155458067Y-141180293D01*
X155605733Y-141372736D01*
X155605739Y-141372743D01*
X155777256Y-141544260D01*
X155777262Y-141544265D01*
X155969711Y-141691936D01*
X156179788Y-141813224D01*
X156403900Y-141906054D01*
X156638211Y-141968838D01*
X156818586Y-141992584D01*
X156878711Y-142000500D01*
X156878712Y-142000500D01*
X157121289Y-142000500D01*
X157169388Y-141994167D01*
X157361789Y-141968838D01*
X157596100Y-141906054D01*
X157820212Y-141813224D01*
X158030289Y-141691936D01*
X158222738Y-141544265D01*
X158394265Y-141372738D01*
X158541936Y-141180289D01*
X158663224Y-140970212D01*
X158756054Y-140746100D01*
X158818838Y-140511789D01*
X158850500Y-140271288D01*
X158850500Y-140028712D01*
X158818838Y-139788211D01*
X158756054Y-139553900D01*
X158663224Y-139329788D01*
X158541936Y-139119711D01*
X158394265Y-138927262D01*
X158394260Y-138927256D01*
X158222743Y-138755739D01*
X158222736Y-138755733D01*
X158030293Y-138608067D01*
X158030292Y-138608066D01*
X158030289Y-138608064D01*
X157820212Y-138486776D01*
X157820205Y-138486773D01*
X157596104Y-138393947D01*
X157361785Y-138331161D01*
X157121289Y-138299500D01*
X157121288Y-138299500D01*
X156878712Y-138299500D01*
X156878711Y-138299500D01*
X156638214Y-138331161D01*
X156403895Y-138393947D01*
X156179794Y-138486773D01*
X156179785Y-138486777D01*
X155969706Y-138608067D01*
X155777263Y-138755733D01*
X155777256Y-138755739D01*
X155605739Y-138927256D01*
X155605733Y-138927263D01*
X155458067Y-139119706D01*
X155336777Y-139329785D01*
X155336773Y-139329794D01*
X155243947Y-139553895D01*
X155181161Y-139788214D01*
X155149500Y-140028711D01*
X147450500Y-140028711D01*
X147450500Y-139830488D01*
X147417270Y-139493096D01*
X147351129Y-139160586D01*
X147252716Y-138836160D01*
X147122977Y-138522942D01*
X147103646Y-138486777D01*
X146963168Y-138223960D01*
X146963167Y-138223958D01*
X146963162Y-138223949D01*
X146774810Y-137942061D01*
X146559735Y-137679991D01*
X146559734Y-137679990D01*
X146559730Y-137679985D01*
X146320014Y-137440269D01*
X146057944Y-137225194D01*
X146057943Y-137225193D01*
X146057939Y-137225190D01*
X145776051Y-137036838D01*
X145776046Y-137036835D01*
X145776039Y-137036831D01*
X145477065Y-136877026D01*
X145477060Y-136877024D01*
X145163841Y-136747284D01*
X144973382Y-136689509D01*
X144839414Y-136648871D01*
X144839411Y-136648870D01*
X144839410Y-136648870D01*
X144506901Y-136582729D01*
X144269199Y-136559318D01*
X144169512Y-136549500D01*
X143830488Y-136549500D01*
X143739738Y-136558437D01*
X143493098Y-136582729D01*
X143160589Y-136648870D01*
X142836158Y-136747284D01*
X142522939Y-136877024D01*
X142522934Y-136877026D01*
X142223960Y-137036831D01*
X142223942Y-137036842D01*
X141942069Y-137225184D01*
X141942055Y-137225194D01*
X141679985Y-137440269D01*
X141440269Y-137679985D01*
X141225194Y-137942055D01*
X141225184Y-137942069D01*
X141036842Y-138223942D01*
X141036831Y-138223960D01*
X140877026Y-138522934D01*
X140877024Y-138522939D01*
X140747284Y-138836158D01*
X140648870Y-139160589D01*
X140582729Y-139493098D01*
X140549500Y-139830491D01*
X135450500Y-139830491D01*
X135450500Y-139830488D01*
X135417270Y-139493096D01*
X135351129Y-139160586D01*
X135252716Y-138836160D01*
X135122977Y-138522942D01*
X135103646Y-138486777D01*
X134963168Y-138223960D01*
X134963167Y-138223958D01*
X134963162Y-138223949D01*
X134774810Y-137942061D01*
X134559735Y-137679991D01*
X134559734Y-137679990D01*
X134559730Y-137679985D01*
X134320014Y-137440269D01*
X134057944Y-137225194D01*
X134057943Y-137225193D01*
X134057939Y-137225190D01*
X133776051Y-137036838D01*
X133776046Y-137036835D01*
X133776039Y-137036831D01*
X133477065Y-136877026D01*
X133477060Y-136877024D01*
X133163841Y-136747284D01*
X132973382Y-136689509D01*
X132839414Y-136648871D01*
X132839411Y-136648870D01*
X132839410Y-136648870D01*
X132506901Y-136582729D01*
X132269199Y-136559318D01*
X132169512Y-136549500D01*
X131830488Y-136549500D01*
X131739738Y-136558437D01*
X131493098Y-136582729D01*
X131160589Y-136648870D01*
X130836158Y-136747284D01*
X130522939Y-136877024D01*
X130522934Y-136877026D01*
X130223960Y-137036831D01*
X130223942Y-137036842D01*
X129942069Y-137225184D01*
X129942055Y-137225194D01*
X129679985Y-137440269D01*
X129440269Y-137679985D01*
X129225194Y-137942055D01*
X129225184Y-137942069D01*
X129036842Y-138223942D01*
X129036831Y-138223960D01*
X128877026Y-138522934D01*
X128877024Y-138522939D01*
X128747284Y-138836158D01*
X128648870Y-139160589D01*
X128582729Y-139493098D01*
X128549500Y-139830491D01*
X123450500Y-139830491D01*
X123450500Y-139830488D01*
X123417270Y-139493096D01*
X123351129Y-139160586D01*
X123252716Y-138836160D01*
X123122977Y-138522942D01*
X123103646Y-138486777D01*
X122963168Y-138223960D01*
X122963167Y-138223958D01*
X122963162Y-138223949D01*
X122774810Y-137942061D01*
X122559735Y-137679991D01*
X122559734Y-137679990D01*
X122559730Y-137679985D01*
X122320014Y-137440269D01*
X122057944Y-137225194D01*
X122057943Y-137225193D01*
X122057939Y-137225190D01*
X121776051Y-137036838D01*
X121776046Y-137036835D01*
X121776039Y-137036831D01*
X121477065Y-136877026D01*
X121477060Y-136877024D01*
X121163841Y-136747284D01*
X120973382Y-136689509D01*
X120839414Y-136648871D01*
X120839411Y-136648870D01*
X120839410Y-136648870D01*
X120506901Y-136582729D01*
X120269199Y-136559318D01*
X120169512Y-136549500D01*
X119830488Y-136549500D01*
X119739738Y-136558437D01*
X119493098Y-136582729D01*
X119160589Y-136648870D01*
X118836158Y-136747284D01*
X118522939Y-136877024D01*
X118522934Y-136877026D01*
X118223960Y-137036831D01*
X118223942Y-137036842D01*
X117942069Y-137225184D01*
X117942055Y-137225194D01*
X117679985Y-137440269D01*
X117440269Y-137679985D01*
X117225194Y-137942055D01*
X117225184Y-137942069D01*
X117036842Y-138223942D01*
X117036831Y-138223960D01*
X116877026Y-138522934D01*
X116877024Y-138522939D01*
X116747284Y-138836158D01*
X116648870Y-139160589D01*
X116582729Y-139493098D01*
X116549500Y-139830491D01*
X111450500Y-139830491D01*
X111450500Y-139830488D01*
X111417270Y-139493096D01*
X111351129Y-139160586D01*
X111252716Y-138836160D01*
X111122977Y-138522942D01*
X111103646Y-138486777D01*
X110963168Y-138223960D01*
X110963167Y-138223958D01*
X110963162Y-138223949D01*
X110774810Y-137942061D01*
X110559735Y-137679991D01*
X110559734Y-137679990D01*
X110559730Y-137679985D01*
X110320014Y-137440269D01*
X110057944Y-137225194D01*
X110057943Y-137225193D01*
X110057939Y-137225190D01*
X109776051Y-137036838D01*
X109776046Y-137036835D01*
X109776039Y-137036831D01*
X109477065Y-136877026D01*
X109477060Y-136877024D01*
X109163841Y-136747284D01*
X108973382Y-136689509D01*
X108839414Y-136648871D01*
X108839411Y-136648870D01*
X108839410Y-136648870D01*
X108506901Y-136582729D01*
X108269199Y-136559318D01*
X108169512Y-136549500D01*
X107830488Y-136549500D01*
X107739738Y-136558437D01*
X107493098Y-136582729D01*
X107160589Y-136648870D01*
X106836158Y-136747284D01*
X106522939Y-136877024D01*
X106522934Y-136877026D01*
X106223960Y-137036831D01*
X106223942Y-137036842D01*
X105942069Y-137225184D01*
X105942055Y-137225194D01*
X105679985Y-137440269D01*
X105440269Y-137679985D01*
X105225194Y-137942055D01*
X105225184Y-137942069D01*
X105036842Y-138223942D01*
X105036831Y-138223960D01*
X104877026Y-138522934D01*
X104877024Y-138522939D01*
X104747284Y-138836158D01*
X104648870Y-139160589D01*
X104582729Y-139493098D01*
X104549500Y-139830491D01*
X99450500Y-139830491D01*
X99450500Y-139830488D01*
X99417270Y-139493096D01*
X99351129Y-139160586D01*
X99252716Y-138836160D01*
X99122977Y-138522942D01*
X99103646Y-138486777D01*
X98963168Y-138223960D01*
X98963167Y-138223958D01*
X98963162Y-138223949D01*
X98774810Y-137942061D01*
X98559735Y-137679991D01*
X98559734Y-137679990D01*
X98559730Y-137679985D01*
X98320014Y-137440269D01*
X98057944Y-137225194D01*
X98057943Y-137225193D01*
X98057939Y-137225190D01*
X97776051Y-137036838D01*
X97776046Y-137036835D01*
X97776039Y-137036831D01*
X97477065Y-136877026D01*
X97477060Y-136877024D01*
X97163841Y-136747284D01*
X96973382Y-136689509D01*
X96839414Y-136648871D01*
X96839411Y-136648870D01*
X96839410Y-136648870D01*
X96506901Y-136582729D01*
X96269199Y-136559318D01*
X96169512Y-136549500D01*
X95830488Y-136549500D01*
X95739738Y-136558437D01*
X95493098Y-136582729D01*
X95160589Y-136648870D01*
X94836158Y-136747284D01*
X94522939Y-136877024D01*
X94522934Y-136877026D01*
X94223960Y-137036831D01*
X94223942Y-137036842D01*
X93942069Y-137225184D01*
X93942055Y-137225194D01*
X93679985Y-137440269D01*
X93440269Y-137679985D01*
X93225194Y-137942055D01*
X93225184Y-137942069D01*
X93036842Y-138223942D01*
X93036831Y-138223960D01*
X92877026Y-138522934D01*
X92877024Y-138522939D01*
X92747284Y-138836158D01*
X92648870Y-139160589D01*
X92582729Y-139493098D01*
X92549500Y-139830491D01*
X87450500Y-139830491D01*
X87450500Y-139830488D01*
X87417270Y-139493096D01*
X87351129Y-139160586D01*
X87252716Y-138836160D01*
X87122977Y-138522942D01*
X87103646Y-138486777D01*
X86963168Y-138223960D01*
X86963167Y-138223958D01*
X86963162Y-138223949D01*
X86774810Y-137942061D01*
X86559735Y-137679991D01*
X86559734Y-137679990D01*
X86559730Y-137679985D01*
X86320014Y-137440269D01*
X86057944Y-137225194D01*
X86057943Y-137225193D01*
X86057939Y-137225190D01*
X85776051Y-137036838D01*
X85776046Y-137036835D01*
X85776039Y-137036831D01*
X85477065Y-136877026D01*
X85477060Y-136877024D01*
X85163841Y-136747284D01*
X84973382Y-136689509D01*
X84839414Y-136648871D01*
X84839411Y-136648870D01*
X84839410Y-136648870D01*
X84506901Y-136582729D01*
X84269199Y-136559318D01*
X84169512Y-136549500D01*
X83830488Y-136549500D01*
X83739738Y-136558437D01*
X83493098Y-136582729D01*
X83160589Y-136648870D01*
X82836158Y-136747284D01*
X82522939Y-136877024D01*
X82522934Y-136877026D01*
X82223960Y-137036831D01*
X82223942Y-137036842D01*
X81942069Y-137225184D01*
X81942055Y-137225194D01*
X81679985Y-137440269D01*
X81440269Y-137679985D01*
X81225194Y-137942055D01*
X81225184Y-137942069D01*
X81036842Y-138223942D01*
X81036831Y-138223960D01*
X80877026Y-138522934D01*
X80877024Y-138522939D01*
X80747284Y-138836158D01*
X80648870Y-139160589D01*
X80582729Y-139493098D01*
X80549500Y-139830491D01*
X69050500Y-139830491D01*
X69050500Y-134478711D01*
X155149500Y-134478711D01*
X155149500Y-134721288D01*
X155181161Y-134961785D01*
X155243947Y-135196104D01*
X155336773Y-135420205D01*
X155336776Y-135420212D01*
X155458064Y-135630289D01*
X155458066Y-135630292D01*
X155458067Y-135630293D01*
X155605733Y-135822736D01*
X155605739Y-135822743D01*
X155777256Y-135994260D01*
X155777262Y-135994265D01*
X155969711Y-136141936D01*
X156179788Y-136263224D01*
X156403900Y-136356054D01*
X156638211Y-136418838D01*
X156818586Y-136442584D01*
X156878711Y-136450500D01*
X156878712Y-136450500D01*
X157121289Y-136450500D01*
X157169388Y-136444167D01*
X157361789Y-136418838D01*
X157596100Y-136356054D01*
X157820212Y-136263224D01*
X158030289Y-136141936D01*
X158222738Y-135994265D01*
X158394265Y-135822738D01*
X158541936Y-135630289D01*
X158663224Y-135420212D01*
X158756054Y-135196100D01*
X158818838Y-134961789D01*
X158850500Y-134721288D01*
X158850500Y-134478712D01*
X158818838Y-134238211D01*
X158756054Y-134003900D01*
X158663224Y-133779788D01*
X158541936Y-133569711D01*
X158394265Y-133377262D01*
X158394260Y-133377256D01*
X158222743Y-133205739D01*
X158222736Y-133205733D01*
X158030293Y-133058067D01*
X158030292Y-133058066D01*
X158030289Y-133058064D01*
X157820212Y-132936776D01*
X157820205Y-132936773D01*
X157596104Y-132843947D01*
X157361785Y-132781161D01*
X157121289Y-132749500D01*
X157121288Y-132749500D01*
X156878712Y-132749500D01*
X156878711Y-132749500D01*
X156638214Y-132781161D01*
X156403895Y-132843947D01*
X156179794Y-132936773D01*
X156179785Y-132936777D01*
X155969706Y-133058067D01*
X155777263Y-133205733D01*
X155777256Y-133205739D01*
X155605739Y-133377256D01*
X155605733Y-133377263D01*
X155458067Y-133569706D01*
X155336777Y-133779785D01*
X155336773Y-133779794D01*
X155243947Y-134003895D01*
X155181161Y-134238214D01*
X155149500Y-134478711D01*
X69050500Y-134478711D01*
X69050500Y-128928711D01*
X155149500Y-128928711D01*
X155149500Y-129171288D01*
X155181161Y-129411785D01*
X155243947Y-129646104D01*
X155336773Y-129870205D01*
X155336776Y-129870212D01*
X155458064Y-130080289D01*
X155458066Y-130080292D01*
X155458067Y-130080293D01*
X155605733Y-130272736D01*
X155605739Y-130272743D01*
X155777256Y-130444260D01*
X155777262Y-130444265D01*
X155969711Y-130591936D01*
X156179788Y-130713224D01*
X156403900Y-130806054D01*
X156638211Y-130868838D01*
X156818586Y-130892584D01*
X156878711Y-130900500D01*
X156878712Y-130900500D01*
X157121289Y-130900500D01*
X157169388Y-130894167D01*
X157361789Y-130868838D01*
X157596100Y-130806054D01*
X157820212Y-130713224D01*
X158030289Y-130591936D01*
X158222738Y-130444265D01*
X158394265Y-130272738D01*
X158541936Y-130080289D01*
X158663224Y-129870212D01*
X158756054Y-129646100D01*
X158818838Y-129411789D01*
X158850500Y-129171288D01*
X158850500Y-128928712D01*
X158818838Y-128688211D01*
X158756054Y-128453900D01*
X158663224Y-128229788D01*
X158541936Y-128019711D01*
X158394265Y-127827262D01*
X158394260Y-127827256D01*
X158222743Y-127655739D01*
X158222736Y-127655733D01*
X158030293Y-127508067D01*
X158030292Y-127508066D01*
X158030289Y-127508064D01*
X157820212Y-127386776D01*
X157820205Y-127386773D01*
X157596104Y-127293947D01*
X157361785Y-127231161D01*
X157121289Y-127199500D01*
X157121288Y-127199500D01*
X156878712Y-127199500D01*
X156878711Y-127199500D01*
X156638214Y-127231161D01*
X156403895Y-127293947D01*
X156179794Y-127386773D01*
X156179785Y-127386777D01*
X155969706Y-127508067D01*
X155777263Y-127655733D01*
X155777256Y-127655739D01*
X155605739Y-127827256D01*
X155605733Y-127827263D01*
X155458067Y-128019706D01*
X155336777Y-128229785D01*
X155336773Y-128229794D01*
X155243947Y-128453895D01*
X155181161Y-128688214D01*
X155149500Y-128928711D01*
X69050500Y-128928711D01*
X69050500Y-123830491D01*
X80549500Y-123830491D01*
X80549500Y-124169508D01*
X80582729Y-124506901D01*
X80648870Y-124839410D01*
X80747284Y-125163841D01*
X80877024Y-125477060D01*
X80877026Y-125477065D01*
X81036831Y-125776039D01*
X81036842Y-125776057D01*
X81225184Y-126057930D01*
X81225194Y-126057944D01*
X81440269Y-126320014D01*
X81679985Y-126559730D01*
X81679990Y-126559734D01*
X81679991Y-126559735D01*
X81942061Y-126774810D01*
X82223949Y-126963162D01*
X82223958Y-126963167D01*
X82223960Y-126963168D01*
X82522934Y-127122973D01*
X82522936Y-127122973D01*
X82522942Y-127122977D01*
X82836160Y-127252716D01*
X83160586Y-127351129D01*
X83493096Y-127417270D01*
X83830488Y-127450500D01*
X83830491Y-127450500D01*
X84169509Y-127450500D01*
X84169512Y-127450500D01*
X84506904Y-127417270D01*
X84839414Y-127351129D01*
X85163840Y-127252716D01*
X85477058Y-127122977D01*
X85776051Y-126963162D01*
X86057939Y-126774810D01*
X86320009Y-126559735D01*
X86559735Y-126320009D01*
X86774810Y-126057939D01*
X86963162Y-125776051D01*
X87122977Y-125477058D01*
X87252716Y-125163840D01*
X87351129Y-124839414D01*
X87417270Y-124506904D01*
X87450500Y-124169512D01*
X87450500Y-123830491D01*
X92549500Y-123830491D01*
X92549500Y-124169508D01*
X92582729Y-124506901D01*
X92648870Y-124839410D01*
X92747284Y-125163841D01*
X92877024Y-125477060D01*
X92877026Y-125477065D01*
X93036831Y-125776039D01*
X93036842Y-125776057D01*
X93225184Y-126057930D01*
X93225194Y-126057944D01*
X93440269Y-126320014D01*
X93679985Y-126559730D01*
X93679990Y-126559734D01*
X93679991Y-126559735D01*
X93942061Y-126774810D01*
X94223949Y-126963162D01*
X94223958Y-126963167D01*
X94223960Y-126963168D01*
X94522934Y-127122973D01*
X94522936Y-127122973D01*
X94522942Y-127122977D01*
X94836160Y-127252716D01*
X95160586Y-127351129D01*
X95493096Y-127417270D01*
X95830488Y-127450500D01*
X95830491Y-127450500D01*
X96169509Y-127450500D01*
X96169512Y-127450500D01*
X96506904Y-127417270D01*
X96839414Y-127351129D01*
X97163840Y-127252716D01*
X97477058Y-127122977D01*
X97776051Y-126963162D01*
X98057939Y-126774810D01*
X98320009Y-126559735D01*
X98559735Y-126320009D01*
X98774810Y-126057939D01*
X98963162Y-125776051D01*
X99122977Y-125477058D01*
X99252716Y-125163840D01*
X99351129Y-124839414D01*
X99417270Y-124506904D01*
X99450500Y-124169512D01*
X99450500Y-123830491D01*
X104549500Y-123830491D01*
X104549500Y-124169508D01*
X104582729Y-124506901D01*
X104648870Y-124839410D01*
X104747284Y-125163841D01*
X104877024Y-125477060D01*
X104877026Y-125477065D01*
X105036831Y-125776039D01*
X105036842Y-125776057D01*
X105225184Y-126057930D01*
X105225194Y-126057944D01*
X105440269Y-126320014D01*
X105679985Y-126559730D01*
X105679990Y-126559734D01*
X105679991Y-126559735D01*
X105942061Y-126774810D01*
X106223949Y-126963162D01*
X106223958Y-126963167D01*
X106223960Y-126963168D01*
X106522934Y-127122973D01*
X106522936Y-127122973D01*
X106522942Y-127122977D01*
X106836160Y-127252716D01*
X107160586Y-127351129D01*
X107493096Y-127417270D01*
X107830488Y-127450500D01*
X107830491Y-127450500D01*
X108169509Y-127450500D01*
X108169512Y-127450500D01*
X108506904Y-127417270D01*
X108839414Y-127351129D01*
X109163840Y-127252716D01*
X109477058Y-127122977D01*
X109776051Y-126963162D01*
X110057939Y-126774810D01*
X110320009Y-126559735D01*
X110559735Y-126320009D01*
X110774810Y-126057939D01*
X110963162Y-125776051D01*
X111122977Y-125477058D01*
X111252716Y-125163840D01*
X111351129Y-124839414D01*
X111417270Y-124506904D01*
X111450500Y-124169512D01*
X111450500Y-123830491D01*
X116549500Y-123830491D01*
X116549500Y-124169508D01*
X116582729Y-124506901D01*
X116648870Y-124839410D01*
X116747284Y-125163841D01*
X116877024Y-125477060D01*
X116877026Y-125477065D01*
X117036831Y-125776039D01*
X117036842Y-125776057D01*
X117225184Y-126057930D01*
X117225194Y-126057944D01*
X117440269Y-126320014D01*
X117679985Y-126559730D01*
X117679990Y-126559734D01*
X117679991Y-126559735D01*
X117942061Y-126774810D01*
X118223949Y-126963162D01*
X118223958Y-126963167D01*
X118223960Y-126963168D01*
X118522934Y-127122973D01*
X118522936Y-127122973D01*
X118522942Y-127122977D01*
X118836160Y-127252716D01*
X119160586Y-127351129D01*
X119493096Y-127417270D01*
X119830488Y-127450500D01*
X119830491Y-127450500D01*
X120169509Y-127450500D01*
X120169512Y-127450500D01*
X120506904Y-127417270D01*
X120839414Y-127351129D01*
X121163840Y-127252716D01*
X121477058Y-127122977D01*
X121776051Y-126963162D01*
X122057939Y-126774810D01*
X122320009Y-126559735D01*
X122559735Y-126320009D01*
X122774810Y-126057939D01*
X122963162Y-125776051D01*
X123122977Y-125477058D01*
X123252716Y-125163840D01*
X123351129Y-124839414D01*
X123417270Y-124506904D01*
X123450500Y-124169512D01*
X123450500Y-123830491D01*
X128549500Y-123830491D01*
X128549500Y-124169508D01*
X128582729Y-124506901D01*
X128648870Y-124839410D01*
X128747284Y-125163841D01*
X128877024Y-125477060D01*
X128877026Y-125477065D01*
X129036831Y-125776039D01*
X129036842Y-125776057D01*
X129225184Y-126057930D01*
X129225194Y-126057944D01*
X129440269Y-126320014D01*
X129679985Y-126559730D01*
X129679990Y-126559734D01*
X129679991Y-126559735D01*
X129942061Y-126774810D01*
X130223949Y-126963162D01*
X130223958Y-126963167D01*
X130223960Y-126963168D01*
X130522934Y-127122973D01*
X130522936Y-127122973D01*
X130522942Y-127122977D01*
X130836160Y-127252716D01*
X131160586Y-127351129D01*
X131493096Y-127417270D01*
X131830488Y-127450500D01*
X131830491Y-127450500D01*
X132169509Y-127450500D01*
X132169512Y-127450500D01*
X132506904Y-127417270D01*
X132839414Y-127351129D01*
X133163840Y-127252716D01*
X133477058Y-127122977D01*
X133776051Y-126963162D01*
X134057939Y-126774810D01*
X134320009Y-126559735D01*
X134559735Y-126320009D01*
X134774810Y-126057939D01*
X134963162Y-125776051D01*
X135122977Y-125477058D01*
X135252716Y-125163840D01*
X135351129Y-124839414D01*
X135417270Y-124506904D01*
X135450500Y-124169512D01*
X135450500Y-123830491D01*
X140549500Y-123830491D01*
X140549500Y-124169508D01*
X140582729Y-124506901D01*
X140648870Y-124839410D01*
X140747284Y-125163841D01*
X140877024Y-125477060D01*
X140877026Y-125477065D01*
X141036831Y-125776039D01*
X141036842Y-125776057D01*
X141225184Y-126057930D01*
X141225194Y-126057944D01*
X141440269Y-126320014D01*
X141679985Y-126559730D01*
X141679990Y-126559734D01*
X141679991Y-126559735D01*
X141942061Y-126774810D01*
X142223949Y-126963162D01*
X142223958Y-126963167D01*
X142223960Y-126963168D01*
X142522934Y-127122973D01*
X142522936Y-127122973D01*
X142522942Y-127122977D01*
X142836160Y-127252716D01*
X143160586Y-127351129D01*
X143493096Y-127417270D01*
X143830488Y-127450500D01*
X143830491Y-127450500D01*
X144169509Y-127450500D01*
X144169512Y-127450500D01*
X144506904Y-127417270D01*
X144839414Y-127351129D01*
X145163840Y-127252716D01*
X145477058Y-127122977D01*
X145776051Y-126963162D01*
X146057939Y-126774810D01*
X146320009Y-126559735D01*
X146559735Y-126320009D01*
X146774810Y-126057939D01*
X146963162Y-125776051D01*
X147122977Y-125477058D01*
X147252716Y-125163840D01*
X147351129Y-124839414D01*
X147417270Y-124506904D01*
X147450500Y-124169512D01*
X147450500Y-123830488D01*
X147417270Y-123493096D01*
X147394517Y-123378711D01*
X155149500Y-123378711D01*
X155149500Y-123621288D01*
X155181161Y-123861785D01*
X155243947Y-124096104D01*
X155274354Y-124169512D01*
X155336776Y-124320212D01*
X155458064Y-124530289D01*
X155458066Y-124530292D01*
X155458067Y-124530293D01*
X155605733Y-124722736D01*
X155605739Y-124722743D01*
X155777256Y-124894260D01*
X155777262Y-124894265D01*
X155969711Y-125041936D01*
X156179788Y-125163224D01*
X156403900Y-125256054D01*
X156638211Y-125318838D01*
X156818586Y-125342584D01*
X156878711Y-125350500D01*
X156878712Y-125350500D01*
X157121289Y-125350500D01*
X157169388Y-125344167D01*
X157361789Y-125318838D01*
X157596100Y-125256054D01*
X157820212Y-125163224D01*
X158030289Y-125041936D01*
X158222738Y-124894265D01*
X158394265Y-124722738D01*
X158541936Y-124530289D01*
X158663224Y-124320212D01*
X158756054Y-124096100D01*
X158818838Y-123861789D01*
X158850500Y-123621288D01*
X158850500Y-123378712D01*
X158818838Y-123138211D01*
X158756054Y-122903900D01*
X158663224Y-122679788D01*
X158541936Y-122469711D01*
X158394265Y-122277262D01*
X158394260Y-122277256D01*
X158222743Y-122105739D01*
X158222736Y-122105733D01*
X158030293Y-121958067D01*
X158030292Y-121958066D01*
X158030289Y-121958064D01*
X157820212Y-121836776D01*
X157820205Y-121836773D01*
X157596104Y-121743947D01*
X157361785Y-121681161D01*
X157121289Y-121649500D01*
X157121288Y-121649500D01*
X156878712Y-121649500D01*
X156878711Y-121649500D01*
X156638214Y-121681161D01*
X156403895Y-121743947D01*
X156179794Y-121836773D01*
X156179785Y-121836777D01*
X155969706Y-121958067D01*
X155777263Y-122105733D01*
X155777256Y-122105739D01*
X155605739Y-122277256D01*
X155605733Y-122277263D01*
X155458067Y-122469706D01*
X155336777Y-122679785D01*
X155336773Y-122679794D01*
X155243947Y-122903895D01*
X155181161Y-123138214D01*
X155149500Y-123378711D01*
X147394517Y-123378711D01*
X147351129Y-123160586D01*
X147252716Y-122836160D01*
X147122977Y-122522942D01*
X147094524Y-122469711D01*
X146963168Y-122223960D01*
X146963167Y-122223958D01*
X146963162Y-122223949D01*
X146774810Y-121942061D01*
X146559735Y-121679991D01*
X146559734Y-121679990D01*
X146559730Y-121679985D01*
X146320014Y-121440269D01*
X146057944Y-121225194D01*
X146057943Y-121225193D01*
X146057939Y-121225190D01*
X145776051Y-121036838D01*
X145776046Y-121036835D01*
X145776039Y-121036831D01*
X145477065Y-120877026D01*
X145477060Y-120877024D01*
X145163841Y-120747284D01*
X144973382Y-120689509D01*
X144839414Y-120648871D01*
X144839411Y-120648870D01*
X144839410Y-120648870D01*
X144506901Y-120582729D01*
X144269199Y-120559318D01*
X144169512Y-120549500D01*
X143830488Y-120549500D01*
X143739738Y-120558437D01*
X143493098Y-120582729D01*
X143160589Y-120648870D01*
X142836158Y-120747284D01*
X142522939Y-120877024D01*
X142522934Y-120877026D01*
X142223960Y-121036831D01*
X142223942Y-121036842D01*
X141942069Y-121225184D01*
X141942055Y-121225194D01*
X141679985Y-121440269D01*
X141440269Y-121679985D01*
X141225194Y-121942055D01*
X141225184Y-121942069D01*
X141036842Y-122223942D01*
X141036831Y-122223960D01*
X140877026Y-122522934D01*
X140877024Y-122522939D01*
X140747284Y-122836158D01*
X140648870Y-123160589D01*
X140582729Y-123493098D01*
X140549500Y-123830491D01*
X135450500Y-123830491D01*
X135450500Y-123830488D01*
X135417270Y-123493096D01*
X135351129Y-123160586D01*
X135252716Y-122836160D01*
X135122977Y-122522942D01*
X135094524Y-122469711D01*
X134963168Y-122223960D01*
X134963167Y-122223958D01*
X134963162Y-122223949D01*
X134774810Y-121942061D01*
X134559735Y-121679991D01*
X134559734Y-121679990D01*
X134559730Y-121679985D01*
X134320014Y-121440269D01*
X134057944Y-121225194D01*
X134057943Y-121225193D01*
X134057939Y-121225190D01*
X133776051Y-121036838D01*
X133776046Y-121036835D01*
X133776039Y-121036831D01*
X133477065Y-120877026D01*
X133477060Y-120877024D01*
X133163841Y-120747284D01*
X132973382Y-120689509D01*
X132839414Y-120648871D01*
X132839411Y-120648870D01*
X132839410Y-120648870D01*
X132506901Y-120582729D01*
X132269199Y-120559318D01*
X132169512Y-120549500D01*
X131830488Y-120549500D01*
X131739738Y-120558437D01*
X131493098Y-120582729D01*
X131160589Y-120648870D01*
X130836158Y-120747284D01*
X130522939Y-120877024D01*
X130522934Y-120877026D01*
X130223960Y-121036831D01*
X130223942Y-121036842D01*
X129942069Y-121225184D01*
X129942055Y-121225194D01*
X129679985Y-121440269D01*
X129440269Y-121679985D01*
X129225194Y-121942055D01*
X129225184Y-121942069D01*
X129036842Y-122223942D01*
X129036831Y-122223960D01*
X128877026Y-122522934D01*
X128877024Y-122522939D01*
X128747284Y-122836158D01*
X128648870Y-123160589D01*
X128582729Y-123493098D01*
X128549500Y-123830491D01*
X123450500Y-123830491D01*
X123450500Y-123830488D01*
X123417270Y-123493096D01*
X123351129Y-123160586D01*
X123252716Y-122836160D01*
X123122977Y-122522942D01*
X123094524Y-122469711D01*
X122963168Y-122223960D01*
X122963167Y-122223958D01*
X122963162Y-122223949D01*
X122774810Y-121942061D01*
X122559735Y-121679991D01*
X122559734Y-121679990D01*
X122559730Y-121679985D01*
X122320014Y-121440269D01*
X122057944Y-121225194D01*
X122057943Y-121225193D01*
X122057939Y-121225190D01*
X121776051Y-121036838D01*
X121776046Y-121036835D01*
X121776039Y-121036831D01*
X121477065Y-120877026D01*
X121477060Y-120877024D01*
X121163841Y-120747284D01*
X120973382Y-120689509D01*
X120839414Y-120648871D01*
X120839411Y-120648870D01*
X120839410Y-120648870D01*
X120506901Y-120582729D01*
X120269199Y-120559318D01*
X120169512Y-120549500D01*
X119830488Y-120549500D01*
X119739738Y-120558437D01*
X119493098Y-120582729D01*
X119160589Y-120648870D01*
X118836158Y-120747284D01*
X118522939Y-120877024D01*
X118522934Y-120877026D01*
X118223960Y-121036831D01*
X118223942Y-121036842D01*
X117942069Y-121225184D01*
X117942055Y-121225194D01*
X117679985Y-121440269D01*
X117440269Y-121679985D01*
X117225194Y-121942055D01*
X117225184Y-121942069D01*
X117036842Y-122223942D01*
X117036831Y-122223960D01*
X116877026Y-122522934D01*
X116877024Y-122522939D01*
X116747284Y-122836158D01*
X116648870Y-123160589D01*
X116582729Y-123493098D01*
X116549500Y-123830491D01*
X111450500Y-123830491D01*
X111450500Y-123830488D01*
X111417270Y-123493096D01*
X111351129Y-123160586D01*
X111252716Y-122836160D01*
X111122977Y-122522942D01*
X111094524Y-122469711D01*
X110963168Y-122223960D01*
X110963167Y-122223958D01*
X110963162Y-122223949D01*
X110774810Y-121942061D01*
X110559735Y-121679991D01*
X110559734Y-121679990D01*
X110559730Y-121679985D01*
X110320014Y-121440269D01*
X110057944Y-121225194D01*
X110057943Y-121225193D01*
X110057939Y-121225190D01*
X109776051Y-121036838D01*
X109776046Y-121036835D01*
X109776039Y-121036831D01*
X109477065Y-120877026D01*
X109477060Y-120877024D01*
X109163841Y-120747284D01*
X108973382Y-120689509D01*
X108839414Y-120648871D01*
X108839411Y-120648870D01*
X108839410Y-120648870D01*
X108506901Y-120582729D01*
X108269199Y-120559318D01*
X108169512Y-120549500D01*
X107830488Y-120549500D01*
X107739738Y-120558437D01*
X107493098Y-120582729D01*
X107160589Y-120648870D01*
X106836158Y-120747284D01*
X106522939Y-120877024D01*
X106522934Y-120877026D01*
X106223960Y-121036831D01*
X106223942Y-121036842D01*
X105942069Y-121225184D01*
X105942055Y-121225194D01*
X105679985Y-121440269D01*
X105440269Y-121679985D01*
X105225194Y-121942055D01*
X105225184Y-121942069D01*
X105036842Y-122223942D01*
X105036831Y-122223960D01*
X104877026Y-122522934D01*
X104877024Y-122522939D01*
X104747284Y-122836158D01*
X104648870Y-123160589D01*
X104582729Y-123493098D01*
X104549500Y-123830491D01*
X99450500Y-123830491D01*
X99450500Y-123830488D01*
X99417270Y-123493096D01*
X99351129Y-123160586D01*
X99252716Y-122836160D01*
X99122977Y-122522942D01*
X99094524Y-122469711D01*
X98963168Y-122223960D01*
X98963167Y-122223958D01*
X98963162Y-122223949D01*
X98774810Y-121942061D01*
X98559735Y-121679991D01*
X98559734Y-121679990D01*
X98559730Y-121679985D01*
X98320014Y-121440269D01*
X98057944Y-121225194D01*
X98057943Y-121225193D01*
X98057939Y-121225190D01*
X97776051Y-121036838D01*
X97776046Y-121036835D01*
X97776039Y-121036831D01*
X97477065Y-120877026D01*
X97477060Y-120877024D01*
X97163841Y-120747284D01*
X96973382Y-120689509D01*
X96839414Y-120648871D01*
X96839411Y-120648870D01*
X96839410Y-120648870D01*
X96506901Y-120582729D01*
X96269199Y-120559318D01*
X96169512Y-120549500D01*
X95830488Y-120549500D01*
X95739738Y-120558437D01*
X95493098Y-120582729D01*
X95160589Y-120648870D01*
X94836158Y-120747284D01*
X94522939Y-120877024D01*
X94522934Y-120877026D01*
X94223960Y-121036831D01*
X94223942Y-121036842D01*
X93942069Y-121225184D01*
X93942055Y-121225194D01*
X93679985Y-121440269D01*
X93440269Y-121679985D01*
X93225194Y-121942055D01*
X93225184Y-121942069D01*
X93036842Y-122223942D01*
X93036831Y-122223960D01*
X92877026Y-122522934D01*
X92877024Y-122522939D01*
X92747284Y-122836158D01*
X92648870Y-123160589D01*
X92582729Y-123493098D01*
X92549500Y-123830491D01*
X87450500Y-123830491D01*
X87450500Y-123830488D01*
X87417270Y-123493096D01*
X87351129Y-123160586D01*
X87252716Y-122836160D01*
X87122977Y-122522942D01*
X87094524Y-122469711D01*
X86963168Y-122223960D01*
X86963167Y-122223958D01*
X86963162Y-122223949D01*
X86774810Y-121942061D01*
X86559735Y-121679991D01*
X86559734Y-121679990D01*
X86559730Y-121679985D01*
X86320014Y-121440269D01*
X86057944Y-121225194D01*
X86057943Y-121225193D01*
X86057939Y-121225190D01*
X85776051Y-121036838D01*
X85776046Y-121036835D01*
X85776039Y-121036831D01*
X85477065Y-120877026D01*
X85477060Y-120877024D01*
X85163841Y-120747284D01*
X84973382Y-120689509D01*
X84839414Y-120648871D01*
X84839411Y-120648870D01*
X84839410Y-120648870D01*
X84506901Y-120582729D01*
X84269199Y-120559318D01*
X84169512Y-120549500D01*
X83830488Y-120549500D01*
X83739738Y-120558437D01*
X83493098Y-120582729D01*
X83160589Y-120648870D01*
X82836158Y-120747284D01*
X82522939Y-120877024D01*
X82522934Y-120877026D01*
X82223960Y-121036831D01*
X82223942Y-121036842D01*
X81942069Y-121225184D01*
X81942055Y-121225194D01*
X81679985Y-121440269D01*
X81440269Y-121679985D01*
X81225194Y-121942055D01*
X81225184Y-121942069D01*
X81036842Y-122223942D01*
X81036831Y-122223960D01*
X80877026Y-122522934D01*
X80877024Y-122522939D01*
X80747284Y-122836158D01*
X80648870Y-123160589D01*
X80582729Y-123493098D01*
X80549500Y-123830491D01*
X69050500Y-123830491D01*
X69050500Y-109365186D01*
X80099500Y-109365186D01*
X80099500Y-109634813D01*
X80129686Y-109902719D01*
X80129688Y-109902731D01*
X80189684Y-110165594D01*
X80189687Y-110165602D01*
X80278734Y-110420082D01*
X80395714Y-110662994D01*
X80395716Y-110662997D01*
X80539162Y-110891289D01*
X80707266Y-111102085D01*
X80897915Y-111292734D01*
X81108711Y-111460838D01*
X81337003Y-111604284D01*
X81579921Y-111721267D01*
X81771049Y-111788145D01*
X81834397Y-111810312D01*
X81834405Y-111810315D01*
X81834408Y-111810315D01*
X81834409Y-111810316D01*
X82097268Y-111870312D01*
X82365187Y-111900499D01*
X82365188Y-111900500D01*
X82365191Y-111900500D01*
X82634812Y-111900500D01*
X82634812Y-111900499D01*
X82902732Y-111870312D01*
X83165591Y-111810316D01*
X83420079Y-111721267D01*
X83662997Y-111604284D01*
X83891289Y-111460838D01*
X84102085Y-111292734D01*
X84292734Y-111102085D01*
X84460838Y-110891289D01*
X84604284Y-110662997D01*
X84721267Y-110420079D01*
X84810316Y-110165591D01*
X84870312Y-109902732D01*
X84900500Y-109634809D01*
X84900500Y-109365191D01*
X84900499Y-109365186D01*
X90099500Y-109365186D01*
X90099500Y-109634813D01*
X90129686Y-109902719D01*
X90129688Y-109902731D01*
X90189684Y-110165594D01*
X90189687Y-110165602D01*
X90278734Y-110420082D01*
X90395714Y-110662994D01*
X90395716Y-110662997D01*
X90539162Y-110891289D01*
X90707266Y-111102085D01*
X90897915Y-111292734D01*
X91108711Y-111460838D01*
X91337003Y-111604284D01*
X91579921Y-111721267D01*
X91771049Y-111788145D01*
X91834397Y-111810312D01*
X91834405Y-111810315D01*
X91834408Y-111810315D01*
X91834409Y-111810316D01*
X92097268Y-111870312D01*
X92365187Y-111900499D01*
X92365188Y-111900500D01*
X92365191Y-111900500D01*
X92634812Y-111900500D01*
X92634812Y-111900499D01*
X92902732Y-111870312D01*
X93165591Y-111810316D01*
X93420079Y-111721267D01*
X93662997Y-111604284D01*
X93891289Y-111460838D01*
X94102085Y-111292734D01*
X94292734Y-111102085D01*
X94460838Y-110891289D01*
X94604284Y-110662997D01*
X94721267Y-110420079D01*
X94810316Y-110165591D01*
X94870312Y-109902732D01*
X94900500Y-109634809D01*
X94900500Y-109365191D01*
X94900499Y-109365186D01*
X100099500Y-109365186D01*
X100099500Y-109634813D01*
X100129686Y-109902719D01*
X100129688Y-109902731D01*
X100189684Y-110165594D01*
X100189687Y-110165602D01*
X100278734Y-110420082D01*
X100395714Y-110662994D01*
X100395716Y-110662997D01*
X100539162Y-110891289D01*
X100707266Y-111102085D01*
X100897915Y-111292734D01*
X101108711Y-111460838D01*
X101337003Y-111604284D01*
X101579921Y-111721267D01*
X101771049Y-111788145D01*
X101834397Y-111810312D01*
X101834405Y-111810315D01*
X101834408Y-111810315D01*
X101834409Y-111810316D01*
X102097268Y-111870312D01*
X102365187Y-111900499D01*
X102365188Y-111900500D01*
X102365191Y-111900500D01*
X102634812Y-111900500D01*
X102634812Y-111900499D01*
X102902732Y-111870312D01*
X103165591Y-111810316D01*
X103420079Y-111721267D01*
X103662997Y-111604284D01*
X103891289Y-111460838D01*
X104102085Y-111292734D01*
X104292734Y-111102085D01*
X104460838Y-110891289D01*
X104604284Y-110662997D01*
X104721267Y-110420079D01*
X104810316Y-110165591D01*
X104870312Y-109902732D01*
X104900500Y-109634809D01*
X104900500Y-109365191D01*
X104900499Y-109365186D01*
X110099500Y-109365186D01*
X110099500Y-109634813D01*
X110129686Y-109902719D01*
X110129688Y-109902731D01*
X110189684Y-110165594D01*
X110189687Y-110165602D01*
X110278734Y-110420082D01*
X110395714Y-110662994D01*
X110395716Y-110662997D01*
X110539162Y-110891289D01*
X110707266Y-111102085D01*
X110897915Y-111292734D01*
X111108711Y-111460838D01*
X111337003Y-111604284D01*
X111579921Y-111721267D01*
X111771049Y-111788145D01*
X111834397Y-111810312D01*
X111834405Y-111810315D01*
X111834408Y-111810315D01*
X111834409Y-111810316D01*
X112097268Y-111870312D01*
X112365187Y-111900499D01*
X112365188Y-111900500D01*
X112365191Y-111900500D01*
X112634812Y-111900500D01*
X112634812Y-111900499D01*
X112902732Y-111870312D01*
X113165591Y-111810316D01*
X113420079Y-111721267D01*
X113662997Y-111604284D01*
X113891289Y-111460838D01*
X114102085Y-111292734D01*
X114292734Y-111102085D01*
X114460838Y-110891289D01*
X114604284Y-110662997D01*
X114721267Y-110420079D01*
X114810316Y-110165591D01*
X114870312Y-109902732D01*
X114900500Y-109634809D01*
X114900500Y-109365191D01*
X114900499Y-109365186D01*
X120099500Y-109365186D01*
X120099500Y-109634813D01*
X120129686Y-109902719D01*
X120129688Y-109902731D01*
X120189684Y-110165594D01*
X120189687Y-110165602D01*
X120278734Y-110420082D01*
X120395714Y-110662994D01*
X120395716Y-110662997D01*
X120539162Y-110891289D01*
X120707266Y-111102085D01*
X120897915Y-111292734D01*
X121108711Y-111460838D01*
X121337003Y-111604284D01*
X121579921Y-111721267D01*
X121771049Y-111788145D01*
X121834397Y-111810312D01*
X121834405Y-111810315D01*
X121834408Y-111810315D01*
X121834409Y-111810316D01*
X122097268Y-111870312D01*
X122365187Y-111900499D01*
X122365188Y-111900500D01*
X122365191Y-111900500D01*
X122634812Y-111900500D01*
X122634812Y-111900499D01*
X122902732Y-111870312D01*
X123165591Y-111810316D01*
X123420079Y-111721267D01*
X123662997Y-111604284D01*
X123891289Y-111460838D01*
X124102085Y-111292734D01*
X124292734Y-111102085D01*
X124460838Y-110891289D01*
X124604284Y-110662997D01*
X124721267Y-110420079D01*
X124810316Y-110165591D01*
X124870312Y-109902732D01*
X124900500Y-109634809D01*
X124900500Y-109365191D01*
X124900499Y-109365186D01*
X145099500Y-109365186D01*
X145099500Y-109634813D01*
X145129686Y-109902719D01*
X145129688Y-109902731D01*
X145189684Y-110165594D01*
X145189687Y-110165602D01*
X145278734Y-110420082D01*
X145395714Y-110662994D01*
X145395716Y-110662997D01*
X145539162Y-110891289D01*
X145707266Y-111102085D01*
X145897915Y-111292734D01*
X146108711Y-111460838D01*
X146337003Y-111604284D01*
X146579921Y-111721267D01*
X146771049Y-111788145D01*
X146834397Y-111810312D01*
X146834405Y-111810315D01*
X146834408Y-111810315D01*
X146834409Y-111810316D01*
X147097268Y-111870312D01*
X147365187Y-111900499D01*
X147365188Y-111900500D01*
X147365191Y-111900500D01*
X147634812Y-111900500D01*
X147634812Y-111900499D01*
X147902732Y-111870312D01*
X148165591Y-111810316D01*
X148420079Y-111721267D01*
X148662997Y-111604284D01*
X148891289Y-111460838D01*
X149102085Y-111292734D01*
X149292734Y-111102085D01*
X149460838Y-110891289D01*
X149604284Y-110662997D01*
X149721267Y-110420079D01*
X149810316Y-110165591D01*
X149870312Y-109902732D01*
X149900500Y-109634809D01*
X149900500Y-109365191D01*
X149900499Y-109365186D01*
X155099500Y-109365186D01*
X155099500Y-109634813D01*
X155129686Y-109902719D01*
X155129688Y-109902731D01*
X155189684Y-110165594D01*
X155189687Y-110165602D01*
X155278734Y-110420082D01*
X155395714Y-110662994D01*
X155395716Y-110662997D01*
X155539162Y-110891289D01*
X155707266Y-111102085D01*
X155897915Y-111292734D01*
X156108711Y-111460838D01*
X156337003Y-111604284D01*
X156579921Y-111721267D01*
X156771049Y-111788145D01*
X156834397Y-111810312D01*
X156834405Y-111810315D01*
X156834408Y-111810315D01*
X156834409Y-111810316D01*
X157097268Y-111870312D01*
X157365187Y-111900499D01*
X157365188Y-111900500D01*
X157365191Y-111900500D01*
X157634812Y-111900500D01*
X157634812Y-111900499D01*
X157902732Y-111870312D01*
X158165591Y-111810316D01*
X158420079Y-111721267D01*
X158662997Y-111604284D01*
X158891289Y-111460838D01*
X159102085Y-111292734D01*
X159292734Y-111102085D01*
X159460838Y-110891289D01*
X159604284Y-110662997D01*
X159721267Y-110420079D01*
X159810316Y-110165591D01*
X159870312Y-109902732D01*
X159900500Y-109634809D01*
X159900500Y-109365191D01*
X159900499Y-109365186D01*
X165099500Y-109365186D01*
X165099500Y-109634813D01*
X165129686Y-109902719D01*
X165129688Y-109902731D01*
X165189684Y-110165594D01*
X165189687Y-110165602D01*
X165278734Y-110420082D01*
X165395714Y-110662994D01*
X165395716Y-110662997D01*
X165539162Y-110891289D01*
X165707266Y-111102085D01*
X165897915Y-111292734D01*
X166108711Y-111460838D01*
X166337003Y-111604284D01*
X166579921Y-111721267D01*
X166771049Y-111788145D01*
X166834397Y-111810312D01*
X166834405Y-111810315D01*
X166834408Y-111810315D01*
X166834409Y-111810316D01*
X167097268Y-111870312D01*
X167365187Y-111900499D01*
X167365188Y-111900500D01*
X167365191Y-111900500D01*
X167634812Y-111900500D01*
X167634812Y-111900499D01*
X167902732Y-111870312D01*
X168165591Y-111810316D01*
X168420079Y-111721267D01*
X168662997Y-111604284D01*
X168891289Y-111460838D01*
X169102085Y-111292734D01*
X169292734Y-111102085D01*
X169460838Y-110891289D01*
X169604284Y-110662997D01*
X169721267Y-110420079D01*
X169810316Y-110165591D01*
X169870312Y-109902732D01*
X169900500Y-109634809D01*
X169900500Y-109365191D01*
X169900499Y-109365186D01*
X175099500Y-109365186D01*
X175099500Y-109634813D01*
X175129686Y-109902719D01*
X175129688Y-109902731D01*
X175189684Y-110165594D01*
X175189687Y-110165602D01*
X175278734Y-110420082D01*
X175395714Y-110662994D01*
X175395716Y-110662997D01*
X175539162Y-110891289D01*
X175707266Y-111102085D01*
X175897915Y-111292734D01*
X176108711Y-111460838D01*
X176337003Y-111604284D01*
X176579921Y-111721267D01*
X176771049Y-111788145D01*
X176834397Y-111810312D01*
X176834405Y-111810315D01*
X176834408Y-111810315D01*
X176834409Y-111810316D01*
X177097268Y-111870312D01*
X177365187Y-111900499D01*
X177365188Y-111900500D01*
X177365191Y-111900500D01*
X177634812Y-111900500D01*
X177634812Y-111900499D01*
X177902732Y-111870312D01*
X178165591Y-111810316D01*
X178420079Y-111721267D01*
X178662997Y-111604284D01*
X178891289Y-111460838D01*
X179102085Y-111292734D01*
X179292734Y-111102085D01*
X179460838Y-110891289D01*
X179604284Y-110662997D01*
X179721267Y-110420079D01*
X179810316Y-110165591D01*
X179870312Y-109902732D01*
X179900500Y-109634809D01*
X179900500Y-109365191D01*
X179870312Y-109097268D01*
X179810316Y-108834409D01*
X179721267Y-108579921D01*
X179604284Y-108337003D01*
X179460838Y-108108711D01*
X179292734Y-107897915D01*
X179102085Y-107707266D01*
X178891289Y-107539162D01*
X178662997Y-107395716D01*
X178662994Y-107395714D01*
X178420082Y-107278734D01*
X178165602Y-107189687D01*
X178165594Y-107189684D01*
X177968446Y-107144687D01*
X177902732Y-107129688D01*
X177902728Y-107129687D01*
X177902719Y-107129686D01*
X177634813Y-107099500D01*
X177634809Y-107099500D01*
X177365191Y-107099500D01*
X177365186Y-107099500D01*
X177097280Y-107129686D01*
X177097268Y-107129688D01*
X176834405Y-107189684D01*
X176834397Y-107189687D01*
X176579917Y-107278734D01*
X176337005Y-107395714D01*
X176108712Y-107539161D01*
X175897915Y-107707265D01*
X175707265Y-107897915D01*
X175539161Y-108108712D01*
X175395714Y-108337005D01*
X175278734Y-108579917D01*
X175189687Y-108834397D01*
X175189684Y-108834405D01*
X175129688Y-109097268D01*
X175129686Y-109097280D01*
X175099500Y-109365186D01*
X169900499Y-109365186D01*
X169870312Y-109097268D01*
X169810316Y-108834409D01*
X169721267Y-108579921D01*
X169604284Y-108337003D01*
X169460838Y-108108711D01*
X169292734Y-107897915D01*
X169102085Y-107707266D01*
X168891289Y-107539162D01*
X168662997Y-107395716D01*
X168662994Y-107395714D01*
X168420082Y-107278734D01*
X168165602Y-107189687D01*
X168165594Y-107189684D01*
X167968446Y-107144687D01*
X167902732Y-107129688D01*
X167902728Y-107129687D01*
X167902719Y-107129686D01*
X167634813Y-107099500D01*
X167634809Y-107099500D01*
X167365191Y-107099500D01*
X167365186Y-107099500D01*
X167097280Y-107129686D01*
X167097268Y-107129688D01*
X166834405Y-107189684D01*
X166834397Y-107189687D01*
X166579917Y-107278734D01*
X166337005Y-107395714D01*
X166108712Y-107539161D01*
X165897915Y-107707265D01*
X165707265Y-107897915D01*
X165539161Y-108108712D01*
X165395714Y-108337005D01*
X165278734Y-108579917D01*
X165189687Y-108834397D01*
X165189684Y-108834405D01*
X165129688Y-109097268D01*
X165129686Y-109097280D01*
X165099500Y-109365186D01*
X159900499Y-109365186D01*
X159870312Y-109097268D01*
X159810316Y-108834409D01*
X159721267Y-108579921D01*
X159604284Y-108337003D01*
X159460838Y-108108711D01*
X159292734Y-107897915D01*
X159102085Y-107707266D01*
X158891289Y-107539162D01*
X158662997Y-107395716D01*
X158662994Y-107395714D01*
X158420082Y-107278734D01*
X158165602Y-107189687D01*
X158165594Y-107189684D01*
X157968446Y-107144687D01*
X157902732Y-107129688D01*
X157902728Y-107129687D01*
X157902719Y-107129686D01*
X157634813Y-107099500D01*
X157634809Y-107099500D01*
X157365191Y-107099500D01*
X157365186Y-107099500D01*
X157097280Y-107129686D01*
X157097268Y-107129688D01*
X156834405Y-107189684D01*
X156834397Y-107189687D01*
X156579917Y-107278734D01*
X156337005Y-107395714D01*
X156108712Y-107539161D01*
X155897915Y-107707265D01*
X155707265Y-107897915D01*
X155539161Y-108108712D01*
X155395714Y-108337005D01*
X155278734Y-108579917D01*
X155189687Y-108834397D01*
X155189684Y-108834405D01*
X155129688Y-109097268D01*
X155129686Y-109097280D01*
X155099500Y-109365186D01*
X149900499Y-109365186D01*
X149870312Y-109097268D01*
X149810316Y-108834409D01*
X149721267Y-108579921D01*
X149604284Y-108337003D01*
X149460838Y-108108711D01*
X149292734Y-107897915D01*
X149102085Y-107707266D01*
X148891289Y-107539162D01*
X148662997Y-107395716D01*
X148662994Y-107395714D01*
X148420082Y-107278734D01*
X148165602Y-107189687D01*
X148165594Y-107189684D01*
X147968446Y-107144687D01*
X147902732Y-107129688D01*
X147902728Y-107129687D01*
X147902719Y-107129686D01*
X147634813Y-107099500D01*
X147634809Y-107099500D01*
X147365191Y-107099500D01*
X147365186Y-107099500D01*
X147097280Y-107129686D01*
X147097268Y-107129688D01*
X146834405Y-107189684D01*
X146834397Y-107189687D01*
X146579917Y-107278734D01*
X146337005Y-107395714D01*
X146108712Y-107539161D01*
X145897915Y-107707265D01*
X145707265Y-107897915D01*
X145539161Y-108108712D01*
X145395714Y-108337005D01*
X145278734Y-108579917D01*
X145189687Y-108834397D01*
X145189684Y-108834405D01*
X145129688Y-109097268D01*
X145129686Y-109097280D01*
X145099500Y-109365186D01*
X124900499Y-109365186D01*
X124870312Y-109097268D01*
X124810316Y-108834409D01*
X124721267Y-108579921D01*
X124604284Y-108337003D01*
X124460838Y-108108711D01*
X124292734Y-107897915D01*
X124102085Y-107707266D01*
X123891289Y-107539162D01*
X123662997Y-107395716D01*
X123662994Y-107395714D01*
X123420082Y-107278734D01*
X123165602Y-107189687D01*
X123165594Y-107189684D01*
X122968446Y-107144687D01*
X122902732Y-107129688D01*
X122902728Y-107129687D01*
X122902719Y-107129686D01*
X122634813Y-107099500D01*
X122634809Y-107099500D01*
X122365191Y-107099500D01*
X122365186Y-107099500D01*
X122097280Y-107129686D01*
X122097268Y-107129688D01*
X121834405Y-107189684D01*
X121834397Y-107189687D01*
X121579917Y-107278734D01*
X121337005Y-107395714D01*
X121108712Y-107539161D01*
X120897915Y-107707265D01*
X120707265Y-107897915D01*
X120539161Y-108108712D01*
X120395714Y-108337005D01*
X120278734Y-108579917D01*
X120189687Y-108834397D01*
X120189684Y-108834405D01*
X120129688Y-109097268D01*
X120129686Y-109097280D01*
X120099500Y-109365186D01*
X114900499Y-109365186D01*
X114870312Y-109097268D01*
X114810316Y-108834409D01*
X114721267Y-108579921D01*
X114604284Y-108337003D01*
X114460838Y-108108711D01*
X114292734Y-107897915D01*
X114102085Y-107707266D01*
X113891289Y-107539162D01*
X113662997Y-107395716D01*
X113662994Y-107395714D01*
X113420082Y-107278734D01*
X113165602Y-107189687D01*
X113165594Y-107189684D01*
X112968446Y-107144687D01*
X112902732Y-107129688D01*
X112902728Y-107129687D01*
X112902719Y-107129686D01*
X112634813Y-107099500D01*
X112634809Y-107099500D01*
X112365191Y-107099500D01*
X112365186Y-107099500D01*
X112097280Y-107129686D01*
X112097268Y-107129688D01*
X111834405Y-107189684D01*
X111834397Y-107189687D01*
X111579917Y-107278734D01*
X111337005Y-107395714D01*
X111108712Y-107539161D01*
X110897915Y-107707265D01*
X110707265Y-107897915D01*
X110539161Y-108108712D01*
X110395714Y-108337005D01*
X110278734Y-108579917D01*
X110189687Y-108834397D01*
X110189684Y-108834405D01*
X110129688Y-109097268D01*
X110129686Y-109097280D01*
X110099500Y-109365186D01*
X104900499Y-109365186D01*
X104870312Y-109097268D01*
X104810316Y-108834409D01*
X104721267Y-108579921D01*
X104604284Y-108337003D01*
X104460838Y-108108711D01*
X104292734Y-107897915D01*
X104102085Y-107707266D01*
X103891289Y-107539162D01*
X103662997Y-107395716D01*
X103662994Y-107395714D01*
X103420082Y-107278734D01*
X103165602Y-107189687D01*
X103165594Y-107189684D01*
X102968446Y-107144687D01*
X102902732Y-107129688D01*
X102902728Y-107129687D01*
X102902719Y-107129686D01*
X102634813Y-107099500D01*
X102634809Y-107099500D01*
X102365191Y-107099500D01*
X102365186Y-107099500D01*
X102097280Y-107129686D01*
X102097268Y-107129688D01*
X101834405Y-107189684D01*
X101834397Y-107189687D01*
X101579917Y-107278734D01*
X101337005Y-107395714D01*
X101108712Y-107539161D01*
X100897915Y-107707265D01*
X100707265Y-107897915D01*
X100539161Y-108108712D01*
X100395714Y-108337005D01*
X100278734Y-108579917D01*
X100189687Y-108834397D01*
X100189684Y-108834405D01*
X100129688Y-109097268D01*
X100129686Y-109097280D01*
X100099500Y-109365186D01*
X94900499Y-109365186D01*
X94870312Y-109097268D01*
X94810316Y-108834409D01*
X94721267Y-108579921D01*
X94604284Y-108337003D01*
X94460838Y-108108711D01*
X94292734Y-107897915D01*
X94102085Y-107707266D01*
X93891289Y-107539162D01*
X93662997Y-107395716D01*
X93662994Y-107395714D01*
X93420082Y-107278734D01*
X93165602Y-107189687D01*
X93165594Y-107189684D01*
X92968446Y-107144687D01*
X92902732Y-107129688D01*
X92902728Y-107129687D01*
X92902719Y-107129686D01*
X92634813Y-107099500D01*
X92634809Y-107099500D01*
X92365191Y-107099500D01*
X92365186Y-107099500D01*
X92097280Y-107129686D01*
X92097268Y-107129688D01*
X91834405Y-107189684D01*
X91834397Y-107189687D01*
X91579917Y-107278734D01*
X91337005Y-107395714D01*
X91108712Y-107539161D01*
X90897915Y-107707265D01*
X90707265Y-107897915D01*
X90539161Y-108108712D01*
X90395714Y-108337005D01*
X90278734Y-108579917D01*
X90189687Y-108834397D01*
X90189684Y-108834405D01*
X90129688Y-109097268D01*
X90129686Y-109097280D01*
X90099500Y-109365186D01*
X84900499Y-109365186D01*
X84870312Y-109097268D01*
X84810316Y-108834409D01*
X84721267Y-108579921D01*
X84604284Y-108337003D01*
X84460838Y-108108711D01*
X84292734Y-107897915D01*
X84102085Y-107707266D01*
X83891289Y-107539162D01*
X83662997Y-107395716D01*
X83662994Y-107395714D01*
X83420082Y-107278734D01*
X83165602Y-107189687D01*
X83165594Y-107189684D01*
X82968446Y-107144687D01*
X82902732Y-107129688D01*
X82902728Y-107129687D01*
X82902719Y-107129686D01*
X82634813Y-107099500D01*
X82634809Y-107099500D01*
X82365191Y-107099500D01*
X82365186Y-107099500D01*
X82097280Y-107129686D01*
X82097268Y-107129688D01*
X81834405Y-107189684D01*
X81834397Y-107189687D01*
X81579917Y-107278734D01*
X81337005Y-107395714D01*
X81108712Y-107539161D01*
X80897915Y-107707265D01*
X80707265Y-107897915D01*
X80539161Y-108108712D01*
X80395714Y-108337005D01*
X80278734Y-108579917D01*
X80189687Y-108834397D01*
X80189684Y-108834405D01*
X80129688Y-109097268D01*
X80129686Y-109097280D01*
X80099500Y-109365186D01*
X69050500Y-109365186D01*
X69050500Y-97365186D01*
X80099500Y-97365186D01*
X80099500Y-97634813D01*
X80129686Y-97902719D01*
X80129688Y-97902731D01*
X80189684Y-98165594D01*
X80189687Y-98165602D01*
X80278734Y-98420082D01*
X80395714Y-98662994D01*
X80395716Y-98662997D01*
X80539162Y-98891289D01*
X80707266Y-99102085D01*
X80897915Y-99292734D01*
X81108711Y-99460838D01*
X81337003Y-99604284D01*
X81579921Y-99721267D01*
X81771049Y-99788145D01*
X81834397Y-99810312D01*
X81834405Y-99810315D01*
X81834408Y-99810315D01*
X81834409Y-99810316D01*
X82097268Y-99870312D01*
X82365187Y-99900499D01*
X82365188Y-99900500D01*
X82365191Y-99900500D01*
X82634812Y-99900500D01*
X82634812Y-99900499D01*
X82902732Y-99870312D01*
X83165591Y-99810316D01*
X83420079Y-99721267D01*
X83662997Y-99604284D01*
X83891289Y-99460838D01*
X84102085Y-99292734D01*
X84292734Y-99102085D01*
X84460838Y-98891289D01*
X84604284Y-98662997D01*
X84721267Y-98420079D01*
X84810316Y-98165591D01*
X84870312Y-97902732D01*
X84900500Y-97634809D01*
X84900500Y-97365191D01*
X84900499Y-97365186D01*
X90099500Y-97365186D01*
X90099500Y-97634813D01*
X90129686Y-97902719D01*
X90129688Y-97902731D01*
X90189684Y-98165594D01*
X90189687Y-98165602D01*
X90278734Y-98420082D01*
X90395714Y-98662994D01*
X90395716Y-98662997D01*
X90539162Y-98891289D01*
X90707266Y-99102085D01*
X90897915Y-99292734D01*
X91108711Y-99460838D01*
X91337003Y-99604284D01*
X91579921Y-99721267D01*
X91771049Y-99788145D01*
X91834397Y-99810312D01*
X91834405Y-99810315D01*
X91834408Y-99810315D01*
X91834409Y-99810316D01*
X92097268Y-99870312D01*
X92365187Y-99900499D01*
X92365188Y-99900500D01*
X92365191Y-99900500D01*
X92634812Y-99900500D01*
X92634812Y-99900499D01*
X92902732Y-99870312D01*
X93165591Y-99810316D01*
X93420079Y-99721267D01*
X93662997Y-99604284D01*
X93891289Y-99460838D01*
X94102085Y-99292734D01*
X94292734Y-99102085D01*
X94460838Y-98891289D01*
X94604284Y-98662997D01*
X94721267Y-98420079D01*
X94810316Y-98165591D01*
X94870312Y-97902732D01*
X94900500Y-97634809D01*
X94900500Y-97365191D01*
X94900499Y-97365186D01*
X100099500Y-97365186D01*
X100099500Y-97634813D01*
X100129686Y-97902719D01*
X100129688Y-97902731D01*
X100189684Y-98165594D01*
X100189687Y-98165602D01*
X100278734Y-98420082D01*
X100395714Y-98662994D01*
X100395716Y-98662997D01*
X100539162Y-98891289D01*
X100707266Y-99102085D01*
X100897915Y-99292734D01*
X101108711Y-99460838D01*
X101337003Y-99604284D01*
X101579921Y-99721267D01*
X101771049Y-99788145D01*
X101834397Y-99810312D01*
X101834405Y-99810315D01*
X101834408Y-99810315D01*
X101834409Y-99810316D01*
X102097268Y-99870312D01*
X102365187Y-99900499D01*
X102365188Y-99900500D01*
X102365191Y-99900500D01*
X102634812Y-99900500D01*
X102634812Y-99900499D01*
X102902732Y-99870312D01*
X103165591Y-99810316D01*
X103420079Y-99721267D01*
X103662997Y-99604284D01*
X103891289Y-99460838D01*
X104102085Y-99292734D01*
X104292734Y-99102085D01*
X104460838Y-98891289D01*
X104604284Y-98662997D01*
X104721267Y-98420079D01*
X104810316Y-98165591D01*
X104870312Y-97902732D01*
X104900500Y-97634809D01*
X104900500Y-97365191D01*
X104900499Y-97365186D01*
X110099500Y-97365186D01*
X110099500Y-97634813D01*
X110129686Y-97902719D01*
X110129688Y-97902731D01*
X110189684Y-98165594D01*
X110189687Y-98165602D01*
X110278734Y-98420082D01*
X110395714Y-98662994D01*
X110395716Y-98662997D01*
X110539162Y-98891289D01*
X110707266Y-99102085D01*
X110897915Y-99292734D01*
X111108711Y-99460838D01*
X111337003Y-99604284D01*
X111579921Y-99721267D01*
X111771049Y-99788145D01*
X111834397Y-99810312D01*
X111834405Y-99810315D01*
X111834408Y-99810315D01*
X111834409Y-99810316D01*
X112097268Y-99870312D01*
X112365187Y-99900499D01*
X112365188Y-99900500D01*
X112365191Y-99900500D01*
X112634812Y-99900500D01*
X112634812Y-99900499D01*
X112902732Y-99870312D01*
X113165591Y-99810316D01*
X113420079Y-99721267D01*
X113662997Y-99604284D01*
X113891289Y-99460838D01*
X114102085Y-99292734D01*
X114292734Y-99102085D01*
X114460838Y-98891289D01*
X114604284Y-98662997D01*
X114721267Y-98420079D01*
X114810316Y-98165591D01*
X114870312Y-97902732D01*
X114900500Y-97634809D01*
X114900500Y-97365191D01*
X114900499Y-97365186D01*
X120099500Y-97365186D01*
X120099500Y-97634813D01*
X120129686Y-97902719D01*
X120129688Y-97902731D01*
X120189684Y-98165594D01*
X120189687Y-98165602D01*
X120278734Y-98420082D01*
X120395714Y-98662994D01*
X120395716Y-98662997D01*
X120539162Y-98891289D01*
X120707266Y-99102085D01*
X120897915Y-99292734D01*
X121108711Y-99460838D01*
X121337003Y-99604284D01*
X121579921Y-99721267D01*
X121771049Y-99788145D01*
X121834397Y-99810312D01*
X121834405Y-99810315D01*
X121834408Y-99810315D01*
X121834409Y-99810316D01*
X122097268Y-99870312D01*
X122365187Y-99900499D01*
X122365188Y-99900500D01*
X122365191Y-99900500D01*
X122634812Y-99900500D01*
X122634812Y-99900499D01*
X122902732Y-99870312D01*
X123165591Y-99810316D01*
X123420079Y-99721267D01*
X123662997Y-99604284D01*
X123891289Y-99460838D01*
X124102085Y-99292734D01*
X124292734Y-99102085D01*
X124460838Y-98891289D01*
X124604284Y-98662997D01*
X124721267Y-98420079D01*
X124810316Y-98165591D01*
X124870312Y-97902732D01*
X124900500Y-97634809D01*
X124900500Y-97365191D01*
X124870312Y-97097268D01*
X124810316Y-96834409D01*
X124721267Y-96579921D01*
X124604284Y-96337003D01*
X124460838Y-96108711D01*
X124292734Y-95897915D01*
X124102085Y-95707266D01*
X123891289Y-95539162D01*
X123662997Y-95395716D01*
X123662994Y-95395714D01*
X123420082Y-95278734D01*
X123165602Y-95189687D01*
X123165594Y-95189684D01*
X122968446Y-95144687D01*
X122902732Y-95129688D01*
X122902728Y-95129687D01*
X122902719Y-95129686D01*
X122634813Y-95099500D01*
X122634809Y-95099500D01*
X122365191Y-95099500D01*
X122365186Y-95099500D01*
X122097280Y-95129686D01*
X122097268Y-95129688D01*
X121834405Y-95189684D01*
X121834397Y-95189687D01*
X121579917Y-95278734D01*
X121337005Y-95395714D01*
X121108712Y-95539161D01*
X120897915Y-95707265D01*
X120707265Y-95897915D01*
X120539161Y-96108712D01*
X120395714Y-96337005D01*
X120278734Y-96579917D01*
X120189687Y-96834397D01*
X120189684Y-96834405D01*
X120129688Y-97097268D01*
X120129686Y-97097280D01*
X120099500Y-97365186D01*
X114900499Y-97365186D01*
X114870312Y-97097268D01*
X114810316Y-96834409D01*
X114721267Y-96579921D01*
X114604284Y-96337003D01*
X114460838Y-96108711D01*
X114292734Y-95897915D01*
X114102085Y-95707266D01*
X113891289Y-95539162D01*
X113662997Y-95395716D01*
X113662994Y-95395714D01*
X113420082Y-95278734D01*
X113165602Y-95189687D01*
X113165594Y-95189684D01*
X112968446Y-95144687D01*
X112902732Y-95129688D01*
X112902728Y-95129687D01*
X112902719Y-95129686D01*
X112634813Y-95099500D01*
X112634809Y-95099500D01*
X112365191Y-95099500D01*
X112365186Y-95099500D01*
X112097280Y-95129686D01*
X112097268Y-95129688D01*
X111834405Y-95189684D01*
X111834397Y-95189687D01*
X111579917Y-95278734D01*
X111337005Y-95395714D01*
X111108712Y-95539161D01*
X110897915Y-95707265D01*
X110707265Y-95897915D01*
X110539161Y-96108712D01*
X110395714Y-96337005D01*
X110278734Y-96579917D01*
X110189687Y-96834397D01*
X110189684Y-96834405D01*
X110129688Y-97097268D01*
X110129686Y-97097280D01*
X110099500Y-97365186D01*
X104900499Y-97365186D01*
X104870312Y-97097268D01*
X104810316Y-96834409D01*
X104721267Y-96579921D01*
X104604284Y-96337003D01*
X104460838Y-96108711D01*
X104292734Y-95897915D01*
X104102085Y-95707266D01*
X103891289Y-95539162D01*
X103662997Y-95395716D01*
X103662994Y-95395714D01*
X103420082Y-95278734D01*
X103165602Y-95189687D01*
X103165594Y-95189684D01*
X102968446Y-95144687D01*
X102902732Y-95129688D01*
X102902728Y-95129687D01*
X102902719Y-95129686D01*
X102634813Y-95099500D01*
X102634809Y-95099500D01*
X102365191Y-95099500D01*
X102365186Y-95099500D01*
X102097280Y-95129686D01*
X102097268Y-95129688D01*
X101834405Y-95189684D01*
X101834397Y-95189687D01*
X101579917Y-95278734D01*
X101337005Y-95395714D01*
X101108712Y-95539161D01*
X100897915Y-95707265D01*
X100707265Y-95897915D01*
X100539161Y-96108712D01*
X100395714Y-96337005D01*
X100278734Y-96579917D01*
X100189687Y-96834397D01*
X100189684Y-96834405D01*
X100129688Y-97097268D01*
X100129686Y-97097280D01*
X100099500Y-97365186D01*
X94900499Y-97365186D01*
X94870312Y-97097268D01*
X94810316Y-96834409D01*
X94721267Y-96579921D01*
X94604284Y-96337003D01*
X94460838Y-96108711D01*
X94292734Y-95897915D01*
X94102085Y-95707266D01*
X93891289Y-95539162D01*
X93662997Y-95395716D01*
X93662994Y-95395714D01*
X93420082Y-95278734D01*
X93165602Y-95189687D01*
X93165594Y-95189684D01*
X92968446Y-95144687D01*
X92902732Y-95129688D01*
X92902728Y-95129687D01*
X92902719Y-95129686D01*
X92634813Y-95099500D01*
X92634809Y-95099500D01*
X92365191Y-95099500D01*
X92365186Y-95099500D01*
X92097280Y-95129686D01*
X92097268Y-95129688D01*
X91834405Y-95189684D01*
X91834397Y-95189687D01*
X91579917Y-95278734D01*
X91337005Y-95395714D01*
X91108712Y-95539161D01*
X90897915Y-95707265D01*
X90707265Y-95897915D01*
X90539161Y-96108712D01*
X90395714Y-96337005D01*
X90278734Y-96579917D01*
X90189687Y-96834397D01*
X90189684Y-96834405D01*
X90129688Y-97097268D01*
X90129686Y-97097280D01*
X90099500Y-97365186D01*
X84900499Y-97365186D01*
X84870312Y-97097268D01*
X84810316Y-96834409D01*
X84721267Y-96579921D01*
X84604284Y-96337003D01*
X84460838Y-96108711D01*
X84292734Y-95897915D01*
X84102085Y-95707266D01*
X83891289Y-95539162D01*
X83662997Y-95395716D01*
X83662994Y-95395714D01*
X83420082Y-95278734D01*
X83165602Y-95189687D01*
X83165594Y-95189684D01*
X82968446Y-95144687D01*
X82902732Y-95129688D01*
X82902728Y-95129687D01*
X82902719Y-95129686D01*
X82634813Y-95099500D01*
X82634809Y-95099500D01*
X82365191Y-95099500D01*
X82365186Y-95099500D01*
X82097280Y-95129686D01*
X82097268Y-95129688D01*
X81834405Y-95189684D01*
X81834397Y-95189687D01*
X81579917Y-95278734D01*
X81337005Y-95395714D01*
X81108712Y-95539161D01*
X80897915Y-95707265D01*
X80707265Y-95897915D01*
X80539161Y-96108712D01*
X80395714Y-96337005D01*
X80278734Y-96579917D01*
X80189687Y-96834397D01*
X80189684Y-96834405D01*
X80129688Y-97097268D01*
X80129686Y-97097280D01*
X80099500Y-97365186D01*
X69050500Y-97365186D01*
X69050500Y-85365186D01*
X80099500Y-85365186D01*
X80099500Y-85634813D01*
X80129686Y-85902719D01*
X80129688Y-85902731D01*
X80189684Y-86165594D01*
X80189687Y-86165602D01*
X80278734Y-86420082D01*
X80395714Y-86662994D01*
X80395716Y-86662997D01*
X80539162Y-86891289D01*
X80707266Y-87102085D01*
X80897915Y-87292734D01*
X81108711Y-87460838D01*
X81337003Y-87604284D01*
X81579921Y-87721267D01*
X81771049Y-87788145D01*
X81834397Y-87810312D01*
X81834405Y-87810315D01*
X81834408Y-87810315D01*
X81834409Y-87810316D01*
X82097268Y-87870312D01*
X82365187Y-87900499D01*
X82365188Y-87900500D01*
X82365191Y-87900500D01*
X82634812Y-87900500D01*
X82634812Y-87900499D01*
X82902732Y-87870312D01*
X83165591Y-87810316D01*
X83420079Y-87721267D01*
X83662997Y-87604284D01*
X83891289Y-87460838D01*
X84102085Y-87292734D01*
X84292734Y-87102085D01*
X84460838Y-86891289D01*
X84604284Y-86662997D01*
X84721267Y-86420079D01*
X84810316Y-86165591D01*
X84870312Y-85902732D01*
X84900500Y-85634809D01*
X84900500Y-85365191D01*
X84900499Y-85365186D01*
X90099500Y-85365186D01*
X90099500Y-85634813D01*
X90129686Y-85902719D01*
X90129688Y-85902731D01*
X90189684Y-86165594D01*
X90189687Y-86165602D01*
X90278734Y-86420082D01*
X90395714Y-86662994D01*
X90395716Y-86662997D01*
X90539162Y-86891289D01*
X90707266Y-87102085D01*
X90897915Y-87292734D01*
X91108711Y-87460838D01*
X91337003Y-87604284D01*
X91579921Y-87721267D01*
X91771049Y-87788145D01*
X91834397Y-87810312D01*
X91834405Y-87810315D01*
X91834408Y-87810315D01*
X91834409Y-87810316D01*
X92097268Y-87870312D01*
X92365187Y-87900499D01*
X92365188Y-87900500D01*
X92365191Y-87900500D01*
X92634812Y-87900500D01*
X92634812Y-87900499D01*
X92902732Y-87870312D01*
X93165591Y-87810316D01*
X93420079Y-87721267D01*
X93662997Y-87604284D01*
X93891289Y-87460838D01*
X94102085Y-87292734D01*
X94292734Y-87102085D01*
X94460838Y-86891289D01*
X94604284Y-86662997D01*
X94721267Y-86420079D01*
X94810316Y-86165591D01*
X94870312Y-85902732D01*
X94900500Y-85634809D01*
X94900500Y-85365191D01*
X94900499Y-85365186D01*
X100099500Y-85365186D01*
X100099500Y-85634813D01*
X100129686Y-85902719D01*
X100129688Y-85902731D01*
X100189684Y-86165594D01*
X100189687Y-86165602D01*
X100278734Y-86420082D01*
X100395714Y-86662994D01*
X100395716Y-86662997D01*
X100539162Y-86891289D01*
X100707266Y-87102085D01*
X100897915Y-87292734D01*
X101108711Y-87460838D01*
X101337003Y-87604284D01*
X101579921Y-87721267D01*
X101771049Y-87788145D01*
X101834397Y-87810312D01*
X101834405Y-87810315D01*
X101834408Y-87810315D01*
X101834409Y-87810316D01*
X102097268Y-87870312D01*
X102365187Y-87900499D01*
X102365188Y-87900500D01*
X102365191Y-87900500D01*
X102634812Y-87900500D01*
X102634812Y-87900499D01*
X102902732Y-87870312D01*
X103165591Y-87810316D01*
X103420079Y-87721267D01*
X103662997Y-87604284D01*
X103891289Y-87460838D01*
X104102085Y-87292734D01*
X104292734Y-87102085D01*
X104460838Y-86891289D01*
X104604284Y-86662997D01*
X104721267Y-86420079D01*
X104810316Y-86165591D01*
X104870312Y-85902732D01*
X104900500Y-85634809D01*
X104900500Y-85365191D01*
X104900499Y-85365186D01*
X110099500Y-85365186D01*
X110099500Y-85634813D01*
X110129686Y-85902719D01*
X110129688Y-85902731D01*
X110189684Y-86165594D01*
X110189687Y-86165602D01*
X110278734Y-86420082D01*
X110395714Y-86662994D01*
X110395716Y-86662997D01*
X110539162Y-86891289D01*
X110707266Y-87102085D01*
X110897915Y-87292734D01*
X111108711Y-87460838D01*
X111337003Y-87604284D01*
X111579921Y-87721267D01*
X111771049Y-87788145D01*
X111834397Y-87810312D01*
X111834405Y-87810315D01*
X111834408Y-87810315D01*
X111834409Y-87810316D01*
X112097268Y-87870312D01*
X112365187Y-87900499D01*
X112365188Y-87900500D01*
X112365191Y-87900500D01*
X112634812Y-87900500D01*
X112634812Y-87900499D01*
X112902732Y-87870312D01*
X113165591Y-87810316D01*
X113420079Y-87721267D01*
X113662997Y-87604284D01*
X113891289Y-87460838D01*
X114102085Y-87292734D01*
X114292734Y-87102085D01*
X114460838Y-86891289D01*
X114604284Y-86662997D01*
X114721267Y-86420079D01*
X114810316Y-86165591D01*
X114870312Y-85902732D01*
X114900500Y-85634809D01*
X114900500Y-85365191D01*
X114900499Y-85365186D01*
X120099500Y-85365186D01*
X120099500Y-85634813D01*
X120129686Y-85902719D01*
X120129688Y-85902731D01*
X120189684Y-86165594D01*
X120189687Y-86165602D01*
X120278734Y-86420082D01*
X120395714Y-86662994D01*
X120395716Y-86662997D01*
X120539162Y-86891289D01*
X120707266Y-87102085D01*
X120897915Y-87292734D01*
X121108711Y-87460838D01*
X121337003Y-87604284D01*
X121579921Y-87721267D01*
X121771049Y-87788145D01*
X121834397Y-87810312D01*
X121834405Y-87810315D01*
X121834408Y-87810315D01*
X121834409Y-87810316D01*
X122097268Y-87870312D01*
X122365187Y-87900499D01*
X122365188Y-87900500D01*
X122365191Y-87900500D01*
X122634812Y-87900500D01*
X122634812Y-87900499D01*
X122902732Y-87870312D01*
X123165591Y-87810316D01*
X123420079Y-87721267D01*
X123662997Y-87604284D01*
X123891289Y-87460838D01*
X124102085Y-87292734D01*
X124292734Y-87102085D01*
X124460838Y-86891289D01*
X124604284Y-86662997D01*
X124721267Y-86420079D01*
X124810316Y-86165591D01*
X124870312Y-85902732D01*
X124887524Y-85749975D01*
X124897385Y-85662466D01*
X146499500Y-85662466D01*
X146499500Y-85669152D01*
X146499500Y-99774865D01*
X146499502Y-99774874D01*
X146499502Y-99837532D01*
X146529901Y-100009936D01*
X146536592Y-100028320D01*
X146536593Y-100028322D01*
X146539836Y-100037235D01*
X146540592Y-100041032D01*
X146545753Y-100053493D01*
X146546683Y-100056047D01*
X146546685Y-100056051D01*
X146589777Y-100174445D01*
X146607213Y-100204646D01*
X146611282Y-100211693D01*
X146615804Y-100222611D01*
X146628903Y-100242215D01*
X146630937Y-100245738D01*
X146677304Y-100326046D01*
X146677305Y-100326047D01*
X146677306Y-100326049D01*
X146677309Y-100326053D01*
X146699859Y-100352927D01*
X146710331Y-100365408D01*
X146714686Y-100370598D01*
X146724996Y-100386028D01*
X146741383Y-100402415D01*
X146744856Y-100406554D01*
X146744866Y-100406565D01*
X146789838Y-100460161D01*
X146843435Y-100505134D01*
X146843434Y-100505134D01*
X146847579Y-100508612D01*
X146863970Y-100525003D01*
X146879403Y-100535315D01*
X146923945Y-100572690D01*
X147007765Y-100621083D01*
X147027387Y-100634195D01*
X147038311Y-100638719D01*
X147075556Y-100660223D01*
X147075558Y-100660224D01*
X147075561Y-100660225D01*
X147196486Y-100704238D01*
X147208966Y-100709408D01*
X147212765Y-100710163D01*
X147221680Y-100713408D01*
X147240062Y-100720099D01*
X147287020Y-100728378D01*
X147412468Y-100750498D01*
X147499793Y-100750498D01*
X177448636Y-100750498D01*
X177448643Y-100750500D01*
X177500000Y-100750500D01*
X177587531Y-100750500D01*
X177587533Y-100750500D01*
X177759938Y-100720100D01*
X177787259Y-100710155D01*
X177791033Y-100709406D01*
X177803422Y-100704273D01*
X177924445Y-100660225D01*
X177961718Y-100638704D01*
X177972612Y-100634193D01*
X177992172Y-100621122D01*
X178076056Y-100572692D01*
X178120631Y-100535288D01*
X178136028Y-100525002D01*
X178152382Y-100508646D01*
X178210164Y-100460162D01*
X178258645Y-100402383D01*
X178275003Y-100386027D01*
X178285291Y-100370627D01*
X178322693Y-100326054D01*
X178371123Y-100242169D01*
X178384194Y-100222610D01*
X178388706Y-100211715D01*
X178410225Y-100174444D01*
X178454279Y-100053404D01*
X178459406Y-100041031D01*
X178460154Y-100037264D01*
X178470101Y-100009936D01*
X178500500Y-99837531D01*
X178500500Y-99749998D01*
X178500500Y-99749498D01*
X178500500Y-86673607D01*
X181499500Y-86673607D01*
X181499500Y-86682151D01*
X181499500Y-99586398D01*
X181524594Y-99696341D01*
X181524598Y-99696353D01*
X181529818Y-99707193D01*
X181534860Y-99717664D01*
X181536067Y-99722167D01*
X181541863Y-99732207D01*
X181543878Y-99736390D01*
X181573532Y-99797966D01*
X181590552Y-99819310D01*
X181596350Y-99826580D01*
X181601612Y-99835694D01*
X181611522Y-99845604D01*
X181615859Y-99851042D01*
X181615863Y-99851047D01*
X181643850Y-99886142D01*
X181643851Y-99886143D01*
X181643852Y-99886144D01*
X181643854Y-99886146D01*
X181678951Y-99914135D01*
X181678950Y-99914135D01*
X181684395Y-99918477D01*
X181694306Y-99928388D01*
X181703425Y-99933653D01*
X181732033Y-99956467D01*
X181797785Y-99988132D01*
X181807833Y-99993933D01*
X181812333Y-99995138D01*
X181833649Y-100005403D01*
X181943607Y-100030500D01*
X181943609Y-100030500D01*
X184356391Y-100030500D01*
X184356393Y-100030500D01*
X184466351Y-100005403D01*
X184487662Y-99995139D01*
X184492167Y-99993933D01*
X184502213Y-99988132D01*
X184567967Y-99956467D01*
X184596577Y-99933650D01*
X184605694Y-99928388D01*
X184615601Y-99918479D01*
X184656146Y-99886146D01*
X184688479Y-99845601D01*
X184698388Y-99835694D01*
X184703650Y-99826577D01*
X184726467Y-99797967D01*
X184758136Y-99732207D01*
X184763933Y-99722167D01*
X184765139Y-99717662D01*
X184775403Y-99696351D01*
X184800500Y-99586393D01*
X184800500Y-99530000D01*
X184800500Y-99529500D01*
X184800500Y-86729793D01*
X184800500Y-86673607D01*
X184775403Y-86563649D01*
X184765139Y-86542337D01*
X184763933Y-86537833D01*
X184758128Y-86527778D01*
X184726467Y-86462033D01*
X184703653Y-86433425D01*
X184698388Y-86424306D01*
X184688477Y-86414395D01*
X184684139Y-86408955D01*
X184684135Y-86408951D01*
X184656146Y-86373854D01*
X184656144Y-86373852D01*
X184656143Y-86373851D01*
X184656142Y-86373850D01*
X184621047Y-86345863D01*
X184621045Y-86345861D01*
X184615602Y-86341520D01*
X184605694Y-86331612D01*
X184596580Y-86326350D01*
X184589310Y-86320552D01*
X184567966Y-86303532D01*
X184567967Y-86303532D01*
X184506392Y-86273879D01*
X184502207Y-86271864D01*
X184492167Y-86266067D01*
X184487664Y-86264860D01*
X184477193Y-86259818D01*
X184466353Y-86254598D01*
X184466351Y-86254597D01*
X184466347Y-86254596D01*
X184466341Y-86254594D01*
X184356398Y-86229500D01*
X184356393Y-86229500D01*
X184300207Y-86229500D01*
X182000500Y-86229500D01*
X182000000Y-86229500D01*
X181943607Y-86229500D01*
X181943601Y-86229500D01*
X181833649Y-86254596D01*
X181822799Y-86259821D01*
X181822798Y-86259820D01*
X181812326Y-86264862D01*
X181807833Y-86266067D01*
X181797805Y-86271856D01*
X181793612Y-86273876D01*
X181793602Y-86273882D01*
X181732031Y-86303534D01*
X181732027Y-86303536D01*
X181710684Y-86320557D01*
X181710682Y-86320559D01*
X181703417Y-86326351D01*
X181694306Y-86331612D01*
X181684411Y-86341506D01*
X181678958Y-86345855D01*
X181678955Y-86345859D01*
X181643853Y-86373853D01*
X181615859Y-86408955D01*
X181611513Y-86414404D01*
X181601612Y-86424306D01*
X181596350Y-86433419D01*
X181590559Y-86440682D01*
X181590557Y-86440682D01*
X181590557Y-86440684D01*
X181573536Y-86462027D01*
X181573534Y-86462031D01*
X181543882Y-86523602D01*
X181539558Y-86531784D01*
X181536254Y-86537507D01*
X181536253Y-86537510D01*
X181536067Y-86537833D01*
X181534859Y-86542338D01*
X181524597Y-86563649D01*
X181499500Y-86673607D01*
X178500500Y-86673607D01*
X178500500Y-85801362D01*
X178500502Y-85801355D01*
X178500502Y-85662468D01*
X178500501Y-85662463D01*
X178495626Y-85634813D01*
X178470102Y-85490060D01*
X178467722Y-85483522D01*
X178462683Y-85469675D01*
X178459801Y-85461758D01*
X178459255Y-85459011D01*
X178455514Y-85449979D01*
X178454590Y-85447441D01*
X178454589Y-85447439D01*
X178454560Y-85447359D01*
X178410226Y-85325553D01*
X178392163Y-85294267D01*
X178392163Y-85294266D01*
X178388098Y-85287226D01*
X178384054Y-85277462D01*
X178372334Y-85259922D01*
X178370299Y-85256397D01*
X178322694Y-85173944D01*
X178322693Y-85173942D01*
X178313365Y-85162825D01*
X178288707Y-85133438D01*
X178288707Y-85133437D01*
X178284352Y-85128247D01*
X178274880Y-85114071D01*
X178259815Y-85099006D01*
X178256336Y-85094860D01*
X178256335Y-85094859D01*
X178210170Y-85039841D01*
X178210162Y-85039833D01*
X178155142Y-84993666D01*
X178155141Y-84993665D01*
X178150996Y-84990187D01*
X178135928Y-84975119D01*
X178121745Y-84965642D01*
X178116555Y-84961287D01*
X178116554Y-84961286D01*
X178076056Y-84927305D01*
X178076054Y-84927304D01*
X177993600Y-84879699D01*
X177990079Y-84877666D01*
X177972537Y-84865945D01*
X177962769Y-84861899D01*
X177955725Y-84857832D01*
X177955724Y-84857831D01*
X177924451Y-84839776D01*
X177924447Y-84839774D01*
X177924445Y-84839773D01*
X177924439Y-84839771D01*
X177924435Y-84839769D01*
X177802556Y-84795407D01*
X177802556Y-84795408D01*
X177800008Y-84794480D01*
X177790987Y-84790744D01*
X177788239Y-84790197D01*
X177780314Y-84787313D01*
X177780313Y-84787312D01*
X177759935Y-84779896D01*
X177587534Y-84749498D01*
X177587532Y-84749498D01*
X177500207Y-84749498D01*
X147499793Y-84749498D01*
X147475133Y-84749498D01*
X147475123Y-84749500D01*
X147412465Y-84749500D01*
X147240070Y-84779897D01*
X147240065Y-84779898D01*
X147240063Y-84779899D01*
X147234019Y-84782098D01*
X147219752Y-84787291D01*
X147211783Y-84790190D01*
X147209013Y-84790742D01*
X147199925Y-84794506D01*
X147197354Y-84795442D01*
X147197352Y-84795442D01*
X147075565Y-84839771D01*
X147075549Y-84839778D01*
X147044300Y-84857817D01*
X147044301Y-84857818D01*
X147037252Y-84861887D01*
X147027462Y-84865943D01*
X147009869Y-84877697D01*
X147006343Y-84879734D01*
X147006341Y-84879735D01*
X146923946Y-84927305D01*
X146923943Y-84927307D01*
X146883470Y-84961268D01*
X146878278Y-84965623D01*
X146864071Y-84975117D01*
X146848986Y-84990201D01*
X146844830Y-84993689D01*
X146844824Y-84993696D01*
X146789838Y-85039836D01*
X146743699Y-85094819D01*
X146743700Y-85094820D01*
X146740216Y-85098971D01*
X146725118Y-85114070D01*
X146715621Y-85128283D01*
X146711268Y-85133471D01*
X146711266Y-85133472D01*
X146677308Y-85173942D01*
X146677307Y-85173944D01*
X146629730Y-85256346D01*
X146629731Y-85256347D01*
X146627691Y-85259879D01*
X146615944Y-85277461D01*
X146611888Y-85287252D01*
X146607824Y-85294292D01*
X146607822Y-85294293D01*
X146589778Y-85325548D01*
X146589776Y-85325551D01*
X146545440Y-85447359D01*
X146543487Y-85452383D01*
X146541065Y-85458231D01*
X146541064Y-85458236D01*
X146540743Y-85459011D01*
X146540190Y-85461787D01*
X146529900Y-85490061D01*
X146499500Y-85662466D01*
X124897385Y-85662466D01*
X124899559Y-85643168D01*
X124900500Y-85634809D01*
X124900500Y-85365188D01*
X124900499Y-85365186D01*
X124896033Y-85325553D01*
X124870312Y-85097268D01*
X124810316Y-84834409D01*
X124721267Y-84579921D01*
X124604284Y-84337003D01*
X124460838Y-84108711D01*
X124292734Y-83897915D01*
X124102085Y-83707266D01*
X123891289Y-83539162D01*
X123662997Y-83395716D01*
X123662994Y-83395714D01*
X123420082Y-83278734D01*
X123165602Y-83189687D01*
X123165594Y-83189684D01*
X122968446Y-83144687D01*
X122902732Y-83129688D01*
X122902728Y-83129687D01*
X122902719Y-83129686D01*
X122634813Y-83099500D01*
X122634809Y-83099500D01*
X122365191Y-83099500D01*
X122365186Y-83099500D01*
X122097280Y-83129686D01*
X122097268Y-83129688D01*
X121834405Y-83189684D01*
X121834397Y-83189687D01*
X121579917Y-83278734D01*
X121337005Y-83395714D01*
X121108712Y-83539161D01*
X120897915Y-83707265D01*
X120707265Y-83897915D01*
X120539161Y-84108712D01*
X120395714Y-84337005D01*
X120278734Y-84579917D01*
X120189687Y-84834397D01*
X120189684Y-84834405D01*
X120129688Y-85097268D01*
X120129686Y-85097280D01*
X120099500Y-85365186D01*
X114900499Y-85365186D01*
X114870312Y-85097268D01*
X114810316Y-84834409D01*
X114721267Y-84579921D01*
X114604284Y-84337003D01*
X114460838Y-84108711D01*
X114292734Y-83897915D01*
X114102085Y-83707266D01*
X113891289Y-83539162D01*
X113662997Y-83395716D01*
X113662994Y-83395714D01*
X113420082Y-83278734D01*
X113165602Y-83189687D01*
X113165594Y-83189684D01*
X112968446Y-83144687D01*
X112902732Y-83129688D01*
X112902728Y-83129687D01*
X112902719Y-83129686D01*
X112634813Y-83099500D01*
X112634809Y-83099500D01*
X112365191Y-83099500D01*
X112365186Y-83099500D01*
X112097280Y-83129686D01*
X112097268Y-83129688D01*
X111834405Y-83189684D01*
X111834397Y-83189687D01*
X111579917Y-83278734D01*
X111337005Y-83395714D01*
X111108712Y-83539161D01*
X110897915Y-83707265D01*
X110707265Y-83897915D01*
X110539161Y-84108712D01*
X110395714Y-84337005D01*
X110278734Y-84579917D01*
X110189687Y-84834397D01*
X110189684Y-84834405D01*
X110129688Y-85097268D01*
X110129686Y-85097280D01*
X110099500Y-85365186D01*
X104900499Y-85365186D01*
X104870312Y-85097268D01*
X104810316Y-84834409D01*
X104721267Y-84579921D01*
X104604284Y-84337003D01*
X104460838Y-84108711D01*
X104292734Y-83897915D01*
X104102085Y-83707266D01*
X103891289Y-83539162D01*
X103662997Y-83395716D01*
X103662994Y-83395714D01*
X103420082Y-83278734D01*
X103165602Y-83189687D01*
X103165594Y-83189684D01*
X102968446Y-83144687D01*
X102902732Y-83129688D01*
X102902728Y-83129687D01*
X102902719Y-83129686D01*
X102634813Y-83099500D01*
X102634809Y-83099500D01*
X102365191Y-83099500D01*
X102365186Y-83099500D01*
X102097280Y-83129686D01*
X102097268Y-83129688D01*
X101834405Y-83189684D01*
X101834397Y-83189687D01*
X101579917Y-83278734D01*
X101337005Y-83395714D01*
X101108712Y-83539161D01*
X100897915Y-83707265D01*
X100707265Y-83897915D01*
X100539161Y-84108712D01*
X100395714Y-84337005D01*
X100278734Y-84579917D01*
X100189687Y-84834397D01*
X100189684Y-84834405D01*
X100129688Y-85097268D01*
X100129686Y-85097280D01*
X100099500Y-85365186D01*
X94900499Y-85365186D01*
X94870312Y-85097268D01*
X94810316Y-84834409D01*
X94721267Y-84579921D01*
X94604284Y-84337003D01*
X94460838Y-84108711D01*
X94292734Y-83897915D01*
X94102085Y-83707266D01*
X93891289Y-83539162D01*
X93662997Y-83395716D01*
X93662994Y-83395714D01*
X93420082Y-83278734D01*
X93165602Y-83189687D01*
X93165594Y-83189684D01*
X92968446Y-83144687D01*
X92902732Y-83129688D01*
X92902728Y-83129687D01*
X92902719Y-83129686D01*
X92634813Y-83099500D01*
X92634809Y-83099500D01*
X92365191Y-83099500D01*
X92365186Y-83099500D01*
X92097280Y-83129686D01*
X92097268Y-83129688D01*
X91834405Y-83189684D01*
X91834397Y-83189687D01*
X91579917Y-83278734D01*
X91337005Y-83395714D01*
X91108712Y-83539161D01*
X90897915Y-83707265D01*
X90707265Y-83897915D01*
X90539161Y-84108712D01*
X90395714Y-84337005D01*
X90278734Y-84579917D01*
X90189687Y-84834397D01*
X90189684Y-84834405D01*
X90129688Y-85097268D01*
X90129686Y-85097280D01*
X90099500Y-85365186D01*
X84900499Y-85365186D01*
X84870312Y-85097268D01*
X84810316Y-84834409D01*
X84721267Y-84579921D01*
X84604284Y-84337003D01*
X84460838Y-84108711D01*
X84292734Y-83897915D01*
X84102085Y-83707266D01*
X83891289Y-83539162D01*
X83662997Y-83395716D01*
X83662994Y-83395714D01*
X83420082Y-83278734D01*
X83165602Y-83189687D01*
X83165594Y-83189684D01*
X82968446Y-83144687D01*
X82902732Y-83129688D01*
X82902728Y-83129687D01*
X82902719Y-83129686D01*
X82634813Y-83099500D01*
X82634809Y-83099500D01*
X82365191Y-83099500D01*
X82365186Y-83099500D01*
X82097280Y-83129686D01*
X82097268Y-83129688D01*
X81834405Y-83189684D01*
X81834397Y-83189687D01*
X81579917Y-83278734D01*
X81337005Y-83395714D01*
X81108712Y-83539161D01*
X80897915Y-83707265D01*
X80707265Y-83897915D01*
X80539161Y-84108712D01*
X80395714Y-84337005D01*
X80278734Y-84579917D01*
X80189687Y-84834397D01*
X80189684Y-84834405D01*
X80129688Y-85097268D01*
X80129686Y-85097280D01*
X80099500Y-85365186D01*
X69050500Y-85365186D01*
X69050500Y-67330491D01*
X76549500Y-67330491D01*
X76549500Y-67669508D01*
X76582729Y-68006901D01*
X76648870Y-68339410D01*
X76747284Y-68663841D01*
X76877024Y-68977060D01*
X76877026Y-68977065D01*
X77036831Y-69276039D01*
X77036842Y-69276057D01*
X77225184Y-69557930D01*
X77225194Y-69557944D01*
X77440269Y-69820014D01*
X77679985Y-70059730D01*
X77679990Y-70059734D01*
X77679991Y-70059735D01*
X77942061Y-70274810D01*
X78223949Y-70463162D01*
X78223958Y-70463167D01*
X78223960Y-70463168D01*
X78522934Y-70622973D01*
X78522936Y-70622973D01*
X78522942Y-70622977D01*
X78836160Y-70752716D01*
X79160586Y-70851129D01*
X79493096Y-70917270D01*
X79830488Y-70950500D01*
X79830491Y-70950500D01*
X80169509Y-70950500D01*
X80169512Y-70950500D01*
X80506904Y-70917270D01*
X80839414Y-70851129D01*
X81163840Y-70752716D01*
X81477058Y-70622977D01*
X81776051Y-70463162D01*
X82057939Y-70274810D01*
X82320009Y-70059735D01*
X82559735Y-69820009D01*
X82774810Y-69557939D01*
X82963162Y-69276051D01*
X83122977Y-68977058D01*
X83252716Y-68663840D01*
X83351129Y-68339414D01*
X83417270Y-68006904D01*
X83450500Y-67669512D01*
X83450500Y-67330491D01*
X96549500Y-67330491D01*
X96549500Y-67669508D01*
X96582729Y-68006901D01*
X96648870Y-68339410D01*
X96747284Y-68663841D01*
X96877024Y-68977060D01*
X96877026Y-68977065D01*
X97036831Y-69276039D01*
X97036842Y-69276057D01*
X97225184Y-69557930D01*
X97225194Y-69557944D01*
X97440269Y-69820014D01*
X97679985Y-70059730D01*
X97679990Y-70059734D01*
X97679991Y-70059735D01*
X97942061Y-70274810D01*
X98223949Y-70463162D01*
X98223958Y-70463167D01*
X98223960Y-70463168D01*
X98522934Y-70622973D01*
X98522936Y-70622973D01*
X98522942Y-70622977D01*
X98836160Y-70752716D01*
X99160586Y-70851129D01*
X99493096Y-70917270D01*
X99830488Y-70950500D01*
X99830491Y-70950500D01*
X100169509Y-70950500D01*
X100169512Y-70950500D01*
X100506904Y-70917270D01*
X100839414Y-70851129D01*
X101163840Y-70752716D01*
X101477058Y-70622977D01*
X101776051Y-70463162D01*
X102057939Y-70274810D01*
X102320009Y-70059735D01*
X102559735Y-69820009D01*
X102774810Y-69557939D01*
X102963162Y-69276051D01*
X103122977Y-68977058D01*
X103252716Y-68663840D01*
X103351129Y-68339414D01*
X103417270Y-68006904D01*
X103450500Y-67669512D01*
X103450500Y-67330491D01*
X116549500Y-67330491D01*
X116549500Y-67669508D01*
X116582729Y-68006901D01*
X116648870Y-68339410D01*
X116747284Y-68663841D01*
X116877024Y-68977060D01*
X116877026Y-68977065D01*
X117036831Y-69276039D01*
X117036842Y-69276057D01*
X117225184Y-69557930D01*
X117225194Y-69557944D01*
X117440269Y-69820014D01*
X117679985Y-70059730D01*
X117679990Y-70059734D01*
X117679991Y-70059735D01*
X117942061Y-70274810D01*
X118223949Y-70463162D01*
X118223958Y-70463167D01*
X118223960Y-70463168D01*
X118522934Y-70622973D01*
X118522936Y-70622973D01*
X118522942Y-70622977D01*
X118836160Y-70752716D01*
X119160586Y-70851129D01*
X119493096Y-70917270D01*
X119830488Y-70950500D01*
X119830491Y-70950500D01*
X120169509Y-70950500D01*
X120169512Y-70950500D01*
X120506904Y-70917270D01*
X120839414Y-70851129D01*
X121163840Y-70752716D01*
X121477058Y-70622977D01*
X121776051Y-70463162D01*
X122057939Y-70274810D01*
X122320009Y-70059735D01*
X122559735Y-69820009D01*
X122774810Y-69557939D01*
X122963162Y-69276051D01*
X123122977Y-68977058D01*
X123252716Y-68663840D01*
X123351129Y-68339414D01*
X123417270Y-68006904D01*
X123450500Y-67669512D01*
X123450500Y-67330491D01*
X136549500Y-67330491D01*
X136549500Y-67669508D01*
X136582729Y-68006901D01*
X136648870Y-68339410D01*
X136747284Y-68663841D01*
X136877024Y-68977060D01*
X136877026Y-68977065D01*
X137036831Y-69276039D01*
X137036842Y-69276057D01*
X137225184Y-69557930D01*
X137225194Y-69557944D01*
X137440269Y-69820014D01*
X137679985Y-70059730D01*
X137679990Y-70059734D01*
X137679991Y-70059735D01*
X137942061Y-70274810D01*
X138223949Y-70463162D01*
X138223958Y-70463167D01*
X138223960Y-70463168D01*
X138522934Y-70622973D01*
X138522936Y-70622973D01*
X138522942Y-70622977D01*
X138836160Y-70752716D01*
X139160586Y-70851129D01*
X139493096Y-70917270D01*
X139830488Y-70950500D01*
X139830491Y-70950500D01*
X140169509Y-70950500D01*
X140169512Y-70950500D01*
X140506904Y-70917270D01*
X140839414Y-70851129D01*
X141163840Y-70752716D01*
X141477058Y-70622977D01*
X141776051Y-70463162D01*
X142057939Y-70274810D01*
X142320009Y-70059735D01*
X142559735Y-69820009D01*
X142774810Y-69557939D01*
X142963162Y-69276051D01*
X143122977Y-68977058D01*
X143252716Y-68663840D01*
X143351129Y-68339414D01*
X143417270Y-68006904D01*
X143450500Y-67669512D01*
X143450500Y-67330491D01*
X156549500Y-67330491D01*
X156549500Y-67669508D01*
X156582729Y-68006901D01*
X156648870Y-68339410D01*
X156747284Y-68663841D01*
X156877024Y-68977060D01*
X156877026Y-68977065D01*
X157036831Y-69276039D01*
X157036842Y-69276057D01*
X157225184Y-69557930D01*
X157225194Y-69557944D01*
X157440269Y-69820014D01*
X157679985Y-70059730D01*
X157679990Y-70059734D01*
X157679991Y-70059735D01*
X157942061Y-70274810D01*
X158223949Y-70463162D01*
X158223958Y-70463167D01*
X158223960Y-70463168D01*
X158522934Y-70622973D01*
X158522936Y-70622973D01*
X158522942Y-70622977D01*
X158836160Y-70752716D01*
X159160586Y-70851129D01*
X159493096Y-70917270D01*
X159830488Y-70950500D01*
X159830491Y-70950500D01*
X160169509Y-70950500D01*
X160169512Y-70950500D01*
X160506904Y-70917270D01*
X160839414Y-70851129D01*
X161163840Y-70752716D01*
X161477058Y-70622977D01*
X161776051Y-70463162D01*
X162057939Y-70274810D01*
X162320009Y-70059735D01*
X162559735Y-69820009D01*
X162774810Y-69557939D01*
X162963162Y-69276051D01*
X163122977Y-68977058D01*
X163252716Y-68663840D01*
X163351129Y-68339414D01*
X163417270Y-68006904D01*
X163450500Y-67669512D01*
X163450500Y-67330491D01*
X176549500Y-67330491D01*
X176549500Y-67669508D01*
X176582729Y-68006901D01*
X176648870Y-68339410D01*
X176747284Y-68663841D01*
X176877024Y-68977060D01*
X176877026Y-68977065D01*
X177036831Y-69276039D01*
X177036842Y-69276057D01*
X177225184Y-69557930D01*
X177225194Y-69557944D01*
X177440269Y-69820014D01*
X177679985Y-70059730D01*
X177679990Y-70059734D01*
X177679991Y-70059735D01*
X177942061Y-70274810D01*
X178223949Y-70463162D01*
X178223958Y-70463167D01*
X178223960Y-70463168D01*
X178522934Y-70622973D01*
X178522936Y-70622973D01*
X178522942Y-70622977D01*
X178836160Y-70752716D01*
X179160586Y-70851129D01*
X179493096Y-70917270D01*
X179830488Y-70950500D01*
X179830491Y-70950500D01*
X180169509Y-70950500D01*
X180169512Y-70950500D01*
X180506904Y-70917270D01*
X180839414Y-70851129D01*
X181163840Y-70752716D01*
X181477058Y-70622977D01*
X181776051Y-70463162D01*
X182057939Y-70274810D01*
X182320009Y-70059735D01*
X182559735Y-69820009D01*
X182774810Y-69557939D01*
X182963162Y-69276051D01*
X183122977Y-68977058D01*
X183252716Y-68663840D01*
X183351129Y-68339414D01*
X183417270Y-68006904D01*
X183450500Y-67669512D01*
X183450500Y-67330488D01*
X183417270Y-66993096D01*
X183351129Y-66660586D01*
X183252716Y-66336160D01*
X183122977Y-66022942D01*
X182963162Y-65723949D01*
X182774810Y-65442061D01*
X182559735Y-65179991D01*
X182559734Y-65179990D01*
X182559730Y-65179985D01*
X182320014Y-64940269D01*
X182057944Y-64725194D01*
X182057943Y-64725193D01*
X182057939Y-64725190D01*
X181776051Y-64536838D01*
X181776046Y-64536835D01*
X181776039Y-64536831D01*
X181477065Y-64377026D01*
X181477060Y-64377024D01*
X181163841Y-64247284D01*
X180973382Y-64189509D01*
X180839414Y-64148871D01*
X180839411Y-64148870D01*
X180839410Y-64148870D01*
X180506901Y-64082729D01*
X180269199Y-64059318D01*
X180169512Y-64049500D01*
X179830488Y-64049500D01*
X179739738Y-64058437D01*
X179493098Y-64082729D01*
X179160589Y-64148870D01*
X178836158Y-64247284D01*
X178522939Y-64377024D01*
X178522934Y-64377026D01*
X178223960Y-64536831D01*
X178223942Y-64536842D01*
X177942069Y-64725184D01*
X177942055Y-64725194D01*
X177679985Y-64940269D01*
X177440269Y-65179985D01*
X177225194Y-65442055D01*
X177225184Y-65442069D01*
X177036842Y-65723942D01*
X177036831Y-65723960D01*
X176877026Y-66022934D01*
X176877024Y-66022939D01*
X176747284Y-66336158D01*
X176648870Y-66660589D01*
X176582729Y-66993098D01*
X176549500Y-67330491D01*
X163450500Y-67330491D01*
X163450500Y-67330488D01*
X163417270Y-66993096D01*
X163351129Y-66660586D01*
X163252716Y-66336160D01*
X163122977Y-66022942D01*
X162963162Y-65723949D01*
X162774810Y-65442061D01*
X162559735Y-65179991D01*
X162559734Y-65179990D01*
X162559730Y-65179985D01*
X162320014Y-64940269D01*
X162057944Y-64725194D01*
X162057943Y-64725193D01*
X162057939Y-64725190D01*
X161776051Y-64536838D01*
X161776046Y-64536835D01*
X161776039Y-64536831D01*
X161477065Y-64377026D01*
X161477060Y-64377024D01*
X161163841Y-64247284D01*
X160973382Y-64189509D01*
X160839414Y-64148871D01*
X160839411Y-64148870D01*
X160839410Y-64148870D01*
X160506901Y-64082729D01*
X160269199Y-64059318D01*
X160169512Y-64049500D01*
X159830488Y-64049500D01*
X159739738Y-64058437D01*
X159493098Y-64082729D01*
X159160589Y-64148870D01*
X158836158Y-64247284D01*
X158522939Y-64377024D01*
X158522934Y-64377026D01*
X158223960Y-64536831D01*
X158223942Y-64536842D01*
X157942069Y-64725184D01*
X157942055Y-64725194D01*
X157679985Y-64940269D01*
X157440269Y-65179985D01*
X157225194Y-65442055D01*
X157225184Y-65442069D01*
X157036842Y-65723942D01*
X157036831Y-65723960D01*
X156877026Y-66022934D01*
X156877024Y-66022939D01*
X156747284Y-66336158D01*
X156648870Y-66660589D01*
X156582729Y-66993098D01*
X156549500Y-67330491D01*
X143450500Y-67330491D01*
X143450500Y-67330488D01*
X143417270Y-66993096D01*
X143351129Y-66660586D01*
X143252716Y-66336160D01*
X143122977Y-66022942D01*
X142963162Y-65723949D01*
X142774810Y-65442061D01*
X142559735Y-65179991D01*
X142559734Y-65179990D01*
X142559730Y-65179985D01*
X142320014Y-64940269D01*
X142057944Y-64725194D01*
X142057943Y-64725193D01*
X142057939Y-64725190D01*
X141776051Y-64536838D01*
X141776046Y-64536835D01*
X141776039Y-64536831D01*
X141477065Y-64377026D01*
X141477060Y-64377024D01*
X141163841Y-64247284D01*
X140973382Y-64189509D01*
X140839414Y-64148871D01*
X140839411Y-64148870D01*
X140839410Y-64148870D01*
X140506901Y-64082729D01*
X140269199Y-64059318D01*
X140169512Y-64049500D01*
X139830488Y-64049500D01*
X139739738Y-64058437D01*
X139493098Y-64082729D01*
X139160589Y-64148870D01*
X138836158Y-64247284D01*
X138522939Y-64377024D01*
X138522934Y-64377026D01*
X138223960Y-64536831D01*
X138223942Y-64536842D01*
X137942069Y-64725184D01*
X137942055Y-64725194D01*
X137679985Y-64940269D01*
X137440269Y-65179985D01*
X137225194Y-65442055D01*
X137225184Y-65442069D01*
X137036842Y-65723942D01*
X137036831Y-65723960D01*
X136877026Y-66022934D01*
X136877024Y-66022939D01*
X136747284Y-66336158D01*
X136648870Y-66660589D01*
X136582729Y-66993098D01*
X136549500Y-67330491D01*
X123450500Y-67330491D01*
X123450500Y-67330488D01*
X123417270Y-66993096D01*
X123351129Y-66660586D01*
X123252716Y-66336160D01*
X123122977Y-66022942D01*
X122963162Y-65723949D01*
X122774810Y-65442061D01*
X122559735Y-65179991D01*
X122559734Y-65179990D01*
X122559730Y-65179985D01*
X122320014Y-64940269D01*
X122057944Y-64725194D01*
X122057943Y-64725193D01*
X122057939Y-64725190D01*
X121776051Y-64536838D01*
X121776046Y-64536835D01*
X121776039Y-64536831D01*
X121477065Y-64377026D01*
X121477060Y-64377024D01*
X121163841Y-64247284D01*
X120973382Y-64189509D01*
X120839414Y-64148871D01*
X120839411Y-64148870D01*
X120839410Y-64148870D01*
X120506901Y-64082729D01*
X120269199Y-64059318D01*
X120169512Y-64049500D01*
X119830488Y-64049500D01*
X119739738Y-64058437D01*
X119493098Y-64082729D01*
X119160589Y-64148870D01*
X118836158Y-64247284D01*
X118522939Y-64377024D01*
X118522934Y-64377026D01*
X118223960Y-64536831D01*
X118223942Y-64536842D01*
X117942069Y-64725184D01*
X117942055Y-64725194D01*
X117679985Y-64940269D01*
X117440269Y-65179985D01*
X117225194Y-65442055D01*
X117225184Y-65442069D01*
X117036842Y-65723942D01*
X117036831Y-65723960D01*
X116877026Y-66022934D01*
X116877024Y-66022939D01*
X116747284Y-66336158D01*
X116648870Y-66660589D01*
X116582729Y-66993098D01*
X116549500Y-67330491D01*
X103450500Y-67330491D01*
X103450500Y-67330488D01*
X103417270Y-66993096D01*
X103351129Y-66660586D01*
X103252716Y-66336160D01*
X103122977Y-66022942D01*
X102963162Y-65723949D01*
X102774810Y-65442061D01*
X102559735Y-65179991D01*
X102559734Y-65179990D01*
X102559730Y-65179985D01*
X102320014Y-64940269D01*
X102057944Y-64725194D01*
X102057943Y-64725193D01*
X102057939Y-64725190D01*
X101776051Y-64536838D01*
X101776046Y-64536835D01*
X101776039Y-64536831D01*
X101477065Y-64377026D01*
X101477060Y-64377024D01*
X101163841Y-64247284D01*
X100973382Y-64189509D01*
X100839414Y-64148871D01*
X100839411Y-64148870D01*
X100839410Y-64148870D01*
X100506901Y-64082729D01*
X100269199Y-64059318D01*
X100169512Y-64049500D01*
X99830488Y-64049500D01*
X99739738Y-64058437D01*
X99493098Y-64082729D01*
X99160589Y-64148870D01*
X98836158Y-64247284D01*
X98522939Y-64377024D01*
X98522934Y-64377026D01*
X98223960Y-64536831D01*
X98223942Y-64536842D01*
X97942069Y-64725184D01*
X97942055Y-64725194D01*
X97679985Y-64940269D01*
X97440269Y-65179985D01*
X97225194Y-65442055D01*
X97225184Y-65442069D01*
X97036842Y-65723942D01*
X97036831Y-65723960D01*
X96877026Y-66022934D01*
X96877024Y-66022939D01*
X96747284Y-66336158D01*
X96648870Y-66660589D01*
X96582729Y-66993098D01*
X96549500Y-67330491D01*
X83450500Y-67330491D01*
X83450500Y-67330488D01*
X83417270Y-66993096D01*
X83351129Y-66660586D01*
X83252716Y-66336160D01*
X83122977Y-66022942D01*
X82963162Y-65723949D01*
X82774810Y-65442061D01*
X82559735Y-65179991D01*
X82559734Y-65179990D01*
X82559730Y-65179985D01*
X82320014Y-64940269D01*
X82057944Y-64725194D01*
X82057943Y-64725193D01*
X82057939Y-64725190D01*
X81776051Y-64536838D01*
X81776046Y-64536835D01*
X81776039Y-64536831D01*
X81477065Y-64377026D01*
X81477060Y-64377024D01*
X81163841Y-64247284D01*
X80973382Y-64189509D01*
X80839414Y-64148871D01*
X80839411Y-64148870D01*
X80839410Y-64148870D01*
X80506901Y-64082729D01*
X80269199Y-64059318D01*
X80169512Y-64049500D01*
X79830488Y-64049500D01*
X79739738Y-64058437D01*
X79493098Y-64082729D01*
X79160589Y-64148870D01*
X78836158Y-64247284D01*
X78522939Y-64377024D01*
X78522934Y-64377026D01*
X78223960Y-64536831D01*
X78223942Y-64536842D01*
X77942069Y-64725184D01*
X77942055Y-64725194D01*
X77679985Y-64940269D01*
X77440269Y-65179985D01*
X77225194Y-65442055D01*
X77225184Y-65442069D01*
X77036842Y-65723942D01*
X77036831Y-65723960D01*
X76877026Y-66022934D01*
X76877024Y-66022939D01*
X76747284Y-66336158D01*
X76648870Y-66660589D01*
X76582729Y-66993098D01*
X76549500Y-67330491D01*
X69050500Y-67330491D01*
X69050500Y-45330491D01*
X76549500Y-45330491D01*
X76549500Y-45669508D01*
X76582729Y-46006901D01*
X76648870Y-46339410D01*
X76747284Y-46663841D01*
X76877024Y-46977060D01*
X76877026Y-46977065D01*
X77036831Y-47276039D01*
X77036842Y-47276057D01*
X77225184Y-47557930D01*
X77225194Y-47557944D01*
X77440269Y-47820014D01*
X77679985Y-48059730D01*
X77679990Y-48059734D01*
X77679991Y-48059735D01*
X77942061Y-48274810D01*
X78223949Y-48463162D01*
X78223958Y-48463167D01*
X78223960Y-48463168D01*
X78522934Y-48622973D01*
X78522936Y-48622973D01*
X78522942Y-48622977D01*
X78836160Y-48752716D01*
X79160586Y-48851129D01*
X79493096Y-48917270D01*
X79830488Y-48950500D01*
X79830491Y-48950500D01*
X80169509Y-48950500D01*
X80169512Y-48950500D01*
X80506904Y-48917270D01*
X80839414Y-48851129D01*
X81163840Y-48752716D01*
X81477058Y-48622977D01*
X81776051Y-48463162D01*
X82057939Y-48274810D01*
X82320009Y-48059735D01*
X82559735Y-47820009D01*
X82774810Y-47557939D01*
X82963162Y-47276051D01*
X83122977Y-46977058D01*
X83252716Y-46663840D01*
X83351129Y-46339414D01*
X83417270Y-46006904D01*
X83450500Y-45669512D01*
X83450500Y-45330491D01*
X96549500Y-45330491D01*
X96549500Y-45669508D01*
X96582729Y-46006901D01*
X96648870Y-46339410D01*
X96747284Y-46663841D01*
X96877024Y-46977060D01*
X96877026Y-46977065D01*
X97036831Y-47276039D01*
X97036842Y-47276057D01*
X97225184Y-47557930D01*
X97225194Y-47557944D01*
X97440269Y-47820014D01*
X97679985Y-48059730D01*
X97679990Y-48059734D01*
X97679991Y-48059735D01*
X97942061Y-48274810D01*
X98223949Y-48463162D01*
X98223958Y-48463167D01*
X98223960Y-48463168D01*
X98522934Y-48622973D01*
X98522936Y-48622973D01*
X98522942Y-48622977D01*
X98836160Y-48752716D01*
X99160586Y-48851129D01*
X99493096Y-48917270D01*
X99830488Y-48950500D01*
X99830491Y-48950500D01*
X100169509Y-48950500D01*
X100169512Y-48950500D01*
X100506904Y-48917270D01*
X100839414Y-48851129D01*
X101163840Y-48752716D01*
X101477058Y-48622977D01*
X101776051Y-48463162D01*
X102057939Y-48274810D01*
X102320009Y-48059735D01*
X102559735Y-47820009D01*
X102774810Y-47557939D01*
X102963162Y-47276051D01*
X103122977Y-46977058D01*
X103252716Y-46663840D01*
X103351129Y-46339414D01*
X103417270Y-46006904D01*
X103450500Y-45669512D01*
X103450500Y-45330491D01*
X116549500Y-45330491D01*
X116549500Y-45669508D01*
X116582729Y-46006901D01*
X116648870Y-46339410D01*
X116747284Y-46663841D01*
X116877024Y-46977060D01*
X116877026Y-46977065D01*
X117036831Y-47276039D01*
X117036842Y-47276057D01*
X117225184Y-47557930D01*
X117225194Y-47557944D01*
X117440269Y-47820014D01*
X117679985Y-48059730D01*
X117679990Y-48059734D01*
X117679991Y-48059735D01*
X117942061Y-48274810D01*
X118223949Y-48463162D01*
X118223958Y-48463167D01*
X118223960Y-48463168D01*
X118522934Y-48622973D01*
X118522936Y-48622973D01*
X118522942Y-48622977D01*
X118836160Y-48752716D01*
X119160586Y-48851129D01*
X119493096Y-48917270D01*
X119830488Y-48950500D01*
X119830491Y-48950500D01*
X120169509Y-48950500D01*
X120169512Y-48950500D01*
X120506904Y-48917270D01*
X120839414Y-48851129D01*
X121163840Y-48752716D01*
X121477058Y-48622977D01*
X121776051Y-48463162D01*
X122057939Y-48274810D01*
X122320009Y-48059735D01*
X122559735Y-47820009D01*
X122774810Y-47557939D01*
X122963162Y-47276051D01*
X123122977Y-46977058D01*
X123252716Y-46663840D01*
X123351129Y-46339414D01*
X123417270Y-46006904D01*
X123450500Y-45669512D01*
X123450500Y-45330491D01*
X136549500Y-45330491D01*
X136549500Y-45669508D01*
X136582729Y-46006901D01*
X136648870Y-46339410D01*
X136747284Y-46663841D01*
X136877024Y-46977060D01*
X136877026Y-46977065D01*
X137036831Y-47276039D01*
X137036842Y-47276057D01*
X137225184Y-47557930D01*
X137225194Y-47557944D01*
X137440269Y-47820014D01*
X137679985Y-48059730D01*
X137679990Y-48059734D01*
X137679991Y-48059735D01*
X137942061Y-48274810D01*
X138223949Y-48463162D01*
X138223958Y-48463167D01*
X138223960Y-48463168D01*
X138522934Y-48622973D01*
X138522936Y-48622973D01*
X138522942Y-48622977D01*
X138836160Y-48752716D01*
X139160586Y-48851129D01*
X139493096Y-48917270D01*
X139830488Y-48950500D01*
X139830491Y-48950500D01*
X140169509Y-48950500D01*
X140169512Y-48950500D01*
X140506904Y-48917270D01*
X140839414Y-48851129D01*
X141163840Y-48752716D01*
X141477058Y-48622977D01*
X141776051Y-48463162D01*
X142057939Y-48274810D01*
X142320009Y-48059735D01*
X142559735Y-47820009D01*
X142774810Y-47557939D01*
X142963162Y-47276051D01*
X143122977Y-46977058D01*
X143252716Y-46663840D01*
X143351129Y-46339414D01*
X143417270Y-46006904D01*
X143450500Y-45669512D01*
X143450500Y-45330491D01*
X156549500Y-45330491D01*
X156549500Y-45669508D01*
X156582729Y-46006901D01*
X156648870Y-46339410D01*
X156747284Y-46663841D01*
X156877024Y-46977060D01*
X156877026Y-46977065D01*
X157036831Y-47276039D01*
X157036842Y-47276057D01*
X157225184Y-47557930D01*
X157225194Y-47557944D01*
X157440269Y-47820014D01*
X157679985Y-48059730D01*
X157679990Y-48059734D01*
X157679991Y-48059735D01*
X157942061Y-48274810D01*
X158223949Y-48463162D01*
X158223958Y-48463167D01*
X158223960Y-48463168D01*
X158522934Y-48622973D01*
X158522936Y-48622973D01*
X158522942Y-48622977D01*
X158836160Y-48752716D01*
X159160586Y-48851129D01*
X159493096Y-48917270D01*
X159830488Y-48950500D01*
X159830491Y-48950500D01*
X160169509Y-48950500D01*
X160169512Y-48950500D01*
X160506904Y-48917270D01*
X160839414Y-48851129D01*
X161163840Y-48752716D01*
X161477058Y-48622977D01*
X161776051Y-48463162D01*
X162057939Y-48274810D01*
X162320009Y-48059735D01*
X162559735Y-47820009D01*
X162774810Y-47557939D01*
X162963162Y-47276051D01*
X163122977Y-46977058D01*
X163252716Y-46663840D01*
X163351129Y-46339414D01*
X163417270Y-46006904D01*
X163450500Y-45669512D01*
X163450500Y-45330491D01*
X176549500Y-45330491D01*
X176549500Y-45669508D01*
X176582729Y-46006901D01*
X176648870Y-46339410D01*
X176747284Y-46663841D01*
X176877024Y-46977060D01*
X176877026Y-46977065D01*
X177036831Y-47276039D01*
X177036842Y-47276057D01*
X177225184Y-47557930D01*
X177225194Y-47557944D01*
X177440269Y-47820014D01*
X177679985Y-48059730D01*
X177679990Y-48059734D01*
X177679991Y-48059735D01*
X177942061Y-48274810D01*
X178223949Y-48463162D01*
X178223958Y-48463167D01*
X178223960Y-48463168D01*
X178522934Y-48622973D01*
X178522936Y-48622973D01*
X178522942Y-48622977D01*
X178836160Y-48752716D01*
X179160586Y-48851129D01*
X179493096Y-48917270D01*
X179830488Y-48950500D01*
X179830491Y-48950500D01*
X180169509Y-48950500D01*
X180169512Y-48950500D01*
X180506904Y-48917270D01*
X180839414Y-48851129D01*
X181163840Y-48752716D01*
X181477058Y-48622977D01*
X181776051Y-48463162D01*
X182057939Y-48274810D01*
X182320009Y-48059735D01*
X182559735Y-47820009D01*
X182774810Y-47557939D01*
X182963162Y-47276051D01*
X183122977Y-46977058D01*
X183252716Y-46663840D01*
X183351129Y-46339414D01*
X183417270Y-46006904D01*
X183450500Y-45669512D01*
X183450500Y-45330488D01*
X183417270Y-44993096D01*
X183351129Y-44660586D01*
X183252716Y-44336160D01*
X183122977Y-44022942D01*
X182963162Y-43723949D01*
X182774810Y-43442061D01*
X182559735Y-43179991D01*
X182559734Y-43179990D01*
X182559730Y-43179985D01*
X182320014Y-42940269D01*
X182057944Y-42725194D01*
X182057943Y-42725193D01*
X182057939Y-42725190D01*
X181776051Y-42536838D01*
X181776046Y-42536835D01*
X181776039Y-42536831D01*
X181477065Y-42377026D01*
X181477060Y-42377024D01*
X181163841Y-42247284D01*
X180973382Y-42189509D01*
X180839414Y-42148871D01*
X180839411Y-42148870D01*
X180839410Y-42148870D01*
X180506901Y-42082729D01*
X180269199Y-42059318D01*
X180169512Y-42049500D01*
X179830488Y-42049500D01*
X179739738Y-42058437D01*
X179493098Y-42082729D01*
X179160589Y-42148870D01*
X178836158Y-42247284D01*
X178522939Y-42377024D01*
X178522934Y-42377026D01*
X178223960Y-42536831D01*
X178223942Y-42536842D01*
X177942069Y-42725184D01*
X177942055Y-42725194D01*
X177679985Y-42940269D01*
X177440269Y-43179985D01*
X177225194Y-43442055D01*
X177225184Y-43442069D01*
X177036842Y-43723942D01*
X177036831Y-43723960D01*
X176877026Y-44022934D01*
X176877024Y-44022939D01*
X176747284Y-44336158D01*
X176648870Y-44660589D01*
X176582729Y-44993098D01*
X176549500Y-45330491D01*
X163450500Y-45330491D01*
X163450500Y-45330488D01*
X163417270Y-44993096D01*
X163351129Y-44660586D01*
X163252716Y-44336160D01*
X163122977Y-44022942D01*
X162963162Y-43723949D01*
X162774810Y-43442061D01*
X162559735Y-43179991D01*
X162559734Y-43179990D01*
X162559730Y-43179985D01*
X162320014Y-42940269D01*
X162057944Y-42725194D01*
X162057943Y-42725193D01*
X162057939Y-42725190D01*
X161776051Y-42536838D01*
X161776046Y-42536835D01*
X161776039Y-42536831D01*
X161477065Y-42377026D01*
X161477060Y-42377024D01*
X161163841Y-42247284D01*
X160973382Y-42189509D01*
X160839414Y-42148871D01*
X160839411Y-42148870D01*
X160839410Y-42148870D01*
X160506901Y-42082729D01*
X160269199Y-42059318D01*
X160169512Y-42049500D01*
X159830488Y-42049500D01*
X159739738Y-42058437D01*
X159493098Y-42082729D01*
X159160589Y-42148870D01*
X158836158Y-42247284D01*
X158522939Y-42377024D01*
X158522934Y-42377026D01*
X158223960Y-42536831D01*
X158223942Y-42536842D01*
X157942069Y-42725184D01*
X157942055Y-42725194D01*
X157679985Y-42940269D01*
X157440269Y-43179985D01*
X157225194Y-43442055D01*
X157225184Y-43442069D01*
X157036842Y-43723942D01*
X157036831Y-43723960D01*
X156877026Y-44022934D01*
X156877024Y-44022939D01*
X156747284Y-44336158D01*
X156648870Y-44660589D01*
X156582729Y-44993098D01*
X156549500Y-45330491D01*
X143450500Y-45330491D01*
X143450500Y-45330488D01*
X143417270Y-44993096D01*
X143351129Y-44660586D01*
X143252716Y-44336160D01*
X143122977Y-44022942D01*
X142963162Y-43723949D01*
X142774810Y-43442061D01*
X142559735Y-43179991D01*
X142559734Y-43179990D01*
X142559730Y-43179985D01*
X142320014Y-42940269D01*
X142057944Y-42725194D01*
X142057943Y-42725193D01*
X142057939Y-42725190D01*
X141776051Y-42536838D01*
X141776046Y-42536835D01*
X141776039Y-42536831D01*
X141477065Y-42377026D01*
X141477060Y-42377024D01*
X141163841Y-42247284D01*
X140973382Y-42189509D01*
X140839414Y-42148871D01*
X140839411Y-42148870D01*
X140839410Y-42148870D01*
X140506901Y-42082729D01*
X140269199Y-42059318D01*
X140169512Y-42049500D01*
X139830488Y-42049500D01*
X139739738Y-42058437D01*
X139493098Y-42082729D01*
X139160589Y-42148870D01*
X138836158Y-42247284D01*
X138522939Y-42377024D01*
X138522934Y-42377026D01*
X138223960Y-42536831D01*
X138223942Y-42536842D01*
X137942069Y-42725184D01*
X137942055Y-42725194D01*
X137679985Y-42940269D01*
X137440269Y-43179985D01*
X137225194Y-43442055D01*
X137225184Y-43442069D01*
X137036842Y-43723942D01*
X137036831Y-43723960D01*
X136877026Y-44022934D01*
X136877024Y-44022939D01*
X136747284Y-44336158D01*
X136648870Y-44660589D01*
X136582729Y-44993098D01*
X136549500Y-45330491D01*
X123450500Y-45330491D01*
X123450500Y-45330488D01*
X123417270Y-44993096D01*
X123351129Y-44660586D01*
X123252716Y-44336160D01*
X123122977Y-44022942D01*
X122963162Y-43723949D01*
X122774810Y-43442061D01*
X122559735Y-43179991D01*
X122559734Y-43179990D01*
X122559730Y-43179985D01*
X122320014Y-42940269D01*
X122057944Y-42725194D01*
X122057943Y-42725193D01*
X122057939Y-42725190D01*
X121776051Y-42536838D01*
X121776046Y-42536835D01*
X121776039Y-42536831D01*
X121477065Y-42377026D01*
X121477060Y-42377024D01*
X121163841Y-42247284D01*
X120973382Y-42189509D01*
X120839414Y-42148871D01*
X120839411Y-42148870D01*
X120839410Y-42148870D01*
X120506901Y-42082729D01*
X120269199Y-42059318D01*
X120169512Y-42049500D01*
X119830488Y-42049500D01*
X119739738Y-42058437D01*
X119493098Y-42082729D01*
X119160589Y-42148870D01*
X118836158Y-42247284D01*
X118522939Y-42377024D01*
X118522934Y-42377026D01*
X118223960Y-42536831D01*
X118223942Y-42536842D01*
X117942069Y-42725184D01*
X117942055Y-42725194D01*
X117679985Y-42940269D01*
X117440269Y-43179985D01*
X117225194Y-43442055D01*
X117225184Y-43442069D01*
X117036842Y-43723942D01*
X117036831Y-43723960D01*
X116877026Y-44022934D01*
X116877024Y-44022939D01*
X116747284Y-44336158D01*
X116648870Y-44660589D01*
X116582729Y-44993098D01*
X116549500Y-45330491D01*
X103450500Y-45330491D01*
X103450500Y-45330488D01*
X103417270Y-44993096D01*
X103351129Y-44660586D01*
X103252716Y-44336160D01*
X103122977Y-44022942D01*
X102963162Y-43723949D01*
X102774810Y-43442061D01*
X102559735Y-43179991D01*
X102559734Y-43179990D01*
X102559730Y-43179985D01*
X102320014Y-42940269D01*
X102057944Y-42725194D01*
X102057943Y-42725193D01*
X102057939Y-42725190D01*
X101776051Y-42536838D01*
X101776046Y-42536835D01*
X101776039Y-42536831D01*
X101477065Y-42377026D01*
X101477060Y-42377024D01*
X101163841Y-42247284D01*
X100973382Y-42189509D01*
X100839414Y-42148871D01*
X100839411Y-42148870D01*
X100839410Y-42148870D01*
X100506901Y-42082729D01*
X100269199Y-42059318D01*
X100169512Y-42049500D01*
X99830488Y-42049500D01*
X99739738Y-42058437D01*
X99493098Y-42082729D01*
X99160589Y-42148870D01*
X98836158Y-42247284D01*
X98522939Y-42377024D01*
X98522934Y-42377026D01*
X98223960Y-42536831D01*
X98223942Y-42536842D01*
X97942069Y-42725184D01*
X97942055Y-42725194D01*
X97679985Y-42940269D01*
X97440269Y-43179985D01*
X97225194Y-43442055D01*
X97225184Y-43442069D01*
X97036842Y-43723942D01*
X97036831Y-43723960D01*
X96877026Y-44022934D01*
X96877024Y-44022939D01*
X96747284Y-44336158D01*
X96648870Y-44660589D01*
X96582729Y-44993098D01*
X96549500Y-45330491D01*
X83450500Y-45330491D01*
X83450500Y-45330488D01*
X83417270Y-44993096D01*
X83351129Y-44660586D01*
X83252716Y-44336160D01*
X83122977Y-44022942D01*
X82963162Y-43723949D01*
X82774810Y-43442061D01*
X82559735Y-43179991D01*
X82559734Y-43179990D01*
X82559730Y-43179985D01*
X82320014Y-42940269D01*
X82057944Y-42725194D01*
X82057943Y-42725193D01*
X82057939Y-42725190D01*
X81776051Y-42536838D01*
X81776046Y-42536835D01*
X81776039Y-42536831D01*
X81477065Y-42377026D01*
X81477060Y-42377024D01*
X81163841Y-42247284D01*
X80973382Y-42189509D01*
X80839414Y-42148871D01*
X80839411Y-42148870D01*
X80839410Y-42148870D01*
X80506901Y-42082729D01*
X80269199Y-42059318D01*
X80169512Y-42049500D01*
X79830488Y-42049500D01*
X79739738Y-42058437D01*
X79493098Y-42082729D01*
X79160589Y-42148870D01*
X78836158Y-42247284D01*
X78522939Y-42377024D01*
X78522934Y-42377026D01*
X78223960Y-42536831D01*
X78223942Y-42536842D01*
X77942069Y-42725184D01*
X77942055Y-42725194D01*
X77679985Y-42940269D01*
X77440269Y-43179985D01*
X77225194Y-43442055D01*
X77225184Y-43442069D01*
X77036842Y-43723942D01*
X77036831Y-43723960D01*
X76877026Y-44022934D01*
X76877024Y-44022939D01*
X76747284Y-44336158D01*
X76648870Y-44660589D01*
X76582729Y-44993098D01*
X76549500Y-45330491D01*
X69050500Y-45330491D01*
X69050500Y-32628711D01*
X74699500Y-32628711D01*
X74699500Y-32871288D01*
X74731161Y-33111785D01*
X74793947Y-33346104D01*
X74886773Y-33570205D01*
X74886776Y-33570212D01*
X75008064Y-33780289D01*
X75008066Y-33780292D01*
X75008067Y-33780293D01*
X75155733Y-33972736D01*
X75155739Y-33972743D01*
X75327256Y-34144260D01*
X75327262Y-34144265D01*
X75519711Y-34291936D01*
X75729788Y-34413224D01*
X75953900Y-34506054D01*
X76188211Y-34568838D01*
X76368586Y-34592584D01*
X76428711Y-34600500D01*
X76428712Y-34600500D01*
X76671289Y-34600500D01*
X76719388Y-34594167D01*
X76911789Y-34568838D01*
X77146100Y-34506054D01*
X77370212Y-34413224D01*
X77580289Y-34291936D01*
X77772738Y-34144265D01*
X77944265Y-33972738D01*
X78091936Y-33780289D01*
X78213224Y-33570212D01*
X78306054Y-33346100D01*
X78368838Y-33111789D01*
X78400500Y-32871288D01*
X78400500Y-32628712D01*
X78400500Y-32628711D01*
X181599500Y-32628711D01*
X181599500Y-32871288D01*
X181631161Y-33111785D01*
X181693947Y-33346104D01*
X181786773Y-33570205D01*
X181786776Y-33570212D01*
X181908064Y-33780289D01*
X181908066Y-33780292D01*
X181908067Y-33780293D01*
X182055733Y-33972736D01*
X182055739Y-33972743D01*
X182227256Y-34144260D01*
X182227262Y-34144265D01*
X182419711Y-34291936D01*
X182629788Y-34413224D01*
X182853900Y-34506054D01*
X183088211Y-34568838D01*
X183268586Y-34592584D01*
X183328711Y-34600500D01*
X183328712Y-34600500D01*
X183571289Y-34600500D01*
X183619388Y-34594167D01*
X183811789Y-34568838D01*
X184046100Y-34506054D01*
X184270212Y-34413224D01*
X184480289Y-34291936D01*
X184672738Y-34144265D01*
X184844265Y-33972738D01*
X184991936Y-33780289D01*
X185113224Y-33570212D01*
X185206054Y-33346100D01*
X185268838Y-33111789D01*
X185300500Y-32871288D01*
X185300500Y-32628712D01*
X185268838Y-32388211D01*
X185206054Y-32153900D01*
X185113224Y-31929788D01*
X184991936Y-31719711D01*
X184844265Y-31527262D01*
X184844260Y-31527256D01*
X184672743Y-31355739D01*
X184672736Y-31355733D01*
X184480293Y-31208067D01*
X184480292Y-31208066D01*
X184480289Y-31208064D01*
X184270212Y-31086776D01*
X184270205Y-31086773D01*
X184046104Y-30993947D01*
X183811785Y-30931161D01*
X183571289Y-30899500D01*
X183571288Y-30899500D01*
X183328712Y-30899500D01*
X183328711Y-30899500D01*
X183088214Y-30931161D01*
X182853895Y-30993947D01*
X182629794Y-31086773D01*
X182629785Y-31086777D01*
X182419706Y-31208067D01*
X182227263Y-31355733D01*
X182227256Y-31355739D01*
X182055739Y-31527256D01*
X182055733Y-31527263D01*
X181908067Y-31719706D01*
X181786777Y-31929785D01*
X181786773Y-31929794D01*
X181693947Y-32153895D01*
X181631161Y-32388214D01*
X181599500Y-32628711D01*
X78400500Y-32628711D01*
X78368838Y-32388211D01*
X78306054Y-32153900D01*
X78213224Y-31929788D01*
X78091936Y-31719711D01*
X77944265Y-31527262D01*
X77944260Y-31527256D01*
X77772743Y-31355739D01*
X77772736Y-31355733D01*
X77580293Y-31208067D01*
X77580292Y-31208066D01*
X77580289Y-31208064D01*
X77370212Y-31086776D01*
X77370205Y-31086773D01*
X77146104Y-30993947D01*
X76911785Y-30931161D01*
X76671289Y-30899500D01*
X76671288Y-30899500D01*
X76428712Y-30899500D01*
X76428711Y-30899500D01*
X76188214Y-30931161D01*
X75953895Y-30993947D01*
X75729794Y-31086773D01*
X75729785Y-31086777D01*
X75519706Y-31208067D01*
X75327263Y-31355733D01*
X75327256Y-31355739D01*
X75155739Y-31527256D01*
X75155733Y-31527263D01*
X75008067Y-31719706D01*
X74886777Y-31929785D01*
X74886773Y-31929794D01*
X74793947Y-32153895D01*
X74731161Y-32388214D01*
X74699500Y-32628711D01*
X69050500Y-32628711D01*
X69050500Y-29874500D01*
X69070185Y-29807461D01*
X69122989Y-29761706D01*
X69174500Y-29750500D01*
X190825500Y-29750500D01*
X190892539Y-29770185D01*
G37*
%TD.AperFunction*%
%TA.AperFunction,NonConductor*%
G36*
X181512055Y-86627445D02*
G01*
X181513024Y-86618851D01*
X181518721Y-86602569D01*
X181512055Y-86627445D01*
G37*
%TD.AperFunction*%
%TA.AperFunction,NonConductor*%
G36*
X146514349Y-85591698D02*
G01*
X146515685Y-85576437D01*
X146522284Y-85551805D01*
X146514349Y-85591698D01*
G37*
%TD.AperFunction*%
M02*
