%TF.GenerationSoftware,KiCad,Pcbnew,7.0.2*%
%TF.CreationDate,2025-02-19T16:58:47+00:00*%
%TF.ProjectId,dk2_04_panel,646b325f-3034-45f7-9061-6e656c2e6b69,rev?*%
%TF.SameCoordinates,Original*%
%TF.FileFunction,Copper,L2,Bot*%
%TF.FilePolarity,Positive*%
%FSLAX46Y46*%
G04 Gerber Fmt 4.6, Leading zero omitted, Abs format (unit mm)*
G04 Created by KiCad (PCBNEW 7.0.2) date 2025-02-19 16:58:47*
%MOMM*%
%LPD*%
G01*
G04 APERTURE LIST*
G04 APERTURE END LIST*
%TA.AperFunction,NonConductor*%
G36*
X140892539Y-21770185D02*
G01*
X140938294Y-21822989D01*
X140949500Y-21874500D01*
X140949500Y-150125500D01*
X140929815Y-150192539D01*
X140877011Y-150238294D01*
X140825500Y-150249500D01*
X19174500Y-150249500D01*
X19107461Y-150229815D01*
X19061706Y-150177011D01*
X19050500Y-150125500D01*
X19050500Y-147317764D01*
X24695787Y-147317764D01*
X24725413Y-147587016D01*
X24793928Y-147849087D01*
X24899871Y-148098392D01*
X25040982Y-148329611D01*
X25130253Y-148436881D01*
X25214255Y-148537820D01*
X25415998Y-148718582D01*
X25641910Y-148868044D01*
X25748211Y-148917876D01*
X25887177Y-148983021D01*
X26146562Y-149061058D01*
X26146569Y-149061060D01*
X26414561Y-149100500D01*
X26414564Y-149100500D01*
X26615369Y-149100500D01*
X26617631Y-149100500D01*
X26820156Y-149085677D01*
X27084553Y-149026780D01*
X27337558Y-148930014D01*
X27573777Y-148797441D01*
X27788177Y-148631888D01*
X27976186Y-148436881D01*
X28133799Y-148216579D01*
X28257656Y-147975675D01*
X28345118Y-147719305D01*
X28394319Y-147452933D01*
X28399259Y-147317764D01*
X131595787Y-147317764D01*
X131625413Y-147587016D01*
X131693928Y-147849087D01*
X131799871Y-148098392D01*
X131940982Y-148329611D01*
X132030253Y-148436881D01*
X132114255Y-148537820D01*
X132315998Y-148718582D01*
X132541910Y-148868044D01*
X132648211Y-148917876D01*
X132787177Y-148983021D01*
X133046562Y-149061058D01*
X133046569Y-149061060D01*
X133314561Y-149100500D01*
X133314564Y-149100500D01*
X133515369Y-149100500D01*
X133517631Y-149100500D01*
X133720156Y-149085677D01*
X133984553Y-149026780D01*
X134237558Y-148930014D01*
X134473777Y-148797441D01*
X134688177Y-148631888D01*
X134876186Y-148436881D01*
X135033799Y-148216579D01*
X135157656Y-147975675D01*
X135245118Y-147719305D01*
X135294319Y-147452933D01*
X135304212Y-147182235D01*
X135274586Y-146912982D01*
X135206072Y-146650912D01*
X135100130Y-146401610D01*
X134959018Y-146170390D01*
X134959017Y-146170388D01*
X134785746Y-145962181D01*
X134680759Y-145868112D01*
X134584002Y-145781418D01*
X134358090Y-145631956D01*
X134358086Y-145631954D01*
X134112822Y-145516978D01*
X133853437Y-145438941D01*
X133853431Y-145438940D01*
X133585439Y-145399500D01*
X133382369Y-145399500D01*
X133380120Y-145399664D01*
X133380109Y-145399665D01*
X133179843Y-145414322D01*
X132915449Y-145473219D01*
X132662441Y-145569986D01*
X132426223Y-145702559D01*
X132211825Y-145868109D01*
X132023813Y-146063120D01*
X131866201Y-146283420D01*
X131742342Y-146524329D01*
X131654881Y-146780695D01*
X131605680Y-147047066D01*
X131595787Y-147317764D01*
X28399259Y-147317764D01*
X28404212Y-147182235D01*
X28374586Y-146912982D01*
X28306072Y-146650912D01*
X28200130Y-146401610D01*
X28059018Y-146170390D01*
X28059017Y-146170388D01*
X27885746Y-145962181D01*
X27780759Y-145868112D01*
X27684002Y-145781418D01*
X27458090Y-145631956D01*
X27458086Y-145631954D01*
X27212822Y-145516978D01*
X26953437Y-145438941D01*
X26953431Y-145438940D01*
X26685439Y-145399500D01*
X26482369Y-145399500D01*
X26480120Y-145399664D01*
X26480109Y-145399665D01*
X26279843Y-145414322D01*
X26015449Y-145473219D01*
X25762441Y-145569986D01*
X25526223Y-145702559D01*
X25311825Y-145868109D01*
X25123813Y-146063120D01*
X24966201Y-146283420D01*
X24842342Y-146524329D01*
X24754881Y-146780695D01*
X24705680Y-147047066D01*
X24695787Y-147317764D01*
X19050500Y-147317764D01*
X19050500Y-132187081D01*
X30549500Y-132187081D01*
X30589954Y-132559049D01*
X30590675Y-132562326D01*
X30590677Y-132562336D01*
X30651109Y-132836881D01*
X30670387Y-132924462D01*
X30671461Y-132927649D01*
X30788784Y-133275852D01*
X30788787Y-133275860D01*
X30789858Y-133279038D01*
X30946964Y-133618617D01*
X31139864Y-133939220D01*
X31141892Y-133941888D01*
X31141899Y-133941898D01*
X31362525Y-134232126D01*
X31366297Y-134237087D01*
X31368605Y-134239524D01*
X31368608Y-134239527D01*
X31621298Y-134506289D01*
X31621303Y-134506294D01*
X31623608Y-134508727D01*
X31908779Y-134750954D01*
X32218469Y-134960928D01*
X32549045Y-135136189D01*
X32896632Y-135274680D01*
X33257155Y-135374779D01*
X33626387Y-135435311D01*
X33906528Y-135450500D01*
X33908192Y-135450500D01*
X34091808Y-135450500D01*
X34093472Y-135450500D01*
X34373613Y-135435311D01*
X34742845Y-135374779D01*
X35103368Y-135274680D01*
X35450955Y-135136189D01*
X35781531Y-134960928D01*
X36091221Y-134750954D01*
X36376392Y-134508727D01*
X36633703Y-134237087D01*
X36860136Y-133939220D01*
X37053036Y-133618617D01*
X37210142Y-133279038D01*
X37329613Y-132924462D01*
X37410046Y-132559049D01*
X37450500Y-132187081D01*
X42549500Y-132187081D01*
X42589954Y-132559049D01*
X42590675Y-132562326D01*
X42590677Y-132562336D01*
X42651109Y-132836881D01*
X42670387Y-132924462D01*
X42671461Y-132927649D01*
X42788784Y-133275852D01*
X42788787Y-133275860D01*
X42789858Y-133279038D01*
X42946964Y-133618617D01*
X43139864Y-133939220D01*
X43141892Y-133941888D01*
X43141899Y-133941898D01*
X43362525Y-134232126D01*
X43366297Y-134237087D01*
X43368605Y-134239524D01*
X43368608Y-134239527D01*
X43621298Y-134506289D01*
X43621303Y-134506294D01*
X43623608Y-134508727D01*
X43908779Y-134750954D01*
X44218469Y-134960928D01*
X44549045Y-135136189D01*
X44896632Y-135274680D01*
X45257155Y-135374779D01*
X45626387Y-135435311D01*
X45906528Y-135450500D01*
X45908192Y-135450500D01*
X46091808Y-135450500D01*
X46093472Y-135450500D01*
X46373613Y-135435311D01*
X46742845Y-135374779D01*
X47103368Y-135274680D01*
X47450955Y-135136189D01*
X47781531Y-134960928D01*
X48091221Y-134750954D01*
X48376392Y-134508727D01*
X48633703Y-134237087D01*
X48860136Y-133939220D01*
X49053036Y-133618617D01*
X49210142Y-133279038D01*
X49329613Y-132924462D01*
X49410046Y-132559049D01*
X49450500Y-132187081D01*
X54549500Y-132187081D01*
X54589954Y-132559049D01*
X54590675Y-132562326D01*
X54590677Y-132562336D01*
X54651109Y-132836881D01*
X54670387Y-132924462D01*
X54671461Y-132927649D01*
X54788784Y-133275852D01*
X54788787Y-133275860D01*
X54789858Y-133279038D01*
X54946964Y-133618617D01*
X55139864Y-133939220D01*
X55141892Y-133941888D01*
X55141899Y-133941898D01*
X55362525Y-134232126D01*
X55366297Y-134237087D01*
X55368605Y-134239524D01*
X55368608Y-134239527D01*
X55621298Y-134506289D01*
X55621303Y-134506294D01*
X55623608Y-134508727D01*
X55908779Y-134750954D01*
X56218469Y-134960928D01*
X56549045Y-135136189D01*
X56896632Y-135274680D01*
X57257155Y-135374779D01*
X57626387Y-135435311D01*
X57906528Y-135450500D01*
X57908192Y-135450500D01*
X58091808Y-135450500D01*
X58093472Y-135450500D01*
X58373613Y-135435311D01*
X58742845Y-135374779D01*
X59103368Y-135274680D01*
X59450955Y-135136189D01*
X59781531Y-134960928D01*
X60091221Y-134750954D01*
X60376392Y-134508727D01*
X60633703Y-134237087D01*
X60860136Y-133939220D01*
X61053036Y-133618617D01*
X61210142Y-133279038D01*
X61329613Y-132924462D01*
X61410046Y-132559049D01*
X61450500Y-132187081D01*
X66549500Y-132187081D01*
X66589954Y-132559049D01*
X66590675Y-132562326D01*
X66590677Y-132562336D01*
X66651109Y-132836881D01*
X66670387Y-132924462D01*
X66671461Y-132927649D01*
X66788784Y-133275852D01*
X66788787Y-133275860D01*
X66789858Y-133279038D01*
X66946964Y-133618617D01*
X67139864Y-133939220D01*
X67141892Y-133941888D01*
X67141899Y-133941898D01*
X67362525Y-134232126D01*
X67366297Y-134237087D01*
X67368605Y-134239524D01*
X67368608Y-134239527D01*
X67621298Y-134506289D01*
X67621303Y-134506294D01*
X67623608Y-134508727D01*
X67908779Y-134750954D01*
X68218469Y-134960928D01*
X68549045Y-135136189D01*
X68896632Y-135274680D01*
X69257155Y-135374779D01*
X69626387Y-135435311D01*
X69906528Y-135450500D01*
X69908192Y-135450500D01*
X70091808Y-135450500D01*
X70093472Y-135450500D01*
X70373613Y-135435311D01*
X70742845Y-135374779D01*
X71103368Y-135274680D01*
X71450955Y-135136189D01*
X71781531Y-134960928D01*
X72091221Y-134750954D01*
X72376392Y-134508727D01*
X72633703Y-134237087D01*
X72860136Y-133939220D01*
X73053036Y-133618617D01*
X73210142Y-133279038D01*
X73329613Y-132924462D01*
X73410046Y-132559049D01*
X73450500Y-132187081D01*
X78549500Y-132187081D01*
X78589954Y-132559049D01*
X78590675Y-132562326D01*
X78590677Y-132562336D01*
X78651109Y-132836881D01*
X78670387Y-132924462D01*
X78671461Y-132927649D01*
X78788784Y-133275852D01*
X78788787Y-133275860D01*
X78789858Y-133279038D01*
X78946964Y-133618617D01*
X79139864Y-133939220D01*
X79141892Y-133941888D01*
X79141899Y-133941898D01*
X79362525Y-134232126D01*
X79366297Y-134237087D01*
X79368605Y-134239524D01*
X79368608Y-134239527D01*
X79621298Y-134506289D01*
X79621303Y-134506294D01*
X79623608Y-134508727D01*
X79908779Y-134750954D01*
X80218469Y-134960928D01*
X80549045Y-135136189D01*
X80896632Y-135274680D01*
X81257155Y-135374779D01*
X81626387Y-135435311D01*
X81906528Y-135450500D01*
X81908192Y-135450500D01*
X82091808Y-135450500D01*
X82093472Y-135450500D01*
X82373613Y-135435311D01*
X82742845Y-135374779D01*
X83103368Y-135274680D01*
X83450955Y-135136189D01*
X83781531Y-134960928D01*
X84091221Y-134750954D01*
X84376392Y-134508727D01*
X84633703Y-134237087D01*
X84860136Y-133939220D01*
X85053036Y-133618617D01*
X85210142Y-133279038D01*
X85329613Y-132924462D01*
X85410046Y-132559049D01*
X85450500Y-132187081D01*
X90549500Y-132187081D01*
X90589954Y-132559049D01*
X90590675Y-132562326D01*
X90590677Y-132562336D01*
X90651109Y-132836881D01*
X90670387Y-132924462D01*
X90671461Y-132927649D01*
X90788784Y-133275852D01*
X90788787Y-133275860D01*
X90789858Y-133279038D01*
X90946964Y-133618617D01*
X91139864Y-133939220D01*
X91141892Y-133941888D01*
X91141899Y-133941898D01*
X91362525Y-134232126D01*
X91366297Y-134237087D01*
X91368605Y-134239524D01*
X91368608Y-134239527D01*
X91621298Y-134506289D01*
X91621303Y-134506294D01*
X91623608Y-134508727D01*
X91908779Y-134750954D01*
X92218469Y-134960928D01*
X92549045Y-135136189D01*
X92896632Y-135274680D01*
X93257155Y-135374779D01*
X93626387Y-135435311D01*
X93906528Y-135450500D01*
X93908192Y-135450500D01*
X94091808Y-135450500D01*
X94093472Y-135450500D01*
X94373613Y-135435311D01*
X94742845Y-135374779D01*
X95103368Y-135274680D01*
X95450955Y-135136189D01*
X95781531Y-134960928D01*
X96091221Y-134750954D01*
X96376392Y-134508727D01*
X96633703Y-134237087D01*
X96860136Y-133939220D01*
X97053036Y-133618617D01*
X97210142Y-133279038D01*
X97329613Y-132924462D01*
X97410046Y-132559049D01*
X97450500Y-132187081D01*
X97450500Y-131812919D01*
X97440151Y-131717764D01*
X106395787Y-131717764D01*
X106425413Y-131987016D01*
X106493928Y-132249087D01*
X106599871Y-132498392D01*
X106740982Y-132729611D01*
X106914253Y-132937818D01*
X106914255Y-132937820D01*
X107115998Y-133118582D01*
X107341910Y-133268044D01*
X107448211Y-133317876D01*
X107587177Y-133383021D01*
X107846562Y-133461058D01*
X107846569Y-133461060D01*
X108114561Y-133500500D01*
X108114564Y-133500500D01*
X108315369Y-133500500D01*
X108317631Y-133500500D01*
X108520156Y-133485677D01*
X108784553Y-133426780D01*
X109037558Y-133330014D01*
X109273777Y-133197441D01*
X109488177Y-133031888D01*
X109676186Y-132836881D01*
X109833799Y-132616579D01*
X109957656Y-132375675D01*
X110045118Y-132119305D01*
X110094319Y-131852933D01*
X110104212Y-131582235D01*
X110074586Y-131312982D01*
X110006072Y-131050912D01*
X109900130Y-130801610D01*
X109759018Y-130570390D01*
X109759017Y-130570388D01*
X109585746Y-130362181D01*
X109480759Y-130268112D01*
X109384002Y-130181418D01*
X109158090Y-130031956D01*
X109158086Y-130031954D01*
X108912822Y-129916978D01*
X108653437Y-129838941D01*
X108653431Y-129838940D01*
X108385439Y-129799500D01*
X108182369Y-129799500D01*
X108180120Y-129799664D01*
X108180109Y-129799665D01*
X107979843Y-129814322D01*
X107715449Y-129873219D01*
X107462441Y-129969986D01*
X107226223Y-130102559D01*
X107011825Y-130268109D01*
X106823813Y-130463120D01*
X106666201Y-130683420D01*
X106542342Y-130924329D01*
X106454881Y-131180695D01*
X106405680Y-131447066D01*
X106395787Y-131717764D01*
X97440151Y-131717764D01*
X97410046Y-131440951D01*
X97329613Y-131075538D01*
X97210142Y-130720962D01*
X97053036Y-130381383D01*
X96860136Y-130060780D01*
X96858104Y-130058107D01*
X96858100Y-130058101D01*
X96635737Y-129765589D01*
X96633703Y-129762913D01*
X96631391Y-129760472D01*
X96378701Y-129493710D01*
X96378695Y-129493704D01*
X96376392Y-129491273D01*
X96091221Y-129249046D01*
X96088441Y-129247161D01*
X95784306Y-129040953D01*
X95784299Y-129040949D01*
X95781531Y-129039072D01*
X95778569Y-129037501D01*
X95778563Y-129037498D01*
X95453926Y-128865386D01*
X95453924Y-128865385D01*
X95450955Y-128863811D01*
X95447835Y-128862568D01*
X95447831Y-128862566D01*
X95106494Y-128726565D01*
X95106485Y-128726562D01*
X95103368Y-128725320D01*
X95031910Y-128705479D01*
X94746085Y-128626120D01*
X94746074Y-128626117D01*
X94742845Y-128625221D01*
X94739543Y-128624679D01*
X94739531Y-128624677D01*
X94376926Y-128565232D01*
X94376923Y-128565231D01*
X94373613Y-128564689D01*
X94370268Y-128564507D01*
X94370253Y-128564506D01*
X94095136Y-128549590D01*
X94095127Y-128549589D01*
X94093472Y-128549500D01*
X93906528Y-128549500D01*
X93904873Y-128549589D01*
X93904863Y-128549590D01*
X93629746Y-128564506D01*
X93629729Y-128564507D01*
X93626387Y-128564689D01*
X93623078Y-128565231D01*
X93623073Y-128565232D01*
X93260468Y-128624677D01*
X93260452Y-128624680D01*
X93257155Y-128625221D01*
X93253928Y-128626116D01*
X93253914Y-128626120D01*
X92899873Y-128724420D01*
X92896632Y-128725320D01*
X92893519Y-128726560D01*
X92893505Y-128726565D01*
X92552168Y-128862566D01*
X92552157Y-128862570D01*
X92549045Y-128863811D01*
X92546082Y-128865381D01*
X92546073Y-128865386D01*
X92221436Y-129037498D01*
X92221422Y-129037506D01*
X92218469Y-129039072D01*
X92215708Y-129040943D01*
X92215693Y-129040953D01*
X91911558Y-129247161D01*
X91911548Y-129247168D01*
X91908779Y-129249046D01*
X91906227Y-129251213D01*
X91906216Y-129251222D01*
X91626166Y-129489099D01*
X91626153Y-129489110D01*
X91623608Y-129491273D01*
X91621313Y-129493695D01*
X91621298Y-129493710D01*
X91368608Y-129760472D01*
X91368597Y-129760484D01*
X91366297Y-129762913D01*
X91364269Y-129765580D01*
X91364262Y-129765589D01*
X91141899Y-130058101D01*
X91141886Y-130058119D01*
X91139864Y-130060780D01*
X91138135Y-130063653D01*
X91138130Y-130063661D01*
X90948698Y-130378500D01*
X90948693Y-130378508D01*
X90946964Y-130381383D01*
X90945554Y-130384429D01*
X90945550Y-130384438D01*
X90807226Y-130683421D01*
X90789858Y-130720962D01*
X90788789Y-130724133D01*
X90788784Y-130724147D01*
X90721335Y-130924329D01*
X90670387Y-131075538D01*
X90669666Y-131078811D01*
X90669663Y-131078824D01*
X90590677Y-131437663D01*
X90590674Y-131437676D01*
X90589954Y-131440951D01*
X90549500Y-131812919D01*
X90549500Y-132187081D01*
X85450500Y-132187081D01*
X85450500Y-131812919D01*
X85410046Y-131440951D01*
X85329613Y-131075538D01*
X85210142Y-130720962D01*
X85053036Y-130381383D01*
X84860136Y-130060780D01*
X84858104Y-130058107D01*
X84858100Y-130058101D01*
X84635737Y-129765589D01*
X84633703Y-129762913D01*
X84631391Y-129760472D01*
X84378701Y-129493710D01*
X84378695Y-129493704D01*
X84376392Y-129491273D01*
X84091221Y-129249046D01*
X84088441Y-129247161D01*
X83784306Y-129040953D01*
X83784299Y-129040949D01*
X83781531Y-129039072D01*
X83778569Y-129037501D01*
X83778563Y-129037498D01*
X83453926Y-128865386D01*
X83453924Y-128865385D01*
X83450955Y-128863811D01*
X83447835Y-128862568D01*
X83447831Y-128862566D01*
X83106494Y-128726565D01*
X83106485Y-128726562D01*
X83103368Y-128725320D01*
X83031910Y-128705479D01*
X82746085Y-128626120D01*
X82746074Y-128626117D01*
X82742845Y-128625221D01*
X82739543Y-128624679D01*
X82739531Y-128624677D01*
X82376926Y-128565232D01*
X82376923Y-128565231D01*
X82373613Y-128564689D01*
X82370268Y-128564507D01*
X82370253Y-128564506D01*
X82095136Y-128549590D01*
X82095127Y-128549589D01*
X82093472Y-128549500D01*
X81906528Y-128549500D01*
X81904873Y-128549589D01*
X81904863Y-128549590D01*
X81629746Y-128564506D01*
X81629729Y-128564507D01*
X81626387Y-128564689D01*
X81623078Y-128565231D01*
X81623073Y-128565232D01*
X81260468Y-128624677D01*
X81260452Y-128624680D01*
X81257155Y-128625221D01*
X81253928Y-128626116D01*
X81253914Y-128626120D01*
X80899873Y-128724420D01*
X80896632Y-128725320D01*
X80893519Y-128726560D01*
X80893505Y-128726565D01*
X80552168Y-128862566D01*
X80552157Y-128862570D01*
X80549045Y-128863811D01*
X80546082Y-128865381D01*
X80546073Y-128865386D01*
X80221436Y-129037498D01*
X80221422Y-129037506D01*
X80218469Y-129039072D01*
X80215708Y-129040943D01*
X80215693Y-129040953D01*
X79911558Y-129247161D01*
X79911548Y-129247168D01*
X79908779Y-129249046D01*
X79906227Y-129251213D01*
X79906216Y-129251222D01*
X79626166Y-129489099D01*
X79626153Y-129489110D01*
X79623608Y-129491273D01*
X79621313Y-129493695D01*
X79621298Y-129493710D01*
X79368608Y-129760472D01*
X79368597Y-129760484D01*
X79366297Y-129762913D01*
X79364269Y-129765580D01*
X79364262Y-129765589D01*
X79141899Y-130058101D01*
X79141886Y-130058119D01*
X79139864Y-130060780D01*
X79138135Y-130063653D01*
X79138130Y-130063661D01*
X78948698Y-130378500D01*
X78948693Y-130378508D01*
X78946964Y-130381383D01*
X78945554Y-130384429D01*
X78945550Y-130384438D01*
X78807226Y-130683421D01*
X78789858Y-130720962D01*
X78788789Y-130724133D01*
X78788784Y-130724147D01*
X78721335Y-130924329D01*
X78670387Y-131075538D01*
X78669666Y-131078811D01*
X78669663Y-131078824D01*
X78590677Y-131437663D01*
X78590674Y-131437676D01*
X78589954Y-131440951D01*
X78549500Y-131812919D01*
X78549500Y-132187081D01*
X73450500Y-132187081D01*
X73450500Y-131812919D01*
X73410046Y-131440951D01*
X73329613Y-131075538D01*
X73210142Y-130720962D01*
X73053036Y-130381383D01*
X72860136Y-130060780D01*
X72858104Y-130058107D01*
X72858100Y-130058101D01*
X72635737Y-129765589D01*
X72633703Y-129762913D01*
X72631391Y-129760472D01*
X72378701Y-129493710D01*
X72378695Y-129493704D01*
X72376392Y-129491273D01*
X72091221Y-129249046D01*
X72088441Y-129247161D01*
X71784306Y-129040953D01*
X71784299Y-129040949D01*
X71781531Y-129039072D01*
X71778569Y-129037501D01*
X71778563Y-129037498D01*
X71453926Y-128865386D01*
X71453924Y-128865385D01*
X71450955Y-128863811D01*
X71447835Y-128862568D01*
X71447831Y-128862566D01*
X71106494Y-128726565D01*
X71106485Y-128726562D01*
X71103368Y-128725320D01*
X71031910Y-128705479D01*
X70746085Y-128626120D01*
X70746074Y-128626117D01*
X70742845Y-128625221D01*
X70739543Y-128624679D01*
X70739531Y-128624677D01*
X70376926Y-128565232D01*
X70376923Y-128565231D01*
X70373613Y-128564689D01*
X70370268Y-128564507D01*
X70370253Y-128564506D01*
X70095136Y-128549590D01*
X70095127Y-128549589D01*
X70093472Y-128549500D01*
X69906528Y-128549500D01*
X69904873Y-128549589D01*
X69904863Y-128549590D01*
X69629746Y-128564506D01*
X69629729Y-128564507D01*
X69626387Y-128564689D01*
X69623078Y-128565231D01*
X69623073Y-128565232D01*
X69260468Y-128624677D01*
X69260452Y-128624680D01*
X69257155Y-128625221D01*
X69253928Y-128626116D01*
X69253914Y-128626120D01*
X68899873Y-128724420D01*
X68896632Y-128725320D01*
X68893519Y-128726560D01*
X68893505Y-128726565D01*
X68552168Y-128862566D01*
X68552157Y-128862570D01*
X68549045Y-128863811D01*
X68546082Y-128865381D01*
X68546073Y-128865386D01*
X68221436Y-129037498D01*
X68221422Y-129037506D01*
X68218469Y-129039072D01*
X68215708Y-129040943D01*
X68215693Y-129040953D01*
X67911558Y-129247161D01*
X67911548Y-129247168D01*
X67908779Y-129249046D01*
X67906227Y-129251213D01*
X67906216Y-129251222D01*
X67626166Y-129489099D01*
X67626153Y-129489110D01*
X67623608Y-129491273D01*
X67621313Y-129493695D01*
X67621298Y-129493710D01*
X67368608Y-129760472D01*
X67368597Y-129760484D01*
X67366297Y-129762913D01*
X67364269Y-129765580D01*
X67364262Y-129765589D01*
X67141899Y-130058101D01*
X67141886Y-130058119D01*
X67139864Y-130060780D01*
X67138135Y-130063653D01*
X67138130Y-130063661D01*
X66948698Y-130378500D01*
X66948693Y-130378508D01*
X66946964Y-130381383D01*
X66945554Y-130384429D01*
X66945550Y-130384438D01*
X66807226Y-130683421D01*
X66789858Y-130720962D01*
X66788789Y-130724133D01*
X66788784Y-130724147D01*
X66721335Y-130924329D01*
X66670387Y-131075538D01*
X66669666Y-131078811D01*
X66669663Y-131078824D01*
X66590677Y-131437663D01*
X66590674Y-131437676D01*
X66589954Y-131440951D01*
X66549500Y-131812919D01*
X66549500Y-132187081D01*
X61450500Y-132187081D01*
X61450500Y-131812919D01*
X61410046Y-131440951D01*
X61329613Y-131075538D01*
X61210142Y-130720962D01*
X61053036Y-130381383D01*
X60860136Y-130060780D01*
X60858104Y-130058107D01*
X60858100Y-130058101D01*
X60635737Y-129765589D01*
X60633703Y-129762913D01*
X60631391Y-129760472D01*
X60378701Y-129493710D01*
X60378695Y-129493704D01*
X60376392Y-129491273D01*
X60091221Y-129249046D01*
X60088441Y-129247161D01*
X59784306Y-129040953D01*
X59784299Y-129040949D01*
X59781531Y-129039072D01*
X59778569Y-129037501D01*
X59778563Y-129037498D01*
X59453926Y-128865386D01*
X59453924Y-128865385D01*
X59450955Y-128863811D01*
X59447835Y-128862568D01*
X59447831Y-128862566D01*
X59106494Y-128726565D01*
X59106485Y-128726562D01*
X59103368Y-128725320D01*
X59031910Y-128705479D01*
X58746085Y-128626120D01*
X58746074Y-128626117D01*
X58742845Y-128625221D01*
X58739543Y-128624679D01*
X58739531Y-128624677D01*
X58376926Y-128565232D01*
X58376923Y-128565231D01*
X58373613Y-128564689D01*
X58370268Y-128564507D01*
X58370253Y-128564506D01*
X58095136Y-128549590D01*
X58095127Y-128549589D01*
X58093472Y-128549500D01*
X57906528Y-128549500D01*
X57904873Y-128549589D01*
X57904863Y-128549590D01*
X57629746Y-128564506D01*
X57629729Y-128564507D01*
X57626387Y-128564689D01*
X57623078Y-128565231D01*
X57623073Y-128565232D01*
X57260468Y-128624677D01*
X57260452Y-128624680D01*
X57257155Y-128625221D01*
X57253928Y-128626116D01*
X57253914Y-128626120D01*
X56899873Y-128724420D01*
X56896632Y-128725320D01*
X56893519Y-128726560D01*
X56893505Y-128726565D01*
X56552168Y-128862566D01*
X56552157Y-128862570D01*
X56549045Y-128863811D01*
X56546082Y-128865381D01*
X56546073Y-128865386D01*
X56221436Y-129037498D01*
X56221422Y-129037506D01*
X56218469Y-129039072D01*
X56215708Y-129040943D01*
X56215693Y-129040953D01*
X55911558Y-129247161D01*
X55911548Y-129247168D01*
X55908779Y-129249046D01*
X55906227Y-129251213D01*
X55906216Y-129251222D01*
X55626166Y-129489099D01*
X55626153Y-129489110D01*
X55623608Y-129491273D01*
X55621313Y-129493695D01*
X55621298Y-129493710D01*
X55368608Y-129760472D01*
X55368597Y-129760484D01*
X55366297Y-129762913D01*
X55364269Y-129765580D01*
X55364262Y-129765589D01*
X55141899Y-130058101D01*
X55141886Y-130058119D01*
X55139864Y-130060780D01*
X55138135Y-130063653D01*
X55138130Y-130063661D01*
X54948698Y-130378500D01*
X54948693Y-130378508D01*
X54946964Y-130381383D01*
X54945554Y-130384429D01*
X54945550Y-130384438D01*
X54807226Y-130683421D01*
X54789858Y-130720962D01*
X54788789Y-130724133D01*
X54788784Y-130724147D01*
X54721335Y-130924329D01*
X54670387Y-131075538D01*
X54669666Y-131078811D01*
X54669663Y-131078824D01*
X54590677Y-131437663D01*
X54590674Y-131437676D01*
X54589954Y-131440951D01*
X54549500Y-131812919D01*
X54549500Y-132187081D01*
X49450500Y-132187081D01*
X49450500Y-131812919D01*
X49410046Y-131440951D01*
X49329613Y-131075538D01*
X49210142Y-130720962D01*
X49053036Y-130381383D01*
X48860136Y-130060780D01*
X48858104Y-130058107D01*
X48858100Y-130058101D01*
X48635737Y-129765589D01*
X48633703Y-129762913D01*
X48631391Y-129760472D01*
X48378701Y-129493710D01*
X48378695Y-129493704D01*
X48376392Y-129491273D01*
X48091221Y-129249046D01*
X48088441Y-129247161D01*
X47784306Y-129040953D01*
X47784299Y-129040949D01*
X47781531Y-129039072D01*
X47778569Y-129037501D01*
X47778563Y-129037498D01*
X47453926Y-128865386D01*
X47453924Y-128865385D01*
X47450955Y-128863811D01*
X47447835Y-128862568D01*
X47447831Y-128862566D01*
X47106494Y-128726565D01*
X47106485Y-128726562D01*
X47103368Y-128725320D01*
X47031910Y-128705479D01*
X46746085Y-128626120D01*
X46746074Y-128626117D01*
X46742845Y-128625221D01*
X46739543Y-128624679D01*
X46739531Y-128624677D01*
X46376926Y-128565232D01*
X46376923Y-128565231D01*
X46373613Y-128564689D01*
X46370268Y-128564507D01*
X46370253Y-128564506D01*
X46095136Y-128549590D01*
X46095127Y-128549589D01*
X46093472Y-128549500D01*
X45906528Y-128549500D01*
X45904873Y-128549589D01*
X45904863Y-128549590D01*
X45629746Y-128564506D01*
X45629729Y-128564507D01*
X45626387Y-128564689D01*
X45623078Y-128565231D01*
X45623073Y-128565232D01*
X45260468Y-128624677D01*
X45260452Y-128624680D01*
X45257155Y-128625221D01*
X45253928Y-128626116D01*
X45253914Y-128626120D01*
X44899873Y-128724420D01*
X44896632Y-128725320D01*
X44893519Y-128726560D01*
X44893505Y-128726565D01*
X44552168Y-128862566D01*
X44552157Y-128862570D01*
X44549045Y-128863811D01*
X44546082Y-128865381D01*
X44546073Y-128865386D01*
X44221436Y-129037498D01*
X44221422Y-129037506D01*
X44218469Y-129039072D01*
X44215708Y-129040943D01*
X44215693Y-129040953D01*
X43911558Y-129247161D01*
X43911548Y-129247168D01*
X43908779Y-129249046D01*
X43906227Y-129251213D01*
X43906216Y-129251222D01*
X43626166Y-129489099D01*
X43626153Y-129489110D01*
X43623608Y-129491273D01*
X43621313Y-129493695D01*
X43621298Y-129493710D01*
X43368608Y-129760472D01*
X43368597Y-129760484D01*
X43366297Y-129762913D01*
X43364269Y-129765580D01*
X43364262Y-129765589D01*
X43141899Y-130058101D01*
X43141886Y-130058119D01*
X43139864Y-130060780D01*
X43138135Y-130063653D01*
X43138130Y-130063661D01*
X42948698Y-130378500D01*
X42948693Y-130378508D01*
X42946964Y-130381383D01*
X42945554Y-130384429D01*
X42945550Y-130384438D01*
X42807226Y-130683421D01*
X42789858Y-130720962D01*
X42788789Y-130724133D01*
X42788784Y-130724147D01*
X42721335Y-130924329D01*
X42670387Y-131075538D01*
X42669666Y-131078811D01*
X42669663Y-131078824D01*
X42590677Y-131437663D01*
X42590674Y-131437676D01*
X42589954Y-131440951D01*
X42549500Y-131812919D01*
X42549500Y-132187081D01*
X37450500Y-132187081D01*
X37450500Y-131812919D01*
X37410046Y-131440951D01*
X37329613Y-131075538D01*
X37210142Y-130720962D01*
X37053036Y-130381383D01*
X36860136Y-130060780D01*
X36858104Y-130058107D01*
X36858100Y-130058101D01*
X36635737Y-129765589D01*
X36633703Y-129762913D01*
X36631391Y-129760472D01*
X36378701Y-129493710D01*
X36378695Y-129493704D01*
X36376392Y-129491273D01*
X36091221Y-129249046D01*
X36088441Y-129247161D01*
X35784306Y-129040953D01*
X35784299Y-129040949D01*
X35781531Y-129039072D01*
X35778569Y-129037501D01*
X35778563Y-129037498D01*
X35453926Y-128865386D01*
X35453924Y-128865385D01*
X35450955Y-128863811D01*
X35447835Y-128862568D01*
X35447831Y-128862566D01*
X35106494Y-128726565D01*
X35106485Y-128726562D01*
X35103368Y-128725320D01*
X35031910Y-128705479D01*
X34746085Y-128626120D01*
X34746074Y-128626117D01*
X34742845Y-128625221D01*
X34739543Y-128624679D01*
X34739531Y-128624677D01*
X34376926Y-128565232D01*
X34376923Y-128565231D01*
X34373613Y-128564689D01*
X34370268Y-128564507D01*
X34370253Y-128564506D01*
X34095136Y-128549590D01*
X34095127Y-128549589D01*
X34093472Y-128549500D01*
X33906528Y-128549500D01*
X33904873Y-128549589D01*
X33904863Y-128549590D01*
X33629746Y-128564506D01*
X33629729Y-128564507D01*
X33626387Y-128564689D01*
X33623078Y-128565231D01*
X33623073Y-128565232D01*
X33260468Y-128624677D01*
X33260452Y-128624680D01*
X33257155Y-128625221D01*
X33253928Y-128626116D01*
X33253914Y-128626120D01*
X32899873Y-128724420D01*
X32896632Y-128725320D01*
X32893519Y-128726560D01*
X32893505Y-128726565D01*
X32552168Y-128862566D01*
X32552157Y-128862570D01*
X32549045Y-128863811D01*
X32546082Y-128865381D01*
X32546073Y-128865386D01*
X32221436Y-129037498D01*
X32221422Y-129037506D01*
X32218469Y-129039072D01*
X32215708Y-129040943D01*
X32215693Y-129040953D01*
X31911558Y-129247161D01*
X31911548Y-129247168D01*
X31908779Y-129249046D01*
X31906227Y-129251213D01*
X31906216Y-129251222D01*
X31626166Y-129489099D01*
X31626153Y-129489110D01*
X31623608Y-129491273D01*
X31621313Y-129493695D01*
X31621298Y-129493710D01*
X31368608Y-129760472D01*
X31368597Y-129760484D01*
X31366297Y-129762913D01*
X31364269Y-129765580D01*
X31364262Y-129765589D01*
X31141899Y-130058101D01*
X31141886Y-130058119D01*
X31139864Y-130060780D01*
X31138135Y-130063653D01*
X31138130Y-130063661D01*
X30948698Y-130378500D01*
X30948693Y-130378508D01*
X30946964Y-130381383D01*
X30945554Y-130384429D01*
X30945550Y-130384438D01*
X30807226Y-130683421D01*
X30789858Y-130720962D01*
X30788789Y-130724133D01*
X30788784Y-130724147D01*
X30721335Y-130924329D01*
X30670387Y-131075538D01*
X30669666Y-131078811D01*
X30669663Y-131078824D01*
X30590677Y-131437663D01*
X30590674Y-131437676D01*
X30589954Y-131440951D01*
X30549500Y-131812919D01*
X30549500Y-132187081D01*
X19050500Y-132187081D01*
X19050500Y-126167764D01*
X106395787Y-126167764D01*
X106425413Y-126437016D01*
X106493928Y-126699087D01*
X106599871Y-126948392D01*
X106740982Y-127179611D01*
X106830253Y-127286881D01*
X106914255Y-127387820D01*
X107115998Y-127568582D01*
X107341910Y-127718044D01*
X107448211Y-127767876D01*
X107587177Y-127833021D01*
X107846562Y-127911058D01*
X107846569Y-127911060D01*
X108114561Y-127950500D01*
X108114564Y-127950500D01*
X108315369Y-127950500D01*
X108317631Y-127950500D01*
X108520156Y-127935677D01*
X108784553Y-127876780D01*
X109037558Y-127780014D01*
X109273777Y-127647441D01*
X109488177Y-127481888D01*
X109676186Y-127286881D01*
X109833799Y-127066579D01*
X109957656Y-126825675D01*
X110045118Y-126569305D01*
X110094319Y-126302933D01*
X110104212Y-126032235D01*
X110074586Y-125762982D01*
X110006072Y-125500912D01*
X109900130Y-125251610D01*
X109759018Y-125020390D01*
X109759017Y-125020388D01*
X109585746Y-124812181D01*
X109480759Y-124718112D01*
X109384002Y-124631418D01*
X109158090Y-124481956D01*
X109158086Y-124481954D01*
X108912822Y-124366978D01*
X108653437Y-124288941D01*
X108653431Y-124288940D01*
X108385439Y-124249500D01*
X108182369Y-124249500D01*
X108180120Y-124249664D01*
X108180109Y-124249665D01*
X107979843Y-124264322D01*
X107715449Y-124323219D01*
X107462441Y-124419986D01*
X107226223Y-124552559D01*
X107011825Y-124718109D01*
X106823813Y-124913120D01*
X106666201Y-125133420D01*
X106542342Y-125374329D01*
X106454881Y-125630695D01*
X106405680Y-125897066D01*
X106395787Y-126167764D01*
X19050500Y-126167764D01*
X19050500Y-120067764D01*
X22145787Y-120067764D01*
X22175413Y-120337016D01*
X22178041Y-120347067D01*
X22243928Y-120599088D01*
X22251865Y-120617765D01*
X22349871Y-120848392D01*
X22490982Y-121079611D01*
X22654148Y-121275675D01*
X22664255Y-121287820D01*
X22865998Y-121468582D01*
X23091910Y-121618044D01*
X23116583Y-121629610D01*
X23337177Y-121733021D01*
X23596562Y-121811058D01*
X23596569Y-121811060D01*
X23864561Y-121850500D01*
X23864564Y-121850500D01*
X24065369Y-121850500D01*
X24067631Y-121850500D01*
X24270156Y-121835677D01*
X24534553Y-121776780D01*
X24787558Y-121680014D01*
X25023777Y-121547441D01*
X25238177Y-121381888D01*
X25426186Y-121186881D01*
X25583799Y-120966579D01*
X25707656Y-120725675D01*
X25744470Y-120617764D01*
X106395787Y-120617764D01*
X106425413Y-120887016D01*
X106425414Y-120887018D01*
X106493928Y-121149088D01*
X106592858Y-121381890D01*
X106599871Y-121398392D01*
X106740982Y-121629611D01*
X106914253Y-121837818D01*
X106914255Y-121837820D01*
X107115998Y-122018582D01*
X107341910Y-122168044D01*
X107448211Y-122217876D01*
X107587177Y-122283021D01*
X107846562Y-122361058D01*
X107846569Y-122361060D01*
X108114561Y-122400500D01*
X108114564Y-122400500D01*
X108315369Y-122400500D01*
X108317631Y-122400500D01*
X108520156Y-122385677D01*
X108784553Y-122326780D01*
X109037558Y-122230014D01*
X109273777Y-122097441D01*
X109488177Y-121931888D01*
X109676186Y-121736881D01*
X109833799Y-121516579D01*
X109957656Y-121275675D01*
X110045118Y-121019305D01*
X110094319Y-120752933D01*
X110104212Y-120482235D01*
X110074586Y-120212982D01*
X110036621Y-120067764D01*
X134145787Y-120067764D01*
X134175413Y-120337016D01*
X134178041Y-120347067D01*
X134243928Y-120599088D01*
X134251865Y-120617765D01*
X134349871Y-120848392D01*
X134490982Y-121079611D01*
X134654148Y-121275675D01*
X134664255Y-121287820D01*
X134865998Y-121468582D01*
X135091910Y-121618044D01*
X135116583Y-121629610D01*
X135337177Y-121733021D01*
X135596562Y-121811058D01*
X135596569Y-121811060D01*
X135864561Y-121850500D01*
X135864564Y-121850500D01*
X136065369Y-121850500D01*
X136067631Y-121850500D01*
X136270156Y-121835677D01*
X136534553Y-121776780D01*
X136787558Y-121680014D01*
X137023777Y-121547441D01*
X137238177Y-121381888D01*
X137426186Y-121186881D01*
X137583799Y-120966579D01*
X137707656Y-120725675D01*
X137795118Y-120469305D01*
X137844319Y-120202933D01*
X137854212Y-119932235D01*
X137824586Y-119662982D01*
X137756072Y-119400912D01*
X137650130Y-119151610D01*
X137533758Y-118960928D01*
X137509017Y-118920388D01*
X137335746Y-118712181D01*
X137230759Y-118618112D01*
X137134002Y-118531418D01*
X136908090Y-118381956D01*
X136908086Y-118381954D01*
X136662822Y-118266978D01*
X136403437Y-118188941D01*
X136403431Y-118188940D01*
X136135439Y-118149500D01*
X135932369Y-118149500D01*
X135930120Y-118149664D01*
X135930109Y-118149665D01*
X135729843Y-118164322D01*
X135465449Y-118223219D01*
X135212441Y-118319986D01*
X134976223Y-118452559D01*
X134761825Y-118618109D01*
X134573813Y-118813120D01*
X134416201Y-119033420D01*
X134292342Y-119274329D01*
X134204881Y-119530695D01*
X134155680Y-119797066D01*
X134145787Y-120067764D01*
X110036621Y-120067764D01*
X110006072Y-119950912D01*
X109900130Y-119701610D01*
X109759018Y-119470390D01*
X109759017Y-119470388D01*
X109585746Y-119262181D01*
X109480759Y-119168112D01*
X109384002Y-119081418D01*
X109158090Y-118931956D01*
X109158086Y-118931954D01*
X108912822Y-118816978D01*
X108653437Y-118738941D01*
X108653431Y-118738940D01*
X108385439Y-118699500D01*
X108182369Y-118699500D01*
X108180120Y-118699664D01*
X108180109Y-118699665D01*
X107979843Y-118714322D01*
X107715449Y-118773219D01*
X107462441Y-118869986D01*
X107226223Y-119002559D01*
X107011825Y-119168109D01*
X106823813Y-119363120D01*
X106666201Y-119583420D01*
X106542342Y-119824329D01*
X106454881Y-120080695D01*
X106405680Y-120347066D01*
X106395787Y-120617764D01*
X25744470Y-120617764D01*
X25795118Y-120469305D01*
X25844319Y-120202933D01*
X25854212Y-119932235D01*
X25824586Y-119662982D01*
X25756072Y-119400912D01*
X25650130Y-119151610D01*
X25533758Y-118960928D01*
X25509017Y-118920388D01*
X25335746Y-118712181D01*
X25230759Y-118618112D01*
X25134002Y-118531418D01*
X24908090Y-118381956D01*
X24908086Y-118381954D01*
X24662822Y-118266978D01*
X24403437Y-118188941D01*
X24403431Y-118188940D01*
X24135439Y-118149500D01*
X23932369Y-118149500D01*
X23930120Y-118149664D01*
X23930109Y-118149665D01*
X23729843Y-118164322D01*
X23465449Y-118223219D01*
X23212441Y-118319986D01*
X22976223Y-118452559D01*
X22761825Y-118618109D01*
X22573813Y-118813120D01*
X22416201Y-119033420D01*
X22292342Y-119274329D01*
X22204881Y-119530695D01*
X22155680Y-119797066D01*
X22145787Y-120067764D01*
X19050500Y-120067764D01*
X19050500Y-116187081D01*
X30549500Y-116187081D01*
X30589954Y-116559049D01*
X30590675Y-116562326D01*
X30590677Y-116562336D01*
X30669663Y-116921175D01*
X30670387Y-116924462D01*
X30671461Y-116927649D01*
X30788784Y-117275852D01*
X30788787Y-117275860D01*
X30789858Y-117279038D01*
X30946964Y-117618617D01*
X31139864Y-117939220D01*
X31141892Y-117941888D01*
X31141899Y-117941898D01*
X31329697Y-118188941D01*
X31366297Y-118237087D01*
X31368605Y-118239524D01*
X31368608Y-118239527D01*
X31621298Y-118506289D01*
X31621303Y-118506294D01*
X31623608Y-118508727D01*
X31908779Y-118750954D01*
X32006158Y-118816978D01*
X32158679Y-118920390D01*
X32218469Y-118960928D01*
X32549045Y-119136189D01*
X32896632Y-119274680D01*
X33257155Y-119374779D01*
X33626387Y-119435311D01*
X33906528Y-119450500D01*
X33908192Y-119450500D01*
X34091808Y-119450500D01*
X34093472Y-119450500D01*
X34373613Y-119435311D01*
X34742845Y-119374779D01*
X35103368Y-119274680D01*
X35450955Y-119136189D01*
X35781531Y-118960928D01*
X36091221Y-118750954D01*
X36376392Y-118508727D01*
X36633703Y-118237087D01*
X36860136Y-117939220D01*
X37053036Y-117618617D01*
X37210142Y-117279038D01*
X37329613Y-116924462D01*
X37410046Y-116559049D01*
X37450500Y-116187081D01*
X42549500Y-116187081D01*
X42589954Y-116559049D01*
X42590675Y-116562326D01*
X42590677Y-116562336D01*
X42669663Y-116921175D01*
X42670387Y-116924462D01*
X42671461Y-116927649D01*
X42788784Y-117275852D01*
X42788787Y-117275860D01*
X42789858Y-117279038D01*
X42946964Y-117618617D01*
X43139864Y-117939220D01*
X43141892Y-117941888D01*
X43141899Y-117941898D01*
X43329697Y-118188941D01*
X43366297Y-118237087D01*
X43368605Y-118239524D01*
X43368608Y-118239527D01*
X43621298Y-118506289D01*
X43621303Y-118506294D01*
X43623608Y-118508727D01*
X43908779Y-118750954D01*
X44006158Y-118816978D01*
X44158679Y-118920390D01*
X44218469Y-118960928D01*
X44549045Y-119136189D01*
X44896632Y-119274680D01*
X45257155Y-119374779D01*
X45626387Y-119435311D01*
X45906528Y-119450500D01*
X45908192Y-119450500D01*
X46091808Y-119450500D01*
X46093472Y-119450500D01*
X46373613Y-119435311D01*
X46742845Y-119374779D01*
X47103368Y-119274680D01*
X47450955Y-119136189D01*
X47781531Y-118960928D01*
X48091221Y-118750954D01*
X48376392Y-118508727D01*
X48633703Y-118237087D01*
X48860136Y-117939220D01*
X49053036Y-117618617D01*
X49210142Y-117279038D01*
X49329613Y-116924462D01*
X49410046Y-116559049D01*
X49450500Y-116187081D01*
X54549500Y-116187081D01*
X54589954Y-116559049D01*
X54590675Y-116562326D01*
X54590677Y-116562336D01*
X54669663Y-116921175D01*
X54670387Y-116924462D01*
X54671461Y-116927649D01*
X54788784Y-117275852D01*
X54788787Y-117275860D01*
X54789858Y-117279038D01*
X54946964Y-117618617D01*
X55139864Y-117939220D01*
X55141892Y-117941888D01*
X55141899Y-117941898D01*
X55329697Y-118188941D01*
X55366297Y-118237087D01*
X55368605Y-118239524D01*
X55368608Y-118239527D01*
X55621298Y-118506289D01*
X55621303Y-118506294D01*
X55623608Y-118508727D01*
X55908779Y-118750954D01*
X56006158Y-118816978D01*
X56158679Y-118920390D01*
X56218469Y-118960928D01*
X56549045Y-119136189D01*
X56896632Y-119274680D01*
X57257155Y-119374779D01*
X57626387Y-119435311D01*
X57906528Y-119450500D01*
X57908192Y-119450500D01*
X58091808Y-119450500D01*
X58093472Y-119450500D01*
X58373613Y-119435311D01*
X58742845Y-119374779D01*
X59103368Y-119274680D01*
X59450955Y-119136189D01*
X59781531Y-118960928D01*
X60091221Y-118750954D01*
X60376392Y-118508727D01*
X60633703Y-118237087D01*
X60860136Y-117939220D01*
X61053036Y-117618617D01*
X61210142Y-117279038D01*
X61329613Y-116924462D01*
X61410046Y-116559049D01*
X61450500Y-116187081D01*
X66549500Y-116187081D01*
X66589954Y-116559049D01*
X66590675Y-116562326D01*
X66590677Y-116562336D01*
X66669663Y-116921175D01*
X66670387Y-116924462D01*
X66671461Y-116927649D01*
X66788784Y-117275852D01*
X66788787Y-117275860D01*
X66789858Y-117279038D01*
X66946964Y-117618617D01*
X67139864Y-117939220D01*
X67141892Y-117941888D01*
X67141899Y-117941898D01*
X67329697Y-118188941D01*
X67366297Y-118237087D01*
X67368605Y-118239524D01*
X67368608Y-118239527D01*
X67621298Y-118506289D01*
X67621303Y-118506294D01*
X67623608Y-118508727D01*
X67908779Y-118750954D01*
X68006158Y-118816978D01*
X68158679Y-118920390D01*
X68218469Y-118960928D01*
X68549045Y-119136189D01*
X68896632Y-119274680D01*
X69257155Y-119374779D01*
X69626387Y-119435311D01*
X69906528Y-119450500D01*
X69908192Y-119450500D01*
X70091808Y-119450500D01*
X70093472Y-119450500D01*
X70373613Y-119435311D01*
X70742845Y-119374779D01*
X71103368Y-119274680D01*
X71450955Y-119136189D01*
X71781531Y-118960928D01*
X72091221Y-118750954D01*
X72376392Y-118508727D01*
X72633703Y-118237087D01*
X72860136Y-117939220D01*
X73053036Y-117618617D01*
X73210142Y-117279038D01*
X73329613Y-116924462D01*
X73410046Y-116559049D01*
X73450500Y-116187081D01*
X78549500Y-116187081D01*
X78589954Y-116559049D01*
X78590675Y-116562326D01*
X78590677Y-116562336D01*
X78669663Y-116921175D01*
X78670387Y-116924462D01*
X78671461Y-116927649D01*
X78788784Y-117275852D01*
X78788787Y-117275860D01*
X78789858Y-117279038D01*
X78946964Y-117618617D01*
X79139864Y-117939220D01*
X79141892Y-117941888D01*
X79141899Y-117941898D01*
X79329697Y-118188941D01*
X79366297Y-118237087D01*
X79368605Y-118239524D01*
X79368608Y-118239527D01*
X79621298Y-118506289D01*
X79621303Y-118506294D01*
X79623608Y-118508727D01*
X79908779Y-118750954D01*
X80006158Y-118816978D01*
X80158679Y-118920390D01*
X80218469Y-118960928D01*
X80549045Y-119136189D01*
X80896632Y-119274680D01*
X81257155Y-119374779D01*
X81626387Y-119435311D01*
X81906528Y-119450500D01*
X81908192Y-119450500D01*
X82091808Y-119450500D01*
X82093472Y-119450500D01*
X82373613Y-119435311D01*
X82742845Y-119374779D01*
X83103368Y-119274680D01*
X83450955Y-119136189D01*
X83781531Y-118960928D01*
X84091221Y-118750954D01*
X84376392Y-118508727D01*
X84633703Y-118237087D01*
X84860136Y-117939220D01*
X85053036Y-117618617D01*
X85210142Y-117279038D01*
X85329613Y-116924462D01*
X85410046Y-116559049D01*
X85450500Y-116187081D01*
X90549500Y-116187081D01*
X90589954Y-116559049D01*
X90590675Y-116562326D01*
X90590677Y-116562336D01*
X90669663Y-116921175D01*
X90670387Y-116924462D01*
X90671461Y-116927649D01*
X90788784Y-117275852D01*
X90788787Y-117275860D01*
X90789858Y-117279038D01*
X90946964Y-117618617D01*
X91139864Y-117939220D01*
X91141892Y-117941888D01*
X91141899Y-117941898D01*
X91329697Y-118188941D01*
X91366297Y-118237087D01*
X91368605Y-118239524D01*
X91368608Y-118239527D01*
X91621298Y-118506289D01*
X91621303Y-118506294D01*
X91623608Y-118508727D01*
X91908779Y-118750954D01*
X92006158Y-118816978D01*
X92158679Y-118920390D01*
X92218469Y-118960928D01*
X92549045Y-119136189D01*
X92896632Y-119274680D01*
X93257155Y-119374779D01*
X93626387Y-119435311D01*
X93906528Y-119450500D01*
X93908192Y-119450500D01*
X94091808Y-119450500D01*
X94093472Y-119450500D01*
X94373613Y-119435311D01*
X94742845Y-119374779D01*
X95103368Y-119274680D01*
X95450955Y-119136189D01*
X95781531Y-118960928D01*
X96091221Y-118750954D01*
X96376392Y-118508727D01*
X96633703Y-118237087D01*
X96860136Y-117939220D01*
X97053036Y-117618617D01*
X97210142Y-117279038D01*
X97329613Y-116924462D01*
X97410046Y-116559049D01*
X97450500Y-116187081D01*
X97450500Y-115812919D01*
X97410046Y-115440951D01*
X97329613Y-115075538D01*
X97326994Y-115067764D01*
X106395787Y-115067764D01*
X106425413Y-115337016D01*
X106453460Y-115444297D01*
X106493928Y-115599088D01*
X106586223Y-115816276D01*
X106599871Y-115848392D01*
X106740982Y-116079611D01*
X106914253Y-116287818D01*
X106914255Y-116287820D01*
X107115998Y-116468582D01*
X107341910Y-116618044D01*
X107448211Y-116667876D01*
X107587177Y-116733021D01*
X107846562Y-116811058D01*
X107846569Y-116811060D01*
X108114561Y-116850500D01*
X108114564Y-116850500D01*
X108315369Y-116850500D01*
X108317631Y-116850500D01*
X108520156Y-116835677D01*
X108784553Y-116776780D01*
X109037558Y-116680014D01*
X109273777Y-116547441D01*
X109488177Y-116381888D01*
X109676186Y-116186881D01*
X109833799Y-115966579D01*
X109957656Y-115725675D01*
X110045118Y-115469305D01*
X110094319Y-115202933D01*
X110104212Y-114932235D01*
X110074586Y-114662982D01*
X110006072Y-114400912D01*
X109900130Y-114151610D01*
X109759018Y-113920390D01*
X109759017Y-113920388D01*
X109585746Y-113712181D01*
X109480759Y-113618112D01*
X109384002Y-113531418D01*
X109158090Y-113381956D01*
X109158086Y-113381954D01*
X108912822Y-113266978D01*
X108653437Y-113188941D01*
X108653431Y-113188940D01*
X108385439Y-113149500D01*
X108182369Y-113149500D01*
X108180120Y-113149664D01*
X108180109Y-113149665D01*
X107979843Y-113164322D01*
X107715449Y-113223219D01*
X107462441Y-113319986D01*
X107226223Y-113452559D01*
X107011825Y-113618109D01*
X106823813Y-113813120D01*
X106666201Y-114033420D01*
X106542342Y-114274329D01*
X106454881Y-114530695D01*
X106405680Y-114797066D01*
X106395787Y-115067764D01*
X97326994Y-115067764D01*
X97210142Y-114720962D01*
X97053036Y-114381383D01*
X96860136Y-114060780D01*
X96858104Y-114058107D01*
X96858100Y-114058101D01*
X96635737Y-113765589D01*
X96633703Y-113762913D01*
X96585646Y-113712180D01*
X96378701Y-113493710D01*
X96378695Y-113493704D01*
X96376392Y-113491273D01*
X96330814Y-113452559D01*
X96093783Y-113251222D01*
X96093780Y-113251220D01*
X96091221Y-113249046D01*
X96088441Y-113247161D01*
X95784306Y-113040953D01*
X95784299Y-113040949D01*
X95781531Y-113039072D01*
X95778569Y-113037501D01*
X95778563Y-113037498D01*
X95453926Y-112865386D01*
X95453924Y-112865385D01*
X95450955Y-112863811D01*
X95447835Y-112862568D01*
X95447831Y-112862566D01*
X95106494Y-112726565D01*
X95106485Y-112726562D01*
X95103368Y-112725320D01*
X95031910Y-112705479D01*
X94746085Y-112626120D01*
X94746074Y-112626117D01*
X94742845Y-112625221D01*
X94739543Y-112624679D01*
X94739531Y-112624677D01*
X94376926Y-112565232D01*
X94376923Y-112565231D01*
X94373613Y-112564689D01*
X94370268Y-112564507D01*
X94370253Y-112564506D01*
X94095136Y-112549590D01*
X94095127Y-112549589D01*
X94093472Y-112549500D01*
X93906528Y-112549500D01*
X93904873Y-112549589D01*
X93904863Y-112549590D01*
X93629746Y-112564506D01*
X93629729Y-112564507D01*
X93626387Y-112564689D01*
X93623078Y-112565231D01*
X93623073Y-112565232D01*
X93260468Y-112624677D01*
X93260452Y-112624680D01*
X93257155Y-112625221D01*
X93253928Y-112626116D01*
X93253914Y-112626120D01*
X92899873Y-112724420D01*
X92896632Y-112725320D01*
X92893519Y-112726560D01*
X92893505Y-112726565D01*
X92552168Y-112862566D01*
X92552157Y-112862570D01*
X92549045Y-112863811D01*
X92546082Y-112865381D01*
X92546073Y-112865386D01*
X92221436Y-113037498D01*
X92221422Y-113037506D01*
X92218469Y-113039072D01*
X92215708Y-113040943D01*
X92215693Y-113040953D01*
X91911558Y-113247161D01*
X91911548Y-113247168D01*
X91908779Y-113249046D01*
X91906227Y-113251213D01*
X91906216Y-113251222D01*
X91626166Y-113489099D01*
X91626153Y-113489110D01*
X91623608Y-113491273D01*
X91621313Y-113493695D01*
X91621298Y-113493710D01*
X91368608Y-113760472D01*
X91368597Y-113760484D01*
X91366297Y-113762913D01*
X91364269Y-113765580D01*
X91364262Y-113765589D01*
X91141899Y-114058101D01*
X91141886Y-114058119D01*
X91139864Y-114060780D01*
X91138135Y-114063653D01*
X91138130Y-114063661D01*
X90948698Y-114378500D01*
X90948693Y-114378508D01*
X90946964Y-114381383D01*
X90945554Y-114384429D01*
X90945550Y-114384438D01*
X90816682Y-114662982D01*
X90789858Y-114720962D01*
X90788789Y-114724133D01*
X90788784Y-114724147D01*
X90673006Y-115067764D01*
X90670387Y-115075538D01*
X90669666Y-115078811D01*
X90669663Y-115078824D01*
X90590677Y-115437663D01*
X90590674Y-115437676D01*
X90589954Y-115440951D01*
X90589590Y-115444295D01*
X90589590Y-115444297D01*
X90572756Y-115599088D01*
X90549500Y-115812919D01*
X90549500Y-116187081D01*
X85450500Y-116187081D01*
X85450500Y-115812919D01*
X85410046Y-115440951D01*
X85329613Y-115075538D01*
X85210142Y-114720962D01*
X85053036Y-114381383D01*
X84860136Y-114060780D01*
X84858104Y-114058107D01*
X84858100Y-114058101D01*
X84635737Y-113765589D01*
X84633703Y-113762913D01*
X84585646Y-113712180D01*
X84378701Y-113493710D01*
X84378695Y-113493704D01*
X84376392Y-113491273D01*
X84330814Y-113452559D01*
X84093783Y-113251222D01*
X84093780Y-113251220D01*
X84091221Y-113249046D01*
X84088441Y-113247161D01*
X83784306Y-113040953D01*
X83784299Y-113040949D01*
X83781531Y-113039072D01*
X83778569Y-113037501D01*
X83778563Y-113037498D01*
X83453926Y-112865386D01*
X83453924Y-112865385D01*
X83450955Y-112863811D01*
X83447835Y-112862568D01*
X83447831Y-112862566D01*
X83106494Y-112726565D01*
X83106485Y-112726562D01*
X83103368Y-112725320D01*
X83031910Y-112705479D01*
X82746085Y-112626120D01*
X82746074Y-112626117D01*
X82742845Y-112625221D01*
X82739543Y-112624679D01*
X82739531Y-112624677D01*
X82376926Y-112565232D01*
X82376923Y-112565231D01*
X82373613Y-112564689D01*
X82370268Y-112564507D01*
X82370253Y-112564506D01*
X82095136Y-112549590D01*
X82095127Y-112549589D01*
X82093472Y-112549500D01*
X81906528Y-112549500D01*
X81904873Y-112549589D01*
X81904863Y-112549590D01*
X81629746Y-112564506D01*
X81629729Y-112564507D01*
X81626387Y-112564689D01*
X81623078Y-112565231D01*
X81623073Y-112565232D01*
X81260468Y-112624677D01*
X81260452Y-112624680D01*
X81257155Y-112625221D01*
X81253928Y-112626116D01*
X81253914Y-112626120D01*
X80899873Y-112724420D01*
X80896632Y-112725320D01*
X80893519Y-112726560D01*
X80893505Y-112726565D01*
X80552168Y-112862566D01*
X80552157Y-112862570D01*
X80549045Y-112863811D01*
X80546082Y-112865381D01*
X80546073Y-112865386D01*
X80221436Y-113037498D01*
X80221422Y-113037506D01*
X80218469Y-113039072D01*
X80215708Y-113040943D01*
X80215693Y-113040953D01*
X79911558Y-113247161D01*
X79911548Y-113247168D01*
X79908779Y-113249046D01*
X79906227Y-113251213D01*
X79906216Y-113251222D01*
X79626166Y-113489099D01*
X79626153Y-113489110D01*
X79623608Y-113491273D01*
X79621313Y-113493695D01*
X79621298Y-113493710D01*
X79368608Y-113760472D01*
X79368597Y-113760484D01*
X79366297Y-113762913D01*
X79364269Y-113765580D01*
X79364262Y-113765589D01*
X79141899Y-114058101D01*
X79141886Y-114058119D01*
X79139864Y-114060780D01*
X79138135Y-114063653D01*
X79138130Y-114063661D01*
X78948698Y-114378500D01*
X78948693Y-114378508D01*
X78946964Y-114381383D01*
X78945554Y-114384429D01*
X78945550Y-114384438D01*
X78816682Y-114662982D01*
X78789858Y-114720962D01*
X78788789Y-114724133D01*
X78788784Y-114724147D01*
X78673006Y-115067764D01*
X78670387Y-115075538D01*
X78669666Y-115078811D01*
X78669663Y-115078824D01*
X78590677Y-115437663D01*
X78590674Y-115437676D01*
X78589954Y-115440951D01*
X78589590Y-115444295D01*
X78589590Y-115444297D01*
X78572756Y-115599088D01*
X78549500Y-115812919D01*
X78549500Y-116187081D01*
X73450500Y-116187081D01*
X73450500Y-115812919D01*
X73410046Y-115440951D01*
X73329613Y-115075538D01*
X73210142Y-114720962D01*
X73053036Y-114381383D01*
X72860136Y-114060780D01*
X72858104Y-114058107D01*
X72858100Y-114058101D01*
X72635737Y-113765589D01*
X72633703Y-113762913D01*
X72585646Y-113712180D01*
X72378701Y-113493710D01*
X72378695Y-113493704D01*
X72376392Y-113491273D01*
X72330814Y-113452559D01*
X72093783Y-113251222D01*
X72093780Y-113251220D01*
X72091221Y-113249046D01*
X72088441Y-113247161D01*
X71784306Y-113040953D01*
X71784299Y-113040949D01*
X71781531Y-113039072D01*
X71778569Y-113037501D01*
X71778563Y-113037498D01*
X71453926Y-112865386D01*
X71453924Y-112865385D01*
X71450955Y-112863811D01*
X71447835Y-112862568D01*
X71447831Y-112862566D01*
X71106494Y-112726565D01*
X71106485Y-112726562D01*
X71103368Y-112725320D01*
X71031910Y-112705479D01*
X70746085Y-112626120D01*
X70746074Y-112626117D01*
X70742845Y-112625221D01*
X70739543Y-112624679D01*
X70739531Y-112624677D01*
X70376926Y-112565232D01*
X70376923Y-112565231D01*
X70373613Y-112564689D01*
X70370268Y-112564507D01*
X70370253Y-112564506D01*
X70095136Y-112549590D01*
X70095127Y-112549589D01*
X70093472Y-112549500D01*
X69906528Y-112549500D01*
X69904873Y-112549589D01*
X69904863Y-112549590D01*
X69629746Y-112564506D01*
X69629729Y-112564507D01*
X69626387Y-112564689D01*
X69623078Y-112565231D01*
X69623073Y-112565232D01*
X69260468Y-112624677D01*
X69260452Y-112624680D01*
X69257155Y-112625221D01*
X69253928Y-112626116D01*
X69253914Y-112626120D01*
X68899873Y-112724420D01*
X68896632Y-112725320D01*
X68893519Y-112726560D01*
X68893505Y-112726565D01*
X68552168Y-112862566D01*
X68552157Y-112862570D01*
X68549045Y-112863811D01*
X68546082Y-112865381D01*
X68546073Y-112865386D01*
X68221436Y-113037498D01*
X68221422Y-113037506D01*
X68218469Y-113039072D01*
X68215708Y-113040943D01*
X68215693Y-113040953D01*
X67911558Y-113247161D01*
X67911548Y-113247168D01*
X67908779Y-113249046D01*
X67906227Y-113251213D01*
X67906216Y-113251222D01*
X67626166Y-113489099D01*
X67626153Y-113489110D01*
X67623608Y-113491273D01*
X67621313Y-113493695D01*
X67621298Y-113493710D01*
X67368608Y-113760472D01*
X67368597Y-113760484D01*
X67366297Y-113762913D01*
X67364269Y-113765580D01*
X67364262Y-113765589D01*
X67141899Y-114058101D01*
X67141886Y-114058119D01*
X67139864Y-114060780D01*
X67138135Y-114063653D01*
X67138130Y-114063661D01*
X66948698Y-114378500D01*
X66948693Y-114378508D01*
X66946964Y-114381383D01*
X66945554Y-114384429D01*
X66945550Y-114384438D01*
X66816682Y-114662982D01*
X66789858Y-114720962D01*
X66788789Y-114724133D01*
X66788784Y-114724147D01*
X66673006Y-115067764D01*
X66670387Y-115075538D01*
X66669666Y-115078811D01*
X66669663Y-115078824D01*
X66590677Y-115437663D01*
X66590674Y-115437676D01*
X66589954Y-115440951D01*
X66589590Y-115444295D01*
X66589590Y-115444297D01*
X66572756Y-115599088D01*
X66549500Y-115812919D01*
X66549500Y-116187081D01*
X61450500Y-116187081D01*
X61450500Y-115812919D01*
X61410046Y-115440951D01*
X61329613Y-115075538D01*
X61210142Y-114720962D01*
X61053036Y-114381383D01*
X60860136Y-114060780D01*
X60858104Y-114058107D01*
X60858100Y-114058101D01*
X60635737Y-113765589D01*
X60633703Y-113762913D01*
X60585646Y-113712180D01*
X60378701Y-113493710D01*
X60378695Y-113493704D01*
X60376392Y-113491273D01*
X60330814Y-113452559D01*
X60093783Y-113251222D01*
X60093780Y-113251220D01*
X60091221Y-113249046D01*
X60088441Y-113247161D01*
X59784306Y-113040953D01*
X59784299Y-113040949D01*
X59781531Y-113039072D01*
X59778569Y-113037501D01*
X59778563Y-113037498D01*
X59453926Y-112865386D01*
X59453924Y-112865385D01*
X59450955Y-112863811D01*
X59447835Y-112862568D01*
X59447831Y-112862566D01*
X59106494Y-112726565D01*
X59106485Y-112726562D01*
X59103368Y-112725320D01*
X59031910Y-112705479D01*
X58746085Y-112626120D01*
X58746074Y-112626117D01*
X58742845Y-112625221D01*
X58739543Y-112624679D01*
X58739531Y-112624677D01*
X58376926Y-112565232D01*
X58376923Y-112565231D01*
X58373613Y-112564689D01*
X58370268Y-112564507D01*
X58370253Y-112564506D01*
X58095136Y-112549590D01*
X58095127Y-112549589D01*
X58093472Y-112549500D01*
X57906528Y-112549500D01*
X57904873Y-112549589D01*
X57904863Y-112549590D01*
X57629746Y-112564506D01*
X57629729Y-112564507D01*
X57626387Y-112564689D01*
X57623078Y-112565231D01*
X57623073Y-112565232D01*
X57260468Y-112624677D01*
X57260452Y-112624680D01*
X57257155Y-112625221D01*
X57253928Y-112626116D01*
X57253914Y-112626120D01*
X56899873Y-112724420D01*
X56896632Y-112725320D01*
X56893519Y-112726560D01*
X56893505Y-112726565D01*
X56552168Y-112862566D01*
X56552157Y-112862570D01*
X56549045Y-112863811D01*
X56546082Y-112865381D01*
X56546073Y-112865386D01*
X56221436Y-113037498D01*
X56221422Y-113037506D01*
X56218469Y-113039072D01*
X56215708Y-113040943D01*
X56215693Y-113040953D01*
X55911558Y-113247161D01*
X55911548Y-113247168D01*
X55908779Y-113249046D01*
X55906227Y-113251213D01*
X55906216Y-113251222D01*
X55626166Y-113489099D01*
X55626153Y-113489110D01*
X55623608Y-113491273D01*
X55621313Y-113493695D01*
X55621298Y-113493710D01*
X55368608Y-113760472D01*
X55368597Y-113760484D01*
X55366297Y-113762913D01*
X55364269Y-113765580D01*
X55364262Y-113765589D01*
X55141899Y-114058101D01*
X55141886Y-114058119D01*
X55139864Y-114060780D01*
X55138135Y-114063653D01*
X55138130Y-114063661D01*
X54948698Y-114378500D01*
X54948693Y-114378508D01*
X54946964Y-114381383D01*
X54945554Y-114384429D01*
X54945550Y-114384438D01*
X54816682Y-114662982D01*
X54789858Y-114720962D01*
X54788789Y-114724133D01*
X54788784Y-114724147D01*
X54673006Y-115067764D01*
X54670387Y-115075538D01*
X54669666Y-115078811D01*
X54669663Y-115078824D01*
X54590677Y-115437663D01*
X54590674Y-115437676D01*
X54589954Y-115440951D01*
X54589590Y-115444295D01*
X54589590Y-115444297D01*
X54572756Y-115599088D01*
X54549500Y-115812919D01*
X54549500Y-116187081D01*
X49450500Y-116187081D01*
X49450500Y-115812919D01*
X49410046Y-115440951D01*
X49329613Y-115075538D01*
X49210142Y-114720962D01*
X49053036Y-114381383D01*
X48860136Y-114060780D01*
X48858104Y-114058107D01*
X48858100Y-114058101D01*
X48635737Y-113765589D01*
X48633703Y-113762913D01*
X48585646Y-113712180D01*
X48378701Y-113493710D01*
X48378695Y-113493704D01*
X48376392Y-113491273D01*
X48330814Y-113452559D01*
X48093783Y-113251222D01*
X48093780Y-113251220D01*
X48091221Y-113249046D01*
X48088441Y-113247161D01*
X47784306Y-113040953D01*
X47784299Y-113040949D01*
X47781531Y-113039072D01*
X47778569Y-113037501D01*
X47778563Y-113037498D01*
X47453926Y-112865386D01*
X47453924Y-112865385D01*
X47450955Y-112863811D01*
X47447835Y-112862568D01*
X47447831Y-112862566D01*
X47106494Y-112726565D01*
X47106485Y-112726562D01*
X47103368Y-112725320D01*
X47031910Y-112705479D01*
X46746085Y-112626120D01*
X46746074Y-112626117D01*
X46742845Y-112625221D01*
X46739543Y-112624679D01*
X46739531Y-112624677D01*
X46376926Y-112565232D01*
X46376923Y-112565231D01*
X46373613Y-112564689D01*
X46370268Y-112564507D01*
X46370253Y-112564506D01*
X46095136Y-112549590D01*
X46095127Y-112549589D01*
X46093472Y-112549500D01*
X45906528Y-112549500D01*
X45904873Y-112549589D01*
X45904863Y-112549590D01*
X45629746Y-112564506D01*
X45629729Y-112564507D01*
X45626387Y-112564689D01*
X45623078Y-112565231D01*
X45623073Y-112565232D01*
X45260468Y-112624677D01*
X45260452Y-112624680D01*
X45257155Y-112625221D01*
X45253928Y-112626116D01*
X45253914Y-112626120D01*
X44899873Y-112724420D01*
X44896632Y-112725320D01*
X44893519Y-112726560D01*
X44893505Y-112726565D01*
X44552168Y-112862566D01*
X44552157Y-112862570D01*
X44549045Y-112863811D01*
X44546082Y-112865381D01*
X44546073Y-112865386D01*
X44221436Y-113037498D01*
X44221422Y-113037506D01*
X44218469Y-113039072D01*
X44215708Y-113040943D01*
X44215693Y-113040953D01*
X43911558Y-113247161D01*
X43911548Y-113247168D01*
X43908779Y-113249046D01*
X43906227Y-113251213D01*
X43906216Y-113251222D01*
X43626166Y-113489099D01*
X43626153Y-113489110D01*
X43623608Y-113491273D01*
X43621313Y-113493695D01*
X43621298Y-113493710D01*
X43368608Y-113760472D01*
X43368597Y-113760484D01*
X43366297Y-113762913D01*
X43364269Y-113765580D01*
X43364262Y-113765589D01*
X43141899Y-114058101D01*
X43141886Y-114058119D01*
X43139864Y-114060780D01*
X43138135Y-114063653D01*
X43138130Y-114063661D01*
X42948698Y-114378500D01*
X42948693Y-114378508D01*
X42946964Y-114381383D01*
X42945554Y-114384429D01*
X42945550Y-114384438D01*
X42816682Y-114662982D01*
X42789858Y-114720962D01*
X42788789Y-114724133D01*
X42788784Y-114724147D01*
X42673006Y-115067764D01*
X42670387Y-115075538D01*
X42669666Y-115078811D01*
X42669663Y-115078824D01*
X42590677Y-115437663D01*
X42590674Y-115437676D01*
X42589954Y-115440951D01*
X42589590Y-115444295D01*
X42589590Y-115444297D01*
X42572756Y-115599088D01*
X42549500Y-115812919D01*
X42549500Y-116187081D01*
X37450500Y-116187081D01*
X37450500Y-115812919D01*
X37410046Y-115440951D01*
X37329613Y-115075538D01*
X37210142Y-114720962D01*
X37053036Y-114381383D01*
X36860136Y-114060780D01*
X36858104Y-114058107D01*
X36858100Y-114058101D01*
X36635737Y-113765589D01*
X36633703Y-113762913D01*
X36585646Y-113712180D01*
X36378701Y-113493710D01*
X36378695Y-113493704D01*
X36376392Y-113491273D01*
X36330814Y-113452559D01*
X36093783Y-113251222D01*
X36093780Y-113251220D01*
X36091221Y-113249046D01*
X36088441Y-113247161D01*
X35784306Y-113040953D01*
X35784299Y-113040949D01*
X35781531Y-113039072D01*
X35778569Y-113037501D01*
X35778563Y-113037498D01*
X35453926Y-112865386D01*
X35453924Y-112865385D01*
X35450955Y-112863811D01*
X35447835Y-112862568D01*
X35447831Y-112862566D01*
X35106494Y-112726565D01*
X35106485Y-112726562D01*
X35103368Y-112725320D01*
X35031910Y-112705479D01*
X34746085Y-112626120D01*
X34746074Y-112626117D01*
X34742845Y-112625221D01*
X34739543Y-112624679D01*
X34739531Y-112624677D01*
X34376926Y-112565232D01*
X34376923Y-112565231D01*
X34373613Y-112564689D01*
X34370268Y-112564507D01*
X34370253Y-112564506D01*
X34095136Y-112549590D01*
X34095127Y-112549589D01*
X34093472Y-112549500D01*
X33906528Y-112549500D01*
X33904873Y-112549589D01*
X33904863Y-112549590D01*
X33629746Y-112564506D01*
X33629729Y-112564507D01*
X33626387Y-112564689D01*
X33623078Y-112565231D01*
X33623073Y-112565232D01*
X33260468Y-112624677D01*
X33260452Y-112624680D01*
X33257155Y-112625221D01*
X33253928Y-112626116D01*
X33253914Y-112626120D01*
X32899873Y-112724420D01*
X32896632Y-112725320D01*
X32893519Y-112726560D01*
X32893505Y-112726565D01*
X32552168Y-112862566D01*
X32552157Y-112862570D01*
X32549045Y-112863811D01*
X32546082Y-112865381D01*
X32546073Y-112865386D01*
X32221436Y-113037498D01*
X32221422Y-113037506D01*
X32218469Y-113039072D01*
X32215708Y-113040943D01*
X32215693Y-113040953D01*
X31911558Y-113247161D01*
X31911548Y-113247168D01*
X31908779Y-113249046D01*
X31906227Y-113251213D01*
X31906216Y-113251222D01*
X31626166Y-113489099D01*
X31626153Y-113489110D01*
X31623608Y-113491273D01*
X31621313Y-113493695D01*
X31621298Y-113493710D01*
X31368608Y-113760472D01*
X31368597Y-113760484D01*
X31366297Y-113762913D01*
X31364269Y-113765580D01*
X31364262Y-113765589D01*
X31141899Y-114058101D01*
X31141886Y-114058119D01*
X31139864Y-114060780D01*
X31138135Y-114063653D01*
X31138130Y-114063661D01*
X30948698Y-114378500D01*
X30948693Y-114378508D01*
X30946964Y-114381383D01*
X30945554Y-114384429D01*
X30945550Y-114384438D01*
X30816682Y-114662982D01*
X30789858Y-114720962D01*
X30788789Y-114724133D01*
X30788784Y-114724147D01*
X30673006Y-115067764D01*
X30670387Y-115075538D01*
X30669666Y-115078811D01*
X30669663Y-115078824D01*
X30590677Y-115437663D01*
X30590674Y-115437676D01*
X30589954Y-115440951D01*
X30589590Y-115444295D01*
X30589590Y-115444297D01*
X30572756Y-115599088D01*
X30549500Y-115812919D01*
X30549500Y-116187081D01*
X19050500Y-116187081D01*
X19050500Y-99172902D01*
X37845794Y-99172902D01*
X37845921Y-99176868D01*
X37845921Y-99176874D01*
X37850865Y-99331051D01*
X37855673Y-99480978D01*
X37904867Y-99785261D01*
X37992569Y-100080756D01*
X37994178Y-100084391D01*
X37994180Y-100084396D01*
X38115725Y-100358969D01*
X38115729Y-100358977D01*
X38117337Y-100362609D01*
X38119393Y-100366002D01*
X38119397Y-100366008D01*
X38198783Y-100496963D01*
X38277123Y-100626193D01*
X38469304Y-100867181D01*
X38690724Y-101081614D01*
X38693905Y-101083988D01*
X38816088Y-101175176D01*
X38937747Y-101265972D01*
X38941213Y-101267924D01*
X39075821Y-101343734D01*
X39206318Y-101417228D01*
X39210002Y-101418719D01*
X39210001Y-101418719D01*
X39488339Y-101531407D01*
X39488343Y-101531408D01*
X39492025Y-101532899D01*
X39790179Y-101611084D01*
X40095883Y-101650500D01*
X40099855Y-101650500D01*
X40324990Y-101650500D01*
X40326974Y-101650500D01*
X40557601Y-101635693D01*
X40860151Y-101576772D01*
X41152683Y-101479644D01*
X41430393Y-101345907D01*
X41688720Y-101177754D01*
X41923424Y-100977948D01*
X42130650Y-100749769D01*
X42306996Y-100496963D01*
X42449567Y-100223683D01*
X42556020Y-99934415D01*
X42624609Y-99633908D01*
X42654206Y-99327098D01*
X42649261Y-99172902D01*
X47845794Y-99172902D01*
X47845921Y-99176868D01*
X47845921Y-99176874D01*
X47850865Y-99331051D01*
X47855673Y-99480978D01*
X47904867Y-99785261D01*
X47992569Y-100080756D01*
X47994178Y-100084391D01*
X47994180Y-100084396D01*
X48115725Y-100358969D01*
X48115729Y-100358977D01*
X48117337Y-100362609D01*
X48119393Y-100366002D01*
X48119397Y-100366008D01*
X48198783Y-100496963D01*
X48277123Y-100626193D01*
X48469304Y-100867181D01*
X48690724Y-101081614D01*
X48693905Y-101083988D01*
X48816088Y-101175176D01*
X48937747Y-101265972D01*
X48941213Y-101267924D01*
X49075821Y-101343734D01*
X49206318Y-101417228D01*
X49210002Y-101418719D01*
X49210001Y-101418719D01*
X49488339Y-101531407D01*
X49488343Y-101531408D01*
X49492025Y-101532899D01*
X49790179Y-101611084D01*
X50095883Y-101650500D01*
X50099855Y-101650500D01*
X50324990Y-101650500D01*
X50326974Y-101650500D01*
X50557601Y-101635693D01*
X50860151Y-101576772D01*
X51152683Y-101479644D01*
X51430393Y-101345907D01*
X51688720Y-101177754D01*
X51923424Y-100977948D01*
X52130650Y-100749769D01*
X52306996Y-100496963D01*
X52449567Y-100223683D01*
X52556020Y-99934415D01*
X52624609Y-99633908D01*
X52654206Y-99327098D01*
X52649261Y-99172902D01*
X57845794Y-99172902D01*
X57845921Y-99176868D01*
X57845921Y-99176874D01*
X57850865Y-99331051D01*
X57855673Y-99480978D01*
X57904867Y-99785261D01*
X57992569Y-100080756D01*
X57994178Y-100084391D01*
X57994180Y-100084396D01*
X58115725Y-100358969D01*
X58115729Y-100358977D01*
X58117337Y-100362609D01*
X58119393Y-100366002D01*
X58119397Y-100366008D01*
X58198783Y-100496963D01*
X58277123Y-100626193D01*
X58469304Y-100867181D01*
X58690724Y-101081614D01*
X58693905Y-101083988D01*
X58816088Y-101175176D01*
X58937747Y-101265972D01*
X58941213Y-101267924D01*
X59075821Y-101343734D01*
X59206318Y-101417228D01*
X59210002Y-101418719D01*
X59210001Y-101418719D01*
X59488339Y-101531407D01*
X59488343Y-101531408D01*
X59492025Y-101532899D01*
X59790179Y-101611084D01*
X60095883Y-101650500D01*
X60099855Y-101650500D01*
X60324990Y-101650500D01*
X60326974Y-101650500D01*
X60557601Y-101635693D01*
X60860151Y-101576772D01*
X61152683Y-101479644D01*
X61430393Y-101345907D01*
X61688720Y-101177754D01*
X61923424Y-100977948D01*
X62130650Y-100749769D01*
X62306996Y-100496963D01*
X62449567Y-100223683D01*
X62556020Y-99934415D01*
X62624609Y-99633908D01*
X62654206Y-99327098D01*
X62649261Y-99172902D01*
X67845794Y-99172902D01*
X67845921Y-99176868D01*
X67845921Y-99176874D01*
X67850865Y-99331051D01*
X67855673Y-99480978D01*
X67904867Y-99785261D01*
X67992569Y-100080756D01*
X67994178Y-100084391D01*
X67994180Y-100084396D01*
X68115725Y-100358969D01*
X68115729Y-100358977D01*
X68117337Y-100362609D01*
X68119393Y-100366002D01*
X68119397Y-100366008D01*
X68198783Y-100496963D01*
X68277123Y-100626193D01*
X68469304Y-100867181D01*
X68690724Y-101081614D01*
X68693905Y-101083988D01*
X68816088Y-101175176D01*
X68937747Y-101265972D01*
X68941213Y-101267924D01*
X69075821Y-101343734D01*
X69206318Y-101417228D01*
X69210002Y-101418719D01*
X69210001Y-101418719D01*
X69488339Y-101531407D01*
X69488343Y-101531408D01*
X69492025Y-101532899D01*
X69790179Y-101611084D01*
X70095883Y-101650500D01*
X70099855Y-101650500D01*
X70324990Y-101650500D01*
X70326974Y-101650500D01*
X70557601Y-101635693D01*
X70860151Y-101576772D01*
X71152683Y-101479644D01*
X71430393Y-101345907D01*
X71688720Y-101177754D01*
X71923424Y-100977948D01*
X72130650Y-100749769D01*
X72306996Y-100496963D01*
X72449567Y-100223683D01*
X72556020Y-99934415D01*
X72624609Y-99633908D01*
X72654206Y-99327098D01*
X72649261Y-99172902D01*
X77845794Y-99172902D01*
X77845921Y-99176868D01*
X77845921Y-99176874D01*
X77850865Y-99331051D01*
X77855673Y-99480978D01*
X77904867Y-99785261D01*
X77992569Y-100080756D01*
X77994178Y-100084391D01*
X77994180Y-100084396D01*
X78115725Y-100358969D01*
X78115729Y-100358977D01*
X78117337Y-100362609D01*
X78119393Y-100366002D01*
X78119397Y-100366008D01*
X78198783Y-100496963D01*
X78277123Y-100626193D01*
X78469304Y-100867181D01*
X78690724Y-101081614D01*
X78693905Y-101083988D01*
X78816088Y-101175176D01*
X78937747Y-101265972D01*
X78941213Y-101267924D01*
X79075821Y-101343734D01*
X79206318Y-101417228D01*
X79210002Y-101418719D01*
X79210001Y-101418719D01*
X79488339Y-101531407D01*
X79488343Y-101531408D01*
X79492025Y-101532899D01*
X79790179Y-101611084D01*
X80095883Y-101650500D01*
X80099855Y-101650500D01*
X80324990Y-101650500D01*
X80326974Y-101650500D01*
X80557601Y-101635693D01*
X80860151Y-101576772D01*
X81152683Y-101479644D01*
X81430393Y-101345907D01*
X81688720Y-101177754D01*
X81923424Y-100977948D01*
X82130650Y-100749769D01*
X82306996Y-100496963D01*
X82449567Y-100223683D01*
X82556020Y-99934415D01*
X82624609Y-99633908D01*
X82654206Y-99327098D01*
X82649261Y-99172902D01*
X92845794Y-99172902D01*
X92845921Y-99176868D01*
X92845921Y-99176874D01*
X92850865Y-99331051D01*
X92855673Y-99480978D01*
X92904867Y-99785261D01*
X92992569Y-100080756D01*
X92994178Y-100084391D01*
X92994180Y-100084396D01*
X93115725Y-100358969D01*
X93115729Y-100358977D01*
X93117337Y-100362609D01*
X93119393Y-100366002D01*
X93119397Y-100366008D01*
X93198783Y-100496963D01*
X93277123Y-100626193D01*
X93469304Y-100867181D01*
X93690724Y-101081614D01*
X93693905Y-101083988D01*
X93816088Y-101175176D01*
X93937747Y-101265972D01*
X93941213Y-101267924D01*
X94075821Y-101343734D01*
X94206318Y-101417228D01*
X94210002Y-101418719D01*
X94210001Y-101418719D01*
X94488339Y-101531407D01*
X94488343Y-101531408D01*
X94492025Y-101532899D01*
X94790179Y-101611084D01*
X95095883Y-101650500D01*
X95099855Y-101650500D01*
X95324990Y-101650500D01*
X95326974Y-101650500D01*
X95557601Y-101635693D01*
X95860151Y-101576772D01*
X96152683Y-101479644D01*
X96430393Y-101345907D01*
X96688720Y-101177754D01*
X96923424Y-100977948D01*
X97130650Y-100749769D01*
X97306996Y-100496963D01*
X97449567Y-100223683D01*
X97556020Y-99934415D01*
X97624609Y-99633908D01*
X97654206Y-99327098D01*
X97649261Y-99172902D01*
X102845794Y-99172902D01*
X102845921Y-99176868D01*
X102845921Y-99176874D01*
X102850865Y-99331051D01*
X102855673Y-99480978D01*
X102904867Y-99785261D01*
X102992569Y-100080756D01*
X102994178Y-100084391D01*
X102994180Y-100084396D01*
X103115725Y-100358969D01*
X103115729Y-100358977D01*
X103117337Y-100362609D01*
X103119393Y-100366002D01*
X103119397Y-100366008D01*
X103198783Y-100496963D01*
X103277123Y-100626193D01*
X103469304Y-100867181D01*
X103690724Y-101081614D01*
X103693905Y-101083988D01*
X103816088Y-101175176D01*
X103937747Y-101265972D01*
X103941213Y-101267924D01*
X104075821Y-101343734D01*
X104206318Y-101417228D01*
X104210002Y-101418719D01*
X104210001Y-101418719D01*
X104488339Y-101531407D01*
X104488343Y-101531408D01*
X104492025Y-101532899D01*
X104790179Y-101611084D01*
X105095883Y-101650500D01*
X105099855Y-101650500D01*
X105324990Y-101650500D01*
X105326974Y-101650500D01*
X105557601Y-101635693D01*
X105860151Y-101576772D01*
X106152683Y-101479644D01*
X106430393Y-101345907D01*
X106688720Y-101177754D01*
X106923424Y-100977948D01*
X107130650Y-100749769D01*
X107306996Y-100496963D01*
X107449567Y-100223683D01*
X107556020Y-99934415D01*
X107624609Y-99633908D01*
X107654206Y-99327098D01*
X107649261Y-99172902D01*
X112845794Y-99172902D01*
X112845921Y-99176868D01*
X112845921Y-99176874D01*
X112850865Y-99331051D01*
X112855673Y-99480978D01*
X112904867Y-99785261D01*
X112992569Y-100080756D01*
X112994178Y-100084391D01*
X112994180Y-100084396D01*
X113115725Y-100358969D01*
X113115729Y-100358977D01*
X113117337Y-100362609D01*
X113119393Y-100366002D01*
X113119397Y-100366008D01*
X113198783Y-100496963D01*
X113277123Y-100626193D01*
X113469304Y-100867181D01*
X113690724Y-101081614D01*
X113693905Y-101083988D01*
X113816088Y-101175176D01*
X113937747Y-101265972D01*
X113941213Y-101267924D01*
X114075821Y-101343734D01*
X114206318Y-101417228D01*
X114210002Y-101418719D01*
X114210001Y-101418719D01*
X114488339Y-101531407D01*
X114488343Y-101531408D01*
X114492025Y-101532899D01*
X114790179Y-101611084D01*
X115095883Y-101650500D01*
X115099855Y-101650500D01*
X115324990Y-101650500D01*
X115326974Y-101650500D01*
X115557601Y-101635693D01*
X115860151Y-101576772D01*
X116152683Y-101479644D01*
X116430393Y-101345907D01*
X116688720Y-101177754D01*
X116923424Y-100977948D01*
X117130650Y-100749769D01*
X117306996Y-100496963D01*
X117449567Y-100223683D01*
X117556020Y-99934415D01*
X117624609Y-99633908D01*
X117654206Y-99327098D01*
X117649261Y-99172902D01*
X122845794Y-99172902D01*
X122845921Y-99176868D01*
X122845921Y-99176874D01*
X122850865Y-99331051D01*
X122855673Y-99480978D01*
X122904867Y-99785261D01*
X122992569Y-100080756D01*
X122994178Y-100084391D01*
X122994180Y-100084396D01*
X123115725Y-100358969D01*
X123115729Y-100358977D01*
X123117337Y-100362609D01*
X123119393Y-100366002D01*
X123119397Y-100366008D01*
X123198783Y-100496963D01*
X123277123Y-100626193D01*
X123469304Y-100867181D01*
X123690724Y-101081614D01*
X123693905Y-101083988D01*
X123816088Y-101175176D01*
X123937747Y-101265972D01*
X123941213Y-101267924D01*
X124075821Y-101343734D01*
X124206318Y-101417228D01*
X124210002Y-101418719D01*
X124210001Y-101418719D01*
X124488339Y-101531407D01*
X124488343Y-101531408D01*
X124492025Y-101532899D01*
X124790179Y-101611084D01*
X125095883Y-101650500D01*
X125099855Y-101650500D01*
X125324990Y-101650500D01*
X125326974Y-101650500D01*
X125557601Y-101635693D01*
X125860151Y-101576772D01*
X126152683Y-101479644D01*
X126430393Y-101345907D01*
X126688720Y-101177754D01*
X126923424Y-100977948D01*
X127130650Y-100749769D01*
X127306996Y-100496963D01*
X127449567Y-100223683D01*
X127556020Y-99934415D01*
X127624609Y-99633908D01*
X127654206Y-99327098D01*
X127644327Y-99019022D01*
X127595133Y-98714739D01*
X127507431Y-98419244D01*
X127382663Y-98137391D01*
X127222877Y-97873807D01*
X127030696Y-97632819D01*
X126809276Y-97418386D01*
X126806094Y-97416011D01*
X126565444Y-97236409D01*
X126565438Y-97236405D01*
X126562253Y-97234028D01*
X126558790Y-97232078D01*
X126558786Y-97232075D01*
X126297142Y-97084720D01*
X126297134Y-97084716D01*
X126293682Y-97082772D01*
X126290004Y-97081283D01*
X126289998Y-97081280D01*
X126011660Y-96968592D01*
X126011647Y-96968587D01*
X126007975Y-96967101D01*
X126004135Y-96966094D01*
X126004129Y-96966092D01*
X125713664Y-96889923D01*
X125713652Y-96889920D01*
X125709821Y-96888916D01*
X125705884Y-96888408D01*
X125705877Y-96888407D01*
X125408055Y-96850007D01*
X125408043Y-96850006D01*
X125404117Y-96849500D01*
X125173026Y-96849500D01*
X125171053Y-96849626D01*
X125171042Y-96849627D01*
X124946376Y-96864051D01*
X124946365Y-96864052D01*
X124942399Y-96864307D01*
X124938488Y-96865068D01*
X124938485Y-96865069D01*
X124643758Y-96922466D01*
X124643747Y-96922468D01*
X124639849Y-96923228D01*
X124636079Y-96924479D01*
X124636074Y-96924481D01*
X124351093Y-97019102D01*
X124351089Y-97019103D01*
X124347317Y-97020356D01*
X124343737Y-97022079D01*
X124343727Y-97022084D01*
X124073200Y-97152362D01*
X124073191Y-97152366D01*
X124069607Y-97154093D01*
X124066278Y-97156259D01*
X124066269Y-97156265D01*
X123814606Y-97320080D01*
X123814595Y-97320087D01*
X123811280Y-97322246D01*
X123808259Y-97324817D01*
X123808252Y-97324823D01*
X123579609Y-97519469D01*
X123579600Y-97519477D01*
X123576576Y-97522052D01*
X123573910Y-97524986D01*
X123573896Y-97525001D01*
X123372030Y-97747279D01*
X123372023Y-97747287D01*
X123369350Y-97750231D01*
X123367074Y-97753493D01*
X123367069Y-97753500D01*
X123195280Y-97999773D01*
X123195274Y-97999781D01*
X123193004Y-98003037D01*
X123191171Y-98006550D01*
X123191164Y-98006562D01*
X123052272Y-98272791D01*
X123052269Y-98272797D01*
X123050433Y-98276317D01*
X123049064Y-98280035D01*
X123049059Y-98280048D01*
X122945352Y-98561856D01*
X122943980Y-98565585D01*
X122943098Y-98569449D01*
X122943096Y-98569456D01*
X122876277Y-98862209D01*
X122875391Y-98866092D01*
X122875009Y-98870044D01*
X122875008Y-98870055D01*
X122861017Y-99015093D01*
X122845794Y-99172902D01*
X117649261Y-99172902D01*
X117644327Y-99019022D01*
X117595133Y-98714739D01*
X117507431Y-98419244D01*
X117382663Y-98137391D01*
X117222877Y-97873807D01*
X117030696Y-97632819D01*
X116809276Y-97418386D01*
X116806094Y-97416011D01*
X116565444Y-97236409D01*
X116565438Y-97236405D01*
X116562253Y-97234028D01*
X116558790Y-97232078D01*
X116558786Y-97232075D01*
X116297142Y-97084720D01*
X116297134Y-97084716D01*
X116293682Y-97082772D01*
X116290004Y-97081283D01*
X116289998Y-97081280D01*
X116011660Y-96968592D01*
X116011647Y-96968587D01*
X116007975Y-96967101D01*
X116004135Y-96966094D01*
X116004129Y-96966092D01*
X115713664Y-96889923D01*
X115713652Y-96889920D01*
X115709821Y-96888916D01*
X115705884Y-96888408D01*
X115705877Y-96888407D01*
X115408055Y-96850007D01*
X115408043Y-96850006D01*
X115404117Y-96849500D01*
X115173026Y-96849500D01*
X115171053Y-96849626D01*
X115171042Y-96849627D01*
X114946376Y-96864051D01*
X114946365Y-96864052D01*
X114942399Y-96864307D01*
X114938488Y-96865068D01*
X114938485Y-96865069D01*
X114643758Y-96922466D01*
X114643747Y-96922468D01*
X114639849Y-96923228D01*
X114636079Y-96924479D01*
X114636074Y-96924481D01*
X114351093Y-97019102D01*
X114351089Y-97019103D01*
X114347317Y-97020356D01*
X114343737Y-97022079D01*
X114343727Y-97022084D01*
X114073200Y-97152362D01*
X114073191Y-97152366D01*
X114069607Y-97154093D01*
X114066278Y-97156259D01*
X114066269Y-97156265D01*
X113814606Y-97320080D01*
X113814595Y-97320087D01*
X113811280Y-97322246D01*
X113808259Y-97324817D01*
X113808252Y-97324823D01*
X113579609Y-97519469D01*
X113579600Y-97519477D01*
X113576576Y-97522052D01*
X113573910Y-97524986D01*
X113573896Y-97525001D01*
X113372030Y-97747279D01*
X113372023Y-97747287D01*
X113369350Y-97750231D01*
X113367074Y-97753493D01*
X113367069Y-97753500D01*
X113195280Y-97999773D01*
X113195274Y-97999781D01*
X113193004Y-98003037D01*
X113191171Y-98006550D01*
X113191164Y-98006562D01*
X113052272Y-98272791D01*
X113052269Y-98272797D01*
X113050433Y-98276317D01*
X113049064Y-98280035D01*
X113049059Y-98280048D01*
X112945352Y-98561856D01*
X112943980Y-98565585D01*
X112943098Y-98569449D01*
X112943096Y-98569456D01*
X112876277Y-98862209D01*
X112875391Y-98866092D01*
X112875009Y-98870044D01*
X112875008Y-98870055D01*
X112861017Y-99015093D01*
X112845794Y-99172902D01*
X107649261Y-99172902D01*
X107644327Y-99019022D01*
X107595133Y-98714739D01*
X107507431Y-98419244D01*
X107382663Y-98137391D01*
X107222877Y-97873807D01*
X107030696Y-97632819D01*
X106809276Y-97418386D01*
X106806094Y-97416011D01*
X106565444Y-97236409D01*
X106565438Y-97236405D01*
X106562253Y-97234028D01*
X106558790Y-97232078D01*
X106558786Y-97232075D01*
X106297142Y-97084720D01*
X106297134Y-97084716D01*
X106293682Y-97082772D01*
X106290004Y-97081283D01*
X106289998Y-97081280D01*
X106011660Y-96968592D01*
X106011647Y-96968587D01*
X106007975Y-96967101D01*
X106004135Y-96966094D01*
X106004129Y-96966092D01*
X105713664Y-96889923D01*
X105713652Y-96889920D01*
X105709821Y-96888916D01*
X105705884Y-96888408D01*
X105705877Y-96888407D01*
X105408055Y-96850007D01*
X105408043Y-96850006D01*
X105404117Y-96849500D01*
X105173026Y-96849500D01*
X105171053Y-96849626D01*
X105171042Y-96849627D01*
X104946376Y-96864051D01*
X104946365Y-96864052D01*
X104942399Y-96864307D01*
X104938488Y-96865068D01*
X104938485Y-96865069D01*
X104643758Y-96922466D01*
X104643747Y-96922468D01*
X104639849Y-96923228D01*
X104636079Y-96924479D01*
X104636074Y-96924481D01*
X104351093Y-97019102D01*
X104351089Y-97019103D01*
X104347317Y-97020356D01*
X104343737Y-97022079D01*
X104343727Y-97022084D01*
X104073200Y-97152362D01*
X104073191Y-97152366D01*
X104069607Y-97154093D01*
X104066278Y-97156259D01*
X104066269Y-97156265D01*
X103814606Y-97320080D01*
X103814595Y-97320087D01*
X103811280Y-97322246D01*
X103808259Y-97324817D01*
X103808252Y-97324823D01*
X103579609Y-97519469D01*
X103579600Y-97519477D01*
X103576576Y-97522052D01*
X103573910Y-97524986D01*
X103573896Y-97525001D01*
X103372030Y-97747279D01*
X103372023Y-97747287D01*
X103369350Y-97750231D01*
X103367074Y-97753493D01*
X103367069Y-97753500D01*
X103195280Y-97999773D01*
X103195274Y-97999781D01*
X103193004Y-98003037D01*
X103191171Y-98006550D01*
X103191164Y-98006562D01*
X103052272Y-98272791D01*
X103052269Y-98272797D01*
X103050433Y-98276317D01*
X103049064Y-98280035D01*
X103049059Y-98280048D01*
X102945352Y-98561856D01*
X102943980Y-98565585D01*
X102943098Y-98569449D01*
X102943096Y-98569456D01*
X102876277Y-98862209D01*
X102875391Y-98866092D01*
X102875009Y-98870044D01*
X102875008Y-98870055D01*
X102861017Y-99015093D01*
X102845794Y-99172902D01*
X97649261Y-99172902D01*
X97644327Y-99019022D01*
X97595133Y-98714739D01*
X97507431Y-98419244D01*
X97382663Y-98137391D01*
X97222877Y-97873807D01*
X97030696Y-97632819D01*
X96809276Y-97418386D01*
X96806094Y-97416011D01*
X96565444Y-97236409D01*
X96565438Y-97236405D01*
X96562253Y-97234028D01*
X96558790Y-97232078D01*
X96558786Y-97232075D01*
X96297142Y-97084720D01*
X96297134Y-97084716D01*
X96293682Y-97082772D01*
X96290004Y-97081283D01*
X96289998Y-97081280D01*
X96011660Y-96968592D01*
X96011647Y-96968587D01*
X96007975Y-96967101D01*
X96004135Y-96966094D01*
X96004129Y-96966092D01*
X95713664Y-96889923D01*
X95713652Y-96889920D01*
X95709821Y-96888916D01*
X95705884Y-96888408D01*
X95705877Y-96888407D01*
X95408055Y-96850007D01*
X95408043Y-96850006D01*
X95404117Y-96849500D01*
X95173026Y-96849500D01*
X95171053Y-96849626D01*
X95171042Y-96849627D01*
X94946376Y-96864051D01*
X94946365Y-96864052D01*
X94942399Y-96864307D01*
X94938488Y-96865068D01*
X94938485Y-96865069D01*
X94643758Y-96922466D01*
X94643747Y-96922468D01*
X94639849Y-96923228D01*
X94636079Y-96924479D01*
X94636074Y-96924481D01*
X94351093Y-97019102D01*
X94351089Y-97019103D01*
X94347317Y-97020356D01*
X94343737Y-97022079D01*
X94343727Y-97022084D01*
X94073200Y-97152362D01*
X94073191Y-97152366D01*
X94069607Y-97154093D01*
X94066278Y-97156259D01*
X94066269Y-97156265D01*
X93814606Y-97320080D01*
X93814595Y-97320087D01*
X93811280Y-97322246D01*
X93808259Y-97324817D01*
X93808252Y-97324823D01*
X93579609Y-97519469D01*
X93579600Y-97519477D01*
X93576576Y-97522052D01*
X93573910Y-97524986D01*
X93573896Y-97525001D01*
X93372030Y-97747279D01*
X93372023Y-97747287D01*
X93369350Y-97750231D01*
X93367074Y-97753493D01*
X93367069Y-97753500D01*
X93195280Y-97999773D01*
X93195274Y-97999781D01*
X93193004Y-98003037D01*
X93191171Y-98006550D01*
X93191164Y-98006562D01*
X93052272Y-98272791D01*
X93052269Y-98272797D01*
X93050433Y-98276317D01*
X93049064Y-98280035D01*
X93049059Y-98280048D01*
X92945352Y-98561856D01*
X92943980Y-98565585D01*
X92943098Y-98569449D01*
X92943096Y-98569456D01*
X92876277Y-98862209D01*
X92875391Y-98866092D01*
X92875009Y-98870044D01*
X92875008Y-98870055D01*
X92861017Y-99015093D01*
X92845794Y-99172902D01*
X82649261Y-99172902D01*
X82644327Y-99019022D01*
X82595133Y-98714739D01*
X82507431Y-98419244D01*
X82382663Y-98137391D01*
X82222877Y-97873807D01*
X82030696Y-97632819D01*
X81809276Y-97418386D01*
X81806094Y-97416011D01*
X81565444Y-97236409D01*
X81565438Y-97236405D01*
X81562253Y-97234028D01*
X81558790Y-97232078D01*
X81558786Y-97232075D01*
X81297142Y-97084720D01*
X81297134Y-97084716D01*
X81293682Y-97082772D01*
X81290004Y-97081283D01*
X81289998Y-97081280D01*
X81011660Y-96968592D01*
X81011647Y-96968587D01*
X81007975Y-96967101D01*
X81004135Y-96966094D01*
X81004129Y-96966092D01*
X80713664Y-96889923D01*
X80713652Y-96889920D01*
X80709821Y-96888916D01*
X80705884Y-96888408D01*
X80705877Y-96888407D01*
X80408055Y-96850007D01*
X80408043Y-96850006D01*
X80404117Y-96849500D01*
X80173026Y-96849500D01*
X80171053Y-96849626D01*
X80171042Y-96849627D01*
X79946376Y-96864051D01*
X79946365Y-96864052D01*
X79942399Y-96864307D01*
X79938488Y-96865068D01*
X79938485Y-96865069D01*
X79643758Y-96922466D01*
X79643747Y-96922468D01*
X79639849Y-96923228D01*
X79636079Y-96924479D01*
X79636074Y-96924481D01*
X79351093Y-97019102D01*
X79351089Y-97019103D01*
X79347317Y-97020356D01*
X79343737Y-97022079D01*
X79343727Y-97022084D01*
X79073200Y-97152362D01*
X79073191Y-97152366D01*
X79069607Y-97154093D01*
X79066278Y-97156259D01*
X79066269Y-97156265D01*
X78814606Y-97320080D01*
X78814595Y-97320087D01*
X78811280Y-97322246D01*
X78808259Y-97324817D01*
X78808252Y-97324823D01*
X78579609Y-97519469D01*
X78579600Y-97519477D01*
X78576576Y-97522052D01*
X78573910Y-97524986D01*
X78573896Y-97525001D01*
X78372030Y-97747279D01*
X78372023Y-97747287D01*
X78369350Y-97750231D01*
X78367074Y-97753493D01*
X78367069Y-97753500D01*
X78195280Y-97999773D01*
X78195274Y-97999781D01*
X78193004Y-98003037D01*
X78191171Y-98006550D01*
X78191164Y-98006562D01*
X78052272Y-98272791D01*
X78052269Y-98272797D01*
X78050433Y-98276317D01*
X78049064Y-98280035D01*
X78049059Y-98280048D01*
X77945352Y-98561856D01*
X77943980Y-98565585D01*
X77943098Y-98569449D01*
X77943096Y-98569456D01*
X77876277Y-98862209D01*
X77875391Y-98866092D01*
X77875009Y-98870044D01*
X77875008Y-98870055D01*
X77861017Y-99015093D01*
X77845794Y-99172902D01*
X72649261Y-99172902D01*
X72644327Y-99019022D01*
X72595133Y-98714739D01*
X72507431Y-98419244D01*
X72382663Y-98137391D01*
X72222877Y-97873807D01*
X72030696Y-97632819D01*
X71809276Y-97418386D01*
X71806094Y-97416011D01*
X71565444Y-97236409D01*
X71565438Y-97236405D01*
X71562253Y-97234028D01*
X71558790Y-97232078D01*
X71558786Y-97232075D01*
X71297142Y-97084720D01*
X71297134Y-97084716D01*
X71293682Y-97082772D01*
X71290004Y-97081283D01*
X71289998Y-97081280D01*
X71011660Y-96968592D01*
X71011647Y-96968587D01*
X71007975Y-96967101D01*
X71004135Y-96966094D01*
X71004129Y-96966092D01*
X70713664Y-96889923D01*
X70713652Y-96889920D01*
X70709821Y-96888916D01*
X70705884Y-96888408D01*
X70705877Y-96888407D01*
X70408055Y-96850007D01*
X70408043Y-96850006D01*
X70404117Y-96849500D01*
X70173026Y-96849500D01*
X70171053Y-96849626D01*
X70171042Y-96849627D01*
X69946376Y-96864051D01*
X69946365Y-96864052D01*
X69942399Y-96864307D01*
X69938488Y-96865068D01*
X69938485Y-96865069D01*
X69643758Y-96922466D01*
X69643747Y-96922468D01*
X69639849Y-96923228D01*
X69636079Y-96924479D01*
X69636074Y-96924481D01*
X69351093Y-97019102D01*
X69351089Y-97019103D01*
X69347317Y-97020356D01*
X69343737Y-97022079D01*
X69343727Y-97022084D01*
X69073200Y-97152362D01*
X69073191Y-97152366D01*
X69069607Y-97154093D01*
X69066278Y-97156259D01*
X69066269Y-97156265D01*
X68814606Y-97320080D01*
X68814595Y-97320087D01*
X68811280Y-97322246D01*
X68808259Y-97324817D01*
X68808252Y-97324823D01*
X68579609Y-97519469D01*
X68579600Y-97519477D01*
X68576576Y-97522052D01*
X68573910Y-97524986D01*
X68573896Y-97525001D01*
X68372030Y-97747279D01*
X68372023Y-97747287D01*
X68369350Y-97750231D01*
X68367074Y-97753493D01*
X68367069Y-97753500D01*
X68195280Y-97999773D01*
X68195274Y-97999781D01*
X68193004Y-98003037D01*
X68191171Y-98006550D01*
X68191164Y-98006562D01*
X68052272Y-98272791D01*
X68052269Y-98272797D01*
X68050433Y-98276317D01*
X68049064Y-98280035D01*
X68049059Y-98280048D01*
X67945352Y-98561856D01*
X67943980Y-98565585D01*
X67943098Y-98569449D01*
X67943096Y-98569456D01*
X67876277Y-98862209D01*
X67875391Y-98866092D01*
X67875009Y-98870044D01*
X67875008Y-98870055D01*
X67861017Y-99015093D01*
X67845794Y-99172902D01*
X62649261Y-99172902D01*
X62644327Y-99019022D01*
X62595133Y-98714739D01*
X62507431Y-98419244D01*
X62382663Y-98137391D01*
X62222877Y-97873807D01*
X62030696Y-97632819D01*
X61809276Y-97418386D01*
X61806094Y-97416011D01*
X61565444Y-97236409D01*
X61565438Y-97236405D01*
X61562253Y-97234028D01*
X61558790Y-97232078D01*
X61558786Y-97232075D01*
X61297142Y-97084720D01*
X61297134Y-97084716D01*
X61293682Y-97082772D01*
X61290004Y-97081283D01*
X61289998Y-97081280D01*
X61011660Y-96968592D01*
X61011647Y-96968587D01*
X61007975Y-96967101D01*
X61004135Y-96966094D01*
X61004129Y-96966092D01*
X60713664Y-96889923D01*
X60713652Y-96889920D01*
X60709821Y-96888916D01*
X60705884Y-96888408D01*
X60705877Y-96888407D01*
X60408055Y-96850007D01*
X60408043Y-96850006D01*
X60404117Y-96849500D01*
X60173026Y-96849500D01*
X60171053Y-96849626D01*
X60171042Y-96849627D01*
X59946376Y-96864051D01*
X59946365Y-96864052D01*
X59942399Y-96864307D01*
X59938488Y-96865068D01*
X59938485Y-96865069D01*
X59643758Y-96922466D01*
X59643747Y-96922468D01*
X59639849Y-96923228D01*
X59636079Y-96924479D01*
X59636074Y-96924481D01*
X59351093Y-97019102D01*
X59351089Y-97019103D01*
X59347317Y-97020356D01*
X59343737Y-97022079D01*
X59343727Y-97022084D01*
X59073200Y-97152362D01*
X59073191Y-97152366D01*
X59069607Y-97154093D01*
X59066278Y-97156259D01*
X59066269Y-97156265D01*
X58814606Y-97320080D01*
X58814595Y-97320087D01*
X58811280Y-97322246D01*
X58808259Y-97324817D01*
X58808252Y-97324823D01*
X58579609Y-97519469D01*
X58579600Y-97519477D01*
X58576576Y-97522052D01*
X58573910Y-97524986D01*
X58573896Y-97525001D01*
X58372030Y-97747279D01*
X58372023Y-97747287D01*
X58369350Y-97750231D01*
X58367074Y-97753493D01*
X58367069Y-97753500D01*
X58195280Y-97999773D01*
X58195274Y-97999781D01*
X58193004Y-98003037D01*
X58191171Y-98006550D01*
X58191164Y-98006562D01*
X58052272Y-98272791D01*
X58052269Y-98272797D01*
X58050433Y-98276317D01*
X58049064Y-98280035D01*
X58049059Y-98280048D01*
X57945352Y-98561856D01*
X57943980Y-98565585D01*
X57943098Y-98569449D01*
X57943096Y-98569456D01*
X57876277Y-98862209D01*
X57875391Y-98866092D01*
X57875009Y-98870044D01*
X57875008Y-98870055D01*
X57861017Y-99015093D01*
X57845794Y-99172902D01*
X52649261Y-99172902D01*
X52644327Y-99019022D01*
X52595133Y-98714739D01*
X52507431Y-98419244D01*
X52382663Y-98137391D01*
X52222877Y-97873807D01*
X52030696Y-97632819D01*
X51809276Y-97418386D01*
X51806094Y-97416011D01*
X51565444Y-97236409D01*
X51565438Y-97236405D01*
X51562253Y-97234028D01*
X51558790Y-97232078D01*
X51558786Y-97232075D01*
X51297142Y-97084720D01*
X51297134Y-97084716D01*
X51293682Y-97082772D01*
X51290004Y-97081283D01*
X51289998Y-97081280D01*
X51011660Y-96968592D01*
X51011647Y-96968587D01*
X51007975Y-96967101D01*
X51004135Y-96966094D01*
X51004129Y-96966092D01*
X50713664Y-96889923D01*
X50713652Y-96889920D01*
X50709821Y-96888916D01*
X50705884Y-96888408D01*
X50705877Y-96888407D01*
X50408055Y-96850007D01*
X50408043Y-96850006D01*
X50404117Y-96849500D01*
X50173026Y-96849500D01*
X50171053Y-96849626D01*
X50171042Y-96849627D01*
X49946376Y-96864051D01*
X49946365Y-96864052D01*
X49942399Y-96864307D01*
X49938488Y-96865068D01*
X49938485Y-96865069D01*
X49643758Y-96922466D01*
X49643747Y-96922468D01*
X49639849Y-96923228D01*
X49636079Y-96924479D01*
X49636074Y-96924481D01*
X49351093Y-97019102D01*
X49351089Y-97019103D01*
X49347317Y-97020356D01*
X49343737Y-97022079D01*
X49343727Y-97022084D01*
X49073200Y-97152362D01*
X49073191Y-97152366D01*
X49069607Y-97154093D01*
X49066278Y-97156259D01*
X49066269Y-97156265D01*
X48814606Y-97320080D01*
X48814595Y-97320087D01*
X48811280Y-97322246D01*
X48808259Y-97324817D01*
X48808252Y-97324823D01*
X48579609Y-97519469D01*
X48579600Y-97519477D01*
X48576576Y-97522052D01*
X48573910Y-97524986D01*
X48573896Y-97525001D01*
X48372030Y-97747279D01*
X48372023Y-97747287D01*
X48369350Y-97750231D01*
X48367074Y-97753493D01*
X48367069Y-97753500D01*
X48195280Y-97999773D01*
X48195274Y-97999781D01*
X48193004Y-98003037D01*
X48191171Y-98006550D01*
X48191164Y-98006562D01*
X48052272Y-98272791D01*
X48052269Y-98272797D01*
X48050433Y-98276317D01*
X48049064Y-98280035D01*
X48049059Y-98280048D01*
X47945352Y-98561856D01*
X47943980Y-98565585D01*
X47943098Y-98569449D01*
X47943096Y-98569456D01*
X47876277Y-98862209D01*
X47875391Y-98866092D01*
X47875009Y-98870044D01*
X47875008Y-98870055D01*
X47861017Y-99015093D01*
X47845794Y-99172902D01*
X42649261Y-99172902D01*
X42644327Y-99019022D01*
X42595133Y-98714739D01*
X42507431Y-98419244D01*
X42382663Y-98137391D01*
X42222877Y-97873807D01*
X42030696Y-97632819D01*
X41809276Y-97418386D01*
X41806094Y-97416011D01*
X41565444Y-97236409D01*
X41565438Y-97236405D01*
X41562253Y-97234028D01*
X41558790Y-97232078D01*
X41558786Y-97232075D01*
X41297142Y-97084720D01*
X41297134Y-97084716D01*
X41293682Y-97082772D01*
X41290004Y-97081283D01*
X41289998Y-97081280D01*
X41011660Y-96968592D01*
X41011647Y-96968587D01*
X41007975Y-96967101D01*
X41004135Y-96966094D01*
X41004129Y-96966092D01*
X40713664Y-96889923D01*
X40713652Y-96889920D01*
X40709821Y-96888916D01*
X40705884Y-96888408D01*
X40705877Y-96888407D01*
X40408055Y-96850007D01*
X40408043Y-96850006D01*
X40404117Y-96849500D01*
X40173026Y-96849500D01*
X40171053Y-96849626D01*
X40171042Y-96849627D01*
X39946376Y-96864051D01*
X39946365Y-96864052D01*
X39942399Y-96864307D01*
X39938488Y-96865068D01*
X39938485Y-96865069D01*
X39643758Y-96922466D01*
X39643747Y-96922468D01*
X39639849Y-96923228D01*
X39636079Y-96924479D01*
X39636074Y-96924481D01*
X39351093Y-97019102D01*
X39351089Y-97019103D01*
X39347317Y-97020356D01*
X39343737Y-97022079D01*
X39343727Y-97022084D01*
X39073200Y-97152362D01*
X39073191Y-97152366D01*
X39069607Y-97154093D01*
X39066278Y-97156259D01*
X39066269Y-97156265D01*
X38814606Y-97320080D01*
X38814595Y-97320087D01*
X38811280Y-97322246D01*
X38808259Y-97324817D01*
X38808252Y-97324823D01*
X38579609Y-97519469D01*
X38579600Y-97519477D01*
X38576576Y-97522052D01*
X38573910Y-97524986D01*
X38573896Y-97525001D01*
X38372030Y-97747279D01*
X38372023Y-97747287D01*
X38369350Y-97750231D01*
X38367074Y-97753493D01*
X38367069Y-97753500D01*
X38195280Y-97999773D01*
X38195274Y-97999781D01*
X38193004Y-98003037D01*
X38191171Y-98006550D01*
X38191164Y-98006562D01*
X38052272Y-98272791D01*
X38052269Y-98272797D01*
X38050433Y-98276317D01*
X38049064Y-98280035D01*
X38049059Y-98280048D01*
X37945352Y-98561856D01*
X37943980Y-98565585D01*
X37943098Y-98569449D01*
X37943096Y-98569456D01*
X37876277Y-98862209D01*
X37875391Y-98866092D01*
X37875009Y-98870044D01*
X37875008Y-98870055D01*
X37861017Y-99015093D01*
X37845794Y-99172902D01*
X19050500Y-99172902D01*
X19050500Y-87172902D01*
X37845794Y-87172902D01*
X37845921Y-87176868D01*
X37845921Y-87176874D01*
X37854465Y-87443318D01*
X37855673Y-87480978D01*
X37856307Y-87484905D01*
X37856308Y-87484906D01*
X37900243Y-87756663D01*
X37904867Y-87785261D01*
X37905997Y-87789068D01*
X37945005Y-87920500D01*
X37992569Y-88080756D01*
X37994178Y-88084391D01*
X37994180Y-88084396D01*
X38115725Y-88358969D01*
X38115729Y-88358977D01*
X38117337Y-88362609D01*
X38119393Y-88366002D01*
X38119397Y-88366008D01*
X38198783Y-88496963D01*
X38277123Y-88626193D01*
X38469304Y-88867181D01*
X38690724Y-89081614D01*
X38693905Y-89083988D01*
X38816088Y-89175176D01*
X38937747Y-89265972D01*
X38941213Y-89267924D01*
X39075821Y-89343734D01*
X39206318Y-89417228D01*
X39210002Y-89418719D01*
X39210001Y-89418719D01*
X39488339Y-89531407D01*
X39488343Y-89531408D01*
X39492025Y-89532899D01*
X39790179Y-89611084D01*
X40095883Y-89650500D01*
X40099855Y-89650500D01*
X40324990Y-89650500D01*
X40326974Y-89650500D01*
X40557601Y-89635693D01*
X40860151Y-89576772D01*
X41152683Y-89479644D01*
X41430393Y-89345907D01*
X41688720Y-89177754D01*
X41923424Y-88977948D01*
X42130650Y-88749769D01*
X42306996Y-88496963D01*
X42449567Y-88223683D01*
X42556020Y-87934415D01*
X42624609Y-87633908D01*
X42654206Y-87327098D01*
X42649261Y-87172902D01*
X47845794Y-87172902D01*
X47845921Y-87176868D01*
X47845921Y-87176874D01*
X47854465Y-87443318D01*
X47855673Y-87480978D01*
X47856307Y-87484905D01*
X47856308Y-87484906D01*
X47900243Y-87756663D01*
X47904867Y-87785261D01*
X47905997Y-87789068D01*
X47945005Y-87920500D01*
X47992569Y-88080756D01*
X47994178Y-88084391D01*
X47994180Y-88084396D01*
X48115725Y-88358969D01*
X48115729Y-88358977D01*
X48117337Y-88362609D01*
X48119393Y-88366002D01*
X48119397Y-88366008D01*
X48198783Y-88496963D01*
X48277123Y-88626193D01*
X48469304Y-88867181D01*
X48690724Y-89081614D01*
X48693905Y-89083988D01*
X48816088Y-89175176D01*
X48937747Y-89265972D01*
X48941213Y-89267924D01*
X49075821Y-89343734D01*
X49206318Y-89417228D01*
X49210002Y-89418719D01*
X49210001Y-89418719D01*
X49488339Y-89531407D01*
X49488343Y-89531408D01*
X49492025Y-89532899D01*
X49790179Y-89611084D01*
X50095883Y-89650500D01*
X50099855Y-89650500D01*
X50324990Y-89650500D01*
X50326974Y-89650500D01*
X50557601Y-89635693D01*
X50860151Y-89576772D01*
X51152683Y-89479644D01*
X51430393Y-89345907D01*
X51688720Y-89177754D01*
X51923424Y-88977948D01*
X52130650Y-88749769D01*
X52306996Y-88496963D01*
X52449567Y-88223683D01*
X52556020Y-87934415D01*
X52624609Y-87633908D01*
X52654206Y-87327098D01*
X52649261Y-87172902D01*
X57845794Y-87172902D01*
X57845921Y-87176868D01*
X57845921Y-87176874D01*
X57854465Y-87443318D01*
X57855673Y-87480978D01*
X57856307Y-87484905D01*
X57856308Y-87484906D01*
X57900243Y-87756663D01*
X57904867Y-87785261D01*
X57905997Y-87789068D01*
X57945005Y-87920500D01*
X57992569Y-88080756D01*
X57994178Y-88084391D01*
X57994180Y-88084396D01*
X58115725Y-88358969D01*
X58115729Y-88358977D01*
X58117337Y-88362609D01*
X58119393Y-88366002D01*
X58119397Y-88366008D01*
X58198783Y-88496963D01*
X58277123Y-88626193D01*
X58469304Y-88867181D01*
X58690724Y-89081614D01*
X58693905Y-89083988D01*
X58816088Y-89175176D01*
X58937747Y-89265972D01*
X58941213Y-89267924D01*
X59075821Y-89343734D01*
X59206318Y-89417228D01*
X59210002Y-89418719D01*
X59210001Y-89418719D01*
X59488339Y-89531407D01*
X59488343Y-89531408D01*
X59492025Y-89532899D01*
X59790179Y-89611084D01*
X60095883Y-89650500D01*
X60099855Y-89650500D01*
X60324990Y-89650500D01*
X60326974Y-89650500D01*
X60557601Y-89635693D01*
X60860151Y-89576772D01*
X61152683Y-89479644D01*
X61430393Y-89345907D01*
X61688720Y-89177754D01*
X61923424Y-88977948D01*
X62130650Y-88749769D01*
X62306996Y-88496963D01*
X62449567Y-88223683D01*
X62556020Y-87934415D01*
X62624609Y-87633908D01*
X62654206Y-87327098D01*
X62649261Y-87172902D01*
X67845794Y-87172902D01*
X67845921Y-87176868D01*
X67845921Y-87176874D01*
X67854465Y-87443318D01*
X67855673Y-87480978D01*
X67856307Y-87484905D01*
X67856308Y-87484906D01*
X67900243Y-87756663D01*
X67904867Y-87785261D01*
X67905997Y-87789068D01*
X67945005Y-87920500D01*
X67992569Y-88080756D01*
X67994178Y-88084391D01*
X67994180Y-88084396D01*
X68115725Y-88358969D01*
X68115729Y-88358977D01*
X68117337Y-88362609D01*
X68119393Y-88366002D01*
X68119397Y-88366008D01*
X68198783Y-88496963D01*
X68277123Y-88626193D01*
X68469304Y-88867181D01*
X68690724Y-89081614D01*
X68693905Y-89083988D01*
X68816088Y-89175176D01*
X68937747Y-89265972D01*
X68941213Y-89267924D01*
X69075821Y-89343734D01*
X69206318Y-89417228D01*
X69210002Y-89418719D01*
X69210001Y-89418719D01*
X69488339Y-89531407D01*
X69488343Y-89531408D01*
X69492025Y-89532899D01*
X69790179Y-89611084D01*
X70095883Y-89650500D01*
X70099855Y-89650500D01*
X70324990Y-89650500D01*
X70326974Y-89650500D01*
X70557601Y-89635693D01*
X70860151Y-89576772D01*
X71152683Y-89479644D01*
X71430393Y-89345907D01*
X71688720Y-89177754D01*
X71923424Y-88977948D01*
X72130650Y-88749769D01*
X72306996Y-88496963D01*
X72449567Y-88223683D01*
X72556020Y-87934415D01*
X72624609Y-87633908D01*
X72654206Y-87327098D01*
X72649261Y-87172902D01*
X77845794Y-87172902D01*
X77845921Y-87176868D01*
X77845921Y-87176874D01*
X77854465Y-87443318D01*
X77855673Y-87480978D01*
X77856307Y-87484905D01*
X77856308Y-87484906D01*
X77900243Y-87756663D01*
X77904867Y-87785261D01*
X77905997Y-87789068D01*
X77945005Y-87920500D01*
X77992569Y-88080756D01*
X77994178Y-88084391D01*
X77994180Y-88084396D01*
X78115725Y-88358969D01*
X78115729Y-88358977D01*
X78117337Y-88362609D01*
X78119393Y-88366002D01*
X78119397Y-88366008D01*
X78198783Y-88496963D01*
X78277123Y-88626193D01*
X78469304Y-88867181D01*
X78690724Y-89081614D01*
X78693905Y-89083988D01*
X78816088Y-89175176D01*
X78937747Y-89265972D01*
X78941213Y-89267924D01*
X79075821Y-89343734D01*
X79206318Y-89417228D01*
X79210002Y-89418719D01*
X79210001Y-89418719D01*
X79488339Y-89531407D01*
X79488343Y-89531408D01*
X79492025Y-89532899D01*
X79790179Y-89611084D01*
X80095883Y-89650500D01*
X80099855Y-89650500D01*
X80324990Y-89650500D01*
X80326974Y-89650500D01*
X80557601Y-89635693D01*
X80860151Y-89576772D01*
X81152683Y-89479644D01*
X81430393Y-89345907D01*
X81688720Y-89177754D01*
X81923424Y-88977948D01*
X82130650Y-88749769D01*
X82306996Y-88496963D01*
X82449567Y-88223683D01*
X82556020Y-87934415D01*
X82624609Y-87633908D01*
X82654206Y-87327098D01*
X82644327Y-87019022D01*
X82620010Y-86868615D01*
X94344939Y-86868615D01*
X94348903Y-86908864D01*
X94349500Y-86921018D01*
X94349500Y-86934526D01*
X94349502Y-86934543D01*
X94349502Y-87007532D01*
X94360642Y-87070715D01*
X94359327Y-87082498D01*
X94365269Y-87102084D01*
X94368724Y-87116547D01*
X94379901Y-87179937D01*
X94408174Y-87257618D01*
X94409002Y-87270658D01*
X94417131Y-87285866D01*
X94424295Y-87301908D01*
X94439777Y-87344445D01*
X94488585Y-87428983D01*
X94492062Y-87443318D01*
X94501800Y-87455183D01*
X94513334Y-87471848D01*
X94529932Y-87500597D01*
X94539366Y-87514550D01*
X94541249Y-87518074D01*
X94559696Y-87534651D01*
X94598921Y-87581398D01*
X94605490Y-87596410D01*
X94615934Y-87604981D01*
X94632256Y-87621125D01*
X94639839Y-87630162D01*
X94648868Y-87637738D01*
X94665015Y-87654062D01*
X94669144Y-87659094D01*
X94688601Y-87671078D01*
X94735347Y-87710303D01*
X94745245Y-87725180D01*
X94755446Y-87730632D01*
X94769404Y-87740069D01*
X94798146Y-87756663D01*
X94814813Y-87768197D01*
X94821757Y-87773896D01*
X94841008Y-87781409D01*
X94847680Y-87785261D01*
X94925556Y-87830223D01*
X94968106Y-87845710D01*
X94984142Y-87852870D01*
X94994325Y-87858313D01*
X95012381Y-87861825D01*
X95090063Y-87890099D01*
X95153466Y-87901278D01*
X95167922Y-87904732D01*
X95182503Y-87909155D01*
X95199293Y-87909358D01*
X95262468Y-87920498D01*
X95348982Y-87920498D01*
X95361136Y-87921095D01*
X95394266Y-87924357D01*
X95417051Y-87920498D01*
X125282717Y-87920498D01*
X125298341Y-87925085D01*
X125338839Y-87921097D01*
X125350994Y-87920500D01*
X125437532Y-87920500D01*
X125437533Y-87920500D01*
X125500571Y-87909384D01*
X125512392Y-87910702D01*
X125532051Y-87904739D01*
X125546509Y-87901284D01*
X125609938Y-87890100D01*
X125687541Y-87861854D01*
X125700595Y-87861025D01*
X125715827Y-87852884D01*
X125731863Y-87845723D01*
X125774445Y-87830225D01*
X125774447Y-87830223D01*
X125774449Y-87830223D01*
X125858948Y-87781437D01*
X125873291Y-87777957D01*
X125885164Y-87768213D01*
X125901830Y-87756679D01*
X125904870Y-87754923D01*
X125926056Y-87742692D01*
X125926057Y-87742690D01*
X125930581Y-87740079D01*
X125944571Y-87730620D01*
X125948093Y-87728737D01*
X125964672Y-87710288D01*
X126011377Y-87671099D01*
X126026391Y-87664528D01*
X126034965Y-87654081D01*
X126051109Y-87637759D01*
X126060164Y-87630162D01*
X126067761Y-87621107D01*
X126084081Y-87604965D01*
X126089111Y-87600836D01*
X126101098Y-87581377D01*
X126140288Y-87534672D01*
X126155166Y-87524773D01*
X126160621Y-87514569D01*
X126170077Y-87500584D01*
X126172690Y-87496056D01*
X126172693Y-87496054D01*
X126186683Y-87471821D01*
X126198213Y-87455164D01*
X126203913Y-87448218D01*
X126211434Y-87428951D01*
X126260225Y-87344444D01*
X126275721Y-87301868D01*
X126282881Y-87285833D01*
X126288334Y-87275631D01*
X126291851Y-87257549D01*
X126320101Y-87179936D01*
X126331285Y-87116503D01*
X126334741Y-87102042D01*
X126339177Y-87087416D01*
X126339381Y-87070586D01*
X126350500Y-87007531D01*
X126350500Y-86920994D01*
X126351096Y-86908857D01*
X126354365Y-86875670D01*
X126350500Y-86852854D01*
X126350500Y-86641561D01*
X130692306Y-86641561D01*
X130698439Y-86688145D01*
X130699500Y-86704323D01*
X130699500Y-86756393D01*
X130701251Y-86764064D01*
X130699797Y-86787787D01*
X130711092Y-86815056D01*
X130717422Y-86834915D01*
X130724597Y-86866354D01*
X130735017Y-86887991D01*
X130739281Y-86913891D01*
X130753538Y-86932471D01*
X130766882Y-86954157D01*
X130773531Y-86967965D01*
X130796966Y-86997351D01*
X130807805Y-87023901D01*
X130822420Y-87035116D01*
X130843812Y-87056112D01*
X130843819Y-87056118D01*
X130843850Y-87056150D01*
X130843883Y-87056182D01*
X130843888Y-87056188D01*
X130864882Y-87077578D01*
X130871527Y-87086238D01*
X130876170Y-87086878D01*
X130902647Y-87103032D01*
X130919542Y-87116506D01*
X130932033Y-87126467D01*
X130945843Y-87133118D01*
X130967529Y-87146462D01*
X130978504Y-87154883D01*
X130980321Y-87154690D01*
X131012009Y-87164981D01*
X131033649Y-87175403D01*
X131065081Y-87182577D01*
X131084943Y-87188907D01*
X131102138Y-87196029D01*
X131135934Y-87198748D01*
X131143607Y-87200500D01*
X131143608Y-87200500D01*
X131195677Y-87200500D01*
X131211862Y-87201561D01*
X131246546Y-87206127D01*
X131282937Y-87200500D01*
X133417062Y-87200500D01*
X133441558Y-87207693D01*
X133488137Y-87201561D01*
X133504322Y-87200500D01*
X133556391Y-87200500D01*
X133556393Y-87200500D01*
X133564064Y-87198749D01*
X133587784Y-87200202D01*
X133615052Y-87188908D01*
X133634911Y-87182578D01*
X133666351Y-87175403D01*
X133687986Y-87164983D01*
X133713891Y-87160717D01*
X133732466Y-87146465D01*
X133754149Y-87133121D01*
X133767967Y-87126467D01*
X133797350Y-87103034D01*
X133823901Y-87092194D01*
X133835115Y-87077581D01*
X133856114Y-87056186D01*
X133856119Y-87056180D01*
X133856149Y-87056149D01*
X133856180Y-87056119D01*
X133856186Y-87056114D01*
X133877581Y-87035115D01*
X133886242Y-87028469D01*
X133886882Y-87023823D01*
X133903035Y-86997349D01*
X133926466Y-86967968D01*
X133926465Y-86967968D01*
X133926467Y-86967967D01*
X133933121Y-86954149D01*
X133946465Y-86932466D01*
X133954887Y-86921489D01*
X133954693Y-86919664D01*
X133964984Y-86887986D01*
X133975403Y-86866351D01*
X133978431Y-86853083D01*
X133982578Y-86834911D01*
X133988908Y-86815052D01*
X133996028Y-86797862D01*
X133998749Y-86764064D01*
X134000500Y-86756393D01*
X134000500Y-86704307D01*
X134001560Y-86688134D01*
X134006126Y-86653453D01*
X134000500Y-86617061D01*
X134000500Y-73982937D01*
X134007693Y-73958440D01*
X134001561Y-73911862D01*
X134000500Y-73895677D01*
X134000500Y-73870695D01*
X134000500Y-73843607D01*
X133998749Y-73835935D01*
X134000202Y-73812211D01*
X133988907Y-73784943D01*
X133982577Y-73765081D01*
X133975403Y-73733650D01*
X133975401Y-73733646D01*
X133964981Y-73712009D01*
X133960716Y-73686105D01*
X133946462Y-73667529D01*
X133933118Y-73645843D01*
X133926467Y-73632033D01*
X133903033Y-73602648D01*
X133892193Y-73576096D01*
X133877578Y-73564882D01*
X133856188Y-73543888D01*
X133856182Y-73543883D01*
X133856150Y-73543850D01*
X133856118Y-73543819D01*
X133856112Y-73543812D01*
X133835116Y-73522420D01*
X133828468Y-73513756D01*
X133823819Y-73513116D01*
X133797351Y-73496966D01*
X133767965Y-73473531D01*
X133754157Y-73466882D01*
X133732471Y-73453538D01*
X133721489Y-73445111D01*
X133719665Y-73445306D01*
X133687991Y-73435017D01*
X133666354Y-73424597D01*
X133634915Y-73417422D01*
X133615056Y-73411092D01*
X133597866Y-73403972D01*
X133564065Y-73401251D01*
X133556393Y-73399500D01*
X133504330Y-73399500D01*
X133488145Y-73398439D01*
X133453453Y-73393871D01*
X133417063Y-73399500D01*
X131282936Y-73399500D01*
X131258437Y-73392306D01*
X131211854Y-73398439D01*
X131195669Y-73399500D01*
X131143606Y-73399500D01*
X131135929Y-73401252D01*
X131112211Y-73399797D01*
X131084939Y-73411094D01*
X131065080Y-73417423D01*
X131033646Y-73424597D01*
X131012007Y-73435018D01*
X130986104Y-73439282D01*
X130967525Y-73453539D01*
X130945842Y-73466883D01*
X130932028Y-73473535D01*
X130902644Y-73496968D01*
X130876094Y-73507806D01*
X130864879Y-73522423D01*
X130843884Y-73543815D01*
X130843880Y-73543821D01*
X130843850Y-73543850D01*
X130843821Y-73543880D01*
X130843817Y-73543883D01*
X130822423Y-73564879D01*
X130813757Y-73571528D01*
X130813118Y-73576173D01*
X130796968Y-73602644D01*
X130773535Y-73632028D01*
X130766883Y-73645842D01*
X130753539Y-73667525D01*
X130745112Y-73678506D01*
X130745307Y-73680333D01*
X130735018Y-73712007D01*
X130724597Y-73733646D01*
X130717423Y-73765080D01*
X130711094Y-73784939D01*
X130703970Y-73802135D01*
X130701252Y-73835929D01*
X130699500Y-73843606D01*
X130699500Y-73895668D01*
X130698439Y-73911853D01*
X130693871Y-73946544D01*
X130699500Y-73982936D01*
X130699500Y-86617062D01*
X130692306Y-86641561D01*
X126350500Y-86641561D01*
X126350500Y-72987277D01*
X126355086Y-72971656D01*
X126351099Y-72931167D01*
X126350502Y-72919014D01*
X126350502Y-72832467D01*
X126350502Y-72832466D01*
X126339382Y-72769403D01*
X126340699Y-72757591D01*
X126334742Y-72737953D01*
X126331286Y-72723489D01*
X126331279Y-72723447D01*
X126320102Y-72660060D01*
X126291848Y-72582435D01*
X126291019Y-72569381D01*
X126282878Y-72554151D01*
X126275714Y-72538107D01*
X126260226Y-72495553D01*
X126211434Y-72411044D01*
X126207955Y-72396700D01*
X126198212Y-72384829D01*
X126186678Y-72368165D01*
X126170083Y-72339421D01*
X126160620Y-72325426D01*
X126158737Y-72321903D01*
X126140286Y-72305321D01*
X126101107Y-72258629D01*
X126094533Y-72243608D01*
X126084077Y-72235027D01*
X126067755Y-72218881D01*
X126060166Y-72209837D01*
X126051135Y-72202259D01*
X126051108Y-72202236D01*
X126034964Y-72185915D01*
X126030834Y-72180883D01*
X126011371Y-72168893D01*
X125994023Y-72154336D01*
X125964672Y-72129707D01*
X125954773Y-72114829D01*
X125944569Y-72109375D01*
X125930566Y-72099908D01*
X125901830Y-72083317D01*
X125885167Y-72071785D01*
X125878217Y-72066082D01*
X125858945Y-72058559D01*
X125774445Y-72009773D01*
X125774445Y-72009772D01*
X125731883Y-71994281D01*
X125715850Y-71987122D01*
X125705646Y-71981667D01*
X125687560Y-71978149D01*
X125655067Y-71966323D01*
X125609938Y-71949897D01*
X125546509Y-71938713D01*
X125532046Y-71935258D01*
X125517415Y-71930819D01*
X125500589Y-71930615D01*
X125437536Y-71919498D01*
X125437532Y-71919498D01*
X125351022Y-71919498D01*
X125338867Y-71918901D01*
X125305680Y-71915632D01*
X125282861Y-71919498D01*
X95416912Y-71919498D01*
X95401377Y-71914936D01*
X95361127Y-71918901D01*
X95348972Y-71919498D01*
X95326026Y-71919498D01*
X95326016Y-71919500D01*
X95262467Y-71919500D01*
X95199293Y-71930639D01*
X95187503Y-71929324D01*
X95167915Y-71935266D01*
X95153455Y-71938721D01*
X95090063Y-71949899D01*
X95012374Y-71978175D01*
X94999334Y-71979003D01*
X94984123Y-71987134D01*
X94968085Y-71994295D01*
X94949284Y-72001138D01*
X94925555Y-72009775D01*
X94841005Y-72058590D01*
X94826667Y-72062067D01*
X94814805Y-72071803D01*
X94798144Y-72083335D01*
X94769393Y-72099934D01*
X94755454Y-72109358D01*
X94751934Y-72111239D01*
X94735353Y-72129688D01*
X94688600Y-72168919D01*
X94673583Y-72175490D01*
X94665009Y-72185939D01*
X94648867Y-72202259D01*
X94639837Y-72209835D01*
X94632261Y-72218865D01*
X94615941Y-72235007D01*
X94610911Y-72239134D01*
X94598921Y-72258598D01*
X94559693Y-72305348D01*
X94544816Y-72315245D01*
X94539361Y-72325451D01*
X94529928Y-72339403D01*
X94513335Y-72368144D01*
X94501803Y-72384807D01*
X94496102Y-72391753D01*
X94488589Y-72411007D01*
X94439774Y-72495556D01*
X94424299Y-72538075D01*
X94417137Y-72554115D01*
X94411689Y-72564307D01*
X94408175Y-72582373D01*
X94379900Y-72660058D01*
X94368723Y-72723447D01*
X94365268Y-72737909D01*
X94360843Y-72752493D01*
X94360640Y-72769286D01*
X94349500Y-72832464D01*
X94349500Y-72918978D01*
X94348903Y-72931131D01*
X94345639Y-72964271D01*
X94349500Y-72987050D01*
X94349500Y-86853083D01*
X94344939Y-86868615D01*
X82620010Y-86868615D01*
X82595133Y-86714739D01*
X82507431Y-86419244D01*
X82382663Y-86137391D01*
X82222877Y-85873807D01*
X82030696Y-85632819D01*
X81809276Y-85418386D01*
X81806094Y-85416011D01*
X81565444Y-85236409D01*
X81565438Y-85236405D01*
X81562253Y-85234028D01*
X81558790Y-85232078D01*
X81558786Y-85232075D01*
X81297142Y-85084720D01*
X81297134Y-85084716D01*
X81293682Y-85082772D01*
X81290004Y-85081283D01*
X81289998Y-85081280D01*
X81011660Y-84968592D01*
X81011647Y-84968587D01*
X81007975Y-84967101D01*
X81004135Y-84966094D01*
X81004129Y-84966092D01*
X80713664Y-84889923D01*
X80713652Y-84889920D01*
X80709821Y-84888916D01*
X80705884Y-84888408D01*
X80705877Y-84888407D01*
X80408055Y-84850007D01*
X80408043Y-84850006D01*
X80404117Y-84849500D01*
X80173026Y-84849500D01*
X80171053Y-84849626D01*
X80171042Y-84849627D01*
X79946376Y-84864051D01*
X79946365Y-84864052D01*
X79942399Y-84864307D01*
X79938488Y-84865068D01*
X79938485Y-84865069D01*
X79643758Y-84922466D01*
X79643747Y-84922468D01*
X79639849Y-84923228D01*
X79636079Y-84924479D01*
X79636074Y-84924481D01*
X79351093Y-85019102D01*
X79351089Y-85019103D01*
X79347317Y-85020356D01*
X79343737Y-85022079D01*
X79343727Y-85022084D01*
X79073200Y-85152362D01*
X79073191Y-85152366D01*
X79069607Y-85154093D01*
X79066278Y-85156259D01*
X79066269Y-85156265D01*
X78814606Y-85320080D01*
X78814595Y-85320087D01*
X78811280Y-85322246D01*
X78808259Y-85324817D01*
X78808252Y-85324823D01*
X78579609Y-85519469D01*
X78579600Y-85519477D01*
X78576576Y-85522052D01*
X78573910Y-85524986D01*
X78573896Y-85525001D01*
X78372030Y-85747279D01*
X78372023Y-85747287D01*
X78369350Y-85750231D01*
X78367074Y-85753493D01*
X78367069Y-85753500D01*
X78195280Y-85999773D01*
X78195274Y-85999781D01*
X78193004Y-86003037D01*
X78191171Y-86006550D01*
X78191164Y-86006562D01*
X78052272Y-86272791D01*
X78052269Y-86272797D01*
X78050433Y-86276317D01*
X78049064Y-86280035D01*
X78049059Y-86280048D01*
X77945352Y-86561856D01*
X77943980Y-86565585D01*
X77943098Y-86569449D01*
X77943096Y-86569456D01*
X77882507Y-86834914D01*
X77875391Y-86866092D01*
X77875009Y-86870044D01*
X77875008Y-86870055D01*
X77846175Y-87168948D01*
X77845794Y-87172902D01*
X72649261Y-87172902D01*
X72644327Y-87019022D01*
X72595133Y-86714739D01*
X72507431Y-86419244D01*
X72382663Y-86137391D01*
X72222877Y-85873807D01*
X72030696Y-85632819D01*
X71809276Y-85418386D01*
X71806094Y-85416011D01*
X71565444Y-85236409D01*
X71565438Y-85236405D01*
X71562253Y-85234028D01*
X71558790Y-85232078D01*
X71558786Y-85232075D01*
X71297142Y-85084720D01*
X71297134Y-85084716D01*
X71293682Y-85082772D01*
X71290004Y-85081283D01*
X71289998Y-85081280D01*
X71011660Y-84968592D01*
X71011647Y-84968587D01*
X71007975Y-84967101D01*
X71004135Y-84966094D01*
X71004129Y-84966092D01*
X70713664Y-84889923D01*
X70713652Y-84889920D01*
X70709821Y-84888916D01*
X70705884Y-84888408D01*
X70705877Y-84888407D01*
X70408055Y-84850007D01*
X70408043Y-84850006D01*
X70404117Y-84849500D01*
X70173026Y-84849500D01*
X70171053Y-84849626D01*
X70171042Y-84849627D01*
X69946376Y-84864051D01*
X69946365Y-84864052D01*
X69942399Y-84864307D01*
X69938488Y-84865068D01*
X69938485Y-84865069D01*
X69643758Y-84922466D01*
X69643747Y-84922468D01*
X69639849Y-84923228D01*
X69636079Y-84924479D01*
X69636074Y-84924481D01*
X69351093Y-85019102D01*
X69351089Y-85019103D01*
X69347317Y-85020356D01*
X69343737Y-85022079D01*
X69343727Y-85022084D01*
X69073200Y-85152362D01*
X69073191Y-85152366D01*
X69069607Y-85154093D01*
X69066278Y-85156259D01*
X69066269Y-85156265D01*
X68814606Y-85320080D01*
X68814595Y-85320087D01*
X68811280Y-85322246D01*
X68808259Y-85324817D01*
X68808252Y-85324823D01*
X68579609Y-85519469D01*
X68579600Y-85519477D01*
X68576576Y-85522052D01*
X68573910Y-85524986D01*
X68573896Y-85525001D01*
X68372030Y-85747279D01*
X68372023Y-85747287D01*
X68369350Y-85750231D01*
X68367074Y-85753493D01*
X68367069Y-85753500D01*
X68195280Y-85999773D01*
X68195274Y-85999781D01*
X68193004Y-86003037D01*
X68191171Y-86006550D01*
X68191164Y-86006562D01*
X68052272Y-86272791D01*
X68052269Y-86272797D01*
X68050433Y-86276317D01*
X68049064Y-86280035D01*
X68049059Y-86280048D01*
X67945352Y-86561856D01*
X67943980Y-86565585D01*
X67943098Y-86569449D01*
X67943096Y-86569456D01*
X67882507Y-86834914D01*
X67875391Y-86866092D01*
X67875009Y-86870044D01*
X67875008Y-86870055D01*
X67846175Y-87168948D01*
X67845794Y-87172902D01*
X62649261Y-87172902D01*
X62644327Y-87019022D01*
X62595133Y-86714739D01*
X62507431Y-86419244D01*
X62382663Y-86137391D01*
X62222877Y-85873807D01*
X62030696Y-85632819D01*
X61809276Y-85418386D01*
X61806094Y-85416011D01*
X61565444Y-85236409D01*
X61565438Y-85236405D01*
X61562253Y-85234028D01*
X61558790Y-85232078D01*
X61558786Y-85232075D01*
X61297142Y-85084720D01*
X61297134Y-85084716D01*
X61293682Y-85082772D01*
X61290004Y-85081283D01*
X61289998Y-85081280D01*
X61011660Y-84968592D01*
X61011647Y-84968587D01*
X61007975Y-84967101D01*
X61004135Y-84966094D01*
X61004129Y-84966092D01*
X60713664Y-84889923D01*
X60713652Y-84889920D01*
X60709821Y-84888916D01*
X60705884Y-84888408D01*
X60705877Y-84888407D01*
X60408055Y-84850007D01*
X60408043Y-84850006D01*
X60404117Y-84849500D01*
X60173026Y-84849500D01*
X60171053Y-84849626D01*
X60171042Y-84849627D01*
X59946376Y-84864051D01*
X59946365Y-84864052D01*
X59942399Y-84864307D01*
X59938488Y-84865068D01*
X59938485Y-84865069D01*
X59643758Y-84922466D01*
X59643747Y-84922468D01*
X59639849Y-84923228D01*
X59636079Y-84924479D01*
X59636074Y-84924481D01*
X59351093Y-85019102D01*
X59351089Y-85019103D01*
X59347317Y-85020356D01*
X59343737Y-85022079D01*
X59343727Y-85022084D01*
X59073200Y-85152362D01*
X59073191Y-85152366D01*
X59069607Y-85154093D01*
X59066278Y-85156259D01*
X59066269Y-85156265D01*
X58814606Y-85320080D01*
X58814595Y-85320087D01*
X58811280Y-85322246D01*
X58808259Y-85324817D01*
X58808252Y-85324823D01*
X58579609Y-85519469D01*
X58579600Y-85519477D01*
X58576576Y-85522052D01*
X58573910Y-85524986D01*
X58573896Y-85525001D01*
X58372030Y-85747279D01*
X58372023Y-85747287D01*
X58369350Y-85750231D01*
X58367074Y-85753493D01*
X58367069Y-85753500D01*
X58195280Y-85999773D01*
X58195274Y-85999781D01*
X58193004Y-86003037D01*
X58191171Y-86006550D01*
X58191164Y-86006562D01*
X58052272Y-86272791D01*
X58052269Y-86272797D01*
X58050433Y-86276317D01*
X58049064Y-86280035D01*
X58049059Y-86280048D01*
X57945352Y-86561856D01*
X57943980Y-86565585D01*
X57943098Y-86569449D01*
X57943096Y-86569456D01*
X57882507Y-86834914D01*
X57875391Y-86866092D01*
X57875009Y-86870044D01*
X57875008Y-86870055D01*
X57846175Y-87168948D01*
X57845794Y-87172902D01*
X52649261Y-87172902D01*
X52644327Y-87019022D01*
X52595133Y-86714739D01*
X52507431Y-86419244D01*
X52382663Y-86137391D01*
X52222877Y-85873807D01*
X52030696Y-85632819D01*
X51809276Y-85418386D01*
X51806094Y-85416011D01*
X51565444Y-85236409D01*
X51565438Y-85236405D01*
X51562253Y-85234028D01*
X51558790Y-85232078D01*
X51558786Y-85232075D01*
X51297142Y-85084720D01*
X51297134Y-85084716D01*
X51293682Y-85082772D01*
X51290004Y-85081283D01*
X51289998Y-85081280D01*
X51011660Y-84968592D01*
X51011647Y-84968587D01*
X51007975Y-84967101D01*
X51004135Y-84966094D01*
X51004129Y-84966092D01*
X50713664Y-84889923D01*
X50713652Y-84889920D01*
X50709821Y-84888916D01*
X50705884Y-84888408D01*
X50705877Y-84888407D01*
X50408055Y-84850007D01*
X50408043Y-84850006D01*
X50404117Y-84849500D01*
X50173026Y-84849500D01*
X50171053Y-84849626D01*
X50171042Y-84849627D01*
X49946376Y-84864051D01*
X49946365Y-84864052D01*
X49942399Y-84864307D01*
X49938488Y-84865068D01*
X49938485Y-84865069D01*
X49643758Y-84922466D01*
X49643747Y-84922468D01*
X49639849Y-84923228D01*
X49636079Y-84924479D01*
X49636074Y-84924481D01*
X49351093Y-85019102D01*
X49351089Y-85019103D01*
X49347317Y-85020356D01*
X49343737Y-85022079D01*
X49343727Y-85022084D01*
X49073200Y-85152362D01*
X49073191Y-85152366D01*
X49069607Y-85154093D01*
X49066278Y-85156259D01*
X49066269Y-85156265D01*
X48814606Y-85320080D01*
X48814595Y-85320087D01*
X48811280Y-85322246D01*
X48808259Y-85324817D01*
X48808252Y-85324823D01*
X48579609Y-85519469D01*
X48579600Y-85519477D01*
X48576576Y-85522052D01*
X48573910Y-85524986D01*
X48573896Y-85525001D01*
X48372030Y-85747279D01*
X48372023Y-85747287D01*
X48369350Y-85750231D01*
X48367074Y-85753493D01*
X48367069Y-85753500D01*
X48195280Y-85999773D01*
X48195274Y-85999781D01*
X48193004Y-86003037D01*
X48191171Y-86006550D01*
X48191164Y-86006562D01*
X48052272Y-86272791D01*
X48052269Y-86272797D01*
X48050433Y-86276317D01*
X48049064Y-86280035D01*
X48049059Y-86280048D01*
X47945352Y-86561856D01*
X47943980Y-86565585D01*
X47943098Y-86569449D01*
X47943096Y-86569456D01*
X47882507Y-86834914D01*
X47875391Y-86866092D01*
X47875009Y-86870044D01*
X47875008Y-86870055D01*
X47846175Y-87168948D01*
X47845794Y-87172902D01*
X42649261Y-87172902D01*
X42644327Y-87019022D01*
X42595133Y-86714739D01*
X42507431Y-86419244D01*
X42382663Y-86137391D01*
X42222877Y-85873807D01*
X42030696Y-85632819D01*
X41809276Y-85418386D01*
X41806094Y-85416011D01*
X41565444Y-85236409D01*
X41565438Y-85236405D01*
X41562253Y-85234028D01*
X41558790Y-85232078D01*
X41558786Y-85232075D01*
X41297142Y-85084720D01*
X41297134Y-85084716D01*
X41293682Y-85082772D01*
X41290004Y-85081283D01*
X41289998Y-85081280D01*
X41011660Y-84968592D01*
X41011647Y-84968587D01*
X41007975Y-84967101D01*
X41004135Y-84966094D01*
X41004129Y-84966092D01*
X40713664Y-84889923D01*
X40713652Y-84889920D01*
X40709821Y-84888916D01*
X40705884Y-84888408D01*
X40705877Y-84888407D01*
X40408055Y-84850007D01*
X40408043Y-84850006D01*
X40404117Y-84849500D01*
X40173026Y-84849500D01*
X40171053Y-84849626D01*
X40171042Y-84849627D01*
X39946376Y-84864051D01*
X39946365Y-84864052D01*
X39942399Y-84864307D01*
X39938488Y-84865068D01*
X39938485Y-84865069D01*
X39643758Y-84922466D01*
X39643747Y-84922468D01*
X39639849Y-84923228D01*
X39636079Y-84924479D01*
X39636074Y-84924481D01*
X39351093Y-85019102D01*
X39351089Y-85019103D01*
X39347317Y-85020356D01*
X39343737Y-85022079D01*
X39343727Y-85022084D01*
X39073200Y-85152362D01*
X39073191Y-85152366D01*
X39069607Y-85154093D01*
X39066278Y-85156259D01*
X39066269Y-85156265D01*
X38814606Y-85320080D01*
X38814595Y-85320087D01*
X38811280Y-85322246D01*
X38808259Y-85324817D01*
X38808252Y-85324823D01*
X38579609Y-85519469D01*
X38579600Y-85519477D01*
X38576576Y-85522052D01*
X38573910Y-85524986D01*
X38573896Y-85525001D01*
X38372030Y-85747279D01*
X38372023Y-85747287D01*
X38369350Y-85750231D01*
X38367074Y-85753493D01*
X38367069Y-85753500D01*
X38195280Y-85999773D01*
X38195274Y-85999781D01*
X38193004Y-86003037D01*
X38191171Y-86006550D01*
X38191164Y-86006562D01*
X38052272Y-86272791D01*
X38052269Y-86272797D01*
X38050433Y-86276317D01*
X38049064Y-86280035D01*
X38049059Y-86280048D01*
X37945352Y-86561856D01*
X37943980Y-86565585D01*
X37943098Y-86569449D01*
X37943096Y-86569456D01*
X37882507Y-86834914D01*
X37875391Y-86866092D01*
X37875009Y-86870044D01*
X37875008Y-86870055D01*
X37846175Y-87168948D01*
X37845794Y-87172902D01*
X19050500Y-87172902D01*
X19050500Y-75172902D01*
X37845794Y-75172902D01*
X37845921Y-75176868D01*
X37845921Y-75176874D01*
X37850865Y-75331051D01*
X37855673Y-75480978D01*
X37904867Y-75785261D01*
X37992569Y-76080756D01*
X37994178Y-76084391D01*
X37994180Y-76084396D01*
X38115725Y-76358969D01*
X38115729Y-76358977D01*
X38117337Y-76362609D01*
X38119393Y-76366002D01*
X38119397Y-76366008D01*
X38198783Y-76496963D01*
X38277123Y-76626193D01*
X38469304Y-76867181D01*
X38690724Y-77081614D01*
X38693905Y-77083988D01*
X38816088Y-77175176D01*
X38937747Y-77265972D01*
X38941213Y-77267924D01*
X39075821Y-77343734D01*
X39206318Y-77417228D01*
X39210002Y-77418719D01*
X39210001Y-77418719D01*
X39488339Y-77531407D01*
X39488343Y-77531408D01*
X39492025Y-77532899D01*
X39790179Y-77611084D01*
X40095883Y-77650500D01*
X40099855Y-77650500D01*
X40324990Y-77650500D01*
X40326974Y-77650500D01*
X40557601Y-77635693D01*
X40860151Y-77576772D01*
X41152683Y-77479644D01*
X41430393Y-77345907D01*
X41688720Y-77177754D01*
X41923424Y-76977948D01*
X42130650Y-76749769D01*
X42306996Y-76496963D01*
X42449567Y-76223683D01*
X42556020Y-75934415D01*
X42624609Y-75633908D01*
X42654206Y-75327098D01*
X42649261Y-75172902D01*
X47845794Y-75172902D01*
X47845921Y-75176868D01*
X47845921Y-75176874D01*
X47850865Y-75331051D01*
X47855673Y-75480978D01*
X47904867Y-75785261D01*
X47992569Y-76080756D01*
X47994178Y-76084391D01*
X47994180Y-76084396D01*
X48115725Y-76358969D01*
X48115729Y-76358977D01*
X48117337Y-76362609D01*
X48119393Y-76366002D01*
X48119397Y-76366008D01*
X48198783Y-76496963D01*
X48277123Y-76626193D01*
X48469304Y-76867181D01*
X48690724Y-77081614D01*
X48693905Y-77083988D01*
X48816088Y-77175176D01*
X48937747Y-77265972D01*
X48941213Y-77267924D01*
X49075821Y-77343734D01*
X49206318Y-77417228D01*
X49210002Y-77418719D01*
X49210001Y-77418719D01*
X49488339Y-77531407D01*
X49488343Y-77531408D01*
X49492025Y-77532899D01*
X49790179Y-77611084D01*
X50095883Y-77650500D01*
X50099855Y-77650500D01*
X50324990Y-77650500D01*
X50326974Y-77650500D01*
X50557601Y-77635693D01*
X50860151Y-77576772D01*
X51152683Y-77479644D01*
X51430393Y-77345907D01*
X51688720Y-77177754D01*
X51923424Y-76977948D01*
X52130650Y-76749769D01*
X52306996Y-76496963D01*
X52449567Y-76223683D01*
X52556020Y-75934415D01*
X52624609Y-75633908D01*
X52654206Y-75327098D01*
X52649261Y-75172902D01*
X57845794Y-75172902D01*
X57845921Y-75176868D01*
X57845921Y-75176874D01*
X57850865Y-75331051D01*
X57855673Y-75480978D01*
X57904867Y-75785261D01*
X57992569Y-76080756D01*
X57994178Y-76084391D01*
X57994180Y-76084396D01*
X58115725Y-76358969D01*
X58115729Y-76358977D01*
X58117337Y-76362609D01*
X58119393Y-76366002D01*
X58119397Y-76366008D01*
X58198783Y-76496963D01*
X58277123Y-76626193D01*
X58469304Y-76867181D01*
X58690724Y-77081614D01*
X58693905Y-77083988D01*
X58816088Y-77175176D01*
X58937747Y-77265972D01*
X58941213Y-77267924D01*
X59075821Y-77343734D01*
X59206318Y-77417228D01*
X59210002Y-77418719D01*
X59210001Y-77418719D01*
X59488339Y-77531407D01*
X59488343Y-77531408D01*
X59492025Y-77532899D01*
X59790179Y-77611084D01*
X60095883Y-77650500D01*
X60099855Y-77650500D01*
X60324990Y-77650500D01*
X60326974Y-77650500D01*
X60557601Y-77635693D01*
X60860151Y-77576772D01*
X61152683Y-77479644D01*
X61430393Y-77345907D01*
X61688720Y-77177754D01*
X61923424Y-76977948D01*
X62130650Y-76749769D01*
X62306996Y-76496963D01*
X62449567Y-76223683D01*
X62556020Y-75934415D01*
X62624609Y-75633908D01*
X62654206Y-75327098D01*
X62649261Y-75172902D01*
X67845794Y-75172902D01*
X67845921Y-75176868D01*
X67845921Y-75176874D01*
X67850865Y-75331051D01*
X67855673Y-75480978D01*
X67904867Y-75785261D01*
X67992569Y-76080756D01*
X67994178Y-76084391D01*
X67994180Y-76084396D01*
X68115725Y-76358969D01*
X68115729Y-76358977D01*
X68117337Y-76362609D01*
X68119393Y-76366002D01*
X68119397Y-76366008D01*
X68198783Y-76496963D01*
X68277123Y-76626193D01*
X68469304Y-76867181D01*
X68690724Y-77081614D01*
X68693905Y-77083988D01*
X68816088Y-77175176D01*
X68937747Y-77265972D01*
X68941213Y-77267924D01*
X69075821Y-77343734D01*
X69206318Y-77417228D01*
X69210002Y-77418719D01*
X69210001Y-77418719D01*
X69488339Y-77531407D01*
X69488343Y-77531408D01*
X69492025Y-77532899D01*
X69790179Y-77611084D01*
X70095883Y-77650500D01*
X70099855Y-77650500D01*
X70324990Y-77650500D01*
X70326974Y-77650500D01*
X70557601Y-77635693D01*
X70860151Y-77576772D01*
X71152683Y-77479644D01*
X71430393Y-77345907D01*
X71688720Y-77177754D01*
X71923424Y-76977948D01*
X72130650Y-76749769D01*
X72306996Y-76496963D01*
X72449567Y-76223683D01*
X72556020Y-75934415D01*
X72624609Y-75633908D01*
X72654206Y-75327098D01*
X72649261Y-75172902D01*
X77845794Y-75172902D01*
X77845921Y-75176868D01*
X77845921Y-75176874D01*
X77850865Y-75331051D01*
X77855673Y-75480978D01*
X77904867Y-75785261D01*
X77992569Y-76080756D01*
X77994178Y-76084391D01*
X77994180Y-76084396D01*
X78115725Y-76358969D01*
X78115729Y-76358977D01*
X78117337Y-76362609D01*
X78119393Y-76366002D01*
X78119397Y-76366008D01*
X78198783Y-76496963D01*
X78277123Y-76626193D01*
X78469304Y-76867181D01*
X78690724Y-77081614D01*
X78693905Y-77083988D01*
X78816088Y-77175176D01*
X78937747Y-77265972D01*
X78941213Y-77267924D01*
X79075821Y-77343734D01*
X79206318Y-77417228D01*
X79210002Y-77418719D01*
X79210001Y-77418719D01*
X79488339Y-77531407D01*
X79488343Y-77531408D01*
X79492025Y-77532899D01*
X79790179Y-77611084D01*
X80095883Y-77650500D01*
X80099855Y-77650500D01*
X80324990Y-77650500D01*
X80326974Y-77650500D01*
X80557601Y-77635693D01*
X80860151Y-77576772D01*
X81152683Y-77479644D01*
X81430393Y-77345907D01*
X81688720Y-77177754D01*
X81923424Y-76977948D01*
X82130650Y-76749769D01*
X82306996Y-76496963D01*
X82449567Y-76223683D01*
X82556020Y-75934415D01*
X82624609Y-75633908D01*
X82654206Y-75327098D01*
X82644327Y-75019022D01*
X82595133Y-74714739D01*
X82507431Y-74419244D01*
X82382663Y-74137391D01*
X82222877Y-73873807D01*
X82030696Y-73632819D01*
X81907753Y-73513756D01*
X81812127Y-73421147D01*
X81812126Y-73421146D01*
X81809276Y-73418386D01*
X81806094Y-73416011D01*
X81565444Y-73236409D01*
X81565438Y-73236405D01*
X81562253Y-73234028D01*
X81558790Y-73232078D01*
X81558786Y-73232075D01*
X81297142Y-73084720D01*
X81297134Y-73084716D01*
X81293682Y-73082772D01*
X81290004Y-73081283D01*
X81289998Y-73081280D01*
X81011660Y-72968592D01*
X81011647Y-72968587D01*
X81007975Y-72967101D01*
X81004135Y-72966094D01*
X81004129Y-72966092D01*
X80713664Y-72889923D01*
X80713652Y-72889920D01*
X80709821Y-72888916D01*
X80705884Y-72888408D01*
X80705877Y-72888407D01*
X80408055Y-72850007D01*
X80408043Y-72850006D01*
X80404117Y-72849500D01*
X80173026Y-72849500D01*
X80171053Y-72849626D01*
X80171042Y-72849627D01*
X79946376Y-72864051D01*
X79946365Y-72864052D01*
X79942399Y-72864307D01*
X79938488Y-72865068D01*
X79938485Y-72865069D01*
X79643758Y-72922466D01*
X79643747Y-72922468D01*
X79639849Y-72923228D01*
X79636079Y-72924479D01*
X79636074Y-72924481D01*
X79351093Y-73019102D01*
X79351089Y-73019103D01*
X79347317Y-73020356D01*
X79343737Y-73022079D01*
X79343727Y-73022084D01*
X79073200Y-73152362D01*
X79073191Y-73152366D01*
X79069607Y-73154093D01*
X79066278Y-73156259D01*
X79066269Y-73156265D01*
X78814606Y-73320080D01*
X78814595Y-73320087D01*
X78811280Y-73322246D01*
X78808259Y-73324817D01*
X78808252Y-73324823D01*
X78579609Y-73519469D01*
X78579600Y-73519477D01*
X78576576Y-73522052D01*
X78573910Y-73524986D01*
X78573896Y-73525001D01*
X78372030Y-73747279D01*
X78372023Y-73747287D01*
X78369350Y-73750231D01*
X78367074Y-73753493D01*
X78367069Y-73753500D01*
X78195280Y-73999773D01*
X78195274Y-73999781D01*
X78193004Y-74003037D01*
X78191171Y-74006550D01*
X78191164Y-74006562D01*
X78052272Y-74272791D01*
X78052269Y-74272797D01*
X78050433Y-74276317D01*
X78049064Y-74280035D01*
X78049059Y-74280048D01*
X77945352Y-74561856D01*
X77943980Y-74565585D01*
X77943098Y-74569449D01*
X77943096Y-74569456D01*
X77876277Y-74862209D01*
X77875391Y-74866092D01*
X77875009Y-74870044D01*
X77875008Y-74870055D01*
X77861017Y-75015093D01*
X77845794Y-75172902D01*
X72649261Y-75172902D01*
X72644327Y-75019022D01*
X72595133Y-74714739D01*
X72507431Y-74419244D01*
X72382663Y-74137391D01*
X72222877Y-73873807D01*
X72030696Y-73632819D01*
X71907753Y-73513756D01*
X71812127Y-73421147D01*
X71812126Y-73421146D01*
X71809276Y-73418386D01*
X71806094Y-73416011D01*
X71565444Y-73236409D01*
X71565438Y-73236405D01*
X71562253Y-73234028D01*
X71558790Y-73232078D01*
X71558786Y-73232075D01*
X71297142Y-73084720D01*
X71297134Y-73084716D01*
X71293682Y-73082772D01*
X71290004Y-73081283D01*
X71289998Y-73081280D01*
X71011660Y-72968592D01*
X71011647Y-72968587D01*
X71007975Y-72967101D01*
X71004135Y-72966094D01*
X71004129Y-72966092D01*
X70713664Y-72889923D01*
X70713652Y-72889920D01*
X70709821Y-72888916D01*
X70705884Y-72888408D01*
X70705877Y-72888407D01*
X70408055Y-72850007D01*
X70408043Y-72850006D01*
X70404117Y-72849500D01*
X70173026Y-72849500D01*
X70171053Y-72849626D01*
X70171042Y-72849627D01*
X69946376Y-72864051D01*
X69946365Y-72864052D01*
X69942399Y-72864307D01*
X69938488Y-72865068D01*
X69938485Y-72865069D01*
X69643758Y-72922466D01*
X69643747Y-72922468D01*
X69639849Y-72923228D01*
X69636079Y-72924479D01*
X69636074Y-72924481D01*
X69351093Y-73019102D01*
X69351089Y-73019103D01*
X69347317Y-73020356D01*
X69343737Y-73022079D01*
X69343727Y-73022084D01*
X69073200Y-73152362D01*
X69073191Y-73152366D01*
X69069607Y-73154093D01*
X69066278Y-73156259D01*
X69066269Y-73156265D01*
X68814606Y-73320080D01*
X68814595Y-73320087D01*
X68811280Y-73322246D01*
X68808259Y-73324817D01*
X68808252Y-73324823D01*
X68579609Y-73519469D01*
X68579600Y-73519477D01*
X68576576Y-73522052D01*
X68573910Y-73524986D01*
X68573896Y-73525001D01*
X68372030Y-73747279D01*
X68372023Y-73747287D01*
X68369350Y-73750231D01*
X68367074Y-73753493D01*
X68367069Y-73753500D01*
X68195280Y-73999773D01*
X68195274Y-73999781D01*
X68193004Y-74003037D01*
X68191171Y-74006550D01*
X68191164Y-74006562D01*
X68052272Y-74272791D01*
X68052269Y-74272797D01*
X68050433Y-74276317D01*
X68049064Y-74280035D01*
X68049059Y-74280048D01*
X67945352Y-74561856D01*
X67943980Y-74565585D01*
X67943098Y-74569449D01*
X67943096Y-74569456D01*
X67876277Y-74862209D01*
X67875391Y-74866092D01*
X67875009Y-74870044D01*
X67875008Y-74870055D01*
X67861017Y-75015093D01*
X67845794Y-75172902D01*
X62649261Y-75172902D01*
X62644327Y-75019022D01*
X62595133Y-74714739D01*
X62507431Y-74419244D01*
X62382663Y-74137391D01*
X62222877Y-73873807D01*
X62030696Y-73632819D01*
X61907753Y-73513756D01*
X61812127Y-73421147D01*
X61812126Y-73421146D01*
X61809276Y-73418386D01*
X61806094Y-73416011D01*
X61565444Y-73236409D01*
X61565438Y-73236405D01*
X61562253Y-73234028D01*
X61558790Y-73232078D01*
X61558786Y-73232075D01*
X61297142Y-73084720D01*
X61297134Y-73084716D01*
X61293682Y-73082772D01*
X61290004Y-73081283D01*
X61289998Y-73081280D01*
X61011660Y-72968592D01*
X61011647Y-72968587D01*
X61007975Y-72967101D01*
X61004135Y-72966094D01*
X61004129Y-72966092D01*
X60713664Y-72889923D01*
X60713652Y-72889920D01*
X60709821Y-72888916D01*
X60705884Y-72888408D01*
X60705877Y-72888407D01*
X60408055Y-72850007D01*
X60408043Y-72850006D01*
X60404117Y-72849500D01*
X60173026Y-72849500D01*
X60171053Y-72849626D01*
X60171042Y-72849627D01*
X59946376Y-72864051D01*
X59946365Y-72864052D01*
X59942399Y-72864307D01*
X59938488Y-72865068D01*
X59938485Y-72865069D01*
X59643758Y-72922466D01*
X59643747Y-72922468D01*
X59639849Y-72923228D01*
X59636079Y-72924479D01*
X59636074Y-72924481D01*
X59351093Y-73019102D01*
X59351089Y-73019103D01*
X59347317Y-73020356D01*
X59343737Y-73022079D01*
X59343727Y-73022084D01*
X59073200Y-73152362D01*
X59073191Y-73152366D01*
X59069607Y-73154093D01*
X59066278Y-73156259D01*
X59066269Y-73156265D01*
X58814606Y-73320080D01*
X58814595Y-73320087D01*
X58811280Y-73322246D01*
X58808259Y-73324817D01*
X58808252Y-73324823D01*
X58579609Y-73519469D01*
X58579600Y-73519477D01*
X58576576Y-73522052D01*
X58573910Y-73524986D01*
X58573896Y-73525001D01*
X58372030Y-73747279D01*
X58372023Y-73747287D01*
X58369350Y-73750231D01*
X58367074Y-73753493D01*
X58367069Y-73753500D01*
X58195280Y-73999773D01*
X58195274Y-73999781D01*
X58193004Y-74003037D01*
X58191171Y-74006550D01*
X58191164Y-74006562D01*
X58052272Y-74272791D01*
X58052269Y-74272797D01*
X58050433Y-74276317D01*
X58049064Y-74280035D01*
X58049059Y-74280048D01*
X57945352Y-74561856D01*
X57943980Y-74565585D01*
X57943098Y-74569449D01*
X57943096Y-74569456D01*
X57876277Y-74862209D01*
X57875391Y-74866092D01*
X57875009Y-74870044D01*
X57875008Y-74870055D01*
X57861017Y-75015093D01*
X57845794Y-75172902D01*
X52649261Y-75172902D01*
X52644327Y-75019022D01*
X52595133Y-74714739D01*
X52507431Y-74419244D01*
X52382663Y-74137391D01*
X52222877Y-73873807D01*
X52030696Y-73632819D01*
X51907753Y-73513756D01*
X51812127Y-73421147D01*
X51812126Y-73421146D01*
X51809276Y-73418386D01*
X51806094Y-73416011D01*
X51565444Y-73236409D01*
X51565438Y-73236405D01*
X51562253Y-73234028D01*
X51558790Y-73232078D01*
X51558786Y-73232075D01*
X51297142Y-73084720D01*
X51297134Y-73084716D01*
X51293682Y-73082772D01*
X51290004Y-73081283D01*
X51289998Y-73081280D01*
X51011660Y-72968592D01*
X51011647Y-72968587D01*
X51007975Y-72967101D01*
X51004135Y-72966094D01*
X51004129Y-72966092D01*
X50713664Y-72889923D01*
X50713652Y-72889920D01*
X50709821Y-72888916D01*
X50705884Y-72888408D01*
X50705877Y-72888407D01*
X50408055Y-72850007D01*
X50408043Y-72850006D01*
X50404117Y-72849500D01*
X50173026Y-72849500D01*
X50171053Y-72849626D01*
X50171042Y-72849627D01*
X49946376Y-72864051D01*
X49946365Y-72864052D01*
X49942399Y-72864307D01*
X49938488Y-72865068D01*
X49938485Y-72865069D01*
X49643758Y-72922466D01*
X49643747Y-72922468D01*
X49639849Y-72923228D01*
X49636079Y-72924479D01*
X49636074Y-72924481D01*
X49351093Y-73019102D01*
X49351089Y-73019103D01*
X49347317Y-73020356D01*
X49343737Y-73022079D01*
X49343727Y-73022084D01*
X49073200Y-73152362D01*
X49073191Y-73152366D01*
X49069607Y-73154093D01*
X49066278Y-73156259D01*
X49066269Y-73156265D01*
X48814606Y-73320080D01*
X48814595Y-73320087D01*
X48811280Y-73322246D01*
X48808259Y-73324817D01*
X48808252Y-73324823D01*
X48579609Y-73519469D01*
X48579600Y-73519477D01*
X48576576Y-73522052D01*
X48573910Y-73524986D01*
X48573896Y-73525001D01*
X48372030Y-73747279D01*
X48372023Y-73747287D01*
X48369350Y-73750231D01*
X48367074Y-73753493D01*
X48367069Y-73753500D01*
X48195280Y-73999773D01*
X48195274Y-73999781D01*
X48193004Y-74003037D01*
X48191171Y-74006550D01*
X48191164Y-74006562D01*
X48052272Y-74272791D01*
X48052269Y-74272797D01*
X48050433Y-74276317D01*
X48049064Y-74280035D01*
X48049059Y-74280048D01*
X47945352Y-74561856D01*
X47943980Y-74565585D01*
X47943098Y-74569449D01*
X47943096Y-74569456D01*
X47876277Y-74862209D01*
X47875391Y-74866092D01*
X47875009Y-74870044D01*
X47875008Y-74870055D01*
X47861017Y-75015093D01*
X47845794Y-75172902D01*
X42649261Y-75172902D01*
X42644327Y-75019022D01*
X42595133Y-74714739D01*
X42507431Y-74419244D01*
X42382663Y-74137391D01*
X42222877Y-73873807D01*
X42030696Y-73632819D01*
X41907753Y-73513756D01*
X41812127Y-73421147D01*
X41812126Y-73421146D01*
X41809276Y-73418386D01*
X41806094Y-73416011D01*
X41565444Y-73236409D01*
X41565438Y-73236405D01*
X41562253Y-73234028D01*
X41558790Y-73232078D01*
X41558786Y-73232075D01*
X41297142Y-73084720D01*
X41297134Y-73084716D01*
X41293682Y-73082772D01*
X41290004Y-73081283D01*
X41289998Y-73081280D01*
X41011660Y-72968592D01*
X41011647Y-72968587D01*
X41007975Y-72967101D01*
X41004135Y-72966094D01*
X41004129Y-72966092D01*
X40713664Y-72889923D01*
X40713652Y-72889920D01*
X40709821Y-72888916D01*
X40705884Y-72888408D01*
X40705877Y-72888407D01*
X40408055Y-72850007D01*
X40408043Y-72850006D01*
X40404117Y-72849500D01*
X40173026Y-72849500D01*
X40171053Y-72849626D01*
X40171042Y-72849627D01*
X39946376Y-72864051D01*
X39946365Y-72864052D01*
X39942399Y-72864307D01*
X39938488Y-72865068D01*
X39938485Y-72865069D01*
X39643758Y-72922466D01*
X39643747Y-72922468D01*
X39639849Y-72923228D01*
X39636079Y-72924479D01*
X39636074Y-72924481D01*
X39351093Y-73019102D01*
X39351089Y-73019103D01*
X39347317Y-73020356D01*
X39343737Y-73022079D01*
X39343727Y-73022084D01*
X39073200Y-73152362D01*
X39073191Y-73152366D01*
X39069607Y-73154093D01*
X39066278Y-73156259D01*
X39066269Y-73156265D01*
X38814606Y-73320080D01*
X38814595Y-73320087D01*
X38811280Y-73322246D01*
X38808259Y-73324817D01*
X38808252Y-73324823D01*
X38579609Y-73519469D01*
X38579600Y-73519477D01*
X38576576Y-73522052D01*
X38573910Y-73524986D01*
X38573896Y-73525001D01*
X38372030Y-73747279D01*
X38372023Y-73747287D01*
X38369350Y-73750231D01*
X38367074Y-73753493D01*
X38367069Y-73753500D01*
X38195280Y-73999773D01*
X38195274Y-73999781D01*
X38193004Y-74003037D01*
X38191171Y-74006550D01*
X38191164Y-74006562D01*
X38052272Y-74272791D01*
X38052269Y-74272797D01*
X38050433Y-74276317D01*
X38049064Y-74280035D01*
X38049059Y-74280048D01*
X37945352Y-74561856D01*
X37943980Y-74565585D01*
X37943098Y-74569449D01*
X37943096Y-74569456D01*
X37876277Y-74862209D01*
X37875391Y-74866092D01*
X37875009Y-74870044D01*
X37875008Y-74870055D01*
X37861017Y-75015093D01*
X37845794Y-75172902D01*
X19050500Y-75172902D01*
X19050500Y-58687081D01*
X29049500Y-58687081D01*
X29089954Y-59059049D01*
X29090675Y-59062326D01*
X29090677Y-59062336D01*
X29169663Y-59421175D01*
X29170387Y-59424462D01*
X29171461Y-59427649D01*
X29288784Y-59775852D01*
X29288787Y-59775860D01*
X29289858Y-59779038D01*
X29446964Y-60118617D01*
X29639864Y-60439220D01*
X29641892Y-60441888D01*
X29641899Y-60441898D01*
X29862525Y-60732126D01*
X29866297Y-60737087D01*
X29868605Y-60739524D01*
X29868608Y-60739527D01*
X30121298Y-61006289D01*
X30121303Y-61006294D01*
X30123608Y-61008727D01*
X30408779Y-61250954D01*
X30718469Y-61460928D01*
X31049045Y-61636189D01*
X31396632Y-61774680D01*
X31757155Y-61874779D01*
X32126387Y-61935311D01*
X32406528Y-61950500D01*
X32408192Y-61950500D01*
X32591808Y-61950500D01*
X32593472Y-61950500D01*
X32873613Y-61935311D01*
X33242845Y-61874779D01*
X33603368Y-61774680D01*
X33950955Y-61636189D01*
X34281531Y-61460928D01*
X34591221Y-61250954D01*
X34876392Y-61008727D01*
X35133703Y-60737087D01*
X35360136Y-60439220D01*
X35553036Y-60118617D01*
X35710142Y-59779038D01*
X35829613Y-59424462D01*
X35910046Y-59059049D01*
X35950500Y-58687081D01*
X48049500Y-58687081D01*
X48089954Y-59059049D01*
X48090675Y-59062326D01*
X48090677Y-59062336D01*
X48169663Y-59421175D01*
X48170387Y-59424462D01*
X48171461Y-59427649D01*
X48288784Y-59775852D01*
X48288787Y-59775860D01*
X48289858Y-59779038D01*
X48446964Y-60118617D01*
X48639864Y-60439220D01*
X48641892Y-60441888D01*
X48641899Y-60441898D01*
X48862525Y-60732126D01*
X48866297Y-60737087D01*
X48868605Y-60739524D01*
X48868608Y-60739527D01*
X49121298Y-61006289D01*
X49121303Y-61006294D01*
X49123608Y-61008727D01*
X49408779Y-61250954D01*
X49718469Y-61460928D01*
X50049045Y-61636189D01*
X50396632Y-61774680D01*
X50757155Y-61874779D01*
X51126387Y-61935311D01*
X51406528Y-61950500D01*
X51408192Y-61950500D01*
X51591808Y-61950500D01*
X51593472Y-61950500D01*
X51873613Y-61935311D01*
X52242845Y-61874779D01*
X52603368Y-61774680D01*
X52950955Y-61636189D01*
X53281531Y-61460928D01*
X53591221Y-61250954D01*
X53876392Y-61008727D01*
X54133703Y-60737087D01*
X54360136Y-60439220D01*
X54553036Y-60118617D01*
X54710142Y-59779038D01*
X54829613Y-59424462D01*
X54910046Y-59059049D01*
X54950500Y-58687081D01*
X67049500Y-58687081D01*
X67089954Y-59059049D01*
X67090675Y-59062326D01*
X67090677Y-59062336D01*
X67169663Y-59421175D01*
X67170387Y-59424462D01*
X67171461Y-59427649D01*
X67288784Y-59775852D01*
X67288787Y-59775860D01*
X67289858Y-59779038D01*
X67446964Y-60118617D01*
X67639864Y-60439220D01*
X67641892Y-60441888D01*
X67641899Y-60441898D01*
X67862525Y-60732126D01*
X67866297Y-60737087D01*
X67868605Y-60739524D01*
X67868608Y-60739527D01*
X68121298Y-61006289D01*
X68121303Y-61006294D01*
X68123608Y-61008727D01*
X68408779Y-61250954D01*
X68718469Y-61460928D01*
X69049045Y-61636189D01*
X69396632Y-61774680D01*
X69757155Y-61874779D01*
X70126387Y-61935311D01*
X70406528Y-61950500D01*
X70408192Y-61950500D01*
X70591808Y-61950500D01*
X70593472Y-61950500D01*
X70873613Y-61935311D01*
X71242845Y-61874779D01*
X71603368Y-61774680D01*
X71950955Y-61636189D01*
X72281531Y-61460928D01*
X72591221Y-61250954D01*
X72876392Y-61008727D01*
X73133703Y-60737087D01*
X73360136Y-60439220D01*
X73553036Y-60118617D01*
X73710142Y-59779038D01*
X73829613Y-59424462D01*
X73910046Y-59059049D01*
X73950500Y-58687081D01*
X86049500Y-58687081D01*
X86089954Y-59059049D01*
X86090675Y-59062326D01*
X86090677Y-59062336D01*
X86169663Y-59421175D01*
X86170387Y-59424462D01*
X86171461Y-59427649D01*
X86288784Y-59775852D01*
X86288787Y-59775860D01*
X86289858Y-59779038D01*
X86446964Y-60118617D01*
X86639864Y-60439220D01*
X86641892Y-60441888D01*
X86641899Y-60441898D01*
X86862525Y-60732126D01*
X86866297Y-60737087D01*
X86868605Y-60739524D01*
X86868608Y-60739527D01*
X87121298Y-61006289D01*
X87121303Y-61006294D01*
X87123608Y-61008727D01*
X87408779Y-61250954D01*
X87718469Y-61460928D01*
X88049045Y-61636189D01*
X88396632Y-61774680D01*
X88757155Y-61874779D01*
X89126387Y-61935311D01*
X89406528Y-61950500D01*
X89408192Y-61950500D01*
X89591808Y-61950500D01*
X89593472Y-61950500D01*
X89873613Y-61935311D01*
X90242845Y-61874779D01*
X90603368Y-61774680D01*
X90950955Y-61636189D01*
X91281531Y-61460928D01*
X91591221Y-61250954D01*
X91876392Y-61008727D01*
X92133703Y-60737087D01*
X92360136Y-60439220D01*
X92553036Y-60118617D01*
X92710142Y-59779038D01*
X92829613Y-59424462D01*
X92910046Y-59059049D01*
X92950500Y-58687081D01*
X105049500Y-58687081D01*
X105089954Y-59059049D01*
X105090675Y-59062326D01*
X105090677Y-59062336D01*
X105169663Y-59421175D01*
X105170387Y-59424462D01*
X105171461Y-59427649D01*
X105288784Y-59775852D01*
X105288787Y-59775860D01*
X105289858Y-59779038D01*
X105446964Y-60118617D01*
X105639864Y-60439220D01*
X105641892Y-60441888D01*
X105641899Y-60441898D01*
X105862525Y-60732126D01*
X105866297Y-60737087D01*
X105868605Y-60739524D01*
X105868608Y-60739527D01*
X106121298Y-61006289D01*
X106121303Y-61006294D01*
X106123608Y-61008727D01*
X106408779Y-61250954D01*
X106718469Y-61460928D01*
X107049045Y-61636189D01*
X107396632Y-61774680D01*
X107757155Y-61874779D01*
X108126387Y-61935311D01*
X108406528Y-61950500D01*
X108408192Y-61950500D01*
X108591808Y-61950500D01*
X108593472Y-61950500D01*
X108873613Y-61935311D01*
X109242845Y-61874779D01*
X109603368Y-61774680D01*
X109950955Y-61636189D01*
X110281531Y-61460928D01*
X110591221Y-61250954D01*
X110876392Y-61008727D01*
X111133703Y-60737087D01*
X111360136Y-60439220D01*
X111553036Y-60118617D01*
X111710142Y-59779038D01*
X111829613Y-59424462D01*
X111910046Y-59059049D01*
X111950500Y-58687081D01*
X124049500Y-58687081D01*
X124089954Y-59059049D01*
X124090675Y-59062326D01*
X124090677Y-59062336D01*
X124169663Y-59421175D01*
X124170387Y-59424462D01*
X124171461Y-59427649D01*
X124288784Y-59775852D01*
X124288787Y-59775860D01*
X124289858Y-59779038D01*
X124446964Y-60118617D01*
X124639864Y-60439220D01*
X124641892Y-60441888D01*
X124641899Y-60441898D01*
X124862525Y-60732126D01*
X124866297Y-60737087D01*
X124868605Y-60739524D01*
X124868608Y-60739527D01*
X125121298Y-61006289D01*
X125121303Y-61006294D01*
X125123608Y-61008727D01*
X125408779Y-61250954D01*
X125718469Y-61460928D01*
X126049045Y-61636189D01*
X126396632Y-61774680D01*
X126757155Y-61874779D01*
X127126387Y-61935311D01*
X127406528Y-61950500D01*
X127408192Y-61950500D01*
X127591808Y-61950500D01*
X127593472Y-61950500D01*
X127873613Y-61935311D01*
X128242845Y-61874779D01*
X128603368Y-61774680D01*
X128950955Y-61636189D01*
X129281531Y-61460928D01*
X129591221Y-61250954D01*
X129876392Y-61008727D01*
X130133703Y-60737087D01*
X130360136Y-60439220D01*
X130553036Y-60118617D01*
X130710142Y-59779038D01*
X130829613Y-59424462D01*
X130910046Y-59059049D01*
X130950500Y-58687081D01*
X130950500Y-58312919D01*
X130910046Y-57940951D01*
X130829613Y-57575538D01*
X130710142Y-57220962D01*
X130553036Y-56881383D01*
X130360136Y-56560780D01*
X130358104Y-56558107D01*
X130358100Y-56558101D01*
X130135737Y-56265589D01*
X130133703Y-56262913D01*
X130131391Y-56260472D01*
X129878701Y-55993710D01*
X129878695Y-55993704D01*
X129876392Y-55991273D01*
X129591221Y-55749046D01*
X129588441Y-55747161D01*
X129284306Y-55540953D01*
X129284299Y-55540949D01*
X129281531Y-55539072D01*
X129278569Y-55537501D01*
X129278563Y-55537498D01*
X128953926Y-55365386D01*
X128953924Y-55365385D01*
X128950955Y-55363811D01*
X128947835Y-55362568D01*
X128947831Y-55362566D01*
X128606494Y-55226565D01*
X128606485Y-55226562D01*
X128603368Y-55225320D01*
X128531910Y-55205479D01*
X128246085Y-55126120D01*
X128246074Y-55126117D01*
X128242845Y-55125221D01*
X128239543Y-55124679D01*
X128239531Y-55124677D01*
X127876926Y-55065232D01*
X127876923Y-55065231D01*
X127873613Y-55064689D01*
X127870268Y-55064507D01*
X127870253Y-55064506D01*
X127595136Y-55049590D01*
X127595127Y-55049589D01*
X127593472Y-55049500D01*
X127406528Y-55049500D01*
X127404873Y-55049589D01*
X127404863Y-55049590D01*
X127129746Y-55064506D01*
X127129729Y-55064507D01*
X127126387Y-55064689D01*
X127123078Y-55065231D01*
X127123073Y-55065232D01*
X126760468Y-55124677D01*
X126760452Y-55124680D01*
X126757155Y-55125221D01*
X126753928Y-55126116D01*
X126753914Y-55126120D01*
X126399873Y-55224420D01*
X126396632Y-55225320D01*
X126393519Y-55226560D01*
X126393505Y-55226565D01*
X126052168Y-55362566D01*
X126052157Y-55362570D01*
X126049045Y-55363811D01*
X126046082Y-55365381D01*
X126046073Y-55365386D01*
X125721436Y-55537498D01*
X125721422Y-55537506D01*
X125718469Y-55539072D01*
X125715708Y-55540943D01*
X125715693Y-55540953D01*
X125411558Y-55747161D01*
X125411548Y-55747168D01*
X125408779Y-55749046D01*
X125406227Y-55751213D01*
X125406216Y-55751222D01*
X125126166Y-55989099D01*
X125126153Y-55989110D01*
X125123608Y-55991273D01*
X125121313Y-55993695D01*
X125121298Y-55993710D01*
X124868608Y-56260472D01*
X124868597Y-56260484D01*
X124866297Y-56262913D01*
X124864269Y-56265580D01*
X124864262Y-56265589D01*
X124641899Y-56558101D01*
X124641886Y-56558119D01*
X124639864Y-56560780D01*
X124638135Y-56563653D01*
X124638130Y-56563661D01*
X124448698Y-56878500D01*
X124448693Y-56878508D01*
X124446964Y-56881383D01*
X124445554Y-56884429D01*
X124445550Y-56884438D01*
X124291272Y-57217905D01*
X124289858Y-57220962D01*
X124288789Y-57224133D01*
X124288784Y-57224147D01*
X124171461Y-57572350D01*
X124170387Y-57575538D01*
X124169666Y-57578811D01*
X124169663Y-57578824D01*
X124090677Y-57937663D01*
X124090674Y-57937676D01*
X124089954Y-57940951D01*
X124049500Y-58312919D01*
X124049500Y-58687081D01*
X111950500Y-58687081D01*
X111950500Y-58312919D01*
X111910046Y-57940951D01*
X111829613Y-57575538D01*
X111710142Y-57220962D01*
X111553036Y-56881383D01*
X111360136Y-56560780D01*
X111358104Y-56558107D01*
X111358100Y-56558101D01*
X111135737Y-56265589D01*
X111133703Y-56262913D01*
X111131391Y-56260472D01*
X110878701Y-55993710D01*
X110878695Y-55993704D01*
X110876392Y-55991273D01*
X110591221Y-55749046D01*
X110588441Y-55747161D01*
X110284306Y-55540953D01*
X110284299Y-55540949D01*
X110281531Y-55539072D01*
X110278569Y-55537501D01*
X110278563Y-55537498D01*
X109953926Y-55365386D01*
X109953924Y-55365385D01*
X109950955Y-55363811D01*
X109947835Y-55362568D01*
X109947831Y-55362566D01*
X109606494Y-55226565D01*
X109606485Y-55226562D01*
X109603368Y-55225320D01*
X109531910Y-55205479D01*
X109246085Y-55126120D01*
X109246074Y-55126117D01*
X109242845Y-55125221D01*
X109239543Y-55124679D01*
X109239531Y-55124677D01*
X108876926Y-55065232D01*
X108876923Y-55065231D01*
X108873613Y-55064689D01*
X108870268Y-55064507D01*
X108870253Y-55064506D01*
X108595136Y-55049590D01*
X108595127Y-55049589D01*
X108593472Y-55049500D01*
X108406528Y-55049500D01*
X108404873Y-55049589D01*
X108404863Y-55049590D01*
X108129746Y-55064506D01*
X108129729Y-55064507D01*
X108126387Y-55064689D01*
X108123078Y-55065231D01*
X108123073Y-55065232D01*
X107760468Y-55124677D01*
X107760452Y-55124680D01*
X107757155Y-55125221D01*
X107753928Y-55126116D01*
X107753914Y-55126120D01*
X107399873Y-55224420D01*
X107396632Y-55225320D01*
X107393519Y-55226560D01*
X107393505Y-55226565D01*
X107052168Y-55362566D01*
X107052157Y-55362570D01*
X107049045Y-55363811D01*
X107046082Y-55365381D01*
X107046073Y-55365386D01*
X106721436Y-55537498D01*
X106721422Y-55537506D01*
X106718469Y-55539072D01*
X106715708Y-55540943D01*
X106715693Y-55540953D01*
X106411558Y-55747161D01*
X106411548Y-55747168D01*
X106408779Y-55749046D01*
X106406227Y-55751213D01*
X106406216Y-55751222D01*
X106126166Y-55989099D01*
X106126153Y-55989110D01*
X106123608Y-55991273D01*
X106121313Y-55993695D01*
X106121298Y-55993710D01*
X105868608Y-56260472D01*
X105868597Y-56260484D01*
X105866297Y-56262913D01*
X105864269Y-56265580D01*
X105864262Y-56265589D01*
X105641899Y-56558101D01*
X105641886Y-56558119D01*
X105639864Y-56560780D01*
X105638135Y-56563653D01*
X105638130Y-56563661D01*
X105448698Y-56878500D01*
X105448693Y-56878508D01*
X105446964Y-56881383D01*
X105445554Y-56884429D01*
X105445550Y-56884438D01*
X105291272Y-57217905D01*
X105289858Y-57220962D01*
X105288789Y-57224133D01*
X105288784Y-57224147D01*
X105171461Y-57572350D01*
X105170387Y-57575538D01*
X105169666Y-57578811D01*
X105169663Y-57578824D01*
X105090677Y-57937663D01*
X105090674Y-57937676D01*
X105089954Y-57940951D01*
X105049500Y-58312919D01*
X105049500Y-58687081D01*
X92950500Y-58687081D01*
X92950500Y-58312919D01*
X92910046Y-57940951D01*
X92829613Y-57575538D01*
X92710142Y-57220962D01*
X92553036Y-56881383D01*
X92360136Y-56560780D01*
X92358104Y-56558107D01*
X92358100Y-56558101D01*
X92135737Y-56265589D01*
X92133703Y-56262913D01*
X92131391Y-56260472D01*
X91878701Y-55993710D01*
X91878695Y-55993704D01*
X91876392Y-55991273D01*
X91591221Y-55749046D01*
X91588441Y-55747161D01*
X91284306Y-55540953D01*
X91284299Y-55540949D01*
X91281531Y-55539072D01*
X91278569Y-55537501D01*
X91278563Y-55537498D01*
X90953926Y-55365386D01*
X90953924Y-55365385D01*
X90950955Y-55363811D01*
X90947835Y-55362568D01*
X90947831Y-55362566D01*
X90606494Y-55226565D01*
X90606485Y-55226562D01*
X90603368Y-55225320D01*
X90531910Y-55205479D01*
X90246085Y-55126120D01*
X90246074Y-55126117D01*
X90242845Y-55125221D01*
X90239543Y-55124679D01*
X90239531Y-55124677D01*
X89876926Y-55065232D01*
X89876923Y-55065231D01*
X89873613Y-55064689D01*
X89870268Y-55064507D01*
X89870253Y-55064506D01*
X89595136Y-55049590D01*
X89595127Y-55049589D01*
X89593472Y-55049500D01*
X89406528Y-55049500D01*
X89404873Y-55049589D01*
X89404863Y-55049590D01*
X89129746Y-55064506D01*
X89129729Y-55064507D01*
X89126387Y-55064689D01*
X89123078Y-55065231D01*
X89123073Y-55065232D01*
X88760468Y-55124677D01*
X88760452Y-55124680D01*
X88757155Y-55125221D01*
X88753928Y-55126116D01*
X88753914Y-55126120D01*
X88399873Y-55224420D01*
X88396632Y-55225320D01*
X88393519Y-55226560D01*
X88393505Y-55226565D01*
X88052168Y-55362566D01*
X88052157Y-55362570D01*
X88049045Y-55363811D01*
X88046082Y-55365381D01*
X88046073Y-55365386D01*
X87721436Y-55537498D01*
X87721422Y-55537506D01*
X87718469Y-55539072D01*
X87715708Y-55540943D01*
X87715693Y-55540953D01*
X87411558Y-55747161D01*
X87411548Y-55747168D01*
X87408779Y-55749046D01*
X87406227Y-55751213D01*
X87406216Y-55751222D01*
X87126166Y-55989099D01*
X87126153Y-55989110D01*
X87123608Y-55991273D01*
X87121313Y-55993695D01*
X87121298Y-55993710D01*
X86868608Y-56260472D01*
X86868597Y-56260484D01*
X86866297Y-56262913D01*
X86864269Y-56265580D01*
X86864262Y-56265589D01*
X86641899Y-56558101D01*
X86641886Y-56558119D01*
X86639864Y-56560780D01*
X86638135Y-56563653D01*
X86638130Y-56563661D01*
X86448698Y-56878500D01*
X86448693Y-56878508D01*
X86446964Y-56881383D01*
X86445554Y-56884429D01*
X86445550Y-56884438D01*
X86291272Y-57217905D01*
X86289858Y-57220962D01*
X86288789Y-57224133D01*
X86288784Y-57224147D01*
X86171461Y-57572350D01*
X86170387Y-57575538D01*
X86169666Y-57578811D01*
X86169663Y-57578824D01*
X86090677Y-57937663D01*
X86090674Y-57937676D01*
X86089954Y-57940951D01*
X86049500Y-58312919D01*
X86049500Y-58687081D01*
X73950500Y-58687081D01*
X73950500Y-58312919D01*
X73910046Y-57940951D01*
X73829613Y-57575538D01*
X73710142Y-57220962D01*
X73553036Y-56881383D01*
X73360136Y-56560780D01*
X73358104Y-56558107D01*
X73358100Y-56558101D01*
X73135737Y-56265589D01*
X73133703Y-56262913D01*
X73131391Y-56260472D01*
X72878701Y-55993710D01*
X72878695Y-55993704D01*
X72876392Y-55991273D01*
X72591221Y-55749046D01*
X72588441Y-55747161D01*
X72284306Y-55540953D01*
X72284299Y-55540949D01*
X72281531Y-55539072D01*
X72278569Y-55537501D01*
X72278563Y-55537498D01*
X71953926Y-55365386D01*
X71953924Y-55365385D01*
X71950955Y-55363811D01*
X71947835Y-55362568D01*
X71947831Y-55362566D01*
X71606494Y-55226565D01*
X71606485Y-55226562D01*
X71603368Y-55225320D01*
X71531910Y-55205479D01*
X71246085Y-55126120D01*
X71246074Y-55126117D01*
X71242845Y-55125221D01*
X71239543Y-55124679D01*
X71239531Y-55124677D01*
X70876926Y-55065232D01*
X70876923Y-55065231D01*
X70873613Y-55064689D01*
X70870268Y-55064507D01*
X70870253Y-55064506D01*
X70595136Y-55049590D01*
X70595127Y-55049589D01*
X70593472Y-55049500D01*
X70406528Y-55049500D01*
X70404873Y-55049589D01*
X70404863Y-55049590D01*
X70129746Y-55064506D01*
X70129729Y-55064507D01*
X70126387Y-55064689D01*
X70123078Y-55065231D01*
X70123073Y-55065232D01*
X69760468Y-55124677D01*
X69760452Y-55124680D01*
X69757155Y-55125221D01*
X69753928Y-55126116D01*
X69753914Y-55126120D01*
X69399873Y-55224420D01*
X69396632Y-55225320D01*
X69393519Y-55226560D01*
X69393505Y-55226565D01*
X69052168Y-55362566D01*
X69052157Y-55362570D01*
X69049045Y-55363811D01*
X69046082Y-55365381D01*
X69046073Y-55365386D01*
X68721436Y-55537498D01*
X68721422Y-55537506D01*
X68718469Y-55539072D01*
X68715708Y-55540943D01*
X68715693Y-55540953D01*
X68411558Y-55747161D01*
X68411548Y-55747168D01*
X68408779Y-55749046D01*
X68406227Y-55751213D01*
X68406216Y-55751222D01*
X68126166Y-55989099D01*
X68126153Y-55989110D01*
X68123608Y-55991273D01*
X68121313Y-55993695D01*
X68121298Y-55993710D01*
X67868608Y-56260472D01*
X67868597Y-56260484D01*
X67866297Y-56262913D01*
X67864269Y-56265580D01*
X67864262Y-56265589D01*
X67641899Y-56558101D01*
X67641886Y-56558119D01*
X67639864Y-56560780D01*
X67638135Y-56563653D01*
X67638130Y-56563661D01*
X67448698Y-56878500D01*
X67448693Y-56878508D01*
X67446964Y-56881383D01*
X67445554Y-56884429D01*
X67445550Y-56884438D01*
X67291272Y-57217905D01*
X67289858Y-57220962D01*
X67288789Y-57224133D01*
X67288784Y-57224147D01*
X67171461Y-57572350D01*
X67170387Y-57575538D01*
X67169666Y-57578811D01*
X67169663Y-57578824D01*
X67090677Y-57937663D01*
X67090674Y-57937676D01*
X67089954Y-57940951D01*
X67049500Y-58312919D01*
X67049500Y-58687081D01*
X54950500Y-58687081D01*
X54950500Y-58312919D01*
X54910046Y-57940951D01*
X54829613Y-57575538D01*
X54710142Y-57220962D01*
X54553036Y-56881383D01*
X54360136Y-56560780D01*
X54358104Y-56558107D01*
X54358100Y-56558101D01*
X54135737Y-56265589D01*
X54133703Y-56262913D01*
X54131391Y-56260472D01*
X53878701Y-55993710D01*
X53878695Y-55993704D01*
X53876392Y-55991273D01*
X53591221Y-55749046D01*
X53588441Y-55747161D01*
X53284306Y-55540953D01*
X53284299Y-55540949D01*
X53281531Y-55539072D01*
X53278569Y-55537501D01*
X53278563Y-55537498D01*
X52953926Y-55365386D01*
X52953924Y-55365385D01*
X52950955Y-55363811D01*
X52947835Y-55362568D01*
X52947831Y-55362566D01*
X52606494Y-55226565D01*
X52606485Y-55226562D01*
X52603368Y-55225320D01*
X52531910Y-55205479D01*
X52246085Y-55126120D01*
X52246074Y-55126117D01*
X52242845Y-55125221D01*
X52239543Y-55124679D01*
X52239531Y-55124677D01*
X51876926Y-55065232D01*
X51876923Y-55065231D01*
X51873613Y-55064689D01*
X51870268Y-55064507D01*
X51870253Y-55064506D01*
X51595136Y-55049590D01*
X51595127Y-55049589D01*
X51593472Y-55049500D01*
X51406528Y-55049500D01*
X51404873Y-55049589D01*
X51404863Y-55049590D01*
X51129746Y-55064506D01*
X51129729Y-55064507D01*
X51126387Y-55064689D01*
X51123078Y-55065231D01*
X51123073Y-55065232D01*
X50760468Y-55124677D01*
X50760452Y-55124680D01*
X50757155Y-55125221D01*
X50753928Y-55126116D01*
X50753914Y-55126120D01*
X50399873Y-55224420D01*
X50396632Y-55225320D01*
X50393519Y-55226560D01*
X50393505Y-55226565D01*
X50052168Y-55362566D01*
X50052157Y-55362570D01*
X50049045Y-55363811D01*
X50046082Y-55365381D01*
X50046073Y-55365386D01*
X49721436Y-55537498D01*
X49721422Y-55537506D01*
X49718469Y-55539072D01*
X49715708Y-55540943D01*
X49715693Y-55540953D01*
X49411558Y-55747161D01*
X49411548Y-55747168D01*
X49408779Y-55749046D01*
X49406227Y-55751213D01*
X49406216Y-55751222D01*
X49126166Y-55989099D01*
X49126153Y-55989110D01*
X49123608Y-55991273D01*
X49121313Y-55993695D01*
X49121298Y-55993710D01*
X48868608Y-56260472D01*
X48868597Y-56260484D01*
X48866297Y-56262913D01*
X48864269Y-56265580D01*
X48864262Y-56265589D01*
X48641899Y-56558101D01*
X48641886Y-56558119D01*
X48639864Y-56560780D01*
X48638135Y-56563653D01*
X48638130Y-56563661D01*
X48448698Y-56878500D01*
X48448693Y-56878508D01*
X48446964Y-56881383D01*
X48445554Y-56884429D01*
X48445550Y-56884438D01*
X48291272Y-57217905D01*
X48289858Y-57220962D01*
X48288789Y-57224133D01*
X48288784Y-57224147D01*
X48171461Y-57572350D01*
X48170387Y-57575538D01*
X48169666Y-57578811D01*
X48169663Y-57578824D01*
X48090677Y-57937663D01*
X48090674Y-57937676D01*
X48089954Y-57940951D01*
X48049500Y-58312919D01*
X48049500Y-58687081D01*
X35950500Y-58687081D01*
X35950500Y-58312919D01*
X35910046Y-57940951D01*
X35829613Y-57575538D01*
X35710142Y-57220962D01*
X35553036Y-56881383D01*
X35360136Y-56560780D01*
X35358104Y-56558107D01*
X35358100Y-56558101D01*
X35135737Y-56265589D01*
X35133703Y-56262913D01*
X35131391Y-56260472D01*
X34878701Y-55993710D01*
X34878695Y-55993704D01*
X34876392Y-55991273D01*
X34591221Y-55749046D01*
X34588441Y-55747161D01*
X34284306Y-55540953D01*
X34284299Y-55540949D01*
X34281531Y-55539072D01*
X34278569Y-55537501D01*
X34278563Y-55537498D01*
X33953926Y-55365386D01*
X33953924Y-55365385D01*
X33950955Y-55363811D01*
X33947835Y-55362568D01*
X33947831Y-55362566D01*
X33606494Y-55226565D01*
X33606485Y-55226562D01*
X33603368Y-55225320D01*
X33531910Y-55205479D01*
X33246085Y-55126120D01*
X33246074Y-55126117D01*
X33242845Y-55125221D01*
X33239543Y-55124679D01*
X33239531Y-55124677D01*
X32876926Y-55065232D01*
X32876923Y-55065231D01*
X32873613Y-55064689D01*
X32870268Y-55064507D01*
X32870253Y-55064506D01*
X32595136Y-55049590D01*
X32595127Y-55049589D01*
X32593472Y-55049500D01*
X32406528Y-55049500D01*
X32404873Y-55049589D01*
X32404863Y-55049590D01*
X32129746Y-55064506D01*
X32129729Y-55064507D01*
X32126387Y-55064689D01*
X32123078Y-55065231D01*
X32123073Y-55065232D01*
X31760468Y-55124677D01*
X31760452Y-55124680D01*
X31757155Y-55125221D01*
X31753928Y-55126116D01*
X31753914Y-55126120D01*
X31399873Y-55224420D01*
X31396632Y-55225320D01*
X31393519Y-55226560D01*
X31393505Y-55226565D01*
X31052168Y-55362566D01*
X31052157Y-55362570D01*
X31049045Y-55363811D01*
X31046082Y-55365381D01*
X31046073Y-55365386D01*
X30721436Y-55537498D01*
X30721422Y-55537506D01*
X30718469Y-55539072D01*
X30715708Y-55540943D01*
X30715693Y-55540953D01*
X30411558Y-55747161D01*
X30411548Y-55747168D01*
X30408779Y-55749046D01*
X30406227Y-55751213D01*
X30406216Y-55751222D01*
X30126166Y-55989099D01*
X30126153Y-55989110D01*
X30123608Y-55991273D01*
X30121313Y-55993695D01*
X30121298Y-55993710D01*
X29868608Y-56260472D01*
X29868597Y-56260484D01*
X29866297Y-56262913D01*
X29864269Y-56265580D01*
X29864262Y-56265589D01*
X29641899Y-56558101D01*
X29641886Y-56558119D01*
X29639864Y-56560780D01*
X29638135Y-56563653D01*
X29638130Y-56563661D01*
X29448698Y-56878500D01*
X29448693Y-56878508D01*
X29446964Y-56881383D01*
X29445554Y-56884429D01*
X29445550Y-56884438D01*
X29291272Y-57217905D01*
X29289858Y-57220962D01*
X29288789Y-57224133D01*
X29288784Y-57224147D01*
X29171461Y-57572350D01*
X29170387Y-57575538D01*
X29169666Y-57578811D01*
X29169663Y-57578824D01*
X29090677Y-57937663D01*
X29090674Y-57937676D01*
X29089954Y-57940951D01*
X29049500Y-58312919D01*
X29049500Y-58687081D01*
X19050500Y-58687081D01*
X19050500Y-48067764D01*
X22145787Y-48067764D01*
X22175413Y-48337016D01*
X22243928Y-48599087D01*
X22349871Y-48848392D01*
X22490982Y-49079611D01*
X22580253Y-49186881D01*
X22664255Y-49287820D01*
X22865998Y-49468582D01*
X23091910Y-49618044D01*
X23198211Y-49667876D01*
X23337177Y-49733021D01*
X23596562Y-49811058D01*
X23596569Y-49811060D01*
X23864561Y-49850500D01*
X23864564Y-49850500D01*
X24065369Y-49850500D01*
X24067631Y-49850500D01*
X24270156Y-49835677D01*
X24534553Y-49776780D01*
X24787558Y-49680014D01*
X25023777Y-49547441D01*
X25238177Y-49381888D01*
X25426186Y-49186881D01*
X25583799Y-48966579D01*
X25707656Y-48725675D01*
X25795118Y-48469305D01*
X25844319Y-48202933D01*
X25849259Y-48067764D01*
X134145787Y-48067764D01*
X134175413Y-48337016D01*
X134243928Y-48599087D01*
X134349871Y-48848392D01*
X134490982Y-49079611D01*
X134580253Y-49186881D01*
X134664255Y-49287820D01*
X134865998Y-49468582D01*
X135091910Y-49618044D01*
X135198211Y-49667876D01*
X135337177Y-49733021D01*
X135596562Y-49811058D01*
X135596569Y-49811060D01*
X135864561Y-49850500D01*
X135864564Y-49850500D01*
X136065369Y-49850500D01*
X136067631Y-49850500D01*
X136270156Y-49835677D01*
X136534553Y-49776780D01*
X136787558Y-49680014D01*
X137023777Y-49547441D01*
X137238177Y-49381888D01*
X137426186Y-49186881D01*
X137583799Y-48966579D01*
X137707656Y-48725675D01*
X137795118Y-48469305D01*
X137844319Y-48202933D01*
X137854212Y-47932235D01*
X137824586Y-47662982D01*
X137756072Y-47400912D01*
X137650130Y-47151610D01*
X137509018Y-46920390D01*
X137509017Y-46920388D01*
X137335746Y-46712181D01*
X137230759Y-46618112D01*
X137134002Y-46531418D01*
X136908090Y-46381956D01*
X136908086Y-46381954D01*
X136662822Y-46266978D01*
X136403437Y-46188941D01*
X136403431Y-46188940D01*
X136135439Y-46149500D01*
X135932369Y-46149500D01*
X135930120Y-46149664D01*
X135930109Y-46149665D01*
X135729843Y-46164322D01*
X135465449Y-46223219D01*
X135212441Y-46319986D01*
X134976223Y-46452559D01*
X134761825Y-46618109D01*
X134573813Y-46813120D01*
X134416201Y-47033420D01*
X134292342Y-47274329D01*
X134204881Y-47530695D01*
X134155680Y-47797066D01*
X134145787Y-48067764D01*
X25849259Y-48067764D01*
X25854212Y-47932235D01*
X25824586Y-47662982D01*
X25756072Y-47400912D01*
X25650130Y-47151610D01*
X25509018Y-46920390D01*
X25509017Y-46920388D01*
X25335746Y-46712181D01*
X25230759Y-46618112D01*
X25134002Y-46531418D01*
X24908090Y-46381956D01*
X24908086Y-46381954D01*
X24662822Y-46266978D01*
X24403437Y-46188941D01*
X24403431Y-46188940D01*
X24135439Y-46149500D01*
X23932369Y-46149500D01*
X23930120Y-46149664D01*
X23930109Y-46149665D01*
X23729843Y-46164322D01*
X23465449Y-46223219D01*
X23212441Y-46319986D01*
X22976223Y-46452559D01*
X22761825Y-46618109D01*
X22573813Y-46813120D01*
X22416201Y-47033420D01*
X22292342Y-47274329D01*
X22204881Y-47530695D01*
X22155680Y-47797066D01*
X22145787Y-48067764D01*
X19050500Y-48067764D01*
X19050500Y-38687081D01*
X29049500Y-38687081D01*
X29089954Y-39059049D01*
X29090675Y-39062326D01*
X29090677Y-39062336D01*
X29169663Y-39421175D01*
X29170387Y-39424462D01*
X29171461Y-39427649D01*
X29288784Y-39775852D01*
X29288787Y-39775860D01*
X29289858Y-39779038D01*
X29446964Y-40118617D01*
X29639864Y-40439220D01*
X29641892Y-40441888D01*
X29641899Y-40441898D01*
X29862525Y-40732126D01*
X29866297Y-40737087D01*
X29868605Y-40739524D01*
X29868608Y-40739527D01*
X30121298Y-41006289D01*
X30121303Y-41006294D01*
X30123608Y-41008727D01*
X30408779Y-41250954D01*
X30718469Y-41460928D01*
X31049045Y-41636189D01*
X31396632Y-41774680D01*
X31757155Y-41874779D01*
X32126387Y-41935311D01*
X32406528Y-41950500D01*
X32408192Y-41950500D01*
X32591808Y-41950500D01*
X32593472Y-41950500D01*
X32873613Y-41935311D01*
X33242845Y-41874779D01*
X33603368Y-41774680D01*
X33950955Y-41636189D01*
X34281531Y-41460928D01*
X34591221Y-41250954D01*
X34876392Y-41008727D01*
X35133703Y-40737087D01*
X35360136Y-40439220D01*
X35553036Y-40118617D01*
X35710142Y-39779038D01*
X35829613Y-39424462D01*
X35910046Y-39059049D01*
X35950500Y-38687081D01*
X48049500Y-38687081D01*
X48089954Y-39059049D01*
X48090675Y-39062326D01*
X48090677Y-39062336D01*
X48169663Y-39421175D01*
X48170387Y-39424462D01*
X48171461Y-39427649D01*
X48288784Y-39775852D01*
X48288787Y-39775860D01*
X48289858Y-39779038D01*
X48446964Y-40118617D01*
X48639864Y-40439220D01*
X48641892Y-40441888D01*
X48641899Y-40441898D01*
X48862525Y-40732126D01*
X48866297Y-40737087D01*
X48868605Y-40739524D01*
X48868608Y-40739527D01*
X49121298Y-41006289D01*
X49121303Y-41006294D01*
X49123608Y-41008727D01*
X49408779Y-41250954D01*
X49718469Y-41460928D01*
X50049045Y-41636189D01*
X50396632Y-41774680D01*
X50757155Y-41874779D01*
X51126387Y-41935311D01*
X51406528Y-41950500D01*
X51408192Y-41950500D01*
X51591808Y-41950500D01*
X51593472Y-41950500D01*
X51873613Y-41935311D01*
X52242845Y-41874779D01*
X52603368Y-41774680D01*
X52950955Y-41636189D01*
X53281531Y-41460928D01*
X53591221Y-41250954D01*
X53876392Y-41008727D01*
X54133703Y-40737087D01*
X54360136Y-40439220D01*
X54553036Y-40118617D01*
X54710142Y-39779038D01*
X54829613Y-39424462D01*
X54910046Y-39059049D01*
X54950500Y-38687081D01*
X67049500Y-38687081D01*
X67089954Y-39059049D01*
X67090675Y-39062326D01*
X67090677Y-39062336D01*
X67169663Y-39421175D01*
X67170387Y-39424462D01*
X67171461Y-39427649D01*
X67288784Y-39775852D01*
X67288787Y-39775860D01*
X67289858Y-39779038D01*
X67446964Y-40118617D01*
X67639864Y-40439220D01*
X67641892Y-40441888D01*
X67641899Y-40441898D01*
X67862525Y-40732126D01*
X67866297Y-40737087D01*
X67868605Y-40739524D01*
X67868608Y-40739527D01*
X68121298Y-41006289D01*
X68121303Y-41006294D01*
X68123608Y-41008727D01*
X68408779Y-41250954D01*
X68718469Y-41460928D01*
X69049045Y-41636189D01*
X69396632Y-41774680D01*
X69757155Y-41874779D01*
X70126387Y-41935311D01*
X70406528Y-41950500D01*
X70408192Y-41950500D01*
X70591808Y-41950500D01*
X70593472Y-41950500D01*
X70873613Y-41935311D01*
X71242845Y-41874779D01*
X71603368Y-41774680D01*
X71950955Y-41636189D01*
X72281531Y-41460928D01*
X72591221Y-41250954D01*
X72876392Y-41008727D01*
X73133703Y-40737087D01*
X73360136Y-40439220D01*
X73553036Y-40118617D01*
X73710142Y-39779038D01*
X73829613Y-39424462D01*
X73910046Y-39059049D01*
X73950500Y-38687081D01*
X86049500Y-38687081D01*
X86089954Y-39059049D01*
X86090675Y-39062326D01*
X86090677Y-39062336D01*
X86169663Y-39421175D01*
X86170387Y-39424462D01*
X86171461Y-39427649D01*
X86288784Y-39775852D01*
X86288787Y-39775860D01*
X86289858Y-39779038D01*
X86446964Y-40118617D01*
X86639864Y-40439220D01*
X86641892Y-40441888D01*
X86641899Y-40441898D01*
X86862525Y-40732126D01*
X86866297Y-40737087D01*
X86868605Y-40739524D01*
X86868608Y-40739527D01*
X87121298Y-41006289D01*
X87121303Y-41006294D01*
X87123608Y-41008727D01*
X87408779Y-41250954D01*
X87718469Y-41460928D01*
X88049045Y-41636189D01*
X88396632Y-41774680D01*
X88757155Y-41874779D01*
X89126387Y-41935311D01*
X89406528Y-41950500D01*
X89408192Y-41950500D01*
X89591808Y-41950500D01*
X89593472Y-41950500D01*
X89873613Y-41935311D01*
X90242845Y-41874779D01*
X90603368Y-41774680D01*
X90950955Y-41636189D01*
X91281531Y-41460928D01*
X91591221Y-41250954D01*
X91876392Y-41008727D01*
X92133703Y-40737087D01*
X92360136Y-40439220D01*
X92553036Y-40118617D01*
X92710142Y-39779038D01*
X92829613Y-39424462D01*
X92910046Y-39059049D01*
X92950500Y-38687081D01*
X105049500Y-38687081D01*
X105089954Y-39059049D01*
X105090675Y-39062326D01*
X105090677Y-39062336D01*
X105169663Y-39421175D01*
X105170387Y-39424462D01*
X105171461Y-39427649D01*
X105288784Y-39775852D01*
X105288787Y-39775860D01*
X105289858Y-39779038D01*
X105446964Y-40118617D01*
X105639864Y-40439220D01*
X105641892Y-40441888D01*
X105641899Y-40441898D01*
X105862525Y-40732126D01*
X105866297Y-40737087D01*
X105868605Y-40739524D01*
X105868608Y-40739527D01*
X106121298Y-41006289D01*
X106121303Y-41006294D01*
X106123608Y-41008727D01*
X106408779Y-41250954D01*
X106718469Y-41460928D01*
X107049045Y-41636189D01*
X107396632Y-41774680D01*
X107757155Y-41874779D01*
X108126387Y-41935311D01*
X108406528Y-41950500D01*
X108408192Y-41950500D01*
X108591808Y-41950500D01*
X108593472Y-41950500D01*
X108873613Y-41935311D01*
X109242845Y-41874779D01*
X109603368Y-41774680D01*
X109950955Y-41636189D01*
X110281531Y-41460928D01*
X110591221Y-41250954D01*
X110876392Y-41008727D01*
X111133703Y-40737087D01*
X111360136Y-40439220D01*
X111553036Y-40118617D01*
X111710142Y-39779038D01*
X111829613Y-39424462D01*
X111910046Y-39059049D01*
X111950500Y-38687081D01*
X124049500Y-38687081D01*
X124089954Y-39059049D01*
X124090675Y-39062326D01*
X124090677Y-39062336D01*
X124169663Y-39421175D01*
X124170387Y-39424462D01*
X124171461Y-39427649D01*
X124288784Y-39775852D01*
X124288787Y-39775860D01*
X124289858Y-39779038D01*
X124446964Y-40118617D01*
X124639864Y-40439220D01*
X124641892Y-40441888D01*
X124641899Y-40441898D01*
X124862525Y-40732126D01*
X124866297Y-40737087D01*
X124868605Y-40739524D01*
X124868608Y-40739527D01*
X125121298Y-41006289D01*
X125121303Y-41006294D01*
X125123608Y-41008727D01*
X125408779Y-41250954D01*
X125718469Y-41460928D01*
X126049045Y-41636189D01*
X126396632Y-41774680D01*
X126757155Y-41874779D01*
X127126387Y-41935311D01*
X127406528Y-41950500D01*
X127408192Y-41950500D01*
X127591808Y-41950500D01*
X127593472Y-41950500D01*
X127873613Y-41935311D01*
X128242845Y-41874779D01*
X128603368Y-41774680D01*
X128950955Y-41636189D01*
X129281531Y-41460928D01*
X129591221Y-41250954D01*
X129876392Y-41008727D01*
X130133703Y-40737087D01*
X130360136Y-40439220D01*
X130553036Y-40118617D01*
X130710142Y-39779038D01*
X130829613Y-39424462D01*
X130910046Y-39059049D01*
X130950500Y-38687081D01*
X130950500Y-38312919D01*
X130910046Y-37940951D01*
X130829613Y-37575538D01*
X130710142Y-37220962D01*
X130553036Y-36881383D01*
X130360136Y-36560780D01*
X130358104Y-36558107D01*
X130358100Y-36558101D01*
X130135737Y-36265589D01*
X130133703Y-36262913D01*
X130131391Y-36260472D01*
X129878701Y-35993710D01*
X129878695Y-35993704D01*
X129876392Y-35991273D01*
X129591221Y-35749046D01*
X129588441Y-35747161D01*
X129284306Y-35540953D01*
X129284299Y-35540949D01*
X129281531Y-35539072D01*
X129278569Y-35537501D01*
X129278563Y-35537498D01*
X128953926Y-35365386D01*
X128953924Y-35365385D01*
X128950955Y-35363811D01*
X128947835Y-35362568D01*
X128947831Y-35362566D01*
X128606494Y-35226565D01*
X128606485Y-35226562D01*
X128603368Y-35225320D01*
X128531910Y-35205479D01*
X128246085Y-35126120D01*
X128246074Y-35126117D01*
X128242845Y-35125221D01*
X128239543Y-35124679D01*
X128239531Y-35124677D01*
X127876926Y-35065232D01*
X127876923Y-35065231D01*
X127873613Y-35064689D01*
X127870268Y-35064507D01*
X127870253Y-35064506D01*
X127595136Y-35049590D01*
X127595127Y-35049589D01*
X127593472Y-35049500D01*
X127406528Y-35049500D01*
X127404873Y-35049589D01*
X127404863Y-35049590D01*
X127129746Y-35064506D01*
X127129729Y-35064507D01*
X127126387Y-35064689D01*
X127123078Y-35065231D01*
X127123073Y-35065232D01*
X126760468Y-35124677D01*
X126760452Y-35124680D01*
X126757155Y-35125221D01*
X126753928Y-35126116D01*
X126753914Y-35126120D01*
X126399873Y-35224420D01*
X126396632Y-35225320D01*
X126393519Y-35226560D01*
X126393505Y-35226565D01*
X126052168Y-35362566D01*
X126052157Y-35362570D01*
X126049045Y-35363811D01*
X126046082Y-35365381D01*
X126046073Y-35365386D01*
X125721436Y-35537498D01*
X125721422Y-35537506D01*
X125718469Y-35539072D01*
X125715708Y-35540943D01*
X125715693Y-35540953D01*
X125411558Y-35747161D01*
X125411548Y-35747168D01*
X125408779Y-35749046D01*
X125406227Y-35751213D01*
X125406216Y-35751222D01*
X125126166Y-35989099D01*
X125126153Y-35989110D01*
X125123608Y-35991273D01*
X125121313Y-35993695D01*
X125121298Y-35993710D01*
X124868608Y-36260472D01*
X124868597Y-36260484D01*
X124866297Y-36262913D01*
X124864269Y-36265580D01*
X124864262Y-36265589D01*
X124641899Y-36558101D01*
X124641886Y-36558119D01*
X124639864Y-36560780D01*
X124638135Y-36563653D01*
X124638130Y-36563661D01*
X124448698Y-36878500D01*
X124448693Y-36878508D01*
X124446964Y-36881383D01*
X124445554Y-36884429D01*
X124445550Y-36884438D01*
X124291272Y-37217905D01*
X124289858Y-37220962D01*
X124288789Y-37224133D01*
X124288784Y-37224147D01*
X124171461Y-37572350D01*
X124170387Y-37575538D01*
X124169666Y-37578811D01*
X124169663Y-37578824D01*
X124090677Y-37937663D01*
X124090674Y-37937676D01*
X124089954Y-37940951D01*
X124049500Y-38312919D01*
X124049500Y-38687081D01*
X111950500Y-38687081D01*
X111950500Y-38312919D01*
X111910046Y-37940951D01*
X111829613Y-37575538D01*
X111710142Y-37220962D01*
X111553036Y-36881383D01*
X111360136Y-36560780D01*
X111358104Y-36558107D01*
X111358100Y-36558101D01*
X111135737Y-36265589D01*
X111133703Y-36262913D01*
X111131391Y-36260472D01*
X110878701Y-35993710D01*
X110878695Y-35993704D01*
X110876392Y-35991273D01*
X110591221Y-35749046D01*
X110588441Y-35747161D01*
X110284306Y-35540953D01*
X110284299Y-35540949D01*
X110281531Y-35539072D01*
X110278569Y-35537501D01*
X110278563Y-35537498D01*
X109953926Y-35365386D01*
X109953924Y-35365385D01*
X109950955Y-35363811D01*
X109947835Y-35362568D01*
X109947831Y-35362566D01*
X109606494Y-35226565D01*
X109606485Y-35226562D01*
X109603368Y-35225320D01*
X109531910Y-35205479D01*
X109246085Y-35126120D01*
X109246074Y-35126117D01*
X109242845Y-35125221D01*
X109239543Y-35124679D01*
X109239531Y-35124677D01*
X108876926Y-35065232D01*
X108876923Y-35065231D01*
X108873613Y-35064689D01*
X108870268Y-35064507D01*
X108870253Y-35064506D01*
X108595136Y-35049590D01*
X108595127Y-35049589D01*
X108593472Y-35049500D01*
X108406528Y-35049500D01*
X108404873Y-35049589D01*
X108404863Y-35049590D01*
X108129746Y-35064506D01*
X108129729Y-35064507D01*
X108126387Y-35064689D01*
X108123078Y-35065231D01*
X108123073Y-35065232D01*
X107760468Y-35124677D01*
X107760452Y-35124680D01*
X107757155Y-35125221D01*
X107753928Y-35126116D01*
X107753914Y-35126120D01*
X107399873Y-35224420D01*
X107396632Y-35225320D01*
X107393519Y-35226560D01*
X107393505Y-35226565D01*
X107052168Y-35362566D01*
X107052157Y-35362570D01*
X107049045Y-35363811D01*
X107046082Y-35365381D01*
X107046073Y-35365386D01*
X106721436Y-35537498D01*
X106721422Y-35537506D01*
X106718469Y-35539072D01*
X106715708Y-35540943D01*
X106715693Y-35540953D01*
X106411558Y-35747161D01*
X106411548Y-35747168D01*
X106408779Y-35749046D01*
X106406227Y-35751213D01*
X106406216Y-35751222D01*
X106126166Y-35989099D01*
X106126153Y-35989110D01*
X106123608Y-35991273D01*
X106121313Y-35993695D01*
X106121298Y-35993710D01*
X105868608Y-36260472D01*
X105868597Y-36260484D01*
X105866297Y-36262913D01*
X105864269Y-36265580D01*
X105864262Y-36265589D01*
X105641899Y-36558101D01*
X105641886Y-36558119D01*
X105639864Y-36560780D01*
X105638135Y-36563653D01*
X105638130Y-36563661D01*
X105448698Y-36878500D01*
X105448693Y-36878508D01*
X105446964Y-36881383D01*
X105445554Y-36884429D01*
X105445550Y-36884438D01*
X105291272Y-37217905D01*
X105289858Y-37220962D01*
X105288789Y-37224133D01*
X105288784Y-37224147D01*
X105171461Y-37572350D01*
X105170387Y-37575538D01*
X105169666Y-37578811D01*
X105169663Y-37578824D01*
X105090677Y-37937663D01*
X105090674Y-37937676D01*
X105089954Y-37940951D01*
X105049500Y-38312919D01*
X105049500Y-38687081D01*
X92950500Y-38687081D01*
X92950500Y-38312919D01*
X92910046Y-37940951D01*
X92829613Y-37575538D01*
X92710142Y-37220962D01*
X92553036Y-36881383D01*
X92360136Y-36560780D01*
X92358104Y-36558107D01*
X92358100Y-36558101D01*
X92135737Y-36265589D01*
X92133703Y-36262913D01*
X92131391Y-36260472D01*
X91878701Y-35993710D01*
X91878695Y-35993704D01*
X91876392Y-35991273D01*
X91591221Y-35749046D01*
X91588441Y-35747161D01*
X91284306Y-35540953D01*
X91284299Y-35540949D01*
X91281531Y-35539072D01*
X91278569Y-35537501D01*
X91278563Y-35537498D01*
X90953926Y-35365386D01*
X90953924Y-35365385D01*
X90950955Y-35363811D01*
X90947835Y-35362568D01*
X90947831Y-35362566D01*
X90606494Y-35226565D01*
X90606485Y-35226562D01*
X90603368Y-35225320D01*
X90531910Y-35205479D01*
X90246085Y-35126120D01*
X90246074Y-35126117D01*
X90242845Y-35125221D01*
X90239543Y-35124679D01*
X90239531Y-35124677D01*
X89876926Y-35065232D01*
X89876923Y-35065231D01*
X89873613Y-35064689D01*
X89870268Y-35064507D01*
X89870253Y-35064506D01*
X89595136Y-35049590D01*
X89595127Y-35049589D01*
X89593472Y-35049500D01*
X89406528Y-35049500D01*
X89404873Y-35049589D01*
X89404863Y-35049590D01*
X89129746Y-35064506D01*
X89129729Y-35064507D01*
X89126387Y-35064689D01*
X89123078Y-35065231D01*
X89123073Y-35065232D01*
X88760468Y-35124677D01*
X88760452Y-35124680D01*
X88757155Y-35125221D01*
X88753928Y-35126116D01*
X88753914Y-35126120D01*
X88399873Y-35224420D01*
X88396632Y-35225320D01*
X88393519Y-35226560D01*
X88393505Y-35226565D01*
X88052168Y-35362566D01*
X88052157Y-35362570D01*
X88049045Y-35363811D01*
X88046082Y-35365381D01*
X88046073Y-35365386D01*
X87721436Y-35537498D01*
X87721422Y-35537506D01*
X87718469Y-35539072D01*
X87715708Y-35540943D01*
X87715693Y-35540953D01*
X87411558Y-35747161D01*
X87411548Y-35747168D01*
X87408779Y-35749046D01*
X87406227Y-35751213D01*
X87406216Y-35751222D01*
X87126166Y-35989099D01*
X87126153Y-35989110D01*
X87123608Y-35991273D01*
X87121313Y-35993695D01*
X87121298Y-35993710D01*
X86868608Y-36260472D01*
X86868597Y-36260484D01*
X86866297Y-36262913D01*
X86864269Y-36265580D01*
X86864262Y-36265589D01*
X86641899Y-36558101D01*
X86641886Y-36558119D01*
X86639864Y-36560780D01*
X86638135Y-36563653D01*
X86638130Y-36563661D01*
X86448698Y-36878500D01*
X86448693Y-36878508D01*
X86446964Y-36881383D01*
X86445554Y-36884429D01*
X86445550Y-36884438D01*
X86291272Y-37217905D01*
X86289858Y-37220962D01*
X86288789Y-37224133D01*
X86288784Y-37224147D01*
X86171461Y-37572350D01*
X86170387Y-37575538D01*
X86169666Y-37578811D01*
X86169663Y-37578824D01*
X86090677Y-37937663D01*
X86090674Y-37937676D01*
X86089954Y-37940951D01*
X86049500Y-38312919D01*
X86049500Y-38687081D01*
X73950500Y-38687081D01*
X73950500Y-38312919D01*
X73910046Y-37940951D01*
X73829613Y-37575538D01*
X73710142Y-37220962D01*
X73553036Y-36881383D01*
X73360136Y-36560780D01*
X73358104Y-36558107D01*
X73358100Y-36558101D01*
X73135737Y-36265589D01*
X73133703Y-36262913D01*
X73131391Y-36260472D01*
X72878701Y-35993710D01*
X72878695Y-35993704D01*
X72876392Y-35991273D01*
X72591221Y-35749046D01*
X72588441Y-35747161D01*
X72284306Y-35540953D01*
X72284299Y-35540949D01*
X72281531Y-35539072D01*
X72278569Y-35537501D01*
X72278563Y-35537498D01*
X71953926Y-35365386D01*
X71953924Y-35365385D01*
X71950955Y-35363811D01*
X71947835Y-35362568D01*
X71947831Y-35362566D01*
X71606494Y-35226565D01*
X71606485Y-35226562D01*
X71603368Y-35225320D01*
X71531910Y-35205479D01*
X71246085Y-35126120D01*
X71246074Y-35126117D01*
X71242845Y-35125221D01*
X71239543Y-35124679D01*
X71239531Y-35124677D01*
X70876926Y-35065232D01*
X70876923Y-35065231D01*
X70873613Y-35064689D01*
X70870268Y-35064507D01*
X70870253Y-35064506D01*
X70595136Y-35049590D01*
X70595127Y-35049589D01*
X70593472Y-35049500D01*
X70406528Y-35049500D01*
X70404873Y-35049589D01*
X70404863Y-35049590D01*
X70129746Y-35064506D01*
X70129729Y-35064507D01*
X70126387Y-35064689D01*
X70123078Y-35065231D01*
X70123073Y-35065232D01*
X69760468Y-35124677D01*
X69760452Y-35124680D01*
X69757155Y-35125221D01*
X69753928Y-35126116D01*
X69753914Y-35126120D01*
X69399873Y-35224420D01*
X69396632Y-35225320D01*
X69393519Y-35226560D01*
X69393505Y-35226565D01*
X69052168Y-35362566D01*
X69052157Y-35362570D01*
X69049045Y-35363811D01*
X69046082Y-35365381D01*
X69046073Y-35365386D01*
X68721436Y-35537498D01*
X68721422Y-35537506D01*
X68718469Y-35539072D01*
X68715708Y-35540943D01*
X68715693Y-35540953D01*
X68411558Y-35747161D01*
X68411548Y-35747168D01*
X68408779Y-35749046D01*
X68406227Y-35751213D01*
X68406216Y-35751222D01*
X68126166Y-35989099D01*
X68126153Y-35989110D01*
X68123608Y-35991273D01*
X68121313Y-35993695D01*
X68121298Y-35993710D01*
X67868608Y-36260472D01*
X67868597Y-36260484D01*
X67866297Y-36262913D01*
X67864269Y-36265580D01*
X67864262Y-36265589D01*
X67641899Y-36558101D01*
X67641886Y-36558119D01*
X67639864Y-36560780D01*
X67638135Y-36563653D01*
X67638130Y-36563661D01*
X67448698Y-36878500D01*
X67448693Y-36878508D01*
X67446964Y-36881383D01*
X67445554Y-36884429D01*
X67445550Y-36884438D01*
X67291272Y-37217905D01*
X67289858Y-37220962D01*
X67288789Y-37224133D01*
X67288784Y-37224147D01*
X67171461Y-37572350D01*
X67170387Y-37575538D01*
X67169666Y-37578811D01*
X67169663Y-37578824D01*
X67090677Y-37937663D01*
X67090674Y-37937676D01*
X67089954Y-37940951D01*
X67049500Y-38312919D01*
X67049500Y-38687081D01*
X54950500Y-38687081D01*
X54950500Y-38312919D01*
X54910046Y-37940951D01*
X54829613Y-37575538D01*
X54710142Y-37220962D01*
X54553036Y-36881383D01*
X54360136Y-36560780D01*
X54358104Y-36558107D01*
X54358100Y-36558101D01*
X54135737Y-36265589D01*
X54133703Y-36262913D01*
X54131391Y-36260472D01*
X53878701Y-35993710D01*
X53878695Y-35993704D01*
X53876392Y-35991273D01*
X53591221Y-35749046D01*
X53588441Y-35747161D01*
X53284306Y-35540953D01*
X53284299Y-35540949D01*
X53281531Y-35539072D01*
X53278569Y-35537501D01*
X53278563Y-35537498D01*
X52953926Y-35365386D01*
X52953924Y-35365385D01*
X52950955Y-35363811D01*
X52947835Y-35362568D01*
X52947831Y-35362566D01*
X52606494Y-35226565D01*
X52606485Y-35226562D01*
X52603368Y-35225320D01*
X52531910Y-35205479D01*
X52246085Y-35126120D01*
X52246074Y-35126117D01*
X52242845Y-35125221D01*
X52239543Y-35124679D01*
X52239531Y-35124677D01*
X51876926Y-35065232D01*
X51876923Y-35065231D01*
X51873613Y-35064689D01*
X51870268Y-35064507D01*
X51870253Y-35064506D01*
X51595136Y-35049590D01*
X51595127Y-35049589D01*
X51593472Y-35049500D01*
X51406528Y-35049500D01*
X51404873Y-35049589D01*
X51404863Y-35049590D01*
X51129746Y-35064506D01*
X51129729Y-35064507D01*
X51126387Y-35064689D01*
X51123078Y-35065231D01*
X51123073Y-35065232D01*
X50760468Y-35124677D01*
X50760452Y-35124680D01*
X50757155Y-35125221D01*
X50753928Y-35126116D01*
X50753914Y-35126120D01*
X50399873Y-35224420D01*
X50396632Y-35225320D01*
X50393519Y-35226560D01*
X50393505Y-35226565D01*
X50052168Y-35362566D01*
X50052157Y-35362570D01*
X50049045Y-35363811D01*
X50046082Y-35365381D01*
X50046073Y-35365386D01*
X49721436Y-35537498D01*
X49721422Y-35537506D01*
X49718469Y-35539072D01*
X49715708Y-35540943D01*
X49715693Y-35540953D01*
X49411558Y-35747161D01*
X49411548Y-35747168D01*
X49408779Y-35749046D01*
X49406227Y-35751213D01*
X49406216Y-35751222D01*
X49126166Y-35989099D01*
X49126153Y-35989110D01*
X49123608Y-35991273D01*
X49121313Y-35993695D01*
X49121298Y-35993710D01*
X48868608Y-36260472D01*
X48868597Y-36260484D01*
X48866297Y-36262913D01*
X48864269Y-36265580D01*
X48864262Y-36265589D01*
X48641899Y-36558101D01*
X48641886Y-36558119D01*
X48639864Y-36560780D01*
X48638135Y-36563653D01*
X48638130Y-36563661D01*
X48448698Y-36878500D01*
X48448693Y-36878508D01*
X48446964Y-36881383D01*
X48445554Y-36884429D01*
X48445550Y-36884438D01*
X48291272Y-37217905D01*
X48289858Y-37220962D01*
X48288789Y-37224133D01*
X48288784Y-37224147D01*
X48171461Y-37572350D01*
X48170387Y-37575538D01*
X48169666Y-37578811D01*
X48169663Y-37578824D01*
X48090677Y-37937663D01*
X48090674Y-37937676D01*
X48089954Y-37940951D01*
X48049500Y-38312919D01*
X48049500Y-38687081D01*
X35950500Y-38687081D01*
X35950500Y-38312919D01*
X35910046Y-37940951D01*
X35829613Y-37575538D01*
X35710142Y-37220962D01*
X35553036Y-36881383D01*
X35360136Y-36560780D01*
X35358104Y-36558107D01*
X35358100Y-36558101D01*
X35135737Y-36265589D01*
X35133703Y-36262913D01*
X35131391Y-36260472D01*
X34878701Y-35993710D01*
X34878695Y-35993704D01*
X34876392Y-35991273D01*
X34591221Y-35749046D01*
X34588441Y-35747161D01*
X34284306Y-35540953D01*
X34284299Y-35540949D01*
X34281531Y-35539072D01*
X34278569Y-35537501D01*
X34278563Y-35537498D01*
X33953926Y-35365386D01*
X33953924Y-35365385D01*
X33950955Y-35363811D01*
X33947835Y-35362568D01*
X33947831Y-35362566D01*
X33606494Y-35226565D01*
X33606485Y-35226562D01*
X33603368Y-35225320D01*
X33531910Y-35205479D01*
X33246085Y-35126120D01*
X33246074Y-35126117D01*
X33242845Y-35125221D01*
X33239543Y-35124679D01*
X33239531Y-35124677D01*
X32876926Y-35065232D01*
X32876923Y-35065231D01*
X32873613Y-35064689D01*
X32870268Y-35064507D01*
X32870253Y-35064506D01*
X32595136Y-35049590D01*
X32595127Y-35049589D01*
X32593472Y-35049500D01*
X32406528Y-35049500D01*
X32404873Y-35049589D01*
X32404863Y-35049590D01*
X32129746Y-35064506D01*
X32129729Y-35064507D01*
X32126387Y-35064689D01*
X32123078Y-35065231D01*
X32123073Y-35065232D01*
X31760468Y-35124677D01*
X31760452Y-35124680D01*
X31757155Y-35125221D01*
X31753928Y-35126116D01*
X31753914Y-35126120D01*
X31399873Y-35224420D01*
X31396632Y-35225320D01*
X31393519Y-35226560D01*
X31393505Y-35226565D01*
X31052168Y-35362566D01*
X31052157Y-35362570D01*
X31049045Y-35363811D01*
X31046082Y-35365381D01*
X31046073Y-35365386D01*
X30721436Y-35537498D01*
X30721422Y-35537506D01*
X30718469Y-35539072D01*
X30715708Y-35540943D01*
X30715693Y-35540953D01*
X30411558Y-35747161D01*
X30411548Y-35747168D01*
X30408779Y-35749046D01*
X30406227Y-35751213D01*
X30406216Y-35751222D01*
X30126166Y-35989099D01*
X30126153Y-35989110D01*
X30123608Y-35991273D01*
X30121313Y-35993695D01*
X30121298Y-35993710D01*
X29868608Y-36260472D01*
X29868597Y-36260484D01*
X29866297Y-36262913D01*
X29864269Y-36265580D01*
X29864262Y-36265589D01*
X29641899Y-36558101D01*
X29641886Y-36558119D01*
X29639864Y-36560780D01*
X29638135Y-36563653D01*
X29638130Y-36563661D01*
X29448698Y-36878500D01*
X29448693Y-36878508D01*
X29446964Y-36881383D01*
X29445554Y-36884429D01*
X29445550Y-36884438D01*
X29291272Y-37217905D01*
X29289858Y-37220962D01*
X29288789Y-37224133D01*
X29288784Y-37224147D01*
X29171461Y-37572350D01*
X29170387Y-37575538D01*
X29169666Y-37578811D01*
X29169663Y-37578824D01*
X29090677Y-37937663D01*
X29090674Y-37937676D01*
X29089954Y-37940951D01*
X29049500Y-38312919D01*
X29049500Y-38687081D01*
X19050500Y-38687081D01*
X19050500Y-24817764D01*
X24695787Y-24817764D01*
X24725413Y-25087016D01*
X24793928Y-25349087D01*
X24899871Y-25598392D01*
X25040982Y-25829611D01*
X25130253Y-25936881D01*
X25214255Y-26037820D01*
X25415998Y-26218582D01*
X25641910Y-26368044D01*
X25748211Y-26417876D01*
X25887177Y-26483021D01*
X26146562Y-26561058D01*
X26146569Y-26561060D01*
X26414561Y-26600500D01*
X26414564Y-26600500D01*
X26615369Y-26600500D01*
X26617631Y-26600500D01*
X26820156Y-26585677D01*
X27084553Y-26526780D01*
X27337558Y-26430014D01*
X27573777Y-26297441D01*
X27788177Y-26131888D01*
X27976186Y-25936881D01*
X28133799Y-25716579D01*
X28257656Y-25475675D01*
X28345118Y-25219305D01*
X28394319Y-24952933D01*
X28399259Y-24817764D01*
X131595787Y-24817764D01*
X131625413Y-25087016D01*
X131693928Y-25349087D01*
X131799871Y-25598392D01*
X131940982Y-25829611D01*
X132030253Y-25936881D01*
X132114255Y-26037820D01*
X132315998Y-26218582D01*
X132541910Y-26368044D01*
X132648211Y-26417876D01*
X132787177Y-26483021D01*
X133046562Y-26561058D01*
X133046569Y-26561060D01*
X133314561Y-26600500D01*
X133314564Y-26600500D01*
X133515369Y-26600500D01*
X133517631Y-26600500D01*
X133720156Y-26585677D01*
X133984553Y-26526780D01*
X134237558Y-26430014D01*
X134473777Y-26297441D01*
X134688177Y-26131888D01*
X134876186Y-25936881D01*
X135033799Y-25716579D01*
X135157656Y-25475675D01*
X135245118Y-25219305D01*
X135294319Y-24952933D01*
X135304212Y-24682235D01*
X135274586Y-24412982D01*
X135206072Y-24150912D01*
X135100130Y-23901610D01*
X134959018Y-23670390D01*
X134959017Y-23670388D01*
X134785746Y-23462181D01*
X134680759Y-23368112D01*
X134584002Y-23281418D01*
X134358090Y-23131956D01*
X134358086Y-23131954D01*
X134112822Y-23016978D01*
X133853437Y-22938941D01*
X133853431Y-22938940D01*
X133585439Y-22899500D01*
X133382369Y-22899500D01*
X133380120Y-22899664D01*
X133380109Y-22899665D01*
X133179843Y-22914322D01*
X132915449Y-22973219D01*
X132662441Y-23069986D01*
X132426223Y-23202559D01*
X132211825Y-23368109D01*
X132023813Y-23563120D01*
X131866201Y-23783420D01*
X131742342Y-24024329D01*
X131654881Y-24280695D01*
X131605680Y-24547066D01*
X131595787Y-24817764D01*
X28399259Y-24817764D01*
X28404212Y-24682235D01*
X28374586Y-24412982D01*
X28306072Y-24150912D01*
X28200130Y-23901610D01*
X28059018Y-23670390D01*
X28059017Y-23670388D01*
X27885746Y-23462181D01*
X27780759Y-23368112D01*
X27684002Y-23281418D01*
X27458090Y-23131956D01*
X27458086Y-23131954D01*
X27212822Y-23016978D01*
X26953437Y-22938941D01*
X26953431Y-22938940D01*
X26685439Y-22899500D01*
X26482369Y-22899500D01*
X26480120Y-22899664D01*
X26480109Y-22899665D01*
X26279843Y-22914322D01*
X26015449Y-22973219D01*
X25762441Y-23069986D01*
X25526223Y-23202559D01*
X25311825Y-23368109D01*
X25123813Y-23563120D01*
X24966201Y-23783420D01*
X24842342Y-24024329D01*
X24754881Y-24280695D01*
X24705680Y-24547066D01*
X24695787Y-24817764D01*
X19050500Y-24817764D01*
X19050500Y-21874500D01*
X19070185Y-21807461D01*
X19122989Y-21761706D01*
X19174500Y-21750500D01*
X140825500Y-21750500D01*
X140892539Y-21770185D01*
G37*
%TD.AperFunction*%
M02*
